<?xml version="1.0" encoding="utf-8"?>
<!-- Generator: Adobe Illustrator 27.6.1, SVG Export Plug-In . SVG Version: 6.00 Build 0)  -->
<svg version="1.1" id="Layer_1" xmlns="http://www.w3.org/2000/svg" xmlns:xlink="http://www.w3.org/1999/xlink" x="0px" y="0px"
	 viewBox="0 0 1108 745" style="enable-background:new 0 0 1108 745;" xml:space="preserve">
<style type="text/css">
	.st0{fill:none;stroke:#8787C1;stroke-width:3;}
	.st1{fill:#8787C1;}
</style>
<path class="st0" d="M190.28,654.48L190.28,654.48c-3.48,1.97-5.64,5.4-7.24,9.48l-1.25,3.19l-1.49-3.08
	c-2.39-4.93-4.92-9.15-10-11.18h0c-3.48-1.4-7.85-1.29-11.73,0.04c-3.9,1.34-7.05,3.82-8.38,6.88h0c-1.62,3.73-1.39,7.75-0.08,11.79
	c1.32,4.05,3.72,8.01,6.29,11.49h0c4.87,6.6,10.4,12.81,15.96,19.05c2.27,2.56,4.55,5.12,6.8,7.72 M211.2,656.62
	c2.59,3.39,3.32,7.64,2.9,12.05c-0.42,4.41-1.99,8.84-3.84,12.42c-4.52,8.69-12.03,15.79-19.78,22.46l-0.06,0.05l-0.05,0.06
	l-3.35,3.16c-1.09,0.93-2.68,1.94-4.47,2.58c-0.96,0.34-1.84,0.56-2.51,0.6c-0.72,0.04-1.11-0.14-0.87-0.14 M190.28,654.48
	 M190.28,654.48c3.25-1.84,7.54-2.9,11.4-2.67 M201.47,651.81 M190.28,654.48 M201.47,651.81c3.84,0.22,7.35,1.7,9.73,4.81"/>
<path class="st1" d="M930.83,188.99c-4.23-1.97-8.98-3.13-13.63-2.07c-3.55,0.82-6.63,3.02-8.66,6.03
	c-1.88,2.79-2.79,6.29-2.58,9.64c0.22,3.57,1.65,6.99,4.18,9.54c3.08,3.09,7.35,4.49,11.61,4.8c0.62,0.04,1.24,0.06,1.86,0.07
	c-0.23-0.85-0.46-1.7-0.69-2.54c-3.67,2.33-6.82,5.65-8,9.92c-0.96,3.5-0.46,7.21,1.12,10.44c3.13,6.38,10.54,10.45,17.56,8.46
	c5.08-1.44,8.85-5.55,11.42-9.98c-0.85-0.23-1.7-0.46-2.54-0.69c-0.28,3.19,0.24,6.52,1.97,9.26c1.51,2.4,3.77,4.15,6.4,5.17
	c4.96,1.91,11.08,0.79,14.83-3.05c2.46-2.52,3.61-5.94,3.7-9.42c-0.91,0-1.82,0-2.73,0c0.32,3.32,1.39,6.55,3.66,9.05
	c1.81,1.98,4.32,3.34,6.96,3.81c5.49,0.97,11.31-1.35,14.35-6.09c1.98-3.1,2.39-6.81,1.87-10.39c-0.83,0.35-1.66,0.7-2.49,1.05
	c3.83,5.97,10.8,11.42,18.3,9.82c1.98-0.42,3.83-1.37,5.43-2.6c1.34-1.03,2.59-2.12,3.55-3.54c1.72-2.54,2.46-5.81,2.26-8.85
	c-0.24-3.61-1.77-7.04-4.81-9.11c-0.11,0.83-0.22,1.66-0.33,2.49c3.41-1.13,6.41-3.19,8.39-6.21c1.68-2.57,2.47-5.72,2.34-8.77
	c-0.29-6.26-4.34-12.16-10.59-13.7c-4.41-1.09-8.96,0.07-12.95,2.02c0.67,0.51,1.34,1.03,2,1.54c0.9-3.89,1.13-8.06-0.11-11.91
	c-0.99-3.07-2.86-5.75-5.51-7.61c-5.05-3.57-12.04-3.13-17.03,0.32c-3.52,2.44-5.92,6.01-7.42,9.98c0.89,0.12,1.79,0.24,2.68,0.36
	c0.42-5.02-1.59-10.44-6.35-12.73c-4.04-1.95-9.02-1.17-11.89,2.42c-2.04,2.55-2.76,5.8-2.77,9.01c0.89-0.12,1.79-0.24,2.68-0.36
	c-0.8-3.86-2.53-7.68-5.54-10.33c-2.52-2.22-5.68-3.47-9.02-3.68c-6.12-0.39-12.78,2.92-15.4,8.62c-1.66,3.62-1.57,7.67-0.1,11.33
	c0.27,0.68,0.91,1.16,1.68,0.95c0.65-0.18,1.23-0.99,0.95-1.68c-0.33-0.83-0.6-1.68-0.79-2.55c-0.04-0.18-0.08-0.36-0.1-0.53
	c-0.02-0.11-0.03-0.21-0.05-0.32c-0.07-0.36,0.03,0.3-0.01-0.06c-0.04-0.38-0.08-0.76-0.09-1.14c-0.01-0.37-0.01-0.74,0.01-1.1
	c0.01-0.16,0.02-0.33,0.04-0.49c0.01-0.1,0.02-0.2,0.03-0.29c-0.04,0.41,0.01-0.03,0.02-0.11c0.11-0.68,0.29-1.36,0.52-2.01
	c0.05-0.15,0.11-0.29,0.17-0.43c0.11-0.3-0.13,0.28,0.01-0.01c0.04-0.08,0.08-0.17,0.11-0.25c0.15-0.32,0.31-0.63,0.49-0.94
	c0.16-0.28,0.33-0.55,0.52-0.81c0.1-0.15,0.21-0.3,0.32-0.44c-0.22,0.3,0.11-0.13,0.19-0.22c0.43-0.52,0.91-1,1.42-1.44
	c0.14-0.12,0.28-0.24,0.42-0.36c0.05-0.04,0.1-0.08,0.14-0.11c0.25-0.21-0.25,0.17,0.02-0.01c0.31-0.21,0.6-0.43,0.92-0.64
	c0.58-0.37,1.18-0.7,1.81-0.98c0.09-0.04,0.17-0.08,0.26-0.11c0.29-0.13-0.21,0.09-0.02,0.01c0.16-0.07,0.32-0.13,0.48-0.19
	c0.35-0.13,0.71-0.25,1.07-0.36c0.66-0.2,1.34-0.35,2.02-0.46c0.1-0.01,0.19-0.03,0.28-0.04c-0.35,0.05-0.16,0.02-0.08,0.01
	c0.19-0.02,0.38-0.04,0.56-0.06c0.35-0.03,0.69-0.04,1.04-0.05c0.35,0,0.7,0,1.04,0.02c0.17,0.01,0.35,0.02,0.52,0.04
	c0.11,0.01,0.76,0.1,0.34,0.03c0.69,0.11,1.38,0.25,2.05,0.45c0.34,0.1,0.67,0.22,1,0.35c0.09,0.03,0.18,0.07,0.27,0.11
	c-0.3-0.12-0.12-0.05-0.06-0.02c0.21,0.1,0.41,0.19,0.62,0.29c0.65,0.33,1.26,0.72,1.85,1.14c0.05,0.04,0.32,0.25,0.05,0.03
	c0.08,0.06,0.16,0.13,0.24,0.19c0.19,0.15,0.37,0.31,0.54,0.47c0.31,0.29,0.61,0.58,0.89,0.9c0.16,0.17,0.31,0.35,0.46,0.53
	c0.06,0.07,0.11,0.14,0.17,0.21c-0.21-0.26,0.09,0.11,0.12,0.17c0.27,0.37,0.52,0.75,0.75,1.14c0.27,0.44,0.51,0.9,0.74,1.36
	c0.27,0.57,0.29,0.62,0.51,1.17c0.42,1.11,0.74,2.26,0.98,3.43c0.31,1.53,2.67,1.15,2.68-0.36c0-0.73,0.04-1.45,0.12-2.16
	c0.03-0.28,0.01-0.1,0-0.04c0.01-0.09,0.03-0.18,0.04-0.26c0.02-0.15,0.05-0.3,0.08-0.45c0.06-0.31,0.13-0.62,0.21-0.92
	c0.08-0.29,0.17-0.58,0.26-0.86c0.04-0.13,0.09-0.25,0.14-0.38c0.03-0.07,0.06-0.14,0.09-0.21c-0.04,0.11-0.07,0.14,0,0.01
	c0.24-0.5,0.49-0.99,0.8-1.46c0.07-0.1,0.13-0.2,0.21-0.3c0.04-0.06,0.08-0.11,0.12-0.16c0,0-0.16,0.2-0.06,0.08
	c0.17-0.2,0.33-0.4,0.52-0.59c0.15-0.16,0.31-0.32,0.48-0.46c0.08-0.07,0.17-0.14,0.25-0.21c0.18-0.16-0.02,0.02-0.06,0.04
	c0.06-0.05,0.12-0.09,0.19-0.14c0.37-0.26,0.76-0.5,1.17-0.69c0.1-0.04,0.19-0.09,0.29-0.13c-0.36,0.17,0.01,0,0.09-0.03
	c0.21-0.08,0.42-0.14,0.64-0.21c0.21-0.06,0.43-0.11,0.64-0.15c0.1-0.02,0.21-0.03,0.31-0.05c0.15-0.03-0.15,0.02-0.14,0.02
	c0.07,0,0.15-0.02,0.22-0.02c0.44-0.04,0.88-0.05,1.33-0.02c0.12,0.01,0.23,0.02,0.35,0.03c0.32,0.02-0.21-0.04,0.03,0
	c0.23,0.04,0.47,0.08,0.7,0.13c0.44,0.11,0.86,0.25,1.29,0.41c0.23,0.08-0.25-0.12,0.05,0.02c0.1,0.05,0.2,0.09,0.29,0.14
	c0.22,0.11,0.44,0.23,0.65,0.35c0.19,0.11,0.37,0.23,0.55,0.35c0.11,0.07,0.21,0.15,0.31,0.22c-0.24-0.18,0,0,0.1,0.08
	c0.37,0.31,0.72,0.65,1.04,1.01c0.08,0.09,0.15,0.18,0.22,0.26c0.08,0.1,0.22,0.29,0.07,0.08c0.16,0.22,0.32,0.44,0.46,0.67
	c0.16,0.25,0.31,0.51,0.44,0.77c0.07,0.12,0.13,0.25,0.19,0.38c0.04,0.08,0.22,0.51,0.1,0.22c0.23,0.6,0.43,1.2,0.57,1.83
	c0.07,0.31,0.12,0.63,0.18,0.94c0.01,0.06,0.04,0.27,0,0c0.01,0.11,0.02,0.21,0.03,0.31c0.01,0.17,0.03,0.33,0.04,0.51
	c0.05,0.78,0.03,1.57-0.03,2.34c-0.06,0.67,0.56,1.27,1.18,1.34c0.71,0.09,1.25-0.32,1.5-0.97c0.56-1.49,1.43-3.19,2.46-4.65
	c0.12-0.17,0.24-0.33,0.37-0.5c-0.16,0.21,0.16-0.2,0.21-0.25c0.27-0.32,0.54-0.64,0.83-0.94c0.53-0.56,1.09-1.07,1.69-1.56
	c0.04-0.03,0.33-0.26,0.08-0.06c0.06-0.04,0.12-0.09,0.18-0.13c0.15-0.11,0.3-0.21,0.45-0.32c0.31-0.21,0.64-0.42,0.96-0.61
	c0.29-0.17,0.59-0.33,0.89-0.48c0.16-0.08,0.31-0.15,0.47-0.22c0.08-0.03,0.16-0.07,0.24-0.11c0.09-0.04,0.06-0.03-0.09,0.04
	c0.06-0.02,0.13-0.05,0.19-0.08c0.64-0.24,1.28-0.45,1.95-0.61c0.31-0.07,0.62-0.13,0.93-0.19c0.08-0.01,0.16-0.02,0.25-0.04
	c0.32-0.06-0.23,0.02-0.02,0c0.18-0.02,0.36-0.04,0.54-0.06c0.65-0.05,1.3-0.06,1.95-0.02c0.16,0.01,0.33,0.02,0.48,0.04
	c0.1,0.01,0.62,0.09,0.22,0.02c0.33,0.05,0.66,0.11,0.99,0.18c0.64,0.14,1.27,0.33,1.88,0.57c0.06,0.02,0.12,0.05,0.18,0.07
	c0.31,0.12-0.27-0.13,0.03,0.01c0.13,0.06,0.26,0.12,0.39,0.18c0.3,0.15,0.6,0.31,0.89,0.48c0.28,0.16,0.55,0.34,0.81,0.52
	c0.12,0.08,0.23,0.17,0.35,0.26c0.17,0.12-0.25-0.21-0.01,0c0.08,0.06,0.15,0.12,0.22,0.19c0.52,0.43,1,0.91,1.44,1.42
	c0.1,0.11,0.19,0.23,0.29,0.35c0.22,0.26-0.17-0.23,0.03,0.04c0.04,0.06,0.08,0.11,0.12,0.16c0.22,0.31,0.43,0.62,0.63,0.95
	c0.16,0.27,0.32,0.55,0.46,0.83c0.08,0.16,0.16,0.32,0.23,0.48c0.05,0.1,0.09,0.2,0.13,0.3c-0.1-0.21-0.01-0.03,0.03,0.08
	c0.31,0.8,0.56,1.62,0.74,2.46c0.05,0.21,0.09,0.43,0.13,0.65c0.02,0.12,0.04,0.24,0.06,0.36c0.01,0.06,0.06,0.43,0.02,0.13
	c0.06,0.46,0.1,0.93,0.12,1.4c0.05,1.05,0.02,2.11-0.08,3.15c-0.1,1.06-0.28,2.08-0.55,3.25c-0.28,1.2,0.93,2.06,2,1.54
	c1.68-0.83,3.53-1.5,5.51-1.86c0.21-0.04,0.41-0.07,0.62-0.1c-0.3,0.04,0.29-0.03,0.36-0.04c0.43-0.04,0.86-0.07,1.29-0.08
	c0.37,0,0.75,0,1.12,0.02c0.18,0.01,0.36,0.03,0.54,0.04c0.1,0.01,0.22,0.02,0.32,0.04c-0.35-0.04-0.02,0,0.06,0.01
	c0.74,0.13,1.48,0.31,2.19,0.56c0.16,0.06,0.31,0.12,0.47,0.18c0.07,0.02,0.24,0.11-0.05-0.02c0.09,0.04,0.18,0.08,0.27,0.12
	c0.32,0.15,0.64,0.32,0.95,0.49c0.28,0.16,0.55,0.33,0.81,0.52c0.13,0.09,0.26,0.19,0.39,0.28c0.27,0.19-0.22-0.19,0.02,0.02
	c0.07,0.06,0.15,0.12,0.22,0.18c0.51,0.43,0.98,0.89,1.41,1.39c0.11,0.13,0.22,0.27,0.33,0.4c0.05,0.07,0.19,0.25-0.01-0.01
	c0.05,0.06,0.1,0.12,0.14,0.19c0.21,0.3,0.41,0.59,0.6,0.9c0.34,0.56,0.64,1.16,0.91,1.76c-0.16-0.36,0.04,0.11,0.08,0.2
	c0.06,0.15,0.11,0.3,0.16,0.44c0.11,0.33,0.21,0.66,0.3,1c0.08,0.31,0.15,0.62,0.22,0.93c0.03,0.16,0.06,0.31,0.09,0.47
	c0.01,0.1,0.03,0.19,0.04,0.28c-0.06-0.38-0.01-0.07,0,0.01c0.07,0.68,0.11,1.36,0.09,2.05c-0.01,0.33-0.03,0.67-0.06,1
	c-0.01,0.1-0.08,0.62-0.02,0.21c-0.03,0.19-0.06,0.38-0.09,0.57c-0.12,0.66-0.29,1.32-0.51,1.95c-0.05,0.15-0.11,0.31-0.16,0.45
	c-0.03,0.09-0.24,0.56-0.08,0.22c-0.15,0.32-0.3,0.65-0.47,0.96c-0.19,0.35-0.39,0.69-0.61,1.02c-0.11,0.17-0.22,0.33-0.34,0.49
	c-0.04,0.05-0.24,0.32-0.03,0.04c-0.06,0.08-0.12,0.16-0.19,0.24c-0.53,0.64-1.11,1.23-1.75,1.76c-0.07,0.06-0.14,0.11-0.21,0.17
	c-0.27,0.22,0.11-0.07-0.11,0.08c-0.18,0.12-0.35,0.26-0.53,0.38c-0.37,0.25-0.76,0.48-1.15,0.7c-0.41,0.22-0.83,0.43-1.26,0.62
	c0.05-0.02,0.24-0.1-0.01,0.01c-0.13,0.05-0.26,0.1-0.4,0.16c-0.25,0.1-0.51,0.19-0.76,0.27c-1.15,0.38-1.31,1.82-0.33,2.49
	c0.42,0.29,0.88,0.68,1.33,1.18c0.1,0.12,0.21,0.24,0.31,0.36c-0.11-0.15,0.12,0.17,0.15,0.22c0.2,0.28,0.37,0.57,0.53,0.87
	c0.34,0.62,0.44,0.87,0.66,1.58c0.1,0.31,0.18,0.63,0.25,0.95c0.06,0.27,0.15,0.79,0.17,0.93c0.31,2.46-0.14,5.17-1.34,7.33
	c-0.15,0.28-0.32,0.54-0.5,0.81c-0.09,0.13-0.18,0.26-0.27,0.38c-0.1,0.12-0.01,0.01,0.01-0.01c-0.07,0.09-0.14,0.17-0.21,0.25
	c-0.2,0.23-0.41,0.45-0.63,0.67c-0.11,0.1-0.22,0.21-0.34,0.31c-0.05,0.04-0.1,0.08-0.15,0.12c-0.06,0.05-0.07,0.05-0.01,0.01
	c0.13-0.1,0.05-0.03-0.24,0.19c-1.35,1.13-2.72,2.13-4.41,2.68c-2.93,0.94-5.96,0.4-8.65-1.03c-3.14-1.67-5.75-4.29-7.65-7.25
	c-0.36-0.57-1.07-0.83-1.7-0.56c-0.67,0.3-0.89,0.92-0.79,1.61c0.06,0.42-0.01-0.15,0.01,0.1c0.01,0.09,0.02,0.18,0.03,0.26
	c0.02,0.2,0.04,0.39,0.05,0.58c0.03,0.4,0.04,0.79,0.04,1.19c0,0.34-0.01,0.68-0.04,1.03c-0.01,0.2-0.04,0.39-0.05,0.58
	c-0.01,0.06-0.04,0.27,0-0.02c-0.01,0.11-0.03,0.22-0.05,0.34c-0.11,0.65-0.27,1.3-0.48,1.92c-0.05,0.15-0.11,0.3-0.16,0.45
	c-0.03,0.08-0.22,0.53-0.08,0.21c-0.13,0.3-0.28,0.6-0.43,0.88c-0.14,0.25-0.28,0.5-0.44,0.74c-0.09,0.14-0.19,0.28-0.28,0.42
	c-0.06,0.08-0.36,0.48-0.14,0.21c-0.37,0.47-0.76,0.91-1.2,1.31c-0.21,0.2-0.44,0.39-0.66,0.58c-0.3,0.25,0.11-0.07-0.15,0.11
	c-0.13,0.1-0.26,0.19-0.4,0.28c-0.49,0.34-1.01,0.64-1.55,0.9c-0.11,0.06-0.23,0.11-0.35,0.17c-0.07,0.03-0.15,0.07-0.22,0.1
	c-0.17,0.08,0.23-0.1,0.06-0.02c-0.29,0.11-0.57,0.22-0.86,0.32c-0.56,0.19-1.14,0.33-1.72,0.44c-0.14,0.02-0.29,0.05-0.43,0.07
	c-0.21,0.04,0.24-0.02-0.11,0.01c-0.32,0.03-0.63,0.06-0.96,0.07c-0.57,0.02-1.15,0.01-1.72-0.05c-0.07,0-0.51-0.06-0.29-0.03
	c0.22,0.03-0.22-0.04-0.29-0.05c-0.3-0.05-0.59-0.11-0.88-0.19c-0.26-0.07-0.52-0.14-0.78-0.23c-0.13-0.04-0.27-0.09-0.41-0.14
	c-0.08-0.03-0.15-0.06-0.22-0.09c-0.26-0.1,0.25,0.12-0.03-0.01c-0.53-0.24-1.04-0.5-1.53-0.82c-0.25-0.16-0.48-0.32-0.72-0.5
	c0.24,0.18-0.01-0.01-0.11-0.09c-0.14-0.11-0.28-0.23-0.41-0.36c-0.26-0.24-0.51-0.49-0.74-0.75c-0.11-0.13-0.22-0.26-0.33-0.39
	c-0.04-0.05-0.09-0.11-0.13-0.16c0.21,0.27-0.01-0.01-0.04-0.06c-0.42-0.61-0.81-1.24-1.13-1.91c-0.04-0.09-0.08-0.17-0.12-0.26
	c-0.11-0.23,0.04,0.11-0.02-0.04c-0.08-0.2-0.16-0.4-0.23-0.6c-0.13-0.38-0.25-0.76-0.36-1.16c-0.11-0.41-0.2-0.82-0.28-1.24
	c-0.11-0.6-0.11-0.62-0.17-1.24c-0.07-0.73-0.58-1.36-1.36-1.36c-0.75,0-1.35,0.63-1.36,1.36c-0.01,0.37-0.03,0.74-0.06,1.12
	c-0.01,0.08-0.01,0.16-0.02,0.24c0-0.01-0.05,0.39-0.02,0.18c0.03-0.21-0.03,0.17-0.03,0.17c-0.02,0.11-0.04,0.23-0.06,0.34
	c-0.12,0.66-0.29,1.31-0.52,1.94c-0.06,0.17-0.12,0.33-0.19,0.5c-0.02,0.06-0.11,0.23,0.01-0.03c-0.03,0.06-0.06,0.13-0.09,0.19
	c-0.15,0.31-0.3,0.62-0.47,0.92c-0.15,0.26-0.31,0.52-0.48,0.77c-0.08,0.11-0.16,0.21-0.23,0.32c-0.14,0.2,0.01-0.01,0.03-0.04
	c-0.06,0.08-0.12,0.15-0.19,0.23c-0.39,0.47-0.83,0.91-1.29,1.31c-0.1,0.08-0.2,0.16-0.3,0.24c-0.24,0.21,0.18-0.13,0.01-0.01
	c-0.06,0.05-0.13,0.1-0.19,0.14c-0.23,0.17-0.47,0.32-0.71,0.47c-0.24,0.15-0.49,0.29-0.75,0.42c-0.14,0.07-0.28,0.14-0.42,0.21
	c-0.1,0.04-0.55,0.23-0.2,0.09c-0.54,0.22-1.09,0.41-1.66,0.55c-0.26,0.07-0.53,0.12-0.79,0.18c-0.16,0.03-0.31,0.06-0.47,0.08
	c-0.37,0.06,0.19-0.01-0.2,0.03c-0.58,0.06-1.17,0.09-1.76,0.08c-0.27-0.01-0.54-0.02-0.81-0.04c-0.16-0.01-0.32-0.03-0.47-0.05
	c-0.08-0.01-0.27-0.04,0.08,0.01c-0.1-0.01-0.19-0.03-0.28-0.04c-0.58-0.1-1.15-0.22-1.71-0.4c-0.26-0.08-0.51-0.16-0.76-0.26
	c-0.08-0.03-0.57-0.23-0.2-0.08c-0.14-0.06-0.29-0.13-0.43-0.2c-0.53-0.25-1.04-0.54-1.52-0.87c-0.12-0.08-0.23-0.16-0.35-0.25
	c-0.32-0.22,0.1,0.1-0.14-0.11c-0.23-0.2-0.47-0.39-0.69-0.6c-0.21-0.2-0.42-0.41-0.61-0.63c-0.09-0.1-0.17-0.2-0.26-0.3
	c-0.05-0.06-0.11-0.13-0.15-0.19c-0.07-0.09,0.15,0.21-0.03-0.04c-0.41-0.56-0.77-1.15-1.08-1.78c-0.04-0.08-0.08-0.16-0.11-0.23
	c-0.01-0.03-0.15-0.36-0.08-0.18c0.08,0.2-0.05-0.12-0.05-0.13c-0.04-0.1-0.08-0.2-0.11-0.3c-0.12-0.34-0.23-0.7-0.33-1.05
	c-0.1-0.39-0.18-0.78-0.25-1.17c-0.01-0.08-0.02-0.15-0.04-0.23c-0.01-0.1-0.01-0.08,0.01,0.07c-0.01-0.06-0.01-0.12-0.02-0.18
	c-0.02-0.22-0.05-0.44-0.06-0.67c-0.06-0.91-0.04-1.82,0.04-2.74c0.12-1.39-1.9-1.8-2.54-0.69c-1.22,2.09-2.5,3.86-4.28,5.51
	c-0.85,0.79-1.3,1.14-2.24,1.73c-0.37,0.23-0.74,0.44-1.13,0.65c-0.17,0.09-0.34,0.17-0.52,0.25c-0.1,0.05-0.21,0.09-0.31,0.14
	c0.31-0.13-0.13,0.05-0.19,0.07c-0.77,0.3-1.56,0.52-2.37,0.66c-0.1,0.02-0.21,0.03-0.31,0.05c-0.35,0.06,0.3-0.02-0.05,0
	c-0.21,0.02-0.41,0.04-0.61,0.06c-0.41,0.03-0.81,0.03-1.22,0.02c-0.37-0.01-0.73-0.05-1.1-0.09c-0.34-0.03,0.31,0.06-0.03-0.01
	c-0.1-0.02-0.2-0.03-0.3-0.05c-0.2-0.03-0.39-0.08-0.58-0.12c-0.35-0.08-0.71-0.18-1.05-0.29c-0.19-0.06-0.38-0.12-0.56-0.19
	c-0.11-0.04-0.74-0.31-0.41-0.16c-0.69-0.31-1.37-0.66-2.01-1.07c-0.31-0.2-0.61-0.41-0.9-0.62c-0.05-0.04-0.31-0.25-0.04-0.03
	c-0.08-0.06-0.16-0.12-0.23-0.19c-0.15-0.12-0.31-0.25-0.45-0.39c-0.6-0.53-1.15-1.1-1.66-1.72c-0.06-0.07-0.38-0.48-0.16-0.19
	c-0.12-0.16-0.24-0.32-0.35-0.48c-0.23-0.32-0.44-0.66-0.65-1c-0.19-0.31-0.36-0.63-0.53-0.96c-0.09-0.18-0.17-0.36-0.26-0.54
	c-0.03-0.06-0.16-0.38-0.02-0.04c-0.04-0.1-0.09-0.21-0.13-0.32c-0.28-0.73-0.51-1.48-0.66-2.24c-0.04-0.2-0.08-0.39-0.11-0.59
	c-0.01-0.07-0.02-0.13-0.03-0.2c-0.06-0.34,0.02,0.31,0-0.03c-0.03-0.4-0.07-0.8-0.08-1.2c-0.01-0.4,0-0.81,0.03-1.21
	c0.01-0.17,0.03-0.34,0.05-0.51c0.01-0.07,0.07-0.42,0.01-0.04c0.02-0.13,0.04-0.27,0.07-0.41c0.16-0.9,0.42-1.78,0.77-2.63
	c-0.12,0.3,0.12-0.27,0.18-0.37c0.11-0.23,0.23-0.46,0.36-0.69c0.24-0.43,0.51-0.86,0.8-1.27c0.07-0.1,0.14-0.19,0.21-0.29
	c0.1-0.12,0.1-0.13,0-0.01c0.05-0.06,0.1-0.13,0.15-0.19c0.15-0.19,0.31-0.38,0.48-0.56c0.37-0.42,0.76-0.82,1.17-1.19
	c0.97-0.91,1.73-1.47,2.88-2.2c1.12-0.71,0.7-2.54-0.69-2.54c-0.6,0-1.2-0.02-1.8-0.06c-0.28-0.02-0.55-0.04-0.83-0.07
	c-0.14-0.01-0.29-0.03-0.43-0.05c-0.16-0.02,0.04,0.01,0.06,0.01c-0.08-0.01-0.16-0.02-0.24-0.03c-1.04-0.16-2.07-0.39-3.07-0.72
	c-0.22-0.07-0.44-0.15-0.66-0.23c-0.11-0.04-0.23-0.09-0.34-0.13c-0.1-0.04-0.36-0.15-0.11-0.04c-0.42-0.19-0.83-0.38-1.23-0.6
	c-0.4-0.21-0.79-0.45-1.17-0.71c-0.17-0.11-0.34-0.23-0.5-0.35c-0.12-0.09-0.2-0.15-0.02-0.01c-0.1-0.08-0.2-0.15-0.29-0.23
	c-0.63-0.52-1.2-1.1-1.72-1.72c-0.07-0.08-0.13-0.16-0.19-0.24c-0.05-0.06,0.16,0.22,0-0.01c-0.12-0.18-0.25-0.35-0.38-0.54
	c-0.22-0.32-0.42-0.66-0.6-1c-0.18-0.34-0.34-0.69-0.51-1.04c0.16,0.36-0.05-0.13-0.1-0.27c-0.07-0.19-0.13-0.37-0.2-0.56
	c-0.24-0.74-0.4-1.49-0.53-2.26c-0.04-0.25,0.03,0.28,0.01,0.03c-0.01-0.1-0.02-0.2-0.03-0.29c-0.02-0.2-0.03-0.39-0.05-0.59
	c-0.02-0.38-0.03-0.76-0.02-1.14c0.01-0.38,0.03-0.76,0.07-1.14c0.01-0.14,0.1-0.68,0.02-0.27c0.03-0.2,0.06-0.39,0.1-0.58
	c0.14-0.76,0.33-1.51,0.59-2.24c0.06-0.17,0.12-0.34,0.19-0.51c0.03-0.08,0.06-0.16,0.1-0.23c-0.15,0.38-0.01,0.03,0.03-0.06
	c0.16-0.34,0.32-0.68,0.51-1.02c0.19-0.34,0.39-0.68,0.61-1.01c0.1-0.15,0.21-0.3,0.31-0.45c0.05-0.07,0.1-0.13,0.15-0.21
	c0.11-0.15-0.17,0.21,0.05-0.06c0.49-0.59,1.01-1.15,1.59-1.65c0.14-0.12,0.29-0.24,0.43-0.35c0.26-0.21-0.17,0.11,0.03-0.02
	c0.08-0.06,0.16-0.12,0.24-0.18c0.33-0.23,0.67-0.45,1.03-0.65c0.34-0.2,0.7-0.38,1.07-0.54c0.08-0.04,0.16-0.07,0.25-0.11
	c-0.35,0.15-0.03,0.01,0.05-0.02c0.2-0.08,0.4-0.15,0.6-0.22c0.4-0.13,0.8-0.25,1.21-0.34c0.2-0.05,0.41-0.09,0.61-0.13
	c0.11-0.02,0.22-0.04,0.33-0.06c0.09-0.01,0.5-0.07,0.12-0.02c0.93-0.11,1.85-0.15,2.78-0.1c0.24,0.01,0.47,0.03,0.71,0.05
	c0.13,0.01,0.26,0.02,0.39,0.04c0.06,0,0.11,0.01,0.17,0.02c0.21,0.02-0.23-0.03-0.02,0c0.53,0.08,1.04,0.17,1.56,0.29
	c1.15,0.26,2.27,0.61,3.37,1.03c0.13,0.05,0.26,0.1,0.38,0.15c0.05,0.02,0.42,0.17,0.25,0.11c0.31,0.13,0.61,0.27,0.92,0.41
	c0.67,0.31,1.47,0.19,1.87-0.49C931.66,190.27,931.5,189.3,930.83,188.99z"/>
<path class="st1" d="M948.23,215.94c-0.37-0.54-0.71-1.1-1-1.69c-0.06-0.12-0.11-0.25-0.17-0.37c-0.11-0.23-0.01-0.04,0.01,0.01
	c-0.03-0.07-0.06-0.14-0.08-0.21c-0.1-0.27-0.2-0.54-0.27-0.83c-0.07-0.25-0.13-0.5-0.17-0.75c-0.02-0.14-0.05-0.36-0.02-0.08
	c-0.01-0.14-0.03-0.29-0.04-0.43c-0.01-0.23-0.02-0.47-0.01-0.71c0-0.11,0.01-0.22,0.02-0.33c0.01-0.1,0.08-0.55,0.01-0.13
	c0.08-0.45,0.18-0.89,0.33-1.33c0.03-0.1,0.07-0.19,0.11-0.28c-0.1,0.28-0.03,0.07,0.04-0.07c0.1-0.21,0.21-0.41,0.33-0.61
	c0.1-0.17,0.22-0.34,0.33-0.5c0.21-0.3-0.1,0.1,0.05-0.07c0.08-0.09,0.15-0.18,0.22-0.26c0.31-0.35,0.66-0.65,1.01-0.96
	c0.18-0.16-0.24,0.16,0.04-0.03c0.09-0.06,0.17-0.12,0.25-0.18c0.2-0.13,0.39-0.26,0.6-0.38c0.19-0.11,0.39-0.21,0.59-0.32
	c0.1-0.05,0.19-0.09,0.28-0.13c0.34-0.16-0.17,0.05,0.13-0.05c0.44-0.15,0.87-0.31,1.32-0.42c0.22-0.05,0.44-0.1,0.66-0.13
	c0.19-0.03,0.29-0.04,0.04-0.01c0.13-0.01,0.27-0.03,0.4-0.04c0.46-0.04,0.93-0.04,1.39-0.01c0.11,0,0.21,0.02,0.31,0.03
	c0.06,0,0.12,0.01,0.18,0.02c0.19,0.02-0.28-0.05-0.1-0.01c0.23,0.04,0.47,0.08,0.71,0.14c0.22,0.05,0.43,0.11,0.65,0.19
	c0.1,0.03,0.2,0.07,0.3,0.11c0.06,0.02,0.11,0.04,0.17,0.07c0.17,0.06-0.31-0.15-0.03-0.01c0.42,0.2,0.82,0.41,1.21,0.67
	c0.06,0.04,0.39,0.28,0.24,0.17c-0.14-0.11,0.18,0.14,0.23,0.19c0.21,0.18,0.41,0.37,0.6,0.57c0.1,0.11,0.2,0.22,0.3,0.33
	c0.08,0.09,0.27,0.36,0.1,0.12c0.19,0.26,0.36,0.52,0.53,0.79c0.16,0.27,0.31,0.55,0.44,0.83c0.03,0.07,0.06,0.14,0.1,0.21
	c0.09,0.2-0.11-0.3,0.02,0.05c0.06,0.15,0.11,0.3,0.17,0.44c0.26,0.73,0.44,1.49,0.57,2.25c0.12,0.73,1.02,1.13,1.68,0.95
	c0.78-0.22,1.06-0.95,0.95-1.68c-0.22-1.4-0.31-3.26-0.14-4.88c0.01-0.1,0.02-0.2,0.03-0.3c0,0.05-0.04,0.27,0,0
	c0.03-0.17,0.06-0.35,0.09-0.52c0.07-0.35,0.14-0.7,0.23-1.05c0.09-0.32,0.18-0.62,0.29-0.93c0.05-0.15,0.11-0.3,0.17-0.44
	c0.03-0.08,0.13-0.3,0,0c0.04-0.09,0.08-0.19,0.12-0.28c0.25-0.53,0.54-1.04,0.86-1.52c0.09-0.13,0.18-0.25,0.27-0.38
	c-0.18,0.24-0.01,0.02,0.07-0.09c0.19-0.23,0.4-0.45,0.61-0.66c0.19-0.19,0.38-0.36,0.59-0.53c0.12-0.1,0.31-0.22,0.07-0.06
	c0.13-0.09,0.25-0.19,0.39-0.27c0.43-0.29,0.9-0.53,1.37-0.75c0.26-0.12-0.23,0.09-0.06,0.02c0.07-0.02,0.13-0.05,0.2-0.08
	c0.11-0.04,0.21-0.08,0.32-0.11c0.26-0.09,0.53-0.16,0.8-0.22c0.24-0.06,0.49-0.1,0.73-0.14c-0.29,0.05-0.14,0.02,0.05,0
	c0.15-0.01,0.3-0.02,0.45-0.03c0.52-0.02,1.01,0.02,1.52,0.06c-0.43-0.03-0.02,0,0.09,0.02c0.12,0.02,0.24,0.05,0.37,0.07
	c0.27,0.06,0.54,0.13,0.81,0.21c0.23,0.07,0.45,0.16,0.67,0.24c0.18,0.07-0.32-0.15-0.05-0.02c0.05,0.02,0.11,0.05,0.15,0.07
	c0.13,0.06,0.26,0.12,0.38,0.19c0.23,0.12,0.45,0.25,0.67,0.39c0.12,0.08,0.24,0.16,0.36,0.24c0.09,0.06,0.45,0.35,0.15,0.1
	c0.43,0.35,0.85,0.73,1.22,1.14c0.1,0.11,0.19,0.21,0.27,0.32c0.04,0.05,0.08,0.1,0.12,0.14c0.21,0.24-0.13-0.18-0.01-0.01
	c0.18,0.25,0.35,0.5,0.52,0.75c0.19,0.3,0.35,0.6,0.51,0.91c0.09,0.17,0.16,0.34,0.24,0.51c0.03,0.06,0.1,0.24-0.01-0.04
	c0.04,0.1,0.08,0.2,0.12,0.3c0.28,0.73,0.49,1.49,0.64,2.26c0.04,0.2,0.07,0.39,0.1,0.59c0.01,0.08,0.02,0.16,0.03,0.24
	c-0.04-0.31,0.01,0.06,0.01,0.12c0.05,0.47,0.08,0.94,0.1,1.4c0.03,0.98-0.02,1.96-0.13,2.93c-0.14,1.31,2.02,1.92,2.54,0.69
	c0.22-0.52,0.46-1.02,0.75-1.5c0.13-0.22,0.28-0.45,0.43-0.66c0.07-0.11,0.15-0.21,0.22-0.31c-0.14,0.18,0.06-0.07,0.1-0.11
	c0.31-0.37,0.65-0.71,1.01-1.02c0.09-0.08,0.18-0.15,0.27-0.22c-0.24,0.2,0.05-0.04,0.09-0.06c0.19-0.13,0.37-0.25,0.56-0.37
	c0.19-0.11,0.38-0.22,0.58-0.32c0.1-0.05,0.2-0.09,0.3-0.14c0.33-0.15-0.26,0.08,0.08-0.03c0.41-0.13,0.81-0.28,1.23-0.37
	c0.21-0.05,0.42-0.08,0.63-0.11c-0.37,0.05,0.27-0.02,0.37-0.02c0.42-0.02,0.85-0.02,1.27,0.01c0.1,0.01,0.21,0.02,0.31,0.03
	c0.35,0.03-0.29-0.06,0.05,0.01c0.21,0.04,0.42,0.07,0.62,0.12c0.41,0.1,0.81,0.21,1.2,0.36c0.1,0.04,0.2,0.08,0.29,0.11
	c-0.33-0.13,0,0,0.06,0.03c0.19,0.09,0.38,0.18,0.56,0.28c0.37,0.2,0.71,0.43,1.06,0.67c0.29,0.19-0.21-0.19,0.05,0.04
	c0.08,0.07,0.16,0.13,0.24,0.2c0.16,0.13,0.31,0.28,0.46,0.42c0.12,0.12,0.24,0.25,0.36,0.38c0.07,0.08,0.13,0.16,0.2,0.23
	c0.24,0.29-0.01-0.05,0.11,0.13c0.21,0.32,0.42,0.63,0.61,0.97c0.1,0.19,0.19,0.38,0.27,0.57c-0.14-0.32,0,0.01,0.02,0.07
	c0.04,0.13,0.1,0.27,0.13,0.41c0.07,0.24,0.13,0.49,0.19,0.74c0.01,0.07,0.03,0.14,0.04,0.21c0.01,0.07,0.02,0.14,0.03,0.22
	c-0.02-0.18-0.02-0.19-0.01-0.03c0.03,0.54,0.06,1.07,0.01,1.62c-0.01,0.04-0.05,0.44-0.01,0.12c-0.02,0.12-0.04,0.24-0.06,0.37
	c-0.05,0.3-0.12,0.59-0.21,0.87c-0.19,0.68-0.35,1.09-0.61,1.62c-0.31,0.66-0.18,1.47,0.49,1.87c0.6,0.35,1.55,0.18,1.87-0.49
	c1.06-2.22,1.57-4.61,1.09-7.05c-0.39-1.97-1.5-3.82-3.01-5.13c-3.15-2.75-7.7-3.51-11.52-1.72c-2.37,1.11-4.14,3.25-5.14,5.63
	c0.85,0.23,1.7,0.46,2.54,0.69c0.37-3.37,0.01-6.89-1.59-9.92c-1.25-2.37-3.29-4.23-5.77-5.23c-4.84-1.95-10.37,0.21-12.9,4.69
	c-1.92,3.41-2.04,7.46-1.46,11.25c0.88-0.24,1.75-0.48,2.63-0.73c-0.45-2.6-1.6-5.22-3.67-6.93c-1.8-1.48-4.04-2.26-6.38-2.24
	c-4.31,0.05-8.82,2.77-9.91,7.13c-0.72,2.9,0.23,5.87,1.89,8.27c0.42,0.61,1.2,0.88,1.87,0.49
	C948.34,217.45,948.65,216.55,948.23,215.94z"/>
<path class="st0" d="M980.11,543.18c-3.97-6.17-7.08-13.71-7.79-21.03c-0.42-4.31,0.94-9.63,3.64-13.27
	c1.33-1.81,2.96-3.14,4.8-3.78c1.82-0.63,3.94-0.61,6.37,0.46h0.01c5.96,2.61,10.55,9.09,11.81,15.61l2.15-0.41v0 M1001.09,520.76
	c0.04-0.99,0.08-2.5,0.87-4.08c0.77-1.56,1.97-3.2,3.38-4.74c2.84-3.12,6.31-5.67,8.42-6.47l0,0c2.92-1.11,5.69-1.03,7.95,0.01
	c2.26,1.05,4.13,3.11,5.16,6.17l0,0c2.92,8.66,1.3,17.82-2.62,26.37c-3.91,8.54-10.1,16.37-16.13,22.28v0
	c-1.99,1.95-3.74,2.88-5.29,3.18c-1.53,0.3-2.99,0.01-4.46-0.73c-1.49-0.75-2.97-1.94-4.48-3.39c-1.12-1.07-2.22-2.24-3.35-3.45
	c-0.4-0.43-0.81-0.86-1.22-1.29c-3.38-3.57-6.55-7.34-9.2-11.45"/>
<path class="st1" d="M681.96,572.85c-4.54-2.11-9.64-3.36-14.62-2.22c-3.81,0.88-7.11,3.24-9.29,6.47c-2.01,3-3,6.74-2.77,10.35
	c0.24,3.83,1.77,7.5,4.48,10.23c3.3,3.31,7.88,4.82,12.46,5.15c0.66,0.05,1.33,0.07,1.99,0.07c-0.25-0.91-0.49-1.82-0.74-2.73
	c-3.94,2.5-7.32,6.06-8.58,10.64c-1.04,3.75-0.5,7.74,1.2,11.21c3.36,6.84,11.31,11.21,18.84,9.08c5.45-1.54,9.49-5.96,12.26-10.71
	c-0.91-0.25-1.82-0.49-2.73-0.74c-0.3,3.42,0.26,7,2.11,9.94c1.62,2.58,4.04,4.45,6.87,5.54c5.32,2.05,11.89,0.85,15.91-3.27
	c2.64-2.71,3.87-6.37,3.97-10.11c-0.97,0-1.95,0-2.93,0c0.34,3.57,1.49,7.02,3.93,9.71c1.94,2.13,4.64,3.58,7.47,4.08
	c5.89,1.04,12.14-1.45,15.39-6.54c2.13-3.33,2.57-7.31,2-11.14c-0.89,0.37-1.78,0.75-2.68,1.13c4.11,6.41,11.59,12.26,19.64,10.54
	c2.13-0.46,4.1-1.47,5.82-2.79c1.43-1.1,2.78-2.27,3.81-3.8c1.84-2.72,2.64-6.23,2.43-9.49c-0.26-3.87-1.9-7.55-5.17-9.77
	c-0.12,0.89-0.23,1.78-0.35,2.68c3.65-1.21,6.88-3.42,9-6.66c1.8-2.75,2.65-6.13,2.51-9.41c-0.31-6.72-4.66-13.05-11.36-14.7
	c-4.73-1.17-9.61,0.07-13.89,2.17c0.72,0.55,1.43,1.1,2.15,1.65c0.96-4.17,1.21-8.65-0.12-12.77c-1.06-3.3-3.07-6.17-5.91-8.16
	c-5.42-3.83-12.92-3.36-18.27,0.35c-3.77,2.62-6.35,6.45-7.96,10.7c0.96,0.13,1.92,0.26,2.88,0.39c0.45-5.39-1.7-11.2-6.81-13.66
	c-4.34-2.09-9.68-1.26-12.75,2.59c-2.19,2.73-2.96,6.22-2.98,9.67c0.96-0.13,1.92-0.26,2.87-0.39c-0.86-4.15-2.72-8.24-5.94-11.08
	c-2.7-2.38-6.09-3.72-9.67-3.95c-6.57-0.42-13.71,3.13-16.52,9.25c-1.78,3.88-1.68,8.22-0.11,12.16c0.29,0.73,0.98,1.24,1.8,1.02
	c0.7-0.19,1.32-1.06,1.02-1.8c-0.35-0.89-0.65-1.8-0.85-2.73c-0.04-0.19-0.08-0.38-0.11-0.57c-0.02-0.11-0.04-0.23-0.06-0.34
	c-0.07-0.38,0.03,0.32-0.01-0.06c-0.04-0.41-0.08-0.81-0.09-1.22c-0.01-0.39-0.01-0.79,0.02-1.18c0.01-0.17,0.03-0.35,0.04-0.53
	c0.01-0.1,0.03-0.21,0.04-0.31c-0.05,0.44,0.01-0.04,0.02-0.12c0.12-0.73,0.31-1.46,0.56-2.16c0.06-0.16,0.12-0.31,0.18-0.47
	c0.12-0.32-0.14,0.3,0-0.01c0.04-0.09,0.08-0.18,0.12-0.27c0.16-0.34,0.34-0.68,0.53-1c0.17-0.3,0.36-0.59,0.55-0.87
	c0.11-0.16,0.23-0.32,0.35-0.48c-0.24,0.32,0.12-0.14,0.2-0.24c0.47-0.55,0.97-1.07,1.52-1.55c0.15-0.13,0.3-0.26,0.46-0.38
	c0.05-0.04,0.1-0.08,0.15-0.12c0.27-0.22-0.27,0.18,0.02-0.02c0.33-0.23,0.65-0.47,0.98-0.68c0.62-0.39,1.27-0.75,1.94-1.05
	c0.09-0.04,0.18-0.08,0.28-0.12c0.31-0.14-0.23,0.09-0.03,0.01c0.17-0.07,0.34-0.14,0.52-0.21c0.38-0.14,0.76-0.27,1.15-0.38
	c0.71-0.21,1.44-0.37,2.17-0.49c0.1-0.01,0.2-0.03,0.3-0.05c-0.37,0.05-0.17,0.02-0.09,0.01c0.2-0.02,0.41-0.05,0.6-0.06
	c0.37-0.03,0.74-0.05,1.12-0.05c0.37,0,0.75,0.01,1.12,0.03c0.18,0.01,0.37,0.03,0.56,0.04c0.12,0.01,0.81,0.11,0.37,0.04
	c0.74,0.12,1.48,0.27,2.2,0.49c0.36,0.11,0.72,0.24,1.07,0.37c0.1,0.04,0.19,0.08,0.29,0.12c-0.32-0.13-0.13-0.06-0.06-0.03
	c0.22,0.11,0.44,0.2,0.66,0.31c0.7,0.35,1.35,0.77,1.99,1.22c0.06,0.04,0.34,0.27,0.05,0.04c0.09,0.07,0.17,0.14,0.26,0.2
	c0.2,0.16,0.39,0.33,0.58,0.51c0.33,0.31,0.65,0.63,0.95,0.96c0.17,0.18,0.33,0.37,0.49,0.57c0.06,0.08,0.12,0.15,0.18,0.23
	c-0.23-0.28,0.09,0.12,0.13,0.18c0.29,0.39,0.56,0.8,0.81,1.22c0.29,0.48,0.55,0.96,0.79,1.46c0.29,0.61,0.31,0.66,0.54,1.26
	c0.45,1.19,0.79,2.43,1.05,3.68c0.34,1.64,2.87,1.23,2.87-0.39c0-0.78,0.04-1.55,0.13-2.32c0.04-0.3,0.01-0.11,0-0.05
	c0.02-0.09,0.03-0.19,0.05-0.28c0.03-0.16,0.06-0.32,0.09-0.48c0.07-0.33,0.14-0.66,0.23-0.99c0.08-0.31,0.18-0.62,0.28-0.93
	c0.05-0.14,0.1-0.27,0.15-0.41c0.03-0.08,0.06-0.15,0.09-0.23c-0.05,0.12-0.07,0.15-0.01,0.02c0.26-0.54,0.52-1.07,0.86-1.56
	c0.07-0.11,0.14-0.21,0.22-0.32c0.04-0.06,0.09-0.12,0.13-0.17c-0.01,0.01-0.17,0.21-0.06,0.08c0.18-0.22,0.36-0.43,0.55-0.63
	c0.16-0.17,0.34-0.34,0.52-0.5c0.09-0.08,0.18-0.15,0.27-0.23c0.19-0.17-0.03,0.02-0.06,0.04c0.07-0.05,0.13-0.1,0.2-0.15
	c0.4-0.28,0.81-0.53,1.26-0.74c0.1-0.05,0.2-0.09,0.31-0.14c-0.39,0.18,0.01,0,0.09-0.03c0.23-0.08,0.45-0.15,0.68-0.22
	c0.23-0.06,0.46-0.12,0.69-0.16c0.11-0.02,0.22-0.04,0.33-0.06c0.16-0.03-0.16,0.02-0.15,0.02c0.08,0,0.16-0.02,0.24-0.03
	c0.48-0.04,0.95-0.05,1.42-0.02c0.13,0.01,0.25,0.03,0.38,0.03c0.34,0.02-0.23-0.05,0.04,0c0.25,0.05,0.5,0.09,0.75,0.14
	c0.48,0.11,0.93,0.27,1.39,0.43c0.25,0.09-0.27-0.13,0.06,0.03c0.1,0.05,0.21,0.1,0.31,0.15c0.24,0.12,0.47,0.25,0.7,0.38
	c0.2,0.12,0.4,0.25,0.59,0.38c0.11,0.08,0.22,0.16,0.33,0.24c-0.26-0.19-0.01,0,0.1,0.09c0.4,0.33,0.77,0.7,1.12,1.09
	c0.08,0.09,0.16,0.19,0.24,0.28c0.09,0.11,0.24,0.31,0.07,0.08c0.17,0.24,0.34,0.47,0.5,0.72c0.17,0.27,0.33,0.54,0.47,0.83
	c0.07,0.13,0.14,0.27,0.2,0.41c0.04,0.09,0.23,0.55,0.11,0.24c0.25,0.64,0.46,1.29,0.61,1.97c0.08,0.33,0.13,0.67,0.19,1.01
	c0,0.06,0.05,0.29,0,0c0.01,0.11,0.03,0.22,0.04,0.33c0.02,0.18,0.03,0.36,0.04,0.54c0.05,0.84,0.03,1.68-0.04,2.52
	c-0.06,0.72,0.6,1.36,1.27,1.43c0.76,0.09,1.34-0.35,1.6-1.05c0.6-1.59,1.53-3.42,2.64-4.99c0.13-0.18,0.26-0.36,0.39-0.54
	c-0.17,0.23,0.17-0.21,0.22-0.27c0.29-0.35,0.58-0.68,0.89-1.01c0.56-0.6,1.17-1.15,1.81-1.67c0.04-0.03,0.36-0.28,0.08-0.07
	c0.06-0.05,0.13-0.1,0.19-0.14c0.16-0.11,0.32-0.23,0.48-0.34c0.34-0.23,0.68-0.45,1.03-0.65c0.31-0.18,0.63-0.35,0.95-0.51
	c0.17-0.08,0.34-0.16,0.51-0.24c0.09-0.04,0.17-0.08,0.26-0.11c0.1-0.04,0.07-0.03-0.09,0.04c0.07-0.03,0.14-0.06,0.2-0.08
	c0.69-0.26,1.37-0.49,2.09-0.66c0.33-0.08,0.67-0.14,1-0.2c0.09-0.01,0.17-0.03,0.27-0.04c0.35-0.06-0.25,0.03-0.02,0
	c0.19-0.02,0.38-0.05,0.58-0.06c0.7-0.06,1.4-0.07,2.1-0.03c0.17,0.01,0.35,0.03,0.52,0.04c0.1,0.01,0.66,0.09,0.23,0.02
	c0.36,0.06,0.71,0.12,1.07,0.2c0.69,0.15,1.36,0.36,2.02,0.61c0.06,0.03,0.13,0.05,0.19,0.08c0.33,0.13-0.29-0.14,0.03,0.01
	c0.14,0.07,0.28,0.13,0.42,0.19c0.32,0.16,0.64,0.33,0.95,0.51c0.3,0.18,0.59,0.36,0.87,0.56c0.13,0.09,0.25,0.18,0.38,0.28
	c0.18,0.13-0.27-0.23,0,0c0.08,0.07,0.16,0.13,0.24,0.2c0.56,0.47,1.08,0.98,1.55,1.53c0.11,0.12,0.2,0.25,0.31,0.37
	c0.24,0.28-0.18-0.25,0.04,0.05c0.04,0.06,0.09,0.12,0.13,0.17c0.24,0.33,0.46,0.67,0.67,1.01c0.17,0.29,0.34,0.59,0.5,0.89
	c0.09,0.17,0.17,0.34,0.25,0.52c0.05,0.11,0.1,0.22,0.14,0.32c-0.1-0.23-0.01-0.04,0.04,0.09c0.34,0.86,0.6,1.74,0.8,2.64
	c0.05,0.23,0.1,0.46,0.14,0.7c0.02,0.13,0.05,0.26,0.06,0.39c0.01,0.07,0.06,0.46,0.02,0.14c0.06,0.5,0.11,1,0.13,1.5
	c0.06,1.13,0.03,2.26-0.08,3.38c-0.11,1.14-0.3,2.23-0.59,3.49c-0.3,1.29,1,2.21,2.15,1.65c1.8-0.89,3.79-1.61,5.91-2
	c0.22-0.04,0.44-0.08,0.66-0.11c-0.32,0.05,0.31-0.04,0.38-0.04c0.46-0.05,0.92-0.07,1.38-0.08c0.4-0.01,0.8,0,1.2,0.03
	c0.19,0.01,0.39,0.03,0.58,0.05c0.11,0.01,0.23,0.03,0.34,0.04c-0.37-0.05-0.02,0,0.07,0.01c0.8,0.14,1.58,0.33,2.35,0.6
	c0.17,0.06,0.33,0.13,0.5,0.19c0.07,0.03,0.26,0.11-0.06-0.03c0.1,0.04,0.19,0.09,0.29,0.13c0.35,0.16,0.69,0.34,1.02,0.53
	c0.3,0.17,0.59,0.35,0.87,0.55c0.14,0.1,0.28,0.2,0.42,0.3c0.29,0.2-0.24-0.2,0.03,0.02c0.08,0.07,0.16,0.13,0.24,0.19
	c0.54,0.46,1.05,0.96,1.51,1.5c0.12,0.14,0.24,0.29,0.35,0.43c0.06,0.07,0.2,0.27-0.01-0.01c0.05,0.07,0.1,0.13,0.15,0.2
	c0.23,0.32,0.44,0.64,0.65,0.97c0.37,0.6,0.69,1.24,0.97,1.89c-0.17-0.38,0.05,0.12,0.08,0.22c0.06,0.16,0.12,0.32,0.17,0.48
	c0.12,0.35,0.23,0.71,0.32,1.07c0.09,0.33,0.16,0.66,0.23,0.99c0.03,0.17,0.06,0.33,0.09,0.5c0.01,0.1,0.03,0.2,0.05,0.3
	c-0.06-0.4-0.01-0.08,0,0.02c0.08,0.73,0.12,1.46,0.1,2.2c-0.01,0.36-0.03,0.72-0.07,1.08c-0.01,0.11-0.09,0.67-0.02,0.23
	c-0.03,0.21-0.06,0.41-0.1,0.61c-0.13,0.71-0.31,1.41-0.54,2.1c-0.06,0.16-0.11,0.33-0.17,0.49c-0.04,0.09-0.26,0.6-0.09,0.23
	c-0.16,0.35-0.32,0.7-0.5,1.03c-0.2,0.37-0.41,0.74-0.65,1.09c-0.12,0.18-0.24,0.35-0.36,0.53c-0.04,0.06-0.26,0.34-0.03,0.05
	c-0.07,0.09-0.13,0.17-0.21,0.26c-0.56,0.69-1.19,1.32-1.88,1.89c-0.07,0.06-0.15,0.12-0.22,0.18c-0.29,0.24,0.12-0.08-0.11,0.09
	c-0.19,0.13-0.38,0.28-0.57,0.4c-0.4,0.27-0.81,0.52-1.23,0.75c-0.44,0.24-0.89,0.46-1.35,0.66c0.05-0.03,0.26-0.1-0.01,0.01
	c-0.14,0.06-0.28,0.11-0.43,0.17c-0.27,0.1-0.54,0.2-0.82,0.29c-1.23,0.41-1.4,1.96-0.35,2.68c0.46,0.31,0.94,0.73,1.42,1.27
	c0.11,0.13,0.23,0.26,0.33,0.39c-0.12-0.16,0.13,0.18,0.16,0.23c0.21,0.3,0.4,0.61,0.57,0.93c0.36,0.67,0.47,0.93,0.71,1.69
	c0.1,0.33,0.19,0.67,0.27,1.01c0.07,0.29,0.16,0.85,0.18,1c0.33,2.64-0.15,5.54-1.43,7.86c-0.16,0.3-0.34,0.58-0.53,0.87
	c-0.09,0.14-0.19,0.28-0.29,0.41c-0.1,0.13-0.01,0.01,0.01-0.01c-0.07,0.09-0.15,0.18-0.23,0.27c-0.22,0.25-0.44,0.49-0.68,0.72
	c-0.12,0.11-0.24,0.22-0.36,0.33c-0.05,0.05-0.11,0.09-0.16,0.13c-0.07,0.05-0.07,0.06-0.02,0.01c0.14-0.1,0.05-0.04-0.26,0.2
	c-1.45,1.21-2.92,2.29-4.73,2.87c-3.14,1-6.39,0.43-9.28-1.11c-3.37-1.79-6.17-4.61-8.2-7.78c-0.39-0.61-1.15-0.9-1.83-0.6
	c-0.72,0.32-0.96,0.98-0.85,1.73c0.07,0.46-0.02-0.16,0.01,0.11c0.01,0.09,0.02,0.19,0.03,0.28c0.02,0.21,0.04,0.42,0.06,0.62
	c0.03,0.43,0.05,0.85,0.05,1.28c0,0.37-0.01,0.73-0.04,1.1c-0.01,0.21-0.04,0.42-0.06,0.63c-0.01,0.07-0.04,0.29,0-0.02
	c-0.01,0.12-0.04,0.24-0.06,0.36c-0.12,0.7-0.29,1.39-0.51,2.07c-0.06,0.16-0.11,0.32-0.17,0.49c-0.03,0.09-0.24,0.56-0.09,0.23
	c-0.14,0.32-0.3,0.64-0.46,0.95c-0.15,0.27-0.3,0.54-0.47,0.8c-0.1,0.15-0.2,0.3-0.3,0.45c-0.06,0.09-0.39,0.52-0.15,0.22
	c-0.39,0.5-0.82,0.97-1.29,1.41c-0.23,0.22-0.47,0.42-0.71,0.62c-0.32,0.27,0.12-0.08-0.16,0.12c-0.14,0.1-0.28,0.2-0.42,0.3
	c-0.53,0.36-1.09,0.69-1.66,0.97c-0.12,0.06-0.25,0.12-0.37,0.18c-0.08,0.04-0.16,0.07-0.24,0.11c-0.18,0.08,0.25-0.1,0.06-0.03
	c-0.31,0.12-0.61,0.24-0.92,0.34c-0.6,0.2-1.22,0.35-1.85,0.47c-0.15,0.03-0.31,0.05-0.46,0.08c-0.23,0.04,0.26-0.03-0.12,0.01
	c-0.34,0.04-0.68,0.06-1.03,0.08c-0.61,0.03-1.23,0-1.84-0.06c-0.08,0-0.54-0.07-0.31-0.04c0.23,0.03-0.24-0.04-0.31-0.05
	c-0.32-0.06-0.64-0.12-0.95-0.2c-0.28-0.07-0.56-0.15-0.84-0.25c-0.14-0.05-0.29-0.1-0.44-0.15c-0.08-0.03-0.16-0.06-0.24-0.09
	c-0.28-0.1,0.27,0.13-0.03-0.01c-0.56-0.26-1.11-0.54-1.64-0.88c-0.27-0.17-0.52-0.35-0.77-0.54c0.26,0.19-0.02-0.01-0.12-0.1
	c-0.15-0.12-0.3-0.25-0.44-0.38c-0.28-0.26-0.54-0.53-0.79-0.81c-0.12-0.14-0.24-0.28-0.36-0.42c-0.05-0.06-0.09-0.12-0.14-0.17
	c0.23,0.29-0.01-0.01-0.04-0.06c-0.46-0.65-0.87-1.33-1.21-2.05c-0.04-0.09-0.08-0.18-0.13-0.28c-0.12-0.25,0.05,0.12-0.02-0.05
	c-0.09-0.21-0.17-0.43-0.25-0.64c-0.14-0.4-0.27-0.82-0.38-1.24c-0.12-0.44-0.22-0.88-0.3-1.33c-0.12-0.64-0.12-0.66-0.18-1.33
	c-0.08-0.78-0.62-1.46-1.46-1.46c-0.81,0-1.45,0.67-1.46,1.46c-0.01,0.4-0.03,0.8-0.07,1.2c-0.01,0.09-0.02,0.17-0.03,0.26
	c0,0-0.05,0.42-0.02,0.19c0.03-0.23-0.03,0.18-0.03,0.18c-0.02,0.12-0.04,0.25-0.06,0.37c-0.13,0.71-0.31,1.4-0.55,2.08
	c-0.07,0.18-0.13,0.36-0.2,0.54c-0.03,0.07-0.12,0.25,0.01-0.04c-0.03,0.07-0.06,0.14-0.09,0.2c-0.16,0.33-0.32,0.66-0.51,0.98
	c-0.16,0.28-0.33,0.55-0.52,0.83c-0.08,0.12-0.17,0.23-0.25,0.35c-0.15,0.22,0.01-0.01,0.04-0.05c-0.07,0.08-0.13,0.16-0.2,0.25
	c-0.42,0.51-0.89,0.98-1.38,1.4c-0.1,0.09-0.21,0.17-0.32,0.26c-0.26,0.22,0.19-0.14,0.01-0.01c-0.07,0.05-0.14,0.1-0.2,0.15
	c-0.25,0.18-0.5,0.35-0.76,0.51c-0.26,0.16-0.53,0.31-0.8,0.45c-0.15,0.08-0.3,0.15-0.46,0.23c-0.1,0.05-0.59,0.25-0.21,0.1
	c-0.58,0.24-1.17,0.44-1.78,0.59c-0.28,0.07-0.56,0.13-0.85,0.19c-0.17,0.03-0.33,0.06-0.5,0.09c-0.4,0.07,0.2-0.01-0.22,0.03
	c-0.63,0.06-1.26,0.1-1.89,0.09c-0.29-0.01-0.58-0.02-0.87-0.05c-0.17-0.01-0.34-0.04-0.51-0.05c-0.08,0-0.29-0.04,0.09,0.02
	c-0.1-0.02-0.2-0.03-0.3-0.05c-0.62-0.1-1.23-0.24-1.83-0.42c-0.28-0.08-0.55-0.18-0.82-0.28c-0.08-0.03-0.61-0.25-0.22-0.08
	c-0.15-0.07-0.31-0.14-0.46-0.21c-0.57-0.27-1.12-0.58-1.64-0.93c-0.13-0.09-0.25-0.17-0.37-0.27c-0.34-0.24,0.11,0.1-0.15-0.11
	c-0.25-0.21-0.5-0.42-0.74-0.65c-0.23-0.22-0.45-0.44-0.65-0.67c-0.09-0.1-0.18-0.21-0.28-0.32c-0.06-0.07-0.11-0.14-0.16-0.2
	c-0.07-0.09,0.16,0.23-0.03-0.04c-0.44-0.6-0.83-1.23-1.15-1.91c-0.04-0.08-0.08-0.17-0.12-0.25c-0.01-0.04-0.16-0.38-0.08-0.19
	c0.09,0.22-0.05-0.13-0.06-0.14c-0.04-0.11-0.08-0.22-0.12-0.32c-0.13-0.37-0.25-0.75-0.35-1.13c-0.11-0.41-0.19-0.84-0.27-1.26
	c-0.01-0.08-0.03-0.16-0.04-0.25c-0.02-0.11-0.02-0.08,0.01,0.07c-0.01-0.06-0.02-0.13-0.03-0.19c-0.03-0.24-0.05-0.48-0.07-0.72
	c-0.07-0.98-0.05-1.96,0.04-2.94c0.13-1.49-2.03-1.93-2.73-0.74c-1.31,2.24-2.68,4.15-4.59,5.91c-0.91,0.85-1.39,1.22-2.4,1.86
	c-0.39,0.25-0.79,0.48-1.21,0.69c-0.18,0.09-0.36,0.18-0.55,0.27c-0.11,0.05-0.22,0.1-0.33,0.15c0.33-0.14-0.14,0.06-0.2,0.08
	c-0.82,0.32-1.68,0.56-2.55,0.71c-0.11,0.02-0.22,0.04-0.33,0.06c-0.37,0.07,0.32-0.03-0.05,0c-0.22,0.02-0.44,0.05-0.66,0.06
	c-0.44,0.03-0.87,0.04-1.31,0.02c-0.39-0.01-0.78-0.05-1.18-0.09c-0.37-0.04,0.33,0.06-0.04,0c-0.1-0.02-0.21-0.04-0.32-0.05
	c-0.21-0.04-0.42-0.08-0.62-0.13c-0.38-0.09-0.76-0.19-1.13-0.31c-0.2-0.06-0.4-0.13-0.6-0.2c-0.12-0.05-0.8-0.33-0.44-0.17
	c-0.74-0.33-1.47-0.71-2.16-1.15c-0.33-0.21-0.65-0.43-0.96-0.67c-0.06-0.04-0.34-0.27-0.04-0.03c-0.08-0.07-0.17-0.13-0.25-0.2
	c-0.16-0.13-0.33-0.27-0.49-0.41c-0.64-0.57-1.23-1.18-1.78-1.84c-0.06-0.07-0.41-0.52-0.17-0.21c-0.13-0.17-0.26-0.34-0.38-0.52
	c-0.25-0.35-0.48-0.71-0.7-1.08c-0.2-0.34-0.39-0.68-0.56-1.03c-0.1-0.19-0.18-0.38-0.28-0.58c-0.03-0.07-0.17-0.41-0.02-0.04
	c-0.05-0.11-0.09-0.23-0.14-0.35c-0.3-0.78-0.54-1.58-0.71-2.4c-0.04-0.21-0.08-0.42-0.12-0.63c-0.01-0.07-0.02-0.14-0.03-0.21
	c-0.06-0.36,0.03,0.33,0-0.04c-0.04-0.43-0.08-0.86-0.09-1.29c-0.01-0.43,0-0.87,0.03-1.3c0.02-0.18,0.03-0.36,0.05-0.54
	c0.01-0.08,0.07-0.45,0.01-0.05c0.03-0.14,0.05-0.29,0.07-0.44c0.17-0.96,0.46-1.91,0.83-2.82c-0.13,0.32,0.13-0.29,0.19-0.4
	c0.12-0.25,0.25-0.5,0.39-0.74c0.26-0.47,0.55-0.92,0.86-1.36c0.07-0.1,0.15-0.2,0.23-0.31c0.1-0.13,0.1-0.14,0-0.01
	c0.05-0.07,0.11-0.14,0.16-0.2c0.16-0.2,0.34-0.41,0.51-0.6c0.39-0.45,0.81-0.88,1.25-1.28c1.04-0.97,1.86-1.58,3.09-2.36
	c1.2-0.76,0.75-2.72-0.74-2.73c-0.64,0-1.29-0.02-1.93-0.07c-0.3-0.02-0.59-0.05-0.89-0.08c-0.15-0.02-0.31-0.04-0.47-0.05
	c-0.17-0.02,0.04,0,0.06,0.01c-0.09-0.01-0.18-0.03-0.26-0.04c-1.12-0.17-2.22-0.42-3.29-0.77c-0.24-0.08-0.48-0.16-0.71-0.25
	c-0.12-0.05-0.25-0.09-0.37-0.14c-0.11-0.05-0.39-0.16-0.12-0.05c-0.45-0.2-0.89-0.41-1.32-0.64c-0.43-0.23-0.85-0.49-1.25-0.76
	c-0.18-0.12-0.36-0.25-0.54-0.38c-0.13-0.1-0.21-0.16-0.03-0.01c-0.1-0.08-0.21-0.16-0.31-0.25c-0.67-0.56-1.29-1.18-1.84-1.85
	c-0.07-0.09-0.14-0.17-0.2-0.26c-0.06-0.07,0.17,0.24,0,0c-0.13-0.19-0.27-0.38-0.41-0.57c-0.23-0.35-0.45-0.71-0.65-1.07
	c-0.19-0.36-0.37-0.74-0.54-1.12c0.17,0.38-0.06-0.14-0.11-0.29c-0.08-0.2-0.14-0.4-0.21-0.6c-0.26-0.79-0.43-1.6-0.57-2.43
	c-0.05-0.27,0.03,0.3,0.01,0.03c-0.01-0.11-0.03-0.21-0.04-0.31c-0.02-0.21-0.04-0.42-0.05-0.63c-0.03-0.41-0.03-0.81-0.03-1.22
	c0.01-0.41,0.03-0.81,0.07-1.22c0.01-0.15,0.11-0.73,0.03-0.29c0.04-0.21,0.06-0.42,0.1-0.62c0.15-0.81,0.36-1.62,0.64-2.4
	c0.07-0.18,0.13-0.37,0.2-0.55c0.03-0.08,0.07-0.17,0.1-0.25c-0.16,0.41-0.01,0.03,0.03-0.07c0.17-0.37,0.35-0.73,0.54-1.09
	c0.2-0.37,0.42-0.73,0.66-1.08c0.11-0.16,0.22-0.32,0.34-0.48c0.05-0.07,0.11-0.14,0.16-0.22c0.12-0.16-0.18,0.22,0.05-0.06
	c0.52-0.64,1.08-1.23,1.71-1.77c0.15-0.13,0.31-0.26,0.46-0.38c0.28-0.23-0.18,0.12,0.03-0.03c0.09-0.06,0.17-0.13,0.26-0.19
	c0.35-0.25,0.72-0.49,1.1-0.7c0.37-0.22,0.75-0.41,1.14-0.58c0.09-0.04,0.17-0.08,0.27-0.12c-0.37,0.16-0.04,0.02,0.06-0.02
	c0.22-0.08,0.43-0.16,0.65-0.24c0.43-0.14,0.86-0.27,1.3-0.37c0.22-0.05,0.44-0.1,0.65-0.14c0.12-0.02,0.24-0.04,0.36-0.06
	c0.1-0.01,0.54-0.07,0.13-0.02c0.99-0.12,1.99-0.16,2.99-0.11c0.26,0.01,0.51,0.03,0.76,0.06c0.14,0.02,0.28,0.03,0.42,0.04
	c0.06,0.01,0.12,0.02,0.18,0.02c0.22,0.03-0.25-0.04-0.03,0c0.56,0.08,1.12,0.18,1.67,0.31c1.23,0.28,2.44,0.65,3.61,1.11
	c0.14,0.05,0.28,0.11,0.41,0.16c0.05,0.02,0.45,0.18,0.27,0.11c0.33,0.14,0.66,0.29,0.98,0.44c0.72,0.33,1.58,0.2,2-0.52
	C682.85,574.22,682.67,573.18,681.96,572.85z"/>
<path class="st1" d="M700.62,601.76c-0.4-0.58-0.76-1.18-1.07-1.81c-0.07-0.13-0.12-0.27-0.18-0.4c-0.12-0.25-0.02-0.04,0,0.01
	c-0.03-0.08-0.06-0.15-0.09-0.23c-0.11-0.29-0.21-0.58-0.29-0.89c-0.07-0.27-0.14-0.54-0.18-0.81c-0.03-0.15-0.06-0.39-0.02-0.09
	c-0.02-0.15-0.04-0.31-0.05-0.47c-0.01-0.25-0.02-0.51-0.01-0.76c0-0.12,0.01-0.23,0.02-0.35c0.01-0.1,0.09-0.59,0-0.14
	c0.09-0.49,0.19-0.96,0.36-1.42c0.04-0.1,0.08-0.2,0.12-0.3c-0.11,0.3-0.03,0.07,0.04-0.08c0.11-0.22,0.23-0.44,0.35-0.65
	c0.11-0.18,0.24-0.36,0.36-0.54c0.22-0.32-0.11,0.11,0.05-0.07c0.08-0.09,0.16-0.19,0.24-0.28c0.33-0.37,0.71-0.7,1.08-1.03
	c0.19-0.17-0.26,0.18,0.04-0.03c0.09-0.06,0.18-0.13,0.27-0.19c0.21-0.14,0.42-0.28,0.64-0.41c0.2-0.12,0.41-0.23,0.63-0.34
	c0.1-0.05,0.2-0.1,0.3-0.14c0.37-0.17-0.18,0.06,0.14-0.06c0.47-0.16,0.93-0.33,1.42-0.45c0.24-0.06,0.47-0.1,0.71-0.14
	c0.2-0.04,0.31-0.04,0.04-0.01c0.14-0.01,0.29-0.03,0.43-0.05c0.5-0.04,0.99-0.05,1.49-0.02c0.11,0.01,0.23,0.02,0.34,0.03
	c0.07,0.01,0.13,0.02,0.19,0.02c0.2,0.02-0.3-0.05-0.1-0.01c0.25,0.05,0.51,0.09,0.76,0.15c0.24,0.06,0.47,0.12,0.7,0.2
	c0.11,0.04,0.22,0.07,0.32,0.11c0.06,0.02,0.12,0.05,0.18,0.07c0.18,0.07-0.33-0.16-0.04-0.01c0.45,0.22,0.88,0.43,1.3,0.72
	c0.07,0.04,0.42,0.3,0.26,0.18c-0.15-0.11,0.19,0.15,0.25,0.2c0.23,0.19,0.44,0.4,0.64,0.61c0.11,0.12,0.22,0.24,0.32,0.36
	c0.08,0.1,0.29,0.38,0.11,0.13c0.2,0.28,0.39,0.55,0.56,0.85c0.17,0.29,0.33,0.59,0.47,0.89c0.04,0.07,0.07,0.15,0.1,0.22
	c0.1,0.21-0.12-0.32,0.03,0.05c0.06,0.16,0.12,0.32,0.18,0.48c0.28,0.78,0.47,1.59,0.61,2.42c0.13,0.78,1.09,1.21,1.8,1.02
	c0.84-0.23,1.14-1.02,1.02-1.8c-0.24-1.5-0.33-3.5-0.15-5.24c0.01-0.11,0.03-0.22,0.04-0.32c-0.01,0.06-0.05,0.29,0,0
	c0.03-0.18,0.06-0.37,0.09-0.56c0.07-0.38,0.15-0.75,0.25-1.12c0.09-0.34,0.19-0.67,0.31-0.99c0.06-0.16,0.12-0.32,0.18-0.47
	c0.03-0.08,0.14-0.32,0,0c0.05-0.1,0.09-0.2,0.13-0.3c0.27-0.57,0.57-1.12,0.93-1.64c0.09-0.14,0.19-0.27,0.29-0.41
	c-0.19,0.26-0.02,0.03,0.08-0.09c0.2-0.25,0.42-0.49,0.66-0.71c0.2-0.2,0.41-0.39,0.63-0.57c0.13-0.11,0.33-0.24,0.07-0.06
	c0.14-0.1,0.27-0.2,0.42-0.29c0.47-0.31,0.96-0.56,1.47-0.81c0.28-0.13-0.25,0.1-0.06,0.03c0.07-0.03,0.14-0.06,0.21-0.08
	c0.11-0.04,0.23-0.08,0.34-0.12c0.28-0.09,0.57-0.17,0.86-0.24c0.26-0.06,0.52-0.1,0.78-0.15c-0.31,0.05-0.15,0.02,0.05,0
	c0.16-0.02,0.32-0.03,0.49-0.04c0.55-0.03,1.09,0.03,1.63,0.06c-0.47-0.03-0.03,0,0.09,0.02c0.13,0.03,0.26,0.05,0.39,0.08
	c0.29,0.06,0.58,0.14,0.87,0.23c0.25,0.08,0.48,0.17,0.72,0.26c0.19,0.07-0.34-0.16-0.06-0.03c0.06,0.03,0.11,0.05,0.16,0.08
	c0.14,0.07,0.28,0.13,0.41,0.2c0.25,0.13,0.49,0.27,0.72,0.42c0.13,0.08,0.26,0.17,0.39,0.26c0.09,0.07,0.49,0.37,0.16,0.11
	c0.47,0.38,0.91,0.78,1.31,1.23c0.1,0.11,0.2,0.23,0.29,0.34c0.04,0.05,0.08,0.1,0.13,0.15c0.22,0.26-0.14-0.19-0.01-0.02
	c0.19,0.27,0.38,0.53,0.55,0.81c0.2,0.32,0.38,0.65,0.55,0.98c0.09,0.18,0.17,0.36,0.26,0.55c0.03,0.06,0.1,0.26-0.01-0.04
	c0.04,0.11,0.09,0.21,0.13,0.32c0.3,0.78,0.52,1.6,0.69,2.42c0.04,0.21,0.08,0.42,0.11,0.63c0.02,0.09,0.03,0.17,0.04,0.26
	c-0.05-0.33,0,0.07,0.01,0.13c0.06,0.5,0.09,1,0.1,1.51c0.03,1.05-0.03,2.1-0.14,3.15c-0.15,1.4,2.17,2.06,2.73,0.74
	c0.24-0.55,0.5-1.09,0.8-1.61c0.14-0.24,0.3-0.48,0.46-0.71c0.08-0.11,0.16-0.23,0.24-0.33c-0.15,0.19,0.07-0.08,0.11-0.12
	c0.33-0.39,0.69-0.76,1.08-1.1c0.09-0.08,0.19-0.16,0.29-0.24c-0.26,0.21,0.06-0.04,0.1-0.07c0.2-0.14,0.4-0.27,0.6-0.39
	c0.2-0.12,0.41-0.24,0.63-0.34c0.11-0.05,0.22-0.1,0.32-0.15c0.35-0.16-0.28,0.09,0.08-0.03c0.44-0.14,0.87-0.3,1.32-0.39
	c0.22-0.05,0.45-0.09,0.67-0.12c-0.4,0.06,0.29-0.02,0.4-0.03c0.45-0.03,0.91-0.02,1.36,0.02c0.11,0.01,0.23,0.03,0.34,0.03
	c0.38,0.03-0.31-0.07,0.06,0.01c0.22,0.05,0.45,0.08,0.66,0.13c0.44,0.1,0.87,0.23,1.29,0.38c0.11,0.04,0.21,0.08,0.31,0.12
	c-0.35-0.14,0.01,0.01,0.06,0.03c0.2,0.1,0.41,0.2,0.6,0.3c0.39,0.22,0.76,0.47,1.13,0.72c0.31,0.2-0.23-0.2,0.06,0.04
	c0.08,0.07,0.17,0.14,0.26,0.22c0.17,0.14,0.33,0.3,0.49,0.45c0.13,0.13,0.26,0.27,0.38,0.41c0.07,0.08,0.14,0.17,0.22,0.25
	c0.26,0.31-0.01-0.06,0.11,0.14c0.23,0.34,0.46,0.68,0.65,1.04c0.11,0.2,0.2,0.4,0.29,0.61c-0.15-0.34,0,0.02,0.02,0.07
	c0.05,0.14,0.1,0.29,0.14,0.44c0.08,0.26,0.14,0.52,0.2,0.79c0.02,0.08,0.03,0.15,0.04,0.23c0.02,0.08,0.03,0.15,0.04,0.24
	c-0.03-0.19-0.03-0.2-0.01-0.03c0.03,0.58,0.06,1.15,0.01,1.74c-0.01,0.05-0.06,0.47-0.01,0.13c-0.02,0.13-0.04,0.26-0.07,0.39
	c-0.06,0.32-0.13,0.63-0.22,0.94c-0.2,0.73-0.38,1.17-0.66,1.74c-0.34,0.71-0.19,1.58,0.52,2c0.64,0.37,1.66,0.19,2-0.52
	c1.14-2.38,1.69-4.95,1.17-7.56c-0.42-2.12-1.61-4.1-3.23-5.51c-3.38-2.95-8.26-3.76-12.35-1.84c-2.54,1.19-4.44,3.49-5.52,6.04
	c0.91,0.25,1.82,0.49,2.73,0.74c0.39-3.61,0.02-7.39-1.7-10.64c-1.34-2.55-3.53-4.54-6.19-5.62c-5.19-2.1-11.12,0.23-13.84,5.04
	c-2.06,3.66-2.19,8-1.56,12.07c0.94-0.26,1.88-0.52,2.82-0.78c-0.48-2.79-1.72-5.6-3.94-7.44c-1.93-1.59-4.33-2.43-6.84-2.4
	c-4.63,0.05-9.47,2.98-10.63,7.66c-0.77,3.12,0.25,6.29,2.03,8.87c0.45,0.65,1.29,0.94,2,0.52
	C700.74,603.39,701.07,602.42,700.62,601.76z"/>
<path class="st0" d="M446.92,316.73L446.92,316.73c2.59,5.04,6.64,12.58,11.06,16.67c2.22,2.06,4.33,3.06,6.26,2.75
	c1.92-0.31,4.06-1.99,6.18-6.32v0c6.89-14.06,12.37-29.71,10.71-45.43c-0.12-1.15-0.4-2.36-0.88-3.31c-0.48-0.94-1.1-1.5-1.9-1.64
	c-0.7-0.12-1.39,0.12-2.11,0.66c-0.73,0.55-1.4,1.35-1.98,2.18c-5.36,7.66-8.96,16.6-10.41,25.88l-1.79,0.02
	c-1.58-9.04-5.89-17.56-12.19-24.14l0,0c-1.24-1.3-2.49-2.34-3.89-2.49l0,0c-1.52-0.16-2.79,0.69-3.78,2.26
	c-0.99,1.57-1.58,3.69-1.72,5.61 M446.92,316.73c-4.34-8.45-7.12-17.89-6.44-27.29"/>
<path class="st0" d="M449.2,623.74L449.2,623.74c2.18,4.24,5.58,10.57,9.3,14.02c1.86,1.73,3.64,2.57,5.27,2.31
	c1.61-0.26,3.42-1.68,5.2-5.31v0c5.79-11.82,10.4-24.98,9-38.2c-0.1-0.97-0.33-1.99-0.74-2.78c-0.4-0.79-0.93-1.26-1.59-1.38
	c-0.58-0.1-1.17,0.1-1.78,0.56c-0.61,0.46-1.17,1.14-1.66,1.84c-4.51,6.44-7.53,13.95-8.76,21.76l-1.5,0.01
	c-1.33-7.6-4.95-14.77-10.25-20.29l0,0c-1.05-1.09-2.09-1.97-3.27-2.09l0,0c-1.28-0.13-2.34,0.58-3.17,1.9
	c-0.83,1.32-1.33,3.11-1.45,4.72 M449.2,623.74c-3.65-7.11-5.98-15.04-5.41-22.94"/>
</svg>
