<?xml version="1.0" encoding="utf-8"?>
<!-- Generator: Adobe Illustrator 27.6.1, SVG Export Plug-In . SVG Version: 6.00 Build 0)  -->
<svg version="1.1" id="Layer_1" xmlns="http://www.w3.org/2000/svg" xmlns:xlink="http://www.w3.org/1999/xlink" x="0px" y="0px"
	 viewBox="0 0 1382 789" style="enable-background:new 0 0 1382 789;" xml:space="preserve">
<style type="text/css">
	.st0{fill:none;stroke:#8787C1;stroke-width:3;}
	.st1{fill:#8787C1;}
</style>
<g>
	<path class="st0" d="M833.09,520.83L833.09,520.83c-7.16-14.02-11.72-29.66-10.56-45.22c0.24-3.18,1.23-6.7,2.88-9.29
		c1.64-2.59,3.74-3.99,6.26-3.72h0c2.32,0.24,4.38,1.98,6.43,4.14l0,0c10.41,10.91,17.51,25.05,20.09,40.02l2.96-0.02
		c2.45-15.38,8.44-30.16,17.35-42.83c0.97-1.38,2.08-2.7,3.29-3.61c1.2-0.9,2.35-1.29,3.5-1.09c1.31,0.23,2.34,1.16,3.13,2.72
		c0.8,1.57,1.24,3.58,1.45,5.49c2.69,26.05-6.45,51.95-17.9,75.2v0c-3.52,7.16-7.08,9.93-10.26,10.45
		c-3.21,0.51-6.7-1.16-10.36-4.57C844.04,541.68,837.36,529.19,833.09,520.83z"/>
	<path class="st1" d="M36.73,56.99c-5.59-2.6-11.86-4.14-17.99-2.73c-4.69,1.08-8.75,3.98-11.43,7.96
		c-2.48,3.69-3.69,8.3-3.41,12.73c0.29,4.71,2.18,9.23,5.52,12.59c4.06,4.07,9.7,5.93,15.33,6.34c0.81,0.06,1.63,0.08,2.45,0.09
		c-0.3-1.12-0.61-2.24-0.91-3.35c-4.84,3.08-9,7.46-10.56,13.1c-1.27,4.62-0.61,9.52,1.48,13.79c4.13,8.42,13.92,13.79,23.18,11.17
		c6.71-1.9,11.68-7.33,15.08-13.18c-1.12-0.3-2.24-0.61-3.35-0.91c-0.37,4.21,0.32,8.61,2.6,12.23c1.99,3.17,4.97,5.48,8.46,6.82
		c6.55,2.52,14.63,1.04,19.58-4.03c3.25-3.33,4.77-7.84,4.88-12.44c-1.2,0-2.4,0-3.6,0c0.42,4.39,1.83,8.65,4.84,11.95
		c2.38,2.62,5.71,4.41,9.19,5.02c7.25,1.29,14.94-1.78,18.94-8.05c2.62-4.09,3.16-8.99,2.46-13.71c-1.1,0.46-2.19,0.93-3.29,1.39
		c5.06,7.88,14.26,15.08,24.16,12.97c2.62-0.56,5.05-1.81,7.16-3.44c1.77-1.36,3.42-2.8,4.68-4.67c2.26-3.35,3.25-7.67,2.99-11.68
		c-0.32-4.76-2.33-9.29-6.36-12.02c-0.15,1.1-0.28,2.19-0.43,3.29c4.5-1.49,8.47-4.21,11.08-8.2c2.22-3.39,3.27-7.55,3.08-11.58
		c-0.38-8.27-5.73-16.05-13.98-18.09c-5.83-1.44-11.82,0.09-17.09,2.67c0.88,0.67,1.76,1.36,2.64,2.03
		c1.18-5.13,1.49-10.64-0.15-15.72c-1.31-4.05-3.78-7.59-7.27-10.04c-6.67-4.71-15.9-4.14-22.48,0.43
		c-4.64,3.22-7.82,7.93-9.79,13.17c1.18,0.16,2.36,0.32,3.54,0.48c0.55-6.63-2.09-13.78-8.38-16.81
		c-5.33-2.57-11.91-1.54-15.69,3.19c-2.69,3.36-3.64,7.65-3.66,11.9c1.18-0.16,2.36-0.32,3.54-0.48c-1.05-5.1-3.34-10.15-7.31-13.63
		c-3.33-2.93-7.5-4.58-11.9-4.85c-8.08-0.52-16.87,3.85-20.33,11.38c-2.19,4.77-2.07,10.12-0.13,14.96c0.36,0.9,1.2,1.53,2.21,1.25
		c0.86-0.23,1.62-1.31,1.25-2.21c-0.44-1.09-0.79-2.21-1.05-3.36c-0.05-0.23-0.1-0.47-0.14-0.71c-0.03-0.14-0.04-0.28-0.07-0.42
		c-0.09-0.47,0.04,0.39-0.01-0.08c-0.05-0.5-0.1-1-0.11-1.5c-0.02-0.49-0.01-0.97,0.02-1.46c0.01-0.21,0.03-0.44,0.05-0.65
		c0.01-0.13,0.03-0.26,0.04-0.38c-0.06,0.54,0.01-0.04,0.03-0.15c0.15-0.9,0.38-1.79,0.69-2.65c0.07-0.2,0.15-0.38,0.22-0.57
		c0.15-0.4-0.18,0.37,0.01-0.02c0.05-0.11,0.1-0.22,0.15-0.33c0.2-0.42,0.42-0.83,0.65-1.24c0.21-0.37,0.44-0.73,0.68-1.07
		c0.14-0.2,0.28-0.39,0.43-0.59c-0.29,0.4,0.14-0.18,0.25-0.3c0.57-0.68,1.2-1.32,1.87-1.9c0.18-0.16,0.37-0.32,0.56-0.47
		c0.06-0.05,0.13-0.1,0.19-0.15c0.33-0.27-0.33,0.23,0.03-0.02c0.4-0.28,0.79-0.57,1.21-0.84c0.76-0.49,1.56-0.92,2.38-1.3
		c0.11-0.05,0.23-0.1,0.34-0.15c0.38-0.18-0.28,0.11-0.03,0.01c0.21-0.09,0.42-0.17,0.64-0.25c0.47-0.18,0.94-0.33,1.41-0.47
		c0.88-0.26,1.77-0.46,2.67-0.61c0.13-0.02,0.25-0.04,0.37-0.06c-0.46,0.06-0.21,0.03-0.11,0.02c0.25-0.03,0.5-0.06,0.74-0.08
		c0.46-0.04,0.91-0.06,1.37-0.06c0.46-0.01,0.92,0.01,1.37,0.03c0.23,0.01,0.46,0.03,0.69,0.05c0.15,0.01,1,0.13,0.45,0.04
		c0.91,0.15,1.82,0.33,2.7,0.6c0.45,0.13,0.88,0.29,1.32,0.46c0.12,0.04,0.24,0.09,0.35,0.15c-0.4-0.16-0.16-0.07-0.08-0.03
		c0.27,0.13,0.54,0.25,0.81,0.38c0.86,0.44,1.66,0.95,2.45,1.51c0.07,0.05,0.42,0.33,0.06,0.04c0.11,0.08,0.21,0.17,0.32,0.25
		c0.25,0.2,0.49,0.41,0.72,0.62c0.41,0.38,0.8,0.77,1.17,1.19c0.21,0.23,0.41,0.46,0.61,0.7c0.08,0.09,0.15,0.19,0.23,0.28
		c-0.28-0.35,0.11,0.15,0.16,0.22c0.35,0.49,0.69,0.99,1,1.5c0.35,0.59,0.67,1.19,0.97,1.8c0.36,0.75,0.38,0.81,0.67,1.55
		c0.55,1.47,0.97,2.99,1.29,4.53c0.42,2.02,3.53,1.51,3.54-0.48c0.01-0.96,0.05-1.91,0.16-2.86c0.04-0.37,0.02-0.13,0.01-0.06
		c0.02-0.11,0.04-0.23,0.06-0.35c0.03-0.2,0.07-0.4,0.11-0.59c0.08-0.41,0.17-0.81,0.28-1.22c0.1-0.38,0.22-0.76,0.35-1.14
		c0.06-0.17,0.12-0.33,0.18-0.5c0.04-0.09,0.08-0.19,0.11-0.28c-0.06,0.15-0.09,0.19-0.01,0.02c0.32-0.66,0.64-1.31,1.05-1.92
		c0.09-0.13,0.18-0.26,0.27-0.39c0.05-0.08,0.11-0.15,0.16-0.21c-0.01,0.01-0.21,0.26-0.08,0.1c0.22-0.26,0.44-0.53,0.68-0.78
		c0.2-0.21,0.42-0.42,0.64-0.61c0.11-0.09,0.22-0.18,0.33-0.28c0.23-0.21-0.03,0.03-0.08,0.05c0.08-0.06,0.16-0.12,0.25-0.18
		c0.49-0.35,1-0.66,1.54-0.91c0.13-0.06,0.25-0.11,0.38-0.17c-0.48,0.22,0.01,0,0.11-0.04c0.28-0.1,0.55-0.19,0.84-0.27
		c0.28-0.08,0.57-0.15,0.85-0.2c0.13-0.03,0.27-0.04,0.4-0.07c0.2-0.04-0.2,0.03-0.19,0.03c0.09-0.01,0.2-0.03,0.29-0.03
		c0.59-0.05,1.17-0.06,1.75-0.03c0.16,0.01,0.31,0.03,0.47,0.04c0.42,0.03-0.28-0.06,0.04,0c0.31,0.06,0.62,0.11,0.93,0.18
		c0.59,0.14,1.14,0.33,1.71,0.54c0.3,0.11-0.33-0.16,0.07,0.03c0.13,0.06,0.26,0.12,0.38,0.18c0.29,0.15,0.58,0.3,0.86,0.47
		c0.25,0.15,0.49,0.3,0.73,0.47c0.14,0.09,0.27,0.2,0.4,0.29c-0.32-0.23-0.01-0.01,0.13,0.11c0.49,0.41,0.95,0.86,1.37,1.34
		c0.1,0.11,0.2,0.23,0.3,0.35c0.11,0.13,0.29,0.38,0.09,0.1c0.21,0.29,0.42,0.58,0.61,0.88c0.21,0.33,0.4,0.67,0.58,1.02
		c0.09,0.16,0.17,0.33,0.25,0.5c0.05,0.11,0.28,0.67,0.13,0.29c0.31,0.79,0.57,1.59,0.76,2.42c0.09,0.41,0.16,0.83,0.23,1.24
		c0.01,0.08,0.06,0.35,0,0c0.01,0.14,0.03,0.27,0.04,0.41c0.02,0.22,0.04,0.44,0.05,0.67c0.06,1.03,0.04,2.07-0.04,3.1
		c-0.08,0.88,0.74,1.67,1.56,1.77c0.94,0.11,1.65-0.43,1.97-1.29c0.74-1.96,1.89-4.21,3.25-6.14c0.16-0.22,0.32-0.44,0.49-0.66
		c-0.21,0.28,0.21-0.26,0.27-0.33c0.35-0.43,0.71-0.84,1.09-1.24c0.69-0.74,1.44-1.41,2.23-2.06c0.05-0.04,0.44-0.34,0.1-0.08
		c0.08-0.06,0.16-0.12,0.23-0.18c0.19-0.14,0.39-0.28,0.59-0.42c0.42-0.28,0.84-0.55,1.27-0.8c0.38-0.22,0.78-0.44,1.17-0.63
		c0.21-0.1,0.42-0.2,0.62-0.3c0.11-0.04,0.21-0.09,0.32-0.14c0.12-0.05,0.08-0.04-0.11,0.05c0.08-0.03,0.17-0.07,0.25-0.1
		c0.85-0.32,1.69-0.6,2.57-0.81c0.41-0.09,0.82-0.18,1.23-0.25c0.11-0.02,0.21-0.03,0.33-0.05c0.43-0.08-0.3,0.03-0.03,0
		c0.24-0.03,0.47-0.06,0.71-0.08c0.86-0.07,1.72-0.08,2.58-0.03c0.21,0.01,0.43,0.03,0.64,0.05c0.13,0.01,0.81,0.11,0.28,0.03
		c0.44,0.07,0.88,0.15,1.31,0.24c0.85,0.19,1.68,0.44,2.48,0.76c0.08,0.03,0.16,0.06,0.23,0.09c0.41,0.16-0.36-0.18,0.04,0.02
		c0.17,0.08,0.35,0.16,0.52,0.24c0.4,0.2,0.79,0.4,1.17,0.63c0.37,0.21,0.73,0.45,1.07,0.69c0.16,0.11,0.31,0.23,0.47,0.34
		c0.22,0.16-0.33-0.28-0.01-0.01c0.1,0.08,0.2,0.16,0.3,0.25c0.69,0.57,1.32,1.2,1.9,1.88c0.13,0.15,0.25,0.31,0.38,0.46
		c0.3,0.35-0.22-0.31,0.04,0.06c0.05,0.08,0.11,0.15,0.16,0.21c0.3,0.4,0.57,0.82,0.83,1.25c0.21,0.36,0.42,0.73,0.61,1.1
		c0.11,0.21,0.21,0.42,0.31,0.64c0.06,0.13,0.12,0.26,0.18,0.39c-0.13-0.28-0.02-0.04,0.04,0.11c0.42,1.06,0.74,2.14,0.98,3.25
		c0.06,0.28,0.12,0.57,0.17,0.86c0.03,0.16,0.06,0.32,0.08,0.48c0.01,0.08,0.07,0.56,0.02,0.17c0.08,0.61,0.13,1.23,0.16,1.85
		c0.07,1.39,0.03,2.78-0.1,4.16c-0.13,1.4-0.37,2.74-0.72,4.29c-0.37,1.59,1.23,2.72,2.64,2.03c2.22-1.09,4.67-1.99,7.28-2.46
		c0.27-0.05,0.54-0.09,0.81-0.13c-0.39,0.06,0.38-0.04,0.47-0.05c0.56-0.06,1.13-0.09,1.7-0.1c0.49-0.01,0.99,0.01,1.48,0.03
		c0.24,0.01,0.48,0.04,0.72,0.06c0.14,0.01,0.28,0.03,0.42,0.05c-0.46-0.06-0.03,0,0.08,0.02c0.98,0.18,1.95,0.4,2.89,0.74
		c0.21,0.08,0.41,0.16,0.62,0.23c0.09,0.03,0.32,0.14-0.07-0.03c0.12,0.05,0.24,0.11,0.35,0.16c0.43,0.2,0.85,0.42,1.26,0.65
		c0.37,0.21,0.73,0.44,1.07,0.68c0.17,0.12,0.34,0.25,0.51,0.37c0.35,0.25-0.3-0.25,0.03,0.03c0.09,0.08,0.2,0.16,0.29,0.24
		c0.67,0.56,1.29,1.18,1.86,1.84c0.15,0.17,0.29,0.35,0.44,0.53c0.07,0.09,0.25,0.33-0.01-0.02c0.06,0.08,0.13,0.16,0.18,0.25
		c0.28,0.39,0.54,0.78,0.79,1.19c0.45,0.74,0.85,1.53,1.2,2.33c-0.21-0.47,0.06,0.15,0.1,0.26c0.08,0.2,0.14,0.39,0.21,0.59
		c0.15,0.44,0.28,0.88,0.4,1.32c0.11,0.4,0.2,0.81,0.28,1.22c0.04,0.21,0.07,0.41,0.11,0.62c0.02,0.13,0.04,0.25,0.06,0.37
		c-0.08-0.5-0.01-0.09,0,0.02c0.1,0.9,0.15,1.8,0.12,2.7c-0.01,0.44-0.04,0.88-0.08,1.32c-0.01,0.13-0.11,0.82-0.02,0.28
		c-0.04,0.25-0.08,0.5-0.12,0.75c-0.16,0.88-0.39,1.74-0.67,2.58c-0.07,0.2-0.14,0.4-0.21,0.6c-0.04,0.11-0.32,0.74-0.11,0.28
		c-0.2,0.43-0.39,0.86-0.62,1.27c-0.25,0.46-0.51,0.91-0.8,1.34c-0.14,0.22-0.3,0.44-0.45,0.65c-0.05,0.07-0.32,0.42-0.04,0.06
		c-0.08,0.11-0.16,0.21-0.25,0.32c-0.69,0.84-1.47,1.63-2.31,2.33c-0.09,0.08-0.18,0.15-0.27,0.22c-0.36,0.3,0.15-0.09-0.14,0.11
		c-0.23,0.16-0.47,0.34-0.71,0.5c-0.49,0.33-1,0.64-1.52,0.93c-0.54,0.3-1.1,0.57-1.66,0.81c0.06-0.03,0.32-0.13-0.01,0.01
		c-0.18,0.07-0.35,0.14-0.52,0.21c-0.33,0.13-0.67,0.25-1.01,0.35c-1.52,0.5-1.73,2.41-0.43,3.29c0.56,0.38,1.16,0.9,1.75,1.56
		c0.14,0.16,0.28,0.32,0.4,0.48c-0.15-0.2,0.16,0.23,0.2,0.28c0.26,0.37,0.49,0.76,0.71,1.15c0.45,0.82,0.58,1.15,0.87,2.08
		c0.13,0.41,0.24,0.83,0.33,1.25c0.08,0.36,0.2,1.04,0.23,1.23c0.41,3.25-0.18,6.82-1.77,9.67c-0.2,0.37-0.42,0.72-0.65,1.07
		c-0.11,0.17-0.23,0.34-0.36,0.5c-0.13,0.16-0.01,0.01,0.01-0.02c-0.09,0.11-0.18,0.23-0.28,0.33c-0.26,0.31-0.54,0.6-0.83,0.88
		c-0.15,0.14-0.3,0.27-0.45,0.4c-0.06,0.06-0.13,0.11-0.19,0.16c-0.08,0.06-0.09,0.07-0.02,0.02c0.17-0.13,0.06-0.04-0.32,0.25
		c-1.78,1.49-3.59,2.82-5.83,3.54c-3.86,1.24-7.86,0.53-11.42-1.36c-4.14-2.2-7.59-5.67-10.1-9.57c-0.48-0.75-1.41-1.1-2.25-0.74
		c-0.88,0.39-1.18,1.21-1.04,2.12c0.08,0.56-0.02-0.2,0.02,0.13c0.01,0.11,0.03,0.23,0.04,0.35c0.03,0.26,0.05,0.51,0.07,0.77
		c0.04,0.52,0.06,1.05,0.06,1.58c0,0.45-0.02,0.9-0.05,1.36c-0.02,0.26-0.05,0.52-0.07,0.77c-0.01,0.08-0.05,0.35,0.01-0.03
		c-0.02,0.15-0.04,0.3-0.07,0.45c-0.14,0.86-0.35,1.72-0.63,2.54c-0.07,0.2-0.14,0.4-0.21,0.6c-0.04,0.11-0.3,0.69-0.11,0.28
		c-0.18,0.4-0.37,0.79-0.57,1.17c-0.18,0.33-0.37,0.66-0.58,0.98c-0.12,0.19-0.25,0.37-0.37,0.56c-0.07,0.11-0.48,0.64-0.19,0.27
		c-0.49,0.62-1.01,1.2-1.58,1.73c-0.28,0.26-0.58,0.52-0.88,0.77c-0.39,0.33,0.15-0.09-0.19,0.15c-0.18,0.13-0.35,0.25-0.52,0.37
		c-0.65,0.45-1.34,0.84-2.04,1.19c-0.15,0.08-0.31,0.15-0.46,0.22c-0.09,0.04-0.19,0.09-0.29,0.13c-0.23,0.1,0.31-0.13,0.08-0.03
		c-0.38,0.15-0.75,0.29-1.14,0.42c-0.74,0.25-1.51,0.44-2.28,0.58c-0.19,0.03-0.38,0.06-0.56,0.1c-0.28,0.05,0.32-0.03-0.15,0.02
		c-0.42,0.04-0.84,0.08-1.26,0.09c-0.76,0.03-1.51,0.01-2.27-0.07c-0.09-0.01-0.67-0.08-0.38-0.04c0.28,0.04-0.29-0.05-0.38-0.06
		c-0.39-0.07-0.78-0.15-1.17-0.25c-0.35-0.09-0.69-0.19-1.03-0.3c-0.18-0.06-0.36-0.12-0.54-0.19c-0.1-0.04-0.2-0.08-0.3-0.11
		c-0.35-0.13,0.33,0.16-0.04-0.01c-0.69-0.32-1.37-0.66-2.02-1.08c-0.33-0.21-0.64-0.43-0.95-0.66c0.32,0.23-0.02-0.02-0.15-0.12
		c-0.18-0.15-0.37-0.31-0.54-0.47c-0.34-0.32-0.67-0.65-0.98-1c-0.15-0.17-0.3-0.34-0.44-0.52c-0.06-0.07-0.11-0.15-0.17-0.21
		c0.28,0.35-0.01-0.02-0.05-0.08c-0.56-0.8-1.07-1.63-1.49-2.52c-0.05-0.11-0.1-0.23-0.16-0.34c-0.14-0.31,0.06,0.14-0.03-0.06
		c-0.11-0.26-0.21-0.52-0.3-0.79c-0.18-0.5-0.33-1.01-0.47-1.53c-0.14-0.54-0.26-1.08-0.37-1.63c-0.14-0.79-0.14-0.81-0.22-1.63
		c-0.09-0.97-0.76-1.8-1.8-1.8c-1,0-1.78,0.83-1.8,1.8c-0.01,0.49-0.04,0.98-0.08,1.47c-0.01,0.11-0.02,0.22-0.03,0.32
		c0-0.01-0.06,0.51-0.03,0.23c0.04-0.28-0.04,0.23-0.04,0.23c-0.03,0.15-0.05,0.3-0.08,0.45c-0.16,0.87-0.38,1.73-0.68,2.56
		c-0.08,0.22-0.16,0.44-0.25,0.66c-0.03,0.08-0.14,0.31,0.02-0.04c-0.04,0.08-0.08,0.17-0.11,0.25c-0.2,0.41-0.4,0.81-0.62,1.21
		c-0.2,0.35-0.41,0.68-0.64,1.01c-0.1,0.15-0.21,0.28-0.3,0.43c-0.18,0.26,0.01-0.01,0.04-0.06c-0.08,0.1-0.16,0.2-0.25,0.3
		c-0.52,0.62-1.09,1.2-1.7,1.73c-0.13,0.11-0.26,0.22-0.39,0.32c-0.32,0.27,0.23-0.17,0.01-0.01c-0.08,0.06-0.17,0.13-0.25,0.19
		c-0.3,0.22-0.62,0.43-0.94,0.62c-0.32,0.2-0.65,0.38-0.98,0.55c-0.18,0.1-0.37,0.19-0.56,0.28c-0.13,0.06-0.73,0.31-0.26,0.12
		c-0.72,0.29-1.44,0.53-2.19,0.73c-0.35,0.09-0.69,0.16-1.04,0.23c-0.21,0.04-0.41,0.08-0.62,0.11c-0.49,0.08,0.25-0.01-0.26,0.04
		c-0.77,0.08-1.54,0.12-2.32,0.11c-0.35-0.01-0.71-0.02-1.07-0.06c-0.21-0.02-0.42-0.04-0.62-0.06c-0.1-0.01-0.35-0.05,0.11,0.02
		c-0.13-0.02-0.25-0.04-0.37-0.06c-0.76-0.13-1.52-0.3-2.26-0.52c-0.34-0.1-0.67-0.21-1.01-0.34c-0.1-0.04-0.75-0.31-0.26-0.1
		c-0.19-0.08-0.38-0.17-0.57-0.26c-0.7-0.34-1.37-0.72-2.01-1.15c-0.16-0.11-0.31-0.21-0.46-0.33c-0.42-0.3,0.14,0.13-0.19-0.14
		c-0.31-0.26-0.62-0.52-0.91-0.79c-0.28-0.26-0.55-0.54-0.8-0.83c-0.11-0.13-0.23-0.26-0.34-0.39c-0.07-0.08-0.14-0.17-0.2-0.25
		c-0.09-0.11,0.2,0.28-0.04-0.05c-0.54-0.74-1.02-1.52-1.42-2.35c-0.05-0.1-0.1-0.21-0.15-0.31c-0.02-0.04-0.2-0.47-0.1-0.23
		c0.11,0.26-0.06-0.16-0.07-0.18c-0.05-0.13-0.1-0.26-0.15-0.4c-0.16-0.45-0.3-0.92-0.43-1.39c-0.13-0.51-0.24-1.03-0.33-1.55
		c-0.02-0.1-0.03-0.2-0.05-0.31c-0.02-0.13-0.02-0.1,0.01,0.09c-0.01-0.08-0.02-0.16-0.03-0.23c-0.03-0.3-0.06-0.59-0.08-0.88
		c-0.08-1.2-0.06-2.41,0.05-3.61c0.16-1.83-2.5-2.37-3.35-0.91c-1.61,2.76-3.3,5.1-5.65,7.28c-1.12,1.04-1.71,1.51-2.95,2.29
		c-0.49,0.3-0.98,0.59-1.49,0.85c-0.23,0.11-0.45,0.23-0.68,0.34c-0.13,0.06-0.27,0.12-0.41,0.18c0.41-0.18-0.18,0.07-0.25,0.09
		c-1.02,0.39-2.06,0.69-3.13,0.88c-0.13,0.03-0.27,0.04-0.41,0.07c-0.46,0.08,0.4-0.03-0.06,0.01c-0.27,0.03-0.54,0.06-0.81,0.08
		c-0.54,0.04-1.07,0.04-1.61,0.03c-0.49-0.02-0.96-0.06-1.45-0.11c-0.45-0.04,0.4,0.08-0.04-0.01c-0.13-0.03-0.26-0.04-0.39-0.06
		c-0.26-0.04-0.52-0.1-0.77-0.16c-0.47-0.11-0.93-0.23-1.39-0.38c-0.25-0.08-0.5-0.16-0.74-0.25c-0.15-0.06-0.98-0.4-0.54-0.21
		c-0.91-0.41-1.8-0.87-2.65-1.41c-0.4-0.26-0.8-0.54-1.19-0.82c-0.07-0.05-0.42-0.33-0.05-0.04c-0.1-0.08-0.21-0.16-0.31-0.25
		c-0.2-0.16-0.4-0.33-0.6-0.51c-0.79-0.7-1.52-1.46-2.19-2.27c-0.08-0.09-0.5-0.64-0.21-0.25c-0.16-0.21-0.32-0.42-0.47-0.64
		c-0.3-0.43-0.59-0.87-0.86-1.32c-0.25-0.42-0.48-0.84-0.69-1.27c-0.12-0.23-0.23-0.47-0.34-0.71c-0.04-0.08-0.21-0.5-0.03-0.05
		c-0.06-0.14-0.11-0.28-0.17-0.43c-0.37-0.96-0.67-1.95-0.88-2.95c-0.05-0.26-0.1-0.52-0.15-0.78c-0.01-0.09-0.03-0.18-0.04-0.26
		c-0.08-0.45,0.03,0.41-0.01-0.04c-0.04-0.53-0.09-1.05-0.11-1.58c-0.01-0.53,0-1.07,0.04-1.6c0.02-0.22,0.04-0.45,0.06-0.67
		c0.01-0.09,0.09-0.55,0.01-0.06c0.03-0.18,0.06-0.36,0.09-0.54c0.21-1.19,0.56-2.35,1.02-3.47c-0.16,0.39,0.16-0.35,0.23-0.49
		c0.15-0.31,0.31-0.61,0.48-0.91c0.32-0.57,0.67-1.13,1.06-1.68c0.09-0.13,0.18-0.25,0.28-0.38c0.13-0.16,0.13-0.17,0.01-0.01
		c0.06-0.08,0.13-0.17,0.2-0.25c0.2-0.25,0.42-0.5,0.63-0.74c0.49-0.55,1-1.08,1.54-1.58c1.28-1.2,2.29-1.94,3.8-2.9
		c1.48-0.94,0.92-3.35-0.91-3.35c-0.79,0-1.58-0.03-2.37-0.08c-0.37-0.03-0.73-0.06-1.09-0.09c-0.19-0.02-0.38-0.04-0.57-0.06
		c-0.21-0.03,0.05,0.01,0.08,0.01c-0.11-0.01-0.21-0.03-0.32-0.04c-1.37-0.21-2.74-0.52-4.05-0.95c-0.29-0.09-0.59-0.2-0.87-0.3
		c-0.15-0.06-0.3-0.11-0.45-0.18c-0.14-0.06-0.48-0.2-0.15-0.06c-0.55-0.25-1.1-0.5-1.63-0.79c-0.53-0.28-1.04-0.6-1.54-0.93
		c-0.23-0.15-0.45-0.31-0.66-0.47c-0.16-0.12-0.26-0.2-0.03-0.02c-0.13-0.1-0.26-0.2-0.38-0.31c-0.83-0.69-1.59-1.45-2.27-2.28
		c-0.09-0.11-0.17-0.21-0.25-0.32c-0.07-0.08,0.21,0.29,0-0.01c-0.16-0.23-0.33-0.47-0.5-0.71c-0.28-0.43-0.55-0.87-0.79-1.32
		c-0.24-0.45-0.45-0.91-0.67-1.37c0.21,0.47-0.07-0.18-0.13-0.35C8.46,79.49,8.38,79.25,8.3,79c-0.32-0.98-0.52-1.97-0.7-2.99
		c-0.06-0.33,0.04,0.37,0.01,0.04c-0.01-0.13-0.03-0.26-0.04-0.38c-0.03-0.26-0.04-0.52-0.06-0.78c-0.03-0.5-0.04-1-0.03-1.5
		c0.01-0.5,0.04-1,0.09-1.5c0.02-0.19,0.13-0.9,0.03-0.35c0.04-0.26,0.08-0.51,0.13-0.77c0.18-1,0.44-1.99,0.78-2.95
		c0.08-0.23,0.16-0.45,0.25-0.67c0.04-0.1,0.08-0.21,0.13-0.31c-0.2,0.5-0.01,0.04,0.04-0.08c0.21-0.45,0.43-0.9,0.67-1.34
		c0.25-0.45,0.52-0.9,0.81-1.33c0.13-0.2,0.27-0.4,0.42-0.59c0.06-0.09,0.13-0.18,0.2-0.27c0.15-0.2-0.22,0.27,0.06-0.08
		c0.64-0.78,1.33-1.51,2.1-2.18c0.18-0.16,0.38-0.32,0.57-0.47c0.34-0.28-0.22,0.15,0.04-0.03c0.11-0.08,0.21-0.16,0.32-0.23
		c0.44-0.31,0.89-0.6,1.36-0.86c0.45-0.26,0.93-0.5,1.41-0.72c0.11-0.05,0.21-0.09,0.33-0.15c-0.46,0.2-0.04,0.02,0.07-0.03
		c0.26-0.1,0.53-0.2,0.79-0.29c0.52-0.18,1.06-0.33,1.6-0.45c0.26-0.06,0.54-0.12,0.8-0.17c0.15-0.03,0.3-0.05,0.44-0.08
		c0.12-0.02,0.66-0.09,0.16-0.03c1.22-0.15,2.45-0.2,3.68-0.13c0.32,0.02,0.62,0.04,0.94,0.07c0.17,0.02,0.34,0.03,0.51,0.05
		c0.08,0.01,0.14,0.02,0.22,0.03c0.27,0.03-0.31-0.04-0.03-0.01c0.69,0.1,1.37,0.23,2.06,0.38c1.51,0.34,3,0.8,4.45,1.36
		c0.17,0.06,0.34,0.13,0.5,0.2c0.06,0.03,0.55,0.23,0.33,0.14c0.4,0.17,0.81,0.35,1.21,0.54c0.88,0.41,1.94,0.25,2.47-0.64
		C37.82,58.67,37.61,57.4,36.73,56.99z"/>
	<path class="st1" d="M59.69,92.57c-0.49-0.71-0.94-1.45-1.32-2.23c-0.08-0.16-0.15-0.33-0.23-0.49c-0.15-0.31-0.02-0.05,0.01,0.01
		c-0.04-0.09-0.08-0.18-0.11-0.28c-0.13-0.36-0.26-0.72-0.36-1.09c-0.09-0.33-0.17-0.66-0.23-1c-0.03-0.18-0.07-0.48-0.03-0.11
		c-0.02-0.19-0.04-0.38-0.06-0.57c-0.02-0.31-0.03-0.62-0.02-0.93c0.01-0.14,0.01-0.28,0.03-0.43c0.01-0.13,0.11-0.73,0.01-0.18
		c0.11-0.6,0.23-1.18,0.44-1.75c0.04-0.13,0.09-0.25,0.15-0.37c-0.14,0.37-0.04,0.09,0.05-0.09c0.13-0.27,0.28-0.54,0.44-0.8
		c0.14-0.23,0.29-0.45,0.44-0.66c0.27-0.4-0.13,0.13,0.06-0.09c0.1-0.11,0.2-0.23,0.3-0.35c0.41-0.46,0.87-0.86,1.33-1.27
		c0.23-0.21-0.32,0.21,0.05-0.04c0.11-0.08,0.22-0.16,0.33-0.23c0.26-0.18,0.52-0.34,0.79-0.5c0.25-0.15,0.51-0.28,0.78-0.42
		c0.13-0.06,0.25-0.12,0.37-0.18c0.45-0.21-0.22,0.07,0.17-0.07c0.58-0.2,1.15-0.4,1.75-0.55c0.29-0.07,0.58-0.13,0.87-0.18
		c0.25-0.04,0.38-0.05,0.05-0.01c0.18-0.02,0.35-0.04,0.53-0.06c0.61-0.05,1.22-0.06,1.83-0.02c0.14,0.01,0.28,0.03,0.42,0.04
		c0.08,0.01,0.16,0.02,0.23,0.03c0.25,0.03-0.37-0.06-0.13-0.02c0.31,0.06,0.62,0.11,0.93,0.18c0.29,0.07,0.57,0.15,0.86,0.25
		c0.13,0.04,0.26,0.09,0.4,0.14c0.08,0.03,0.15,0.06,0.22,0.09c0.22,0.08-0.4-0.2-0.04-0.02c0.55,0.26,1.08,0.54,1.6,0.88
		c0.08,0.05,0.52,0.37,0.32,0.22c-0.18-0.14,0.23,0.19,0.31,0.25c0.28,0.24,0.54,0.49,0.79,0.76c0.13,0.15,0.26,0.29,0.4,0.44
		c0.1,0.12,0.36,0.47,0.14,0.16c0.25,0.34,0.48,0.68,0.69,1.04c0.21,0.35,0.4,0.73,0.58,1.1c0.04,0.09,0.08,0.18,0.13,0.27
		c0.12,0.26-0.15-0.4,0.03,0.06c0.08,0.2,0.15,0.39,0.22,0.59c0.34,0.96,0.58,1.96,0.76,2.98c0.16,0.96,1.34,1.49,2.21,1.25
		c1.03-0.28,1.41-1.25,1.25-2.21c-0.29-1.85-0.41-4.31-0.18-6.44c0.01-0.13,0.03-0.26,0.04-0.4c-0.01,0.07-0.06,0.36,0,0.01
		c0.04-0.23,0.08-0.46,0.11-0.69c0.09-0.47,0.19-0.93,0.31-1.38c0.11-0.42,0.24-0.82,0.38-1.22c0.07-0.2,0.15-0.39,0.22-0.58
		c0.04-0.1,0.17-0.39,0-0.01c0.06-0.12,0.11-0.25,0.16-0.37c0.33-0.7,0.71-1.37,1.14-2.01c0.11-0.17,0.24-0.33,0.36-0.5
		c-0.23,0.32-0.02,0.03,0.09-0.11c0.25-0.3,0.52-0.6,0.81-0.88c0.25-0.25,0.5-0.48,0.78-0.7c0.16-0.13,0.4-0.3,0.09-0.08
		c0.17-0.12,0.33-0.25,0.51-0.36c0.57-0.38,1.19-0.69,1.81-1c0.35-0.16-0.31,0.12-0.08,0.03c0.09-0.03,0.17-0.07,0.26-0.1
		c0.14-0.05,0.28-0.1,0.42-0.14c0.35-0.11,0.7-0.21,1.05-0.3c0.32-0.08,0.64-0.13,0.96-0.18c-0.38,0.06-0.18,0.03,0.06,0
		c0.2-0.02,0.4-0.03,0.6-0.04c0.68-0.03,1.34,0.03,2.01,0.08c-0.57-0.04-0.03,0,0.11,0.03c0.16,0.03,0.32,0.06,0.49,0.09
		c0.36,0.08,0.71,0.17,1.07,0.28c0.3,0.09,0.59,0.21,0.89,0.32c0.24,0.09-0.42-0.2-0.07-0.03c0.07,0.03,0.14,0.06,0.2,0.09
		c0.17,0.08,0.34,0.16,0.5,0.25c0.3,0.16,0.6,0.33,0.89,0.51c0.16,0.1,0.32,0.21,0.48,0.32c0.11,0.08,0.6,0.46,0.2,0.13
		c0.57,0.47,1.12,0.96,1.61,1.51c0.13,0.14,0.25,0.28,0.36,0.42c0.05,0.06,0.1,0.13,0.16,0.19c0.27,0.32-0.17-0.23-0.01-0.02
		c0.24,0.33,0.47,0.66,0.68,1c0.25,0.39,0.47,0.79,0.67,1.2c0.11,0.22,0.21,0.45,0.32,0.67c0.04,0.08,0.13,0.32-0.02-0.05
		c0.05,0.13,0.11,0.26,0.16,0.39c0.37,0.96,0.64,1.97,0.84,2.98c0.05,0.26,0.09,0.52,0.13,0.78c0.02,0.11,0.03,0.21,0.04,0.32
		c-0.06-0.4,0.01,0.08,0.01,0.16c0.07,0.62,0.11,1.24,0.13,1.85c0.04,1.29-0.03,2.59-0.17,3.87c-0.19,1.73,2.67,2.53,3.35,0.91
		c0.29-0.68,0.61-1.34,0.99-1.98c0.18-0.3,0.36-0.59,0.56-0.88c0.09-0.14,0.19-0.28,0.3-0.41c-0.19,0.24,0.08-0.09,0.13-0.15
		c0.41-0.49,0.85-0.94,1.33-1.35c0.11-0.1,0.23-0.2,0.35-0.29c-0.32,0.26,0.07-0.05,0.12-0.08c0.25-0.17,0.49-0.33,0.74-0.49
		c0.25-0.15,0.5-0.29,0.77-0.42c0.13-0.06,0.26-0.12,0.39-0.18c0.43-0.2-0.35,0.11,0.1-0.04c0.54-0.18,1.07-0.37,1.63-0.49
		c0.27-0.06,0.55-0.11,0.83-0.15c-0.49,0.07,0.35-0.03,0.49-0.03c0.56-0.03,1.12-0.03,1.67,0.02c0.14,0.01,0.28,0.03,0.42,0.04
		c0.47,0.04-0.38-0.08,0.07,0.01c0.27,0.06,0.55,0.09,0.81,0.16c0.54,0.13,1.07,0.28,1.59,0.47c0.13,0.05,0.26,0.1,0.39,0.15
		c-0.43-0.17,0.01,0.01,0.07,0.04c0.25,0.12,0.5,0.24,0.74,0.37c0.48,0.26,0.93,0.57,1.39,0.88c0.39,0.25-0.28-0.25,0.07,0.05
		c0.1,0.09,0.21,0.18,0.32,0.26c0.21,0.18,0.41,0.37,0.6,0.55c0.16,0.16,0.32,0.33,0.47,0.5c0.09,0.1,0.18,0.21,0.26,0.31
		c0.32,0.38-0.02-0.07,0.14,0.18c0.28,0.42,0.56,0.83,0.8,1.28c0.13,0.25,0.25,0.5,0.36,0.75c-0.18-0.42,0,0.02,0.03,0.09
		c0.06,0.18,0.13,0.35,0.18,0.54c0.09,0.32,0.18,0.64,0.25,0.97c0.02,0.09,0.04,0.19,0.05,0.28c0.02,0.09,0.03,0.19,0.04,0.29
		c-0.03-0.24-0.03-0.25-0.01-0.04c0.04,0.72,0.07,1.42,0.01,2.14c-0.01,0.06-0.07,0.58-0.01,0.16c-0.02,0.16-0.05,0.32-0.08,0.49
		c-0.07,0.39-0.16,0.78-0.27,1.15c-0.25,0.9-0.47,1.44-0.81,2.14c-0.42,0.88-0.24,1.94,0.64,2.47c0.79,0.46,2.04,0.23,2.47-0.64
		c1.4-2.93,2.07-6.09,1.44-9.31c-0.51-2.6-1.99-5.04-3.97-6.78c-4.16-3.63-10.17-4.63-15.2-2.27c-3.13,1.47-5.46,4.29-6.79,7.43
		c1.12,0.3,2.24,0.61,3.35,0.91c0.49-4.45,0.02-9.09-2.09-13.09c-1.65-3.13-4.34-5.59-7.62-6.91c-6.39-2.58-13.69,0.28-17.03,6.2
		c-2.54,4.51-2.7,9.85-1.92,14.85c1.16-0.32,2.31-0.64,3.47-0.96c-0.59-3.43-2.11-6.89-4.85-9.15c-2.38-1.95-5.33-2.99-8.42-2.95
		c-5.69,0.06-11.65,3.66-13.08,9.42c-0.95,3.83,0.31,7.74,2.5,10.92c0.55,0.8,1.58,1.16,2.47,0.64
		C59.84,94.57,60.24,93.38,59.69,92.57z"/>
	<path class="st1" d="M298.97,595.99c-4.44-2.06-9.42-3.29-14.29-2.17c-3.73,0.86-6.95,3.17-9.08,6.33
		c-1.97,2.93-2.93,6.59-2.71,10.11c0.23,3.74,1.73,7.33,4.38,10c3.23,3.24,7.7,4.71,12.18,5.04c0.65,0.04,1.3,0.07,1.95,0.07
		c-0.24-0.89-0.48-1.78-0.72-2.67c-3.85,2.45-7.15,5.93-8.39,10.41c-1.01,3.67-0.49,7.56,1.18,10.96
		c3.28,6.69,11.06,10.96,18.42,8.88c5.33-1.51,9.28-5.83,11.98-10.47c-0.89-0.24-1.78-0.48-2.67-0.72
		c-0.29,3.34,0.26,6.84,2.06,9.72c1.58,2.52,3.95,4.35,6.72,5.42c5.2,2,11.63,0.83,15.55-3.2c2.59-2.65,3.79-6.23,3.88-9.88
		c-0.95,0-1.91,0-2.86,0c0.33,3.49,1.46,6.87,3.84,9.49c1.89,2.08,4.53,3.5,7.3,3.99c5.76,1.02,11.87-1.41,15.05-6.39
		c2.08-3.25,2.51-7.14,1.96-10.9c-0.87,0.37-1.74,0.74-2.61,1.1c4.02,6.26,11.33,11.98,19.2,10.3c2.08-0.45,4.01-1.44,5.69-2.73
		c1.4-1.08,2.72-2.22,3.72-3.71c1.8-2.66,2.58-6.09,2.38-9.28c-0.25-3.78-1.85-7.38-5.05-9.55c-0.11,0.87-0.23,1.74-0.34,2.61
		c3.57-1.18,6.73-3.34,8.8-6.51c1.76-2.69,2.6-6,2.45-9.2c-0.3-6.57-4.55-12.75-11.11-14.37c-4.63-1.14-9.39,0.07-13.58,2.12
		c0.7,0.54,1.4,1.08,2.1,1.61c0.94-4.08,1.19-8.46-0.11-12.49c-1.04-3.22-3-6.03-5.78-7.98c-5.3-3.74-12.63-3.29-17.86,0.34
		c-3.69,2.56-6.21,6.3-7.78,10.47c0.94,0.12,1.87,0.26,2.81,0.38c0.44-5.27-1.66-10.95-6.66-13.35c-4.24-2.04-9.46-1.23-12.47,2.53
		c-2.14,2.67-2.89,6.08-2.91,9.45c0.94-0.12,1.87-0.26,2.81-0.38c-0.84-4.05-2.65-8.06-5.81-10.83c-2.65-2.32-5.96-3.64-9.46-3.86
		c-6.42-0.41-13.4,3.06-16.15,9.04c-1.74,3.79-1.64,8.04-0.11,11.89c0.29,0.72,0.96,1.22,1.76,1c0.68-0.18,1.29-1.04,1-1.76
		c-0.35-0.87-0.63-1.76-0.83-2.67c-0.04-0.18-0.08-0.38-0.11-0.56c-0.02-0.11-0.03-0.23-0.05-0.34c-0.07-0.38,0.03,0.31-0.01-0.06
		c-0.04-0.4-0.08-0.8-0.09-1.19c-0.01-0.39-0.01-0.77,0.02-1.16c0.01-0.17,0.02-0.35,0.04-0.52c0.01-0.1,0.02-0.21,0.04-0.31
		c-0.05,0.43,0-0.04,0.02-0.12c0.12-0.72,0.3-1.42,0.55-2.11c0.05-0.16,0.12-0.31,0.18-0.46c0.11-0.32-0.14,0.29,0-0.02
		c0.04-0.09,0.08-0.17,0.12-0.27c0.16-0.34,0.33-0.66,0.52-0.98c0.17-0.29,0.35-0.58,0.54-0.85c0.11-0.16,0.23-0.31,0.34-0.47
		c-0.23,0.32,0.12-0.14,0.2-0.23c0.46-0.54,0.95-1.05,1.49-1.51c0.15-0.13,0.3-0.25,0.45-0.38c0.05-0.04,0.1-0.08,0.15-0.12
		c0.26-0.22-0.26,0.18,0.02-0.01c0.32-0.23,0.63-0.46,0.96-0.67c0.61-0.39,1.24-0.73,1.89-1.03c0.09-0.04,0.18-0.08,0.27-0.12
		c0.3-0.14-0.22,0.09-0.03,0.01c0.17-0.07,0.34-0.14,0.51-0.2c0.37-0.14,0.75-0.27,1.12-0.38c0.7-0.21,1.41-0.36,2.12-0.48
		c0.1-0.02,0.2-0.03,0.3-0.04c-0.37,0.05-0.16,0.02-0.08,0.01c0.2-0.02,0.4-0.04,0.59-0.06c0.37-0.03,0.73-0.04,1.09-0.05
		s0.73,0.01,1.09,0.03c0.18,0.01,0.37,0.02,0.55,0.04c0.12,0.01,0.8,0.11,0.36,0.04c0.73,0.12,1.44,0.26,2.15,0.48
		c0.36,0.11,0.7,0.23,1.05,0.37c0.1,0.03,0.19,0.08,0.28,0.11c-0.32-0.13-0.13-0.05-0.06-0.02c0.22,0.1,0.43,0.2,0.65,0.31
		c0.68,0.35,1.32,0.75,1.94,1.2c0.06,0.04,0.34,0.26,0.05,0.03c0.08,0.07,0.17,0.14,0.25,0.2c0.19,0.16,0.39,0.33,0.57,0.5
		c0.33,0.3,0.64,0.61,0.93,0.94c0.17,0.18,0.33,0.37,0.48,0.56c0.06,0.07,0.12,0.15,0.18,0.23c-0.22-0.28,0.09,0.12,0.12,0.18
		c0.28,0.39,0.55,0.79,0.79,1.19c0.28,0.47,0.54,0.94,0.77,1.43c0.29,0.6,0.31,0.65,0.53,1.23c0.44,1.17,0.77,2.38,1.03,3.6
		c0.33,1.6,2.81,1.2,2.81-0.38c0-0.76,0.04-1.52,0.13-2.27c0.04-0.29,0.02-0.1,0.01-0.04c0.02-0.09,0.03-0.18,0.05-0.28
		c0.02-0.16,0.05-0.32,0.08-0.47c0.07-0.33,0.14-0.65,0.22-0.97c0.08-0.31,0.18-0.61,0.28-0.91c0.04-0.14,0.1-0.27,0.14-0.4
		c0.03-0.08,0.06-0.15,0.09-0.22c-0.04,0.11-0.07,0.15-0.01,0.01c0.25-0.53,0.51-1.04,0.84-1.53c0.07-0.11,0.14-0.21,0.21-0.31
		c0.04-0.06,0.09-0.11,0.12-0.17c0,0.01-0.16,0.21-0.06,0.08c0.18-0.21,0.35-0.42,0.54-0.62c0.16-0.17,0.33-0.33,0.51-0.49
		c0.09-0.07,0.18-0.14,0.26-0.22c0.18-0.17-0.02,0.02-0.06,0.04c0.07-0.05,0.13-0.09,0.2-0.15c0.39-0.27,0.8-0.52,1.23-0.73
		c0.1-0.04,0.2-0.09,0.3-0.13c-0.38,0.17,0.01,0,0.09-0.03c0.22-0.08,0.44-0.15,0.67-0.22c0.23-0.06,0.45-0.11,0.68-0.15
		c0.1-0.02,0.21-0.04,0.32-0.05c0.16-0.03-0.16,0.02-0.15,0.02c0.08-0.01,0.15-0.02,0.23-0.02c0.47-0.04,0.93-0.05,1.39-0.02
		c0.12,0.01,0.25,0.03,0.37,0.03c0.33,0.02-0.22-0.04,0.03,0c0.25,0.05,0.49,0.09,0.74,0.14c0.47,0.11,0.91,0.27,1.36,0.43
		c0.24,0.08-0.27-0.13,0.05,0.02c0.1,0.05,0.2,0.1,0.31,0.15c0.23,0.12,0.46,0.24,0.68,0.37c0.2,0.11,0.39,0.24,0.58,0.37
		c0.11,0.08,0.21,0.16,0.32,0.23c-0.26-0.18-0.01-0.01,0.1,0.09c0.39,0.33,0.76,0.68,1.09,1.06c0.08,0.09,0.16,0.19,0.24,0.28
		c0.08,0.1,0.23,0.31,0.07,0.08c0.17,0.23,0.33,0.46,0.49,0.7c0.17,0.26,0.32,0.53,0.46,0.81c0.07,0.13,0.13,0.26,0.2,0.4
		c0.04,0.08,0.23,0.54,0.11,0.23c0.24,0.63,0.45,1.26,0.6,1.92c0.08,0.32,0.13,0.66,0.18,0.99c0.01,0.06,0.05,0.28,0,0
		c0.01,0.11,0.03,0.21,0.04,0.32c0.02,0.18,0.03,0.35,0.04,0.53c0.05,0.82,0.03,1.64-0.04,2.46c-0.06,0.7,0.59,1.33,1.24,1.4
		c0.75,0.09,1.31-0.34,1.57-1.02c0.59-1.56,1.5-3.35,2.58-4.88c0.12-0.17,0.26-0.35,0.39-0.53c-0.17,0.22,0.17-0.2,0.22-0.26
		c0.28-0.34,0.57-0.67,0.87-0.99c0.55-0.59,1.15-1.12,1.77-1.63c0.04-0.03,0.35-0.27,0.08-0.06c0.06-0.05,0.12-0.1,0.18-0.14
		c0.15-0.11,0.31-0.23,0.47-0.34c0.33-0.23,0.67-0.44,1.01-0.64c0.31-0.18,0.62-0.35,0.93-0.5c0.17-0.08,0.33-0.16,0.5-0.24
		c0.08-0.04,0.17-0.08,0.25-0.11c0.1-0.04,0.07-0.03-0.09,0.04c0.07-0.03,0.13-0.05,0.2-0.08c0.67-0.25,1.34-0.48,2.04-0.64
		c0.33-0.08,0.65-0.14,0.98-0.2c0.09-0.02,0.17-0.03,0.26-0.04c0.34-0.06-0.24,0.03-0.02,0c0.19-0.02,0.38-0.04,0.57-0.06
		c0.68-0.05,1.37-0.07,2.05-0.02c0.17,0.01,0.34,0.02,0.51,0.04c0.1,0.01,0.65,0.09,0.23,0.02c0.35,0.05,0.7,0.12,1.04,0.19
		c0.67,0.15,1.33,0.35,1.97,0.6c0.06,0.02,0.12,0.05,0.18,0.07c0.33,0.12-0.29-0.14,0.03,0.02c0.13,0.07,0.28,0.12,0.41,0.19
		c0.32,0.16,0.63,0.32,0.93,0.5c0.29,0.17,0.58,0.36,0.85,0.55c0.12,0.09,0.25,0.18,0.37,0.27c0.17,0.13-0.27-0.22-0.01-0.01
		c0.08,0.07,0.16,0.13,0.23,0.2c0.55,0.46,1.05,0.96,1.51,1.49c0.11,0.12,0.2,0.25,0.31,0.37c0.24,0.28-0.18-0.25,0.04,0.04
		c0.04,0.06,0.08,0.12,0.12,0.17c0.24,0.32,0.45,0.65,0.66,0.99c0.17,0.29,0.33,0.58,0.49,0.87c0.08,0.17,0.17,0.34,0.25,0.51
		c0.05,0.1,0.1,0.21,0.14,0.31c-0.1-0.23-0.02-0.04,0.03,0.08c0.33,0.84,0.59,1.7,0.78,2.59c0.05,0.23,0.1,0.45,0.14,0.68
		c0.02,0.12,0.04,0.25,0.06,0.38c0.01,0.07,0.06,0.45,0.02,0.14c0.06,0.49,0.11,0.98,0.13,1.47c0.05,1.1,0.02,2.21-0.08,3.31
		c-0.11,1.11-0.3,2.18-0.58,3.41c-0.29,1.26,0.98,2.16,2.1,1.61c1.76-0.87,3.71-1.58,5.78-1.95c0.21-0.04,0.43-0.08,0.65-0.1
		c-0.31,0.04,0.3-0.04,0.38-0.04c0.45-0.05,0.9-0.07,1.35-0.08c0.39-0.01,0.79,0.01,1.18,0.02c0.19,0.01,0.38,0.03,0.57,0.05
		c0.11,0.01,0.22,0.02,0.33,0.04c-0.36-0.04-0.02,0,0.07,0.02c0.78,0.14,1.55,0.32,2.3,0.59c0.17,0.06,0.33,0.13,0.49,0.19
		c0.07,0.03,0.25,0.11-0.05-0.02c0.1,0.04,0.19,0.08,0.28,0.12c0.34,0.15,0.67,0.33,1,0.52c0.29,0.17,0.58,0.35,0.85,0.54
		c0.14,0.09,0.27,0.19,0.4,0.29c0.28,0.2-0.23-0.2,0.03,0.02c0.08,0.07,0.15,0.12,0.23,0.19c0.53,0.45,1.03,0.94,1.48,1.46
		c0.12,0.14,0.23,0.28,0.35,0.42c0.06,0.07,0.2,0.27-0.01-0.02c0.05,0.07,0.1,0.13,0.15,0.2c0.22,0.31,0.43,0.62,0.63,0.95
		c0.36,0.59,0.68,1.21,0.95,1.85c-0.17-0.38,0.05,0.12,0.08,0.21c0.06,0.15,0.11,0.31,0.17,0.46c0.12,0.35,0.23,0.7,0.32,1.05
		c0.08,0.32,0.16,0.65,0.23,0.97c0.03,0.17,0.06,0.33,0.09,0.49c0.01,0.1,0.03,0.2,0.04,0.3c-0.06-0.4-0.01-0.08,0,0.02
		c0.08,0.72,0.12,1.43,0.1,2.15c-0.01,0.35-0.03,0.7-0.07,1.05c-0.01,0.1-0.08,0.65-0.02,0.22c-0.03,0.2-0.06,0.4-0.1,0.6
		c-0.12,0.7-0.3,1.38-0.53,2.05c-0.05,0.16-0.11,0.32-0.17,0.48c-0.04,0.09-0.25,0.59-0.09,0.23c-0.16,0.34-0.31,0.68-0.49,1.01
		c-0.2,0.36-0.41,0.72-0.64,1.07c-0.12,0.17-0.24,0.34-0.36,0.52c-0.04,0.05-0.26,0.34-0.03,0.04c-0.07,0.09-0.13,0.17-0.2,0.25
		c-0.55,0.67-1.17,1.29-1.83,1.85c-0.07,0.06-0.14,0.12-0.21,0.17c-0.29,0.24,0.12-0.07-0.11,0.09c-0.18,0.13-0.37,0.27-0.56,0.4
		c-0.39,0.27-0.8,0.51-1.21,0.74c-0.43,0.24-0.87,0.45-1.32,0.65c0.05-0.03,0.25-0.1-0.01,0.01c-0.14,0.06-0.28,0.11-0.42,0.17
		c-0.27,0.1-0.53,0.19-0.8,0.28c-1.21,0.4-1.37,1.91-0.34,2.61c0.45,0.3,0.92,0.71,1.39,1.24c0.11,0.12,0.22,0.25,0.32,0.38
		c-0.12-0.15,0.12,0.18,0.16,0.23c0.21,0.29,0.39,0.6,0.56,0.91c0.36,0.65,0.46,0.91,0.69,1.65c0.1,0.33,0.19,0.66,0.27,0.99
		c0.07,0.29,0.16,0.83,0.18,0.98c0.33,2.59-0.14,5.42-1.4,7.68c-0.16,0.29-0.34,0.57-0.52,0.85c-0.09,0.14-0.19,0.27-0.29,0.4
		c-0.1,0.13-0.01,0.01,0.01-0.02c-0.07,0.09-0.14,0.18-0.22,0.27c-0.21,0.24-0.43,0.48-0.66,0.7c-0.12,0.11-0.24,0.22-0.36,0.32
		c-0.05,0.04-0.1,0.08-0.15,0.13c-0.07,0.05-0.07,0.05-0.01,0.01c0.13-0.1,0.05-0.03-0.25,0.2c-1.41,1.18-2.85,2.24-4.63,2.81
		c-3.07,0.98-6.25,0.42-9.08-1.08c-3.29-1.75-6.03-4.5-8.02-7.6c-0.38-0.6-1.12-0.88-1.79-0.59c-0.7,0.31-0.94,0.96-0.83,1.69
		c0.07,0.45-0.02-0.16,0.01,0.11c0.01,0.09,0.02,0.18,0.03,0.27c0.02,0.21,0.04,0.41,0.05,0.61c0.03,0.42,0.04,0.83,0.04,1.25
		c0,0.36-0.01,0.72-0.04,1.08c-0.02,0.2-0.04,0.41-0.06,0.61c0,0.07-0.04,0.28,0.01-0.02c-0.01,0.12-0.04,0.23-0.05,0.35
		c-0.11,0.69-0.28,1.36-0.5,2.02c-0.05,0.16-0.11,0.32-0.17,0.48c-0.03,0.09-0.24,0.55-0.09,0.22c-0.14,0.32-0.29,0.63-0.45,0.93
		c-0.15,0.27-0.3,0.53-0.46,0.78c-0.1,0.15-0.2,0.29-0.3,0.44c-0.06,0.09-0.38,0.51-0.15,0.22c-0.39,0.49-0.8,0.95-1.26,1.38
		c-0.23,0.21-0.46,0.41-0.7,0.61c-0.31,0.26,0.11-0.07-0.15,0.12c-0.14,0.1-0.28,0.2-0.42,0.3c-0.52,0.35-1.06,0.67-1.62,0.95
		c-0.12,0.06-0.24,0.12-0.37,0.18c-0.08,0.03-0.15,0.07-0.23,0.1c-0.18,0.08,0.24-0.1,0.06-0.02c-0.3,0.11-0.6,0.23-0.9,0.33
		c-0.59,0.2-1.2,0.34-1.81,0.46c-0.15,0.03-0.3,0.05-0.45,0.08c-0.22,0.04,0.25-0.03-0.12,0.01c-0.34,0.04-0.67,0.06-1,0.08
		c-0.6,0.03-1.2,0.01-1.8-0.05c-0.07-0.01-0.53-0.07-0.3-0.03c0.23,0.03-0.23-0.04-0.31-0.05c-0.31-0.05-0.62-0.12-0.93-0.2
		c-0.28-0.07-0.55-0.15-0.82-0.24c-0.14-0.05-0.29-0.1-0.43-0.15c-0.08-0.03-0.15-0.06-0.23-0.09c-0.28-0.1,0.26,0.12-0.03-0.01
		c-0.55-0.26-1.09-0.53-1.6-0.86c-0.26-0.17-0.51-0.34-0.75-0.53c0.25,0.18-0.02-0.02-0.11-0.1c-0.15-0.12-0.29-0.24-0.43-0.38
		c-0.27-0.25-0.53-0.52-0.78-0.79c-0.12-0.14-0.24-0.27-0.35-0.41c-0.05-0.05-0.09-0.11-0.14-0.17c0.22,0.28-0.01-0.02-0.04-0.06
		c-0.45-0.64-0.85-1.3-1.18-2c-0.04-0.09-0.08-0.18-0.12-0.27c-0.11-0.25,0.05,0.11-0.02-0.05c-0.09-0.21-0.17-0.42-0.24-0.63
		c-0.14-0.4-0.27-0.8-0.38-1.21c-0.12-0.43-0.21-0.86-0.29-1.3c-0.11-0.63-0.11-0.65-0.17-1.3c-0.08-0.77-0.61-1.43-1.43-1.43
		c-0.79,0-1.41,0.66-1.43,1.43c-0.01,0.39-0.03,0.78-0.07,1.17c-0.01,0.08-0.01,0.17-0.02,0.26c0-0.01-0.05,0.41-0.02,0.18
		c0.03-0.22-0.03,0.18-0.03,0.18c-0.02,0.12-0.04,0.24-0.06,0.36c-0.13,0.69-0.3,1.37-0.54,2.03c-0.07,0.17-0.13,0.35-0.2,0.53
		c-0.03,0.07-0.12,0.24,0.01-0.04c-0.03,0.07-0.06,0.14-0.09,0.2c-0.15,0.33-0.32,0.65-0.5,0.96c-0.16,0.28-0.33,0.54-0.51,0.81
		c-0.08,0.11-0.17,0.22-0.24,0.34c-0.14,0.21,0.01-0.01,0.04-0.04c-0.07,0.08-0.13,0.16-0.2,0.24c-0.41,0.5-0.87,0.96-1.35,1.37
		c-0.1,0.09-0.21,0.17-0.31,0.26c-0.25,0.22,0.18-0.13,0.01-0.01c-0.07,0.05-0.14,0.1-0.2,0.15c-0.24,0.17-0.49,0.34-0.75,0.5
		c-0.26,0.15-0.52,0.31-0.78,0.44c-0.15,0.08-0.3,0.15-0.45,0.22c-0.1,0.04-0.58,0.25-0.21,0.09c-0.57,0.23-1.15,0.43-1.74,0.58
		c-0.28,0.07-0.55,0.13-0.83,0.18c-0.17,0.03-0.33,0.06-0.49,0.08c-0.39,0.07,0.2-0.01-0.21,0.03c-0.61,0.06-1.23,0.09-1.84,0.08
		c-0.28-0.01-0.57-0.02-0.85-0.04c-0.17-0.02-0.33-0.03-0.5-0.05c-0.08-0.01-0.28-0.04,0.09,0.02c-0.1-0.02-0.2-0.03-0.3-0.05
		c-0.61-0.1-1.21-0.23-1.79-0.42c-0.27-0.08-0.54-0.17-0.8-0.27c-0.08-0.03-0.6-0.25-0.21-0.08c-0.15-0.07-0.31-0.14-0.45-0.21
		c-0.56-0.27-1.09-0.57-1.6-0.91c-0.13-0.09-0.25-0.17-0.37-0.26c-0.33-0.23,0.11,0.1-0.15-0.11c-0.25-0.21-0.49-0.41-0.72-0.63
		c-0.22-0.21-0.44-0.43-0.64-0.66c-0.09-0.1-0.18-0.21-0.27-0.31c-0.06-0.07-0.11-0.14-0.16-0.2c-0.07-0.09,0.16,0.22-0.03-0.04
		c-0.43-0.59-0.81-1.21-1.13-1.86c-0.04-0.08-0.08-0.17-0.11-0.25c-0.02-0.04-0.16-0.38-0.08-0.18c0.08,0.21-0.05-0.13-0.06-0.14
		c-0.04-0.11-0.08-0.21-0.12-0.32c-0.13-0.36-0.24-0.73-0.34-1.1c-0.1-0.41-0.19-0.82-0.26-1.23c-0.02-0.08-0.02-0.16-0.04-0.25
		c-0.01-0.1-0.01-0.08,0.01,0.07c-0.01-0.06-0.02-0.12-0.02-0.18c-0.03-0.24-0.05-0.47-0.07-0.7c-0.07-0.96-0.05-1.91,0.04-2.87
		c0.12-1.46-1.99-1.88-2.66-0.72c-1.28,2.19-2.62,4.05-4.49,5.78c-0.89,0.83-1.36,1.2-2.35,1.82c-0.39,0.24-0.78,0.47-1.18,0.68
		c-0.18,0.09-0.36,0.18-0.54,0.27c-0.11,0.05-0.22,0.09-0.33,0.15c0.33-0.14-0.14,0.05-0.2,0.07c-0.81,0.31-1.64,0.55-2.49,0.7
		c-0.1,0.02-0.21,0.04-0.33,0.05c-0.36,0.07,0.32-0.02-0.05,0.01c-0.22,0.02-0.43,0.04-0.64,0.06c-0.43,0.03-0.85,0.04-1.28,0.02
		c-0.39-0.02-0.77-0.05-1.15-0.09c-0.36-0.03,0.32,0.06-0.04-0.01c-0.1-0.02-0.2-0.03-0.31-0.05c-0.21-0.03-0.41-0.08-0.61-0.13
		c-0.37-0.09-0.74-0.18-1.1-0.3c-0.2-0.06-0.4-0.13-0.59-0.2c-0.12-0.05-0.78-0.32-0.43-0.17c-0.73-0.33-1.43-0.69-2.11-1.12
		c-0.32-0.21-0.64-0.43-0.94-0.65c-0.05-0.04-0.33-0.27-0.04-0.03c-0.08-0.07-0.17-0.13-0.25-0.2c-0.16-0.13-0.32-0.26-0.48-0.4
		c-0.63-0.56-1.21-1.16-1.74-1.8c-0.06-0.07-0.4-0.51-0.16-0.2c-0.12-0.16-0.25-0.34-0.37-0.51c-0.24-0.34-0.47-0.69-0.68-1.05
		c-0.2-0.33-0.38-0.67-0.55-1.01c-0.1-0.18-0.18-0.38-0.27-0.57c-0.03-0.07-0.16-0.4-0.02-0.04c-0.04-0.11-0.09-0.23-0.14-0.34
		c-0.3-0.76-0.53-1.55-0.7-2.34c-0.04-0.21-0.08-0.41-0.12-0.62c-0.01-0.07-0.02-0.14-0.03-0.21c-0.06-0.35,0.02,0.33-0.01-0.03
		c-0.04-0.42-0.08-0.84-0.08-1.26c-0.01-0.42,0-0.85,0.03-1.27c0.01-0.17,0.03-0.35,0.05-0.53c0.01-0.08,0.07-0.43,0.01-0.04
		c0.02-0.14,0.05-0.29,0.07-0.43c0.17-0.94,0.45-1.87,0.81-2.76c-0.13,0.31,0.13-0.28,0.18-0.39c0.12-0.24,0.25-0.48,0.38-0.73
		c0.26-0.46,0.54-0.9,0.84-1.33c0.07-0.1,0.14-0.2,0.22-0.3c0.1-0.13,0.1-0.14,0-0.01c0.05-0.06,0.11-0.13,0.16-0.2
		c0.16-0.2,0.33-0.4,0.5-0.59c0.39-0.43,0.8-0.86,1.22-1.25c1.02-0.95,1.82-1.54,3.02-2.3c1.18-0.75,0.73-2.66-0.72-2.67
		c-0.63,0-1.26-0.02-1.88-0.06c-0.29-0.02-0.58-0.05-0.87-0.08c-0.15-0.01-0.3-0.03-0.46-0.05c-0.17-0.02,0.04,0.01,0.06,0.01
		c-0.08-0.01-0.17-0.03-0.25-0.03c-1.09-0.17-2.17-0.41-3.22-0.75c-0.23-0.08-0.47-0.15-0.69-0.24c-0.12-0.05-0.24-0.09-0.36-0.14
		c-0.11-0.04-0.38-0.16-0.12-0.04c-0.43-0.2-0.87-0.4-1.29-0.63c-0.42-0.23-0.83-0.48-1.22-0.74c-0.18-0.12-0.36-0.24-0.53-0.37
		c-0.13-0.09-0.21-0.16-0.02-0.02c-0.1-0.08-0.21-0.16-0.31-0.25c-0.66-0.55-1.26-1.15-1.8-1.81c-0.07-0.09-0.14-0.17-0.2-0.25
		c-0.05-0.07,0.17,0.23,0-0.01c-0.13-0.18-0.26-0.37-0.4-0.56c-0.23-0.34-0.43-0.69-0.63-1.05c-0.19-0.35-0.36-0.72-0.53-1.09
		c0.17,0.38-0.06-0.14-0.11-0.28c-0.08-0.2-0.14-0.39-0.2-0.59c-0.25-0.78-0.42-1.57-0.56-2.38c-0.05-0.27,0.03,0.3,0.01,0.03
		c-0.01-0.11-0.02-0.21-0.04-0.31c-0.02-0.21-0.04-0.41-0.05-0.62c-0.02-0.4-0.03-0.8-0.02-1.19c0.01-0.4,0.03-0.8,0.07-1.19
		c0.02-0.15,0.11-0.71,0.03-0.28c0.04-0.21,0.06-0.4,0.1-0.61c0.14-0.8,0.35-1.58,0.62-2.34c0.06-0.18,0.13-0.36,0.2-0.54
		c0.03-0.08,0.07-0.17,0.1-0.25c-0.16,0.4-0.01,0.03,0.03-0.07c0.16-0.36,0.34-0.72,0.53-1.07c0.2-0.36,0.41-0.71,0.64-1.06
		c0.1-0.16,0.21-0.32,0.33-0.47c0.05-0.07,0.11-0.14,0.16-0.22c0.11-0.16-0.18,0.22,0.05-0.06c0.51-0.62,1.06-1.2,1.67-1.73
		c0.15-0.13,0.3-0.25,0.45-0.37c0.27-0.22-0.18,0.12,0.03-0.03c0.08-0.06,0.17-0.13,0.26-0.19c0.35-0.24,0.71-0.48,1.08-0.69
		c0.36-0.21,0.74-0.4,1.12-0.57c0.09-0.04,0.17-0.07,0.26-0.11c-0.37,0.16-0.04,0.02,0.05-0.02c0.21-0.08,0.42-0.16,0.63-0.23
		c0.42-0.14,0.84-0.26,1.27-0.36c0.21-0.05,0.43-0.1,0.64-0.14c0.11-0.02,0.23-0.04,0.35-0.06c0.1-0.01,0.53-0.07,0.13-0.02
		c0.97-0.12,1.94-0.16,2.92-0.11c0.25,0.02,0.5,0.03,0.75,0.05c0.13,0.02,0.27,0.03,0.41,0.04c0.06,0.01,0.12,0.02,0.18,0.02
		c0.21,0.03-0.25-0.03-0.02,0c0.55,0.08,1.09,0.18,1.63,0.3c1.2,0.27,2.38,0.64,3.53,1.08c0.14,0.05,0.27,0.1,0.4,0.16
		c0.05,0.02,0.44,0.18,0.27,0.11c0.32,0.14,0.64,0.28,0.96,0.43c0.7,0.33,1.54,0.2,1.96-0.51
		C299.84,597.33,299.67,596.31,298.97,595.99z"/>
	<path class="st1" d="M317.22,624.26c-0.39-0.57-0.75-1.15-1.05-1.77c-0.07-0.13-0.12-0.26-0.18-0.39
		c-0.11-0.24-0.01-0.04,0.01,0.01c-0.03-0.07-0.06-0.14-0.08-0.22c-0.11-0.29-0.21-0.57-0.29-0.87c-0.07-0.26-0.14-0.53-0.18-0.79
		c-0.02-0.15-0.05-0.38-0.02-0.09c-0.02-0.15-0.04-0.3-0.05-0.46c-0.02-0.25-0.02-0.5-0.02-0.74c0.01-0.12,0.01-0.23,0.02-0.34
		c0.01-0.1,0.08-0.58,0.01-0.14c0.08-0.48,0.19-0.94,0.35-1.39c0.04-0.1,0.08-0.2,0.12-0.3c-0.11,0.29-0.03,0.07,0.04-0.08
		c0.11-0.22,0.22-0.43,0.35-0.64c0.11-0.18,0.23-0.36,0.35-0.53c0.21-0.32-0.11,0.1,0.05-0.07c0.08-0.09,0.15-0.19,0.23-0.28
		c0.33-0.37,0.69-0.68,1.06-1.01c0.19-0.16-0.25,0.17,0.04-0.03c0.09-0.06,0.18-0.12,0.27-0.19c0.21-0.14,0.41-0.27,0.63-0.4
		c0.2-0.11,0.41-0.22,0.62-0.33c0.1-0.05,0.2-0.09,0.3-0.14c0.36-0.17-0.18,0.05,0.14-0.06c0.46-0.16,0.91-0.32,1.39-0.44
		c0.23-0.05,0.46-0.1,0.69-0.14c0.2-0.03,0.3-0.04,0.04-0.01c0.14-0.01,0.28-0.03,0.42-0.04c0.49-0.04,0.97-0.04,1.46-0.02
		c0.11,0.01,0.22,0.02,0.33,0.03c0.07,0.01,0.12,0.02,0.18,0.02c0.2,0.02-0.29-0.05-0.1-0.02c0.25,0.04,0.5,0.08,0.74,0.15
		c0.23,0.05,0.46,0.12,0.68,0.19c0.11,0.04,0.21,0.07,0.32,0.11c0.06,0.02,0.12,0.04,0.17,0.07c0.18,0.07-0.32-0.16-0.04-0.02
		c0.44,0.21,0.86,0.43,1.27,0.7c0.07,0.04,0.41,0.3,0.26,0.18c-0.15-0.11,0.18,0.15,0.24,0.2c0.22,0.19,0.43,0.39,0.63,0.6
		c0.11,0.12,0.21,0.23,0.32,0.35c0.08,0.1,0.29,0.38,0.11,0.13c0.2,0.27,0.38,0.54,0.55,0.83c0.17,0.28,0.32,0.58,0.46,0.87
		c0.04,0.07,0.07,0.15,0.1,0.22c0.1,0.21-0.12-0.32,0.02,0.05c0.06,0.16,0.12,0.31,0.18,0.47c0.27,0.77,0.46,1.56,0.6,2.36
		c0.13,0.76,1.07,1.19,1.76,1c0.82-0.23,1.12-0.99,1-1.76c-0.23-1.47-0.33-3.42-0.14-5.12c0.01-0.11,0.02-0.21,0.03-0.32
		c0,0.06-0.04,0.29,0,0.01c0.03-0.18,0.06-0.36,0.09-0.55c0.07-0.37,0.15-0.74,0.24-1.1c0.09-0.33,0.19-0.65,0.3-0.97
		c0.05-0.15,0.11-0.31,0.17-0.46c0.03-0.08,0.14-0.31,0-0.01c0.05-0.09,0.09-0.2,0.13-0.29c0.26-0.56,0.56-1.09,0.91-1.6
		c0.09-0.14,0.19-0.27,0.29-0.4c-0.18,0.25-0.01,0.03,0.08-0.09c0.2-0.24,0.42-0.48,0.64-0.7c0.2-0.2,0.4-0.38,0.62-0.56
		c0.13-0.1,0.32-0.23,0.07-0.06c0.14-0.09,0.26-0.19,0.4-0.28c0.46-0.31,0.94-0.55,1.44-0.79c0.28-0.13-0.24,0.1-0.06,0.02
		c0.07-0.02,0.14-0.05,0.21-0.08c0.11-0.04,0.22-0.08,0.33-0.11c0.27-0.09,0.56-0.17,0.84-0.24c0.25-0.06,0.51-0.1,0.77-0.15
		c-0.3,0.05-0.14,0.02,0.05,0c0.15-0.01,0.32-0.02,0.48-0.03c0.54-0.03,1.06,0.02,1.6,0.06c-0.46-0.03-0.02,0,0.09,0.02
		c0.13,0.02,0.26,0.05,0.39,0.08c0.29,0.06,0.57,0.14,0.85,0.22c0.24,0.08,0.47,0.17,0.71,0.26c0.19,0.07-0.33-0.15-0.05-0.03
		c0.05,0.03,0.11,0.05,0.16,0.08c0.14,0.07,0.27,0.13,0.4,0.2c0.24,0.12,0.48,0.26,0.71,0.41c0.13,0.08,0.26,0.17,0.38,0.25
		c0.09,0.07,0.48,0.37,0.15,0.11c0.46,0.37,0.89,0.76,1.28,1.2c0.1,0.11,0.2,0.22,0.29,0.33c0.04,0.05,0.08,0.1,0.12,0.15
		c0.22,0.25-0.13-0.19-0.01-0.01c0.19,0.26,0.37,0.52,0.54,0.79c0.2,0.31,0.37,0.63,0.54,0.96c0.09,0.17,0.17,0.35,0.25,0.54
		c0.03,0.06,0.1,0.25-0.01-0.04c0.04,0.11,0.08,0.21,0.12,0.31c0.29,0.77,0.51,1.56,0.67,2.37c0.04,0.2,0.08,0.41,0.11,0.62
		c0.01,0.09,0.02,0.16,0.04,0.25c-0.05-0.32,0,0.07,0.01,0.13c0.06,0.49,0.09,0.98,0.1,1.47c0.03,1.03-0.02,2.05-0.14,3.08
		c-0.15,1.37,2.12,2.01,2.67,0.72c0.23-0.54,0.49-1.07,0.79-1.57c0.14-0.24,0.29-0.47,0.45-0.7c0.08-0.11,0.15-0.22,0.24-0.32
		c-0.15,0.19,0.07-0.08,0.11-0.12c0.33-0.39,0.68-0.75,1.06-1.07c0.09-0.08,0.18-0.16,0.28-0.23c-0.26,0.21,0.05-0.04,0.1-0.07
		c0.2-0.14,0.39-0.27,0.59-0.39c0.2-0.12,0.4-0.23,0.61-0.33c0.1-0.05,0.21-0.1,0.31-0.15c0.34-0.16-0.27,0.09,0.08-0.03
		c0.43-0.14,0.85-0.29,1.29-0.39c0.22-0.05,0.44-0.09,0.66-0.12c-0.39,0.05,0.28-0.02,0.39-0.02c0.44-0.03,0.89-0.02,1.33,0.02
		c0.11,0.01,0.22,0.02,0.33,0.03c0.37,0.03-0.31-0.07,0.05,0.01c0.21,0.04,0.44,0.08,0.65,0.13c0.43,0.1,0.85,0.23,1.26,0.38
		c0.11,0.04,0.21,0.08,0.3,0.12c-0.34-0.14,0.01,0.01,0.06,0.03c0.2,0.1,0.4,0.19,0.59,0.3c0.39,0.21,0.74,0.46,1.11,0.7
		c0.3,0.2-0.22-0.2,0.05,0.04c0.08,0.07,0.17,0.14,0.25,0.21c0.16,0.14,0.33,0.29,0.48,0.44c0.13,0.13,0.26,0.26,0.38,0.4
		c0.07,0.08,0.14,0.16,0.21,0.24c0.26,0.3-0.01-0.06,0.11,0.14c0.22,0.34,0.45,0.66,0.64,1.02c0.11,0.2,0.2,0.4,0.29,0.6
		c-0.15-0.34,0,0.02,0.02,0.07c0.05,0.14,0.1,0.28,0.14,0.43c0.08,0.26,0.14,0.51,0.2,0.77c0.02,0.07,0.03,0.15,0.04,0.22
		c0.01,0.08,0.02,0.15,0.04,0.23c-0.02-0.19-0.02-0.2-0.01-0.03c0.03,0.57,0.06,1.13,0.01,1.7c-0.01,0.05-0.05,0.46-0.01,0.12
		c-0.02,0.13-0.04,0.26-0.07,0.39c-0.05,0.31-0.13,0.62-0.22,0.92c-0.2,0.72-0.37,1.14-0.64,1.7c-0.33,0.7-0.19,1.54,0.51,1.96
		c0.63,0.37,1.62,0.19,1.96-0.51c1.11-2.32,1.65-4.84,1.15-7.39c-0.41-2.07-1.58-4.01-3.16-5.39c-3.31-2.89-8.08-3.68-12.08-1.8
		c-2.48,1.17-4.34,3.41-5.39,5.9c0.89,0.24,1.78,0.48,2.67,0.72c0.39-3.53,0.01-7.22-1.66-10.4c-1.31-2.49-3.45-4.44-6.05-5.49
		c-5.07-2.05-10.88,0.22-13.53,4.92c-2.02,3.58-2.14,7.82-1.53,11.8c0.92-0.26,1.84-0.51,2.76-0.76c-0.47-2.73-1.68-5.48-3.85-7.27
		c-1.89-1.55-4.24-2.38-6.69-2.35c-4.52,0.05-9.25,2.91-10.39,7.48c-0.76,3.05,0.25,6.15,1.98,8.68c0.44,0.64,1.26,0.92,1.96,0.51
		C317.34,625.85,317.66,624.9,317.22,624.26z"/>
	<path class="st0" d="M1357.27,10.88L1357.27,10.88c2.91-1.8,6.52-2.86,9.9-2.72c3.34,0.14,6.39,1.44,8.43,4.29
		c2.24,3.14,2.85,7.14,2.42,11.34c-0.44,4.19-1.89,8.44-3.59,11.86c-4.14,8.33-10.92,15.21-17.91,21.67l-0.06,0.05l-0.05,0.06
		l-3.09,3.51c-0.74,0.48-2.33,1.43-3.91,2.06c-0.86,0.34-1.62,0.55-2.19,0.6c-0.39,0.03-0.54-0.03-0.58-0.05
		c-1.97-2.42-3.96-4.81-5.96-7.18c-4.87-5.82-9.71-11.6-13.96-17.76v0c-4.57-6.6-8.23-14.76-5.23-21.94v0
		c1.22-2.93,4.06-5.33,7.51-6.66c3.45-1.33,7.27-1.5,10.28-0.27v0c4.4,1.79,6.59,5.68,8.66,10.33l1.49,3.32l1.29-3.4
		C1352.2,16.09,1354.17,12.8,1357.27,10.88z M1346.63,63.55C1346.63,63.55,1346.63,63.55,1346.63,63.55
		C1346.63,63.56,1346.63,63.55,1346.63,63.55z"/>
	<path class="st1" d="M718.61,717.47c-4.55-2.11-9.65-3.37-14.64-2.22c-3.82,0.88-7.12,3.24-9.31,6.48c-2.02,3-3,6.76-2.78,10.36
		c0.24,3.83,1.77,7.51,4.49,10.25c3.31,3.32,7.89,4.83,12.48,5.16c0.66,0.05,1.33,0.07,2,0.07c-0.25-0.91-0.49-1.82-0.74-2.73
		c-3.94,2.51-7.33,6.07-8.6,10.66c-1.04,3.76-0.5,7.75,1.21,11.23c3.36,6.85,11.33,11.23,18.87,9.1c5.46-1.54,9.51-5.97,12.28-10.73
		c-0.91-0.25-1.82-0.49-2.73-0.74c-0.3,3.42,0.26,7.01,2.11,9.96c1.62,2.58,4.05,4.46,6.88,5.55c5.33,2.05,11.91,0.85,15.94-3.28
		c2.65-2.71,3.88-6.39,3.97-10.13c-0.98,0-1.96,0-2.93,0c0.34,3.57,1.49,7.04,3.94,9.73c1.94,2.13,4.65,3.59,7.48,4.09
		c5.9,1.05,12.16-1.45,15.42-6.55c2.13-3.33,2.57-7.32,2.01-11.16c-0.89,0.38-1.79,0.76-2.68,1.13
		c4.12,6.42,11.61,12.28,19.67,10.56c2.13-0.46,4.11-1.47,5.83-2.8c1.44-1.1,2.78-2.28,3.81-3.8c1.84-2.73,2.64-6.24,2.43-9.51
		c-0.26-3.88-1.9-7.57-5.17-9.79c-0.12,0.89-0.23,1.79-0.35,2.68c3.66-1.21,6.89-3.42,9.02-6.67c1.81-2.76,2.66-6.14,2.51-9.42
		c-0.31-6.73-4.67-13.07-11.38-14.73c-4.74-1.17-9.62,0.07-13.92,2.18c0.72,0.55,1.44,1.1,2.15,1.65c0.96-4.18,1.22-8.66-0.12-12.8
		c-1.06-3.3-3.07-6.18-5.92-8.18c-5.43-3.83-12.95-3.37-18.3,0.35c-3.78,2.62-6.36,6.46-7.97,10.72c0.96,0.13,1.92,0.26,2.88,0.39
		c0.45-5.4-1.7-11.22-6.82-13.68c-4.34-2.09-9.7-1.26-12.78,2.6c-2.19,2.73-2.97,6.23-2.98,9.68c0.96-0.13,1.92-0.26,2.88-0.39
		c-0.86-4.15-2.72-8.26-5.95-11.1c-2.71-2.38-6.1-3.73-9.69-3.95c-6.58-0.42-13.73,3.14-16.55,9.26c-1.79,3.89-1.68,8.24-0.11,12.18
		c0.29,0.73,0.98,1.25,1.8,1.02c0.7-0.19,1.32-1.06,1.02-1.8c-0.35-0.89-0.65-1.8-0.85-2.74c-0.04-0.19-0.08-0.39-0.11-0.58
		c-0.02-0.11-0.04-0.23-0.06-0.34c-0.07-0.39,0.03,0.32-0.01-0.06c-0.04-0.4-0.08-0.82-0.09-1.22c-0.02-0.39-0.01-0.79,0.02-1.19
		c0.01-0.17,0.03-0.35,0.04-0.53c0.01-0.1,0.02-0.21,0.03-0.31c-0.05,0.44,0.01-0.04,0.02-0.12c0.12-0.73,0.31-1.46,0.56-2.16
		c0.06-0.16,0.12-0.31,0.18-0.47c0.12-0.32-0.14,0.3,0.01-0.02c0.04-0.09,0.08-0.18,0.12-0.27c0.16-0.34,0.34-0.68,0.53-1.01
		c0.18-0.3,0.36-0.59,0.55-0.87c0.11-0.16,0.23-0.32,0.35-0.48c-0.24,0.32,0.12-0.14,0.2-0.24c0.47-0.55,0.98-1.07,1.52-1.55
		c0.15-0.13,0.3-0.26,0.46-0.39c0.05-0.04,0.1-0.08,0.15-0.12c0.27-0.22-0.27,0.18,0.02-0.02c0.33-0.23,0.65-0.47,0.98-0.68
		c0.62-0.4,1.27-0.75,1.94-1.06c0.09-0.04,0.18-0.08,0.28-0.12c0.31-0.14-0.23,0.09-0.03,0.01c0.17-0.07,0.34-0.14,0.52-0.21
		c0.38-0.14,0.77-0.27,1.15-0.39c0.71-0.21,1.44-0.37,2.18-0.49c0.1-0.02,0.2-0.03,0.3-0.05c-0.38,0.05-0.17,0.02-0.09,0.02
		c0.2-0.02,0.41-0.05,0.61-0.06c0.37-0.03,0.74-0.05,1.12-0.05c0.37,0,0.75,0.01,1.12,0.03c0.18,0.01,0.37,0.03,0.56,0.04
		c0.12,0.01,0.82,0.11,0.37,0.04c0.74,0.12,1.48,0.27,2.2,0.49c0.36,0.11,0.72,0.24,1.07,0.38c0.1,0.04,0.2,0.08,0.29,0.12
		c-0.32-0.13-0.13-0.06-0.06-0.03c0.22,0.11,0.44,0.21,0.66,0.31c0.7,0.35,1.36,0.77,1.99,1.23c0.06,0.04,0.34,0.27,0.05,0.04
		c0.09,0.07,0.17,0.14,0.26,0.2c0.2,0.17,0.4,0.33,0.59,0.51c0.33,0.31,0.65,0.63,0.96,0.96c0.17,0.18,0.33,0.37,0.49,0.57
		c0.06,0.08,0.12,0.15,0.18,0.23c-0.23-0.28,0.09,0.12,0.13,0.18c0.29,0.39,0.56,0.81,0.81,1.22c0.29,0.48,0.55,0.96,0.79,1.46
		c0.29,0.61,0.31,0.66,0.54,1.26c0.45,1.2,0.79,2.43,1.05,3.69c0.34,1.64,2.88,1.23,2.88-0.39c0.01-0.78,0.04-1.56,0.13-2.33
		c0.04-0.3,0.02-0.11,0.01-0.05c0.02-0.09,0.03-0.19,0.05-0.28c0.03-0.16,0.06-0.32,0.09-0.48c0.07-0.33,0.14-0.66,0.23-0.99
		c0.08-0.31,0.18-0.62,0.28-0.93c0.05-0.14,0.1-0.27,0.15-0.41c0.03-0.08,0.06-0.15,0.09-0.23c-0.05,0.12-0.07,0.15-0.01,0.02
		c0.26-0.54,0.52-1.07,0.86-1.57c0.07-0.11,0.14-0.21,0.22-0.32c0.04-0.06,0.09-0.12,0.13-0.17c-0.01,0.01-0.17,0.21-0.06,0.08
		c0.18-0.22,0.36-0.43,0.55-0.63c0.17-0.17,0.34-0.34,0.52-0.5c0.09-0.08,0.18-0.15,0.27-0.23c0.19-0.17-0.03,0.02-0.06,0.04
		c0.07-0.05,0.13-0.1,0.2-0.15c0.4-0.28,0.82-0.53,1.26-0.74c0.1-0.05,0.21-0.09,0.31-0.14c-0.39,0.18,0.01,0,0.09-0.03
		c0.23-0.08,0.45-0.15,0.68-0.22c0.23-0.06,0.46-0.12,0.69-0.16c0.11-0.02,0.22-0.04,0.33-0.06c0.17-0.03-0.16,0.02-0.15,0.02
		c0.08-0.01,0.16-0.02,0.24-0.03c0.48-0.04,0.95-0.05,1.43-0.02c0.13,0.01,0.25,0.03,0.38,0.03c0.34,0.02-0.23-0.05,0.04,0
		c0.25,0.05,0.5,0.09,0.76,0.14c0.48,0.11,0.93,0.27,1.39,0.44c0.25,0.09-0.27-0.13,0.06,0.02c0.1,0.05,0.21,0.1,0.31,0.15
		c0.24,0.12,0.47,0.25,0.7,0.38c0.2,0.12,0.4,0.25,0.59,0.38c0.11,0.08,0.22,0.16,0.33,0.24c-0.26-0.19-0.01-0.01,0.1,0.09
		c0.4,0.33,0.77,0.7,1.12,1.09c0.08,0.09,0.16,0.19,0.24,0.28c0.09,0.11,0.24,0.31,0.07,0.08c0.17,0.24,0.34,0.47,0.5,0.72
		c0.17,0.27,0.33,0.54,0.47,0.83c0.07,0.13,0.14,0.27,0.21,0.41c0.04,0.09,0.23,0.55,0.11,0.24c0.25,0.64,0.46,1.29,0.62,1.97
		c0.08,0.33,0.13,0.67,0.19,1.01c0.01,0.06,0.05,0.29,0,0c0.01,0.11,0.03,0.22,0.04,0.33c0.01,0.18,0.03,0.36,0.04,0.54
		c0.05,0.84,0.03,1.68-0.04,2.52c-0.06,0.72,0.6,1.36,1.27,1.44c0.77,0.09,1.35-0.35,1.61-1.05c0.6-1.6,1.53-3.43,2.65-5
		c0.13-0.18,0.26-0.36,0.4-0.54c-0.17,0.23,0.17-0.21,0.22-0.27c0.29-0.35,0.58-0.68,0.89-1.01c0.57-0.6,1.17-1.15,1.81-1.67
		c0.04-0.03,0.36-0.28,0.08-0.07c0.06-0.05,0.13-0.1,0.19-0.14c0.16-0.11,0.32-0.23,0.48-0.34c0.34-0.23,0.68-0.45,1.03-0.65
		c0.31-0.18,0.63-0.35,0.96-0.51c0.17-0.08,0.34-0.16,0.51-0.24c0.09-0.04,0.17-0.08,0.26-0.11c0.1-0.04,0.07-0.03-0.09,0.04
		c0.07-0.03,0.14-0.06,0.21-0.08c0.69-0.26,1.38-0.49,2.09-0.66c0.33-0.08,0.67-0.14,1-0.2c0.09-0.01,0.17-0.03,0.27-0.04
		c0.35-0.06-0.25,0.03-0.02,0c0.2-0.02,0.39-0.05,0.58-0.06c0.7-0.06,1.4-0.07,2.1-0.03c0.17,0.01,0.35,0.03,0.52,0.04
		c0.1,0.01,0.66,0.09,0.23,0.02c0.36,0.06,0.71,0.12,1.07,0.19c0.69,0.15,1.36,0.36,2.02,0.62c0.06,0.03,0.13,0.05,0.19,0.08
		c0.33,0.13-0.29-0.14,0.03,0.02c0.14,0.07,0.28,0.13,0.42,0.2c0.32,0.16,0.64,0.33,0.95,0.51c0.3,0.17,0.59,0.36,0.87,0.56
		c0.13,0.09,0.25,0.18,0.38,0.28c0.18,0.13-0.27-0.23-0.01-0.01c0.08,0.07,0.16,0.13,0.24,0.2c0.56,0.47,1.08,0.98,1.55,1.53
		c0.11,0.12,0.21,0.25,0.31,0.38c0.24,0.28-0.18-0.25,0.04,0.05c0.04,0.06,0.09,0.12,0.13,0.17c0.24,0.33,0.46,0.67,0.67,1.02
		c0.17,0.29,0.34,0.59,0.5,0.89c0.09,0.17,0.17,0.34,0.25,0.52c0.05,0.11,0.1,0.22,0.14,0.32c-0.1-0.23-0.02-0.04,0.04,0.09
		c0.34,0.86,0.6,1.74,0.8,2.65c0.05,0.23,0.1,0.46,0.14,0.7c0.02,0.13,0.05,0.26,0.06,0.39c0.01,0.07,0.06,0.46,0.02,0.14
		c0.06,0.5,0.11,1,0.13,1.5c0.06,1.13,0.03,2.26-0.08,3.39c-0.11,1.14-0.3,2.23-0.59,3.5c-0.3,1.29,1,2.22,2.15,1.65
		c1.81-0.89,3.8-1.62,5.92-2c0.22-0.04,0.44-0.08,0.66-0.11c-0.32,0.05,0.31-0.04,0.39-0.04c0.46-0.05,0.92-0.07,1.38-0.08
		c0.4-0.01,0.81,0.01,1.21,0.03c0.2,0.01,0.39,0.03,0.59,0.05c0.11,0.01,0.23,0.02,0.34,0.04c-0.37-0.05-0.02,0,0.07,0.02
		c0.8,0.14,1.59,0.33,2.36,0.6c0.17,0.06,0.33,0.13,0.5,0.19c0.07,0.03,0.26,0.11-0.06-0.02c0.1,0.04,0.2,0.09,0.29,0.13
		c0.35,0.16,0.69,0.34,1.02,0.53c0.3,0.17,0.59,0.35,0.87,0.55c0.14,0.1,0.28,0.2,0.42,0.3c0.29,0.21-0.24-0.2,0.03,0.02
		c0.08,0.07,0.16,0.13,0.24,0.2c0.54,0.46,1.05,0.96,1.51,1.5c0.12,0.14,0.24,0.29,0.35,0.43c0.06,0.07,0.2,0.27-0.01-0.02
		c0.05,0.07,0.1,0.13,0.15,0.21c0.23,0.32,0.44,0.64,0.65,0.97c0.37,0.61,0.69,1.24,0.98,1.9c-0.17-0.39,0.05,0.12,0.08,0.22
		c0.06,0.16,0.12,0.32,0.17,0.48c0.12,0.35,0.23,0.71,0.32,1.07c0.09,0.33,0.16,0.66,0.23,1c0.03,0.17,0.06,0.33,0.09,0.5
		c0.02,0.1,0.03,0.2,0.05,0.3c-0.06-0.41-0.01-0.08,0,0.02c0.08,0.73,0.12,1.46,0.1,2.2c-0.01,0.36-0.03,0.72-0.07,1.08
		c-0.01,0.11-0.09,0.67-0.02,0.23c-0.03,0.21-0.06,0.41-0.1,0.61c-0.13,0.71-0.31,1.42-0.54,2.1c-0.06,0.16-0.11,0.33-0.17,0.49
		c-0.04,0.09-0.26,0.6-0.09,0.23c-0.16,0.35-0.32,0.7-0.5,1.04c-0.2,0.37-0.42,0.74-0.65,1.09c-0.12,0.18-0.24,0.35-0.36,0.53
		c-0.04,0.06-0.26,0.34-0.03,0.05c-0.07,0.09-0.13,0.17-0.21,0.26c-0.57,0.69-1.2,1.33-1.88,1.89c-0.07,0.06-0.15,0.12-0.22,0.18
		c-0.29,0.24,0.12-0.08-0.11,0.09c-0.19,0.13-0.38,0.28-0.57,0.41c-0.4,0.27-0.82,0.52-1.24,0.76c-0.44,0.24-0.89,0.46-1.36,0.66
		c0.05-0.03,0.26-0.1-0.01,0c-0.14,0.06-0.28,0.11-0.43,0.17c-0.27,0.1-0.54,0.2-0.82,0.29c-1.24,0.41-1.41,1.96-0.35,2.68
		c0.46,0.31,0.94,0.73,1.43,1.27c0.11,0.13,0.23,0.26,0.33,0.39c-0.12-0.16,0.13,0.18,0.16,0.23c0.21,0.3,0.4,0.62,0.57,0.93
		c0.36,0.67,0.47,0.93,0.71,1.69c0.1,0.33,0.2,0.67,0.27,1.02c0.07,0.29,0.16,0.85,0.18,1c0.33,2.65-0.15,5.55-1.44,7.87
		c-0.16,0.3-0.34,0.59-0.53,0.87c-0.09,0.14-0.19,0.28-0.29,0.41c-0.1,0.13-0.01,0.01,0.01-0.02c-0.07,0.09-0.15,0.18-0.23,0.27
		c-0.22,0.25-0.44,0.49-0.68,0.72c-0.12,0.11-0.24,0.22-0.36,0.33c-0.05,0.05-0.11,0.09-0.16,0.13c-0.07,0.05-0.07,0.06-0.02,0.02
		c0.14-0.1,0.05-0.04-0.26,0.2c-1.45,1.21-2.92,2.29-4.74,2.88c-3.15,1.01-6.4,0.43-9.3-1.11c-3.37-1.79-6.18-4.61-8.22-7.79
		c-0.39-0.61-1.15-0.9-1.83-0.6c-0.72,0.32-0.96,0.99-0.85,1.73c0.07,0.46-0.02-0.16,0.02,0.11c0.01,0.09,0.02,0.19,0.03,0.28
		c0.02,0.21,0.04,0.42,0.06,0.63c0.03,0.43,0.05,0.85,0.05,1.28c0,0.37-0.02,0.73-0.04,1.1c-0.01,0.21-0.04,0.42-0.06,0.63
		c-0.01,0.07-0.04,0.29,0.01-0.02c-0.02,0.12-0.04,0.24-0.06,0.36c-0.12,0.7-0.29,1.4-0.51,2.07c-0.06,0.16-0.11,0.32-0.17,0.49
		c-0.03,0.09-0.24,0.56-0.09,0.23c-0.14,0.32-0.3,0.64-0.46,0.95c-0.15,0.27-0.3,0.54-0.47,0.8c-0.1,0.15-0.2,0.3-0.3,0.45
		c-0.06,0.09-0.39,0.52-0.15,0.22c-0.39,0.5-0.82,0.98-1.29,1.41c-0.23,0.22-0.47,0.42-0.71,0.63c-0.32,0.27,0.12-0.08-0.16,0.12
		c-0.14,0.1-0.28,0.21-0.43,0.3c-0.53,0.37-1.09,0.69-1.66,0.97c-0.12,0.06-0.25,0.12-0.37,0.18c-0.08,0.04-0.16,0.07-0.24,0.11
		c-0.18,0.08,0.25-0.1,0.06-0.03c-0.31,0.12-0.61,0.24-0.92,0.34c-0.61,0.2-1.23,0.35-1.85,0.47c-0.15,0.03-0.31,0.05-0.46,0.08
		c-0.23,0.04,0.26-0.03-0.12,0.02c-0.34,0.04-0.68,0.06-1.03,0.08c-0.62,0.03-1.23,0.01-1.85-0.06c-0.08-0.01-0.54-0.07-0.31-0.04
		c0.23,0.03-0.24-0.04-0.31-0.05c-0.32-0.06-0.64-0.12-0.95-0.21c-0.28-0.07-0.56-0.15-0.84-0.25c-0.14-0.05-0.29-0.1-0.44-0.15
		c-0.08-0.03-0.16-0.06-0.24-0.09c-0.28-0.1,0.27,0.13-0.03-0.01c-0.57-0.26-1.11-0.54-1.64-0.88c-0.27-0.17-0.52-0.35-0.77-0.54
		c0.26,0.19-0.02-0.02-0.12-0.1c-0.15-0.12-0.3-0.25-0.44-0.39c-0.28-0.26-0.54-0.53-0.79-0.81c-0.12-0.14-0.24-0.28-0.36-0.42
		c-0.05-0.06-0.09-0.12-0.14-0.17c0.23,0.29-0.01-0.02-0.04-0.06c-0.46-0.65-0.87-1.33-1.21-2.05c-0.04-0.09-0.08-0.18-0.13-0.28
		c-0.12-0.25,0.05,0.12-0.02-0.05c-0.09-0.21-0.17-0.43-0.25-0.64c-0.14-0.41-0.27-0.82-0.39-1.24c-0.12-0.44-0.22-0.88-0.3-1.33
		c-0.12-0.64-0.12-0.66-0.18-1.33c-0.08-0.79-0.62-1.46-1.46-1.46c-0.81,0-1.45,0.67-1.46,1.46c-0.01,0.4-0.03,0.8-0.07,1.2
		c-0.01,0.09-0.01,0.17-0.03,0.26c0-0.01-0.05,0.42-0.02,0.19c0.03-0.23-0.03,0.18-0.03,0.18c-0.02,0.12-0.04,0.25-0.06,0.37
		c-0.13,0.71-0.31,1.41-0.55,2.08c-0.07,0.18-0.13,0.36-0.2,0.54c-0.03,0.07-0.12,0.25,0.01-0.04c-0.03,0.07-0.06,0.14-0.09,0.21
		c-0.16,0.33-0.32,0.66-0.51,0.98c-0.16,0.28-0.33,0.55-0.52,0.83c-0.08,0.12-0.17,0.23-0.25,0.35c-0.15,0.22,0.01-0.01,0.04-0.05
		c-0.07,0.08-0.13,0.16-0.2,0.25c-0.42,0.51-0.89,0.98-1.39,1.41c-0.1,0.09-0.21,0.18-0.32,0.26c-0.26,0.22,0.19-0.14,0.01-0.01
		c-0.07,0.05-0.14,0.1-0.21,0.15c-0.25,0.18-0.5,0.35-0.77,0.51c-0.26,0.16-0.53,0.31-0.8,0.45c-0.15,0.08-0.3,0.15-0.46,0.23
		c-0.1,0.05-0.59,0.25-0.21,0.1c-0.58,0.24-1.18,0.44-1.79,0.59c-0.28,0.07-0.56,0.13-0.85,0.19c-0.17,0.03-0.33,0.06-0.5,0.09
		c-0.4,0.07,0.2-0.01-0.22,0.03c-0.63,0.06-1.26,0.1-1.89,0.09c-0.29-0.01-0.58-0.02-0.87-0.05c-0.17-0.01-0.34-0.04-0.51-0.05
		c-0.08-0.01-0.29-0.04,0.09,0.02c-0.1-0.02-0.2-0.03-0.3-0.05c-0.62-0.1-1.24-0.24-1.84-0.43c-0.28-0.08-0.55-0.17-0.82-0.28
		c-0.08-0.03-0.61-0.25-0.22-0.08c-0.15-0.07-0.31-0.14-0.46-0.21c-0.57-0.27-1.12-0.58-1.64-0.93c-0.13-0.09-0.25-0.17-0.38-0.27
		c-0.34-0.24,0.11,0.1-0.15-0.11c-0.25-0.21-0.5-0.42-0.74-0.65c-0.23-0.22-0.45-0.44-0.65-0.67c-0.09-0.1-0.18-0.21-0.28-0.32
		c-0.06-0.07-0.11-0.14-0.16-0.2c-0.07-0.09,0.16,0.22-0.03-0.04c-0.44-0.61-0.83-1.24-1.15-1.91c-0.04-0.08-0.08-0.17-0.12-0.25
		c-0.02-0.04-0.16-0.39-0.08-0.19c0.09,0.22-0.05-0.13-0.06-0.14c-0.04-0.11-0.08-0.22-0.12-0.32c-0.13-0.37-0.25-0.75-0.35-1.13
		c-0.11-0.42-0.2-0.84-0.27-1.26c-0.01-0.08-0.02-0.16-0.04-0.25c-0.02-0.11-0.02-0.08,0.01,0.07c-0.01-0.06-0.02-0.13-0.03-0.19
		c-0.03-0.24-0.05-0.48-0.07-0.72c-0.07-0.98-0.05-1.96,0.04-2.94c0.13-1.49-2.04-1.93-2.73-0.74c-1.31,2.25-2.69,4.15-4.6,5.92
		c-0.91,0.85-1.4,1.23-2.4,1.86c-0.4,0.25-0.79,0.48-1.21,0.69c-0.18,0.09-0.36,0.18-0.55,0.27c-0.11,0.05-0.22,0.1-0.33,0.15
		c0.33-0.14-0.14,0.06-0.21,0.08c-0.83,0.32-1.68,0.56-2.55,0.71c-0.11,0.02-0.22,0.04-0.33,0.06c-0.38,0.07,0.32-0.03-0.05,0.01
		c-0.22,0.02-0.44,0.05-0.66,0.06c-0.44,0.03-0.87,0.04-1.31,0.02c-0.4-0.02-0.79-0.05-1.18-0.09c-0.37-0.04,0.33,0.06-0.04-0.01
		c-0.1-0.02-0.21-0.04-0.32-0.05c-0.21-0.04-0.42-0.08-0.63-0.13c-0.38-0.09-0.76-0.19-1.13-0.31c-0.21-0.06-0.41-0.13-0.61-0.21
		c-0.12-0.05-0.8-0.33-0.44-0.17c-0.74-0.33-1.47-0.71-2.16-1.15c-0.33-0.21-0.65-0.44-0.96-0.67c-0.06-0.04-0.34-0.27-0.04-0.03
		c-0.08-0.07-0.17-0.13-0.25-0.2c-0.16-0.13-0.33-0.27-0.49-0.42c-0.64-0.57-1.24-1.19-1.78-1.85c-0.06-0.07-0.4-0.52-0.17-0.21
		c-0.13-0.17-0.26-0.34-0.38-0.52c-0.25-0.35-0.48-0.71-0.7-1.08c-0.2-0.34-0.39-0.68-0.57-1.03c-0.1-0.19-0.18-0.39-0.28-0.58
		c-0.03-0.07-0.17-0.41-0.02-0.04c-0.05-0.11-0.09-0.23-0.14-0.35c-0.3-0.78-0.54-1.59-0.71-2.4c-0.04-0.21-0.08-0.42-0.12-0.63
		c-0.01-0.07-0.02-0.14-0.03-0.21c-0.06-0.36,0.03,0.33-0.01-0.04c-0.04-0.43-0.08-0.86-0.09-1.29c-0.01-0.43,0-0.87,0.03-1.3
		c0.02-0.18,0.03-0.36,0.05-0.54c0.01-0.08,0.07-0.45,0.01-0.05c0.03-0.14,0.05-0.29,0.07-0.44c0.17-0.96,0.46-1.91,0.83-2.82
		c-0.13,0.32,0.13-0.29,0.19-0.4c0.12-0.25,0.25-0.5,0.39-0.74c0.26-0.47,0.55-0.92,0.86-1.37c0.07-0.1,0.15-0.21,0.23-0.31
		c0.1-0.13,0.1-0.14,0.01-0.01c0.05-0.07,0.11-0.14,0.16-0.2c0.17-0.21,0.34-0.41,0.51-0.61c0.39-0.45,0.82-0.88,1.25-1.28
		c1.04-0.97,1.86-1.58,3.1-2.36c1.21-0.77,0.75-2.73-0.74-2.73c-0.64,0-1.29-0.02-1.93-0.07c-0.3-0.02-0.59-0.05-0.89-0.08
		c-0.15-0.02-0.31-0.04-0.47-0.05c-0.17-0.02,0.04,0.01,0.06,0.01c-0.09-0.01-0.17-0.03-0.26-0.04c-1.12-0.17-2.23-0.42-3.3-0.77
		c-0.24-0.08-0.48-0.16-0.71-0.25c-0.12-0.05-0.25-0.09-0.37-0.14c-0.11-0.05-0.39-0.16-0.12-0.05c-0.45-0.2-0.89-0.4-1.33-0.64
		c-0.43-0.23-0.85-0.49-1.25-0.76c-0.18-0.12-0.36-0.25-0.54-0.38c-0.13-0.1-0.21-0.16-0.03-0.02c-0.1-0.08-0.21-0.16-0.31-0.25
		c-0.67-0.56-1.29-1.18-1.85-1.85c-0.07-0.09-0.14-0.17-0.21-0.26c-0.06-0.07,0.17,0.24,0-0.01c-0.13-0.19-0.27-0.38-0.4-0.57
		c-0.23-0.35-0.45-0.71-0.65-1.07c-0.2-0.36-0.37-0.74-0.54-1.12c0.17,0.39-0.06-0.14-0.11-0.29c-0.08-0.2-0.14-0.4-0.21-0.6
		c-0.26-0.8-0.43-1.61-0.57-2.43c-0.05-0.27,0.03,0.3,0.01,0.03c-0.01-0.11-0.03-0.21-0.04-0.31c-0.02-0.21-0.04-0.42-0.05-0.63
		c-0.03-0.41-0.03-0.82-0.03-1.22c0.01-0.41,0.03-0.82,0.07-1.22c0.02-0.15,0.11-0.73,0.03-0.29c0.04-0.21,0.06-0.41,0.1-0.63
		c0.15-0.82,0.36-1.62,0.64-2.4c0.07-0.18,0.13-0.37,0.21-0.55c0.03-0.08,0.07-0.17,0.1-0.25c-0.16,0.41-0.01,0.03,0.03-0.07
		c0.17-0.37,0.35-0.73,0.54-1.09c0.21-0.37,0.42-0.73,0.66-1.08c0.11-0.16,0.22-0.32,0.34-0.48c0.05-0.07,0.11-0.14,0.17-0.22
		c0.12-0.16-0.18,0.22,0.05-0.06c0.52-0.64,1.08-1.23,1.71-1.77c0.15-0.13,0.31-0.26,0.46-0.38c0.28-0.23-0.18,0.12,0.03-0.03
		c0.09-0.06,0.17-0.13,0.26-0.19c0.35-0.25,0.72-0.49,1.1-0.7c0.37-0.22,0.76-0.41,1.15-0.58c0.09-0.04,0.17-0.08,0.27-0.12
		c-0.38,0.16-0.04,0.01,0.06-0.02c0.22-0.08,0.43-0.16,0.65-0.24c0.43-0.14,0.86-0.27,1.3-0.37c0.21-0.05,0.44-0.1,0.65-0.14
		c0.12-0.02,0.24-0.04,0.36-0.06c0.1-0.02,0.54-0.07,0.13-0.02c1-0.12,1.99-0.16,2.99-0.11c0.26,0.02,0.51,0.03,0.76,0.06
		c0.14,0.02,0.28,0.03,0.42,0.04c0.06,0.01,0.12,0.02,0.18,0.02c0.22,0.03-0.25-0.04-0.03-0.01c0.57,0.08,1.12,0.18,1.67,0.31
		c1.23,0.28,2.44,0.65,3.62,1.11c0.14,0.05,0.28,0.11,0.41,0.16c0.05,0.02,0.45,0.18,0.27,0.11c0.33,0.14,0.66,0.29,0.99,0.44
		c0.72,0.33,1.58,0.2,2.01-0.52C719.51,718.84,719.33,717.8,718.61,717.47z"/>
	<path class="st1" d="M737.31,746.43c-0.4-0.58-0.77-1.18-1.07-1.81c-0.07-0.13-0.12-0.27-0.18-0.4c-0.12-0.25-0.02-0.04,0.01,0.01
		c-0.03-0.08-0.06-0.15-0.09-0.23c-0.11-0.29-0.21-0.59-0.29-0.89c-0.07-0.27-0.14-0.54-0.18-0.81c-0.03-0.15-0.06-0.39-0.02-0.09
		c-0.02-0.15-0.04-0.31-0.05-0.47c-0.02-0.25-0.02-0.51-0.02-0.76c0.01-0.12,0.01-0.23,0.02-0.35c0.01-0.1,0.09-0.59,0.01-0.14
		c0.09-0.49,0.19-0.96,0.36-1.43c0.04-0.1,0.08-0.2,0.12-0.3c-0.11,0.3-0.03,0.07,0.04-0.08c0.11-0.22,0.23-0.44,0.35-0.65
		c0.11-0.18,0.24-0.36,0.36-0.54c0.22-0.32-0.11,0.11,0.05-0.07c0.08-0.09,0.16-0.19,0.24-0.28c0.33-0.38,0.71-0.7,1.08-1.03
		c0.19-0.17-0.26,0.17,0.04-0.03c0.09-0.06,0.18-0.13,0.27-0.19c0.21-0.14,0.42-0.28,0.64-0.41c0.2-0.12,0.42-0.23,0.63-0.34
		c0.1-0.05,0.2-0.1,0.3-0.14c0.37-0.17-0.18,0.06,0.14-0.06c0.47-0.16,0.93-0.33,1.42-0.45c0.24-0.06,0.47-0.1,0.71-0.14
		c0.2-0.04,0.31-0.04,0.04-0.01c0.14-0.02,0.29-0.03,0.43-0.05c0.5-0.04,1-0.05,1.49-0.02c0.11,0.01,0.23,0.02,0.34,0.03
		c0.07,0.01,0.13,0.02,0.19,0.02c0.2,0.02-0.3-0.05-0.1-0.02c0.25,0.05,0.51,0.09,0.76,0.15c0.24,0.06,0.47,0.12,0.7,0.2
		c0.11,0.04,0.22,0.07,0.32,0.11c0.06,0.02,0.12,0.05,0.18,0.07c0.18,0.07-0.33-0.16-0.04-0.02c0.45,0.22,0.88,0.44,1.3,0.72
		c0.07,0.04,0.42,0.3,0.26,0.18c-0.15-0.11,0.19,0.15,0.25,0.21c0.23,0.2,0.44,0.4,0.64,0.62c0.11,0.12,0.22,0.24,0.32,0.36
		c0.08,0.1,0.29,0.39,0.11,0.13c0.2,0.28,0.39,0.55,0.57,0.85c0.17,0.29,0.33,0.59,0.47,0.89c0.04,0.07,0.07,0.15,0.1,0.22
		c0.1,0.21-0.12-0.32,0.03,0.05c0.06,0.16,0.12,0.32,0.18,0.48c0.28,0.79,0.47,1.6,0.62,2.42c0.13,0.78,1.09,1.22,1.8,1.02
		c0.84-0.23,1.14-1.02,1.02-1.8c-0.24-1.5-0.33-3.51-0.15-5.25c0.01-0.11,0.03-0.22,0.04-0.32c-0.01,0.06-0.05,0.29,0,0.01
		c0.03-0.18,0.06-0.38,0.09-0.56c0.07-0.38,0.15-0.75,0.25-1.12c0.09-0.34,0.2-0.67,0.31-1c0.06-0.16,0.12-0.32,0.18-0.47
		c0.03-0.08,0.14-0.32,0-0.01c0.05-0.1,0.09-0.2,0.13-0.3c0.27-0.57,0.58-1.12,0.93-1.64c0.09-0.14,0.2-0.27,0.29-0.41
		c-0.19,0.26-0.02,0.03,0.08-0.09c0.2-0.25,0.43-0.49,0.66-0.71c0.2-0.2,0.41-0.39,0.63-0.57c0.13-0.11,0.33-0.24,0.07-0.06
		c0.14-0.1,0.27-0.2,0.42-0.29c0.47-0.31,0.96-0.57,1.47-0.81c0.28-0.13-0.25,0.1-0.06,0.03c0.07-0.03,0.14-0.06,0.21-0.08
		c0.11-0.04,0.23-0.08,0.34-0.12c0.28-0.09,0.57-0.17,0.86-0.24c0.26-0.06,0.52-0.1,0.78-0.15c-0.31,0.05-0.15,0.02,0.05,0
		c0.16-0.01,0.32-0.03,0.49-0.04c0.55-0.03,1.09,0.03,1.64,0.06c-0.47-0.03-0.03,0,0.09,0.02c0.13,0.03,0.26,0.05,0.39,0.08
		c0.29,0.06,0.58,0.14,0.87,0.23c0.25,0.08,0.48,0.17,0.72,0.26c0.2,0.07-0.34-0.16-0.06-0.03c0.06,0.03,0.11,0.05,0.16,0.08
		c0.14,0.07,0.28,0.13,0.41,0.2c0.25,0.13,0.49,0.27,0.72,0.42c0.13,0.08,0.26,0.17,0.39,0.26c0.09,0.07,0.49,0.37,0.16,0.11
		c0.47,0.38,0.91,0.78,1.31,1.23c0.1,0.11,0.2,0.23,0.29,0.34c0.04,0.05,0.08,0.1,0.13,0.15c0.22,0.26-0.14-0.19-0.01-0.01
		c0.2,0.27,0.38,0.53,0.56,0.81c0.2,0.32,0.38,0.65,0.55,0.98c0.09,0.18,0.17,0.36,0.26,0.55c0.03,0.06,0.1,0.26-0.02-0.04
		c0.04,0.11,0.09,0.21,0.13,0.32c0.3,0.79,0.52,1.6,0.69,2.43c0.04,0.21,0.08,0.42,0.11,0.63c0.02,0.09,0.03,0.17,0.04,0.26
		c-0.05-0.33,0,0.07,0.01,0.13c0.06,0.5,0.09,1.01,0.1,1.51c0.03,1.05-0.03,2.1-0.14,3.15c-0.15,1.41,2.17,2.06,2.73,0.74
		c0.24-0.55,0.5-1.09,0.81-1.61c0.14-0.24,0.3-0.48,0.46-0.71c0.08-0.11,0.16-0.23,0.24-0.33c-0.15,0.2,0.07-0.08,0.11-0.12
		c0.33-0.4,0.69-0.77,1.08-1.1c0.09-0.08,0.19-0.16,0.29-0.24c-0.26,0.21,0.06-0.04,0.1-0.07c0.2-0.14,0.4-0.27,0.6-0.39
		c0.21-0.12,0.41-0.24,0.63-0.34c0.11-0.05,0.22-0.1,0.32-0.15c0.35-0.16-0.28,0.09,0.08-0.03c0.44-0.14,0.87-0.3,1.32-0.4
		c0.22-0.05,0.45-0.09,0.67-0.12c-0.4,0.06,0.29-0.02,0.4-0.02c0.45-0.03,0.91-0.02,1.36,0.02c0.11,0.01,0.23,0.03,0.34,0.03
		c0.38,0.03-0.31-0.07,0.06,0.01c0.22,0.05,0.45,0.08,0.66,0.13c0.44,0.1,0.87,0.23,1.29,0.39c0.11,0.04,0.21,0.08,0.31,0.12
		c-0.35-0.14,0.01,0.01,0.06,0.03c0.2,0.1,0.41,0.2,0.6,0.3c0.4,0.22,0.76,0.47,1.13,0.72c0.31,0.21-0.23-0.2,0.06,0.04
		c0.08,0.07,0.17,0.14,0.26,0.21c0.17,0.14,0.33,0.3,0.49,0.45c0.13,0.13,0.26,0.27,0.39,0.41c0.07,0.08,0.14,0.17,0.21,0.25
		c0.26,0.31-0.01-0.06,0.11,0.14c0.23,0.34,0.46,0.68,0.65,1.04c0.11,0.2,0.21,0.41,0.29,0.61c-0.15-0.34,0,0.02,0.02,0.07
		c0.05,0.14,0.1,0.29,0.14,0.44c0.08,0.26,0.14,0.52,0.2,0.79c0.02,0.08,0.03,0.15,0.04,0.23c0.02,0.08,0.03,0.15,0.04,0.24
		c-0.03-0.2-0.03-0.21-0.01-0.03c0.03,0.59,0.06,1.15,0.01,1.74c-0.01,0.05-0.06,0.47-0.01,0.13c-0.02,0.13-0.04,0.26-0.07,0.39
		c-0.06,0.32-0.13,0.63-0.22,0.94c-0.21,0.73-0.38,1.17-0.66,1.75c-0.34,0.71-0.2,1.58,0.52,2.01c0.64,0.37,1.66,0.19,2.01-0.52
		c1.14-2.38,1.69-4.96,1.17-7.58c-0.42-2.12-1.62-4.11-3.23-5.52c-3.39-2.96-8.28-3.77-12.38-1.85c-2.55,1.2-4.45,3.5-5.53,6.05
		c0.91,0.25,1.82,0.49,2.73,0.74c0.4-3.62,0.02-7.4-1.7-10.66c-1.34-2.55-3.53-4.55-6.2-5.63c-5.2-2.1-11.14,0.23-13.86,5.05
		c-2.07,3.67-2.2,8.02-1.57,12.09c0.95-0.26,1.88-0.52,2.83-0.78c-0.48-2.79-1.72-5.61-3.95-7.45c-1.93-1.59-4.34-2.43-6.85-2.4
		c-4.64,0.05-9.48,2.98-10.65,7.67c-0.78,3.12,0.25,6.3,2.03,8.89c0.45,0.65,1.29,0.95,2.01,0.52
		C737.43,748.06,737.76,747.09,737.31,746.43z"/>
</g>
</svg>
