<?xml version="1.0" encoding="utf-8"?>
<!-- Generator: Adobe Illustrator 27.6.1, SVG Export Plug-In . SVG Version: 6.00 Build 0)  -->
<svg version="1.1" id="Layer_1" xmlns="http://www.w3.org/2000/svg" xmlns:xlink="http://www.w3.org/1999/xlink" x="0px" y="0px"
	 viewBox="0 0 1549 620" style="enable-background:new 0 0 1549 620;" xml:space="preserve">
<style type="text/css">
	.st0{fill:none;stroke:#8787C1;stroke-width:3;}
	.st1{fill:#8787C1;}
</style>
<path class="st0" d="M544.48,43.71L544.48,43.71c-5.39-2.38-10.16-2.46-14.28-1.05c-4.15,1.42-7.77,4.4-10.72,8.36
	c-5.93,7.95-8.92,19.55-8.04,28.97 M544.48,43.71c13.05,5.76,23.01,19.92,27.6,31.22l2.85-0.61 M544.48,43.71 M600.92,43.66
	L600.92,43.66c-4.69,1.77-12.28,7.31-18.42,14.02c-3.05,3.34-5.69,6.9-7.41,10.33c-1.73,3.46-1.98,4.64-1.48,7.28 M600.92,43.66
	c6.45-2.43,12.63-2.26,17.71,0.11c5.08,2.36,9.22,6.99,11.47,13.75l0,0 M630.11,57.52 M600.92,43.66 M630.11,57.52
	c6.28,18.85,2.68,38.68-5.84,57.08c-8.52,18.39-21.89,35.2-34.91,47.86v0 M589.36,162.46 M630.11,57.52 M589.36,162.46
	c-4.36,4.24-8.25,6.33-11.78,7.01c-3.51,0.68-6.82-0.01-10.1-1.66c-3.31-1.66-6.54-4.29-9.8-7.43c-2.41-2.32-4.79-4.86-7.21-7.45
	c-0.86-0.92-1.72-1.84-2.59-2.76c-7.25-7.68-14.05-15.82-19.75-24.72c-8.54-13.33-15.2-29.63-16.69-45.46"/>
<path class="st1" d="M1412.52,423.91c-5.95-2.77-12.63-4.4-19.15-2.91c-5,1.15-9.32,4.24-12.18,8.48
	c-2.63,3.93-3.92,8.84-3.63,13.56c0.31,5.02,2.32,9.83,5.88,13.41c4.32,4.34,10.32,6.31,16.32,6.75c0.86,0.06,1.74,0.09,2.61,0.09
	c-0.32-1.19-0.64-2.38-0.97-3.57c-5.15,3.28-9.58,7.94-11.24,13.94c-1.36,4.92-0.65,10.14,1.58,14.68
	c4.39,8.96,14.82,14.68,24.68,11.9c7.15-2.02,12.44-7.81,16.06-14.03c-1.18-0.32-2.38-0.64-3.57-0.97
	c-0.39,4.48,0.34,9.17,2.77,13.03c2.12,3.38,5.3,5.84,9,7.27c6.98,2.68,15.59,1.11,20.85-4.29c3.46-3.54,5.08-8.35,5.2-13.25
	c-1.28,0-2.56,0-3.84,0c0.45,4.67,1.96,9.2,5.15,12.72c2.54,2.79,6.08,4.69,9.79,5.35c7.72,1.37,15.9-1.89,20.16-8.57
	c2.79-4.36,3.37-9.58,2.63-14.6c-1.17,0.49-2.34,0.99-3.5,1.48c5.38,8.39,15.18,16.06,25.72,13.81c2.79-0.6,5.38-1.93,7.63-3.66
	c1.88-1.44,3.64-2.98,4.99-4.98c2.41-3.57,3.46-8.16,3.18-12.43c-0.33-5.07-2.48-9.9-6.77-12.8c-0.15,1.17-0.3,2.34-0.45,3.51
	c4.79-1.59,9.02-4.48,11.79-8.73c2.37-3.61,3.48-8.04,3.29-12.33c-0.4-8.8-6.1-17.09-14.89-19.26c-6.2-1.53-12.59,0.09-18.2,2.85
	c0.94,0.72,1.88,1.44,2.81,2.16c1.27-5.47,1.6-11.33-0.15-16.74c-1.39-4.32-4.02-8.08-7.74-10.7c-7.11-5.01-16.94-4.4-23.94,0.46
	c-4.94,3.43-8.32,8.45-10.43,14.03c1.26,0.17,2.52,0.34,3.77,0.51c0.59-7.06-2.23-14.67-8.92-17.9c-5.68-2.74-12.69-1.64-16.71,3.4
	c-2.87,3.58-3.88,8.15-3.9,12.67c1.25-0.17,2.51-0.34,3.76-0.51c-1.12-5.43-3.56-10.8-7.79-14.52c-3.54-3.12-7.98-4.88-12.67-5.17
	c-8.61-0.55-17.96,4.1-21.65,12.12c-2.34,5.08-2.2,10.78-0.14,15.93c0.38,0.96,1.28,1.63,2.36,1.34c0.91-0.25,1.72-1.39,1.33-2.36
	c-0.46-1.16-0.84-2.36-1.11-3.58c-0.06-0.25-0.11-0.5-0.15-0.75c-0.03-0.15-0.05-0.3-0.07-0.45c-0.1-0.5,0.04,0.42-0.02-0.08
	c-0.05-0.53-0.1-1.07-0.12-1.6c-0.02-0.52-0.01-1.03,0.02-1.55c0.02-0.23,0.04-0.46,0.06-0.69c0.01-0.13,0.03-0.27,0.04-0.41
	c-0.06,0.57,0.01-0.05,0.03-0.16c0.16-0.96,0.4-1.91,0.73-2.83c0.08-0.21,0.16-0.41,0.24-0.61c0.15-0.42-0.19,0.39,0-0.02
	c0.06-0.11,0.11-0.24,0.16-0.36c0.21-0.45,0.45-0.89,0.7-1.32c0.22-0.39,0.47-0.77,0.72-1.14c0.15-0.22,0.3-0.42,0.46-0.62
	c-0.31,0.42,0.15-0.19,0.26-0.32c0.61-0.73,1.27-1.4,1.99-2.03c0.2-0.17,0.4-0.33,0.6-0.5c0.07-0.05,0.14-0.11,0.2-0.16
	c0.35-0.29-0.35,0.24,0.03-0.02c0.43-0.3,0.85-0.61,1.29-0.89c0.81-0.52,1.66-0.98,2.54-1.38c0.12-0.05,0.24-0.11,0.36-0.16
	c0.4-0.19-0.3,0.12-0.03,0.01c0.22-0.09,0.45-0.18,0.67-0.27c0.5-0.19,1-0.36,1.51-0.5c0.93-0.28,1.88-0.49,2.84-0.64
	c0.14-0.02,0.27-0.04,0.4-0.06c-0.49,0.07-0.22,0.03-0.11,0.02c0.26-0.03,0.53-0.06,0.79-0.08c0.49-0.04,0.97-0.06,1.46-0.07
	c0.49-0.01,0.98,0.01,1.47,0.03c0.24,0.01,0.49,0.03,0.73,0.05c0.16,0.01,1.07,0.14,0.48,0.05c0.97,0.16,1.93,0.35,2.88,0.64
	c0.48,0.14,0.94,0.31,1.4,0.49c0.13,0.05,0.26,0.1,0.38,0.15c-0.42-0.18-0.17-0.07-0.08-0.03c0.29,0.14,0.58,0.27,0.87,0.41
	c0.91,0.46,1.77,1.01,2.6,1.6c0.08,0.05,0.45,0.36,0.07,0.05c0.11,0.09,0.22,0.18,0.33,0.27c0.27,0.21,0.52,0.44,0.77,0.67
	c0.44,0.4,0.85,0.82,1.25,1.26c0.22,0.24,0.44,0.49,0.64,0.74c0.08,0.1,0.16,0.2,0.24,0.3c-0.29-0.37,0.13,0.16,0.17,0.24
	c0.38,0.52,0.73,1.05,1.06,1.6c0.38,0.62,0.72,1.26,1.04,1.91c0.38,0.8,0.41,0.87,0.71,1.65c0.59,1.56,1.03,3.18,1.38,4.83
	c0.44,2.15,3.76,1.61,3.76-0.51c0.01-1.02,0.06-2.04,0.18-3.04c0.04-0.4,0.02-0.14,0-0.06c0.02-0.12,0.04-0.25,0.06-0.37
	c0.04-0.21,0.08-0.42,0.12-0.63c0.09-0.44,0.18-0.87,0.29-1.3c0.11-0.41,0.24-0.81,0.37-1.22c0.06-0.18,0.13-0.36,0.2-0.54
	c0.04-0.1,0.08-0.2,0.12-0.29c-0.06,0.15-0.1,0.2-0.01,0.02c0.34-0.71,0.69-1.4,1.12-2.05c0.1-0.14,0.19-0.27,0.29-0.42
	c0.06-0.08,0.12-0.15,0.17-0.23c-0.01,0.01-0.22,0.28-0.08,0.11c0.23-0.28,0.47-0.56,0.72-0.83c0.22-0.23,0.45-0.44,0.68-0.65
	c0.12-0.1,0.24-0.19,0.35-0.3c0.25-0.22-0.03,0.03-0.08,0.05c0.09-0.07,0.18-0.13,0.26-0.19c0.53-0.37,1.07-0.7,1.65-0.97
	c0.13-0.06,0.27-0.12,0.4-0.18c-0.51,0.24,0.01,0,0.12-0.04c0.3-0.11,0.59-0.2,0.89-0.29c0.31-0.08,0.61-0.15,0.91-0.21
	c0.14-0.03,0.29-0.05,0.43-0.07c0.22-0.04-0.21,0.03-0.2,0.03c0.1-0.01,0.21-0.03,0.31-0.03c0.62-0.05,1.24-0.07,1.86-0.03
	c0.17,0.01,0.33,0.03,0.5,0.04c0.44,0.03-0.29-0.06,0.05,0c0.33,0.06,0.66,0.12,0.99,0.19c0.62,0.15,1.21,0.36,1.82,0.57
	c0.32,0.11-0.36-0.17,0.07,0.03c0.13,0.07,0.27,0.13,0.41,0.19c0.31,0.15,0.62,0.32,0.91,0.5c0.26,0.15,0.53,0.32,0.77,0.5
	c0.15,0.1,0.29,0.21,0.43,0.31c-0.34-0.25,0-0.01,0.14,0.11c0.52,0.44,1.01,0.91,1.46,1.42c0.11,0.12,0.22,0.25,0.32,0.37
	c0.11,0.14,0.31,0.41,0.09,0.11c0.22,0.31,0.44,0.62,0.65,0.94c0.22,0.35,0.43,0.71,0.62,1.08c0.09,0.17,0.18,0.36,0.27,0.54
	c0.05,0.12,0.3,0.72,0.14,0.31c0.33,0.84,0.6,1.69,0.81,2.58c0.1,0.44,0.17,0.88,0.24,1.32c0.01,0.08,0.06,0.38,0,0
	c0.02,0.15,0.04,0.29,0.05,0.44c0.02,0.24,0.04,0.47,0.05,0.71c0.07,1.1,0.04,2.2-0.04,3.3c-0.08,0.94,0.78,1.78,1.66,1.88
	c1,0.12,1.76-0.46,2.1-1.37c0.79-2.09,2.01-4.48,3.47-6.54c0.17-0.23,0.34-0.47,0.52-0.7c-0.23,0.29,0.22-0.28,0.28-0.35
	c0.38-0.46,0.76-0.89,1.17-1.32c0.73-0.79,1.53-1.5,2.37-2.19c0.05-0.04,0.47-0.36,0.1-0.09c0.08-0.06,0.17-0.13,0.25-0.19
	c0.21-0.15,0.42-0.3,0.63-0.45c0.45-0.3,0.9-0.58,1.35-0.85c0.41-0.24,0.83-0.46,1.25-0.67c0.22-0.11,0.44-0.21,0.67-0.32
	c0.11-0.05,0.22-0.1,0.33-0.15c0.13-0.05,0.09-0.04-0.12,0.05c0.09-0.03,0.18-0.07,0.27-0.11c0.9-0.34,1.8-0.64,2.74-0.86
	c0.44-0.1,0.87-0.19,1.31-0.26c0.11-0.02,0.23-0.03,0.35-0.05c0.45-0.08-0.32,0.03-0.03,0c0.26-0.03,0.5-0.06,0.76-0.08
	c0.91-0.07,1.83-0.09,2.75-0.03c0.22,0.01,0.45,0.03,0.67,0.05c0.14,0.01,0.87,0.12,0.31,0.03c0.47,0.07,0.93,0.15,1.39,0.26
	c0.9,0.2,1.79,0.47,2.65,0.81c0.08,0.03,0.17,0.07,0.25,0.1c0.43,0.17-0.39-0.19,0.04,0.02c0.18,0.09,0.37,0.17,0.55,0.26
	c0.42,0.21,0.84,0.43,1.25,0.67c0.39,0.23,0.77,0.48,1.14,0.73c0.17,0.11,0.33,0.24,0.49,0.36c0.24,0.17-0.35-0.3,0-0.01
	c0.1,0.09,0.21,0.18,0.31,0.26c0.73,0.61,1.41,1.28,2.03,2c0.14,0.16,0.27,0.33,0.41,0.49c0.32,0.37-0.23-0.33,0.05,0.06
	c0.05,0.08,0.11,0.15,0.16,0.23c0.32,0.43,0.61,0.87,0.88,1.33c0.23,0.38,0.45,0.77,0.66,1.17c0.11,0.22,0.22,0.45,0.32,0.68
	c0.07,0.14,0.13,0.28,0.19,0.42c-0.13-0.3-0.02-0.05,0.05,0.11c0.44,1.13,0.79,2.28,1.05,3.46c0.06,0.3,0.12,0.61,0.18,0.91
	c0.03,0.17,0.06,0.33,0.08,0.51c0.01,0.09,0.08,0.6,0.03,0.18c0.08,0.65,0.14,1.31,0.17,1.97c0.07,1.48,0.03,2.96-0.11,4.43
	c-0.14,1.49-0.39,2.92-0.77,4.57c-0.39,1.69,1.31,2.9,2.81,2.16c2.37-1.16,4.97-2.12,7.75-2.62c0.29-0.05,0.58-0.1,0.87-0.14
	c-0.42,0.06,0.4-0.05,0.5-0.05c0.6-0.06,1.2-0.09,1.81-0.11c0.52-0.01,1.05,0.01,1.58,0.03c0.25,0.01,0.51,0.04,0.76,0.06
	c0.15,0.01,0.3,0.03,0.45,0.05c-0.49-0.06-0.03,0,0.09,0.02c1.05,0.19,2.07,0.43,3.08,0.79c0.22,0.08,0.44,0.17,0.66,0.25
	c0.09,0.03,0.33,0.15-0.08-0.03c0.13,0.05,0.26,0.11,0.38,0.17c0.46,0.21,0.9,0.44,1.34,0.69c0.39,0.23,0.77,0.46,1.14,0.73
	c0.18,0.13,0.36,0.26,0.54,0.39c0.38,0.27-0.31-0.27,0.04,0.03c0.1,0.09,0.2,0.17,0.3,0.26c0.72,0.6,1.38,1.26,1.99,1.96
	c0.16,0.18,0.3,0.38,0.46,0.56c0.07,0.09,0.26,0.36-0.01-0.02c0.06,0.09,0.13,0.17,0.19,0.27c0.3,0.42,0.58,0.83,0.85,1.27
	c0.48,0.79,0.9,1.62,1.27,2.48c-0.22-0.5,0.06,0.16,0.11,0.28c0.08,0.21,0.15,0.42,0.23,0.62c0.16,0.46,0.3,0.93,0.42,1.4
	c0.11,0.43,0.22,0.87,0.3,1.3c0.04,0.22,0.08,0.44,0.12,0.66c0.02,0.13,0.04,0.26,0.06,0.4c-0.08-0.53-0.01-0.1,0,0.02
	c0.1,0.96,0.16,1.91,0.13,2.88c-0.01,0.47-0.04,0.94-0.09,1.41c-0.01,0.14-0.11,0.87-0.02,0.3c-0.04,0.27-0.08,0.53-0.13,0.8
	c-0.17,0.93-0.41,1.85-0.71,2.75c-0.08,0.21-0.15,0.43-0.23,0.64c-0.05,0.12-0.34,0.79-0.11,0.3c-0.21,0.46-0.42,0.91-0.66,1.36
	c-0.26,0.49-0.55,0.97-0.86,1.43c-0.15,0.24-0.31,0.46-0.47,0.69c-0.06,0.07-0.34,0.45-0.04,0.06c-0.09,0.11-0.18,0.22-0.27,0.34
	c-0.74,0.9-1.57,1.73-2.46,2.48c-0.09,0.08-0.19,0.16-0.29,0.24c-0.38,0.32,0.16-0.1-0.14,0.11c-0.25,0.17-0.5,0.36-0.76,0.53
	c-0.52,0.36-1.06,0.68-1.61,0.99c-0.58,0.32-1.17,0.6-1.78,0.87c0.07-0.03,0.34-0.13-0.01,0.01c-0.19,0.07-0.37,0.15-0.56,0.22
	c-0.35,0.14-0.71,0.26-1.07,0.38c-1.62,0.54-1.84,2.57-0.46,3.51c0.6,0.4,1.24,0.95,1.87,1.67c0.15,0.17,0.29,0.34,0.43,0.51
	c-0.16-0.21,0.17,0.24,0.21,0.3c0.28,0.4,0.53,0.8,0.75,1.22c0.48,0.87,0.62,1.22,0.93,2.22c0.13,0.44,0.26,0.88,0.36,1.33
	c0.08,0.38,0.21,1.11,0.24,1.31c0.43,3.46-0.2,7.27-1.88,10.3c-0.22,0.39-0.45,0.76-0.7,1.13c-0.12,0.18-0.25,0.36-0.38,0.54
	c-0.14,0.17-0.02,0.01,0.01-0.02c-0.09,0.12-0.19,0.24-0.29,0.36c-0.29,0.33-0.58,0.64-0.89,0.94c-0.16,0.15-0.32,0.29-0.48,0.43
	c-0.06,0.06-0.14,0.11-0.21,0.18c-0.08,0.07-0.09,0.07-0.02,0.02c0.19-0.14,0.07-0.05-0.33,0.26c-1.9,1.58-3.82,3-6.21,3.77
	c-4.11,1.32-8.37,0.56-12.16-1.45c-4.41-2.34-8.09-6.04-10.75-10.19c-0.51-0.8-1.51-1.17-2.4-0.79c-0.94,0.42-1.25,1.29-1.11,2.26
	c0.09,0.6-0.02-0.21,0.02,0.14c0.02,0.12,0.03,0.25,0.04,0.37c0.03,0.28,0.06,0.54,0.08,0.82c0.04,0.56,0.06,1.12,0.06,1.68
	c0,0.48-0.02,0.96-0.06,1.44c-0.02,0.28-0.05,0.55-0.07,0.82c-0.01,0.09-0.05,0.38,0.01-0.03c-0.02,0.16-0.05,0.32-0.08,0.48
	c-0.15,0.92-0.37,1.83-0.67,2.71c-0.07,0.21-0.15,0.42-0.23,0.64c-0.04,0.11-0.31,0.74-0.11,0.3c-0.19,0.42-0.39,0.84-0.6,1.24
	c-0.2,0.36-0.4,0.71-0.62,1.05c-0.13,0.2-0.26,0.4-0.4,0.59c-0.08,0.11-0.51,0.68-0.2,0.29c-0.52,0.66-1.07,1.27-1.68,1.85
	c-0.31,0.28-0.62,0.55-0.94,0.82c-0.41,0.35,0.16-0.1-0.21,0.16c-0.18,0.14-0.37,0.27-0.55,0.4c-0.7,0.48-1.43,0.9-2.18,1.27
	c-0.16,0.08-0.33,0.16-0.49,0.23c-0.1,0.05-0.21,0.09-0.31,0.14c-0.24,0.11,0.33-0.14,0.08-0.03c-0.4,0.15-0.8,0.31-1.21,0.44
	c-0.79,0.26-1.6,0.46-2.42,0.62c-0.2,0.03-0.4,0.07-0.6,0.1c-0.29,0.05,0.34-0.03-0.16,0.02c-0.45,0.05-0.89,0.08-1.34,0.1
	c-0.81,0.03-1.61,0.01-2.42-0.07c-0.1-0.01-0.71-0.09-0.41-0.05c0.3,0.04-0.31-0.05-0.41-0.07c-0.41-0.07-0.83-0.16-1.24-0.27
	c-0.37-0.09-0.73-0.2-1.09-0.32c-0.19-0.06-0.39-0.13-0.57-0.2c-0.11-0.04-0.21-0.08-0.32-0.12c-0.37-0.13,0.35,0.17-0.04-0.01
	c-0.74-0.34-1.46-0.71-2.15-1.15c-0.35-0.22-0.68-0.46-1.01-0.71c0.34,0.25-0.02-0.02-0.15-0.13c-0.2-0.16-0.39-0.33-0.58-0.5
	c-0.36-0.34-0.71-0.69-1.04-1.06c-0.16-0.18-0.31-0.36-0.47-0.55c-0.06-0.07-0.12-0.15-0.18-0.23c0.3,0.38-0.01-0.02-0.05-0.08
	c-0.6-0.85-1.14-1.74-1.59-2.69c-0.05-0.12-0.11-0.24-0.17-0.36c-0.15-0.33,0.06,0.15-0.02-0.06c-0.12-0.28-0.22-0.56-0.33-0.84
	c-0.18-0.53-0.35-1.07-0.5-1.62c-0.15-0.58-0.28-1.15-0.39-1.74c-0.15-0.84-0.15-0.87-0.23-1.74c-0.1-1.03-0.82-1.91-1.92-1.91
	c-1.06,0-1.89,0.88-1.91,1.91c-0.01,0.52-0.04,1.05-0.09,1.57c-0.01,0.11-0.02,0.23-0.03,0.34c0-0.01-0.07,0.54-0.03,0.25
	c0.04-0.3-0.04,0.24-0.04,0.24c-0.03,0.16-0.05,0.32-0.08,0.48c-0.17,0.93-0.41,1.84-0.72,2.73c-0.09,0.23-0.18,0.47-0.27,0.7
	c-0.04,0.09-0.16,0.33,0.02-0.05c-0.04,0.09-0.08,0.18-0.12,0.27c-0.21,0.44-0.43,0.87-0.67,1.29c-0.21,0.37-0.43,0.73-0.68,1.08
	c-0.1,0.15-0.22,0.3-0.32,0.46c-0.19,0.28,0.01-0.01,0.05-0.06c-0.09,0.11-0.18,0.22-0.26,0.32c-0.55,0.66-1.17,1.28-1.82,1.84
	c-0.13,0.11-0.27,0.23-0.41,0.34c-0.34,0.29,0.25-0.18,0.01-0.01c-0.09,0.07-0.18,0.14-0.27,0.2c-0.32,0.23-0.66,0.46-1,0.66
	c-0.34,0.21-0.69,0.41-1.05,0.59c-0.19,0.1-0.39,0.2-0.59,0.3c-0.14,0.06-0.78,0.33-0.28,0.13c-0.76,0.31-1.54,0.57-2.34,0.78
	c-0.36,0.09-0.73,0.17-1.1,0.25c-0.22,0.04-0.44,0.08-0.66,0.11c-0.52,0.09,0.26-0.01-0.28,0.04c-0.82,0.08-1.65,0.13-2.47,0.11
	c-0.38-0.01-0.76-0.03-1.14-0.06c-0.22-0.02-0.44-0.05-0.66-0.07c-0.11-0.01-0.38-0.05,0.11,0.02c-0.13-0.02-0.26-0.04-0.4-0.06
	c-0.81-0.13-1.61-0.32-2.4-0.56c-0.36-0.11-0.72-0.23-1.07-0.36c-0.11-0.04-0.8-0.33-0.29-0.11c-0.2-0.09-0.4-0.18-0.6-0.27
	c-0.74-0.36-1.46-0.77-2.14-1.22c-0.17-0.11-0.33-0.23-0.49-0.35c-0.44-0.32,0.15,0.13-0.2-0.15c-0.33-0.28-0.66-0.55-0.97-0.85
	c-0.3-0.28-0.58-0.58-0.85-0.88c-0.12-0.13-0.24-0.27-0.36-0.42c-0.08-0.09-0.15-0.18-0.22-0.27c-0.09-0.12,0.21,0.29-0.04-0.05
	c-0.57-0.79-1.08-1.62-1.51-2.5c-0.05-0.11-0.11-0.22-0.16-0.33c-0.02-0.05-0.21-0.5-0.1-0.25c0.11,0.28-0.07-0.18-0.08-0.19
	c-0.05-0.14-0.1-0.28-0.16-0.42c-0.17-0.48-0.32-0.98-0.45-1.48c-0.15-0.54-0.26-1.1-0.35-1.65c-0.02-0.11-0.04-0.21-0.06-0.33
	c-0.02-0.14-0.02-0.11,0.02,0.09c-0.02-0.08-0.02-0.17-0.04-0.25c-0.03-0.32-0.06-0.62-0.08-0.94c-0.09-1.28-0.06-2.56,0.05-3.85
	c0.17-1.95-2.67-2.52-3.57-0.97c-1.71,2.94-3.52,5.43-6.02,7.75c-1.19,1.11-1.83,1.6-3.14,2.44c-0.52,0.32-1.04,0.62-1.59,0.91
	c-0.24,0.12-0.47,0.24-0.72,0.36c-0.14,0.07-0.29,0.13-0.44,0.19c0.44-0.19-0.19,0.07-0.27,0.1c-1.08,0.42-2.19,0.73-3.33,0.93
	c-0.14,0.03-0.29,0.05-0.44,0.07c-0.49,0.09,0.42-0.03-0.07,0.01c-0.28,0.03-0.57,0.06-0.86,0.08c-0.57,0.04-1.14,0.05-1.71,0.03
	c-0.51-0.02-1.03-0.07-1.54-0.12c-0.49-0.05,0.43,0.08-0.05-0.01c-0.13-0.03-0.27-0.05-0.42-0.07c-0.27-0.05-0.55-0.11-0.81-0.17
	c-0.5-0.11-1-0.25-1.48-0.4c-0.27-0.08-0.53-0.17-0.79-0.27c-0.17-0.06-1.05-0.43-0.58-0.22c-0.97-0.44-1.92-0.93-2.83-1.5
	c-0.43-0.27-0.85-0.57-1.26-0.87c-0.07-0.05-0.44-0.36-0.05-0.04c-0.11-0.09-0.23-0.17-0.33-0.26c-0.22-0.17-0.43-0.36-0.64-0.54
	c-0.84-0.74-1.62-1.55-2.33-2.42c-0.08-0.09-0.53-0.68-0.22-0.27c-0.17-0.22-0.34-0.45-0.5-0.68c-0.32-0.46-0.62-0.93-0.91-1.41
	c-0.26-0.44-0.51-0.89-0.74-1.35c-0.13-0.25-0.24-0.5-0.36-0.76c-0.04-0.09-0.22-0.53-0.03-0.05c-0.06-0.15-0.12-0.3-0.18-0.46
	c-0.4-1.02-0.71-2.08-0.93-3.14c-0.06-0.27-0.11-0.55-0.16-0.83c-0.01-0.09-0.03-0.19-0.04-0.27c-0.08-0.48,0.03,0.44-0.01-0.05
	c-0.04-0.56-0.1-1.12-0.11-1.69s0-1.13,0.04-1.7c0.02-0.23,0.04-0.48,0.07-0.71c0.01-0.1,0.09-0.58,0-0.06
	c0.04-0.19,0.06-0.38,0.1-0.57c0.23-1.26,0.6-2.51,1.09-3.69c-0.18,0.42,0.17-0.38,0.24-0.52c0.17-0.33,0.33-0.65,0.51-0.97
	c0.35-0.61,0.72-1.21,1.13-1.79c0.1-0.13,0.2-0.27,0.3-0.4c0.13-0.18,0.13-0.18,0-0.01c0.07-0.09,0.15-0.18,0.22-0.27
	c0.21-0.27,0.44-0.54,0.67-0.79c0.52-0.58,1.07-1.15,1.64-1.68c1.36-1.28,2.44-2.07,4.05-3.09c1.58-1,0.98-3.57-0.97-3.57
	c-0.84,0-1.68-0.03-2.52-0.09c-0.39-0.03-0.78-0.06-1.17-0.1c-0.2-0.02-0.4-0.05-0.61-0.07c-0.22-0.03,0.06,0.01,0.08,0.01
	c-0.11-0.01-0.22-0.03-0.33-0.05c-1.47-0.22-2.92-0.55-4.32-1.01c-0.31-0.1-0.62-0.21-0.93-0.32c-0.16-0.06-0.32-0.12-0.48-0.19
	c-0.15-0.06-0.51-0.21-0.15-0.06c-0.59-0.26-1.17-0.53-1.74-0.84c-0.56-0.3-1.1-0.64-1.63-0.99c-0.25-0.16-0.48-0.33-0.71-0.5
	c-0.17-0.13-0.27-0.21-0.03-0.02c-0.14-0.11-0.28-0.21-0.41-0.33c-0.88-0.73-1.69-1.54-2.42-2.42c-0.09-0.11-0.18-0.23-0.27-0.34
	c-0.07-0.09,0.22,0.31,0-0.01c-0.17-0.25-0.35-0.5-0.53-0.75c-0.3-0.46-0.58-0.93-0.84-1.4c-0.26-0.48-0.49-0.97-0.72-1.46
	c0.23,0.5-0.07-0.19-0.14-0.38c-0.1-0.26-0.18-0.52-0.27-0.79c-0.34-1.04-0.56-2.1-0.75-3.18c-0.06-0.36,0.04,0.4,0.01,0.04
	c-0.01-0.14-0.03-0.27-0.05-0.41c-0.02-0.27-0.04-0.55-0.06-0.82c-0.04-0.53-0.04-1.07-0.04-1.6c0.02-0.53,0.04-1.07,0.1-1.6
	c0.02-0.2,0.14-0.95,0.03-0.38c0.05-0.28,0.08-0.54,0.13-0.82c0.2-1.07,0.47-2.12,0.84-3.14c0.08-0.24,0.17-0.48,0.26-0.72
	c0.05-0.11,0.09-0.22,0.14-0.33c-0.22,0.53-0.01,0.04,0.04-0.09c0.22-0.48,0.46-0.96,0.71-1.43c0.27-0.48,0.55-0.95,0.86-1.42
	c0.14-0.21,0.29-0.42,0.44-0.63c0.07-0.09,0.14-0.19,0.22-0.29c0.15-0.21-0.24,0.29,0.07-0.08c0.68-0.83,1.41-1.61,2.23-2.32
	c0.2-0.18,0.4-0.34,0.61-0.5c0.36-0.3-0.24,0.16,0.04-0.03c0.11-0.08,0.22-0.17,0.34-0.25c0.46-0.33,0.95-0.64,1.44-0.92
	c0.49-0.28,0.99-0.54,1.5-0.77c0.11-0.05,0.23-0.1,0.35-0.15c-0.49,0.21-0.05,0.02,0.07-0.03c0.28-0.11,0.57-0.21,0.85-0.31
	c0.56-0.19,1.13-0.35,1.7-0.48c0.29-0.07,0.57-0.13,0.86-0.18c0.15-0.03,0.31-0.05,0.47-0.08c0.12-0.02,0.7-0.09,0.17-0.03
	c1.3-0.15,2.61-0.21,3.92-0.14c0.33,0.02,0.66,0.04,1,0.07c0.18,0.02,0.36,0.03,0.54,0.05c0.08,0.01,0.15,0.02,0.23,0.03
	c0.29,0.03-0.32-0.05-0.03-0.01c0.74,0.11,1.46,0.24,2.19,0.4c1.61,0.36,3.2,0.85,4.73,1.45c0.18,0.07,0.37,0.14,0.54,0.21
	c0.07,0.03,0.58,0.24,0.36,0.15c0.43,0.18,0.86,0.38,1.29,0.58c0.94,0.44,2.06,0.26,2.62-0.68
	C1413.69,425.71,1413.45,424.35,1412.52,423.91z"/>
<path class="st1" d="M1436.97,461.8c-0.52-0.76-1-1.54-1.4-2.37c-0.09-0.18-0.16-0.35-0.24-0.52c-0.16-0.33-0.02-0.05,0,0.01
	c-0.04-0.1-0.08-0.2-0.11-0.3c-0.14-0.38-0.28-0.77-0.38-1.16c-0.1-0.35-0.18-0.71-0.25-1.06c-0.03-0.2-0.07-0.51-0.02-0.11
	c-0.02-0.2-0.05-0.41-0.06-0.61c-0.02-0.33-0.03-0.66-0.02-0.99c0-0.15,0.01-0.3,0.02-0.46c0.02-0.13,0.12-0.77,0.01-0.19
	c0.12-0.64,0.25-1.25,0.47-1.87c0.05-0.13,0.1-0.27,0.16-0.4c-0.15,0.39-0.04,0.09,0.05-0.1c0.14-0.29,0.29-0.58,0.46-0.85
	c0.15-0.24,0.31-0.48,0.47-0.71c0.29-0.42-0.14,0.14,0.07-0.09c0.11-0.12,0.21-0.25,0.32-0.37c0.43-0.49,0.92-0.91,1.41-1.35
	c0.25-0.22-0.33,0.23,0.06-0.04c0.12-0.08,0.23-0.17,0.35-0.25c0.28-0.19,0.55-0.36,0.84-0.53c0.27-0.15,0.54-0.3,0.83-0.44
	c0.13-0.07,0.26-0.13,0.39-0.19c0.49-0.23-0.23,0.07,0.18-0.07c0.62-0.21,1.23-0.43,1.86-0.58c0.31-0.07,0.62-0.13,0.93-0.19
	c0.26-0.05,0.41-0.05,0.05-0.01c0.19-0.02,0.38-0.04,0.57-0.06c0.65-0.05,1.3-0.06,1.95-0.02c0.15,0.01,0.3,0.03,0.45,0.04
	c0.08,0.01,0.16,0.02,0.24,0.03c0.27,0.03-0.39-0.07-0.13-0.02c0.33,0.06,0.66,0.11,0.99,0.2c0.31,0.07,0.61,0.16,0.92,0.26
	c0.14,0.05,0.28,0.09,0.42,0.15c0.08,0.03,0.16,0.06,0.23,0.09c0.24,0.09-0.43-0.21-0.04-0.02c0.58,0.28,1.15,0.57,1.7,0.94
	c0.08,0.05,0.55,0.4,0.34,0.23c-0.2-0.15,0.25,0.2,0.33,0.27c0.29,0.26,0.57,0.52,0.84,0.81c0.14,0.15,0.28,0.31,0.42,0.47
	c0.11,0.13,0.38,0.5,0.15,0.17c0.26,0.36,0.51,0.72,0.74,1.11c0.22,0.38,0.43,0.77,0.61,1.17c0.05,0.09,0.09,0.19,0.14,0.29
	c0.13,0.27-0.16-0.42,0.03,0.07c0.08,0.21,0.16,0.42,0.24,0.62c0.36,1.03,0.61,2.09,0.8,3.17c0.18,1.02,1.43,1.59,2.36,1.34
	c1.09-0.3,1.5-1.33,1.33-2.36c-0.3-1.97-0.43-4.59-0.19-6.86c0.01-0.14,0.03-0.28,0.05-0.42c-0.01,0.07-0.06,0.38,0,0.01
	c0.04-0.24,0.08-0.49,0.12-0.73c0.09-0.5,0.2-0.99,0.33-1.47c0.12-0.44,0.25-0.87,0.4-1.3c0.07-0.21,0.15-0.42,0.23-0.62
	c0.05-0.11,0.19-0.42,0-0.01c0.07-0.13,0.12-0.26,0.18-0.39c0.35-0.75,0.75-1.46,1.21-2.14c0.13-0.18,0.26-0.36,0.39-0.53
	c-0.25,0.34-0.02,0.03,0.1-0.12c0.27-0.32,0.56-0.64,0.86-0.93c0.26-0.26,0.53-0.51,0.82-0.75c0.17-0.14,0.43-0.32,0.1-0.08
	c0.18-0.13,0.35-0.26,0.54-0.38c0.61-0.41,1.26-0.74,1.93-1.06c0.37-0.17-0.33,0.13-0.08,0.03c0.09-0.03,0.18-0.07,0.27-0.11
	c0.15-0.05,0.3-0.11,0.45-0.15c0.37-0.12,0.74-0.23,1.12-0.32c0.34-0.08,0.68-0.13,1.02-0.19c-0.4,0.07-0.19,0.03,0.07,0
	c0.21-0.02,0.42-0.03,0.64-0.05c0.72-0.03,1.42,0.03,2.14,0.08c-0.61-0.04-0.03,0,0.12,0.03c0.18,0.03,0.34,0.07,0.52,0.1
	c0.38,0.08,0.76,0.18,1.13,0.3c0.33,0.1,0.64,0.22,0.95,0.34c0.26,0.09-0.44-0.21-0.07-0.03c0.07,0.03,0.14,0.07,0.21,0.1
	c0.18,0.09,0.36,0.17,0.54,0.26c0.32,0.17,0.64,0.35,0.95,0.54c0.17,0.11,0.34,0.22,0.51,0.34c0.12,0.09,0.63,0.49,0.2,0.14
	c0.62,0.5,1.19,1.02,1.72,1.61c0.13,0.15,0.26,0.29,0.38,0.44c0.05,0.07,0.11,0.13,0.17,0.2c0.29,0.34-0.18-0.25-0.02-0.02
	c0.26,0.35,0.5,0.7,0.73,1.06c0.26,0.42,0.5,0.85,0.72,1.28c0.12,0.24,0.23,0.48,0.33,0.72c0.04,0.08,0.14,0.34-0.02-0.05
	c0.06,0.14,0.12,0.27,0.17,0.42c0.39,1.03,0.69,2.1,0.9,3.18c0.05,0.28,0.1,0.55,0.14,0.83c0.02,0.11,0.03,0.22,0.05,0.34
	c-0.06-0.43,0,0.09,0.01,0.17c0.08,0.66,0.12,1.32,0.14,1.97c0.04,1.38-0.04,2.75-0.19,4.12c-0.2,1.84,2.84,2.69,3.58,0.97
	c0.31-0.73,0.65-1.43,1.05-2.11c0.19-0.32,0.39-0.63,0.6-0.93c0.1-0.15,0.21-0.3,0.31-0.44c-0.2,0.26,0.09-0.1,0.14-0.16
	c0.44-0.52,0.91-1,1.42-1.44c0.12-0.11,0.25-0.21,0.38-0.31c-0.35,0.27,0.07-0.05,0.12-0.09c0.27-0.18,0.53-0.36,0.8-0.52
	c0.27-0.16,0.53-0.31,0.82-0.44c0.14-0.07,0.28-0.13,0.41-0.2c0.46-0.21-0.37,0.11,0.11-0.04c0.58-0.19,1.13-0.39,1.73-0.52
	c0.29-0.07,0.59-0.11,0.88-0.16c-0.52,0.07,0.38-0.03,0.53-0.03c0.59-0.03,1.18-0.03,1.77,0.02c0.15,0.01,0.3,0.03,0.45,0.04
	c0.49,0.04-0.41-0.09,0.07,0.01c0.29,0.06,0.59,0.1,0.87,0.17c0.58,0.13,1.14,0.3,1.69,0.5c0.14,0.05,0.28,0.11,0.41,0.16
	c-0.46-0.18,0.01,0.01,0.08,0.04c0.26,0.13,0.53,0.26,0.79,0.4c0.51,0.28,0.99,0.61,1.48,0.94c0.41,0.27-0.3-0.26,0.07,0.05
	c0.11,0.09,0.23,0.19,0.34,0.28c0.22,0.19,0.44,0.39,0.64,0.59c0.18,0.18,0.35,0.35,0.51,0.53c0.09,0.11,0.19,0.22,0.28,0.33
	c0.34,0.4-0.02-0.07,0.15,0.19c0.29,0.45,0.59,0.89,0.85,1.36c0.14,0.26,0.27,0.53,0.38,0.8c-0.19-0.45,0,0.02,0.03,0.09
	c0.06,0.19,0.13,0.38,0.19,0.57c0.1,0.34,0.19,0.69,0.26,1.03c0.02,0.1,0.04,0.2,0.05,0.3c0.02,0.1,0.04,0.2,0.05,0.31
	c-0.03-0.26-0.03-0.27-0.01-0.04c0.04,0.77,0.08,1.51,0,2.28c0,0.06-0.07,0.62-0.01,0.17c-0.03,0.17-0.05,0.34-0.09,0.52
	c-0.07,0.42-0.17,0.83-0.29,1.23c-0.26,0.96-0.49,1.53-0.86,2.28c-0.44,0.93-0.25,2.07,0.69,2.62c0.84,0.49,2.17,0.25,2.62-0.68
	c1.49-3.11,2.21-6.49,1.54-9.91c-0.54-2.77-2.11-5.37-4.23-7.22c-4.43-3.87-10.83-4.93-16.19-2.42c-3.33,1.56-5.81,4.57-7.23,7.91
	c1.19,0.32,2.39,0.64,3.57,0.97c0.52-4.73,0.02-9.68-2.22-13.94c-1.76-3.34-4.62-5.95-8.12-7.36c-6.8-2.75-14.57,0.3-18.13,6.6
	c-2.71,4.8-2.87,10.49-2.05,15.81c1.24-0.34,2.47-0.68,3.7-1.02c-0.63-3.65-2.25-7.34-5.16-9.74c-2.53-2.08-5.68-3.18-8.97-3.14
	c-6.06,0.07-12.4,3.9-13.93,10.03c-1.01,4.08,0.33,8.25,2.66,11.63c0.59,0.85,1.69,1.23,2.63,0.68
	C1437.14,463.93,1437.57,462.66,1436.97,461.8z"/>
<path class="st1" d="M330.01,454.68c-4.88-2.27-10.35-3.61-15.7-2.38c-4.09,0.94-7.64,3.48-9.98,6.95
	c-2.16,3.22-3.22,7.24-2.98,11.11c0.25,4.11,1.9,8.06,4.82,10.99c3.54,3.55,8.46,5.17,13.38,5.53c0.71,0.05,1.43,0.07,2.14,0.08
	c-0.26-0.97-0.53-1.95-0.79-2.93c-4.23,2.69-7.86,6.51-9.22,11.43c-1.11,4.03-0.53,8.31,1.29,12.04
	c3.61,7.35,12.15,12.04,20.24,9.75c5.85-1.66,10.19-6.4,13.16-11.5c-0.97-0.26-1.95-0.53-2.93-0.79c-0.32,3.67,0.28,7.52,2.27,10.68
	c1.74,2.77,4.34,4.78,7.38,5.96c5.72,2.2,12.77,0.91,17.09-3.52c2.84-2.91,4.16-6.85,4.26-10.86c-1.04,0-2.1,0-3.14,0
	c0.36,3.83,1.6,7.54,4.22,10.43c2.08,2.28,4.98,3.85,8.02,4.39c6.33,1.12,13.04-1.55,16.53-7.02c2.28-3.57,2.76-7.85,2.15-11.97
	c-0.96,0.4-1.91,0.81-2.87,1.21c4.41,6.88,12.45,13.16,21.09,11.32c2.28-0.49,4.41-1.58,6.25-3c1.54-1.18,2.98-2.44,4.09-4.08
	c1.98-2.92,2.83-6.69,2.61-10.19c-0.27-4.15-2.04-8.11-5.55-10.49c-0.13,0.96-0.25,1.92-0.38,2.87c3.92-1.3,7.39-3.67,9.67-7.15
	c1.94-2.95,2.85-6.59,2.69-10.1c-0.33-7.21-5-14.01-12.2-15.79c-5.08-1.26-10.32,0.08-14.92,2.33c0.77,0.59,1.54,1.18,2.31,1.77
	c1.04-4.48,1.3-9.29-0.13-13.72c-1.14-3.54-3.3-6.62-6.35-8.77c-5.82-4.11-13.88-3.61-19.62,0.37c-4.05,2.81-6.82,6.92-8.55,11.5
	c1.03,0.14,2.06,0.28,3.09,0.42c0.48-5.78-1.83-12.03-7.31-14.67c-4.66-2.25-10.4-1.35-13.7,2.78c-2.35,2.93-3.18,6.68-3.2,10.38
	c1.03-0.14,2.06-0.28,3.09-0.42c-0.92-4.45-2.92-8.85-6.38-11.9c-2.9-2.55-6.54-3.99-10.39-4.24c-7.06-0.45-14.72,3.36-17.74,9.93
	c-1.92,4.17-1.81,8.83-0.12,13.06c0.31,0.79,1.05,1.34,1.93,1.09c0.75-0.2,1.42-1.14,1.1-1.93c-0.38-0.95-0.69-1.93-0.91-2.93
	c-0.04-0.2-0.09-0.41-0.12-0.62c-0.02-0.12-0.04-0.25-0.06-0.37c-0.08-0.41,0.03,0.34-0.01-0.07c-0.04-0.43-0.09-0.88-0.1-1.31
	c-0.02-0.42-0.01-0.85,0.02-1.27c0.01-0.19,0.03-0.38,0.04-0.57c0.01-0.11,0.03-0.22,0.04-0.33c-0.05,0.47,0.01-0.04,0.02-0.13
	c0.13-0.79,0.33-1.56,0.6-2.32c0.06-0.17,0.13-0.34,0.19-0.5c0.13-0.35-0.15,0.32,0.01-0.02c0.04-0.09,0.09-0.19,0.13-0.29
	c0.17-0.37,0.36-0.73,0.57-1.08c0.19-0.32,0.38-0.63,0.6-0.93c0.12-0.18,0.25-0.34,0.37-0.51c-0.25,0.35,0.13-0.15,0.21-0.26
	c0.5-0.59,1.05-1.15,1.64-1.66c0.16-0.14,0.32-0.28,0.49-0.41c0.05-0.04,0.11-0.09,0.17-0.13c0.29-0.24-0.29,0.2,0.02-0.02
	c0.35-0.25,0.69-0.5,1.06-0.73c0.67-0.42,1.36-0.8,2.08-1.13c0.1-0.04,0.2-0.09,0.3-0.13c0.33-0.15-0.24,0.1-0.03,0.01
	c0.18-0.08,0.37-0.15,0.56-0.22c0.41-0.15,0.82-0.29,1.23-0.41c0.77-0.23,1.55-0.4,2.33-0.53c0.11-0.02,0.21-0.03,0.33-0.05
	c-0.4,0.06-0.18,0.02-0.09,0.02c0.21-0.02,0.43-0.05,0.65-0.07c0.4-0.03,0.8-0.05,1.2-0.05c0.4-0.01,0.8,0.01,1.2,0.03
	c0.2,0.01,0.4,0.03,0.6,0.04c0.13,0.01,0.88,0.11,0.4,0.04c0.8,0.13,1.58,0.29,2.36,0.52c0.39,0.12,0.77,0.25,1.15,0.4
	c0.1,0.04,0.21,0.08,0.31,0.13c-0.35-0.14-0.14-0.06-0.07-0.03c0.24,0.11,0.47,0.22,0.71,0.34c0.75,0.38,1.45,0.82,2.13,1.32
	c0.06,0.04,0.37,0.29,0.06,0.04c0.09,0.07,0.18,0.15,0.27,0.22c0.21,0.18,0.42,0.36,0.63,0.54c0.36,0.33,0.7,0.67,1.02,1.04
	c0.18,0.2,0.36,0.4,0.53,0.61c0.07,0.08,0.13,0.16,0.2,0.25c-0.24-0.3,0.1,0.13,0.14,0.19c0.31,0.42,0.6,0.86,0.87,1.31
	c0.31,0.51,0.59,1.03,0.85,1.57c0.31,0.65,0.34,0.71,0.58,1.35c0.48,1.28,0.85,2.61,1.13,3.96c0.36,1.76,3.08,1.32,3.09-0.42
	c0.01-0.84,0.04-1.67,0.14-2.49c0.04-0.32,0.02-0.11,0-0.05c0.02-0.1,0.03-0.2,0.05-0.3c0.03-0.18,0.06-0.35,0.09-0.52
	c0.07-0.36,0.15-0.71,0.24-1.06c0.09-0.34,0.19-0.67,0.3-1c0.05-0.15,0.1-0.29,0.16-0.44c0.03-0.08,0.07-0.17,0.1-0.24
	c-0.05,0.13-0.08,0.17-0.01,0.02c0.28-0.58,0.56-1.15,0.92-1.68c0.08-0.11,0.15-0.23,0.24-0.34c0.04-0.07,0.09-0.13,0.14-0.19
	c-0.01,0.01-0.18,0.23-0.07,0.09c0.19-0.23,0.39-0.46,0.59-0.68c0.18-0.19,0.36-0.36,0.56-0.53c0.09-0.08,0.19-0.16,0.29-0.25
	c0.2-0.18-0.03,0.02-0.07,0.04c0.07-0.05,0.14-0.1,0.21-0.16c0.43-0.3,0.88-0.57,1.35-0.8c0.11-0.05,0.22-0.1,0.33-0.15
	c-0.42,0.19,0.01,0,0.1-0.03c0.24-0.09,0.48-0.17,0.73-0.24c0.25-0.07,0.49-0.13,0.74-0.17c0.11-0.02,0.24-0.04,0.35-0.06
	c0.18-0.03-0.18,0.02-0.16,0.02c0.08-0.01,0.17-0.02,0.25-0.03c0.51-0.04,1.02-0.06,1.53-0.02c0.14,0.01,0.27,0.03,0.41,0.03
	c0.36,0.02-0.24-0.05,0.04,0c0.27,0.05,0.54,0.09,0.81,0.15c0.51,0.12,1,0.29,1.49,0.47c0.26,0.09-0.29-0.14,0.06,0.03
	c0.11,0.06,0.23,0.1,0.34,0.16c0.25,0.13,0.51,0.27,0.75,0.41c0.21,0.13,0.43,0.26,0.63,0.41c0.12,0.08,0.24,0.17,0.35,0.25
	c-0.28-0.2-0.01-0.01,0.11,0.09c0.43,0.36,0.83,0.75,1.2,1.17c0.09,0.1,0.18,0.2,0.26,0.3c0.09,0.12,0.25,0.34,0.08,0.09
	c0.18,0.25,0.36,0.51,0.53,0.77c0.18,0.29,0.35,0.58,0.51,0.89c0.08,0.14,0.15,0.29,0.22,0.44c0.04,0.09,0.25,0.59,0.12,0.25
	c0.27,0.69,0.49,1.39,0.66,2.11c0.08,0.36,0.14,0.72,0.2,1.08c0.01,0.07,0.05,0.31,0,0c0.01,0.12,0.03,0.24,0.04,0.36
	c0.02,0.19,0.03,0.38,0.04,0.58c0.06,0.9,0.03,1.81-0.04,2.7c-0.07,0.77,0.64,1.46,1.36,1.54c0.82,0.1,1.44-0.37,1.72-1.12
	c0.64-1.71,1.65-3.68,2.84-5.36c0.14-0.19,0.28-0.39,0.42-0.58c-0.18,0.24,0.18-0.23,0.24-0.29c0.31-0.37,0.62-0.73,0.95-1.08
	c0.61-0.64,1.26-1.23,1.94-1.79c0.04-0.03,0.39-0.3,0.09-0.07c0.07-0.05,0.14-0.11,0.2-0.15c0.17-0.12,0.34-0.25,0.52-0.37
	c0.36-0.25,0.73-0.48,1.11-0.7c0.34-0.19,0.68-0.38,1.02-0.55c0.18-0.09,0.36-0.18,0.55-0.26c0.09-0.04,0.18-0.08,0.27-0.12
	c0.11-0.04,0.07-0.03-0.1,0.04c0.07-0.03,0.15-0.06,0.22-0.09c0.74-0.27,1.48-0.52,2.25-0.7c0.36-0.08,0.71-0.15,1.07-0.21
	c0.09-0.02,0.19-0.03,0.29-0.04c0.37-0.07-0.26,0.03-0.02,0c0.21-0.02,0.41-0.05,0.62-0.07c0.75-0.06,1.5-0.07,2.25-0.03
	c0.19,0.01,0.37,0.03,0.56,0.04c0.11,0.01,0.71,0.1,0.25,0.02c0.39,0.06,0.77,0.13,1.14,0.21c0.74,0.17,1.46,0.39,2.17,0.66
	c0.07,0.03,0.14,0.05,0.2,0.08c0.36,0.14-0.31-0.15,0.03,0.02c0.15,0.07,0.3,0.14,0.45,0.21c0.35,0.17,0.69,0.35,1.02,0.55
	c0.32,0.19,0.63,0.39,0.94,0.6c0.14,0.09,0.27,0.2,0.41,0.3c0.19,0.14-0.29-0.24-0.01-0.01c0.09,0.07,0.18,0.14,0.26,0.21
	c0.6,0.5,1.16,1.05,1.66,1.64c0.12,0.13,0.22,0.27,0.34,0.4c0.26,0.3-0.19-0.27,0.04,0.05c0.04,0.07,0.09,0.13,0.14,0.19
	c0.26,0.35,0.49,0.71,0.72,1.09c0.19,0.31,0.36,0.63,0.53,0.96c0.09,0.18,0.18,0.37,0.27,0.56c0.06,0.11,0.11,0.23,0.15,0.34
	c-0.11-0.25-0.02-0.04,0.04,0.09c0.36,0.92,0.65,1.87,0.86,2.84c0.06,0.25,0.11,0.5,0.15,0.75c0.02,0.14,0.05,0.27,0.07,0.42
	c0.01,0.07,0.07,0.49,0.02,0.15c0.07,0.53,0.12,1.07,0.14,1.61c0.06,1.21,0.03,2.43-0.09,3.63c-0.12,1.22-0.33,2.39-0.63,3.75
	c-0.32,1.39,1.07,2.38,2.31,1.77c1.94-0.95,4.07-1.73,6.35-2.15c0.24-0.04,0.47-0.08,0.71-0.11c-0.34,0.05,0.33-0.04,0.41-0.04
	c0.49-0.05,0.98-0.08,1.48-0.09c0.43-0.01,0.86,0.01,1.29,0.03c0.21,0.01,0.42,0.03,0.63,0.05c0.12,0.01,0.25,0.03,0.37,0.04
	c-0.4-0.05-0.02,0,0.07,0.02c0.86,0.15,1.7,0.35,2.53,0.64c0.18,0.07,0.36,0.14,0.54,0.2c0.08,0.03,0.28,0.12-0.06-0.03
	c0.1,0.04,0.21,0.09,0.31,0.14c0.37,0.17,0.74,0.36,1.1,0.57c0.32,0.19,0.63,0.38,0.94,0.59c0.15,0.1,0.3,0.21,0.45,0.32
	c0.31,0.22-0.26-0.22,0.03,0.02c0.08,0.07,0.17,0.14,0.25,0.21c0.58,0.49,1.13,1.03,1.62,1.61c0.13,0.15,0.25,0.31,0.38,0.46
	c0.06,0.08,0.21,0.29-0.01-0.02c0.06,0.07,0.11,0.14,0.16,0.22c0.24,0.34,0.47,0.68,0.69,1.04c0.4,0.65,0.74,1.33,1.05,2.03
	c-0.18-0.41,0.05,0.13,0.09,0.23c0.07,0.17,0.13,0.34,0.19,0.51c0.13,0.38,0.25,0.77,0.35,1.15c0.09,0.35,0.18,0.71,0.25,1.07
	c0.03,0.18,0.07,0.36,0.1,0.54c0.02,0.11,0.03,0.21,0.05,0.32c-0.07-0.43-0.01-0.08,0,0.02c0.08,0.79,0.13,1.57,0.1,2.36
	c-0.01,0.38-0.03,0.77-0.07,1.15c-0.01,0.12-0.09,0.72-0.02,0.24c-0.03,0.22-0.07,0.44-0.1,0.65c-0.14,0.77-0.34,1.52-0.58,2.25
	c-0.06,0.18-0.12,0.35-0.19,0.52c-0.04,0.1-0.27,0.64-0.09,0.25c-0.17,0.37-0.34,0.75-0.54,1.11c-0.21,0.4-0.45,0.79-0.7,1.17
	c-0.13,0.19-0.26,0.38-0.39,0.57c-0.04,0.06-0.28,0.37-0.03,0.05c-0.07,0.09-0.14,0.18-0.22,0.27c-0.6,0.74-1.28,1.42-2.01,2.03
	c-0.08,0.07-0.16,0.13-0.24,0.19c-0.31,0.26,0.13-0.08-0.12,0.09c-0.2,0.14-0.41,0.3-0.62,0.43c-0.43,0.29-0.88,0.56-1.33,0.81
	c-0.47,0.26-0.96,0.5-1.45,0.71c0.06-0.03,0.28-0.11-0.01,0.01c-0.15,0.06-0.3,0.12-0.46,0.18c-0.29,0.11-0.58,0.21-0.88,0.31
	c-1.33,0.44-1.51,2.1-0.37,2.87c0.49,0.33,1.01,0.78,1.53,1.36c0.12,0.14,0.24,0.27,0.35,0.42c-0.13-0.17,0.14,0.2,0.18,0.25
	c0.23,0.32,0.43,0.66,0.62,1c0.39,0.72,0.51,1,0.76,1.82c0.11,0.36,0.21,0.72,0.29,1.09c0.07,0.31,0.18,0.91,0.2,1.07
	c0.36,2.84-0.16,5.95-1.54,8.44c-0.18,0.32-0.37,0.63-0.57,0.93c-0.1,0.15-0.2,0.3-0.31,0.44c-0.11,0.14-0.01,0.01,0.01-0.02
	c-0.08,0.1-0.16,0.2-0.24,0.29c-0.23,0.27-0.47,0.52-0.73,0.77c-0.13,0.12-0.26,0.24-0.39,0.35c-0.06,0.05-0.12,0.09-0.17,0.14
	c-0.07,0.06-0.08,0.06-0.02,0.02c0.15-0.11,0.05-0.04-0.27,0.21c-1.55,1.3-3.13,2.46-5.08,3.09c-3.37,1.08-6.86,0.46-9.97-1.19
	c-3.62-1.92-6.63-4.95-8.81-8.35c-0.42-0.65-1.23-0.96-1.96-0.64c-0.77,0.34-1.03,1.06-0.91,1.85c0.07,0.49-0.02-0.18,0.02,0.12
	c0.01,0.1,0.02,0.2,0.03,0.3c0.02,0.23,0.04,0.45,0.06,0.67c0.03,0.46,0.05,0.91,0.05,1.38c0,0.4-0.02,0.79-0.04,1.18
	c-0.02,0.23-0.04,0.45-0.06,0.67c-0.01,0.07-0.04,0.31,0.01-0.02c-0.02,0.13-0.04,0.26-0.06,0.39c-0.13,0.75-0.31,1.5-0.55,2.22
	c-0.06,0.18-0.12,0.35-0.19,0.52c-0.03,0.09-0.26,0.6-0.09,0.24c-0.15,0.35-0.32,0.69-0.5,1.02c-0.16,0.29-0.32,0.58-0.51,0.86
	c-0.1,0.17-0.21,0.33-0.32,0.48c-0.07,0.09-0.42,0.56-0.17,0.24c-0.42,0.54-0.88,1.05-1.38,1.51c-0.25,0.23-0.51,0.45-0.77,0.67
	c-0.34,0.29,0.13-0.08-0.17,0.13c-0.15,0.11-0.3,0.22-0.46,0.33c-0.57,0.39-1.17,0.74-1.78,1.04c-0.13,0.07-0.27,0.13-0.4,0.19
	c-0.08,0.04-0.17,0.08-0.25,0.11c-0.2,0.09,0.27-0.11,0.07-0.03c-0.33,0.13-0.65,0.25-0.99,0.36c-0.65,0.21-1.32,0.38-1.99,0.51
	c-0.16,0.03-0.33,0.05-0.49,0.08c-0.24,0.04,0.27-0.03-0.13,0.02c-0.37,0.04-0.73,0.07-1.1,0.08c-0.66,0.03-1.32,0.01-1.98-0.06
	c-0.08-0.01-0.58-0.07-0.34-0.04c0.25,0.03-0.25-0.04-0.34-0.05c-0.34-0.06-0.68-0.13-1.02-0.22c-0.3-0.08-0.6-0.17-0.9-0.26
	c-0.15-0.05-0.31-0.1-0.47-0.17c-0.09-0.03-0.17-0.07-0.26-0.1c-0.3-0.11,0.29,0.14-0.03-0.01c-0.61-0.28-1.19-0.58-1.76-0.94
	c-0.29-0.18-0.56-0.37-0.83-0.58c0.27,0.2-0.02-0.02-0.13-0.1c-0.16-0.13-0.32-0.27-0.47-0.41c-0.3-0.27-0.58-0.57-0.85-0.87
	c-0.13-0.15-0.26-0.3-0.39-0.45c-0.05-0.06-0.1-0.13-0.15-0.19c0.24,0.31-0.01-0.02-0.04-0.07c-0.49-0.7-0.93-1.42-1.3-2.2
	c-0.04-0.1-0.09-0.2-0.14-0.3c-0.13-0.27,0.05,0.13-0.02-0.05c-0.09-0.23-0.18-0.46-0.26-0.69c-0.15-0.43-0.29-0.88-0.41-1.33
	c-0.13-0.47-0.23-0.95-0.32-1.43c-0.13-0.69-0.13-0.71-0.19-1.43c-0.08-0.84-0.67-1.57-1.57-1.57c-0.87,0-1.55,0.72-1.57,1.57
	c-0.01,0.43-0.03,0.86-0.07,1.29c-0.01,0.09-0.02,0.19-0.03,0.28c0-0.01-0.05,0.45-0.02,0.2c0.03-0.24-0.03,0.2-0.03,0.2
	c-0.02,0.13-0.04,0.26-0.07,0.4c-0.14,0.76-0.33,1.51-0.59,2.23c-0.07,0.19-0.14,0.39-0.22,0.58c-0.03,0.07-0.13,0.27,0.02-0.04
	c-0.03,0.07-0.07,0.15-0.1,0.22c-0.17,0.36-0.35,0.71-0.54,1.06c-0.18,0.3-0.36,0.59-0.55,0.89c-0.09,0.13-0.18,0.25-0.27,0.37
	c-0.16,0.23,0.01-0.01,0.04-0.05c-0.07,0.09-0.14,0.18-0.21,0.26c-0.45,0.54-0.95,1.05-1.48,1.51c-0.11,0.09-0.23,0.19-0.34,0.28
	c-0.27,0.24,0.2-0.15,0.01-0.01c-0.07,0.05-0.15,0.11-0.22,0.16c-0.26,0.19-0.54,0.37-0.82,0.55c-0.28,0.17-0.57,0.34-0.86,0.48
	c-0.16,0.08-0.33,0.16-0.49,0.24c-0.11,0.05-0.63,0.27-0.23,0.1c-0.63,0.25-1.26,0.47-1.92,0.64c-0.3,0.08-0.61,0.14-0.91,0.2
	c-0.18,0.03-0.36,0.07-0.54,0.09c-0.43,0.07,0.21-0.01-0.23,0.03c-0.67,0.07-1.35,0.1-2.02,0.09c-0.31-0.01-0.62-0.02-0.93-0.05
	c-0.18-0.02-0.36-0.04-0.55-0.05c-0.09-0.01-0.31-0.04,0.09,0.02c-0.11-0.02-0.21-0.03-0.32-0.05c-0.67-0.11-1.33-0.26-1.97-0.46
	c-0.3-0.09-0.59-0.19-0.88-0.3c-0.09-0.03-0.65-0.27-0.23-0.09c-0.17-0.07-0.34-0.15-0.49-0.22c-0.61-0.29-1.2-0.63-1.76-1
	c-0.14-0.09-0.27-0.19-0.4-0.29c-0.36-0.26,0.12,0.11-0.17-0.12c-0.27-0.23-0.54-0.45-0.79-0.69c-0.24-0.23-0.48-0.47-0.7-0.72
	c-0.1-0.11-0.2-0.23-0.3-0.34c-0.06-0.07-0.12-0.15-0.18-0.22c-0.08-0.1,0.17,0.24-0.03-0.04c-0.47-0.65-0.89-1.33-1.24-2.05
	c-0.04-0.09-0.09-0.18-0.13-0.27c-0.02-0.04-0.18-0.41-0.09-0.2c0.09,0.23-0.05-0.14-0.06-0.15c-0.04-0.12-0.09-0.23-0.13-0.35
	c-0.14-0.4-0.26-0.8-0.37-1.21c-0.12-0.45-0.21-0.9-0.29-1.35c-0.02-0.09-0.03-0.18-0.04-0.27c-0.02-0.12-0.02-0.09,0.01,0.08
	c-0.01-0.07-0.02-0.14-0.03-0.2c-0.03-0.26-0.05-0.51-0.07-0.77c-0.07-1.05-0.05-2.1,0.04-3.15c0.14-1.6-2.18-2.07-2.93-0.79
	c-1.4,2.41-2.88,4.45-4.93,6.35c-0.97,0.91-1.5,1.32-2.58,2c-0.42,0.27-0.85,0.51-1.3,0.74c-0.2,0.1-0.39,0.2-0.59,0.29
	c-0.12,0.05-0.24,0.1-0.36,0.16c0.36-0.15-0.15,0.06-0.22,0.08c-0.89,0.34-1.8,0.6-2.73,0.77c-0.11,0.02-0.24,0.04-0.36,0.06
	c-0.4,0.07,0.35-0.03-0.05,0.01c-0.24,0.02-0.47,0.05-0.7,0.07c-0.47,0.03-0.93,0.04-1.4,0.02c-0.42-0.02-0.84-0.05-1.27-0.1
	c-0.4-0.04,0.35,0.07-0.04-0.01c-0.11-0.02-0.23-0.04-0.34-0.05c-0.22-0.04-0.45-0.09-0.67-0.14c-0.41-0.09-0.82-0.2-1.21-0.33
	c-0.22-0.07-0.43-0.14-0.65-0.22c-0.13-0.05-0.86-0.35-0.47-0.18c-0.8-0.36-1.57-0.76-2.32-1.23c-0.35-0.23-0.7-0.47-1.04-0.72
	c-0.06-0.04-0.36-0.29-0.04-0.03c-0.09-0.07-0.18-0.14-0.27-0.21c-0.18-0.14-0.35-0.29-0.52-0.44c-0.69-0.61-1.33-1.27-1.91-1.98
	c-0.07-0.08-0.43-0.56-0.18-0.22c-0.14-0.18-0.28-0.37-0.41-0.55c-0.26-0.38-0.51-0.76-0.75-1.16c-0.21-0.36-0.42-0.73-0.6-1.11
	c-0.11-0.2-0.2-0.41-0.3-0.62c-0.03-0.07-0.18-0.43-0.02-0.04c-0.05-0.12-0.1-0.25-0.15-0.37c-0.32-0.84-0.58-1.7-0.76-2.58
	c-0.04-0.23-0.09-0.45-0.13-0.68c-0.01-0.08-0.02-0.15-0.03-0.23c-0.07-0.39,0.03,0.36-0.01-0.04c-0.04-0.46-0.08-0.92-0.09-1.38
	c-0.01-0.46,0-0.93,0.03-1.39c0.02-0.19,0.03-0.39,0.05-0.58c0.01-0.08,0.08-0.48,0.01-0.05c0.03-0.15,0.05-0.31,0.08-0.47
	c0.19-1.04,0.49-2.05,0.89-3.03c-0.14,0.34,0.14-0.31,0.2-0.43c0.13-0.27,0.27-0.53,0.42-0.8c0.28-0.5,0.59-0.99,0.93-1.46
	c0.08-0.11,0.16-0.22,0.24-0.33c0.11-0.14,0.11-0.15,0.01-0.01c0.05-0.07,0.12-0.15,0.18-0.22c0.18-0.22,0.36-0.44,0.55-0.65
	c0.42-0.48,0.88-0.94,1.34-1.38c1.12-1.05,2-1.7,3.32-2.53c1.29-0.82,0.8-2.92-0.79-2.93c-0.69,0-1.38-0.02-2.07-0.07
	c-0.32-0.02-0.63-0.05-0.95-0.08c-0.17-0.02-0.33-0.04-0.5-0.05c-0.19-0.02,0.05,0,0.07,0.01c-0.09-0.01-0.19-0.03-0.28-0.04
	c-1.2-0.18-2.39-0.45-3.54-0.83c-0.25-0.08-0.51-0.17-0.76-0.26c-0.13-0.05-0.26-0.1-0.4-0.15c-0.12-0.05-0.42-0.18-0.13-0.05
	c-0.48-0.21-0.96-0.43-1.42-0.69c-0.46-0.25-0.91-0.52-1.34-0.81c-0.2-0.13-0.39-0.27-0.58-0.41c-0.14-0.1-0.23-0.18-0.03-0.02
	c-0.11-0.09-0.23-0.18-0.34-0.27c-0.72-0.6-1.39-1.26-1.98-1.99c-0.08-0.09-0.15-0.19-0.22-0.28c-0.06-0.07,0.18,0.25,0-0.01
	c-0.14-0.2-0.29-0.41-0.43-0.62c-0.25-0.38-0.48-0.76-0.69-1.15c-0.21-0.39-0.4-0.79-0.58-1.2c0.19,0.41-0.06-0.15-0.11-0.31
	c-0.08-0.21-0.15-0.43-0.23-0.64c-0.27-0.85-0.46-1.72-0.61-2.61c-0.05-0.29,0.03,0.32,0.01,0.03c-0.01-0.11-0.03-0.23-0.04-0.33
	c-0.02-0.23-0.04-0.45-0.06-0.68c-0.03-0.43-0.03-0.88-0.03-1.31c0.01-0.43,0.03-0.88,0.08-1.31c0.02-0.17,0.11-0.78,0.03-0.31
	c0.04-0.23,0.07-0.45,0.11-0.67c0.16-0.88,0.39-1.74,0.68-2.58c0.07-0.2,0.14-0.4,0.22-0.59c0.03-0.09,0.07-0.18,0.11-0.27
	c-0.18,0.44-0.01,0.03,0.03-0.07c0.18-0.4,0.37-0.79,0.58-1.17c0.22-0.4,0.45-0.78,0.71-1.16c0.11-0.18,0.24-0.35,0.36-0.52
	c0.06-0.08,0.12-0.15,0.18-0.24c0.13-0.17-0.19,0.24,0.06-0.07c0.56-0.68,1.16-1.32,1.83-1.9c0.16-0.14,0.33-0.27,0.5-0.41
	c0.3-0.24-0.19,0.13,0.03-0.03c0.09-0.07,0.19-0.14,0.28-0.2c0.38-0.27,0.77-0.52,1.18-0.75c0.4-0.23,0.81-0.44,1.23-0.63
	c0.09-0.04,0.19-0.08,0.29-0.13c-0.4,0.18-0.04,0.02,0.06-0.02c0.23-0.09,0.46-0.18,0.69-0.25c0.46-0.15,0.92-0.29,1.4-0.4
	c0.23-0.05,0.47-0.11,0.7-0.15c0.13-0.02,0.26-0.04,0.39-0.07c0.1-0.02,0.58-0.08,0.14-0.02c1.07-0.13,2.14-0.17,3.21-0.12
	c0.27,0.02,0.55,0.03,0.82,0.06c0.15,0.02,0.3,0.03,0.45,0.04c0.07,0.01,0.13,0.02,0.19,0.02c0.24,0.03-0.27-0.04-0.03-0.01
	c0.61,0.09,1.2,0.2,1.79,0.33c1.32,0.3,2.62,0.7,3.88,1.19c0.15,0.05,0.3,0.11,0.44,0.18c0.05,0.02,0.48,0.2,0.29,0.12
	c0.35,0.15,0.7,0.31,1.06,0.47c0.77,0.36,1.7,0.21,2.15-0.56C330.96,456.15,330.78,455.03,330.01,454.68z"/>
<path class="st0" d="M56.57,417.41L56.57,417.41c-6.88-14.16-11.12-29.88-9.65-45.42c0.3-3.17,1.36-6.67,3.06-9.23
	c1.69-2.55,3.82-3.91,6.34-3.6h0c2.32,0.29,4.34,2.06,6.35,4.26l0,0c10.19,11.11,17.01,25.39,19.29,40.41l2.96,0.04
	c2.76-15.32,9.04-29.98,18.2-42.47c1-1.36,2.13-2.66,3.36-3.54c1.21-0.88,2.38-1.24,3.52-1.02c1.31,0.25,2.32,1.2,3.08,2.78
	c0.77,1.59,1.17,3.61,1.34,5.52c2.17,26.1-7.48,51.81-19.4,74.83l0,0c-3.67,7.09-7.28,9.79-10.47,10.24
	c-3.22,0.45-6.68-1.29-10.27-4.78C67.11,438.48,60.67,425.85,56.57,417.41z"/>
<path class="st0" d="M1119.76,584.18L1119.76,584.18c-7.16-14.02-11.72-29.66-10.56-45.22c0.24-3.18,1.23-6.7,2.88-9.29
	c1.64-2.59,3.74-3.99,6.26-3.72l0,0c2.32,0.24,4.38,1.97,6.44,4.14v0c10.41,10.91,17.51,25.05,20.09,40.02l2.96-0.02
	c2.45-15.38,8.44-30.16,17.35-42.83c0.97-1.38,2.08-2.7,3.29-3.61c1.19-0.9,2.35-1.29,3.5-1.09c1.31,0.23,2.34,1.16,3.13,2.72
	c0.8,1.57,1.25,3.58,1.45,5.49c2.69,26.05-6.45,51.95-17.91,75.2v0c-3.52,7.16-7.08,9.93-10.26,10.45
	c-3.21,0.51-6.7-1.16-10.37-4.57C1130.7,605.03,1124.02,592.54,1119.76,584.18z"/>
<path class="st1" d="M347.65,486.48c-0.36-0.52-0.69-1.06-0.96-1.63c-0.06-0.12-0.11-0.24-0.16-0.36c-0.11-0.23-0.01-0.04,0,0.01
	c-0.03-0.07-0.05-0.13-0.08-0.2c-0.1-0.26-0.19-0.52-0.26-0.8c-0.07-0.24-0.12-0.48-0.17-0.73c-0.02-0.13-0.05-0.35-0.01-0.08
	c-0.01-0.14-0.03-0.28-0.04-0.42c-0.01-0.23-0.02-0.46-0.01-0.68c0-0.11,0.01-0.21,0.01-0.31c0.01-0.09,0.08-0.53,0.01-0.13
	c0.08-0.44,0.17-0.86,0.32-1.28c0.03-0.09,0.07-0.18,0.11-0.27c-0.1,0.27-0.03,0.06,0.03-0.07c0.1-0.2,0.2-0.4,0.32-0.58
	c0.1-0.17,0.21-0.33,0.32-0.48c0.2-0.29-0.1,0.1,0.05-0.06c0.08-0.08,0.14-0.17,0.22-0.25c0.29-0.34,0.63-0.63,0.97-0.93
	c0.17-0.15-0.23,0.16,0.04-0.03c0.08-0.05,0.16-0.12,0.24-0.17c0.19-0.13,0.38-0.25,0.58-0.36c0.19-0.11,0.37-0.21,0.57-0.3
	c0.09-0.05,0.18-0.09,0.27-0.13c0.34-0.16-0.16,0.05,0.12-0.05c0.43-0.15,0.84-0.29,1.28-0.4c0.21-0.05,0.43-0.09,0.64-0.13
	c0.18-0.03,0.28-0.04,0.03-0.01c0.13-0.01,0.26-0.03,0.39-0.04c0.45-0.04,0.89-0.04,1.34-0.01c0.1,0,0.21,0.02,0.31,0.03
	c0.05,0,0.11,0.01,0.16,0.02c0.19,0.02-0.27-0.05-0.09-0.01c0.23,0.04,0.45,0.08,0.68,0.13c0.21,0.05,0.42,0.11,0.63,0.18
	c0.1,0.03,0.19,0.06,0.29,0.1c0.05,0.02,0.11,0.04,0.16,0.06c0.16,0.06-0.29-0.14-0.03-0.01c0.4,0.19,0.79,0.39,1.17,0.64
	c0.05,0.04,0.38,0.27,0.23,0.16c-0.14-0.1,0.17,0.14,0.23,0.18c0.2,0.17,0.39,0.36,0.58,0.55c0.1,0.11,0.19,0.21,0.29,0.32
	c0.08,0.09,0.26,0.34,0.1,0.12c0.18,0.25,0.35,0.5,0.51,0.76c0.15,0.26,0.29,0.53,0.42,0.8c0.03,0.06,0.06,0.13,0.1,0.2
	c0.09,0.19-0.11-0.29,0.02,0.05c0.05,0.14,0.11,0.29,0.16,0.43c0.25,0.7,0.42,1.43,0.55,2.17c0.12,0.7,0.98,1.09,1.62,0.92
	c0.75-0.21,1.03-0.91,0.91-1.62c-0.21-1.35-0.29-3.14-0.13-4.71c0.01-0.1,0.02-0.19,0.03-0.29c-0.01,0.05-0.04,0.26,0,0
	c0.03-0.17,0.05-0.34,0.08-0.5c0.06-0.34,0.14-0.68,0.23-1.01c0.08-0.3,0.17-0.6,0.27-0.89c0.05-0.14,0.1-0.29,0.16-0.42
	c0.03-0.07,0.13-0.29,0,0c0.05-0.09,0.08-0.18,0.12-0.27c0.24-0.51,0.51-1,0.83-1.47c0.09-0.12,0.18-0.24,0.27-0.36
	c-0.17,0.23-0.01,0.02,0.07-0.08c0.19-0.22,0.38-0.44,0.59-0.64c0.18-0.18,0.36-0.35,0.56-0.51c0.12-0.1,0.29-0.22,0.07-0.05
	c0.12-0.09,0.24-0.18,0.37-0.26c0.42-0.28,0.86-0.51,1.32-0.73c0.25-0.12-0.23,0.09-0.05,0.02c0.06-0.02,0.12-0.05,0.19-0.07
	c0.1-0.04,0.21-0.07,0.31-0.11c0.25-0.08,0.51-0.16,0.77-0.22c0.23-0.05,0.47-0.09,0.7-0.13c-0.27,0.05-0.13,0.02,0.05,0
	c0.14-0.01,0.29-0.02,0.44-0.03c0.49-0.02,0.97,0.02,1.47,0.05c-0.42-0.03-0.02,0,0.08,0.02c0.12,0.02,0.23,0.05,0.36,0.07
	c0.26,0.05,0.52,0.12,0.77,0.21c0.23,0.07,0.44,0.15,0.65,0.23c0.18,0.06-0.3-0.14-0.05-0.02c0.05,0.02,0.1,0.05,0.14,0.07
	c0.12,0.06,0.25,0.12,0.37,0.18c0.22,0.12,0.44,0.24,0.65,0.37c0.12,0.07,0.23,0.15,0.35,0.23c0.08,0.06,0.43,0.34,0.14,0.1
	c0.43,0.34,0.82,0.7,1.18,1.1c0.09,0.1,0.18,0.2,0.26,0.3c0.03,0.05,0.08,0.09,0.12,0.14c0.2,0.23-0.12-0.17-0.01-0.01
	c0.18,0.24,0.34,0.48,0.5,0.73c0.18,0.29,0.34,0.58,0.49,0.88c0.08,0.16,0.16,0.33,0.23,0.49c0.03,0.05,0.1,0.23-0.01-0.04
	c0.04,0.1,0.08,0.19,0.12,0.29c0.27,0.7,0.47,1.44,0.62,2.18c0.03,0.19,0.07,0.38,0.1,0.57c0.01,0.08,0.02,0.15,0.03,0.23
	c-0.04-0.29,0,0.06,0.01,0.12c0.05,0.45,0.08,0.9,0.1,1.35c0.03,0.94-0.03,1.89-0.13,2.83c-0.14,1.26,1.95,1.85,2.45,0.66
	c0.21-0.5,0.45-0.98,0.72-1.45c0.13-0.22,0.27-0.43,0.41-0.64c0.07-0.1,0.14-0.2,0.21-0.3c-0.14,0.17,0.06-0.07,0.1-0.11
	c0.3-0.35,0.62-0.69,0.97-0.99c0.08-0.07,0.17-0.14,0.26-0.21c-0.24,0.19,0.05-0.04,0.08-0.06c0.19-0.12,0.36-0.24,0.55-0.35
	c0.19-0.11,0.36-0.21,0.56-0.3c0.1-0.05,0.19-0.09,0.28-0.13c0.32-0.15-0.25,0.08,0.08-0.03c0.4-0.13,0.77-0.27,1.19-0.35
	c0.2-0.05,0.4-0.08,0.6-0.11c-0.36,0.05,0.26-0.02,0.36-0.02c0.4-0.02,0.81-0.02,1.21,0.01c0.1,0.01,0.21,0.02,0.31,0.03
	c0.34,0.03-0.28-0.06,0.05,0.01c0.2,0.04,0.4,0.07,0.6,0.12c0.4,0.09,0.78,0.21,1.16,0.34c0.1,0.04,0.19,0.07,0.28,0.11
	c-0.32-0.12,0.01,0,0.05,0.03c0.18,0.09,0.36,0.17,0.54,0.27c0.35,0.19,0.68,0.42,1.01,0.64c0.28,0.18-0.21-0.18,0.05,0.04
	c0.08,0.06,0.16,0.13,0.23,0.19c0.15,0.13,0.3,0.27,0.44,0.41c0.12,0.12,0.24,0.24,0.35,0.36c0.06,0.07,0.13,0.15,0.19,0.23
	c0.23,0.28-0.01-0.05,0.1,0.13c0.2,0.31,0.4,0.61,0.58,0.93c0.1,0.18,0.19,0.36,0.26,0.55c-0.13-0.31,0,0.01,0.02,0.06
	c0.04,0.13,0.09,0.26,0.13,0.39c0.07,0.24,0.13,0.47,0.18,0.71c0.01,0.07,0.03,0.14,0.03,0.21c0.01,0.07,0.03,0.14,0.03,0.21
	c-0.02-0.17-0.02-0.18-0.01-0.03c0.03,0.52,0.05,1.04,0,1.56c0,0.04-0.05,0.42-0.01,0.12c-0.02,0.12-0.03,0.23-0.06,0.35
	c-0.05,0.29-0.12,0.57-0.2,0.84c-0.18,0.66-0.34,1.05-0.59,1.57c-0.3,0.64-0.17,1.42,0.47,1.8c0.58,0.34,1.49,0.17,1.8-0.47
	c1.02-2.14,1.52-4.45,1.06-6.8c-0.37-1.9-1.45-3.68-2.9-4.95c-3.04-2.65-7.43-3.38-11.1-1.66c-2.28,1.07-3.98,3.14-4.96,5.42
	c0.82,0.22,1.64,0.44,2.45,0.66c0.36-3.25,0.01-6.64-1.52-9.56c-1.21-2.29-3.17-4.08-5.57-5.05c-4.66-1.88-9.99,0.2-12.43,4.53
	c-1.86,3.29-1.97,7.19-1.41,10.84c0.85-0.24,1.69-0.47,2.54-0.7c-0.43-2.5-1.54-5.03-3.54-6.68c-1.73-1.43-3.89-2.18-6.15-2.16
	c-4.16,0.05-8.5,2.68-9.55,6.88c-0.69,2.8,0.23,5.65,1.82,7.97c0.4,0.58,1.16,0.85,1.8,0.47
	C347.76,487.93,348.06,487.06,347.65,486.48z"/>
</svg>
