<?xml version="1.0" encoding="utf-8"?>
<!-- Generator: Adobe Illustrator 27.6.1, SVG Export Plug-In . SVG Version: 6.00 Build 0)  -->
<svg version="1.1" id="Layer_1" xmlns="http://www.w3.org/2000/svg" xmlns:xlink="http://www.w3.org/1999/xlink" x="0px" y="0px"
	 viewBox="0 0 1250 739" style="enable-background:new 0 0 1250 739;" xml:space="preserve">
<style type="text/css">
	.st0{fill:none;stroke:#8787C1;stroke-width:3;}
	.st1{fill:#8787C1;}
</style>
<path class="st0" d="M1173.6,582.09L1173.6,582.09c-1.94-1.74-4.58-2.9-7.2-3.19c-2.62-0.29-5.08,0.31-6.87,1.9 M1173.6,582.09
	c4.01,3.58,5.99,8.91,7.7,14.45l4.4-0.24 M1184.22,596.32 M1173.6,582.09 M1184.22,596.32c0.71-4.67,1.44-9.12,3.78-12.78
	c2.32-3.64,6.57-6.09,10.42-5.25l0,0 M1198.42,578.3 M1184.22,596.32 M1198.42,578.3c3.42,0.75,6.04,3.92,7.47,7.58
	c3.14,8.12,1.18,17.66-3.5,25.4c-2.73,4.5-6.51,8.46-10.68,12.23c-2.09,1.89-4.25,3.71-6.42,5.53c-0.09,0.08-0.19,0.16-0.29,0.24
	c-1.69,1.43-3.39,2.85-5.02,4.29c-1.4-1.36-2.81-2.69-4.21-4.01c-2.93-2.76-5.83-5.49-8.52-8.43c-4.23-4.62-7.76-9.56-9.73-15.49v0
	 M1157.52,605.65 M1198.42,578.3 M1157.52,605.65c-1.08-3.23-2.01-7.68-2.09-12.07 M1155.43,593.58c-0.1-5.26,1.03-10.03,4.1-12.77"
	/>
<path class="st0" d="M555.38,279.5L555.38,279.5c2.87-1.85,6.46-2.98,9.84-2.91c3.35,0.07,6.42,1.32,8.51,4.12
	c2.3,3.1,2.99,7.09,2.64,11.29c-0.35,4.2-1.72,8.47-3.36,11.93c-3.97,8.41-10.62,15.41-17.48,22.01l-0.06,0.05l-0.05,0.06
	l-3.02,3.57c-0.73,0.5-2.3,1.47-3.87,2.13c-0.85,0.36-1.61,0.59-2.17,0.64c-0.4,0.04-0.55-0.02-0.59-0.04
	c-2.01-2.38-4.05-4.73-6.09-7.07c-4.98-5.72-9.94-11.41-14.31-17.49l0,0c-4.69-6.51-8.51-14.6-5.65-21.84v0
	c1.16-2.95,3.95-5.4,7.38-6.8c3.42-1.4,7.24-1.64,10.28-0.47l0,0c4.44,1.71,6.7,5.55,8.86,10.16l1.55,3.29l1.22-3.42
	C550.41,284.8,552.31,281.48,555.38,279.5z M545.76,332.36c0,0,0,0,0.01,0.01C545.76,332.36,545.76,332.36,545.76,332.36z"/>
<path class="st1" d="M953.02,105.95c-3.56-1.66-7.56-2.64-11.47-1.74c-3,0.69-5.59,2.54-7.3,5.08c-1.58,2.35-2.35,5.29-2.18,8.12
	c0.19,3.01,1.39,5.89,3.53,8.03c2.59,2.6,6.18,3.78,9.78,4.04c0.51,0.04,1.04,0.05,1.56,0.06c-0.19-0.71-0.39-1.43-0.58-2.14
	c-3.09,1.96-5.74,4.76-6.74,8.36c-0.81,2.94-0.39,6.07,0.95,8.8c2.63,5.37,8.88,8.8,14.79,7.13c4.28-1.21,7.45-4.68,9.62-8.41
	c-0.71-0.19-1.42-0.39-2.14-0.58c-0.23,2.68,0.21,5.5,1.66,7.8c1.27,2.02,3.18,3.5,5.4,4.35c4.18,1.61,9.33,0.66,12.49-2.57
	c2.07-2.12,3.04-5,3.11-7.94c-0.76,0-1.53,0-2.29,0c0.26,2.8,1.17,5.52,3.08,7.62c1.52,1.67,3.64,2.81,5.86,3.21
	c4.63,0.82,9.53-1.13,12.09-5.13c1.67-2.61,2.01-5.74,1.57-8.75c-0.7,0.29-1.4,0.59-2.1,0.89c3.23,5.03,9.1,9.62,15.42,8.28
	c1.67-0.36,3.22-1.15,4.57-2.19c1.12-0.87,2.18-1.79,2.99-2.98c1.44-2.14,2.07-4.89,1.9-7.45c-0.2-3.04-1.48-5.93-4.05-7.67
	c-0.09,0.7-0.18,1.4-0.27,2.1c2.86-0.95,5.4-2.68,7.06-5.23c1.42-2.16,2.09-4.82,1.97-7.39c-0.24-5.27-3.66-10.24-8.92-11.54
	c-3.72-0.92-7.54,0.06-10.9,1.71c0.56,0.43,1.12,0.86,1.68,1.3c0.76-3.27,0.95-6.79-0.09-10.03c-0.83-2.59-2.41-4.84-4.64-6.41
	c-4.26-3.01-10.15-2.64-14.34,0.27c-2.96,2.06-4.99,5.06-6.25,8.4c0.75,0.1,1.5,0.21,2.26,0.31c0.35-4.23-1.34-8.79-5.35-10.73
	c-3.4-1.64-7.6-0.99-10.01,2.04c-1.72,2.14-2.33,4.88-2.34,7.59c0.75-0.1,1.5-0.21,2.26-0.31c-0.68-3.25-2.14-6.47-4.67-8.7
	c-2.13-1.87-4.78-2.92-7.6-3.1c-5.15-0.33-10.76,2.46-12.97,7.26c-1.4,3.05-1.32,6.46-0.08,9.55c0.23,0.58,0.77,0.98,1.41,0.8
	c0.55-0.15,1.03-0.83,0.8-1.41c-0.28-0.7-0.51-1.41-0.67-2.14c-0.03-0.15-0.06-0.3-0.09-0.45c-0.01-0.09-0.02-0.18-0.04-0.27
	c-0.06-0.3,0.02,0.25-0.01-0.05c-0.03-0.32-0.06-0.64-0.07-0.96c-0.01-0.31-0.01-0.62,0.01-0.93c0.01-0.14,0.02-0.28,0.03-0.41
	c0.01-0.08,0.02-0.17,0.03-0.25c-0.03,0.34,0.01-0.03,0.02-0.1c0.09-0.58,0.24-1.14,0.44-1.69c0.04-0.12,0.09-0.25,0.14-0.37
	c0.09-0.25-0.12,0.23,0-0.01c0.03-0.07,0.07-0.14,0.1-0.21c0.12-0.27,0.26-0.53,0.41-0.79c0.14-0.23,0.28-0.46,0.44-0.68
	c0.09-0.13,0.18-0.25,0.27-0.37c-0.18,0.25,0.09-0.11,0.16-0.19c0.36-0.43,0.76-0.84,1.19-1.21c0.12-0.1,0.24-0.2,0.36-0.3
	c0.04-0.03,0.08-0.06,0.12-0.1c0.21-0.17-0.21,0.14,0.02-0.01c0.25-0.18,0.5-0.37,0.77-0.54c0.49-0.31,1-0.59,1.52-0.83
	c0.07-0.03,0.15-0.06,0.22-0.1c0.24-0.11-0.18,0.07-0.02,0.01c0.13-0.06,0.27-0.11,0.4-0.16c0.3-0.11,0.6-0.21,0.9-0.3
	c0.56-0.16,1.14-0.29,1.71-0.39c0.08-0.01,0.16-0.02,0.24-0.04c-0.3,0.04-0.13,0.02-0.07,0.01c0.16-0.02,0.32-0.04,0.47-0.05
	c0.3-0.02,0.59-0.04,0.88-0.04c0.3,0,0.59,0,0.88,0.02c0.14,0.01,0.29,0.02,0.44,0.03c0.09,0.01,0.64,0.08,0.29,0.03
	c0.58,0.09,1.16,0.21,1.72,0.38c0.29,0.08,0.57,0.19,0.84,0.29c0.08,0.03,0.16,0.06,0.23,0.09c-0.25-0.1-0.11-0.04-0.05-0.02
	c0.17,0.08,0.35,0.16,0.52,0.25c0.55,0.28,1.06,0.6,1.56,0.96c0.04,0.03,0.27,0.21,0.04,0.03c0.07,0.05,0.13,0.11,0.2,0.16
	c0.16,0.13,0.31,0.26,0.46,0.4c0.26,0.24,0.51,0.49,0.75,0.76c0.13,0.14,0.26,0.29,0.38,0.45c0.05,0.06,0.1,0.12,0.15,0.18
	c-0.18-0.22,0.07,0.1,0.1,0.14c0.23,0.31,0.44,0.63,0.64,0.96c0.22,0.37,0.43,0.76,0.62,1.15c0.22,0.48,0.24,0.52,0.42,0.99
	c0.36,0.94,0.62,1.91,0.83,2.89c0.26,1.29,2.25,0.97,2.25-0.31c0.01-0.61,0.04-1.22,0.11-1.82c0.03-0.24,0.01-0.08,0-0.04
	c0.01-0.07,0.03-0.15,0.04-0.22c0.02-0.13,0.04-0.25,0.07-0.38c0.05-0.26,0.11-0.52,0.17-0.78c0.07-0.25,0.14-0.49,0.23-0.73
	c0.03-0.11,0.07-0.21,0.11-0.32c0.03-0.06,0.05-0.12,0.07-0.18c-0.03,0.09-0.05,0.12,0,0.01c0.2-0.42,0.41-0.84,0.67-1.23
	c0.06-0.08,0.11-0.16,0.18-0.25c0.03-0.05,0.06-0.09,0.1-0.14c-0.01,0-0.14,0.16-0.05,0.06c0.14-0.17,0.28-0.34,0.43-0.49
	c0.13-0.14,0.27-0.27,0.41-0.39c0.07-0.06,0.14-0.12,0.21-0.18c0.15-0.13-0.02,0.02-0.05,0.03c0.05-0.04,0.1-0.08,0.16-0.12
	c0.31-0.22,0.64-0.42,0.98-0.58c0.08-0.04,0.16-0.07,0.24-0.11c-0.3,0.14,0.01,0,0.08-0.02c0.17-0.06,0.35-0.12,0.53-0.17
	c0.18-0.05,0.36-0.09,0.54-0.12c0.09-0.02,0.18-0.03,0.26-0.04c0.13-0.02-0.13,0.02-0.12,0.02c0.06,0,0.13-0.02,0.19-0.02
	c0.37-0.03,0.74-0.04,1.11-0.02c0.1,0.01,0.2,0.02,0.3,0.02c0.27,0.02-0.18-0.04,0.03,0c0.2,0.04,0.39,0.07,0.59,0.11
	c0.38,0.09,0.73,0.21,1.09,0.34c0.19,0.07-0.21-0.1,0.05,0.02c0.08,0.04,0.16,0.08,0.24,0.12c0.19,0.09,0.37,0.19,0.55,0.3
	c0.16,0.09,0.31,0.19,0.46,0.3c0.09,0.06,0.17,0.12,0.26,0.19c-0.21-0.15-0.01,0,0.08,0.07c0.31,0.26,0.61,0.55,0.88,0.85
	c0.06,0.07,0.13,0.15,0.19,0.22c0.06,0.08,0.18,0.25,0.05,0.06c0.13,0.19,0.27,0.37,0.39,0.56c0.13,0.21,0.26,0.43,0.37,0.65
	c0.06,0.1,0.11,0.21,0.16,0.32c0.04,0.07,0.18,0.43,0.09,0.19c0.19,0.5,0.36,1.01,0.48,1.54c0.06,0.26,0.1,0.53,0.15,0.79
	c0,0.05,0.04,0.23,0,0c0.01,0.09,0.02,0.17,0.03,0.26c0.01,0.14,0.02,0.28,0.03,0.43c0.04,0.66,0.02,1.32-0.03,1.98
	c-0.05,0.56,0.47,1.07,1,1.13c0.6,0.07,1.05-0.27,1.26-0.82c0.47-1.25,1.2-2.69,2.07-3.92c0.1-0.14,0.21-0.28,0.31-0.42
	c-0.13,0.18,0.14-0.16,0.18-0.21c0.22-0.27,0.45-0.54,0.69-0.79c0.45-0.47,0.92-0.9,1.42-1.31c0.04-0.02,0.28-0.22,0.07-0.05
	c0.05-0.04,0.1-0.08,0.15-0.11c0.12-0.09,0.25-0.18,0.37-0.27c0.27-0.18,0.54-0.35,0.81-0.51c0.25-0.14,0.5-0.28,0.75-0.4
	c0.13-0.06,0.27-0.13,0.4-0.19c0.07-0.03,0.13-0.06,0.2-0.09c0.08-0.03,0.05-0.02-0.07,0.03c0.05-0.02,0.11-0.04,0.16-0.06
	c0.54-0.2,1.08-0.38,1.64-0.51c0.26-0.06,0.52-0.11,0.79-0.16c0.06-0.01,0.13-0.02,0.2-0.03c0.28-0.05-0.19,0.02-0.01,0
	c0.15-0.02,0.3-0.04,0.45-0.05c0.55-0.04,1.1-0.05,1.65-0.02c0.14,0.01,0.27,0.02,0.41,0.03c0.08,0.01,0.51,0.07,0.18,0.02
	c0.28,0.04,0.56,0.09,0.83,0.15c0.54,0.12,1.07,0.28,1.59,0.48c0.05,0.02,0.1,0.04,0.15,0.06c0.26,0.1-0.23-0.11,0.02,0.01
	c0.11,0.05,0.22,0.1,0.33,0.15c0.25,0.12,0.5,0.26,0.75,0.4c0.23,0.14,0.46,0.29,0.68,0.44c0.1,0.07,0.2,0.14,0.3,0.22
	c0.14,0.1-0.21-0.18,0,0c0.06,0.05,0.13,0.1,0.19,0.16c0.43,0.37,0.84,0.77,1.21,1.2c0.09,0.1,0.16,0.2,0.25,0.29
	c0.19,0.22-0.14-0.2,0.02,0.04c0.04,0.05,0.07,0.09,0.11,0.14c0.18,0.26,0.36,0.52,0.52,0.8c0.14,0.23,0.27,0.46,0.39,0.7
	c0.07,0.13,0.14,0.27,0.2,0.41c0.04,0.08,0.08,0.17,0.11,0.25c-0.08-0.18-0.01-0.03,0.03,0.07c0.27,0.68,0.48,1.37,0.63,2.08
	c0.04,0.18,0.07,0.36,0.11,0.55c0.01,0.1,0.03,0.2,0.04,0.31c0.01,0.05,0.05,0.36,0.02,0.11c0.05,0.39,0.09,0.78,0.11,1.18
	c0.04,0.89,0.02,1.77-0.07,2.66c-0.08,0.89-0.24,1.75-0.46,2.74c-0.23,1.01,0.78,1.74,1.68,1.3c1.42-0.7,2.98-1.27,4.65-1.57
	c0.17-0.03,0.34-0.06,0.52-0.08c-0.25,0.04,0.24-0.03,0.3-0.03c0.36-0.04,0.72-0.06,1.08-0.06c0.31,0,0.63,0,0.95,0.02
	c0.15,0.01,0.3,0.02,0.45,0.04c0.09,0.01,0.19,0.02,0.27,0.03c-0.29-0.04-0.01,0,0.06,0.01c0.62,0.11,1.24,0.26,1.84,0.47
	c0.14,0.05,0.26,0.1,0.4,0.15c0.05,0.02,0.2,0.09-0.05-0.02c0.08,0.03,0.16,0.07,0.23,0.1c0.27,0.12,0.54,0.27,0.8,0.41
	c0.23,0.14,0.46,0.28,0.68,0.43c0.11,0.08,0.22,0.16,0.33,0.23c0.22,0.16-0.19-0.16,0.02,0.02c0.06,0.05,0.12,0.1,0.18,0.15
	c0.43,0.36,0.83,0.75,1.19,1.17c0.1,0.11,0.19,0.23,0.28,0.34c0.04,0.06,0.15,0.21-0.01-0.01c0.04,0.05,0.08,0.1,0.12,0.16
	c0.17,0.25,0.34,0.5,0.5,0.76c0.29,0.47,0.55,0.97,0.77,1.48c-0.14-0.3,0.03,0.1,0.06,0.17c0.05,0.12,0.09,0.25,0.14,0.37
	c0.1,0.28,0.18,0.56,0.25,0.84c0.07,0.26,0.13,0.52,0.18,0.78c0.03,0.13,0.05,0.26,0.08,0.39c0.01,0.08,0.02,0.16,0.03,0.24
	c-0.05-0.32-0.01-0.06,0,0.01c0.06,0.58,0.09,1.15,0.08,1.73c-0.01,0.28-0.03,0.56-0.05,0.84c-0.01,0.08-0.07,0.52-0.02,0.18
	c-0.02,0.16-0.05,0.32-0.08,0.48c-0.1,0.56-0.24,1.11-0.42,1.65c-0.05,0.13-0.09,0.26-0.14,0.38c-0.03,0.07-0.2,0.47-0.07,0.18
	c-0.12,0.27-0.25,0.55-0.39,0.81c-0.16,0.29-0.33,0.58-0.51,0.86c-0.1,0.14-0.19,0.28-0.29,0.41c-0.03,0.04-0.2,0.27-0.02,0.04
	c-0.06,0.07-0.11,0.13-0.16,0.2c-0.45,0.54-0.94,1.04-1.48,1.48c-0.05,0.05-0.11,0.1-0.17,0.14c-0.23,0.19,0.1-0.06-0.09,0.07
	c-0.15,0.1-0.3,0.22-0.45,0.32c-0.31,0.21-0.64,0.41-0.97,0.59c-0.34,0.19-0.7,0.36-1.06,0.52c0.04-0.02,0.2-0.08-0.01,0
	c-0.11,0.04-0.22,0.09-0.33,0.13c-0.22,0.08-0.43,0.16-0.65,0.23c-0.97,0.32-1.1,1.54-0.27,2.1c0.36,0.24,0.74,0.57,1.12,1
	c0.09,0.1,0.18,0.2,0.26,0.31c-0.1-0.12,0.1,0.14,0.13,0.18c0.16,0.24,0.31,0.48,0.45,0.73c0.28,0.52,0.37,0.73,0.55,1.33
	c0.08,0.26,0.15,0.53,0.21,0.8c0.06,0.23,0.13,0.66,0.15,0.78c0.26,2.08-0.12,4.35-1.13,6.17c-0.13,0.23-0.27,0.46-0.42,0.68
	c-0.07,0.11-0.14,0.22-0.23,0.32c-0.08,0.1,0,0.01,0.01-0.01c-0.05,0.07-0.11,0.14-0.17,0.21c-0.17,0.2-0.35,0.38-0.54,0.56
	c-0.09,0.09-0.18,0.17-0.28,0.26c-0.04,0.04-0.09,0.07-0.13,0.1c-0.05,0.04-0.05,0.04-0.01,0.01c0.11-0.08,0.04-0.03-0.2,0.16
	c-1.13,0.95-2.29,1.8-3.72,2.26c-2.46,0.79-5.01,0.34-7.29-0.87c-2.64-1.4-4.84-3.62-6.44-6.11c-0.3-0.48-0.9-0.7-1.43-0.47
	c-0.57,0.25-0.76,0.77-0.67,1.36c0.05,0.36-0.01-0.13,0.01,0.08c0.01,0.07,0.02,0.15,0.03,0.22c0.01,0.16,0.03,0.33,0.04,0.49
	c0.03,0.33,0.04,0.67,0.04,1.01c0,0.29-0.01,0.58-0.03,0.87c-0.01,0.16-0.04,0.33-0.05,0.49c0,0.05-0.03,0.23,0.01-0.02
	c-0.02,0.1-0.03,0.19-0.05,0.29c-0.09,0.55-0.22,1.09-0.4,1.62c-0.04,0.13-0.09,0.25-0.14,0.38c-0.02,0.07-0.19,0.44-0.06,0.18
	c-0.12,0.25-0.24,0.5-0.37,0.74c-0.11,0.21-0.23,0.42-0.37,0.63c-0.07,0.12-0.15,0.24-0.23,0.35c-0.05,0.07-0.31,0.41-0.13,0.17
	c-0.3,0.39-0.64,0.76-1,1.11c-0.19,0.17-0.38,0.33-0.56,0.49c-0.25,0.21,0.09-0.06-0.13,0.1c-0.11,0.08-0.22,0.16-0.33,0.24
	c-0.42,0.29-0.86,0.54-1.31,0.76c-0.09,0.05-0.19,0.1-0.29,0.14c-0.06,0.03-0.12,0.06-0.19,0.08c-0.14,0.06,0.2-0.08,0.05-0.02
	c-0.24,0.09-0.48,0.19-0.72,0.27c-0.48,0.16-0.96,0.28-1.45,0.37c-0.12,0.02-0.24,0.04-0.36,0.06c-0.18,0.03,0.2-0.02-0.1,0.01
	c-0.27,0.03-0.53,0.05-0.8,0.06c-0.49,0.02-0.97,0-1.45-0.04c-0.06,0-0.43-0.05-0.25-0.03c0.18,0.02-0.18-0.03-0.24-0.04
	c-0.25-0.04-0.5-0.1-0.75-0.16c-0.22-0.06-0.43-0.12-0.65-0.19c-0.11-0.04-0.23-0.08-0.34-0.12c-0.07-0.02-0.13-0.05-0.19-0.07
	c-0.22-0.08,0.21,0.1-0.03-0.01c-0.44-0.21-0.87-0.42-1.28-0.69c-0.21-0.13-0.41-0.27-0.61-0.42c0.2,0.15-0.01-0.01-0.09-0.08
	c-0.12-0.1-0.23-0.2-0.35-0.3c-0.21-0.2-0.42-0.41-0.62-0.64c-0.1-0.11-0.19-0.22-0.28-0.33c-0.04-0.04-0.07-0.09-0.11-0.14
	c0.18,0.23-0.01-0.01-0.03-0.05c-0.36-0.51-0.68-1.04-0.95-1.61c-0.03-0.07-0.07-0.14-0.1-0.22c-0.09-0.2,0.03,0.09-0.02-0.04
	c-0.07-0.16-0.13-0.33-0.19-0.5c-0.11-0.32-0.21-0.64-0.3-0.97c-0.1-0.35-0.17-0.69-0.24-1.04c-0.09-0.5-0.09-0.52-0.14-1.04
	c-0.06-0.62-0.48-1.15-1.14-1.15c-0.64,0-1.14,0.53-1.15,1.15c-0.01,0.31-0.02,0.63-0.05,0.94c-0.01,0.07-0.02,0.14-0.02,0.21
	c0,0-0.04,0.33-0.02,0.15c0.02-0.18-0.02,0.14-0.02,0.14c-0.02,0.1-0.04,0.19-0.05,0.29c-0.11,0.56-0.25,1.1-0.44,1.63
	c-0.05,0.14-0.1,0.28-0.16,0.42c-0.02,0.05-0.09,0.2,0.01-0.03c-0.02,0.05-0.04,0.11-0.07,0.16c-0.12,0.26-0.25,0.52-0.4,0.77
	c-0.12,0.22-0.26,0.43-0.4,0.65c-0.07,0.09-0.13,0.18-0.2,0.27c-0.11,0.17,0.01-0.01,0.03-0.04c-0.05,0.06-0.1,0.13-0.15,0.19
	c-0.33,0.4-0.7,0.77-1.09,1.1c-0.08,0.07-0.17,0.14-0.25,0.21c-0.2,0.17,0.15-0.11,0.01-0.01c-0.05,0.04-0.11,0.08-0.16,0.12
	c-0.2,0.14-0.4,0.27-0.6,0.4c-0.21,0.12-0.42,0.25-0.63,0.35c-0.12,0.06-0.24,0.12-0.36,0.18c-0.08,0.04-0.46,0.2-0.16,0.08
	c-0.46,0.19-0.92,0.34-1.4,0.47c-0.22,0.06-0.45,0.1-0.67,0.15c-0.13,0.02-0.26,0.05-0.39,0.07c-0.31,0.05,0.16-0.01-0.17,0.02
	c-0.49,0.05-0.99,0.08-1.48,0.07c-0.23,0-0.45-0.02-0.68-0.04c-0.13-0.01-0.27-0.03-0.4-0.04c-0.06,0-0.22-0.03,0.07,0.01
	c-0.08-0.01-0.16-0.02-0.24-0.04c-0.48-0.08-0.97-0.19-1.44-0.33c-0.21-0.06-0.43-0.14-0.64-0.22c-0.07-0.02-0.48-0.2-0.17-0.06
	c-0.12-0.05-0.25-0.11-0.36-0.17c-0.45-0.21-0.88-0.46-1.29-0.73c-0.1-0.07-0.19-0.14-0.29-0.21c-0.27-0.19,0.09,0.08-0.12-0.09
	c-0.2-0.16-0.39-0.33-0.58-0.51c-0.18-0.17-0.35-0.35-0.51-0.53c-0.07-0.08-0.15-0.16-0.22-0.25c-0.04-0.05-0.09-0.11-0.13-0.16
	c-0.05-0.07,0.13,0.18-0.02-0.03c-0.34-0.47-0.65-0.97-0.91-1.5c-0.03-0.06-0.06-0.13-0.09-0.2c-0.01-0.03-0.13-0.3-0.06-0.15
	c0.07,0.17-0.04-0.1-0.05-0.11c-0.03-0.08-0.06-0.17-0.09-0.25c-0.11-0.29-0.2-0.59-0.28-0.89c-0.08-0.33-0.15-0.66-0.21-0.99
	c-0.01-0.06-0.02-0.13-0.03-0.2c-0.01-0.08-0.01-0.06,0.01,0.06c-0.01-0.05-0.01-0.1-0.02-0.15c-0.02-0.19-0.04-0.37-0.05-0.56
	c-0.06-0.77-0.04-1.54,0.03-2.31c0.1-1.17-1.6-1.51-2.14-0.58c-1.03,1.76-2.11,3.25-3.61,4.64c-0.71,0.66-1.09,0.96-1.88,1.46
	c-0.31,0.19-0.62,0.37-0.95,0.54c-0.14,0.07-0.28,0.14-0.43,0.21c-0.09,0.04-0.18,0.08-0.26,0.12c0.26-0.11-0.12,0.04-0.17,0.06
	c-0.64,0.25-1.31,0.44-1.99,0.56c-0.09,0.02-0.18,0.03-0.27,0.04c-0.29,0.05,0.26-0.02-0.04,0c-0.17,0.02-0.34,0.04-0.51,0.05
	c-0.34,0.02-0.69,0.03-1.03,0.02c-0.31-0.01-0.61-0.04-0.92-0.07c-0.29-0.03,0.26,0.05-0.03,0c-0.08-0.02-0.17-0.03-0.25-0.04
	c-0.17-0.03-0.33-0.06-0.49-0.1c-0.3-0.07-0.6-0.15-0.89-0.24c-0.16-0.05-0.31-0.1-0.47-0.16c-0.1-0.04-0.63-0.26-0.35-0.13
	c-0.58-0.26-1.15-0.56-1.69-0.9c-0.26-0.16-0.51-0.34-0.76-0.52c-0.04-0.03-0.26-0.21-0.03-0.02c-0.06-0.05-0.13-0.1-0.2-0.16
	c-0.12-0.1-0.25-0.21-0.38-0.33c-0.5-0.45-0.97-0.93-1.39-1.45c-0.05-0.06-0.32-0.41-0.14-0.16c-0.1-0.13-0.2-0.27-0.29-0.41
	c-0.2-0.27-0.38-0.56-0.55-0.84c-0.16-0.27-0.31-0.54-0.44-0.81c-0.08-0.15-0.15-0.3-0.22-0.45c-0.03-0.05-0.13-0.32-0.02-0.03
	c-0.03-0.09-0.07-0.18-0.11-0.27c-0.23-0.61-0.42-1.24-0.56-1.88c-0.03-0.17-0.06-0.33-0.09-0.49c-0.01-0.06-0.01-0.11-0.02-0.16
	c-0.05-0.29,0.02,0.26-0.01-0.03c-0.02-0.34-0.06-0.67-0.06-1.01c-0.01-0.34,0-0.68,0.02-1.02c0.01-0.14,0.02-0.29,0.04-0.43
	c0.01-0.06,0.06-0.35,0-0.04c0.02-0.11,0.04-0.23,0.06-0.34c0.14-0.76,0.36-1.5,0.65-2.21c-0.1,0.25,0.11-0.23,0.15-0.31
	c0.1-0.2,0.2-0.39,0.31-0.58c0.2-0.37,0.43-0.72,0.67-1.07c0.06-0.08,0.12-0.16,0.18-0.24c0.08-0.1,0.08-0.11,0-0.01
	c0.04-0.05,0.09-0.11,0.13-0.16c0.13-0.16,0.27-0.32,0.4-0.47c0.31-0.35,0.64-0.69,0.99-1.01c0.81-0.76,1.46-1.24,2.42-1.85
	c0.95-0.6,0.59-2.14-0.58-2.14c-0.5,0-1.01-0.02-1.51-0.05c-0.23-0.02-0.46-0.04-0.7-0.06c-0.12-0.01-0.24-0.03-0.36-0.04
	c-0.14-0.02,0.03,0,0.05,0.01c-0.07-0.01-0.14-0.02-0.21-0.03c-0.87-0.13-1.74-0.33-2.58-0.6c-0.19-0.06-0.38-0.12-0.56-0.19
	c-0.09-0.04-0.19-0.07-0.29-0.11c-0.09-0.04-0.3-0.13-0.09-0.04c-0.35-0.16-0.7-0.32-1.04-0.5c-0.34-0.18-0.66-0.38-0.98-0.6
	c-0.14-0.1-0.28-0.2-0.42-0.3c-0.11-0.08-0.17-0.13-0.02-0.01c-0.08-0.06-0.17-0.13-0.25-0.2c-0.52-0.44-1.01-0.93-1.45-1.45
	c-0.05-0.07-0.1-0.14-0.16-0.2c-0.04-0.05,0.14,0.18,0,0c-0.1-0.15-0.21-0.3-0.31-0.45c-0.19-0.27-0.35-0.56-0.51-0.84
	c-0.15-0.29-0.29-0.58-0.43-0.88c0.14,0.3-0.04-0.11-0.08-0.23c-0.06-0.16-0.11-0.31-0.17-0.47c-0.2-0.62-0.33-1.26-0.44-1.91
	c-0.04-0.21,0.02,0.24,0,0.02c-0.01-0.08-0.02-0.16-0.03-0.25c-0.01-0.17-0.03-0.33-0.04-0.49c-0.02-0.32-0.02-0.64-0.02-0.96
	c0.01-0.32,0.03-0.64,0.06-0.96c0.01-0.12,0.08-0.57,0.02-0.23c0.03-0.16,0.05-0.33,0.08-0.49c0.12-0.64,0.28-1.27,0.5-1.88
	c0.05-0.14,0.1-0.29,0.16-0.43c0.02-0.06,0.05-0.13,0.08-0.2c-0.13,0.32-0.01,0.02,0.02-0.05c0.14-0.29,0.28-0.58,0.43-0.86
	c0.16-0.29,0.33-0.57,0.51-0.85c0.09-0.13,0.18-0.25,0.27-0.38c0.04-0.06,0.08-0.11,0.13-0.17c0.09-0.12-0.14,0.17,0.04-0.05
	c0.41-0.5,0.85-0.97,1.34-1.39c0.12-0.1,0.24-0.2,0.36-0.3c0.22-0.18-0.14,0.1,0.03-0.02c0.06-0.05,0.13-0.1,0.2-0.15
	c0.28-0.2,0.57-0.38,0.87-0.55c0.28-0.17,0.59-0.32,0.89-0.46c0.07-0.03,0.14-0.06,0.21-0.09c-0.29,0.13-0.03,0.01,0.05-0.02
	c0.16-0.06,0.33-0.13,0.5-0.18c0.34-0.11,0.68-0.21,1.02-0.29c0.17-0.04,0.35-0.08,0.52-0.11c0.09-0.02,0.18-0.03,0.28-0.05
	c0.07-0.01,0.42-0.06,0.1-0.02c0.78-0.09,1.56-0.12,2.35-0.08c0.2,0.01,0.4,0.02,0.6,0.04c0.11,0.01,0.21,0.02,0.32,0.03
	c0.05,0,0.1,0.01,0.14,0.02c0.18,0.02-0.19-0.03-0.02,0c0.45,0.06,0.88,0.14,1.31,0.24c0.97,0.22,1.92,0.51,2.84,0.87
	c0.11,0.04,0.22,0.08,0.32,0.13c0.04,0.02,0.35,0.14,0.22,0.09c0.25,0.11,0.51,0.23,0.77,0.35c0.56,0.26,1.24,0.16,1.57-0.41
	C953.72,107.03,953.59,106.21,953.02,105.95z"/>
<path class="st1" d="M967.68,128.65c-0.31-0.45-0.6-0.93-0.84-1.42c-0.05-0.1-0.1-0.21-0.15-0.31c-0.09-0.2-0.01-0.03,0.01,0.01
	c-0.03-0.06-0.05-0.12-0.07-0.18c-0.09-0.23-0.17-0.46-0.23-0.7c-0.06-0.21-0.11-0.42-0.15-0.64c-0.02-0.12-0.04-0.31-0.01-0.07
	c-0.01-0.12-0.03-0.25-0.04-0.37c-0.01-0.2-0.01-0.4-0.01-0.6c0-0.09,0.01-0.18,0.02-0.27c0-0.08,0.06-0.46,0-0.11
	c0.07-0.38,0.15-0.75,0.28-1.12c0.03-0.08,0.06-0.16,0.09-0.24c-0.08,0.23-0.02,0.06,0.04-0.06c0.08-0.17,0.17-0.35,0.27-0.51
	c0.09-0.14,0.19-0.29,0.29-0.42c0.17-0.25-0.09,0.08,0.04-0.06c0.06-0.07,0.12-0.15,0.19-0.22c0.26-0.29,0.55-0.55,0.84-0.81
	c0.15-0.13-0.2,0.14,0.04-0.02c0.07-0.05,0.14-0.1,0.21-0.15c0.16-0.11,0.33-0.22,0.5-0.32c0.16-0.09,0.33-0.18,0.5-0.27
	c0.08-0.04,0.15-0.08,0.23-0.11c0.29-0.14-0.14,0.04,0.11-0.04c0.37-0.13,0.74-0.26,1.12-0.35c0.18-0.04,0.37-0.08,0.55-0.11
	c0.16-0.03,0.25-0.03,0.04-0.01c0.11-0.01,0.22-0.02,0.33-0.04c0.39-0.03,0.78-0.04,1.17-0.01c0.09,0,0.18,0.02,0.27,0.02
	c0.05,0,0.1,0.01,0.15,0.02c0.16,0.02-0.23-0.04-0.08-0.01c0.2,0.04,0.4,0.07,0.59,0.12c0.19,0.04,0.37,0.1,0.55,0.16
	c0.08,0.03,0.17,0.06,0.25,0.09c0.05,0.02,0.1,0.04,0.14,0.06c0.15,0.05-0.25-0.12-0.02-0.01c0.35,0.17,0.69,0.34,1.01,0.56
	c0.06,0.03,0.33,0.24,0.21,0.14c-0.12-0.09,0.15,0.12,0.2,0.16c0.17,0.15,0.34,0.31,0.5,0.48c0.08,0.09,0.17,0.19,0.25,0.28
	c0.07,0.08,0.23,0.3,0.09,0.1c0.16,0.22,0.31,0.43,0.44,0.66c0.14,0.23,0.26,0.46,0.37,0.7c0.03,0.06,0.06,0.12,0.08,0.17
	c0.08,0.16-0.09-0.25,0.02,0.04c0.05,0.12,0.1,0.25,0.15,0.37c0.21,0.62,0.37,1.25,0.48,1.9c0.1,0.61,0.86,0.95,1.41,0.8
	c0.66-0.18,0.9-0.8,0.8-1.41c-0.18-1.18-0.26-2.75-0.12-4.11c0.01-0.08,0.02-0.17,0.03-0.25c0,0.04-0.03,0.23,0,0
	c0.03-0.14,0.05-0.29,0.08-0.44c0.05-0.3,0.12-0.59,0.19-0.88c0.07-0.27,0.16-0.52,0.24-0.78c0.05-0.12,0.1-0.25,0.14-0.37
	c0.03-0.06,0.11-0.25,0,0c0.04-0.08,0.07-0.16,0.11-0.23c0.21-0.45,0.45-0.88,0.73-1.28c0.07-0.11,0.15-0.21,0.23-0.32
	c-0.15,0.2-0.02,0.02,0.06-0.07c0.16-0.19,0.33-0.38,0.51-0.56c0.16-0.16,0.32-0.31,0.5-0.45c0.1-0.08,0.25-0.19,0.05-0.05
	c0.11-0.08,0.22-0.16,0.33-0.23c0.37-0.25,0.76-0.44,1.15-0.64c0.22-0.1-0.19,0.08-0.04,0.02c0.05-0.02,0.1-0.04,0.16-0.06
	c0.09-0.03,0.18-0.06,0.27-0.09c0.22-0.07,0.44-0.14,0.67-0.19c0.2-0.05,0.41-0.08,0.61-0.12c-0.24,0.04-0.11,0.02,0.04,0
	c0.13-0.01,0.26-0.02,0.39-0.03c0.43-0.02,0.85,0.02,1.28,0.05c-0.37-0.02-0.02,0,0.07,0.02c0.11,0.02,0.21,0.04,0.31,0.06
	c0.23,0.05,0.46,0.11,0.68,0.18c0.19,0.06,0.38,0.13,0.57,0.21c0.15,0.06-0.27-0.12-0.05-0.02c0.05,0.02,0.09,0.04,0.13,0.06
	c0.11,0.05,0.22,0.1,0.32,0.16c0.2,0.1,0.39,0.21,0.57,0.33c0.11,0.06,0.21,0.13,0.31,0.2c0.07,0.05,0.38,0.29,0.12,0.08
	c0.37,0.3,0.71,0.61,1.03,0.96c0.08,0.09,0.16,0.18,0.23,0.27c0.03,0.04,0.06,0.08,0.1,0.12c0.17,0.2-0.11-0.15-0.01-0.01
	c0.15,0.21,0.3,0.42,0.43,0.64c0.16,0.25,0.3,0.51,0.44,0.77c0.07,0.14,0.13,0.29,0.2,0.43c0.02,0.05,0.08,0.2-0.02-0.03
	c0.04,0.08,0.07,0.17,0.1,0.25c0.24,0.62,0.42,1.26,0.54,1.9c0.04,0.17,0.06,0.33,0.09,0.49c0.01,0.07,0.02,0.13,0.03,0.2
	c-0.04-0.26,0,0.05,0,0.1c0.05,0.39,0.07,0.79,0.09,1.18c0.02,0.82-0.02,1.65-0.11,2.47c-0.12,1.1,1.7,1.61,2.14,0.58
	c0.18-0.43,0.39-0.86,0.63-1.26c0.11-0.19,0.23-0.38,0.36-0.56c0.06-0.09,0.12-0.18,0.19-0.26c-0.13,0.15,0.05-0.06,0.08-0.1
	c0.26-0.31,0.54-0.6,0.85-0.86c0.07-0.06,0.15-0.12,0.22-0.19c-0.2,0.17,0.05-0.03,0.08-0.05c0.16-0.11,0.31-0.21,0.48-0.31
	c0.16-0.1,0.32-0.19,0.49-0.27c0.08-0.04,0.17-0.08,0.25-0.12c0.27-0.13-0.23,0.07,0.06-0.02c0.35-0.11,0.68-0.23,1.04-0.31
	c0.17-0.04,0.35-0.07,0.53-0.1c-0.32,0.04,0.22-0.02,0.31-0.02c0.35-0.02,0.71-0.02,1.07,0.01c0.08,0.01,0.17,0.02,0.26,0.02
	c0.3,0.02-0.24-0.05,0.04,0.01c0.18,0.04,0.35,0.06,0.52,0.1c0.35,0.08,0.69,0.18,1.02,0.3c0.08,0.03,0.16,0.06,0.24,0.1
	c-0.27-0.11,0.01,0,0.05,0.02c0.16,0.08,0.32,0.15,0.47,0.24c0.31,0.17,0.6,0.37,0.89,0.56c0.25,0.16-0.18-0.16,0.05,0.03
	c0.06,0.06,0.13,0.11,0.2,0.17c0.13,0.11,0.26,0.23,0.38,0.35c0.11,0.1,0.21,0.21,0.3,0.32c0.06,0.06,0.12,0.13,0.17,0.2
	c0.21,0.24-0.01-0.04,0.09,0.11c0.18,0.27,0.36,0.53,0.51,0.82c0.09,0.16,0.16,0.32,0.23,0.48c-0.11-0.27,0,0.01,0.02,0.06
	c0.03,0.11,0.08,0.23,0.11,0.34c0.06,0.21,0.11,0.41,0.16,0.62c0.01,0.06,0.02,0.12,0.03,0.18c0.01,0.06,0.02,0.12,0.03,0.19
	c-0.02-0.15-0.02-0.16-0.01-0.02c0.02,0.46,0.05,0.91,0,1.36c0,0.04-0.04,0.37,0,0.1c-0.02,0.1-0.04,0.21-0.06,0.31
	c-0.04,0.25-0.1,0.49-0.17,0.74c-0.16,0.58-0.3,0.92-0.51,1.37c-0.27,0.56-0.16,1.24,0.41,1.57c0.5,0.29,1.3,0.15,1.57-0.41
	c0.89-1.87,1.32-3.89,0.92-5.94c-0.33-1.66-1.27-3.22-2.53-4.32c-2.66-2.32-6.49-2.95-9.7-1.45c-2,0.94-3.49,2.74-4.34,4.74
	c0.72,0.19,1.43,0.39,2.14,0.58c0.31-2.84,0.02-5.8-1.33-8.35c-1.06-2-2.77-3.56-4.86-4.41c-4.08-1.65-8.74,0.18-10.87,3.95
	c-1.62,2.88-1.72,6.28-1.23,9.47c0.74-0.21,1.48-0.41,2.22-0.61c-0.38-2.19-1.35-4.4-3.09-5.84c-1.52-1.25-3.41-1.91-5.37-1.88
	c-3.64,0.04-7.43,2.34-8.35,6.01c-0.61,2.45,0.2,4.94,1.59,6.97c0.35,0.51,1.01,0.74,1.57,0.41
	C967.77,129.93,968.03,129.17,967.68,128.65z"/>
<path class="st1" d="M193.57,670.41c-3.63-1.69-7.7-2.68-11.67-1.77c-3.04,0.7-5.68,2.59-7.42,5.17c-1.61,2.39-2.39,5.38-2.21,8.26
	c0.19,3.06,1.41,5.99,3.58,8.17c2.63,2.64,6.29,3.85,9.95,4.11c0.53,0.04,1.06,0.05,1.59,0.06c-0.2-0.72-0.39-1.45-0.59-2.18
	c-3.14,2-5.84,4.84-6.85,8.5c-0.83,3-0.4,6.18,0.96,8.95c2.68,5.46,9.03,8.95,15.04,7.25c4.35-1.23,7.58-4.76,9.79-8.55
	c-0.72-0.2-1.45-0.39-2.18-0.59c-0.24,2.73,0.21,5.59,1.69,7.94c1.29,2.06,3.23,3.56,5.49,4.43c4.25,1.64,9.5,0.67,12.7-2.61
	c2.11-2.16,3.09-5.09,3.17-8.07c-0.78,0-1.56,0-2.34,0c0.27,2.85,1.19,5.61,3.14,7.75c1.55,1.7,3.7,2.86,5.96,3.26
	c4.71,0.83,9.69-1.15,12.29-5.22c1.7-2.66,2.05-5.83,1.6-8.9c-0.71,0.3-1.42,0.6-2.14,0.9c3.28,5.11,9.26,9.79,15.68,8.42
	c1.7-0.36,3.28-1.17,4.65-2.23c1.15-0.88,2.22-1.82,3.04-3.03c1.47-2.17,2.11-4.98,1.94-7.58c-0.2-3.09-1.51-6.03-4.12-7.8
	c-0.09,0.71-0.18,1.42-0.28,2.14c2.92-0.97,5.49-2.73,7.19-5.32c1.44-2.2,2.12-4.9,2-7.51c-0.25-5.36-3.72-10.42-9.07-11.74
	c-3.78-0.93-7.67,0.06-11.09,1.74c0.57,0.44,1.15,0.88,1.71,1.32c0.77-3.33,0.97-6.91-0.09-10.2c-0.85-2.63-2.45-4.92-4.72-6.52
	c-4.33-3.06-10.32-2.68-14.59,0.28c-3.01,2.09-5.07,5.15-6.35,8.55c0.77,0.1,1.53,0.21,2.3,0.31c0.36-4.3-1.36-8.94-5.44-10.91
	c-3.46-1.67-7.73-1-10.18,2.07c-1.75,2.18-2.36,4.97-2.38,7.72c0.77-0.1,1.53-0.21,2.3-0.31c-0.68-3.31-2.17-6.58-4.75-8.85
	c-2.16-1.9-4.86-2.97-7.72-3.15c-5.25-0.34-10.94,2.5-13.19,7.38c-1.42,3.1-1.34,6.57-0.09,9.71c0.23,0.59,0.78,0.99,1.44,0.81
	c0.56-0.15,1.05-0.85,0.81-1.44c-0.28-0.71-0.52-1.44-0.68-2.18c-0.03-0.15-0.07-0.31-0.09-0.46c-0.02-0.09-0.03-0.18-0.05-0.27
	c-0.06-0.31,0.02,0.25-0.01-0.05c-0.03-0.32-0.07-0.65-0.07-0.97c-0.01-0.32-0.01-0.63,0.01-0.95c0.01-0.14,0.02-0.28,0.03-0.42
	c0.01-0.08,0.02-0.17,0.03-0.25c-0.04,0.35,0-0.03,0.02-0.1c0.1-0.59,0.25-1.16,0.45-1.72c0.05-0.13,0.09-0.25,0.14-0.37
	c0.09-0.26-0.11,0.24,0-0.01c0.03-0.07,0.07-0.14,0.1-0.22c0.13-0.27,0.27-0.54,0.42-0.8c0.14-0.24,0.29-0.47,0.44-0.7
	c0.09-0.13,0.18-0.25,0.28-0.38c-0.19,0.26,0.09-0.11,0.16-0.19c0.37-0.44,0.78-0.85,1.22-1.24c0.12-0.11,0.24-0.2,0.36-0.31
	c0.04-0.03,0.08-0.07,0.12-0.1c0.21-0.18-0.21,0.15,0.02-0.01c0.26-0.18,0.52-0.37,0.79-0.54c0.5-0.32,1.01-0.6,1.55-0.84
	c0.07-0.03,0.15-0.06,0.22-0.1c0.25-0.11-0.18,0.07-0.02,0.01c0.14-0.06,0.27-0.11,0.41-0.16c0.3-0.11,0.61-0.22,0.92-0.31
	c0.57-0.17,1.15-0.3,1.73-0.39c0.08-0.01,0.16-0.02,0.24-0.04c-0.3,0.04-0.14,0.02-0.07,0.01c0.16-0.02,0.32-0.04,0.48-0.05
	c0.3-0.02,0.59-0.04,0.89-0.04c0.3,0,0.6,0,0.89,0.02c0.15,0.01,0.3,0.02,0.45,0.03c0.1,0.01,0.65,0.09,0.29,0.03
	c0.59,0.09,1.18,0.21,1.76,0.39c0.29,0.09,0.57,0.19,0.86,0.3c0.08,0.03,0.16,0.06,0.23,0.09c-0.26-0.11-0.11-0.04-0.05-0.02
	c0.18,0.09,0.35,0.16,0.53,0.25c0.56,0.28,1.08,0.61,1.59,0.98c0.05,0.03,0.27,0.22,0.04,0.03c0.07,0.05,0.13,0.11,0.2,0.16
	c0.16,0.13,0.32,0.27,0.47,0.41c0.27,0.25,0.52,0.5,0.76,0.77c0.13,0.15,0.27,0.3,0.39,0.45c0.05,0.06,0.1,0.12,0.15,0.18
	c-0.18-0.22,0.07,0.1,0.1,0.14c0.23,0.32,0.45,0.64,0.65,0.97c0.23,0.38,0.44,0.77,0.63,1.17c0.23,0.49,0.25,0.53,0.43,1.01
	c0.36,0.95,0.63,1.94,0.84,2.94c0.27,1.31,2.29,0.98,2.3-0.31c0-0.62,0.03-1.24,0.11-1.85c0.03-0.24,0.01-0.09,0-0.04
	c0.01-0.07,0.02-0.15,0.04-0.22c0.02-0.13,0.04-0.26,0.07-0.38c0.05-0.27,0.11-0.53,0.18-0.79c0.07-0.25,0.14-0.49,0.23-0.74
	c0.04-0.11,0.08-0.22,0.12-0.33c0.02-0.06,0.05-0.12,0.07-0.18c-0.04,0.09-0.06,0.12,0,0.01c0.2-0.43,0.42-0.85,0.68-1.25
	c0.06-0.09,0.11-0.17,0.18-0.25c0.03-0.05,0.07-0.09,0.1-0.14c0,0-0.13,0.17-0.05,0.07c0.14-0.17,0.29-0.34,0.44-0.5
	c0.13-0.14,0.27-0.27,0.41-0.4c0.07-0.06,0.14-0.12,0.21-0.18c0.15-0.13-0.02,0.02-0.05,0.03c0.05-0.04,0.11-0.08,0.16-0.12
	c0.32-0.22,0.65-0.43,1-0.59c0.08-0.04,0.16-0.07,0.25-0.11c-0.31,0.14,0,0,0.07-0.02c0.18-0.07,0.36-0.12,0.54-0.18
	c0.18-0.05,0.37-0.09,0.55-0.13c0.09-0.02,0.18-0.03,0.26-0.05c0.13-0.02-0.13,0.02-0.12,0.02c0.06,0,0.13-0.02,0.19-0.02
	c0.38-0.03,0.76-0.04,1.14-0.02c0.1,0.01,0.2,0.02,0.3,0.02c0.27,0.02-0.18-0.04,0.03,0c0.2,0.04,0.4,0.07,0.6,0.11
	c0.38,0.09,0.74,0.22,1.11,0.35c0.2,0.07-0.22-0.11,0.05,0.02c0.08,0.04,0.17,0.08,0.25,0.12c0.19,0.09,0.38,0.2,0.56,0.3
	c0.16,0.09,0.32,0.2,0.47,0.3c0.09,0.06,0.18,0.13,0.26,0.19c-0.21-0.15,0,0,0.08,0.07c0.32,0.27,0.62,0.56,0.89,0.87
	c0.07,0.07,0.13,0.15,0.19,0.22c0.07,0.09,0.19,0.25,0.06,0.07c0.14,0.19,0.27,0.38,0.4,0.57c0.13,0.21,0.26,0.43,0.38,0.66
	c0.06,0.11,0.11,0.22,0.16,0.33c0.03,0.07,0.18,0.44,0.09,0.19c0.2,0.51,0.37,1.03,0.49,1.57c0.06,0.27,0.11,0.54,0.15,0.81
	c0,0.05,0.04,0.23,0,0c0.01,0.09,0.02,0.18,0.03,0.27c0.01,0.14,0.02,0.29,0.03,0.43c0.04,0.67,0.02,1.34-0.03,2.01
	c-0.05,0.57,0.48,1.08,1.01,1.15c0.61,0.07,1.07-0.28,1.28-0.83c0.48-1.27,1.22-2.73,2.11-3.98c0.1-0.14,0.21-0.29,0.32-0.43
	c-0.14,0.18,0.13-0.17,0.18-0.21c0.23-0.28,0.46-0.54,0.71-0.81c0.45-0.48,0.94-0.92,1.44-1.33c0.03-0.02,0.29-0.22,0.07-0.05
	c0.05-0.04,0.1-0.08,0.15-0.11c0.13-0.09,0.25-0.18,0.38-0.27c0.27-0.18,0.54-0.36,0.82-0.52c0.25-0.14,0.5-0.28,0.76-0.41
	c0.13-0.07,0.27-0.13,0.41-0.19c0.07-0.03,0.13-0.06,0.2-0.09c0.08-0.03,0.05-0.02-0.07,0.03c0.05-0.02,0.11-0.04,0.16-0.07
	c0.55-0.2,1.1-0.39,1.67-0.52c0.27-0.06,0.53-0.11,0.8-0.16c0.07-0.01,0.14-0.02,0.21-0.03c0.28-0.05-0.2,0.02-0.02,0
	c0.16-0.02,0.31-0.04,0.46-0.05c0.56-0.05,1.12-0.05,1.67-0.02c0.14,0.01,0.28,0.02,0.41,0.03c0.08,0.01,0.53,0.07,0.18,0.02
	c0.29,0.04,0.57,0.09,0.85,0.16c0.55,0.12,1.09,0.29,1.61,0.49c0.05,0.02,0.1,0.04,0.15,0.06c0.27,0.1-0.23-0.11,0.02,0.01
	c0.11,0.05,0.23,0.1,0.34,0.16c0.26,0.13,0.51,0.26,0.76,0.41c0.24,0.14,0.47,0.29,0.7,0.45c0.1,0.07,0.2,0.15,0.3,0.22
	c0.14,0.11-0.22-0.18,0,0c0.07,0.05,0.13,0.11,0.19,0.16c0.45,0.37,0.86,0.78,1.24,1.22c0.09,0.1,0.16,0.2,0.25,0.3
	c0.19,0.23-0.14-0.2,0.03,0.04c0.03,0.05,0.07,0.09,0.1,0.14c0.19,0.26,0.37,0.53,0.54,0.81c0.14,0.23,0.27,0.47,0.4,0.71
	c0.07,0.13,0.13,0.27,0.2,0.41c0.04,0.09,0.08,0.17,0.11,0.25c-0.08-0.18-0.01-0.03,0.03,0.07c0.27,0.69,0.48,1.39,0.64,2.11
	c0.04,0.18,0.08,0.37,0.11,0.56c0.02,0.1,0.04,0.2,0.05,0.31c0.01,0.05,0.05,0.36,0.02,0.11c0.05,0.4,0.09,0.8,0.11,1.2
	c0.05,0.9,0.02,1.8-0.07,2.7c-0.09,0.91-0.24,1.78-0.47,2.79c-0.24,1.03,0.8,1.77,1.71,1.32c1.44-0.71,3.03-1.29,4.72-1.6
	c0.18-0.03,0.35-0.06,0.53-0.09c-0.25,0.04,0.25-0.03,0.31-0.03c0.36-0.04,0.73-0.06,1.1-0.07c0.32,0,0.64,0,0.96,0.02
	c0.16,0.01,0.31,0.02,0.47,0.04c0.09,0.01,0.18,0.02,0.27,0.03c-0.3-0.04-0.02,0,0.05,0.01c0.64,0.11,1.26,0.26,1.88,0.48
	c0.13,0.05,0.27,0.1,0.4,0.15c0.06,0.02,0.21,0.09-0.04-0.02c0.08,0.03,0.16,0.07,0.23,0.1c0.28,0.13,0.55,0.27,0.81,0.42
	c0.24,0.14,0.47,0.28,0.7,0.44c0.11,0.08,0.22,0.16,0.33,0.24c0.23,0.16-0.19-0.16,0.02,0.02c0.06,0.05,0.13,0.1,0.19,0.16
	c0.43,0.36,0.84,0.76,1.21,1.19c0.1,0.11,0.19,0.23,0.28,0.34c0.05,0.06,0.16,0.22-0.01-0.01c0.04,0.05,0.08,0.11,0.12,0.16
	c0.18,0.25,0.35,0.51,0.52,0.77c0.29,0.48,0.55,0.99,0.78,1.51c-0.14-0.31,0.04,0.1,0.06,0.17c0.05,0.13,0.09,0.25,0.14,0.38
	c0.1,0.28,0.18,0.57,0.26,0.86c0.07,0.26,0.13,0.53,0.18,0.79c0.02,0.13,0.05,0.27,0.07,0.4c0.01,0.08,0.02,0.16,0.04,0.24
	c-0.05-0.32-0.01-0.06,0,0.01c0.06,0.59,0.09,1.17,0.08,1.76c-0.01,0.29-0.02,0.57-0.05,0.86c-0.01,0.09-0.07,0.53-0.02,0.18
	c-0.02,0.16-0.05,0.32-0.08,0.49c-0.1,0.57-0.25,1.13-0.43,1.67c-0.05,0.13-0.09,0.26-0.14,0.39c-0.03,0.07-0.2,0.48-0.07,0.18
	c-0.13,0.28-0.25,0.56-0.4,0.83c-0.16,0.3-0.33,0.59-0.52,0.87c-0.09,0.14-0.19,0.28-0.29,0.42c-0.03,0.05-0.21,0.27-0.02,0.04
	c-0.05,0.07-0.11,0.14-0.16,0.2c-0.45,0.55-0.95,1.06-1.5,1.51c-0.06,0.05-0.12,0.1-0.18,0.14c-0.23,0.19,0.1-0.06-0.09,0.07
	c-0.15,0.11-0.3,0.22-0.46,0.32c-0.32,0.22-0.65,0.41-0.99,0.6c-0.35,0.19-0.71,0.37-1.08,0.53c0.04-0.02,0.2-0.08-0.01,0
	c-0.11,0.04-0.22,0.09-0.34,0.13c-0.22,0.08-0.43,0.16-0.65,0.23c-0.99,0.33-1.12,1.56-0.28,2.14c0.36,0.25,0.75,0.58,1.14,1.02
	c0.09,0.1,0.18,0.2,0.26,0.31c-0.1-0.13,0.1,0.15,0.13,0.18c0.17,0.24,0.32,0.49,0.46,0.75c0.29,0.53,0.38,0.74,0.56,1.35
	c0.08,0.27,0.16,0.54,0.22,0.81c0.05,0.23,0.13,0.67,0.15,0.8c0.27,2.11-0.12,4.43-1.15,6.28c-0.13,0.24-0.27,0.47-0.43,0.69
	c-0.07,0.11-0.15,0.22-0.23,0.33c-0.08,0.11-0.01,0.01,0.01-0.01c-0.06,0.07-0.12,0.15-0.18,0.22c-0.17,0.2-0.35,0.39-0.54,0.57
	c-0.09,0.09-0.19,0.18-0.29,0.26c-0.04,0.04-0.09,0.07-0.13,0.11c-0.05,0.04-0.06,0.05-0.01,0.01c0.11-0.08,0.04-0.03-0.2,0.16
	c-1.15,0.97-2.33,1.83-3.78,2.3c-2.51,0.8-5.1,0.34-7.41-0.88c-2.69-1.43-4.93-3.68-6.55-6.21c-0.31-0.49-0.92-0.72-1.46-0.48
	c-0.57,0.25-0.77,0.79-0.67,1.38c0.05,0.36-0.01-0.13,0.01,0.09c0.01,0.07,0.02,0.15,0.02,0.23c0.02,0.17,0.03,0.33,0.04,0.5
	c0.02,0.34,0.04,0.68,0.04,1.02c0,0.29-0.01,0.59-0.03,0.88c-0.01,0.17-0.03,0.33-0.05,0.5c0,0.05-0.03,0.23,0-0.02
	c-0.01,0.1-0.03,0.19-0.04,0.29c-0.09,0.56-0.23,1.11-0.41,1.65c-0.04,0.13-0.09,0.26-0.14,0.39c-0.02,0.07-0.19,0.45-0.07,0.18
	c-0.11,0.26-0.24,0.51-0.37,0.76c-0.12,0.22-0.24,0.43-0.38,0.64c-0.08,0.12-0.16,0.24-0.24,0.36c-0.05,0.07-0.31,0.41-0.12,0.18
	c-0.32,0.4-0.65,0.78-1.03,1.13c-0.18,0.17-0.38,0.34-0.57,0.5c-0.25,0.21,0.09-0.06-0.13,0.1c-0.11,0.08-0.22,0.16-0.34,0.24
	c-0.42,0.29-0.87,0.55-1.33,0.77c-0.1,0.05-0.2,0.1-0.3,0.14c-0.06,0.03-0.13,0.06-0.19,0.09c-0.15,0.07,0.2-0.08,0.05-0.02
	c-0.25,0.09-0.49,0.19-0.74,0.27c-0.48,0.16-0.98,0.28-1.48,0.38c-0.12,0.02-0.25,0.04-0.36,0.06c-0.18,0.03,0.2-0.02-0.1,0.01
	c-0.27,0.03-0.54,0.05-0.82,0.06c-0.49,0.02-0.98,0-1.47-0.04c-0.06,0-0.43-0.05-0.25-0.03c0.18,0.02-0.19-0.03-0.25-0.04
	c-0.25-0.04-0.51-0.1-0.76-0.16c-0.23-0.06-0.45-0.12-0.67-0.2c-0.11-0.04-0.23-0.08-0.35-0.12c-0.07-0.02-0.13-0.05-0.19-0.07
	c-0.23-0.08,0.21,0.1-0.02-0.01c-0.45-0.21-0.89-0.43-1.31-0.7c-0.21-0.14-0.41-0.28-0.61-0.43c0.2,0.15-0.01-0.01-0.09-0.08
	c-0.12-0.1-0.24-0.2-0.35-0.31c-0.22-0.2-0.43-0.42-0.63-0.65c-0.1-0.11-0.19-0.22-0.29-0.34c-0.04-0.04-0.07-0.09-0.11-0.14
	c0.18,0.23-0.01-0.01-0.03-0.05c-0.36-0.52-0.69-1.06-0.97-1.64c-0.03-0.07-0.07-0.15-0.1-0.22c-0.09-0.2,0.04,0.09-0.02-0.04
	c-0.07-0.17-0.13-0.34-0.2-0.51c-0.11-0.32-0.22-0.65-0.31-0.99c-0.09-0.35-0.17-0.7-0.24-1.06c-0.09-0.51-0.09-0.53-0.14-1.06
	c-0.06-0.63-0.5-1.17-1.17-1.17c-0.65,0-1.15,0.54-1.17,1.17c-0.01,0.32-0.02,0.64-0.05,0.96c-0.01,0.07-0.01,0.14-0.02,0.21
	c0,0-0.04,0.33-0.02,0.15c0.02-0.18-0.02,0.15-0.02,0.15c-0.02,0.1-0.03,0.2-0.05,0.29c-0.11,0.56-0.25,1.12-0.44,1.66
	c-0.05,0.14-0.11,0.29-0.16,0.43c-0.02,0.05-0.09,0.2,0.01-0.03c-0.02,0.05-0.05,0.11-0.07,0.16c-0.13,0.27-0.26,0.53-0.41,0.79
	c-0.13,0.22-0.27,0.44-0.41,0.66c-0.07,0.09-0.13,0.18-0.2,0.28c-0.12,0.17,0.01-0.01,0.03-0.04c-0.05,0.07-0.11,0.13-0.16,0.2
	c-0.34,0.4-0.71,0.78-1.1,1.12c-0.08,0.07-0.17,0.14-0.25,0.21c-0.2,0.18,0.15-0.11,0.01-0.01c-0.05,0.04-0.11,0.08-0.16,0.12
	c-0.2,0.14-0.4,0.28-0.61,0.41c-0.21,0.13-0.42,0.25-0.64,0.36c-0.12,0.06-0.24,0.12-0.36,0.18c-0.08,0.04-0.47,0.2-0.17,0.08
	c-0.47,0.19-0.94,0.35-1.42,0.47c-0.23,0.06-0.45,0.11-0.68,0.15c-0.13,0.02-0.27,0.05-0.4,0.07c-0.32,0.05,0.16-0.01-0.17,0.02
	c-0.5,0.05-1,0.08-1.51,0.07c-0.23,0-0.46-0.02-0.69-0.04c-0.14-0.01-0.27-0.03-0.41-0.04c-0.07,0-0.23-0.03,0.07,0.01
	c-0.08-0.01-0.16-0.02-0.24-0.04c-0.5-0.08-0.99-0.19-1.46-0.34c-0.22-0.07-0.44-0.14-0.65-0.22c-0.07-0.02-0.49-0.2-0.17-0.06
	c-0.12-0.05-0.25-0.11-0.37-0.17c-0.45-0.22-0.89-0.47-1.31-0.75c-0.1-0.07-0.2-0.14-0.3-0.21c-0.27-0.19,0.09,0.08-0.12-0.09
	c-0.2-0.17-0.4-0.34-0.59-0.52c-0.18-0.17-0.36-0.35-0.52-0.54c-0.07-0.08-0.15-0.17-0.22-0.25c-0.05-0.05-0.09-0.11-0.13-0.16
	c-0.06-0.07,0.13,0.18-0.02-0.03c-0.35-0.48-0.66-0.99-0.92-1.52c-0.03-0.07-0.07-0.14-0.09-0.2c-0.01-0.03-0.13-0.31-0.07-0.15
	c0.07,0.17-0.04-0.11-0.04-0.11c-0.03-0.09-0.07-0.17-0.1-0.26c-0.11-0.29-0.2-0.6-0.28-0.9c-0.09-0.33-0.16-0.67-0.21-1.01
	c-0.01-0.07-0.02-0.13-0.03-0.2c-0.01-0.09-0.01-0.07,0.01,0.06c-0.01-0.05-0.01-0.1-0.02-0.15c-0.02-0.19-0.04-0.38-0.05-0.57
	c-0.05-0.78-0.04-1.56,0.03-2.34c0.1-1.19-1.62-1.54-2.18-0.59c-1.04,1.79-2.14,3.31-3.67,4.72c-0.72,0.68-1.11,0.98-1.91,1.49
	c-0.32,0.2-0.63,0.38-0.97,0.55c-0.15,0.07-0.29,0.15-0.44,0.22c-0.09,0.04-0.18,0.08-0.27,0.12c0.27-0.11-0.11,0.04-0.16,0.06
	c-0.66,0.25-1.34,0.45-2.03,0.57c-0.09,0.02-0.18,0.03-0.27,0.05c-0.3,0.05,0.26-0.02-0.04,0c-0.18,0.02-0.35,0.04-0.52,0.05
	c-0.35,0.02-0.7,0.03-1.04,0.02c-0.32-0.01-0.63-0.04-0.94-0.07c-0.29-0.03,0.26,0.05-0.03,0c-0.08-0.02-0.17-0.03-0.25-0.04
	c-0.17-0.03-0.34-0.07-0.5-0.1c-0.3-0.07-0.61-0.15-0.9-0.25c-0.16-0.05-0.32-0.11-0.48-0.16c-0.1-0.04-0.64-0.26-0.35-0.14
	c-0.59-0.27-1.17-0.56-1.72-0.92c-0.26-0.17-0.52-0.35-0.77-0.53c-0.05-0.03-0.27-0.22-0.03-0.02c-0.07-0.05-0.13-0.11-0.2-0.16
	c-0.13-0.11-0.26-0.22-0.39-0.33c-0.51-0.45-0.99-0.95-1.42-1.47c-0.05-0.06-0.32-0.41-0.14-0.16c-0.1-0.14-0.2-0.27-0.3-0.41
	c-0.2-0.28-0.38-0.56-0.56-0.86c-0.16-0.27-0.31-0.54-0.45-0.82c-0.08-0.15-0.15-0.31-0.22-0.46c-0.02-0.05-0.14-0.32-0.02-0.03
	c-0.04-0.09-0.07-0.18-0.11-0.28c-0.24-0.62-0.43-1.26-0.57-1.91c-0.03-0.17-0.07-0.34-0.09-0.5c-0.01-0.06-0.02-0.11-0.02-0.17
	c-0.05-0.29,0.02,0.27,0-0.03c-0.03-0.34-0.06-0.68-0.07-1.03c-0.01-0.34,0-0.69,0.02-1.04c0.01-0.14,0.02-0.29,0.04-0.43
	c0.01-0.06,0.06-0.36,0-0.04c0.02-0.11,0.04-0.23,0.06-0.35c0.14-0.77,0.36-1.53,0.66-2.25c-0.11,0.25,0.11-0.23,0.15-0.32
	c0.1-0.2,0.2-0.4,0.31-0.59c0.21-0.37,0.44-0.74,0.69-1.09c0.06-0.08,0.12-0.16,0.18-0.25c0.08-0.11,0.08-0.11,0-0.01
	c0.04-0.05,0.09-0.11,0.13-0.16c0.13-0.16,0.27-0.33,0.41-0.48c0.32-0.36,0.65-0.7,1-1.02c0.83-0.78,1.49-1.26,2.47-1.88
	c0.96-0.61,0.6-2.17-0.59-2.18c-0.51,0-1.03-0.02-1.54-0.05c-0.24-0.02-0.47-0.04-0.71-0.06c-0.12-0.01-0.25-0.03-0.37-0.04
	c-0.14-0.02,0.03,0,0.05,0.01c-0.07-0.01-0.14-0.02-0.2-0.03c-0.89-0.14-1.78-0.34-2.63-0.61c-0.19-0.06-0.38-0.13-0.56-0.2
	c-0.1-0.04-0.2-0.07-0.29-0.11c-0.09-0.04-0.31-0.13-0.09-0.04c-0.36-0.16-0.71-0.32-1.06-0.51c-0.34-0.18-0.68-0.39-1-0.61
	c-0.15-0.1-0.29-0.2-0.43-0.3c-0.11-0.08-0.17-0.13-0.02-0.01c-0.08-0.07-0.17-0.13-0.25-0.2c-0.54-0.45-1.03-0.94-1.47-1.48
	c-0.06-0.07-0.11-0.14-0.16-0.2c-0.05-0.05,0.14,0.19,0,0c-0.11-0.15-0.22-0.3-0.32-0.46c-0.18-0.28-0.36-0.56-0.52-0.86
	c-0.16-0.29-0.29-0.59-0.43-0.89c0.14,0.31-0.04-0.11-0.09-0.23c-0.06-0.16-0.11-0.32-0.17-0.48c-0.2-0.63-0.34-1.28-0.45-1.94
	c-0.04-0.22,0.02,0.24,0,0.02c-0.01-0.09-0.02-0.17-0.03-0.25c-0.02-0.17-0.03-0.34-0.04-0.5c-0.02-0.32-0.02-0.65-0.02-0.97
	c0.01-0.32,0.02-0.65,0.06-0.97c0.01-0.12,0.09-0.58,0.02-0.23c0.03-0.17,0.05-0.33,0.08-0.5c0.12-0.65,0.29-1.29,0.51-1.91
	c0.05-0.15,0.11-0.29,0.16-0.44c0.02-0.07,0.05-0.13,0.08-0.2c-0.13,0.32-0.01,0.02,0.02-0.05c0.14-0.29,0.28-0.59,0.43-0.87
	c0.16-0.29,0.34-0.58,0.52-0.86c0.09-0.13,0.18-0.26,0.27-0.38c0.04-0.06,0.09-0.11,0.13-0.18c0.09-0.13-0.14,0.18,0.04-0.05
	c0.42-0.51,0.86-0.98,1.36-1.41c0.12-0.11,0.25-0.2,0.37-0.3c0.22-0.18-0.14,0.1,0.02-0.02c0.07-0.05,0.14-0.1,0.21-0.15
	c0.28-0.2,0.58-0.39,0.88-0.56c0.29-0.17,0.6-0.33,0.91-0.47c0.07-0.03,0.14-0.06,0.21-0.09c-0.3,0.13-0.03,0.01,0.05-0.02
	c0.17-0.06,0.34-0.13,0.52-0.19c0.34-0.11,0.69-0.21,1.04-0.29c0.17-0.04,0.35-0.08,0.52-0.11c0.09-0.02,0.19-0.03,0.29-0.05
	c0.08-0.01,0.43-0.06,0.11-0.02c0.79-0.09,1.59-0.13,2.39-0.09c0.2,0.01,0.41,0.02,0.61,0.05c0.11,0.01,0.22,0.02,0.33,0.03
	c0.05,0,0.09,0.01,0.14,0.02c0.18,0.02-0.2-0.03-0.02,0c0.45,0.06,0.89,0.15,1.33,0.25c0.98,0.22,1.95,0.52,2.88,0.88
	c0.11,0.04,0.22,0.09,0.33,0.13c0.04,0.02,0.36,0.15,0.22,0.09c0.26,0.11,0.52,0.23,0.79,0.35c0.57,0.27,1.26,0.16,1.6-0.42
	C194.28,671.5,194.14,670.68,193.57,670.41z"/>
<path class="st1" d="M208.47,693.5c-0.32-0.46-0.61-0.94-0.86-1.44c-0.05-0.11-0.1-0.21-0.15-0.32c-0.09-0.2-0.01-0.03,0,0.01
	c-0.02-0.06-0.05-0.12-0.07-0.18c-0.09-0.23-0.17-0.47-0.23-0.71c-0.06-0.21-0.11-0.43-0.15-0.65c-0.02-0.12-0.05-0.31-0.02-0.07
	c-0.01-0.12-0.03-0.25-0.04-0.37c-0.01-0.2-0.02-0.41-0.01-0.61c0-0.09,0.01-0.18,0.02-0.28c0.01-0.08,0.07-0.47,0-0.11
	c0.07-0.39,0.15-0.77,0.29-1.14c0.03-0.08,0.06-0.16,0.09-0.24c-0.09,0.24-0.02,0.06,0.03-0.06c0.09-0.18,0.18-0.35,0.28-0.52
	c0.09-0.15,0.19-0.29,0.29-0.43c0.18-0.26-0.09,0.09,0.04-0.06c0.07-0.07,0.13-0.15,0.19-0.22c0.27-0.3,0.56-0.56,0.86-0.82
	c0.15-0.13-0.2,0.14,0.03-0.02c0.07-0.05,0.14-0.1,0.22-0.15c0.17-0.11,0.34-0.22,0.51-0.32c0.16-0.09,0.33-0.18,0.5-0.27
	c0.08-0.04,0.16-0.08,0.24-0.11c0.29-0.14-0.14,0.05,0.11-0.05c0.38-0.13,0.74-0.26,1.13-0.36c0.19-0.05,0.38-0.08,0.56-0.11
	c0.16-0.03,0.25-0.03,0.03-0.01c0.11-0.01,0.23-0.02,0.34-0.04c0.4-0.03,0.79-0.04,1.19-0.01c0.09,0,0.18,0.02,0.27,0.02
	c0.05,0,0.1,0.01,0.15,0.02c0.16,0.02-0.24-0.04-0.08-0.01c0.2,0.04,0.41,0.07,0.61,0.12c0.19,0.04,0.37,0.1,0.56,0.16
	c0.09,0.03,0.17,0.06,0.26,0.09c0.05,0.02,0.1,0.04,0.14,0.06c0.14,0.05-0.26-0.13-0.03-0.01c0.36,0.17,0.7,0.35,1.04,0.57
	c0.05,0.03,0.34,0.24,0.21,0.14c-0.12-0.09,0.15,0.12,0.2,0.16c0.18,0.16,0.35,0.32,0.51,0.49c0.09,0.09,0.17,0.19,0.26,0.29
	c0.07,0.08,0.23,0.31,0.09,0.11c0.16,0.22,0.31,0.44,0.45,0.67c0.14,0.23,0.26,0.47,0.38,0.71c0.03,0.06,0.05,0.12,0.08,0.18
	c0.08,0.17-0.1-0.26,0.02,0.04c0.05,0.13,0.1,0.25,0.14,0.38c0.22,0.63,0.38,1.27,0.49,1.93c0.11,0.62,0.87,0.97,1.44,0.81
	c0.67-0.18,0.91-0.81,0.81-1.44c-0.19-1.2-0.27-2.79-0.12-4.18c0.01-0.09,0.02-0.17,0.03-0.26c0,0.05-0.04,0.23,0,0
	c0.02-0.15,0.05-0.3,0.07-0.45c0.06-0.3,0.12-0.6,0.2-0.9c0.07-0.27,0.16-0.53,0.25-0.79c0.05-0.13,0.09-0.25,0.14-0.38
	c0.02-0.07,0.11-0.25,0,0c0.04-0.08,0.07-0.16,0.11-0.24c0.21-0.45,0.46-0.89,0.74-1.3c0.07-0.11,0.16-0.22,0.23-0.32
	c-0.15,0.21-0.01,0.02,0.06-0.07c0.16-0.2,0.34-0.39,0.52-0.57c0.16-0.16,0.33-0.31,0.5-0.45c0.1-0.09,0.26-0.19,0.06-0.05
	c0.11-0.08,0.22-0.16,0.33-0.23c0.37-0.25,0.77-0.45,1.17-0.65c0.23-0.11-0.2,0.08-0.05,0.02c0.06-0.02,0.11-0.05,0.17-0.07
	c0.09-0.03,0.18-0.07,0.27-0.09c0.23-0.07,0.45-0.14,0.68-0.19c0.21-0.05,0.42-0.08,0.63-0.12c-0.25,0.04-0.12,0.02,0.04,0
	c0.13-0.01,0.26-0.02,0.39-0.03c0.44-0.02,0.87,0.02,1.31,0.05c-0.37-0.02-0.02,0,0.07,0.02c0.11,0.02,0.21,0.04,0.32,0.06
	c0.23,0.05,0.46,0.11,0.69,0.18c0.2,0.06,0.38,0.14,0.58,0.21c0.16,0.06-0.27-0.13-0.05-0.02c0.05,0.02,0.09,0.04,0.13,0.06
	c0.11,0.05,0.22,0.11,0.33,0.16c0.2,0.1,0.39,0.21,0.58,0.33c0.11,0.07,0.21,0.14,0.31,0.2c0.07,0.05,0.39,0.3,0.13,0.09
	c0.37,0.3,0.72,0.62,1.04,0.98c0.08,0.09,0.16,0.18,0.23,0.27c0.03,0.04,0.07,0.08,0.1,0.12c0.18,0.2-0.11-0.15-0.01-0.01
	c0.16,0.21,0.3,0.43,0.44,0.65c0.16,0.25,0.3,0.52,0.44,0.78c0.07,0.14,0.14,0.29,0.2,0.44c0.02,0.05,0.08,0.2-0.01-0.03
	c0.03,0.09,0.07,0.17,0.1,0.25c0.24,0.63,0.42,1.28,0.55,1.94c0.03,0.17,0.06,0.34,0.09,0.5c0.01,0.07,0.02,0.14,0.03,0.21
	c-0.04-0.26,0,0.05,0.01,0.11c0.05,0.4,0.07,0.8,0.08,1.2c0.02,0.84-0.02,1.68-0.11,2.51c-0.12,1.12,1.73,1.64,2.18,0.59
	c0.19-0.44,0.4-0.87,0.64-1.28c0.11-0.19,0.24-0.38,0.36-0.57c0.06-0.09,0.13-0.18,0.19-0.27c-0.12,0.16,0.05-0.06,0.09-0.1
	c0.27-0.32,0.55-0.61,0.86-0.88c0.07-0.07,0.15-0.13,0.23-0.19c-0.21,0.17,0.05-0.03,0.08-0.05c0.16-0.11,0.32-0.22,0.48-0.32
	c0.16-0.1,0.33-0.19,0.5-0.27c0.09-0.04,0.17-0.08,0.25-0.12c0.28-0.13-0.23,0.07,0.06-0.02c0.35-0.11,0.69-0.24,1.06-0.31
	c0.18-0.04,0.36-0.07,0.54-0.1c-0.32,0.04,0.23-0.02,0.32-0.02c0.36-0.02,0.72-0.02,1.08,0.01c0.09,0.01,0.18,0.02,0.27,0.02
	c0.3,0.02-0.25-0.05,0.04,0.01c0.18,0.04,0.36,0.06,0.53,0.1c0.35,0.08,0.7,0.18,1.03,0.31c0.09,0.03,0.17,0.06,0.25,0.1
	c-0.28-0.11,0,0,0.05,0.02c0.16,0.08,0.32,0.16,0.48,0.24c0.32,0.17,0.61,0.37,0.9,0.57c0.25,0.16-0.18-0.16,0.05,0.03
	c0.07,0.06,0.14,0.11,0.2,0.17c0.13,0.11,0.27,0.24,0.39,0.36c0.11,0.11,0.21,0.21,0.31,0.32c0.06,0.07,0.11,0.14,0.17,0.2
	c0.21,0.25-0.01-0.05,0.09,0.11c0.18,0.27,0.36,0.54,0.52,0.83c0.09,0.16,0.16,0.32,0.23,0.49c-0.12-0.27,0,0.01,0.02,0.06
	c0.04,0.11,0.08,0.23,0.11,0.35c0.06,0.21,0.11,0.42,0.16,0.63c0.01,0.06,0.02,0.12,0.03,0.18c0.01,0.06,0.02,0.12,0.03,0.19
	c-0.02-0.16-0.02-0.16-0.01-0.02c0.02,0.47,0.05,0.92,0,1.39c0,0.04-0.05,0.38-0.01,0.1c-0.02,0.11-0.03,0.21-0.05,0.32
	c-0.04,0.25-0.11,0.5-0.18,0.75c-0.16,0.59-0.3,0.93-0.52,1.39c-0.27,0.57-0.16,1.26,0.42,1.6c0.51,0.3,1.33,0.15,1.6-0.42
	c0.91-1.9,1.35-3.95,0.94-6.04c-0.33-1.69-1.29-3.27-2.58-4.4c-2.7-2.36-6.6-3-9.86-1.47c-2.03,0.95-3.54,2.79-4.41,4.82
	c0.72,0.2,1.45,0.39,2.18,0.59c0.32-2.88,0.01-5.9-1.36-8.49c-1.07-2.03-2.81-3.62-4.94-4.48c-4.14-1.67-8.88,0.18-11.05,4.02
	c-1.65,2.93-1.75,6.39-1.25,9.64c0.75-0.21,1.5-0.41,2.25-0.62c-0.38-2.23-1.37-4.47-3.15-5.94c-1.54-1.27-3.46-1.94-5.46-1.91
	c-3.69,0.04-7.56,2.38-8.49,6.11c-0.62,2.49,0.2,5.02,1.62,7.09c0.36,0.52,1.03,0.75,1.6,0.42
	C208.57,694.8,208.83,694.02,208.47,693.5z"/>
<path class="st0" d="M529.84,626.31c-0.5-5.61,1.31-12.51,4.84-17.23c1.76-2.34,3.89-4.07,6.3-4.89c2.38-0.81,5.16-0.76,8.33,0.66
	l0,0c7.73,3.45,13.64,11.91,15.23,20.41l2.59-0.48c0,0,0,0,0,0 M567.13,624.78c0.24-1.27,0.13-3.29,1.17-5.34
	c1.02-2.03,2.6-4.14,4.44-6.14c3.71-4.02,8.25-7.31,11-8.34l0,0c3.81-1.42,7.43-1.3,10.39,0.09c2.95,1.39,5.37,4.1,6.69,8.1l0,0
	c3.71,11.29,1.52,23.17-3.64,34.22c-5.16,11.05-13.25,21.15-21.13,28.76l0,0c-2.6,2.52-4.89,3.72-6.93,4.11
	c-2.01,0.38-3.92-0.02-5.84-0.99c-1.94-0.99-3.85-2.55-5.8-4.45c-1.44-1.4-2.86-2.93-4.32-4.5c-0.52-0.56-1.04-1.12-1.57-1.69
	c-4.35-4.65-8.42-9.57-11.83-14.94 M539.76,653.68c-5.1-8.05-9.06-17.86-9.92-27.36"/>
</svg>
