<?xml version="1.0" encoding="utf-8"?>
<!-- Generator: Adobe Illustrator 27.6.1, SVG Export Plug-In . SVG Version: 6.00 Build 0)  -->
<svg version="1.1" id="Layer_1" xmlns="http://www.w3.org/2000/svg" xmlns:xlink="http://www.w3.org/1999/xlink" x="0px" y="0px"
	 viewBox="0 0 1238 717" style="enable-background:new 0 0 1238 717;" xml:space="preserve">
<style type="text/css">
	.st0{fill:none;stroke:#8787C1;stroke-width:3;}
	.st1{fill:#8787C1;}
</style>
<path class="st0" d="M141.11,53.12c2.48,4.17,5.91,8.76,9.14,12.42c0.4,0.45,0.79,0.9,1.18,1.34c1.08,1.24,2.12,2.43,3.19,3.53
	c1.45,1.49,2.84,2.69,4.25,3.46c1.38,0.75,2.73,1.07,4.16,0.84c1.45-0.23,3.15-1.04,5.16-2.88l0,0c6.19-5.64,12.6-13.18,16.78-21.49
	c4.18-8.31,6.09-17.26,3.54-25.86l0,0c-0.89-2.99-2.61-5.02-4.71-6.08c-2.11-1.07-4.75-1.25-7.6-0.28l0,0
	c-2.04,0.69-5.54,3.06-8.45,6.04c-1.44,1.47-2.66,3.03-3.47,4.51c-0.82,1.51-1.12,2.78-0.96,3.77l-2.96,0.46
	c0,0-1.84,0.23-1.84,0.23 M150.25,65.53C150.25,65.53,150.25,65.53,150.25,65.53l-1.12,0.99L150.25,65.53
	C150.25,65.53,150.25,65.53,150.25,65.53z M141.11,53.12c-3.27-5.51-6.06-13.07-6.5-20.3c-0.25-4.21,1.26-9.36,4.01-12.8
	c1.36-1.71,2.96-2.92,4.72-3.45c1.72-0.53,3.73-0.45,6.03,0.67l0,0c5.7,2.75,9.97,9.23,10.54,14.93"/>
<path class="st1" d="M1119.55,22.91c-5.26-2.45-11.16-3.89-16.93-2.57c-4.42,1.01-8.24,3.75-10.76,7.5
	c-2.33,3.47-3.47,7.81-3.21,11.98c0.27,4.43,2.04,8.69,5.19,11.85c3.82,3.83,9.13,5.58,14.43,5.96c0.76,0.05,1.53,0.08,2.31,0.08
	c-0.29-1.05-0.57-2.11-0.86-3.16c-4.56,2.9-8.47,7.02-9.94,12.33c-1.2,4.34-0.57,8.96,1.4,12.98c3.88,7.92,13.1,12.98,21.82,10.52
	c6.31-1.79,10.99-6.9,14.19-12.4c-1.05-0.28-2.1-0.57-3.15-0.85c-0.35,3.96,0.3,8.11,2.44,11.51c1.88,2.99,4.69,5.16,7.96,6.42
	c6.17,2.37,13.78,0.98,18.43-3.79c3.06-3.13,4.49-7.38,4.59-11.71c-1.12,0-2.26,0-3.39,0c0.4,4.13,1.73,8.14,4.56,11.25
	c2.24,2.46,5.37,4.15,8.64,4.73c6.83,1.21,14.06-1.67,17.83-7.57c2.47-3.85,2.98-8.46,2.32-12.91c-1.03,0.43-2.06,0.87-3.09,1.31
	c4.75,7.42,13.42,14.2,22.74,12.21c2.46-0.53,4.75-1.7,6.74-3.23c1.66-1.28,3.22-2.64,4.41-4.4c2.13-3.15,3.06-7.22,2.81-10.99
	c-0.29-4.48-2.19-8.75-5.98-11.32c-0.14,1.03-0.27,2.07-0.4,3.1c4.23-1.4,7.97-3.96,10.42-7.72c2.09-3.19,3.08-7.1,2.91-10.9
	c-0.36-7.78-5.4-15.11-13.16-17.03c-5.48-1.35-11.13,0.08-16.09,2.52c0.83,0.64,1.66,1.28,2.49,1.91c1.11-4.83,1.4-10.02-0.14-14.8
	c-1.23-3.82-3.56-7.14-6.84-9.45c-6.28-4.43-14.97-3.89-21.16,0.4c-4.37,3.03-7.36,7.47-9.22,12.4c1.11,0.15,2.22,0.3,3.33,0.45
	c0.52-6.24-1.97-12.97-7.89-15.82c-5.02-2.42-11.21-1.45-14.77,3c-2.53,3.16-3.43,7.2-3.45,11.2c1.11-0.15,2.22-0.3,3.33-0.45
	c-0.99-4.8-3.14-9.55-6.88-12.83c-3.14-2.75-7.06-4.31-11.21-4.57c-7.61-0.49-15.87,3.63-19.13,10.71
	c-2.07,4.49-1.95,9.53-0.13,14.08c0.34,0.85,1.14,1.44,2.09,1.18c0.8-0.22,1.52-1.23,1.18-2.08c-0.41-1.03-0.75-2.08-0.99-3.16
	c-0.05-0.22-0.09-0.45-0.13-0.66c-0.02-0.13-0.04-0.27-0.06-0.4c-0.09-0.45,0.03,0.37-0.02-0.07c-0.04-0.47-0.09-0.94-0.1-1.41
	c-0.02-0.46-0.01-0.91,0.02-1.37c0.01-0.2,0.03-0.41,0.04-0.61c0.02-0.12,0.03-0.24,0.04-0.36c-0.05,0.5,0.01-0.04,0.03-0.14
	c0.14-0.85,0.35-1.69,0.65-2.5c0.06-0.18,0.13-0.36,0.2-0.54c0.14-0.37-0.16,0.34,0.01-0.02c0.05-0.1,0.09-0.21,0.14-0.31
	c0.19-0.4,0.39-0.78,0.61-1.16c0.2-0.34,0.42-0.68,0.64-1.01c0.13-0.19,0.27-0.37,0.41-0.55c-0.28,0.37,0.13-0.17,0.23-0.28
	c0.54-0.64,1.13-1.24,1.76-1.79c0.17-0.15,0.35-0.3,0.53-0.45c0.06-0.05,0.12-0.09,0.18-0.14c0.31-0.26-0.31,0.21,0.02-0.02
	c0.38-0.27,0.75-0.54,1.14-0.79c0.72-0.46,1.47-0.87,2.24-1.22c0.11-0.05,0.22-0.09,0.32-0.14c0.36-0.17-0.26,0.11-0.02,0.01
	c0.19-0.08,0.39-0.16,0.59-0.24c0.44-0.17,0.89-0.31,1.33-0.45c0.83-0.24,1.67-0.43,2.52-0.57c0.12-0.02,0.23-0.04,0.35-0.05
	c-0.43,0.06-0.2,0.02-0.1,0.02c0.23-0.02,0.47-0.05,0.7-0.07c0.43-0.04,0.86-0.05,1.29-0.06c0.44-0.01,0.87,0.01,1.3,0.03
	c0.21,0.01,0.43,0.03,0.64,0.05c0.15,0.01,0.95,0.12,0.43,0.04c0.86,0.14,1.71,0.31,2.55,0.56c0.42,0.12,0.83,0.27,1.24,0.43
	c0.11,0.04,0.22,0.09,0.33,0.14c-0.37-0.15-0.15-0.07-0.07-0.03c0.25,0.12,0.51,0.24,0.77,0.36c0.8,0.41,1.56,0.89,2.3,1.42
	c0.06,0.05,0.4,0.31,0.06,0.04c0.1,0.08,0.19,0.16,0.29,0.24c0.24,0.19,0.46,0.39,0.68,0.59c0.39,0.36,0.75,0.72,1.1,1.12
	c0.2,0.21,0.39,0.43,0.57,0.66c0.08,0.09,0.15,0.18,0.22,0.27c-0.26-0.33,0.1,0.14,0.15,0.21c0.33,0.46,0.64,0.93,0.93,1.41
	c0.34,0.55,0.64,1.12,0.92,1.69c0.34,0.71,0.36,0.77,0.63,1.46c0.52,1.38,0.91,2.81,1.21,4.27c0.4,1.9,3.33,1.42,3.33-0.45
	c0.01-0.9,0.05-1.8,0.16-2.69c0.04-0.35,0.02-0.12,0-0.05c0.02-0.11,0.04-0.22,0.06-0.33c0.03-0.19,0.06-0.37,0.1-0.56
	c0.08-0.39,0.16-0.77,0.26-1.15c0.09-0.36,0.21-0.72,0.33-1.07c0.05-0.16,0.11-0.31,0.17-0.47c0.03-0.09,0.07-0.18,0.1-0.26
	c-0.05,0.14-0.08,0.18,0,0.02c0.3-0.62,0.6-1.23,0.99-1.81c0.08-0.12,0.17-0.24,0.26-0.37c0.04-0.07,0.1-0.14,0.14-0.2
	c0,0.01-0.19,0.24-0.07,0.1c0.21-0.25,0.42-0.5,0.64-0.73c0.19-0.2,0.39-0.39,0.6-0.58c0.1-0.09,0.21-0.17,0.31-0.27
	c0.22-0.2-0.03,0.02-0.07,0.05c0.08-0.06,0.15-0.11,0.23-0.17c0.46-0.33,0.95-0.62,1.46-0.86c0.11-0.05,0.23-0.11,0.35-0.16
	c-0.45,0.21,0.01,0,0.11-0.04c0.26-0.1,0.52-0.18,0.79-0.26c0.26-0.07,0.53-0.14,0.8-0.18c0.12-0.02,0.25-0.04,0.38-0.07
	c0.19-0.04-0.19,0.02-0.18,0.02c0.09-0.01,0.18-0.02,0.27-0.03c0.56-0.05,1.1-0.06,1.65-0.02c0.15,0.01,0.29,0.03,0.44,0.04
	c0.39,0.02-0.26-0.05,0.04,0c0.3,0.05,0.59,0.1,0.88,0.17c0.55,0.13,1.07,0.31,1.61,0.5c0.28,0.1-0.32-0.15,0.06,0.03
	c0.12,0.06,0.24,0.11,0.36,0.17c0.28,0.14,0.55,0.28,0.81,0.44c0.23,0.14,0.46,0.28,0.68,0.44c0.13,0.09,0.26,0.18,0.38,0.27
	c-0.3-0.22,0-0.01,0.12,0.1c0.46,0.39,0.9,0.81,1.29,1.26c0.1,0.11,0.19,0.22,0.28,0.33c0.1,0.12,0.28,0.36,0.09,0.09
	c0.19,0.27,0.39,0.55,0.57,0.83c0.2,0.31,0.38,0.63,0.55,0.96c0.08,0.15,0.16,0.31,0.24,0.47c0.04,0.1,0.26,0.64,0.12,0.27
	c0.29,0.74,0.53,1.5,0.71,2.28c0.09,0.39,0.16,0.78,0.22,1.17c0.01,0.07,0.06,0.33,0,0c0.01,0.13,0.03,0.26,0.04,0.39
	c0.02,0.21,0.04,0.42,0.05,0.63c0.06,0.97,0.04,1.95-0.04,2.91c-0.07,0.83,0.69,1.57,1.47,1.66c0.89,0.11,1.56-0.4,1.86-1.21
	c0.69-1.85,1.77-3.96,3.06-5.78c0.15-0.21,0.3-0.42,0.46-0.62c-0.2,0.26,0.19-0.24,0.25-0.31c0.34-0.4,0.67-0.79,1.03-1.17
	c0.65-0.69,1.36-1.33,2.1-1.93c0.04-0.04,0.41-0.32,0.09-0.08c0.07-0.05,0.15-0.11,0.22-0.17c0.18-0.13,0.37-0.27,0.56-0.4
	c0.39-0.27,0.79-0.52,1.19-0.75c0.36-0.21,0.73-0.41,1.11-0.59c0.19-0.09,0.39-0.19,0.58-0.28c0.1-0.04,0.2-0.09,0.3-0.13
	c0.11-0.05,0.08-0.04-0.11,0.05c0.08-0.03,0.16-0.07,0.24-0.09c0.8-0.3,1.59-0.56,2.42-0.76c0.39-0.09,0.77-0.17,1.16-0.23
	c0.1-0.02,0.2-0.03,0.31-0.05c0.4-0.07-0.29,0.03-0.03,0c0.23-0.02,0.45-0.05,0.67-0.07c0.81-0.07,1.62-0.08,2.43-0.03
	c0.2,0.01,0.41,0.03,0.6,0.05c0.12,0.01,0.77,0.11,0.27,0.02c0.41,0.07,0.82,0.14,1.23,0.23c0.8,0.18,1.58,0.42,2.34,0.71
	c0.07,0.03,0.15,0.06,0.22,0.09c0.39,0.15-0.34-0.17,0.04,0.02c0.16,0.08,0.32,0.15,0.48,0.23c0.38,0.18,0.74,0.38,1.11,0.59
	c0.34,0.2,0.68,0.42,1.01,0.65c0.14,0.1,0.29,0.21,0.43,0.32c0.21,0.15-0.31-0.26,0-0.01c0.09,0.08,0.19,0.15,0.28,0.23
	c0.64,0.54,1.24,1.13,1.79,1.77c0.12,0.14,0.24,0.29,0.36,0.43c0.28,0.33-0.21-0.29,0.04,0.05c0.05,0.07,0.1,0.14,0.15,0.2
	c0.28,0.38,0.54,0.77,0.78,1.18c0.2,0.34,0.39,0.68,0.58,1.03c0.1,0.2,0.19,0.4,0.29,0.6c0.06,0.12,0.11,0.25,0.16,0.37
	c-0.12-0.27-0.02-0.04,0.04,0.1c0.4,1,0.7,2.02,0.93,3.06c0.06,0.27,0.11,0.53,0.16,0.81c0.02,0.15,0.05,0.3,0.07,0.45
	c0.01,0.08,0.07,0.53,0.03,0.16c0.07,0.58,0.12,1.16,0.15,1.74c0.06,1.31,0.03,2.62-0.1,3.92c-0.12,1.32-0.35,2.58-0.68,4.04
	c-0.34,1.5,1.16,2.56,2.49,1.91c2.09-1.03,4.39-1.87,6.85-2.31c0.25-0.05,0.51-0.09,0.76-0.12c-0.36,0.05,0.36-0.04,0.45-0.05
	c0.53-0.05,1.06-0.08,1.59-0.1c0.47-0.01,0.94,0.01,1.4,0.03c0.23,0.01,0.45,0.04,0.68,0.05c0.13,0.01,0.26,0.03,0.39,0.05
	c-0.43-0.05-0.02,0,0.08,0.02c0.93,0.17,1.83,0.38,2.73,0.69c0.19,0.07,0.38,0.15,0.58,0.22c0.08,0.03,0.29,0.13-0.07-0.03
	c0.11,0.05,0.23,0.1,0.33,0.15c0.41,0.18,0.8,0.39,1.18,0.61c0.35,0.2,0.69,0.41,1.01,0.64c0.16,0.11,0.32,0.23,0.48,0.34
	c0.34,0.24-0.27-0.24,0.03,0.02c0.09,0.08,0.19,0.15,0.28,0.23c0.63,0.53,1.21,1.11,1.75,1.73c0.14,0.16,0.27,0.33,0.41,0.5
	c0.06,0.08,0.23,0.31-0.01-0.02c0.06,0.08,0.11,0.15,0.17,0.24c0.26,0.37,0.51,0.74,0.75,1.12c0.42,0.7,0.8,1.44,1.12,2.19
	c-0.19-0.45,0.06,0.14,0.1,0.25c0.07,0.18,0.13,0.37,0.2,0.55c0.14,0.41,0.27,0.82,0.37,1.24c0.1,0.38,0.19,0.77,0.27,1.15
	c0.04,0.2,0.07,0.39,0.11,0.58c0.02,0.12,0.03,0.23,0.05,0.35c-0.07-0.47-0.01-0.09,0,0.02c0.09,0.85,0.14,1.69,0.11,2.55
	c-0.01,0.42-0.03,0.83-0.07,1.25c-0.01,0.12-0.1,0.77-0.03,0.26c-0.03,0.24-0.07,0.47-0.11,0.71c-0.15,0.82-0.36,1.64-0.63,2.43
	c-0.06,0.19-0.13,0.38-0.2,0.56c-0.04,0.11-0.3,0.69-0.1,0.27c-0.19,0.4-0.37,0.81-0.58,1.2c-0.23,0.43-0.48,0.85-0.76,1.26
	c-0.13,0.21-0.28,0.41-0.42,0.61c-0.05,0.06-0.3,0.4-0.03,0.05c-0.08,0.1-0.16,0.19-0.24,0.3c-0.65,0.8-1.38,1.53-2.17,2.19
	c-0.09,0.07-0.18,0.14-0.26,0.21c-0.34,0.28,0.14-0.09-0.13,0.1c-0.22,0.15-0.44,0.32-0.66,0.47c-0.47,0.31-0.95,0.6-1.43,0.87
	c-0.51,0.28-1.04,0.53-1.57,0.77c0.06-0.03,0.3-0.12-0.01,0.01c-0.17,0.07-0.33,0.13-0.5,0.2c-0.31,0.12-0.62,0.23-0.95,0.33
	c-1.43,0.48-1.62,2.27-0.4,3.1c0.53,0.36,1.09,0.84,1.65,1.47c0.13,0.15,0.26,0.3,0.38,0.45c-0.14-0.18,0.15,0.21,0.19,0.27
	c0.24,0.35,0.46,0.71,0.67,1.08c0.42,0.77,0.54,1.08,0.81,1.96c0.12,0.39,0.23,0.78,0.32,1.18c0.08,0.34,0.19,0.98,0.21,1.16
	c0.39,3.06-0.17,6.42-1.66,9.1c-0.19,0.34-0.4,0.68-0.62,1c-0.1,0.16-0.22,0.32-0.33,0.47c-0.12,0.15-0.02,0.01,0.01-0.02
	c-0.09,0.11-0.17,0.21-0.26,0.31c-0.25,0.29-0.51,0.56-0.79,0.83c-0.13,0.13-0.28,0.25-0.42,0.38c-0.06,0.05-0.12,0.1-0.18,0.15
	c-0.08,0.06-0.09,0.07-0.02,0.02c0.16-0.12,0.06-0.04-0.3,0.23c-1.67,1.4-3.37,2.65-5.48,3.33c-3.64,1.16-7.4,0.5-10.76-1.28
	c-3.89-2.07-7.14-5.34-9.5-9.01c-0.45-0.71-1.33-1.04-2.12-0.69c-0.83,0.37-1.11,1.14-0.98,2c0.08,0.53-0.01-0.19,0.02,0.12
	c0.01,0.11,0.03,0.22,0.04,0.33c0.02,0.24,0.05,0.48,0.06,0.72c0.04,0.49,0.06,0.99,0.06,1.48c0,0.43-0.02,0.85-0.05,1.28
	c-0.02,0.24-0.05,0.49-0.07,0.72c0,0.08-0.04,0.33,0.01-0.02c-0.02,0.14-0.04,0.28-0.07,0.42c-0.13,0.81-0.33,1.61-0.59,2.39
	c-0.06,0.19-0.13,0.37-0.2,0.56c-0.04,0.1-0.28,0.65-0.1,0.26c-0.17,0.37-0.35,0.74-0.54,1.1c-0.17,0.31-0.35,0.62-0.54,0.93
	c-0.11,0.18-0.23,0.35-0.35,0.52c-0.07,0.1-0.45,0.6-0.18,0.26c-0.46,0.58-0.95,1.13-1.49,1.63c-0.27,0.25-0.55,0.49-0.82,0.72
	c-0.37,0.31,0.13-0.09-0.19,0.14c-0.16,0.12-0.32,0.24-0.49,0.35c-0.61,0.42-1.26,0.79-1.92,1.12c-0.15,0.07-0.29,0.14-0.44,0.21
	c-0.09,0.04-0.18,0.08-0.27,0.12c-0.21,0.1,0.29-0.12,0.07-0.03c-0.35,0.14-0.71,0.27-1.07,0.39c-0.7,0.23-1.42,0.41-2.14,0.55
	c-0.18,0.03-0.36,0.06-0.53,0.09c-0.26,0.05,0.3-0.03-0.14,0.02c-0.4,0.04-0.79,0.07-1.19,0.09c-0.71,0.03-1.42,0.01-2.13-0.07
	c-0.09-0.01-0.63-0.08-0.37-0.04c0.27,0.04-0.27-0.05-0.36-0.06c-0.37-0.07-0.73-0.14-1.1-0.24c-0.32-0.08-0.64-0.18-0.96-0.28
	c-0.17-0.05-0.34-0.11-0.51-0.18c-0.09-0.04-0.18-0.07-0.28-0.11c-0.32-0.12,0.31,0.15-0.03-0.01c-0.66-0.3-1.29-0.62-1.9-1.01
	c-0.31-0.2-0.6-0.4-0.89-0.62c0.29,0.22-0.02-0.02-0.14-0.11c-0.17-0.14-0.34-0.29-0.51-0.44c-0.32-0.3-0.63-0.61-0.92-0.94
	c-0.14-0.16-0.28-0.32-0.41-0.49c-0.06-0.07-0.11-0.14-0.16-0.2c0.26,0.33-0.02-0.02-0.05-0.07c-0.53-0.75-1-1.54-1.4-2.37
	c-0.05-0.11-0.1-0.21-0.15-0.32c-0.14-0.29,0.05,0.14-0.02-0.05c-0.11-0.24-0.2-0.49-0.29-0.74c-0.17-0.47-0.31-0.95-0.44-1.44
	c-0.14-0.51-0.25-1.02-0.35-1.54c-0.14-0.74-0.14-0.77-0.21-1.54c-0.09-0.91-0.71-1.69-1.69-1.69c-0.94,0-1.67,0.78-1.69,1.69
	c-0.01,0.46-0.04,0.93-0.08,1.39c-0.01,0.1-0.01,0.2-0.03,0.3c0-0.01-0.06,0.48-0.02,0.22c0.04-0.26-0.04,0.21-0.04,0.21
	c-0.02,0.14-0.04,0.29-0.07,0.43c-0.15,0.82-0.36,1.63-0.64,2.41c-0.08,0.21-0.15,0.42-0.24,0.62c-0.03,0.08-0.13,0.29,0.02-0.04
	c-0.03,0.08-0.07,0.16-0.1,0.24c-0.19,0.39-0.38,0.76-0.59,1.14c-0.19,0.33-0.39,0.64-0.6,0.96c-0.1,0.14-0.2,0.27-0.29,0.4
	c-0.17,0.25,0.02-0.01,0.05-0.05c-0.08,0.1-0.16,0.19-0.24,0.29c-0.48,0.59-1.02,1.13-1.6,1.63c-0.12,0.1-0.24,0.2-0.37,0.3
	c-0.29,0.25,0.22-0.16,0.02-0.01c-0.08,0.06-0.16,0.12-0.24,0.18c-0.29,0.21-0.58,0.4-0.89,0.59c-0.3,0.18-0.61,0.36-0.92,0.52
	c-0.17,0.09-0.35,0.18-0.53,0.26c-0.12,0.05-0.68,0.29-0.24,0.11c-0.68,0.27-1.36,0.5-2.07,0.69c-0.33,0.08-0.65,0.15-0.98,0.22
	c-0.19,0.03-0.38,0.07-0.58,0.1c-0.46,0.08,0.23-0.01-0.25,0.04c-0.72,0.07-1.45,0.11-2.18,0.1c-0.34-0.01-0.67-0.02-1.01-0.05
	c-0.19-0.02-0.39-0.04-0.58-0.06c-0.1-0.01-0.34-0.05,0.1,0.02c-0.12-0.02-0.23-0.04-0.35-0.05c-0.72-0.12-1.43-0.28-2.13-0.49
	c-0.32-0.1-0.63-0.2-0.95-0.32c-0.09-0.04-0.7-0.29-0.25-0.09c-0.17-0.08-0.36-0.16-0.53-0.24c-0.66-0.31-1.29-0.68-1.89-1.08
	c-0.15-0.1-0.3-0.2-0.44-0.31c-0.39-0.28,0.13,0.12-0.18-0.13c-0.29-0.24-0.58-0.49-0.85-0.75c-0.26-0.25-0.52-0.51-0.75-0.78
	c-0.11-0.12-0.22-0.24-0.32-0.37c-0.07-0.08-0.14-0.16-0.19-0.24c-0.09-0.11,0.18,0.26-0.04-0.05c-0.5-0.7-0.96-1.43-1.34-2.21
	c-0.04-0.1-0.09-0.2-0.13-0.29c-0.02-0.04-0.19-0.45-0.1-0.22c0.1,0.25-0.06-0.15-0.06-0.17c-0.05-0.12-0.1-0.25-0.14-0.37
	c-0.16-0.43-0.29-0.87-0.41-1.31c-0.12-0.48-0.22-0.97-0.31-1.46c-0.01-0.1-0.03-0.19-0.04-0.29c-0.02-0.12-0.02-0.1,0.01,0.08
	c-0.01-0.07-0.02-0.15-0.03-0.22c-0.03-0.28-0.06-0.55-0.08-0.83c-0.08-1.13-0.05-2.27,0.05-3.4c0.15-1.73-2.36-2.23-3.16-0.86
	c-1.51,2.6-3.11,4.8-5.32,6.85c-1.05,0.98-1.61,1.42-2.77,2.15c-0.46,0.28-0.92,0.55-1.41,0.8c-0.21,0.11-0.42,0.21-0.64,0.31
	c-0.12,0.06-0.25,0.11-0.38,0.17c0.38-0.17-0.17,0.07-0.24,0.09c-0.95,0.37-1.94,0.65-2.95,0.82c-0.12,0.02-0.25,0.04-0.38,0.07
	c-0.44,0.08,0.37-0.03-0.06,0.01c-0.26,0.02-0.51,0.05-0.76,0.07c-0.51,0.03-1.01,0.04-1.52,0.02c-0.45-0.02-0.91-0.06-1.36-0.11
	c-0.43-0.04,0.38,0.07-0.04-0.01c-0.12-0.02-0.25-0.04-0.37-0.06c-0.25-0.04-0.49-0.1-0.73-0.15c-0.44-0.1-0.87-0.22-1.3-0.36
	c-0.24-0.07-0.47-0.15-0.7-0.24c-0.14-0.05-0.93-0.38-0.51-0.2c-0.86-0.39-1.7-0.82-2.5-1.33c-0.38-0.24-0.75-0.5-1.12-0.77
	c-0.06-0.05-0.39-0.32-0.04-0.04c-0.1-0.08-0.2-0.15-0.29-0.23c-0.19-0.15-0.38-0.32-0.57-0.48c-0.74-0.66-1.43-1.37-2.06-2.14
	c-0.07-0.08-0.47-0.6-0.19-0.24c-0.15-0.2-0.3-0.4-0.44-0.6c-0.29-0.4-0.56-0.82-0.81-1.25c-0.23-0.39-0.45-0.79-0.65-1.19
	c-0.12-0.22-0.22-0.44-0.32-0.67c-0.04-0.08-0.2-0.47-0.03-0.05c-0.05-0.13-0.1-0.27-0.16-0.4c-0.35-0.9-0.63-1.83-0.82-2.78
	c-0.05-0.24-0.1-0.49-0.14-0.73c-0.01-0.08-0.02-0.17-0.03-0.24c-0.08-0.42,0.02,0.39-0.01-0.04c-0.04-0.5-0.09-0.99-0.1-1.49
	c-0.01-0.5,0-1,0.03-1.5c0.02-0.21,0.04-0.42,0.06-0.63c0.02-0.09,0.09-0.52,0.01-0.05c0.03-0.17,0.05-0.34,0.08-0.5
	c0.2-1.12,0.53-2.21,0.96-3.26c-0.15,0.37,0.16-0.33,0.22-0.46c0.15-0.29,0.29-0.58,0.45-0.86c0.31-0.54,0.64-1.07,1-1.58
	c0.08-0.12,0.17-0.24,0.26-0.36c0.12-0.15,0.12-0.16,0.01-0.01c0.06-0.08,0.12-0.16,0.19-0.24c0.19-0.24,0.39-0.47,0.59-0.7
	c0.46-0.52,0.95-1.01,1.45-1.48c1.2-1.13,2.15-1.83,3.58-2.73c1.39-0.89,0.87-3.15-0.86-3.16c-0.74,0-1.49-0.02-2.23-0.08
	c-0.34-0.02-0.68-0.05-1.02-0.09c-0.18-0.02-0.36-0.04-0.54-0.06c-0.21-0.02,0.04,0.01,0.07,0.01c-0.1-0.01-0.2-0.03-0.3-0.04
	c-1.29-0.2-2.58-0.49-3.82-0.89c-0.27-0.09-0.55-0.18-0.81-0.28c-0.15-0.05-0.29-0.11-0.43-0.17c-0.13-0.05-0.45-0.19-0.14-0.05
	c-0.52-0.23-1.03-0.47-1.53-0.74c-0.5-0.27-0.98-0.56-1.45-0.88c-0.21-0.14-0.42-0.29-0.62-0.44c-0.16-0.11-0.24-0.19-0.03-0.02
	c-0.12-0.09-0.24-0.19-0.36-0.29c-0.78-0.65-1.5-1.37-2.14-2.14c-0.08-0.1-0.16-0.2-0.24-0.3c-0.06-0.08,0.2,0.27,0-0.01
	c-0.15-0.22-0.31-0.44-0.47-0.66c-0.26-0.4-0.51-0.82-0.74-1.24c-0.23-0.42-0.43-0.85-0.63-1.29c0.2,0.45-0.07-0.17-0.13-0.33
	c-0.09-0.23-0.16-0.46-0.24-0.69c-0.3-0.92-0.49-1.86-0.66-2.81c-0.05-0.31,0.04,0.35,0.01,0.04c-0.02-0.12-0.03-0.24-0.05-0.36
	c-0.02-0.24-0.04-0.49-0.05-0.73c-0.03-0.47-0.04-0.94-0.03-1.41c0.01-0.47,0.03-0.94,0.08-1.41c0.02-0.18,0.12-0.84,0.03-0.33
	c0.04-0.24,0.07-0.48,0.12-0.72c0.17-0.94,0.41-1.88,0.73-2.78c0.08-0.21,0.16-0.43,0.24-0.64c0.04-0.09,0.08-0.2,0.12-0.29
	c-0.19,0.47-0.01,0.04,0.04-0.08c0.19-0.43,0.4-0.85,0.62-1.26c0.24-0.43,0.49-0.84,0.76-1.25c0.13-0.19,0.26-0.37,0.4-0.56
	c0.05-0.08,0.12-0.17,0.19-0.26c0.13-0.18-0.21,0.26,0.05-0.07c0.61-0.74,1.26-1.42,1.98-2.05c0.17-0.15,0.36-0.3,0.54-0.44
	c0.32-0.26-0.21,0.14,0.03-0.03c0.1-0.07,0.2-0.15,0.3-0.22c0.41-0.29,0.84-0.56,1.28-0.81c0.43-0.25,0.87-0.47,1.32-0.68
	c0.1-0.05,0.2-0.09,0.31-0.14c-0.43,0.19-0.04,0.02,0.07-0.02c0.25-0.09,0.5-0.19,0.74-0.27c0.5-0.17,1-0.31,1.51-0.43
	c0.25-0.06,0.51-0.11,0.76-0.16c0.13-0.02,0.27-0.05,0.41-0.07c0.11-0.02,0.62-0.08,0.16-0.02c1.15-0.14,2.3-0.18,3.46-0.12
	c0.29,0.02,0.58,0.04,0.88,0.07c0.16,0.02,0.32,0.03,0.48,0.05c0.07,0.01,0.14,0.02,0.21,0.02c0.25,0.03-0.29-0.04-0.03-0.01
	c0.65,0.1,1.29,0.21,1.93,0.36c1.43,0.32,2.83,0.75,4.19,1.28c0.16,0.06,0.32,0.12,0.47,0.19c0.06,0.02,0.52,0.21,0.32,0.13
	c0.38,0.16,0.76,0.33,1.14,0.51c0.83,0.39,1.82,0.23,2.32-0.61C1120.58,24.49,1120.38,23.29,1119.55,22.91z"/>
<path class="st1" d="M1141.17,56.4c-0.46-0.67-0.89-1.37-1.24-2.1c-0.08-0.15-0.14-0.31-0.22-0.46c-0.13-0.29-0.01-0.05,0.01,0.01
	c-0.04-0.09-0.07-0.17-0.1-0.26c-0.13-0.34-0.24-0.68-0.34-1.03c-0.08-0.31-0.16-0.62-0.21-0.94c-0.03-0.17-0.07-0.45-0.03-0.1
	c-0.01-0.18-0.04-0.36-0.05-0.54c-0.02-0.29-0.02-0.59-0.02-0.88c0.01-0.14,0.01-0.27,0.03-0.4c0.01-0.12,0.1-0.68,0-0.17
	c0.1-0.56,0.22-1.11,0.42-1.65c0.04-0.12,0.09-0.24,0.13-0.35c-0.13,0.34-0.03,0.08,0.05-0.09c0.13-0.26,0.26-0.51,0.41-0.75
	c0.13-0.21,0.27-0.42,0.42-0.62c0.25-0.37-0.13,0.12,0.06-0.08c0.09-0.11,0.18-0.22,0.28-0.33c0.38-0.43,0.81-0.81,1.25-1.19
	c0.22-0.2-0.3,0.2,0.04-0.04c0.11-0.07,0.21-0.15,0.32-0.22c0.24-0.17,0.49-0.32,0.74-0.47c0.24-0.14,0.48-0.27,0.73-0.39
	c0.12-0.06,0.23-0.11,0.35-0.17c0.43-0.2-0.21,0.07,0.16-0.07c0.55-0.19,1.08-0.38,1.65-0.52c0.27-0.07,0.54-0.12,0.81-0.17
	c0.24-0.04,0.37-0.05,0.05-0.01c0.17-0.02,0.33-0.04,0.5-0.05c0.58-0.05,1.15-0.05,1.73-0.02c0.13,0.01,0.26,0.02,0.39,0.04
	c0.08,0.01,0.15,0.02,0.22,0.02c0.23,0.02-0.35-0.06-0.12-0.02c0.29,0.05,0.59,0.1,0.88,0.17c0.27,0.07,0.54,0.14,0.81,0.23
	c0.12,0.04,0.25,0.08,0.37,0.13c0.07,0.02,0.14,0.05,0.21,0.08c0.21,0.08-0.38-0.18-0.04-0.02c0.51,0.25,1.02,0.5,1.5,0.83
	c0.07,0.05,0.48,0.35,0.3,0.21c-0.17-0.13,0.22,0.18,0.29,0.24c0.26,0.23,0.51,0.46,0.74,0.71c0.13,0.14,0.25,0.27,0.38,0.42
	c0.09,0.11,0.34,0.45,0.13,0.15c0.23,0.32,0.45,0.64,0.65,0.98c0.2,0.33,0.38,0.68,0.55,1.03c0.04,0.08,0.07,0.17,0.11,0.26
	c0.12,0.24-0.14-0.37,0.03,0.06c0.08,0.18,0.15,0.37,0.21,0.55c0.32,0.91,0.55,1.85,0.71,2.8c0.16,0.9,1.27,1.41,2.09,1.18
	c0.97-0.27,1.32-1.18,1.18-2.08c-0.27-1.74-0.39-4.05-0.17-6.07c0.01-0.12,0.03-0.25,0.04-0.37c-0.01,0.07-0.06,0.34,0,0.01
	c0.03-0.21,0.07-0.43,0.11-0.65c0.08-0.44,0.17-0.87,0.29-1.3c0.1-0.39,0.22-0.77,0.35-1.15c0.07-0.18,0.14-0.37,0.21-0.55
	c0.04-0.1,0.16-0.37,0-0.01c0.05-0.11,0.1-0.23,0.15-0.34c0.31-0.66,0.67-1.29,1.08-1.89c0.11-0.16,0.22-0.31,0.34-0.47
	c-0.22,0.3-0.02,0.03,0.09-0.11c0.23-0.28,0.49-0.56,0.76-0.82c0.23-0.23,0.47-0.45,0.73-0.66c0.14-0.12,0.38-0.28,0.08-0.07
	c0.16-0.11,0.31-0.23,0.48-0.34c0.54-0.36,1.11-0.65,1.7-0.94c0.33-0.15-0.29,0.11-0.07,0.03c0.08-0.03,0.16-0.07,0.24-0.09
	c0.14-0.05,0.27-0.1,0.4-0.14c0.32-0.11,0.66-0.2,0.99-0.28c0.3-0.07,0.6-0.12,0.91-0.17c-0.36,0.06-0.18,0.02,0.05,0
	c0.19-0.02,0.38-0.03,0.57-0.04c0.64-0.03,1.26,0.03,1.89,0.07c-0.54-0.04-0.03,0,0.11,0.02c0.15,0.03,0.3,0.06,0.46,0.09
	c0.33,0.07,0.67,0.16,1,0.27c0.28,0.09,0.56,0.2,0.84,0.3c0.22,0.08-0.4-0.18-0.07-0.03c0.07,0.03,0.13,0.06,0.19,0.09
	c0.16,0.08,0.32,0.15,0.48,0.23c0.28,0.15,0.56,0.31,0.83,0.48c0.16,0.09,0.3,0.2,0.45,0.3c0.11,0.08,0.57,0.43,0.19,0.12
	c0.54,0.44,1.05,0.9,1.51,1.42c0.12,0.13,0.23,0.26,0.34,0.39c0.05,0.06,0.09,0.12,0.15,0.18c0.25,0.3-0.16-0.22-0.01-0.02
	c0.22,0.31,0.43,0.62,0.64,0.94c0.23,0.37,0.44,0.75,0.63,1.13c0.11,0.21,0.2,0.42,0.3,0.64c0.03,0.07,0.12,0.3-0.02-0.05
	c0.05,0.12,0.1,0.24,0.15,0.37c0.34,0.91,0.6,1.85,0.79,2.81c0.05,0.24,0.09,0.49,0.13,0.73c0.02,0.1,0.03,0.2,0.04,0.3
	c-0.05-0.38,0.01,0.08,0.01,0.15c0.07,0.58,0.1,1.16,0.12,1.74c0.04,1.22-0.03,2.43-0.16,3.64c-0.18,1.63,2.51,2.38,3.16,0.85
	c0.27-0.64,0.57-1.26,0.93-1.86c0.17-0.28,0.34-0.56,0.53-0.82c0.09-0.13,0.18-0.26,0.28-0.39c-0.18,0.23,0.07-0.09,0.12-0.14
	c0.39-0.46,0.8-0.88,1.25-1.27c0.11-0.1,0.22-0.18,0.34-0.27c-0.31,0.24,0.06-0.05,0.11-0.08c0.23-0.16,0.46-0.31,0.7-0.46
	c0.24-0.14,0.47-0.27,0.72-0.39c0.13-0.06,0.25-0.11,0.37-0.17c0.4-0.19-0.33,0.1,0.1-0.04c0.51-0.17,1-0.34,1.53-0.46
	c0.25-0.06,0.51-0.1,0.77-0.14c-0.46,0.07,0.34-0.02,0.47-0.03c0.52-0.03,1.05-0.02,1.57,0.02c0.13,0.01,0.26,0.03,0.39,0.04
	c0.44,0.04-0.36-0.08,0.07,0.01c0.25,0.05,0.51,0.09,0.76,0.15c0.51,0.12,1.01,0.27,1.5,0.45c0.12,0.05,0.24,0.09,0.36,0.14
	c-0.4-0.16,0.01,0.01,0.07,0.04c0.23,0.11,0.47,0.23,0.7,0.35c0.45,0.25,0.87,0.54,1.31,0.83c0.36,0.24-0.26-0.23,0.06,0.05
	c0.1,0.08,0.2,0.17,0.3,0.25c0.2,0.17,0.39,0.34,0.57,0.52c0.15,0.15,0.3,0.31,0.44,0.47c0.09,0.09,0.17,0.2,0.25,0.29
	c0.31,0.36-0.01-0.07,0.13,0.17c0.27,0.4,0.53,0.78,0.76,1.2c0.12,0.23,0.24,0.47,0.34,0.71c-0.18-0.4,0,0.02,0.02,0.08
	c0.05,0.17,0.12,0.33,0.17,0.5c0.09,0.3,0.16,0.61,0.23,0.91c0.02,0.09,0.03,0.18,0.05,0.27c0.01,0.09,0.03,0.18,0.04,0.27
	c-0.03-0.23-0.03-0.24-0.01-0.04c0.03,0.68,0.07,1.34,0,2.01c0,0.05-0.06,0.55-0.01,0.15c-0.02,0.15-0.05,0.3-0.08,0.46
	c-0.06,0.37-0.15,0.73-0.25,1.09c-0.24,0.85-0.44,1.35-0.76,2.02c-0.39,0.83-0.23,1.83,0.6,2.32c0.74,0.43,1.93,0.22,2.32-0.6
	c1.32-2.75,1.96-5.73,1.36-8.76c-0.48-2.45-1.87-4.75-3.74-6.38c-3.91-3.42-9.57-4.36-14.31-2.14c-2.94,1.38-5.14,4.04-6.39,6.99
	c1.05,0.28,2.11,0.57,3.16,0.85c0.46-4.18,0.02-8.56-1.97-12.32c-1.56-2.95-4.08-5.26-7.17-6.5c-6.01-2.43-12.89,0.26-16.03,5.83
	c-2.39,4.24-2.54,9.27-1.81,13.98c1.09-0.3,2.18-0.6,3.27-0.9c-0.56-3.23-1.99-6.49-4.56-8.61c-2.24-1.84-5.03-2.81-7.93-2.78
	c-5.36,0.06-10.96,3.45-12.31,8.87c-0.9,3.61,0.29,7.29,2.35,10.28c0.51,0.75,1.49,1.09,2.32,0.61
	C1141.31,58.28,1141.68,57.16,1141.17,56.4z"/>
<path class="st1" d="M1075.84,429.92c-4.21-2.03-8.94-3.24-13.56-2.14c-3.54,0.84-6.6,3.12-8.62,6.23c-1.87,2.89-2.78,6.5-2.57,9.97
	c0.22,3.69,1.64,7.23,4.16,9.86c3.06,3.19,7.31,4.64,11.56,4.96c0.61,0.04,1.23,0.06,1.85,0.07c-0.23-0.87-0.46-1.75-0.68-2.63
	c-3.65,2.41-6.79,5.84-7.96,10.25c-0.96,3.61-0.46,7.45,1.12,10.8c3.11,6.59,10.5,10.79,17.48,8.75c5.06-1.48,8.8-5.74,11.37-10.32
	c-0.84-0.24-1.69-0.47-2.53-0.71c-0.28,3.29,0.24,6.74,1.96,9.58c1.5,2.48,3.75,4.29,6.37,5.34c4.94,1.97,11.03,0.81,14.76-3.15
	c2.45-2.61,3.59-6.14,3.68-9.74c-0.9,0-1.81,0-2.71,0c0.31,3.44,1.38,6.77,3.65,9.35c1.8,2.05,4.3,3.45,6.93,3.93
	c5.47,1.01,11.26-1.39,14.28-6.3c1.97-3.2,2.38-7.04,1.86-10.73c-0.83,0.36-1.65,0.72-2.48,1.09c3.81,6.17,10.75,11.81,18.22,10.15
	c1.97-0.44,3.81-1.42,5.4-2.69c1.33-1.06,2.58-2.19,3.53-3.66c1.71-2.62,2.45-6,2.25-9.14c-0.24-3.73-1.76-7.28-4.79-9.41
	c-0.11,0.86-0.21,1.72-0.32,2.58c3.39-1.16,6.38-3.29,8.35-6.42c1.67-2.65,2.46-5.91,2.33-9.06c-0.29-6.47-4.32-12.57-10.54-14.16
	c-4.39-1.12-8.91,0.07-12.89,2.09c0.66,0.53,1.33,1.06,1.99,1.59c0.89-4.02,1.13-8.33-0.11-12.3c-0.98-3.17-2.85-5.94-5.48-7.86
	c-5.03-3.69-11.99-3.24-16.95,0.34c-3.5,2.52-5.9,6.21-7.38,10.31c0.89,0.12,1.78,0.25,2.67,0.38c0.41-5.19-1.58-10.78-6.32-13.16
	c-4.02-2.01-8.98-1.21-11.83,2.5c-2.03,2.63-2.75,5.99-2.76,9.32c0.89-0.12,1.78-0.25,2.67-0.38c-0.79-3.99-2.52-7.94-5.51-10.67
	c-2.51-2.29-5.65-3.58-8.98-3.8c-6.09-0.4-12.72,3.02-15.33,8.91c-1.65,3.74-1.56,7.92-0.1,11.71c0.27,0.71,0.91,1.2,1.67,0.98
	c0.65-0.18,1.22-1.02,0.95-1.73c-0.33-0.85-0.6-1.73-0.79-2.63c-0.04-0.18-0.08-0.37-0.1-0.55c-0.02-0.11-0.03-0.22-0.05-0.33
	c-0.07-0.37,0.03,0.31-0.01-0.06c-0.04-0.39-0.08-0.78-0.09-1.17c-0.01-0.38-0.01-0.76,0.01-1.14c0.01-0.17,0.02-0.34,0.04-0.51
	c0.01-0.1,0.02-0.2,0.03-0.3c-0.04,0.42,0-0.03,0.02-0.12c0.11-0.71,0.29-1.4,0.52-2.08c0.05-0.15,0.11-0.3,0.17-0.45
	c0.11-0.31-0.13,0.29,0-0.01c0.04-0.08,0.08-0.17,0.11-0.26c0.15-0.33,0.31-0.65,0.49-0.97c0.16-0.29,0.33-0.57,0.51-0.84
	c0.1-0.16,0.21-0.31,0.32-0.46c-0.22,0.31,0.11-0.14,0.19-0.23c0.43-0.53,0.9-1.03,1.41-1.49c0.14-0.13,0.28-0.25,0.42-0.37
	c0.05-0.04,0.1-0.08,0.14-0.12c0.25-0.21-0.25,0.18,0.02-0.01c0.3-0.22,0.6-0.45,0.91-0.66c0.58-0.38,1.18-0.72,1.8-1.02
	c0.09-0.04,0.17-0.08,0.26-0.12c0.29-0.14-0.21,0.09-0.02,0.01c0.16-0.07,0.32-0.13,0.48-0.2c0.35-0.14,0.71-0.26,1.06-0.37
	c0.66-0.2,1.34-0.36,2.02-0.47c0.1-0.02,0.19-0.03,0.28-0.04c-0.35,0.05-0.16,0.02-0.08,0.02c0.19-0.02,0.38-0.04,0.56-0.06
	c0.35-0.03,0.69-0.04,1.04-0.05s0.69,0.01,1.04,0.03c0.17,0.01,0.35,0.02,0.52,0.04c0.11,0.01,0.76,0.1,0.34,0.03
	c0.69,0.11,1.37,0.26,2.04,0.47c0.34,0.1,0.67,0.23,0.99,0.36c0.09,0.04,0.18,0.07,0.27,0.11c-0.3-0.13-0.12-0.05-0.06-0.02
	c0.2,0.1,0.41,0.2,0.61,0.3c0.65,0.34,1.25,0.74,1.84,1.18c0.05,0.04,0.32,0.26,0.05,0.03c0.08,0.06,0.16,0.13,0.24,0.2
	c0.19,0.16,0.37,0.32,0.54,0.49c0.31,0.3,0.6,0.6,0.88,0.93c0.16,0.18,0.31,0.36,0.46,0.55c0.06,0.07,0.11,0.15,0.17,0.22
	c-0.21-0.27,0.09,0.12,0.12,0.17c0.27,0.38,0.52,0.78,0.75,1.17c0.27,0.46,0.51,0.93,0.73,1.41c0.27,0.59,0.29,0.64,0.5,1.22
	c0.42,1.15,0.73,2.34,0.97,3.55c0.31,1.58,2.66,1.18,2.67-0.38c0-0.75,0.04-1.5,0.12-2.24c0.03-0.29,0.01-0.1,0-0.04
	c0.01-0.09,0.03-0.18,0.04-0.27c0.02-0.16,0.05-0.31,0.08-0.46c0.06-0.32,0.13-0.64,0.21-0.95c0.08-0.3,0.17-0.6,0.26-0.89
	c0.04-0.13,0.09-0.26,0.14-0.4c0.03-0.07,0.06-0.15,0.09-0.22c-0.04,0.11-0.07,0.15,0,0.01c0.24-0.52,0.48-1.03,0.79-1.51
	c0.07-0.1,0.13-0.2,0.2-0.31c0.04-0.06,0.08-0.11,0.12-0.17c0,0.01-0.16,0.2-0.06,0.08c0.17-0.21,0.33-0.42,0.51-0.61
	c0.15-0.17,0.31-0.33,0.48-0.48c0.08-0.07,0.17-0.14,0.25-0.22c0.18-0.16-0.02,0.02-0.06,0.04c0.06-0.05,0.12-0.09,0.19-0.14
	c0.37-0.27,0.76-0.51,1.16-0.71c0.09-0.05,0.19-0.09,0.29-0.13c-0.36,0.17,0,0,0.09-0.03c0.21-0.08,0.42-0.15,0.63-0.21
	c0.21-0.06,0.43-0.11,0.64-0.15c0.1-0.02,0.2-0.03,0.3-0.05c0.15-0.03-0.15,0.02-0.14,0.02c0.07-0.01,0.15-0.02,0.22-0.03
	c0.44-0.04,0.88-0.05,1.32-0.02c0.12,0.01,0.23,0.03,0.35,0.03c0.31,0.02-0.21-0.04,0.03,0c0.23,0.04,0.47,0.08,0.7,0.14
	c0.44,0.11,0.86,0.26,1.29,0.42c0.23,0.08-0.25-0.13,0.05,0.03c0.1,0.05,0.19,0.09,0.29,0.14c0.22,0.11,0.44,0.24,0.65,0.36
	c0.19,0.11,0.37,0.24,0.55,0.36c0.1,0.07,0.2,0.15,0.3,0.23c-0.24-0.18,0-0.01,0.1,0.08c0.37,0.32,0.72,0.67,1.04,1.05
	c0.08,0.09,0.15,0.18,0.22,0.27c0.08,0.1,0.22,0.3,0.07,0.08c0.16,0.23,0.31,0.45,0.46,0.69c0.16,0.26,0.3,0.52,0.44,0.79
	c0.07,0.13,0.13,0.26,0.19,0.4c0.04,0.08,0.21,0.53,0.1,0.23c0.23,0.62,0.43,1.24,0.57,1.9c0.07,0.32,0.12,0.65,0.18,0.97
	c0,0.06,0.04,0.28,0,0c0.01,0.11,0.02,0.21,0.03,0.32c0.01,0.17,0.03,0.35,0.04,0.52c0.05,0.81,0.03,1.62-0.03,2.42
	c-0.06,0.69,0.56,1.31,1.18,1.38c0.71,0.09,1.25-0.34,1.49-1.01c0.56-1.53,1.42-3.3,2.45-4.81c0.12-0.17,0.24-0.35,0.37-0.52
	c-0.16,0.22,0.16-0.2,0.2-0.26c0.27-0.34,0.54-0.66,0.82-0.97c0.52-0.58,1.09-1.1,1.68-1.61c0.04-0.03,0.33-0.27,0.08-0.06
	c0.06-0.04,0.12-0.09,0.18-0.14c0.15-0.11,0.29-0.22,0.45-0.33c0.31-0.22,0.63-0.43,0.95-0.63c0.29-0.17,0.59-0.34,0.88-0.49
	c0.16-0.08,0.31-0.16,0.47-0.23c0.08-0.03,0.16-0.07,0.24-0.11c0.09-0.04,0.06-0.03-0.09,0.04c0.06-0.03,0.13-0.05,0.19-0.08
	c0.64-0.25,1.27-0.47,1.94-0.63c0.31-0.07,0.62-0.14,0.93-0.19c0.08-0.02,0.16-0.02,0.25-0.04c0.32-0.06-0.23,0.02-0.02,0
	c0.18-0.02,0.36-0.05,0.54-0.06c0.65-0.05,1.3-0.07,1.94-0.03c0.16,0.01,0.32,0.03,0.48,0.04c0.09,0.01,0.61,0.09,0.21,0.02
	c0.33,0.05,0.66,0.11,0.99,0.19c0.64,0.15,1.27,0.35,1.87,0.59c0.06,0.02,0.12,0.05,0.18,0.07c0.31,0.12-0.27-0.14,0.03,0.02
	c0.13,0.06,0.26,0.12,0.39,0.19c0.3,0.15,0.59,0.32,0.88,0.49c0.28,0.17,0.55,0.35,0.81,0.54c0.12,0.08,0.23,0.18,0.35,0.27
	c0.17,0.13-0.25-0.22-0.01-0.01c0.08,0.06,0.15,0.13,0.22,0.19c0.52,0.45,1,0.94,1.44,1.47c0.1,0.12,0.19,0.24,0.29,0.36
	c0.22,0.27-0.17-0.24,0.03,0.05c0.04,0.06,0.08,0.11,0.12,0.17c0.22,0.32,0.43,0.64,0.62,0.98c0.16,0.28,0.31,0.57,0.46,0.86
	c0.08,0.16,0.16,0.33,0.23,0.5c0.05,0.1,0.09,0.21,0.13,0.31c-0.09-0.22-0.01-0.03,0.03,0.08c0.31,0.83,0.56,1.68,0.74,2.55
	c0.05,0.22,0.09,0.44,0.13,0.67c0.02,0.12,0.04,0.25,0.06,0.38c0.01,0.06,0.06,0.44,0.02,0.13c0.06,0.48,0.1,0.96,0.12,1.45
	c0.05,1.09,0.02,2.18-0.08,3.26c-0.1,1.1-0.28,2.15-0.55,3.36c-0.28,1.24,0.93,2.13,1.99,1.59c1.67-0.85,3.52-1.55,5.49-1.92
	c0.2-0.04,0.41-0.07,0.61-0.1c-0.3,0.04,0.28-0.04,0.36-0.04c0.42-0.04,0.85-0.07,1.28-0.08c0.37,0,0.75,0.01,1.12,0.03
	c0.18,0.01,0.36,0.03,0.54,0.04c0.1,0.01,0.21,0.02,0.32,0.04c-0.35-0.04-0.02,0,0.06,0.02c0.74,0.14,1.47,0.32,2.18,0.58
	c0.16,0.06,0.31,0.12,0.47,0.18c0.07,0.03,0.24,0.11-0.05-0.02c0.09,0.04,0.18,0.08,0.27,0.12c0.32,0.15,0.64,0.33,0.95,0.51
	c0.28,0.17,0.55,0.34,0.81,0.53c0.13,0.09,0.26,0.19,0.39,0.29c0.27,0.2-0.22-0.2,0.02,0.02c0.07,0.06,0.15,0.12,0.22,0.19
	c0.5,0.44,0.97,0.92,1.4,1.44c0.11,0.13,0.22,0.28,0.33,0.42c0.05,0.07,0.19,0.26-0.01-0.02c0.05,0.06,0.09,0.13,0.14,0.2
	c0.21,0.31,0.41,0.61,0.6,0.93c0.34,0.58,0.64,1.2,0.9,1.82c-0.16-0.37,0.04,0.12,0.08,0.21c0.06,0.15,0.11,0.31,0.16,0.46
	c0.11,0.34,0.21,0.69,0.3,1.03c0.08,0.32,0.15,0.64,0.21,0.96c0.03,0.16,0.06,0.32,0.09,0.48c0.01,0.1,0.03,0.19,0.04,0.29
	c-0.06-0.39-0.01-0.07,0,0.01c0.07,0.71,0.11,1.41,0.09,2.12c-0.01,0.35-0.03,0.69-0.06,1.04c-0.01,0.1-0.08,0.64-0.02,0.22
	c-0.03,0.2-0.06,0.39-0.09,0.59c-0.12,0.69-0.29,1.36-0.5,2.02c-0.05,0.16-0.1,0.32-0.16,0.47c-0.03,0.09-0.24,0.58-0.08,0.22
	c-0.15,0.34-0.29,0.67-0.47,1c-0.19,0.36-0.39,0.71-0.6,1.05c-0.11,0.17-0.22,0.34-0.34,0.51c-0.04,0.05-0.24,0.33-0.03,0.04
	c-0.06,0.08-0.12,0.16-0.19,0.25c-0.52,0.66-1.11,1.27-1.74,1.82c-0.07,0.06-0.14,0.12-0.2,0.17c-0.27,0.23,0.11-0.07-0.1,0.08
	c-0.18,0.13-0.35,0.27-0.53,0.39c-0.37,0.26-0.76,0.5-1.15,0.73c-0.41,0.23-0.83,0.44-1.25,0.64c0.05-0.03,0.24-0.1-0.01,0
	c-0.13,0.05-0.26,0.11-0.39,0.16c-0.25,0.1-0.5,0.19-0.76,0.28c-1.15,0.4-1.3,1.89-0.32,2.58c0.42,0.3,0.88,0.7,1.32,1.23
	c0.11,0.12,0.21,0.25,0.31,0.38c-0.11-0.15,0.12,0.18,0.15,0.22c0.2,0.29,0.37,0.59,0.53,0.9c0.34,0.64,0.44,0.9,0.66,1.63
	c0.1,0.32,0.18,0.65,0.25,0.98c0.06,0.28,0.15,0.82,0.17,0.96c0.31,2.55-0.14,5.34-1.33,7.57c-0.15,0.29-0.32,0.56-0.49,0.83
	c-0.09,0.13-0.18,0.27-0.27,0.4c-0.09,0.13-0.01,0.01,0.01-0.02c-0.07,0.09-0.14,0.18-0.21,0.26c-0.2,0.24-0.41,0.47-0.63,0.69
	c-0.11,0.11-0.22,0.21-0.34,0.32c-0.05,0.04-0.1,0.08-0.15,0.13c-0.06,0.05-0.07,0.05-0.01,0.01c0.13-0.1,0.05-0.03-0.24,0.19
	c-1.34,1.16-2.71,2.21-4.39,2.77c-2.91,0.97-5.93,0.42-8.61-1.07c-3.12-1.72-5.72-4.44-7.61-7.49c-0.36-0.59-1.06-0.86-1.7-0.58
	c-0.66,0.31-0.89,0.95-0.78,1.66c0.06,0.44-0.01-0.16,0.01,0.1c0.01,0.09,0.02,0.18,0.03,0.27c0.02,0.2,0.04,0.4,0.05,0.6
	c0.03,0.41,0.04,0.82,0.04,1.23c0,0.36-0.01,0.71-0.04,1.06c-0.01,0.2-0.04,0.4-0.05,0.6c-0.01,0.06-0.04,0.28,0-0.02
	c-0.01,0.12-0.03,0.23-0.05,0.35c-0.11,0.68-0.27,1.34-0.47,1.99c-0.05,0.16-0.11,0.31-0.16,0.47c-0.03,0.08-0.22,0.54-0.08,0.22
	c-0.13,0.31-0.28,0.62-0.43,0.91c-0.14,0.26-0.28,0.52-0.44,0.77c-0.09,0.15-0.19,0.29-0.28,0.43c-0.06,0.08-0.36,0.5-0.14,0.21
	c-0.37,0.48-0.76,0.94-1.19,1.36c-0.21,0.21-0.44,0.4-0.66,0.6c-0.3,0.26,0.11-0.07-0.15,0.12c-0.13,0.1-0.26,0.2-0.39,0.29
	c-0.49,0.35-1.01,0.66-1.54,0.93c-0.11,0.06-0.23,0.12-0.35,0.17c-0.07,0.03-0.15,0.07-0.22,0.1c-0.17,0.08,0.23-0.1,0.06-0.03
	c-0.29,0.11-0.57,0.23-0.86,0.33c-0.56,0.19-1.14,0.34-1.72,0.45c-0.14,0.03-0.28,0.05-0.42,0.07c-0.21,0.04,0.24-0.02-0.11,0.02
	c-0.32,0.03-0.63,0.06-0.95,0.07c-0.57,0.03-1.14,0.01-1.71-0.05c-0.07-0.01-0.5-0.06-0.29-0.03c0.21,0.03-0.22-0.04-0.29-0.05
	c-0.29-0.05-0.59-0.12-0.88-0.2c-0.26-0.07-0.52-0.15-0.77-0.24c-0.13-0.04-0.27-0.09-0.4-0.15c-0.08-0.03-0.15-0.06-0.22-0.09
	c-0.26-0.1,0.25,0.12-0.03-0.01c-0.52-0.25-1.03-0.52-1.52-0.84c-0.25-0.16-0.48-0.34-0.71-0.52c0.24,0.18-0.01-0.01-0.11-0.09
	c-0.14-0.12-0.28-0.24-0.41-0.37c-0.26-0.25-0.5-0.51-0.74-0.78c-0.11-0.13-0.22-0.27-0.33-0.41c-0.04-0.05-0.09-0.11-0.13-0.17
	c0.21,0.28-0.01-0.02-0.04-0.06c-0.42-0.63-0.8-1.28-1.12-1.97c-0.04-0.09-0.08-0.18-0.12-0.27c-0.11-0.24,0.04,0.11-0.02-0.05
	c-0.08-0.2-0.16-0.41-0.23-0.62c-0.13-0.39-0.25-0.79-0.36-1.19c-0.11-0.42-0.2-0.85-0.28-1.28c-0.11-0.62-0.11-0.64-0.17-1.28
	c-0.07-0.76-0.58-1.41-1.35-1.41c-0.75,0-1.34,0.65-1.35,1.41c-0.01,0.39-0.03,0.77-0.06,1.16c-0.01,0.08-0.01,0.17-0.02,0.25
	c0-0.01-0.05,0.4-0.02,0.18c0.03-0.22-0.03,0.18-0.03,0.18c-0.02,0.12-0.04,0.24-0.06,0.36c-0.12,0.68-0.29,1.35-0.51,2
	c-0.06,0.17-0.12,0.34-0.19,0.52c-0.02,0.06-0.11,0.24,0.01-0.04c-0.03,0.07-0.06,0.13-0.09,0.2c-0.15,0.32-0.3,0.64-0.47,0.95
	c-0.15,0.27-0.31,0.53-0.48,0.79c-0.08,0.11-0.16,0.22-0.23,0.34c-0.14,0.21,0.01-0.01,0.03-0.04c-0.06,0.08-0.12,0.16-0.19,0.24
	c-0.39,0.49-0.82,0.94-1.28,1.35c-0.1,0.08-0.19,0.17-0.29,0.25c-0.24,0.21,0.18-0.13,0.01-0.01c-0.06,0.05-0.13,0.1-0.19,0.15
	c-0.23,0.17-0.47,0.34-0.71,0.49c-0.24,0.15-0.49,0.3-0.74,0.43c-0.14,0.07-0.28,0.15-0.42,0.22c-0.1,0.04-0.55,0.24-0.19,0.09
	c-0.54,0.23-1.09,0.42-1.65,0.57c-0.26,0.07-0.52,0.13-0.78,0.18c-0.16,0.03-0.31,0.06-0.47,0.08c-0.37,0.06,0.19-0.01-0.2,0.03
	c-0.58,0.06-1.16,0.09-1.75,0.08c-0.27-0.01-0.54-0.02-0.8-0.04c-0.16-0.02-0.31-0.04-0.47-0.05c-0.08-0.01-0.27-0.04,0.08,0.01
	c-0.1-0.01-0.19-0.03-0.28-0.04c-0.58-0.1-1.15-0.23-1.7-0.41c-0.26-0.08-0.51-0.17-0.76-0.27c-0.08-0.03-0.57-0.24-0.2-0.08
	c-0.14-0.06-0.29-0.13-0.43-0.2c-0.53-0.26-1.04-0.56-1.52-0.9c-0.12-0.08-0.23-0.17-0.35-0.26c-0.31-0.23,0.1,0.1-0.14-0.11
	c-0.23-0.2-0.47-0.41-0.68-0.62c-0.21-0.21-0.41-0.42-0.6-0.65c-0.09-0.1-0.17-0.2-0.26-0.31c-0.05-0.06-0.1-0.13-0.15-0.2
	c-0.07-0.09,0.15,0.22-0.03-0.04c-0.4-0.58-0.77-1.19-1.07-1.84c-0.04-0.08-0.08-0.16-0.11-0.24c-0.01-0.03-0.15-0.37-0.08-0.18
	c0.08,0.21-0.05-0.13-0.05-0.14c-0.04-0.1-0.08-0.21-0.11-0.31c-0.12-0.35-0.23-0.72-0.32-1.08c-0.1-0.4-0.18-0.81-0.25-1.22
	c-0.01-0.08-0.02-0.16-0.04-0.24c-0.01-0.1-0.01-0.08,0.01,0.07c-0.01-0.06-0.01-0.12-0.02-0.18c-0.02-0.23-0.05-0.46-0.06-0.69
	c-0.06-0.94-0.04-1.89,0.04-2.83c0.12-1.44-1.89-1.86-2.53-0.71c-1.21,2.16-2.49,3.99-4.26,5.7c-0.84,0.81-1.29,1.18-2.22,1.79
	c-0.37,0.24-0.74,0.46-1.12,0.67c-0.17,0.09-0.34,0.18-0.51,0.26c-0.1,0.05-0.2,0.09-0.31,0.14c0.31-0.14-0.13,0.05-0.19,0.07
	c-0.77,0.31-1.55,0.54-2.36,0.69c-0.1,0.02-0.2,0.03-0.31,0.05c-0.35,0.06,0.3-0.03-0.05,0.01c-0.2,0.02-0.41,0.04-0.61,0.06
	c-0.4,0.03-0.81,0.04-1.21,0.02c-0.37-0.02-0.73-0.05-1.09-0.09c-0.34-0.03,0.3,0.06-0.03-0.01c-0.1-0.02-0.19-0.03-0.29-0.05
	c-0.2-0.04-0.39-0.08-0.58-0.12c-0.35-0.08-0.7-0.18-1.05-0.3c-0.19-0.06-0.38-0.13-0.56-0.2c-0.11-0.04-0.74-0.32-0.41-0.16
	c-0.69-0.32-1.36-0.68-2-1.11c-0.3-0.2-0.6-0.42-0.89-0.64c-0.05-0.04-0.31-0.26-0.04-0.03c-0.08-0.06-0.16-0.13-0.23-0.19
	c-0.15-0.13-0.3-0.26-0.45-0.4c-0.59-0.55-1.15-1.14-1.65-1.78c-0.06-0.07-0.38-0.5-0.16-0.2c-0.12-0.16-0.24-0.33-0.35-0.5
	c-0.23-0.34-0.44-0.68-0.65-1.04c-0.19-0.33-0.36-0.66-0.52-0.99c-0.09-0.18-0.17-0.37-0.26-0.56c-0.03-0.06-0.16-0.39-0.02-0.04
	c-0.04-0.11-0.09-0.22-0.13-0.34c-0.28-0.75-0.5-1.53-0.66-2.31c-0.04-0.2-0.08-0.4-0.11-0.61c-0.01-0.07-0.02-0.14-0.03-0.2
	c-0.06-0.35,0.02,0.32,0-0.03c-0.03-0.41-0.07-0.82-0.08-1.24c-0.01-0.41,0-0.83,0.03-1.25c0.01-0.17,0.03-0.35,0.05-0.52
	c0.01-0.07,0.07-0.43,0-0.04c0.02-0.14,0.04-0.28,0.07-0.42c0.16-0.93,0.42-1.84,0.77-2.71c-0.12,0.31,0.12-0.28,0.18-0.39
	c0.11-0.24,0.23-0.48,0.36-0.72c0.24-0.45,0.51-0.89,0.8-1.31c0.07-0.1,0.14-0.2,0.21-0.3c0.1-0.13,0.1-0.13,0-0.01
	c0.05-0.06,0.1-0.13,0.15-0.2c0.15-0.2,0.31-0.39,0.48-0.58c0.37-0.43,0.76-0.84,1.16-1.23c0.97-0.94,1.73-1.52,2.87-2.27
	c1.12-0.73,0.69-2.62-0.68-2.62c-0.59,0-1.19-0.02-1.79-0.07c-0.28-0.02-0.55-0.04-0.82-0.07c-0.14-0.01-0.29-0.03-0.43-0.05
	c-0.16-0.02,0.04,0.01,0.06,0.01c-0.08-0.01-0.16-0.03-0.24-0.04c-1.04-0.16-2.06-0.4-3.06-0.74c-0.22-0.07-0.44-0.15-0.66-0.24
	c-0.11-0.04-0.23-0.09-0.34-0.14c-0.1-0.04-0.36-0.16-0.11-0.04c-0.41-0.19-0.83-0.39-1.23-0.62c-0.4-0.22-0.78-0.47-1.16-0.73
	c-0.17-0.12-0.34-0.24-0.5-0.37c-0.12-0.09-0.19-0.16-0.02-0.01c-0.1-0.08-0.19-0.16-0.29-0.24c-0.62-0.54-1.2-1.14-1.71-1.78
	c-0.07-0.08-0.13-0.17-0.19-0.25c-0.05-0.06,0.16,0.23,0-0.01c-0.12-0.18-0.25-0.36-0.38-0.55c-0.21-0.33-0.41-0.68-0.6-1.03
	c-0.18-0.35-0.34-0.71-0.5-1.08c0.16,0.37-0.05-0.14-0.1-0.28c-0.07-0.19-0.13-0.39-0.19-0.58c-0.24-0.76-0.39-1.54-0.53-2.34
	c-0.04-0.26,0.03,0.29,0,0.03c-0.01-0.1-0.02-0.2-0.03-0.3c-0.02-0.2-0.03-0.41-0.05-0.61c-0.02-0.39-0.03-0.79-0.02-1.18
	c0.01-0.39,0.03-0.78,0.07-1.17c0.01-0.15,0.1-0.7,0.02-0.28c0.03-0.2,0.06-0.4,0.1-0.6c0.14-0.78,0.33-1.56,0.59-2.31
	c0.06-0.18,0.12-0.36,0.19-0.53c0.03-0.08,0.06-0.16,0.1-0.24c-0.15,0.39-0.01,0.03,0.03-0.07c0.16-0.35,0.32-0.7,0.5-1.05
	c0.19-0.36,0.39-0.7,0.61-1.04c0.1-0.16,0.2-0.31,0.31-0.46c0.05-0.07,0.1-0.14,0.15-0.21c0.11-0.15-0.17,0.21,0.05-0.06
	c0.48-0.61,1-1.18,1.58-1.7c0.14-0.13,0.29-0.25,0.43-0.36c0.26-0.22-0.17,0.12,0.03-0.02c0.08-0.06,0.16-0.12,0.24-0.18
	c0.33-0.24,0.67-0.47,1.02-0.68c0.34-0.21,0.7-0.4,1.06-0.56c0.08-0.04,0.16-0.07,0.25-0.11c-0.35,0.16-0.03,0.02,0.05-0.02
	c0.2-0.08,0.4-0.16,0.6-0.23c0.39-0.14,0.8-0.26,1.21-0.35c0.2-0.05,0.4-0.09,0.6-0.13c0.11-0.02,0.22-0.04,0.33-0.06
	c0.09-0.01,0.5-0.07,0.12-0.02c0.92-0.11,1.84-0.15,2.77-0.1c0.24,0.01,0.47,0.03,0.71,0.05c0.13,0.02,0.26,0.03,0.39,0.04
	c0.06,0.01,0.11,0.02,0.17,0.02c0.2,0.02-0.23-0.04-0.02-0.01c0.52,0.08,1.04,0.18,1.55,0.3c1.14,0.27,2.26,0.63,3.35,1.07
	c0.13,0.05,0.26,0.1,0.38,0.16c0.05,0.02,0.41,0.18,0.25,0.11c0.3,0.13,0.61,0.28,0.91,0.42c0.67,0.32,1.46,0.19,1.86-0.5
	C1076.67,431.23,1076.51,430.24,1075.84,429.92z"/>
<path class="st1" d="M1093.13,457.77c-0.37-0.56-0.71-1.14-0.99-1.74c-0.06-0.13-0.11-0.26-0.17-0.39c-0.11-0.24-0.01-0.04,0,0.01
	c-0.03-0.07-0.06-0.14-0.08-0.22c-0.1-0.28-0.19-0.56-0.27-0.85c-0.07-0.26-0.13-0.52-0.17-0.78c-0.02-0.14-0.05-0.38-0.02-0.08
	c-0.01-0.15-0.03-0.3-0.04-0.45c-0.01-0.24-0.02-0.49-0.01-0.73c0-0.11,0.01-0.22,0.02-0.34c0.01-0.1,0.08-0.57,0-0.14
	c0.08-0.47,0.18-0.92,0.33-1.37c0.03-0.1,0.07-0.2,0.11-0.29c-0.1,0.29-0.03,0.07,0.04-0.07c0.1-0.21,0.21-0.42,0.33-0.63
	c0.1-0.18,0.22-0.35,0.33-0.52c0.2-0.31-0.1,0.1,0.05-0.07c0.08-0.09,0.15-0.18,0.22-0.27c0.31-0.36,0.66-0.67,1-0.99
	c0.18-0.16-0.24,0.17,0.04-0.03c0.09-0.06,0.17-0.12,0.25-0.18c0.19-0.14,0.39-0.27,0.59-0.39c0.19-0.11,0.38-0.22,0.58-0.33
	c0.1-0.05,0.19-0.09,0.28-0.14c0.34-0.17-0.17,0.05,0.13-0.05c0.44-0.16,0.87-0.32,1.32-0.43c0.22-0.05,0.44-0.1,0.66-0.14
	c0.19-0.03,0.29-0.04,0.04-0.01c0.13-0.01,0.27-0.03,0.4-0.04c0.46-0.04,0.92-0.05,1.38-0.02c0.1,0.01,0.21,0.02,0.31,0.03
	c0.06,0.01,0.12,0.01,0.18,0.02c0.19,0.02-0.28-0.05-0.09-0.01c0.23,0.04,0.47,0.08,0.7,0.14c0.22,0.05,0.43,0.12,0.65,0.19
	c0.1,0.03,0.2,0.07,0.3,0.11c0.06,0.02,0.11,0.04,0.17,0.07c0.17,0.06-0.3-0.15-0.03-0.02c0.41,0.21,0.82,0.42,1.2,0.69
	c0.06,0.04,0.39,0.29,0.24,0.17c-0.14-0.11,0.18,0.15,0.23,0.2c0.21,0.19,0.4,0.39,0.59,0.59c0.1,0.11,0.2,0.23,0.3,0.34
	c0.08,0.09,0.27,0.37,0.1,0.13c0.19,0.27,0.36,0.53,0.52,0.82c0.16,0.28,0.3,0.57,0.44,0.86c0.03,0.07,0.06,0.14,0.09,0.21
	c0.09,0.2-0.11-0.31,0.02,0.05c0.06,0.15,0.11,0.31,0.17,0.46c0.26,0.76,0.44,1.53,0.57,2.33c0.12,0.75,1.01,1.17,1.67,0.98
	c0.77-0.22,1.06-0.98,0.95-1.73c-0.22-1.45-0.31-3.37-0.14-5.04c0.01-0.1,0.02-0.21,0.03-0.31c0,0.05-0.04,0.28,0,0
	c0.03-0.18,0.06-0.36,0.09-0.54c0.07-0.36,0.14-0.73,0.23-1.08c0.09-0.33,0.18-0.64,0.29-0.96c0.05-0.15,0.11-0.31,0.17-0.45
	c0.03-0.08,0.13-0.31,0-0.01c0.04-0.09,0.08-0.19,0.12-0.29c0.25-0.55,0.53-1.08,0.86-1.57c0.09-0.13,0.18-0.26,0.27-0.39
	c-0.18,0.25-0.01,0.02,0.07-0.09c0.19-0.24,0.39-0.47,0.61-0.69c0.19-0.19,0.38-0.38,0.58-0.55c0.12-0.1,0.3-0.23,0.07-0.06
	c0.13-0.09,0.25-0.19,0.39-0.28c0.43-0.3,0.89-0.54,1.36-0.78c0.26-0.13-0.23,0.09-0.06,0.02c0.07-0.02,0.13-0.05,0.19-0.08
	c0.1-0.04,0.21-0.08,0.31-0.11c0.26-0.09,0.53-0.17,0.79-0.23c0.24-0.06,0.48-0.1,0.73-0.14c-0.29,0.05-0.14,0.02,0.05,0
	c0.15-0.02,0.3-0.03,0.45-0.03c0.51-0.03,1.01,0.02,1.52,0.06c-0.43-0.03-0.02,0,0.09,0.02c0.12,0.03,0.24,0.05,0.37,0.07
	c0.27,0.06,0.54,0.13,0.8,0.22c0.23,0.07,0.45,0.16,0.67,0.25c0.18,0.07-0.31-0.15-0.05-0.02c0.05,0.02,0.1,0.05,0.15,0.07
	c0.13,0.07,0.26,0.13,0.38,0.19c0.23,0.12,0.45,0.26,0.67,0.4c0.12,0.08,0.24,0.16,0.36,0.25c0.09,0.07,0.45,0.36,0.15,0.1
	c0.43,0.36,0.84,0.75,1.21,1.18c0.1,0.11,0.19,0.22,0.27,0.33c0.04,0.05,0.08,0.1,0.12,0.15c0.2,0.25-0.13-0.18-0.01-0.01
	c0.18,0.26,0.35,0.51,0.51,0.78c0.19,0.31,0.35,0.62,0.51,0.94c0.09,0.17,0.16,0.35,0.24,0.53c0.03,0.06,0.09,0.25-0.01-0.04
	c0.04,0.1,0.08,0.2,0.12,0.31c0.28,0.76,0.49,1.54,0.64,2.34c0.04,0.2,0.07,0.4,0.1,0.61c0.01,0.08,0.02,0.16,0.03,0.25
	c-0.04-0.32,0,0.06,0.01,0.13c0.05,0.48,0.08,0.97,0.09,1.45c0.03,1.01-0.02,2.02-0.13,3.03c-0.14,1.35,2.01,1.98,2.53,0.71
	c0.22-0.53,0.46-1.05,0.75-1.55c0.13-0.23,0.28-0.46,0.42-0.69c0.07-0.11,0.15-0.22,0.22-0.32c-0.14,0.19,0.06-0.07,0.1-0.12
	c0.31-0.38,0.64-0.73,1-1.06c0.08-0.08,0.17-0.15,0.27-0.23c-0.24,0.2,0.05-0.04,0.09-0.06c0.19-0.13,0.37-0.26,0.56-0.38
	c0.19-0.12,0.38-0.23,0.58-0.33c0.1-0.05,0.2-0.09,0.3-0.14c0.32-0.16-0.26,0.08,0.08-0.03c0.41-0.14,0.8-0.29,1.23-0.38
	c0.2-0.05,0.41-0.08,0.62-0.12c-0.37,0.05,0.27-0.02,0.37-0.02c0.42-0.03,0.84-0.02,1.26,0.02c0.1,0.01,0.21,0.02,0.31,0.03
	c0.35,0.03-0.29-0.07,0.05,0.01c0.2,0.04,0.41,0.07,0.61,0.12c0.41,0.1,0.81,0.22,1.2,0.37c0.1,0.04,0.19,0.08,0.29,0.12
	c-0.32-0.13,0.01,0,0.06,0.03c0.19,0.09,0.38,0.19,0.56,0.29c0.37,0.21,0.7,0.45,1.05,0.69c0.29,0.2-0.21-0.19,0.05,0.04
	c0.08,0.07,0.16,0.14,0.24,0.21c0.16,0.14,0.31,0.29,0.46,0.43c0.12,0.13,0.24,0.26,0.36,0.39c0.07,0.08,0.13,0.16,0.2,0.24
	c0.24,0.3-0.01-0.05,0.1,0.14c0.21,0.33,0.42,0.65,0.6,1c0.1,0.19,0.19,0.39,0.27,0.59c-0.14-0.33,0,0.02,0.02,0.07
	c0.04,0.14,0.1,0.28,0.13,0.42c0.07,0.25,0.13,0.5,0.19,0.76c0.01,0.07,0.03,0.15,0.04,0.22c0.01,0.07,0.02,0.15,0.03,0.23
	c-0.02-0.19-0.02-0.2-0.01-0.03c0.03,0.56,0.06,1.11,0.01,1.67c-0.01,0.04-0.05,0.45-0.01,0.12c-0.02,0.13-0.04,0.25-0.06,0.38
	c-0.05,0.31-0.12,0.61-0.2,0.9c-0.19,0.71-0.35,1.13-0.61,1.68c-0.31,0.69-0.18,1.52,0.49,1.93c0.59,0.36,1.54,0.18,1.86-0.5
	c1.05-2.29,1.56-4.77,1.09-7.28c-0.39-2.04-1.5-3.95-2.99-5.31c-3.14-2.84-7.67-3.62-11.46-1.78c-2.36,1.15-4.12,3.36-5.12,5.81
	c0.84,0.24,1.69,0.47,2.53,0.71c0.37-3.48,0.02-7.12-1.58-10.25c-1.24-2.45-3.27-4.37-5.74-5.41c-4.82-2.02-10.32,0.22-12.84,4.85
	c-1.92,3.53-2.03,7.71-1.45,11.62c0.87-0.25,1.74-0.5,2.62-0.75c-0.45-2.68-1.59-5.39-3.66-7.16c-1.79-1.53-4.02-2.34-6.35-2.31
	c-4.29,0.05-8.78,2.87-9.86,7.37c-0.72,3,0.23,6.06,1.88,8.55c0.41,0.63,1.19,0.91,1.86,0.5
	C1093.24,459.33,1093.55,458.4,1093.13,457.77z"/>
</svg>
