<?xml version="1.0" encoding="utf-8"?>
<!-- Generator: Adobe Illustrator 26.3.1, SVG Export Plug-In . SVG Version: 6.00 Build 0)  -->
<svg version="1.1" id="Layer_1" xmlns="http://www.w3.org/2000/svg" xmlns:xlink="http://www.w3.org/1999/xlink" x="0px" y="0px"
	 viewBox="0 0 28 40" style="enable-background:new 0 0 28 40;" xml:space="preserve">
<style type="text/css">
	.st0{fill-rule:evenodd;clip-rule:evenodd;fill:#8787C1;}
</style>
<path class="st0" d="M2.9,0.25C1.92,0.57,1.26,1.45,0.85,2.99C0.64,3.78,0.56,6.04,0.7,7.26c0.36,3.13,1.6,6.62,3.26,9.13l0.64,0.97
	L4.03,18c-2.23,2.48-3.57,5.32-3.99,8.48C-0.72,32.12,2.81,37.34,8.7,39.3c4.09,1.36,8.46,1.1,12.1-0.74
	c1.34-0.67,2.31-1.37,3.36-2.42c1.68-1.68,2.76-3.7,3.2-5.98c0.76-3.97-0.87-9.05-3.97-12.41l-0.44-0.48l0.58-0.89
	c1.37-2.09,2.43-4.75,2.98-7.45c0.3-1.49,0.37-2.35,0.33-3.9c-0.04-1.6-0.17-2.26-0.64-3.22c-0.35-0.72-0.73-1.15-1.28-1.42
	c-0.38-0.19-0.54-0.22-1.08-0.22c-0.59,0-0.68,0.03-1.29,0.33c-0.36,0.18-0.89,0.52-1.17,0.76C19.01,3.25,16.76,8,16.2,12.22
	c-0.2,1.5-0.16,1.39-0.45,1.34c-0.14-0.03-0.71-0.07-1.27-0.1c-0.91-0.05-1.7,0.01-2.71,0.17c-0.33,0.06-0.27,0.24-0.5-1.46
	C10.8,8.64,9.1,4.61,7.1,2.26C6.04,1.03,4.8,0.24,3.78,0.17C3.43,0.15,3.12,0.18,2.9,0.25z M4.57,1.26
	c2.07,1.01,4.18,4.37,5.34,8.49c0.34,1.21,0.62,2.74,0.65,3.58l0.02,0.57l-0.43,0.14c-0.24,0.08-0.49,0.17-0.57,0.2
	c-0.12,0.05-0.14,0-0.14-0.52c0-2.32-1.35-5.53-2.8-6.68C5.18,5.9,3.93,6.56,3.65,8.6c-0.28,2.09,0.74,5.36,2.19,7.03l0.35,0.4
	l-0.27,0.23c-0.15,0.13-0.36,0.3-0.48,0.38L5.24,16.8l-0.36-0.51C2.31,12.68,0.8,6.51,1.68,3.15C2.17,1.24,3.18,0.58,4.57,1.26z
	 M24.47,1.1c1.14,0.48,1.77,2.69,1.55,5.39c-0.22,2.62-1.02,5.44-2.24,7.83c-0.46,0.91-1.35,2.31-1.46,2.31
	c-0.04,0-0.25-0.15-0.47-0.33c-0.22-0.18-0.42-0.34-0.43-0.35c-0.02-0.01,0.11-0.19,0.29-0.39c1.43-1.69,2.41-4.9,2.14-6.96
	c-0.27-2.05-1.53-2.71-2.99-1.56c-1.43,1.12-2.8,4.36-2.8,6.6c0,0.45-0.02,0.5-0.14,0.45c-0.08-0.03-0.34-0.11-0.59-0.18l-0.46-0.13
	l0.05-0.51c0.09-0.95,0.37-2.44,0.63-3.4c1.1-4.02,3.59-7.98,5.49-8.73C23.46,0.98,24.11,0.96,24.47,1.1z M5.84,7.49
	c0.7,0.43,1.54,1.63,2.05,2.94c0.47,1.21,0.63,1.95,0.68,3.16l0.04,1.06l-0.38,0.18c-0.21,0.1-0.59,0.31-0.84,0.46l-0.46,0.28
	l-0.38-0.41c-0.76-0.82-1.49-2.37-1.86-3.91c-0.21-0.89-0.26-2.65-0.08-3.15C4.84,7.38,5.3,7.16,5.84,7.49z M22.59,7.56
	c0.33,0.39,0.4,0.74,0.4,1.88c0,0.87-0.04,1.2-0.21,1.89c-0.37,1.48-0.97,2.78-1.7,3.66l-0.38,0.46l-0.57-0.33
	c-0.32-0.18-0.72-0.39-0.9-0.47L18.9,14.5v-0.74c0-1.24,0.37-2.71,0.99-3.97c0.34-0.68,1.03-1.73,1.32-2.01
	C21.75,7.27,22.28,7.19,22.59,7.56z M16.28,14.51c5.3,1.19,9.44,5.98,10.32,11.93c0.15,1.04,0.11,2.82-0.08,3.72
	c-0.8,3.69-3.41,6.67-7.15,8.14c-4.37,1.72-9.75,1.2-13.53-1.32c-2.62-1.75-4.25-4.09-4.88-7.01C0.74,29,0.77,26.8,1,25.71
	c1.24-5.75,5.69-10.28,11.07-11.26C13.2,14.24,15.22,14.27,16.28,14.51z M8.08,22.94c-0.63,0.15-0.91,0.3-1.2,0.61
	c-0.45,0.49-0.61,1.15-0.34,1.4c0.3,0.27,0.72,0.06,0.72-0.37c0-0.49,0.75-0.9,1.45-0.79c0.44,0.07,0.89,0.45,0.89,0.76
	c0,0.45,0.46,0.69,0.75,0.4c0.19-0.19,0.1-0.83-0.18-1.24C9.8,23.19,8.71,22.79,8.08,22.94z M18.54,22.96
	c-0.37,0.1-0.84,0.37-1.07,0.61c-0.41,0.43-0.58,1.14-0.33,1.39c0.28,0.28,0.74,0.03,0.74-0.41c0-0.31,0.46-0.69,0.89-0.76
	c0.71-0.11,1.45,0.3,1.45,0.81c0,0.42,0.46,0.64,0.73,0.34c0.38-0.42-0.18-1.46-0.97-1.81C19.54,22.94,18.91,22.86,18.54,22.96z
	 M13.27,28.06c-1.84,0.17-2.45,1.02-1.75,2.45c0.32,0.66,0.74,1.1,1.33,1.39l0.51,0.25l-0.03,0.86c-0.02,0.62-0.07,0.94-0.17,1.14
	c-0.76,1.48-2.9,1.18-3.16-0.45c-0.07-0.47-0.19-0.65-0.44-0.65c-0.32,0-0.45,0.21-0.4,0.68c0.09,0.89,0.75,1.73,1.58,2.05
	c0.38,0.14,0.58,0.17,1.05,0.14c0.69-0.04,1.13-0.23,1.62-0.71l0.33-0.32l0.33,0.32c0.49,0.48,0.93,0.67,1.62,0.71
	c0.47,0.03,0.67,0,1.05-0.14c0.84-0.32,1.49-1.16,1.58-2.05c0.05-0.47-0.08-0.68-0.4-0.68c-0.25,0-0.37,0.17-0.44,0.65
	c-0.17,1.1-1.41,1.74-2.38,1.24c-0.69-0.35-0.91-0.8-0.95-1.94l-0.03-0.87l0.46-0.21c1.18-0.54,2.03-2.26,1.52-3.08
	C15.71,28.25,14.6,27.94,13.27,28.06z M14.93,29.03c0.2,0.07,0.41,0.2,0.45,0.28c0.19,0.35-0.47,1.5-1.02,1.8
	c-0.2,0.11-0.39,0.14-0.72,0.12c-0.57-0.04-0.92-0.31-1.28-0.96c-0.36-0.67-0.38-0.77-0.17-1.01
	C12.56,28.86,14.04,28.73,14.93,29.03z"/>
</svg>
