<?xml version="1.0" encoding="utf-8"?>
<!-- Generator: Adobe Illustrator 26.3.1, SVG Export Plug-In . SVG Version: 6.00 Build 0)  -->
<svg version="1.1" id="Layer_1" xmlns="http://www.w3.org/2000/svg" xmlns:xlink="http://www.w3.org/1999/xlink" x="0px" y="0px"
	 viewBox="0 0 33 42" style="enable-background:new 0 0 33 42;" xml:space="preserve">
<style type="text/css">
	.st0{fill:none;stroke:#8787C1;stroke-width:1.5;stroke-linecap:round;}
</style>
<path class="st0" d="M7.91,4.51c-0.96-0.93-1.9-1.67-2.98-1.78 M7.91,4.51c3.52,3.44,6.22,7.62,7.89,12.14
	c0.14,0.36,0.26,0.73,0.38,1.1l0.01,0.01c0.43,1.32,0.77,2.66,1.02,4.02l1.48-0.01 M18.69,21.77c0.81-4.74,2.45-9.35,4.83-13.58
	l0.02-0.02c0.94-1.7,2.01-3.33,3.19-4.89 M28.24,1.73c-0.55,0.39-1.06,0.95-1.51,1.55 M5.63,27.78c-3.32-6.06-5.43-12.8-4.89-19.5
	 M0.74,8.28C0.85,6.92,1.3,5.42,2.05,4.32s1.71-1.71,2.88-1.59 M29.86,1.26c0.6,0.1,1.06,0.49,1.42,1.14
	c0.36,0.67,0.56,1.52,0.65,2.33c0.15,1.35,0.22,2.69,0.22,4.04c0,9.86-3.84,19.59-8.52,28.45c-1.63,3.07-3.27,4.26-4.74,4.48
	c-1.49,0.22-3.1-0.5-4.8-1.97c-3.38-2.94-6.48-8.33-8.46-11.95 M23.54,8.17l-0.02,0.02 M16.19,17.76l-0.01-0.01 M28.24,1.73
	c0.55-0.38,1.08-0.55,1.62-0.47"/>
</svg>
