<?xml version="1.0" encoding="utf-8"?>
<!-- Generator: Adobe Illustrator 26.3.1, SVG Export Plug-In . SVG Version: 6.00 Build 0)  -->
<svg version="1.1" id="Layer_1" xmlns="http://www.w3.org/2000/svg" xmlns:xlink="http://www.w3.org/1999/xlink" x="0px" y="0px"
	 viewBox="0 0 61 39" style="enable-background:new 0 0 61 39;" xml:space="preserve">
<style type="text/css">
	.st0{fill:#8787C1;}
</style>
<path class="st0" d="M12.47,9.57C10.35,8.59,7.97,8,5.65,8.53c-1.78,0.41-3.32,1.51-4.33,3.02c-0.94,1.4-1.4,3.15-1.29,4.83
	c0.11,1.79,0.82,3.5,2.09,4.77c1.54,1.54,3.68,2.25,5.81,2.4c0.31,0.02,0.62,0.03,0.93,0.03c-0.11-0.42-0.23-0.85-0.34-1.27
	c-1.84,1.17-3.41,2.83-4,4.96c-0.48,1.75-0.23,3.61,0.56,5.23c1.57,3.19,5.28,5.23,8.79,4.24c2.54-0.72,4.43-2.78,5.72-5
	c-0.42-0.11-0.85-0.23-1.27-0.34c-0.14,1.59,0.12,3.27,0.98,4.64c0.76,1.2,1.89,2.08,3.21,2.59c2.48,0.96,5.55,0.39,7.42-1.53
	c1.23-1.26,1.81-2.97,1.85-4.72c-0.45,0-0.91,0-1.36,0c0.16,1.66,0.7,3.28,1.83,4.53c0.9,0.99,2.16,1.67,3.48,1.91
	c2.75,0.49,5.66-0.67,7.18-3.05c0.99-1.55,1.2-3.41,0.93-5.2c-0.42,0.17-0.83,0.35-1.25,0.53c1.92,2.99,5.41,5.72,9.16,4.92
	c0.99-0.21,1.91-0.69,2.72-1.3c0.67-0.51,1.3-1.06,1.78-1.77c0.86-1.27,1.23-2.91,1.13-4.43c-0.12-1.8-0.88-3.52-2.41-4.56
	c-0.06,0.42-0.11,0.83-0.16,1.25c1.7-0.56,3.21-1.59,4.2-3.11c0.84-1.28,1.24-2.86,1.17-4.39c-0.14-3.13-2.17-6.09-5.3-6.86
	c-2.21-0.55-4.48,0.03-6.48,1.01c0.33,0.26,0.67,0.51,1,0.77c0.45-1.95,0.57-4.03-0.06-5.96c-0.49-1.54-1.43-2.88-2.76-3.81
	c-2.53-1.79-6.03-1.57-8.52,0.16c-1.76,1.22-2.96,3.01-3.71,4.99c0.45,0.06,0.89,0.12,1.34,0.18c0.21-2.51-0.79-5.22-3.18-6.37
	c-2.02-0.98-4.52-0.59-5.95,1.21c-1.02,1.27-1.38,2.9-1.39,4.51c0.45-0.06,0.89-0.12,1.34-0.18c-0.4-1.93-1.27-3.85-2.77-5.17
	c-1.26-1.11-2.84-1.74-4.51-1.84c-3.06-0.2-6.39,1.46-7.71,4.31c-0.83,1.81-0.78,3.84-0.05,5.67c0.14,0.34,0.46,0.58,0.84,0.48
	c0.33-0.09,0.61-0.49,0.48-0.84c-0.16-0.41-0.3-0.84-0.4-1.27c-0.02-0.09-0.04-0.18-0.05-0.27c-0.01-0.05-0.02-0.11-0.03-0.16
	c-0.03-0.18,0.01,0.15,0-0.03c-0.02-0.19-0.04-0.38-0.04-0.57c-0.01-0.18,0-0.37,0.01-0.55c0-0.08,0.01-0.16,0.02-0.25
	c0-0.05,0.01-0.1,0.02-0.15c-0.02,0.2,0-0.02,0.01-0.06c0.06-0.34,0.14-0.68,0.26-1.01c0.03-0.07,0.06-0.15,0.08-0.22
	c0.05-0.15-0.07,0.14,0-0.01c0.02-0.04,0.04-0.08,0.06-0.13c0.07-0.16,0.16-0.32,0.25-0.47c0.08-0.14,0.17-0.27,0.26-0.41
	c0.05-0.08,0.11-0.15,0.16-0.22c-0.11,0.15,0.05-0.07,0.09-0.11c0.22-0.26,0.45-0.5,0.71-0.72c0.07-0.06,0.14-0.12,0.21-0.18
	c0.02-0.02,0.05-0.04,0.07-0.06c0.12-0.1-0.12,0.09,0.01-0.01c0.15-0.11,0.3-0.22,0.46-0.32c0.29-0.18,0.59-0.35,0.9-0.49
	c0.04-0.02,0.09-0.04,0.13-0.06c0.14-0.07-0.11,0.04-0.01,0c0.08-0.03,0.16-0.06,0.24-0.1c0.18-0.07,0.36-0.13,0.54-0.18
	c0.33-0.1,0.67-0.17,1.01-0.23c0.05-0.01,0.09-0.01,0.14-0.02c-0.17,0.02-0.08,0.01-0.04,0.01c0.09-0.01,0.19-0.02,0.28-0.03
	c0.17-0.01,0.35-0.02,0.52-0.02c0.17,0,0.35,0,0.52,0.01c0.09,0,0.17,0.01,0.26,0.02c0.06,0,0.38,0.05,0.17,0.02
	c0.35,0.05,0.69,0.12,1.03,0.23c0.17,0.05,0.33,0.11,0.5,0.17c0.05,0.02,0.09,0.04,0.13,0.05c-0.15-0.06-0.06-0.03-0.03-0.01
	c0.1,0.05,0.21,0.1,0.31,0.15c0.33,0.16,0.63,0.36,0.93,0.57c0.03,0.02,0.16,0.13,0.02,0.02c0.04,0.03,0.08,0.06,0.12,0.1
	c0.09,0.08,0.18,0.16,0.27,0.24c0.16,0.14,0.3,0.29,0.44,0.45c0.08,0.09,0.16,0.17,0.23,0.27c0.03,0.04,0.06,0.07,0.09,0.11
	c-0.11-0.13,0.04,0.06,0.06,0.08c0.13,0.18,0.26,0.38,0.38,0.57c0.13,0.22,0.26,0.45,0.37,0.68c0.14,0.28,0.15,0.31,0.25,0.59
	c0.21,0.56,0.37,1.13,0.49,1.72c0.16,0.76,1.34,0.57,1.34-0.18c0-0.36,0.02-0.72,0.06-1.08c0.02-0.14,0.01-0.05,0-0.02
	c0.01-0.04,0.01-0.09,0.02-0.13c0.01-0.08,0.03-0.15,0.04-0.22c0.03-0.16,0.06-0.31,0.11-0.46c0.04-0.15,0.08-0.29,0.13-0.43
	c0.02-0.06,0.05-0.13,0.07-0.19C26.99,4.97,27,4.94,27.02,4.9c-0.02,0.05-0.03,0.07,0,0.01c0.12-0.25,0.24-0.5,0.4-0.73
	c0.03-0.05,0.07-0.1,0.1-0.15c0.02-0.03,0.04-0.05,0.06-0.08c0,0-0.08,0.1-0.03,0.04c0.08-0.1,0.17-0.2,0.26-0.29
	c0.08-0.08,0.16-0.16,0.24-0.23c0.04-0.04,0.08-0.07,0.12-0.11c0.09-0.08-0.01,0.01-0.03,0.02c0.03-0.02,0.06-0.05,0.09-0.07
	c0.19-0.13,0.38-0.25,0.59-0.35c0.05-0.02,0.1-0.04,0.14-0.06c-0.18,0.08,0,0,0.04-0.01c0.11-0.04,0.21-0.07,0.32-0.1
	c0.11-0.03,0.22-0.05,0.32-0.07c0.05-0.01,0.1-0.02,0.15-0.03c0.08-0.01-0.08,0.01-0.07,0.01c0.04,0,0.07-0.01,0.11-0.01
	c0.22-0.02,0.44-0.02,0.66-0.01c0.06,0,0.12,0.01,0.18,0.01c0.16,0.01-0.11-0.02,0.02,0c0.12,0.02,0.23,0.04,0.35,0.07
	c0.22,0.05,0.43,0.13,0.65,0.2c0.11,0.04-0.13-0.06,0.03,0.01c0.05,0.02,0.1,0.05,0.15,0.07c0.11,0.05,0.22,0.11,0.33,0.18
	c0.09,0.05,0.19,0.11,0.27,0.18c0.05,0.04,0.1,0.07,0.15,0.11c-0.12-0.09,0,0,0.05,0.04c0.19,0.16,0.36,0.33,0.52,0.51
	c0.04,0.04,0.08,0.09,0.11,0.13c0.04,0.05,0.11,0.15,0.03,0.04c0.08,0.11,0.16,0.22,0.23,0.33c0.08,0.12,0.15,0.25,0.22,0.38
	c0.03,0.06,0.06,0.13,0.1,0.19c0.02,0.04,0.11,0.26,0.05,0.11c0.12,0.3,0.22,0.6,0.29,0.92c0.04,0.16,0.06,0.31,0.09,0.47
	c0,0.03,0.02,0.13,0,0c0,0.05,0.01,0.1,0.02,0.16c0.01,0.08,0.01,0.17,0.02,0.25c0.02,0.39,0.01,0.78-0.02,1.17
	c-0.03,0.33,0.28,0.63,0.59,0.67c0.36,0.04,0.63-0.16,0.75-0.49c0.28-0.74,0.71-1.6,1.23-2.33c0.06-0.08,0.12-0.17,0.18-0.25
	c-0.08,0.11,0.08-0.1,0.1-0.12c0.13-0.16,0.27-0.32,0.41-0.47c0.26-0.28,0.55-0.54,0.84-0.78c0.02-0.01,0.17-0.13,0.04-0.03
	c0.03-0.02,0.06-0.05,0.09-0.07c0.07-0.05,0.15-0.11,0.22-0.16c0.16-0.11,0.32-0.21,0.48-0.3c0.15-0.08,0.29-0.16,0.44-0.24
	c0.08-0.04,0.16-0.08,0.24-0.11C40,3.5,40.04,3.48,40.08,3.47c0.05-0.02,0.03-0.01-0.04,0.02c0.03-0.01,0.06-0.03,0.1-0.04
	c0.32-0.12,0.64-0.23,0.98-0.31c0.16-0.04,0.31-0.07,0.47-0.09c0.04-0.01,0.08-0.01,0.12-0.02c0.16-0.03-0.11,0.01-0.01,0
	c0.09-0.01,0.18-0.02,0.27-0.03c0.33-0.03,0.65-0.03,0.98-0.01c0.08,0,0.16,0.01,0.24,0.02c0.05,0,0.31,0.04,0.11,0.01
	c0.17,0.03,0.33,0.05,0.5,0.09c0.32,0.07,0.64,0.17,0.94,0.29c0.03,0.01,0.06,0.02,0.09,0.04c0.16,0.06-0.14-0.07,0.01,0.01
	c0.06,0.03,0.13,0.06,0.2,0.09c0.15,0.07,0.3,0.15,0.44,0.24c0.14,0.08,0.27,0.17,0.41,0.26c0.06,0.04,0.12,0.09,0.18,0.13
	c0.08,0.06-0.13-0.11,0,0c0.04,0.03,0.08,0.06,0.11,0.09c0.26,0.22,0.5,0.46,0.72,0.71c0.05,0.06,0.1,0.12,0.15,0.17
	c0.11,0.13-0.08-0.12,0.02,0.02c0.02,0.03,0.04,0.05,0.06,0.08c0.11,0.15,0.22,0.31,0.31,0.47c0.08,0.14,0.16,0.27,0.23,0.42
	c0.04,0.08,0.08,0.16,0.12,0.24c0.02,0.05,0.05,0.1,0.07,0.15c-0.05-0.11-0.01-0.02,0.02,0.04c0.16,0.4,0.28,0.81,0.37,1.23
	c0.02,0.11,0.05,0.22,0.06,0.33c0.01,0.06,0.02,0.12,0.03,0.18c0,0.03,0.03,0.21,0.01,0.06c0.03,0.23,0.05,0.47,0.06,0.7
	c0.03,0.53,0.01,1.05-0.04,1.58c-0.05,0.53-0.14,1.04-0.27,1.63c-0.14,0.6,0.47,1.03,1,0.77c0.84-0.41,1.77-0.75,2.76-0.93
	c0.1-0.02,0.21-0.04,0.31-0.05c-0.15,0.02,0.14-0.02,0.18-0.02c0.21-0.02,0.43-0.03,0.64-0.04c0.19,0,0.38,0,0.56,0.01
	c0.09,0,0.18,0.01,0.27,0.02c0.05,0,0.11,0.01,0.16,0.02c-0.17-0.02-0.01,0,0.03,0.01c0.37,0.07,0.74,0.15,1.1,0.28
	c0.08,0.03,0.16,0.06,0.23,0.09c0.03,0.01,0.12,0.05-0.03-0.01c0.05,0.02,0.09,0.04,0.13,0.06c0.16,0.07,0.32,0.16,0.48,0.25
	c0.14,0.08,0.27,0.16,0.41,0.26c0.06,0.05,0.13,0.09,0.19,0.14c0.13,0.1-0.11-0.1,0.01,0.01c0.04,0.03,0.07,0.06,0.11,0.09
	c0.25,0.21,0.49,0.45,0.71,0.7c0.06,0.06,0.11,0.13,0.17,0.2c0.03,0.03,0.09,0.13,0-0.01c0.02,0.03,0.05,0.06,0.07,0.1
	c0.11,0.15,0.21,0.3,0.3,0.45c0.17,0.28,0.32,0.58,0.45,0.88c-0.08-0.18,0.02,0.06,0.04,0.1c0.03,0.07,0.06,0.15,0.08,0.22
	c0.06,0.16,0.11,0.33,0.15,0.5c0.04,0.15,0.08,0.31,0.11,0.46c0.01,0.08,0.03,0.16,0.04,0.23c0.01,0.05,0.01,0.09,0.02,0.14
	c-0.03-0.19,0-0.04,0,0.01c0.04,0.34,0.06,0.68,0.05,1.03c0,0.17-0.01,0.33-0.03,0.5c0,0.05-0.04,0.31-0.01,0.11
	c-0.01,0.1-0.03,0.19-0.05,0.28c-0.06,0.33-0.15,0.66-0.25,0.98c-0.03,0.08-0.05,0.15-0.08,0.23c-0.02,0.04-0.12,0.28-0.04,0.11
	c-0.07,0.16-0.15,0.33-0.23,0.48c-0.09,0.17-0.19,0.34-0.3,0.51c-0.06,0.08-0.11,0.16-0.17,0.25c-0.02,0.03-0.12,0.16-0.01,0.02
	c-0.03,0.04-0.06,0.08-0.1,0.12c-0.26,0.32-0.56,0.62-0.87,0.88c-0.03,0.03-0.07,0.06-0.1,0.08c-0.14,0.11,0.06-0.04-0.05,0.04
	c-0.09,0.06-0.18,0.13-0.27,0.19c-0.19,0.13-0.38,0.24-0.58,0.35c-0.21,0.11-0.42,0.22-0.63,0.31c0.02-0.01,0.12-0.05,0,0
	c-0.07,0.03-0.13,0.05-0.2,0.08c-0.13,0.05-0.25,0.09-0.38,0.13c-0.58,0.19-0.66,0.91-0.16,1.25c0.21,0.14,0.44,0.34,0.66,0.59
	c0.05,0.06,0.11,0.12,0.15,0.18c-0.06-0.07,0.06,0.09,0.08,0.11c0.1,0.14,0.19,0.29,0.27,0.44c0.17,0.31,0.22,0.43,0.33,0.79
	c0.05,0.16,0.09,0.31,0.13,0.47c0.03,0.14,0.08,0.39,0.09,0.47c0.16,1.23-0.07,2.59-0.67,3.67c-0.08,0.14-0.16,0.27-0.25,0.4
	c-0.04,0.06-0.09,0.13-0.14,0.19c-0.05,0.06,0,0,0-0.01c-0.03,0.04-0.07,0.09-0.11,0.13c-0.1,0.12-0.21,0.23-0.32,0.33
	c-0.05,0.05-0.11,0.1-0.17,0.15c-0.02,0.02-0.05,0.04-0.07,0.06c-0.03,0.02-0.03,0.03-0.01,0.01c0.06-0.05,0.02-0.02-0.12,0.09
	c-0.67,0.56-1.36,1.07-2.21,1.34c-1.47,0.47-2.98,0.2-4.33-0.52c-1.57-0.83-2.88-2.15-3.83-3.63c-0.18-0.28-0.54-0.42-0.85-0.28
	c-0.33,0.15-0.45,0.46-0.39,0.81c0.03,0.21-0.01-0.08,0.01,0.05c0,0.04,0.01,0.09,0.01,0.13c0.01,0.1,0.02,0.19,0.03,0.29
	c0.01,0.2,0.02,0.4,0.02,0.6c0,0.17-0.01,0.34-0.02,0.51c-0.01,0.1-0.02,0.2-0.03,0.29c0,0.03-0.02,0.13,0-0.01
	c-0.01,0.06-0.02,0.11-0.03,0.17c-0.06,0.33-0.13,0.65-0.24,0.96c-0.03,0.08-0.05,0.15-0.08,0.23c-0.01,0.04-0.11,0.26-0.04,0.11
	c-0.07,0.15-0.14,0.3-0.22,0.44c-0.07,0.13-0.14,0.25-0.22,0.37c-0.05,0.07-0.09,0.14-0.14,0.21c-0.03,0.04-0.18,0.24-0.07,0.1
	c-0.18,0.23-0.38,0.45-0.6,0.66c-0.11,0.1-0.22,0.2-0.33,0.29c-0.15,0.12,0.06-0.04-0.07,0.06c-0.07,0.05-0.13,0.1-0.2,0.14
	c-0.25,0.17-0.51,0.32-0.77,0.45c-0.06,0.03-0.12,0.06-0.17,0.08c-0.04,0.02-0.07,0.03-0.11,0.05c-0.09,0.04,0.12-0.05,0.03-0.01
	c-0.14,0.06-0.28,0.11-0.43,0.16c-0.28,0.09-0.57,0.16-0.86,0.22c-0.07,0.01-0.14,0.02-0.21,0.04c-0.11,0.02,0.12-0.01-0.06,0.01
	c-0.16,0.02-0.32,0.03-0.48,0.04c-0.29,0.01-0.57,0-0.86-0.03c-0.04,0-0.25-0.03-0.15-0.02c0.11,0.01-0.11-0.02-0.15-0.02
	c-0.15-0.03-0.3-0.06-0.44-0.1c-0.13-0.03-0.26-0.07-0.39-0.11c-0.07-0.02-0.14-0.05-0.2-0.07c-0.04-0.01-0.07-0.03-0.11-0.04
	c-0.13-0.05,0.12,0.06-0.01,0c-0.26-0.12-0.52-0.25-0.76-0.41c-0.12-0.08-0.24-0.16-0.36-0.25c0.12,0.09-0.01-0.01-0.06-0.05
	c-0.07-0.06-0.14-0.12-0.21-0.18c-0.13-0.12-0.25-0.25-0.37-0.38c-0.06-0.06-0.11-0.13-0.17-0.2c-0.02-0.03-0.04-0.06-0.06-0.08
	c0.11,0.13,0-0.01-0.02-0.03c-0.21-0.3-0.4-0.62-0.56-0.96c-0.02-0.04-0.04-0.09-0.06-0.13c-0.06-0.12,0.02,0.06-0.01-0.02
	c-0.04-0.1-0.08-0.2-0.11-0.3c-0.07-0.19-0.13-0.38-0.18-0.58c-0.06-0.21-0.1-0.41-0.14-0.62c-0.05-0.3-0.05-0.31-0.08-0.62
	c-0.04-0.37-0.29-0.68-0.68-0.68c-0.38,0-0.67,0.31-0.68,0.68c0,0.19-0.01,0.37-0.03,0.56c0,0.04-0.01,0.08-0.01,0.12
	c0,0-0.02,0.19-0.01,0.09c0.01-0.11-0.01,0.09-0.01,0.09c-0.01,0.06-0.02,0.11-0.03,0.17c-0.06,0.33-0.15,0.65-0.26,0.97
	c-0.03,0.08-0.06,0.17-0.1,0.25c-0.01,0.03-0.06,0.12,0.01-0.02c-0.01,0.03-0.03,0.06-0.04,0.1c-0.07,0.16-0.15,0.31-0.24,0.46
	c-0.08,0.13-0.16,0.26-0.24,0.38c-0.04,0.05-0.08,0.11-0.11,0.16c-0.07,0.1,0,0,0.02-0.02c-0.03,0.04-0.06,0.08-0.09,0.11
	c-0.2,0.24-0.41,0.46-0.65,0.65c-0.05,0.04-0.1,0.08-0.15,0.12c-0.12,0.1,0.09-0.06,0,0c-0.03,0.02-0.06,0.05-0.1,0.07
	c-0.11,0.08-0.23,0.16-0.36,0.24s-0.25,0.15-0.37,0.21c-0.07,0.04-0.14,0.07-0.21,0.11c-0.05,0.02-0.27,0.12-0.1,0.05
	c-0.27,0.11-0.55,0.2-0.83,0.28c-0.13,0.03-0.26,0.06-0.39,0.09c-0.08,0.01-0.16,0.03-0.23,0.04c-0.19,0.03,0.09,0-0.1,0.01
	c-0.29,0.03-0.59,0.05-0.88,0.04c-0.13,0-0.27-0.01-0.4-0.02c-0.08-0.01-0.16-0.02-0.24-0.02c-0.04,0-0.13-0.02,0.04,0.01
	c-0.05-0.01-0.09-0.01-0.14-0.02c-0.29-0.05-0.58-0.11-0.86-0.2c-0.13-0.04-0.26-0.08-0.38-0.13c-0.04-0.01-0.28-0.12-0.1-0.04
	c-0.07-0.03-0.15-0.06-0.22-0.1c-0.27-0.13-0.52-0.27-0.76-0.44c-0.06-0.04-0.12-0.08-0.17-0.12c-0.16-0.11,0.05,0.05-0.07-0.05
	c-0.12-0.1-0.23-0.2-0.34-0.3c-0.11-0.1-0.21-0.21-0.3-0.31c-0.04-0.05-0.09-0.1-0.13-0.15c-0.03-0.03-0.05-0.06-0.08-0.1
	c-0.03-0.04,0.07,0.11-0.01-0.02c-0.2-0.28-0.38-0.58-0.54-0.89c-0.02-0.04-0.04-0.08-0.06-0.12c-0.01-0.02-0.08-0.18-0.04-0.09
	c0.04,0.1-0.02-0.06-0.03-0.07c-0.02-0.05-0.04-0.1-0.06-0.15c-0.06-0.17-0.11-0.35-0.16-0.53c-0.05-0.19-0.09-0.39-0.12-0.59
	c-0.01-0.04-0.01-0.08-0.02-0.12c-0.01-0.05-0.01-0.04,0,0.03c0-0.03-0.01-0.06-0.01-0.09c-0.01-0.11-0.02-0.22-0.03-0.33
	c-0.03-0.46-0.02-0.91,0.02-1.37c0.06-0.7-0.95-0.9-1.27-0.34c-0.61,1.05-1.25,1.93-2.14,2.76c-0.42,0.39-0.65,0.57-1.12,0.87
	c-0.18,0.11-0.37,0.22-0.56,0.32c-0.09,0.04-0.17,0.09-0.26,0.13c-0.05,0.02-0.1,0.05-0.16,0.07c0.16-0.07-0.07,0.03-0.1,0.04
	c-0.38,0.15-0.78,0.26-1.19,0.33c-0.05,0.01-0.1,0.02-0.16,0.03c-0.17,0.03,0.15-0.01-0.02,0c-0.1,0.01-0.21,0.02-0.31,0.03
	c-0.2,0.01-0.41,0.02-0.61,0.01c-0.18-0.01-0.37-0.02-0.55-0.04c-0.17-0.02,0.15,0.03-0.02,0c-0.05-0.01-0.1-0.02-0.15-0.02
	c-0.1-0.02-0.2-0.04-0.29-0.06c-0.18-0.04-0.35-0.09-0.53-0.14c-0.1-0.03-0.19-0.06-0.28-0.1c-0.06-0.02-0.37-0.15-0.21-0.08
	c-0.35-0.16-0.68-0.33-1.01-0.54c-0.15-0.1-0.3-0.2-0.45-0.31c-0.03-0.02-0.16-0.13-0.02-0.01c-0.04-0.03-0.08-0.06-0.12-0.09
	c-0.08-0.06-0.15-0.13-0.23-0.19c-0.3-0.27-0.58-0.55-0.83-0.86c-0.03-0.03-0.19-0.24-0.08-0.1c-0.06-0.08-0.12-0.16-0.18-0.24
	c-0.11-0.16-0.22-0.33-0.33-0.5c-0.09-0.16-0.18-0.32-0.26-0.48c-0.05-0.09-0.09-0.18-0.13-0.27c-0.01-0.03-0.08-0.19-0.01-0.02
	c-0.02-0.05-0.04-0.11-0.06-0.16c-0.14-0.36-0.25-0.74-0.33-1.12c-0.02-0.1-0.04-0.2-0.05-0.29c0-0.03-0.01-0.07-0.01-0.1
	c-0.03-0.17,0.01,0.16,0-0.02c-0.02-0.2-0.04-0.4-0.04-0.6c0-0.2,0-0.4,0.01-0.6c0.01-0.08,0.01-0.17,0.02-0.25
	c0-0.04,0.03-0.21,0-0.02c0.01-0.07,0.02-0.14,0.03-0.2c0.08-0.45,0.21-0.89,0.39-1.31c-0.06,0.15,0.06-0.13,0.09-0.19
	c0.06-0.12,0.12-0.23,0.18-0.35c0.12-0.22,0.26-0.43,0.4-0.64c0.03-0.05,0.07-0.1,0.11-0.14c0.05-0.06,0.05-0.06,0,0
	c0.02-0.03,0.05-0.06,0.08-0.1c0.08-0.1,0.16-0.19,0.24-0.28c0.18-0.21,0.38-0.41,0.58-0.6c0.49-0.45,0.87-0.74,1.44-1.1
	c0.56-0.36,0.35-1.27-0.34-1.27c-0.3,0-0.6-0.01-0.9-0.03c-0.14-0.01-0.27-0.02-0.41-0.04c-0.07-0.01-0.14-0.02-0.22-0.02
	c-0.08-0.01,0.02,0,0.03,0c-0.04,0-0.08-0.01-0.12-0.02c-0.52-0.08-1.04-0.2-1.54-0.36c-0.11-0.04-0.22-0.07-0.33-0.11
	c-0.06-0.02-0.11-0.04-0.17-0.07c-0.05-0.02-0.18-0.08-0.05-0.02c-0.21-0.09-0.42-0.19-0.62-0.3c-0.2-0.11-0.39-0.23-0.58-0.35
	c-0.09-0.06-0.17-0.12-0.25-0.18c-0.06-0.05-0.1-0.08-0.01-0.01c-0.05-0.04-0.1-0.08-0.15-0.12c-0.31-0.26-0.6-0.55-0.86-0.86
	c-0.03-0.04-0.06-0.08-0.1-0.12c-0.03-0.03,0.08,0.11,0,0c-0.06-0.09-0.13-0.18-0.19-0.27c-0.11-0.16-0.21-0.33-0.3-0.5
	C2,18.68,1.92,18.51,1.84,18.33c0.08,0.18-0.03-0.07-0.05-0.13c-0.04-0.09-0.07-0.19-0.1-0.28c-0.12-0.37-0.2-0.75-0.27-1.13
	c-0.02-0.13,0.01,0.14,0,0.01c0-0.05-0.01-0.1-0.02-0.15c-0.01-0.1-0.02-0.2-0.02-0.29c-0.01-0.19-0.01-0.38-0.01-0.57
	c0-0.19,0.01-0.38,0.03-0.57c0.01-0.07,0.05-0.34,0.01-0.13c0.02-0.1,0.03-0.19,0.05-0.29c0.07-0.38,0.17-0.76,0.3-1.12
	c0.03-0.09,0.06-0.17,0.1-0.26c0.01-0.04,0.03-0.08,0.05-0.12c-0.08,0.19,0,0.01,0.01-0.03C2,13.1,2.09,12.93,2.18,12.76
	c0.1-0.17,0.2-0.34,0.31-0.5c0.05-0.08,0.1-0.15,0.16-0.22c0.02-0.03,0.05-0.07,0.08-0.1c0.05-0.07-0.08,0.1,0.02-0.03
	c0.24-0.3,0.5-0.57,0.8-0.82c0.07-0.06,0.14-0.12,0.22-0.18c0.13-0.11-0.08,0.06,0.01-0.01c0.04-0.03,0.08-0.06,0.12-0.09
	c0.16-0.12,0.34-0.23,0.51-0.33c0.17-0.1,0.35-0.19,0.53-0.27c0.04-0.02,0.08-0.04,0.12-0.05c-0.17,0.08-0.02,0.01,0.03-0.01
	c0.1-0.04,0.2-0.08,0.3-0.11c0.2-0.07,0.4-0.12,0.61-0.17c0.1-0.02,0.2-0.05,0.3-0.06c0.05-0.01,0.11-0.02,0.17-0.03
	c0.05-0.01,0.25-0.03,0.06-0.01C6.99,9.69,7.46,9.68,7.92,9.7c0.12,0.01,0.24,0.01,0.36,0.03c0.06,0.01,0.13,0.01,0.19,0.02
	c0.03,0,0.05,0.01,0.08,0.01c0.1,0.01-0.12-0.02-0.01,0C8.81,9.79,9.06,9.84,9.32,9.9c0.57,0.13,1.14,0.3,1.69,0.52
	c0.06,0.02,0.13,0.05,0.19,0.08c0.02,0.01,0.21,0.09,0.13,0.05c0.15,0.06,0.31,0.13,0.46,0.21c0.33,0.16,0.74,0.09,0.93-0.24
	C12.89,10.21,12.81,9.73,12.47,9.57z"/>
<path class="st0" d="M21.18,23.06c-0.19-0.27-0.36-0.55-0.5-0.84c-0.03-0.06-0.06-0.12-0.09-0.19c-0.06-0.12-0.01-0.02,0,0
	c-0.01-0.04-0.03-0.07-0.04-0.11c-0.05-0.14-0.1-0.27-0.14-0.41c-0.03-0.12-0.06-0.25-0.09-0.38c-0.01-0.07-0.03-0.18-0.01-0.04
	c-0.01-0.07-0.02-0.15-0.02-0.22c-0.01-0.12-0.01-0.24-0.01-0.35c0-0.06,0-0.11,0.01-0.16c0-0.05,0.04-0.27,0-0.07
	c0.04-0.23,0.09-0.45,0.17-0.66c0.02-0.05,0.04-0.1,0.06-0.14c-0.05,0.14-0.01,0.03,0.02-0.04c0.05-0.1,0.11-0.21,0.16-0.3
	c0.05-0.09,0.11-0.17,0.17-0.25c0.1-0.15-0.05,0.05,0.02-0.03c0.04-0.04,0.07-0.09,0.11-0.13c0.16-0.17,0.33-0.33,0.5-0.48
	c0.09-0.08-0.12,0.08,0.02-0.01c0.04-0.03,0.08-0.06,0.13-0.09c0.1-0.07,0.2-0.13,0.3-0.19c0.1-0.06,0.19-0.11,0.29-0.16
	c0.05-0.02,0.09-0.05,0.14-0.07c0.17-0.08-0.08,0.03,0.06-0.03c0.22-0.08,0.44-0.15,0.66-0.21c0.11-0.03,0.22-0.05,0.33-0.07
	c0.09-0.02,0.15-0.02,0.02,0c0.07-0.01,0.13-0.01,0.2-0.02c0.23-0.02,0.46-0.02,0.7-0.01c0.05,0,0.11,0.01,0.16,0.01
	c0.03,0,0.06,0.01,0.09,0.01c0.09,0.01-0.14-0.02-0.05-0.01c0.12,0.02,0.24,0.04,0.35,0.07c0.11,0.03,0.22,0.06,0.33,0.09
	c0.05,0.02,0.1,0.03,0.15,0.05c0.03,0.01,0.06,0.02,0.08,0.03c0.08,0.03-0.15-0.07-0.02-0.01c0.21,0.1,0.41,0.2,0.6,0.33
	c0.03,0.02,0.2,0.14,0.12,0.08c-0.07-0.05,0.09,0.07,0.12,0.1c0.11,0.09,0.2,0.19,0.3,0.29c0.05,0.05,0.1,0.11,0.15,0.17
	c0.04,0.05,0.14,0.18,0.05,0.06c0.09,0.13,0.18,0.26,0.26,0.39c0.08,0.13,0.15,0.27,0.22,0.42c0.02,0.03,0.03,0.07,0.05,0.1
	c0.05,0.1-0.06-0.15,0.01,0.02c0.03,0.07,0.06,0.15,0.08,0.22c0.13,0.37,0.22,0.74,0.29,1.13c0.06,0.36,0.51,0.57,0.84,0.48
	c0.39-0.11,0.53-0.47,0.48-0.84c-0.11-0.7-0.16-1.63-0.07-2.44c0-0.05,0.01-0.1,0.02-0.15c0,0.03-0.02,0.14,0,0
	c0.01-0.09,0.03-0.17,0.04-0.26c0.03-0.18,0.07-0.35,0.12-0.52c0.04-0.16,0.09-0.31,0.14-0.46c0.03-0.07,0.06-0.15,0.08-0.22
	c0.01-0.04,0.06-0.15,0,0c0.02-0.05,0.04-0.09,0.06-0.14c0.12-0.27,0.27-0.52,0.43-0.76c0.04-0.06,0.09-0.13,0.14-0.19
	c-0.09,0.12-0.01,0.01,0.04-0.04c0.1-0.11,0.2-0.23,0.31-0.33c0.09-0.09,0.19-0.18,0.29-0.27c0.06-0.05,0.15-0.11,0.03-0.03
	c0.06-0.05,0.13-0.09,0.19-0.14c0.22-0.15,0.45-0.26,0.69-0.38c0.13-0.06-0.12,0.05-0.03,0.01c0.03-0.01,0.06-0.03,0.1-0.04
	c0.05-0.02,0.11-0.04,0.16-0.06c0.13-0.04,0.27-0.08,0.4-0.11c0.12-0.03,0.24-0.05,0.37-0.07c-0.14,0.02-0.07,0.01,0.02,0
	c0.07-0.01,0.15-0.01,0.23-0.02c0.26-0.01,0.51,0.01,0.76,0.03c-0.22-0.01-0.01,0,0.04,0.01c0.06,0.01,0.12,0.02,0.18,0.04
	c0.14,0.03,0.27,0.06,0.4,0.11c0.11,0.04,0.22,0.08,0.34,0.12c0.09,0.03-0.16-0.07-0.03-0.01c0.03,0.01,0.05,0.02,0.08,0.04
	c0.06,0.03,0.13,0.06,0.19,0.09c0.11,0.06,0.23,0.12,0.34,0.19c0.06,0.04,0.12,0.08,0.18,0.12c0.04,0.03,0.23,0.17,0.07,0.05
	c0.22,0.18,0.42,0.36,0.61,0.57c0.05,0.05,0.09,0.11,0.14,0.16c0.02,0.02,0.04,0.05,0.06,0.07c0.1,0.12-0.06-0.09,0-0.01
	c0.09,0.12,0.18,0.25,0.26,0.38c0.09,0.15,0.18,0.3,0.26,0.46c0.04,0.08,0.08,0.17,0.12,0.26c0.01,0.03,0.05,0.12-0.01-0.02
	c0.02,0.05,0.04,0.1,0.06,0.15c0.14,0.37,0.24,0.75,0.32,1.13c0.02,0.1,0.04,0.2,0.05,0.29c0.01,0.04,0.01,0.08,0.02,0.12
	c-0.02-0.15,0,0.03,0,0.06c0.03,0.23,0.04,0.47,0.05,0.7c0.01,0.49-0.01,0.98-0.06,1.47c-0.07,0.65,1.01,0.96,1.27,0.34
	c0.11-0.26,0.23-0.51,0.38-0.75c0.07-0.11,0.14-0.22,0.21-0.33c0.04-0.05,0.07-0.11,0.11-0.16c-0.07,0.09,0.03-0.04,0.05-0.06
	c0.16-0.18,0.32-0.36,0.5-0.51c0.04-0.04,0.09-0.07,0.13-0.11c-0.12,0.1,0.03-0.02,0.05-0.03c0.09-0.06,0.19-0.13,0.28-0.18
	c0.1-0.06,0.19-0.11,0.29-0.16c0.05-0.02,0.1-0.05,0.15-0.07c0.16-0.08-0.13,0.04,0.04-0.01c0.21-0.07,0.4-0.14,0.62-0.18
	c0.1-0.02,0.21-0.04,0.31-0.06c-0.19,0.03,0.13-0.01,0.19-0.01c0.21-0.01,0.42-0.01,0.63,0.01c0.05,0,0.11,0.01,0.16,0.01
	c0.18,0.01-0.15-0.03,0.03,0c0.1,0.02,0.21,0.04,0.31,0.06c0.21,0.05,0.41,0.11,0.6,0.18c0.05,0.02,0.1,0.04,0.15,0.06
	c-0.16-0.06,0,0,0.03,0.01c0.09,0.05,0.19,0.09,0.28,0.14c0.18,0.1,0.35,0.22,0.53,0.33c0.15,0.1-0.11-0.09,0.03,0.02
	c0.04,0.03,0.08,0.07,0.12,0.1c0.08,0.07,0.16,0.14,0.23,0.21c0.06,0.06,0.12,0.12,0.18,0.19c0.03,0.04,0.07,0.08,0.1,0.12
	c0.12,0.14-0.01-0.03,0.05,0.07c0.11,0.16,0.21,0.32,0.3,0.49c0.05,0.09,0.1,0.19,0.14,0.28c-0.07-0.16,0,0.01,0.01,0.03
	c0.02,0.07,0.05,0.13,0.07,0.2c0.04,0.12,0.07,0.24,0.09,0.37c0.01,0.04,0.01,0.07,0.02,0.11c0.01,0.04,0.01,0.07,0.02,0.11
	c-0.01-0.09-0.01-0.1,0-0.01c0.01,0.27,0.03,0.54,0,0.81c0,0.02-0.03,0.22,0,0.06c-0.01,0.06-0.02,0.12-0.03,0.18
	c-0.03,0.15-0.06,0.29-0.1,0.44c-0.1,0.34-0.18,0.55-0.31,0.81c-0.16,0.33-0.09,0.74,0.24,0.93c0.3,0.17,0.77,0.09,0.93-0.24
	c0.53-1.11,0.79-2.31,0.55-3.53c-0.19-0.99-0.75-1.91-1.51-2.57c-1.58-1.38-3.86-1.75-5.76-0.86c-1.19,0.56-2.07,1.63-2.57,2.82
	c0.42,0.11,0.85,0.23,1.27,0.34c0.18-1.69,0.01-3.45-0.79-4.96c-0.63-1.19-1.64-2.12-2.89-2.62c-2.42-0.98-5.19,0.11-6.46,2.35
	c-0.96,1.71-1.02,3.73-0.73,5.63c0.44-0.12,0.88-0.24,1.32-0.36c-0.22-1.3-0.8-2.61-1.84-3.47c-0.9-0.74-2.02-1.13-3.19-1.12
	c-2.16,0.02-4.42,1.39-4.96,3.57c-0.36,1.45,0.12,2.94,0.95,4.14c0.21,0.3,0.6,0.44,0.93,0.24C21.23,23.82,21.39,23.36,21.18,23.06z
	"/>
</svg>
