<?xml version="1.0" encoding="utf-8"?>
<!-- Generator: Adobe Illustrator 26.3.1, SVG Export Plug-In . SVG Version: 6.00 Build 0)  -->
<svg version="1.1" id="Layer_1" xmlns="http://www.w3.org/2000/svg" xmlns:xlink="http://www.w3.org/1999/xlink" x="0px" y="0px"
	 viewBox="0 0 385 76" style="enable-background:new 0 0 385 76;" xml:space="preserve">
<style type="text/css">
	.st0{fill:none;stroke:#8787C1;stroke-width:1.5;}
	.st1{fill-rule:evenodd;clip-rule:evenodd;fill:#FFFFFF;filter:url(#Adobe_OpacityMaskFilter);}
	
		.st2{mask:url(#path-2-inside-1_1440_34_00000163776747515649360920000000889794580980690331_);fill-rule:evenodd;clip-rule:evenodd;fill:#CEBCDD;stroke:#394253;stroke-width:1.6;}
	
		.st3{fill-rule:evenodd;clip-rule:evenodd;fill:#FFFFFF;filter:url(#Adobe_OpacityMaskFilter_00000091728427976821938030000003016047428675933827_);}
	
		.st4{mask:url(#path-3-inside-2_1440_34_00000029738916628624467450000015045523890206793385_);fill-rule:evenodd;clip-rule:evenodd;fill:#CEBCDD;stroke:#394253;stroke-width:1.8;}
	.st5{fill:#CEBCDD;stroke:#394253;stroke-width:0.5;}
</style>
<path class="st0" d="M363.79,3.39L363.79,3.39c1.03-1.06,2.43-1.89,3.86-2.19c1.41-0.3,2.81-0.08,3.96,0.89
	c1.27,1.07,1.95,2.68,2.22,4.49c0.27,1.81,0.11,3.76-0.24,5.39c-0.86,3.96-2.98,7.6-5.25,11.09l-0.02,0.03l-0.02,0.03l-0.93,1.81
	c-0.26,0.28-0.83,0.84-1.42,1.27c-0.32,0.24-0.61,0.4-0.84,0.48c-0.1,0.04-0.16,0.04-0.19,0.04c-1.09-0.81-2.19-1.61-3.28-2.4
	c-2.69-1.94-5.36-3.87-7.83-6.02l0,0c-2.65-2.31-5.04-5.35-4.55-8.66v0c0.2-1.34,1.12-2.64,2.43-3.57c1.31-0.93,2.89-1.4,4.27-1.2v0
	c2.02,0.28,3.34,1.67,4.73,3.41l1.13,1.43l0.21-1.81C362.22,6.1,362.7,4.51,363.79,3.39z M364.9,26.73
	C364.9,26.73,364.9,26.73,364.9,26.73C364.9,26.73,364.9,26.73,364.9,26.73z"/>
<defs>
	<filter id="Adobe_OpacityMaskFilter" filterUnits="userSpaceOnUse" x="9.64" y="55.52" width="51.07" height="11.23">
		<feColorMatrix  type="matrix" values="1 0 0 0 0  0 1 0 0 0  0 0 1 0 0  0 0 0 1 0"/>
	</filter>
</defs>
<mask maskUnits="userSpaceOnUse" x="9.64" y="55.52" width="51.07" height="11.23" id="path-2-inside-1_1440_34_00000163776747515649360920000000889794580980690331_">
	<path class="st1" d="M11.91,56.33c-0.36,0.05-0.7,0.24-0.97,0.52c-0.53,0.54-0.64,1.32-0.3,1.98c0.07,0.14,3.54,6.23,3.62,6.36
		c0.14,0.22,0.47,0.5,0.73,0.61c0.38,0.16,0.84,0.2,1.26,0.09c0.18-0.04,0.46-0.17,0.6-0.27c0.12-0.09,0.29-0.26,0.37-0.37
		c0.03-0.04,0.5-0.87,1.06-1.84c0.55-0.97,1.01-1.77,1.02-1.77s0.45,0.77,0.99,1.71c0.54,0.94,1.01,1.76,1.04,1.83
		c0.08,0.14,0.27,0.33,0.42,0.44c0.06,0.04,0.19,0.12,0.28,0.16c0.6,0.28,1.33,0.22,1.87-0.15c0.12-0.08,0.31-0.27,0.39-0.38
		c0.03-0.04,0.51-0.87,1.06-1.84c0.55-0.97,1.01-1.77,1.01-1.77c0.01-0.01,0.22,0.36,0.48,0.82c1.29,2.26,1.56,2.74,1.64,2.84
		c0.2,0.27,0.57,0.51,0.93,0.6c0.74,0.19,1.52-0.06,1.93-0.62c0.04-0.06,0.53-0.91,1.09-1.88c0.84-1.47,1.01-1.77,1.03-1.74
		c0.01,0.02,0.47,0.83,1.02,1.8c0.72,1.26,1.04,1.8,1.11,1.9c0.06,0.07,0.17,0.18,0.25,0.24c0.76,0.58,1.93,0.47,2.51-0.24
		c0.08-0.1,0.38-0.6,1.13-1.92c0.56-0.99,1.03-1.79,1.03-1.78c0.01,0.01,0.45,0.78,0.98,1.72c0.53,0.94,1,1.76,1.04,1.82
		c0.14,0.23,0.46,0.51,0.74,0.62c0.38,0.16,0.86,0.2,1.27,0.09c0.17-0.04,0.43-0.16,0.56-0.26c0.13-0.09,0.32-0.27,0.4-0.4
		c0.03-0.05,0.51-0.88,1.06-1.84c0.55-0.96,1-1.75,1.01-1.76c0.01-0.01,0.46,0.78,1.01,1.75c0.55,0.97,1.03,1.8,1.06,1.85
		c0.08,0.12,0.3,0.33,0.44,0.42c0.7,0.45,1.68,0.38,2.27-0.17c0.06-0.06,0.15-0.16,0.19-0.22c0.04-0.06,0.53-0.9,1.08-1.87
		c0.55-0.97,1-1.76,1.01-1.77c0.01-0.01,0.46,0.78,1.01,1.74c0.55,0.96,1.03,1.8,1.07,1.87c0.13,0.19,0.4,0.41,0.64,0.53
		c0.27,0.13,0.53,0.19,0.85,0.19c0.35,0,0.62-0.08,0.89-0.25c0.6-0.39,0.91-1.05,0.82-1.71c-0.04-0.3-0.09-0.4-0.94-1.89
		c-0.43-0.76-1.25-2.19-1.8-3.16c-0.56-0.98-1.05-1.84-1.11-1.91c-0.28-0.41-0.79-0.66-1.35-0.69c-0.27-0.01-0.45,0.01-0.69,0.09
		c-0.38,0.12-0.68,0.34-0.89,0.66c-0.04,0.06-0.51,0.88-1.05,1.84s-0.99,1.73-1,1.74c-0.01,0-0.45-0.77-0.98-1.71
		s-1.01-1.76-1.04-1.83c-0.22-0.36-0.58-0.61-1.03-0.73c-0.15-0.04-0.2-0.04-0.47-0.05c-0.33,0-0.48,0.03-0.74,0.13
		c-0.26,0.1-0.57,0.34-0.72,0.56c-0.03,0.04-0.5,0.87-1.06,1.84c-0.56,0.98-1.02,1.77-1.02,1.77s-0.45-0.77-0.99-1.72
		c-0.54-0.94-1.01-1.77-1.05-1.83c-0.15-0.24-0.43-0.48-0.72-0.61c-0.39-0.17-0.92-0.21-1.34-0.08c-0.32,0.1-0.62,0.29-0.82,0.53
		c-0.08,0.1-0.36,0.56-1.13,1.93c-0.56,0.99-1.02,1.79-1.03,1.79c0,0-0.44-0.77-0.98-1.7c-1.07-1.89-1.1-1.93-1.21-2.06
		c-0.24-0.27-0.66-0.49-1.07-0.54c-0.2-0.03-0.54-0.01-0.73,0.04c-0.4,0.1-0.74,0.31-0.96,0.6c-0.05,0.06-0.53,0.9-1.08,1.87
		c-0.55,0.97-1.01,1.77-1.02,1.78c-0.02,0.02-0.24-0.37-1.01-1.72c-0.55-0.96-1.03-1.8-1.08-1.87c-0.21-0.31-0.56-0.55-0.98-0.66
		c-0.16-0.04-0.21-0.05-0.47-0.05c-0.33,0-0.48,0.03-0.73,0.13c-0.27,0.11-0.56,0.33-0.71,0.55c-0.04,0.06-0.53,0.9-1.08,1.87
		c-0.55,0.97-1.01,1.76-1.01,1.76c-0.01,0-0.47-0.8-1.02-1.77s-1.04-1.81-1.07-1.86c-0.15-0.21-0.44-0.43-0.72-0.54
		c-0.24-0.1-0.4-0.12-0.73-0.12c-0.26,0-0.32,0.01-0.46,0.04c-0.41,0.1-0.74,0.32-0.96,0.62c-0.04,0.06-0.53,0.9-1.08,1.87
		c-0.55,0.97-1.01,1.76-1.02,1.76c-0.01-0.01-0.23-0.4-1.54-2.69c-0.27-0.47-0.53-0.91-0.57-0.97c-0.23-0.31-0.63-0.54-1.07-0.63
		C12.41,56.32,12.05,56.31,11.91,56.33z"/>
</mask>
<path class="st2" d="M11.91,56.33c-0.36,0.05-0.7,0.24-0.97,0.52c-0.53,0.54-0.64,1.32-0.3,1.98c0.07,0.14,3.54,6.23,3.62,6.36
	c0.14,0.22,0.47,0.5,0.73,0.61c0.38,0.16,0.84,0.2,1.26,0.09c0.18-0.04,0.46-0.17,0.6-0.27c0.12-0.09,0.29-0.26,0.37-0.37
	c0.03-0.04,0.5-0.87,1.06-1.84c0.55-0.97,1.01-1.77,1.02-1.77s0.45,0.77,0.99,1.71c0.54,0.94,1.01,1.76,1.04,1.83
	c0.08,0.14,0.27,0.33,0.42,0.44c0.06,0.04,0.19,0.12,0.28,0.16c0.6,0.28,1.33,0.22,1.87-0.15c0.12-0.08,0.31-0.27,0.39-0.38
	c0.03-0.04,0.51-0.87,1.06-1.84c0.55-0.97,1.01-1.77,1.01-1.77c0.01-0.01,0.22,0.36,0.48,0.82c1.29,2.26,1.56,2.74,1.64,2.84
	c0.2,0.27,0.57,0.51,0.93,0.6c0.74,0.19,1.52-0.06,1.93-0.62c0.04-0.06,0.53-0.91,1.09-1.88c0.84-1.47,1.01-1.77,1.03-1.74
	c0.01,0.02,0.47,0.83,1.02,1.8c0.72,1.26,1.04,1.8,1.11,1.9c0.06,0.07,0.17,0.18,0.25,0.24c0.76,0.58,1.93,0.47,2.51-0.24
	c0.08-0.1,0.38-0.6,1.13-1.92c0.56-0.99,1.03-1.79,1.03-1.78c0.01,0.01,0.45,0.78,0.98,1.72c0.53,0.94,1,1.76,1.04,1.82
	c0.14,0.23,0.46,0.51,0.74,0.62c0.38,0.16,0.86,0.2,1.27,0.09c0.17-0.04,0.43-0.16,0.56-0.26c0.13-0.09,0.32-0.27,0.4-0.4
	c0.03-0.05,0.51-0.88,1.06-1.84c0.55-0.96,1-1.75,1.01-1.76c0.01-0.01,0.46,0.78,1.01,1.75c0.55,0.97,1.03,1.8,1.06,1.85
	c0.08,0.12,0.3,0.33,0.44,0.42c0.7,0.45,1.68,0.38,2.27-0.17c0.06-0.06,0.15-0.16,0.19-0.22c0.04-0.06,0.53-0.9,1.08-1.87
	c0.55-0.97,1-1.76,1.01-1.77c0.01-0.01,0.46,0.78,1.01,1.74c0.55,0.96,1.03,1.8,1.07,1.87c0.13,0.19,0.4,0.41,0.64,0.53
	c0.27,0.13,0.53,0.19,0.85,0.19c0.35,0,0.62-0.08,0.89-0.25c0.6-0.39,0.91-1.05,0.82-1.71c-0.04-0.3-0.09-0.4-0.94-1.89
	c-0.43-0.76-1.25-2.19-1.8-3.16c-0.56-0.98-1.05-1.84-1.11-1.91c-0.28-0.41-0.79-0.66-1.35-0.69c-0.27-0.01-0.45,0.01-0.69,0.09
	c-0.38,0.12-0.68,0.34-0.89,0.66c-0.04,0.06-0.51,0.88-1.05,1.84s-0.99,1.73-1,1.74c-0.01,0-0.45-0.77-0.98-1.71
	s-1.01-1.76-1.04-1.83c-0.22-0.36-0.58-0.61-1.03-0.73c-0.15-0.04-0.2-0.04-0.47-0.05c-0.33,0-0.48,0.03-0.74,0.13
	c-0.26,0.1-0.57,0.34-0.72,0.56c-0.03,0.04-0.5,0.87-1.06,1.84c-0.56,0.98-1.02,1.77-1.02,1.77s-0.45-0.77-0.99-1.72
	c-0.54-0.94-1.01-1.77-1.05-1.83c-0.15-0.24-0.43-0.48-0.72-0.61c-0.39-0.17-0.92-0.21-1.34-0.08c-0.32,0.1-0.62,0.29-0.82,0.53
	c-0.08,0.1-0.36,0.56-1.13,1.93c-0.56,0.99-1.02,1.79-1.03,1.79c0,0-0.44-0.77-0.98-1.7c-1.07-1.89-1.1-1.93-1.21-2.06
	c-0.24-0.27-0.66-0.49-1.07-0.54c-0.2-0.03-0.54-0.01-0.73,0.04c-0.4,0.1-0.74,0.31-0.96,0.6c-0.05,0.06-0.53,0.9-1.08,1.87
	c-0.55,0.97-1.01,1.77-1.02,1.78c-0.02,0.02-0.24-0.37-1.01-1.72c-0.55-0.96-1.03-1.8-1.08-1.87c-0.21-0.31-0.56-0.55-0.98-0.66
	c-0.16-0.04-0.21-0.05-0.47-0.05c-0.33,0-0.48,0.03-0.73,0.13c-0.27,0.11-0.56,0.33-0.71,0.55c-0.04,0.06-0.53,0.9-1.08,1.87
	c-0.55,0.97-1.01,1.76-1.01,1.76c-0.01,0-0.47-0.8-1.02-1.77s-1.04-1.81-1.07-1.86c-0.15-0.21-0.44-0.43-0.72-0.54
	c-0.24-0.1-0.4-0.12-0.73-0.12c-0.26,0-0.32,0.01-0.46,0.04c-0.41,0.1-0.74,0.32-0.96,0.62c-0.04,0.06-0.53,0.9-1.08,1.87
	c-0.55,0.97-1.01,1.76-1.02,1.76c-0.01-0.01-0.23-0.4-1.54-2.69c-0.27-0.47-0.53-0.91-0.57-0.97c-0.23-0.31-0.63-0.54-1.07-0.63
	C12.41,56.32,12.05,56.31,11.91,56.33z"/>
<defs>
	
		<filter id="Adobe_OpacityMaskFilter_00000160156539299431705510000005936940815651661712_" filterUnits="userSpaceOnUse" x="321.01" y="46.42" width="50.8" height="11.8">
		<feColorMatrix  type="matrix" values="1 0 0 0 0  0 1 0 0 0  0 0 1 0 0  0 0 0 1 0"/>
	</filter>
</defs>
<mask maskUnits="userSpaceOnUse" x="321.01" y="46.42" width="50.8" height="11.8" id="path-3-inside-2_1440_34_00000029738916628624467450000015045523890206793385_">
	
		<path style="fill-rule:evenodd;clip-rule:evenodd;fill:#FFFFFF;filter:url(#Adobe_OpacityMaskFilter_00000160156539299431705510000005936940815651661712_);" d="
		M369.45,47.33c0.35,0.06,0.69,0.25,0.96,0.54c0.52,0.56,0.64,1.37,0.3,2.05c-0.07,0.14-3.51,6.47-3.58,6.6
		c-0.14,0.23-0.46,0.51-0.72,0.63c-0.38,0.17-0.83,0.2-1.24,0.1c-0.18-0.05-0.45-0.18-0.59-0.28c-0.12-0.09-0.29-0.27-0.36-0.38
		c-0.03-0.04-0.5-0.9-1.05-1.91c-0.55-1.01-1-1.84-1.01-1.84c-0.01,0-0.45,0.8-0.98,1.78c-0.53,0.98-1,1.83-1.03,1.9
		c-0.08,0.14-0.27,0.35-0.41,0.46c-0.06,0.04-0.18,0.12-0.28,0.17c-0.59,0.29-1.32,0.23-1.85-0.15c-0.12-0.09-0.3-0.28-0.39-0.4
		c-0.03-0.05-0.5-0.91-1.05-1.91c-0.55-1.01-1-1.83-1-1.84c-0.01-0.01-0.22,0.37-0.48,0.85c-1.27,2.35-1.55,2.85-1.62,2.95
		c-0.2,0.28-0.56,0.53-0.92,0.62c-0.73,0.2-1.51-0.07-1.91-0.65c-0.04-0.06-0.53-0.94-1.08-1.95c-0.83-1.53-1-1.83-1.02-1.81
		c-0.01,0.02-0.47,0.86-1.02,1.87c-0.71,1.31-1.03,1.87-1.1,1.97c-0.06,0.07-0.17,0.19-0.25,0.25c-0.75,0.6-1.91,0.49-2.49-0.25
		c-0.08-0.1-0.37-0.63-1.12-2c-0.56-1.02-1.02-1.85-1.02-1.85c-0.01,0.01-0.44,0.81-0.97,1.78c-0.53,0.98-0.99,1.83-1.03,1.89
		c-0.14,0.24-0.46,0.53-0.73,0.65c-0.38,0.17-0.86,0.21-1.25,0.09c-0.17-0.05-0.42-0.17-0.56-0.27c-0.13-0.09-0.31-0.28-0.39-0.41
		c-0.03-0.05-0.51-0.91-1.05-1.91c-0.54-1-0.99-1.82-1-1.83c-0.01-0.01-0.46,0.81-1,1.82c-0.55,1.01-1.02,1.87-1.05,1.92
		c-0.08,0.13-0.29,0.34-0.43,0.44c-0.69,0.47-1.67,0.39-2.25-0.18c-0.06-0.06-0.15-0.16-0.19-0.22c-0.04-0.06-0.52-0.93-1.07-1.94
		c-0.54-1-0.99-1.83-1-1.84c-0.01-0.01-0.46,0.81-1,1.81c-0.54,1-1.02,1.87-1.06,1.94c-0.13,0.2-0.39,0.43-0.64,0.55
		c-0.27,0.14-0.53,0.2-0.85,0.2c-0.35,0-0.62-0.08-0.89-0.26c-0.59-0.4-0.9-1.09-0.81-1.78c0.04-0.31,0.09-0.42,0.93-1.96
		c0.43-0.79,1.23-2.27,1.78-3.28c0.55-1.01,1.04-1.91,1.1-1.99c0.28-0.42,0.78-0.69,1.34-0.72c0.27-0.01,0.45,0.01,0.69,0.09
		c0.38,0.13,0.67,0.35,0.88,0.68c0.04,0.06,0.51,0.92,1.04,1.91c0.54,0.99,0.98,1.8,0.99,1.8c0.01,0,0.44-0.8,0.97-1.78
		c0.53-0.98,1-1.83,1.04-1.9c0.22-0.37,0.58-0.64,1.02-0.76c0.15-0.04,0.2-0.05,0.46-0.05c0.33,0,0.48,0.03,0.73,0.13
		c0.26,0.11,0.56,0.36,0.72,0.58c0.03,0.04,0.5,0.9,1.05,1.91c0.55,1.01,1.01,1.84,1.01,1.84c0.01,0,0.45-0.8,0.98-1.78
		s1-1.84,1.04-1.9c0.14-0.25,0.43-0.5,0.71-0.63c0.39-0.18,0.91-0.21,1.32-0.08c0.32,0.1,0.62,0.3,0.81,0.55
		c0.08,0.11,0.35,0.59,1.12,2c0.56,1.02,1.01,1.86,1.02,1.86c0,0,0.44-0.8,0.97-1.77c1.06-1.96,1.09-2,1.2-2.14
		c0.24-0.28,0.65-0.5,1.06-0.56c0.2-0.03,0.54-0.01,0.73,0.04c0.4,0.1,0.73,0.32,0.95,0.62c0.05,0.06,0.53,0.94,1.07,1.94
		c0.54,1,1,1.83,1.01,1.85c0.02,0.02,0.24-0.38,1-1.79c0.54-1,1.02-1.87,1.07-1.94c0.21-0.32,0.56-0.57,0.97-0.68
		c0.15-0.04,0.2-0.05,0.47-0.05c0.33,0,0.48,0.03,0.73,0.13c0.27,0.11,0.55,0.34,0.71,0.57c0.04,0.06,0.52,0.93,1.07,1.94
		c0.54,1,1,1.82,1,1.82c0.01,0,0.46-0.83,1.01-1.84c0.55-1.01,1.03-1.88,1.06-1.93c0.15-0.22,0.44-0.45,0.71-0.57
		c0.24-0.1,0.4-0.13,0.72-0.13c0.26,0,0.31,0.01,0.46,0.05c0.4,0.11,0.74,0.34,0.95,0.65c0.04,0.06,0.52,0.93,1.07,1.95
		c0.55,1.01,1,1.83,1.01,1.83c0.01-0.01,0.23-0.42,1.52-2.79c0.27-0.49,0.52-0.94,0.57-1.01c0.23-0.32,0.62-0.56,1.06-0.65
		C368.96,47.32,369.31,47.31,369.45,47.33z"/>
</mask>
<path class="st4" d="M369.45,47.33c0.35,0.06,0.69,0.25,0.96,0.54c0.52,0.56,0.64,1.37,0.3,2.05c-0.07,0.14-3.51,6.47-3.58,6.6
	c-0.14,0.23-0.46,0.51-0.72,0.63c-0.38,0.17-0.83,0.2-1.24,0.1c-0.18-0.05-0.45-0.18-0.59-0.28c-0.12-0.09-0.29-0.27-0.36-0.38
	c-0.03-0.04-0.5-0.9-1.05-1.91c-0.55-1.01-1-1.84-1.01-1.84c-0.01,0-0.45,0.8-0.98,1.78c-0.53,0.98-1,1.83-1.03,1.9
	c-0.08,0.14-0.27,0.35-0.41,0.46c-0.06,0.04-0.18,0.12-0.28,0.17c-0.59,0.29-1.32,0.23-1.85-0.15c-0.12-0.09-0.3-0.28-0.39-0.4
	c-0.03-0.05-0.5-0.91-1.05-1.91c-0.55-1.01-1-1.83-1-1.84c-0.01-0.01-0.22,0.37-0.48,0.85c-1.27,2.35-1.55,2.85-1.62,2.95
	c-0.2,0.28-0.56,0.53-0.92,0.62c-0.73,0.2-1.51-0.07-1.91-0.65c-0.04-0.06-0.53-0.94-1.08-1.95c-0.83-1.53-1-1.83-1.02-1.81
	c-0.01,0.02-0.47,0.86-1.02,1.87c-0.71,1.31-1.03,1.87-1.1,1.97c-0.06,0.07-0.17,0.19-0.25,0.25c-0.75,0.6-1.91,0.49-2.49-0.25
	c-0.08-0.1-0.37-0.63-1.12-2c-0.56-1.02-1.02-1.85-1.02-1.85c-0.01,0.01-0.44,0.81-0.97,1.78c-0.53,0.98-0.99,1.83-1.03,1.89
	c-0.14,0.24-0.46,0.53-0.73,0.65c-0.38,0.17-0.86,0.21-1.25,0.09c-0.17-0.05-0.42-0.17-0.56-0.27c-0.13-0.09-0.31-0.28-0.39-0.41
	c-0.03-0.05-0.51-0.91-1.05-1.91c-0.54-1-0.99-1.82-1-1.83c-0.01-0.01-0.46,0.81-1,1.82c-0.55,1.01-1.02,1.87-1.05,1.92
	c-0.08,0.13-0.29,0.34-0.43,0.44c-0.69,0.47-1.67,0.39-2.25-0.18c-0.06-0.06-0.15-0.16-0.19-0.22c-0.04-0.06-0.52-0.93-1.07-1.94
	c-0.54-1-0.99-1.83-1-1.84c-0.01-0.01-0.46,0.81-1,1.81c-0.54,1-1.02,1.87-1.06,1.94c-0.13,0.2-0.39,0.43-0.64,0.55
	c-0.27,0.14-0.53,0.2-0.85,0.2c-0.35,0-0.62-0.08-0.89-0.26c-0.59-0.4-0.9-1.09-0.81-1.78c0.04-0.31,0.09-0.42,0.93-1.96
	c0.43-0.79,1.23-2.27,1.78-3.28c0.55-1.01,1.04-1.91,1.1-1.99c0.28-0.42,0.78-0.69,1.34-0.72c0.27-0.01,0.45,0.01,0.69,0.09
	c0.38,0.13,0.67,0.35,0.88,0.68c0.04,0.06,0.51,0.92,1.04,1.91c0.54,0.99,0.98,1.8,0.99,1.8c0.01,0,0.44-0.8,0.97-1.78
	c0.53-0.98,1-1.83,1.04-1.9c0.22-0.37,0.58-0.64,1.02-0.76c0.15-0.04,0.2-0.05,0.46-0.05c0.33,0,0.48,0.03,0.73,0.13
	c0.26,0.11,0.56,0.36,0.72,0.58c0.03,0.04,0.5,0.9,1.05,1.91c0.55,1.01,1.01,1.84,1.01,1.84c0.01,0,0.45-0.8,0.98-1.78
	s1-1.84,1.04-1.9c0.14-0.25,0.43-0.5,0.71-0.63c0.39-0.18,0.91-0.21,1.32-0.08c0.32,0.1,0.62,0.3,0.81,0.55
	c0.08,0.11,0.35,0.59,1.12,2c0.56,1.02,1.01,1.86,1.02,1.86c0,0,0.44-0.8,0.97-1.77c1.06-1.96,1.09-2,1.2-2.14
	c0.24-0.28,0.65-0.5,1.06-0.56c0.2-0.03,0.54-0.01,0.73,0.04c0.4,0.1,0.73,0.32,0.95,0.62c0.05,0.06,0.53,0.94,1.07,1.94
	c0.54,1,1,1.83,1.01,1.85c0.02,0.02,0.24-0.38,1-1.79c0.54-1,1.02-1.87,1.07-1.94c0.21-0.32,0.56-0.57,0.97-0.68
	c0.15-0.04,0.2-0.05,0.47-0.05c0.33,0,0.48,0.03,0.73,0.13c0.27,0.11,0.55,0.34,0.71,0.57c0.04,0.06,0.52,0.93,1.07,1.94
	c0.54,1,1,1.82,1,1.82c0.01,0,0.46-0.83,1.01-1.84c0.55-1.01,1.03-1.88,1.06-1.93c0.15-0.22,0.44-0.45,0.71-0.57
	c0.24-0.1,0.4-0.13,0.72-0.13c0.26,0,0.31,0.01,0.46,0.05c0.4,0.11,0.74,0.34,0.95,0.65c0.04,0.06,0.52,0.93,1.07,1.95
	c0.55,1.01,1,1.83,1.01,1.83c0.01-0.01,0.23-0.42,1.52-2.79c0.27-0.49,0.52-0.94,0.57-1.01c0.23-0.32,0.62-0.56,1.06-0.65
	C368.96,47.32,369.31,47.31,369.45,47.33z"/>
<path class="st5" d="M189.94,46.57L189.94,46.57c0.69,0,1.25,0.56,1.25,1.25v12c0,0.69-0.56,1.25-1.25,1.25l0,0
	c-0.69,0-1.25-0.56-1.25-1.25v-12C188.69,47.13,189.25,46.57,189.94,46.57z"/>
<path class="st5" d="M189.9,74.92c0.08,0.22,0.39,0.22,0.47,0l1-2.67c0.08-0.2,0.24-0.36,0.44-0.44l2.67-1
	c0.22-0.08,0.22-0.39,0-0.47l-2.67-1c-0.2-0.08-0.37-0.24-0.44-0.44l-1-2.67c-0.08-0.22-0.39-0.22-0.47,0l-1,2.67
	c-0.08,0.2-0.24,0.36-0.44,0.44l-2.68,1c-0.22,0.08-0.22,0.39,0,0.47l2.68,1c0.2,0.08,0.37,0.24,0.44,0.44L189.9,74.92z"/>
</svg>
