<?xml version="1.0" encoding="utf-8"?>
<!-- Generator: Adobe Illustrator 26.3.1, SVG Export Plug-In . SVG Version: 6.00 Build 0)  -->
<svg version="1.1" id="Layer_1" xmlns="http://www.w3.org/2000/svg" xmlns:xlink="http://www.w3.org/1999/xlink" x="0px" y="0px"
	 viewBox="0 0 386 279" style="enable-background:new 0 0 386 279;" xml:space="preserve">
<style type="text/css">
	.st0{fill:#8787C1;}
	.st1{fill:none;stroke:#8787C1;stroke-width:1.5;}
</style>
<path class="st0" d="M119.81,19.03c-1.91-0.89-4.06-1.42-6.16-0.94c-1.61,0.37-3,1.36-3.92,2.73c-0.85,1.26-1.26,2.84-1.17,4.36
	c0.1,1.61,0.75,3.16,1.89,4.31c1.39,1.4,3.32,2.03,5.25,2.17c0.08,0.01,0.17,0.01,0.25,0.01c0.29,0.01,0.51-0.27,0.43-0.55l0,0
	c-0.08-0.29-0.41-0.42-0.66-0.25c-1.44,1.03-2.64,2.41-3.12,4.15c-0.44,1.58-0.21,3.26,0.51,4.72c1.41,2.88,4.77,4.72,7.94,3.83
	c2.09-0.59,3.69-2.19,4.84-3.98c0.17-0.26,0.03-0.61-0.27-0.69l0,0c-0.29-0.08-0.58,0.12-0.58,0.42c-0.02,1.26,0.24,2.54,0.92,3.62
	c0.68,1.09,1.7,1.88,2.9,2.34c2.24,0.86,5.01,0.36,6.71-1.38c0.97-1,1.49-2.3,1.63-3.67c0.03-0.32-0.23-0.59-0.56-0.59l0,0
	c-0.34,0-0.61,0.3-0.56,0.63c0.21,1.28,0.69,2.49,1.57,3.46c0.82,0.9,1.96,1.51,3.15,1.72c2.48,0.44,5.12-0.61,6.49-2.76
	c0.78-1.22,1.02-2.65,0.91-4.06c-0.02-0.32-0.36-0.51-0.66-0.39l0,0c-0.28,0.12-0.39,0.46-0.21,0.71c1.78,2.5,4.76,4.64,7.95,3.96
	c0.9-0.19,1.73-0.62,2.45-1.18c0.61-0.46,1.17-0.96,1.61-1.6c0.77-1.15,1.11-2.63,1.02-4c-0.1-1.44-0.65-2.82-1.72-3.77
	c-0.2-0.17-0.49-0.04-0.53,0.22l0,0c-0.03,0.26,0.21,0.46,0.46,0.36c1.32-0.54,2.48-1.4,3.27-2.61c0.76-1.16,1.12-2.58,1.06-3.96
	c-0.13-2.83-1.96-5.5-4.79-6.2c-1.8-0.44-3.65-0.06-5.33,0.67c-0.24,0.11-0.28,0.44-0.07,0.6l0,0c0.21,0.16,0.51,0.05,0.56-0.21
	c0.3-1.6,0.34-3.28-0.17-4.84c-0.45-1.39-1.29-2.6-2.49-3.44c-2.28-1.61-5.45-1.42-7.7,0.15c-1.4,0.98-2.42,2.35-3.1,3.89
	c-0.14,0.31,0.07,0.66,0.41,0.71l0,0c0.3,0.04,0.57-0.18,0.58-0.48c0.01-2.1-0.92-4.25-2.89-5.2c-1.83-0.88-4.08-0.53-5.38,1.09
	c-0.79,0.98-1.14,2.2-1.23,3.44c-0.02,0.33,0.27,0.59,0.6,0.55l0,0c0.32-0.04,0.53-0.35,0.45-0.65c-0.41-1.55-1.16-3.03-2.37-4.09
	c-1.14-1-2.57-1.57-4.08-1.66c-2.77-0.18-5.78,1.32-6.96,3.9c-0.75,1.63-0.71,3.47-0.05,5.12c0.12,0.31,0.41,0.52,0.76,0.43
	c0.29-0.08,0.56-0.45,0.43-0.76c-0.15-0.37-0.27-0.76-0.36-1.15c-0.02-0.08-0.03-0.16-0.05-0.24c-0.01-0.05-0.01-0.1-0.02-0.14
	c-0.03-0.16,0.01,0.13,0-0.03c-0.02-0.17-0.04-0.34-0.04-0.51c-0.01-0.17,0-0.33,0.01-0.5c0.01-0.07,0.01-0.15,0.02-0.22
	c0-0.04,0.01-0.09,0.02-0.13c-0.02,0.18,0-0.02,0.01-0.05c0.05-0.31,0.13-0.61,0.24-0.91c0.02-0.07,0.05-0.13,0.08-0.2
	c0.05-0.14-0.06,0.13,0-0.01c0.02-0.04,0.03-0.08,0.05-0.11c0.07-0.14,0.14-0.29,0.22-0.42c0.07-0.13,0.15-0.25,0.23-0.37
	c0.05-0.07,0.1-0.13,0.15-0.2c-0.1,0.14,0.05-0.06,0.08-0.1c0.2-0.23,0.41-0.45,0.64-0.65c0.06-0.06,0.13-0.11,0.19-0.16
	c0.02-0.02,0.04-0.03,0.07-0.05c0.11-0.09-0.11,0.08,0.01-0.01c0.14-0.1,0.27-0.2,0.41-0.29c0.26-0.17,0.54-0.32,0.82-0.44
	c0.04-0.02,0.08-0.03,0.12-0.05c0.13-0.06-0.1,0.04-0.01,0c0.07-0.03,0.14-0.06,0.22-0.09c0.16-0.06,0.32-0.11,0.48-0.16
	c0.3-0.09,0.61-0.16,0.92-0.21c0.04-0.01,0.08-0.01,0.13-0.02c-0.16,0.02-0.07,0.01-0.04,0.01c0.08-0.01,0.17-0.02,0.25-0.03
	c0.16-0.01,0.31-0.02,0.47-0.02c0.16,0,0.32,0,0.47,0.01c0.08,0,0.16,0.01,0.24,0.02c0.05,0,0.34,0.05,0.16,0.02
	c0.31,0.05,0.62,0.11,0.93,0.21c0.15,0.05,0.3,0.1,0.45,0.16c0.04,0.02,0.08,0.03,0.12,0.05c-0.14-0.06-0.06-0.02-0.03-0.01
	c0.09,0.05,0.18,0.09,0.28,0.13c0.29,0.15,0.57,0.32,0.84,0.52c0.02,0.02,0.15,0.11,0.02,0.02c0.04,0.03,0.07,0.06,0.11,0.09
	c0.08,0.07,0.17,0.14,0.25,0.21c0.14,0.13,0.27,0.26,0.4,0.41c0.07,0.08,0.14,0.16,0.21,0.24c0.03,0.03,0.05,0.06,0.08,0.1
	c-0.1-0.12,0.04,0.05,0.05,0.08c0.12,0.17,0.24,0.34,0.34,0.51c0.12,0.2,0.23,0.41,0.33,0.62c0.12,0.26,0.13,0.28,0.23,0.53
	c0.19,0.5,0.33,1.02,0.44,1.55c0.14,0.69,1.21,0.52,1.21-0.16c0-0.33,0.02-0.65,0.06-0.98c0.01-0.13,0.01-0.05,0-0.02
	c0.01-0.04,0.01-0.08,0.02-0.12c0.01-0.07,0.02-0.14,0.04-0.2c0.03-0.14,0.06-0.28,0.1-0.42c0.03-0.13,0.08-0.26,0.12-0.39
	c0.02-0.06,0.04-0.11,0.06-0.17c0.01-0.03,0.03-0.06,0.04-0.1c-0.02,0.05-0.03,0.06,0,0.01c0.11-0.23,0.22-0.45,0.36-0.66
	c0.03-0.05,0.06-0.09,0.09-0.13c0,0,0,0,0,0c0-0.01,0.02-0.03,0.03-0.04l0,0c0.07-0.09,0.15-0.18,0.23-0.27
	c0.07-0.07,0.14-0.14,0.22-0.21c0.04-0.03,0.08-0.06,0.11-0.1c0.08-0.07-0.01,0.01-0.03,0.02c0.03-0.02,0.06-0.04,0.08-0.06
	c0.17-0.12,0.34-0.22,0.53-0.31c0.04-0.02,0.09-0.04,0.13-0.06c-0.16,0.08,0,0,0.04-0.01c0.1-0.03,0.19-0.06,0.29-0.09
	c0.1-0.03,0.2-0.05,0.29-0.07c0.04-0.01,0.09-0.02,0.14-0.02c0.07-0.01-0.07,0.01-0.07,0.01c0.03,0,0.07-0.01,0.1-0.01
	c0.2-0.02,0.4-0.02,0.6-0.01c0.05,0,0.11,0.01,0.16,0.01c0.14,0.01-0.1-0.02,0.01,0c0.11,0.02,0.21,0.04,0.32,0.06
	c0.2,0.05,0.39,0.11,0.59,0.18c0.1,0.04-0.11-0.06,0.02,0.01c0.04,0.02,0.09,0.04,0.13,0.06c0.1,0.05,0.2,0.1,0.29,0.16
	c0.08,0.05,0.17,0.1,0.25,0.16c0.05,0.03,0.09,0.07,0.14,0.1c-0.11-0.08,0,0,0.04,0.04c0.17,0.14,0.33,0.29,0.47,0.46
	c0.04,0.04,0.07,0.08,0.1,0.12c0.04,0.05,0.1,0.13,0.03,0.03c0.07,0.1,0.14,0.2,0.21,0.3c0.07,0.11,0.14,0.23,0.2,0.35
	c0.03,0.06,0.06,0.11,0.09,0.17c0.02,0.04,0.1,0.23,0.05,0.1c0.11,0.27,0.19,0.54,0.26,0.83c0.03,0.14,0.06,0.28,0.08,0.43
	c0.02,0.12,0,0.03,0,0c0,0.05,0.01,0.09,0.01,0.14c0.01,0.08,0.01,0.15,0.02,0.23c0.02,0.35,0.01,0.71-0.01,1.06
	c-0.03,0.3,0.25,0.57,0.54,0.6c0.32,0.04,0.57-0.15,0.68-0.44c0.25-0.67,0.65-1.44,1.12-2.1c0.05-0.08,0.11-0.15,0.17-0.23
	c-0.07,0.09,0.07-0.09,0.09-0.11c0.12-0.15,0.24-0.29,0.37-0.43c0.24-0.25,0.49-0.48,0.76-0.7c0.02-0.01,0.15-0.12,0.03-0.03
	c0.03-0.02,0.05-0.04,0.08-0.06c0.07-0.05,0.13-0.1,0.2-0.14c0.14-0.1,0.29-0.19,0.43-0.27c0.13-0.08,0.27-0.15,0.4-0.22
	c0.07-0.03,0.14-0.07,0.21-0.1c0.04-0.02,0.07-0.03,0.11-0.05c0.04-0.02,0.03-0.01-0.04,0.02c0.03-0.01,0.06-0.02,0.09-0.03
	c0.29-0.11,0.58-0.21,0.88-0.28c0.14-0.03,0.28-0.06,0.42-0.08c0.04-0.01,0.07-0.01,0.11-0.02c0.15-0.03-0.1,0.01-0.01,0
	c0.08-0.01,0.16-0.02,0.24-0.03c0.29-0.02,0.59-0.03,0.88-0.01c0.07,0,0.15,0.01,0.22,0.02c0.04,0,0.28,0.04,0.1,0.01
	c0.15,0.02,0.3,0.05,0.45,0.08c0.29,0.06,0.57,0.15,0.85,0.26c0.03,0.01,0.05,0.02,0.08,0.03c0.14,0.05-0.12-0.06,0.01,0.01
	c0.06,0.03,0.12,0.05,0.18,0.08c0.14,0.07,0.27,0.14,0.4,0.22c0.12,0.07,0.25,0.15,0.37,0.24c0.05,0.04,0.11,0.08,0.16,0.12
	c0.08,0.06-0.11-0.1,0,0c0.03,0.03,0.07,0.06,0.1,0.08c0.24,0.2,0.45,0.41,0.65,0.64c0.05,0.05,0.09,0.11,0.13,0.16
	c0.1,0.12-0.08-0.11,0.01,0.02c0.02,0.03,0.04,0.05,0.05,0.07c0.1,0.14,0.19,0.28,0.28,0.43c0.07,0.12,0.14,0.25,0.21,0.38
	c0.04,0.07,0.07,0.14,0.11,0.22c0.02,0.05,0.04,0.09,0.06,0.13c-0.04-0.1-0.01-0.02,0.01,0.04c0.14,0.36,0.26,0.73,0.34,1.11
	c0.02,0.1,0.04,0.19,0.06,0.29c0.01,0.05,0.02,0.11,0.03,0.16c0,0.03,0.03,0.19,0.01,0.06c0.03,0.21,0.05,0.42,0.06,0.63
	c0.02,0.48,0.01,0.95-0.03,1.43c-0.04,0.48-0.13,0.94-0.25,1.47c-0.12,0.54,0.42,0.93,0.9,0.7c0.76-0.37,1.6-0.68,2.49-0.84
	c0.09-0.02,0.19-0.03,0.28-0.05c-0.13,0.02,0.13-0.02,0.16-0.02c0.19-0.02,0.39-0.03,0.58-0.03c0.17,0,0.34,0,0.51,0.01
	c0.08,0,0.16,0.01,0.25,0.02c0.05,0,0.1,0.01,0.15,0.02c-0.16-0.02-0.01,0,0.03,0.01c0.34,0.06,0.67,0.14,0.99,0.25
	c0.07,0.03,0.14,0.05,0.21,0.08c0.03,0.01,0.11,0.05-0.02-0.01c0.04,0.02,0.08,0.04,0.12,0.05c0.15,0.07,0.29,0.14,0.43,0.22
	c0.12,0.07,0.25,0.15,0.37,0.23c0.06,0.04,0.12,0.08,0.17,0.13c0.12,0.09-0.1-0.09,0.01,0.01c0.03,0.03,0.07,0.05,0.1,0.08
	c0.23,0.19,0.44,0.4,0.64,0.63c0.05,0.06,0.1,0.12,0.15,0.18c0.02,0.03,0.08,0.11-0.01-0.01c0.02,0.03,0.04,0.06,0.06,0.09
	c0.1,0.13,0.19,0.27,0.27,0.41c0.16,0.25,0.29,0.52,0.41,0.8c-0.07-0.16,0.02,0.05,0.04,0.09c0.03,0.07,0.05,0.13,0.07,0.2
	c0.05,0.15,0.1,0.3,0.14,0.45c0.04,0.14,0.07,0.28,0.1,0.42c0.01,0.07,0.03,0.14,0.04,0.21c0.01,0.04,0.01,0.08,0.02,0.13
	c-0.03-0.17,0-0.03,0,0.01c0.03,0.31,0.05,0.62,0.04,0.93c0,0.15-0.01,0.3-0.03,0.45c0,0.05-0.04,0.28-0.01,0.09
	c-0.01,0.09-0.03,0.17-0.04,0.26c-0.05,0.3-0.13,0.6-0.23,0.88c-0.02,0.07-0.05,0.14-0.07,0.21c-0.01,0.04-0.11,0.25-0.04,0.1
	c-0.07,0.15-0.13,0.29-0.21,0.44c-0.08,0.16-0.18,0.31-0.27,0.46c-0.05,0.08-0.1,0.15-0.15,0.22c-0.02,0.02-0.11,0.14-0.01,0.02
	c-0.03,0.04-0.06,0.07-0.09,0.11c-0.24,0.29-0.5,0.56-0.79,0.8c-0.03,0.03-0.06,0.05-0.09,0.08c-0.12,0.1,0.05-0.03-0.05,0.04
	c-0.08,0.06-0.16,0.12-0.24,0.17c-0.17,0.11-0.34,0.22-0.52,0.32c-0.19,0.1-0.38,0.19-0.57,0.28c0.02-0.01,0.11-0.04-0.01,0
	c-0.06,0.02-0.12,0.05-0.18,0.07c-0.11,0.04-0.23,0.08-0.35,0.12c-0.52,0.17-0.59,0.82-0.15,1.13c0.19,0.13,0.4,0.31,0.6,0.54
	c0.05,0.05,0.1,0.11,0.14,0.16c-0.05-0.07,0.05,0.08,0.07,0.1c0.09,0.13,0.17,0.26,0.24,0.39c0.15,0.28,0.2,0.39,0.3,0.71
	c0.04,0.14,0.08,0.28,0.12,0.43c0.03,0.12,0.07,0.36,0.08,0.42c0.14,1.11-0.06,2.34-0.6,3.31c-0.07,0.13-0.14,0.25-0.22,0.37
	c-0.04,0.06-0.08,0.12-0.12,0.17c-0.04,0.06,0,0,0-0.01c-0.03,0.04-0.06,0.08-0.1,0.11c-0.09,0.11-0.18,0.21-0.29,0.3
	c-0.05,0.05-0.1,0.09-0.15,0.14c-0.02,0.02-0.04,0.04-0.07,0.06c-0.03,0.02-0.03,0.02-0.01,0.01c0.06-0.04,0.02-0.02-0.11,0.08
	c-0.61,0.51-1.23,0.97-2,1.21c-1.32,0.42-2.69,0.18-3.91-0.47c-1.42-0.75-2.6-1.94-3.46-3.28c-0.16-0.26-0.48-0.38-0.77-0.25
	c-0.3,0.13-0.4,0.41-0.36,0.73c0.03,0.19-0.01-0.07,0.01,0.05c0,0.04,0.01,0.08,0.01,0.12c0.01,0.09,0.02,0.17,0.02,0.26
	c0.01,0.18,0.02,0.36,0.02,0.54c0,0.16-0.01,0.31-0.02,0.46c-0.01,0.09-0.02,0.18-0.02,0.26c0,0.03-0.02,0.12,0-0.01
	c-0.01,0.05-0.01,0.1-0.02,0.15c-0.05,0.3-0.12,0.59-0.22,0.87c-0.02,0.07-0.05,0.14-0.07,0.21c-0.01,0.04-0.1,0.24-0.04,0.1
	c-0.06,0.14-0.13,0.27-0.19,0.4c-0.06,0.11-0.13,0.23-0.2,0.34c-0.04,0.06-0.09,0.13-0.13,0.19c-0.03,0.04-0.16,0.22-0.07,0.09
	c-0.17,0.21-0.35,0.41-0.54,0.59c-0.1,0.09-0.2,0.18-0.3,0.26c-0.13,0.11,0.05-0.03-0.07,0.05c-0.06,0.04-0.12,0.09-0.18,0.13
	c-0.22,0.15-0.46,0.29-0.7,0.41c-0.05,0.03-0.1,0.05-0.16,0.08c-0.03,0.02-0.07,0.03-0.1,0.05c-0.08,0.03,0.11-0.04,0.03-0.01
	c-0.13,0.05-0.26,0.1-0.39,0.14c-0.26,0.08-0.52,0.15-0.78,0.2c-0.07,0.01-0.13,0.02-0.19,0.03c-0.1,0.02,0.11-0.01-0.05,0.01
	c-0.14,0.02-0.29,0.03-0.43,0.03c-0.26,0.01-0.52,0-0.78-0.02c-0.03,0-0.23-0.03-0.13-0.02c0.1,0.01-0.1-0.02-0.13-0.02
	c-0.13-0.02-0.27-0.05-0.4-0.09c-0.12-0.03-0.24-0.06-0.35-0.1c-0.06-0.02-0.12-0.04-0.18-0.06c-0.03-0.01-0.07-0.03-0.1-0.04
	c-0.12-0.04,0.11,0.05-0.01,0c-0.24-0.11-0.47-0.23-0.69-0.37c-0.11-0.07-0.22-0.15-0.32-0.23c0.11,0.08-0.01-0.01-0.05-0.04
	c-0.06-0.05-0.12-0.11-0.19-0.16c-0.12-0.11-0.23-0.22-0.33-0.34c-0.05-0.06-0.1-0.12-0.15-0.18c-0.02-0.02-0.04-0.05-0.06-0.07
	c0.1,0.12,0-0.01-0.02-0.03c-0.19-0.27-0.36-0.56-0.51-0.86c-0.02-0.04-0.03-0.08-0.05-0.12c-0.05-0.11,0.02,0.05-0.01-0.02
	c-0.04-0.09-0.07-0.18-0.1-0.27c-0.06-0.17-0.11-0.35-0.16-0.52c-0.05-0.19-0.09-0.37-0.12-0.56c-0.05-0.27-0.05-0.28-0.08-0.56
	c-0.03-0.33-0.26-0.62-0.61-0.62c-0.34,0-0.61,0.28-0.62,0.62c0,0.17-0.01,0.34-0.03,0.51c0,0.04-0.01,0.07-0.01,0.11
	c0,0-0.02,0.17-0.01,0.08l0,0c0.01-0.09-0.02,0.12-0.04,0.21c0,0.01,0,0.01,0,0.02c-0.06,0.3-0.13,0.59-0.23,0.88
	c-0.03,0.08-0.06,0.15-0.09,0.23c-0.01,0.03-0.05,0.11,0.01-0.02c-0.01,0.03-0.03,0.06-0.04,0.09c-0.07,0.14-0.14,0.28-0.21,0.41
	c-0.07,0.12-0.14,0.23-0.22,0.35c-0.04,0.05-0.07,0.1-0.1,0.15c-0.06,0.09,0.01,0,0.02-0.02c-0.03,0.03-0.06,0.07-0.08,0.1
	c-0.18,0.21-0.37,0.41-0.58,0.59c-0.04,0.04-0.09,0.07-0.13,0.11c-0.11,0.09,0.08-0.06,0.01,0c-0.03,0.02-0.06,0.04-0.09,0.06
	c-0.1,0.08-0.21,0.15-0.32,0.21c-0.11,0.07-0.22,0.13-0.34,0.19c-0.06,0.03-0.13,0.06-0.19,0.1c-0.04,0.02-0.25,0.11-0.09,0.04
	c-0.25,0.1-0.49,0.18-0.75,0.25c-0.12,0.03-0.24,0.06-0.36,0.08c-0.07,0.01-0.14,0.03-0.21,0.04c-0.17,0.03,0.09,0-0.09,0.01
	c-0.26,0.03-0.53,0.04-0.79,0.04c-0.12,0-0.24-0.01-0.37-0.02c-0.07-0.01-0.14-0.02-0.21-0.02c-0.03,0-0.12-0.02,0.04,0.01
	c-0.04-0.01-0.08-0.01-0.13-0.02c-0.26-0.04-0.52-0.1-0.77-0.18c-0.12-0.03-0.23-0.07-0.35-0.12c-0.04-0.01-0.26-0.11-0.09-0.03
	c-0.06-0.03-0.13-0.06-0.19-0.09c-0.24-0.11-0.47-0.25-0.69-0.39c-0.05-0.04-0.11-0.07-0.16-0.11c-0.14-0.1,0.05,0.04-0.06-0.05
	c-0.11-0.09-0.21-0.18-0.31-0.27c-0.1-0.09-0.19-0.19-0.28-0.28c-0.04-0.04-0.08-0.09-0.12-0.13c-0.02-0.03-0.05-0.06-0.07-0.09
	c-0.03-0.04,0.07,0.09-0.01-0.02c-0.18-0.25-0.35-0.52-0.49-0.8c-0.02-0.03-0.04-0.07-0.05-0.11c-0.01-0.02-0.07-0.16-0.03-0.08
	c0.04,0.09-0.02-0.06-0.02-0.06c-0.02-0.05-0.03-0.09-0.05-0.14c-0.06-0.16-0.1-0.32-0.15-0.48c-0.05-0.17-0.08-0.35-0.11-0.53
	c-0.01-0.03-0.01-0.07-0.02-0.11c-0.01-0.05-0.01-0.03,0,0.03c0-0.03-0.01-0.05-0.01-0.08c-0.01-0.1-0.02-0.2-0.03-0.3
	c-0.03-0.41-0.02-0.82,0.02-1.24c0.05-0.63-0.86-0.81-1.15-0.31c-0.55,0.95-1.13,1.75-1.93,2.49c-0.38,0.36-0.59,0.52-1.01,0.78
	c-0.17,0.1-0.33,0.2-0.51,0.29c-0.08,0.04-0.15,0.08-0.23,0.11c-0.04,0.02-0.09,0.04-0.14,0.06c0.14-0.06-0.06,0.02-0.09,0.03
	c-0.35,0.13-0.71,0.24-1.07,0.3c-0.04,0.01-0.09,0.02-0.14,0.02c-0.16,0.03,0.14-0.01-0.02,0c-0.09,0.01-0.19,0.02-0.28,0.03
	c-0.18,0.01-0.37,0.02-0.55,0.01c-0.17-0.01-0.33-0.02-0.5-0.04c-0.15-0.02,0.14,0.03-0.01,0c-0.04-0.01-0.09-0.02-0.13-0.02
	c-0.09-0.02-0.18-0.03-0.26-0.05c-0.16-0.04-0.32-0.08-0.48-0.13c-0.09-0.03-0.17-0.06-0.25-0.09c-0.05-0.02-0.34-0.14-0.19-0.07
	c-0.31-0.14-0.62-0.3-0.91-0.48c-0.14-0.09-0.27-0.18-0.41-0.28c-0.02-0.02-0.14-0.11-0.02-0.01c-0.04-0.03-0.07-0.06-0.11-0.08
	c-0.07-0.06-0.14-0.11-0.21-0.17c-0.27-0.24-0.52-0.5-0.75-0.78c-0.03-0.03-0.17-0.22-0.07-0.09c-0.05-0.07-0.11-0.14-0.16-0.22
	c-0.1-0.15-0.2-0.3-0.29-0.45c-0.08-0.14-0.16-0.29-0.24-0.43c-0.04-0.08-0.08-0.16-0.12-0.24c-0.01-0.03-0.07-0.17-0.01-0.02
	c-0.02-0.05-0.04-0.1-0.06-0.15c-0.13-0.33-0.23-0.67-0.3-1.01c-0.02-0.09-0.04-0.18-0.05-0.27c0-0.03-0.01-0.06-0.01-0.09
	c-0.03-0.15,0.01,0.14,0-0.02c-0.01-0.18-0.03-0.36-0.04-0.54c0-0.18,0-0.36,0.01-0.55c0.01-0.08,0.01-0.15,0.02-0.23
	c0-0.03,0.03-0.19,0-0.02c0.01-0.06,0.02-0.12,0.03-0.18c0.07-0.41,0.19-0.81,0.35-1.19c-0.06,0.13,0.06-0.12,0.08-0.17
	c0.05-0.11,0.11-0.21,0.16-0.31c0.11-0.2,0.23-0.39,0.36-0.57c0.03-0.04,0.06-0.09,0.1-0.13c0.04-0.06,0.04-0.06,0,0
	c0.02-0.03,0.04-0.06,0.07-0.09c0.07-0.09,0.14-0.17,0.22-0.25c0.17-0.19,0.34-0.37,0.53-0.54c0.44-0.41,0.78-0.67,1.3-0.99
	c0.51-0.32,0.32-1.15-0.31-1.15c-0.27,0-0.54-0.01-0.81-0.03c-0.12-0.01-0.25-0.02-0.37-0.03c-0.07-0.01-0.13-0.02-0.2-0.02
	c-0.07-0.01,0.02,0,0.03,0c-0.04,0-0.07-0.01-0.11-0.02c-0.47-0.07-0.94-0.18-1.39-0.32c-0.1-0.03-0.2-0.07-0.3-0.1
	c-0.05-0.02-0.1-0.04-0.15-0.06c-0.05-0.02-0.16-0.07-0.05-0.02c-0.19-0.08-0.38-0.17-0.56-0.27c-0.18-0.1-0.36-0.21-0.53-0.32
	c-0.08-0.05-0.15-0.11-0.23-0.16c-0.06-0.04-0.09-0.07-0.01-0.01c-0.04-0.03-0.09-0.07-0.13-0.11c-0.28-0.24-0.54-0.5-0.78-0.78
	c-0.03-0.04-0.06-0.07-0.09-0.11c-0.02-0.03,0.07,0.1,0,0c-0.06-0.08-0.11-0.16-0.17-0.24c-0.1-0.15-0.19-0.3-0.27-0.45
	c-0.08-0.15-0.16-0.31-0.23-0.47c0.07,0.16-0.02-0.06-0.05-0.12c-0.03-0.08-0.06-0.17-0.09-0.25c-0.11-0.33-0.18-0.68-0.24-1.02
	c-0.02-0.11,0.01,0.13,0,0.01c0-0.05-0.01-0.09-0.01-0.13c-0.01-0.09-0.01-0.18-0.02-0.27c-0.01-0.17-0.01-0.34-0.01-0.51
	c0-0.17,0.01-0.34,0.03-0.51c0.01-0.06,0.04-0.31,0.01-0.12c0.01-0.09,0.03-0.17,0.04-0.26c0.06-0.34,0.15-0.68,0.27-1.01
	c0.03-0.08,0.06-0.16,0.09-0.23c0.01-0.03,0.03-0.07,0.04-0.11c-0.07,0.17,0,0.01,0.01-0.03c0.07-0.16,0.15-0.31,0.23-0.46
	c0.09-0.16,0.18-0.31,0.28-0.46c0.05-0.07,0.09-0.14,0.14-0.2c0.02-0.03,0.04-0.06,0.07-0.09c0.05-0.07-0.08,0.09,0.02-0.03
	c0.22-0.27,0.46-0.52,0.72-0.74c0.06-0.06,0.13-0.11,0.19-0.16c0.12-0.1-0.08,0.05,0.01-0.01c0.04-0.03,0.07-0.05,0.11-0.08
	c0.15-0.11,0.31-0.21,0.47-0.3c0.15-0.09,0.32-0.17,0.48-0.25c0.04-0.02,0.07-0.03,0.11-0.05c-0.16,0.07-0.02,0.01,0.02-0.01
	c0.09-0.03,0.18-0.07,0.27-0.1c0.18-0.06,0.36-0.11,0.55-0.16c0.09-0.02,0.18-0.04,0.27-0.06c0.05-0.01,0.1-0.02,0.15-0.03
	c0.04-0.01,0.23-0.03,0.06-0.01c0.42-0.05,0.84-0.07,1.26-0.05c0.11,0.01,0.21,0.01,0.32,0.02c0.06,0.01,0.12,0.01,0.17,0.02
	c0.03,0,0.05,0.01,0.08,0.01c0.09,0.01-0.11-0.02-0.01,0c0.24,0.03,0.47,0.08,0.7,0.13c0.52,0.12,1.03,0.27,1.52,0.47
	c0.06,0.02,0.12,0.05,0.17,0.07c0.02,0.01,0.19,0.08,0.11,0.05c0.14,0.06,0.28,0.12,0.42,0.19c0.3,0.14,0.67,0.08,0.84-0.22
	C120.18,19.61,120.11,19.17,119.81,19.03z"/>
<path class="st0" d="M127.68,31.21c-0.17-0.24-0.32-0.5-0.45-0.76c-0.03-0.06-0.05-0.11-0.08-0.17c-0.05-0.11-0.01-0.02,0,0
	c-0.01-0.03-0.03-0.06-0.04-0.09c-0.04-0.12-0.09-0.25-0.12-0.37c-0.03-0.11-0.06-0.23-0.08-0.34c-0.01-0.06-0.02-0.16-0.01-0.04
	c-0.01-0.06-0.01-0.13-0.02-0.2c-0.01-0.11-0.01-0.21-0.01-0.32c0-0.05,0-0.1,0.01-0.15c0.01-0.04,0.04-0.25,0-0.06
	c0.04-0.21,0.08-0.4,0.15-0.6c0.02-0.04,0.03-0.09,0.05-0.13c-0.05,0.13-0.01,0.03,0.02-0.03c0.05-0.09,0.1-0.19,0.15-0.27
	c0.05-0.08,0.1-0.15,0.15-0.23c0.09-0.14-0.05,0.05,0.02-0.03c0.04-0.04,0.07-0.08,0.1-0.12c0.14-0.16,0.3-0.29,0.46-0.43
	c0.08-0.07-0.11,0.07,0.02-0.01c0.04-0.03,0.07-0.05,0.11-0.08c0.09-0.06,0.18-0.12,0.27-0.17c0.09-0.05,0.18-0.1,0.27-0.14
	c0.04-0.02,0.08-0.04,0.13-0.06c0.16-0.07-0.07,0.02,0.06-0.02c0.2-0.07,0.39-0.14,0.6-0.19c0.1-0.02,0.2-0.04,0.3-0.06
	c0.08-0.02,0.13-0.02,0.02,0c0.06-0.01,0.12-0.01,0.18-0.02c0.21-0.02,0.42-0.02,0.63-0.01c0.05,0,0.1,0.01,0.14,0.01
	c0.03,0,0.05,0.01,0.08,0.01c0.08,0.01-0.12-0.02-0.04-0.01c0.11,0.02,0.21,0.04,0.32,0.06c0.1,0.02,0.2,0.05,0.29,0.08
	c0.05,0.02,0.09,0.03,0.14,0.05c0.03,0.01,0.05,0.02,0.08,0.03c0.08,0.03-0.14-0.07-0.01-0.01c0.19,0.09,0.37,0.18,0.55,0.3
	c0.03,0.02,0.18,0.13,0.11,0.08c-0.06-0.05,0.08,0.06,0.11,0.09c0.09,0.08,0.18,0.17,0.27,0.26c0.04,0.05,0.09,0.1,0.14,0.15
	c0.04,0.04,0.12,0.16,0.05,0.06c0.08,0.12,0.16,0.23,0.24,0.36c0.07,0.12,0.14,0.25,0.2,0.38c0.01,0.03,0.03,0.06,0.04,0.09
	c0.04,0.09-0.05-0.14,0.01,0.02c0.03,0.07,0.05,0.13,0.07,0.2c0.12,0.33,0.2,0.67,0.26,1.02c0.06,0.33,0.46,0.51,0.76,0.43
	c0.35-0.1,0.48-0.43,0.43-0.76c-0.1-0.63-0.14-1.47-0.06-2.21c0-0.05,0.01-0.09,0.01-0.14c0,0.02-0.02,0.12,0,0
	c0.01-0.08,0.03-0.16,0.04-0.24c0.03-0.16,0.06-0.32,0.1-0.47c0.04-0.14,0.08-0.28,0.13-0.42c0.02-0.07,0.05-0.13,0.08-0.2
	c0.01-0.03,0.06-0.13,0,0c0.02-0.04,0.04-0.08,0.06-0.13c0.11-0.24,0.24-0.47,0.39-0.69c0.04-0.06,0.08-0.11,0.12-0.17
	c-0.08,0.11-0.01,0.01,0.03-0.04c0.09-0.1,0.18-0.21,0.28-0.3c0.09-0.08,0.17-0.16,0.27-0.24c0.05-0.05,0.14-0.1,0.03-0.03
	c0.06-0.04,0.12-0.08,0.18-0.12c0.2-0.13,0.41-0.24,0.62-0.34c0.12-0.06-0.11,0.04-0.03,0.01c0.03-0.01,0.06-0.02,0.09-0.03
	c0.05-0.02,0.1-0.03,0.14-0.05c0.12-0.04,0.24-0.07,0.36-0.1c0.11-0.03,0.22-0.04,0.33-0.06c-0.13,0.02-0.06,0.01,0.02,0
	c0.07-0.01,0.14-0.01,0.21-0.02c0.23-0.01,0.46,0.01,0.69,0.03c-0.2-0.01-0.01,0,0.04,0.01c0.06,0.01,0.11,0.02,0.17,0.03
	c0.12,0.03,0.24,0.06,0.37,0.1c0.1,0.03,0.2,0.07,0.3,0.11c0.08,0.03-0.14-0.07-0.02-0.01c0.02,0.01,0.05,0.02,0.07,0.03
	c0.06,0.03,0.12,0.06,0.17,0.08c0.1,0.05,0.21,0.11,0.3,0.17c0.06,0.03,0.11,0.07,0.16,0.11c0.04,0.03,0.21,0.16,0.07,0.05
	c0.2,0.16,0.38,0.33,0.55,0.52c0.04,0.05,0.08,0.1,0.12,0.14c0.02,0.02,0.03,0.04,0.05,0.06c0.09,0.11-0.06-0.08,0-0.01
	c0.08,0.11,0.16,0.22,0.23,0.34c0.08,0.13,0.16,0.27,0.23,0.41c0.04,0.08,0.07,0.15,0.11,0.23c0.01,0.03,0.04,0.11-0.01-0.02
	c0.02,0.05,0.04,0.09,0.05,0.13c0.12,0.33,0.22,0.67,0.29,1.02c0.02,0.09,0.03,0.18,0.04,0.27c0.01,0.04,0.01,0.07,0.01,0.11
	c-0.02-0.14,0,0.03,0,0.06c0.02,0.21,0.04,0.42,0.04,0.63c0.01,0.44-0.01,0.89-0.06,1.33c-0.07,0.59,0.91,0.87,1.15,0.31
	c0.1-0.23,0.21-0.46,0.34-0.68c0.06-0.1,0.12-0.2,0.19-0.3c0.03-0.05,0.07-0.1,0.1-0.14c-0.07,0.08,0.03-0.03,0.04-0.05
	c0.14-0.17,0.29-0.32,0.46-0.46c0.04-0.03,0.08-0.07,0.12-0.1c-0.11,0.09,0.02-0.02,0.04-0.03c0.08-0.06,0.17-0.11,0.26-0.17
	c0.09-0.05,0.17-0.1,0.26-0.14c0.04-0.02,0.09-0.04,0.13-0.06c0.15-0.07-0.12,0.04,0.03-0.01c0.18-0.06,0.36-0.13,0.56-0.17
	c0.09-0.02,0.19-0.04,0.28-0.05c-0.17,0.02,0.12-0.01,0.17-0.01c0.19-0.01,0.38-0.01,0.57,0.01c0.05,0,0.1,0.01,0.14,0.01
	c0.16,0.01-0.13-0.03,0.02,0c0.09,0.02,0.19,0.03,0.28,0.05c0.19,0.04,0.37,0.1,0.54,0.16c0.05,0.02,0.09,0.03,0.13,0.05
	c-0.15-0.06,0,0,0.03,0.01c0.08,0.04,0.17,0.08,0.25,0.13c0.17,0.09,0.32,0.2,0.48,0.3c0.13,0.09-0.1-0.08,0.02,0.02
	c0.03,0.03,0.07,0.06,0.11,0.09c0.07,0.06,0.14,0.13,0.21,0.19c0.06,0.06,0.11,0.11,0.16,0.17c0.03,0.03,0.06,0.07,0.09,0.11
	c0.11,0.13-0.01-0.02,0.05,0.06c0.1,0.14,0.19,0.29,0.27,0.44c0.05,0.08,0.09,0.17,0.12,0.26c-0.06-0.14,0,0.01,0.01,0.03
	c0.02,0.06,0.04,0.12,0.06,0.18c0.03,0.11,0.06,0.22,0.08,0.33c0.01,0.03,0.01,0.06,0.02,0.1c0.01,0.03,0.01,0.06,0.01,0.1
	c-0.01-0.08-0.01-0.09,0-0.01c0.01,0.25,0.03,0.49,0,0.73c0,0.02-0.02,0.2,0,0.05c-0.01,0.06-0.02,0.11-0.03,0.17
	c-0.02,0.13-0.06,0.27-0.09,0.4c-0.09,0.31-0.16,0.49-0.28,0.73c-0.14,0.3-0.08,0.67,0.22,0.84c0.27,0.16,0.7,0.08,0.84-0.22
	c0.48-1,0.71-2.09,0.49-3.19c-0.17-0.89-0.68-1.73-1.36-2.32c-1.42-1.24-3.48-1.59-5.21-0.78c-0.89,0.42-1.59,1.16-2.07,2.01
	c-0.15,0.27,0.01,0.6,0.31,0.68l0,0c0.3,0.08,0.61-0.13,0.63-0.44c0.07-1.34-0.13-2.69-0.76-3.88c-0.57-1.07-1.49-1.91-2.61-2.37
	c-2.19-0.88-4.69,0.1-5.83,2.12c-0.76,1.34-0.9,2.9-0.74,4.41c0.04,0.36,0.39,0.59,0.74,0.5l0,0c0.3-0.08,0.49-0.38,0.42-0.68
	c-0.26-0.99-0.75-1.94-1.54-2.6c-0.81-0.67-1.83-1.02-2.88-1.01c-1.95,0.02-3.99,1.25-4.48,3.23c-0.33,1.31,0.11,2.65,0.86,3.74
	c0.19,0.27,0.54,0.4,0.84,0.22C127.73,31.9,127.87,31.49,127.68,31.21z"/>
<path class="st0" d="M334.06,10.7c-2.3-1.07-4.87-1.7-7.39-1.12c-1.93,0.44-3.6,1.64-4.7,3.27c-1.02,1.52-1.52,3.41-1.4,5.23
	c0.12,1.94,0.89,3.79,2.27,5.17c1.67,1.67,3.99,2.44,6.3,2.6c0.1,0.01,0.2,0.01,0.3,0.02c0.35,0.02,0.61-0.32,0.52-0.66l0,0
	c-0.09-0.35-0.5-0.5-0.79-0.29c-1.73,1.23-3.17,2.9-3.74,4.98c-0.52,1.9-0.25,3.91,0.61,5.67c1.7,3.46,5.72,5.67,9.53,4.59
	c2.51-0.71,4.43-2.63,5.81-4.78c0.2-0.32,0.03-0.73-0.33-0.83l0,0c-0.34-0.09-0.69,0.15-0.69,0.5c-0.03,1.51,0.29,3.05,1.1,4.35
	c0.82,1.3,2.04,2.25,3.48,2.8c2.69,1.04,6.01,0.43,8.05-1.66c1.17-1.2,1.79-2.76,1.96-4.4c0.04-0.39-0.28-0.71-0.67-0.71l0,0
	c-0.41,0-0.73,0.35-0.67,0.76c0.25,1.53,0.83,2.99,1.89,4.15c0.98,1.08,2.35,1.81,3.78,2.07c2.98,0.53,6.14-0.73,7.78-3.31
	c0.94-1.46,1.23-3.18,1.1-4.88c-0.03-0.39-0.43-0.61-0.79-0.46l0,0c-0.34,0.14-0.47,0.56-0.25,0.86c2.14,3,5.71,5.56,9.54,4.75
	c1.08-0.23,2.08-0.74,2.94-1.41c0.72-0.56,1.4-1.15,1.92-1.92c0.93-1.38,1.33-3.15,1.23-4.8c-0.11-1.73-0.78-3.39-2.07-4.52
	c-0.24-0.21-0.59-0.05-0.63,0.26l0,0c-0.04,0.31,0.26,0.56,0.55,0.44c1.58-0.64,2.97-1.69,3.92-3.14c0.91-1.39,1.34-3.1,1.27-4.76
	c-0.15-3.4-2.36-6.6-5.75-7.43c-2.16-0.53-4.38-0.07-6.39,0.81c-0.29,0.13-0.33,0.52-0.08,0.72l0,0c0.25,0.19,0.61,0.06,0.67-0.25
	c0.37-1.92,0.41-3.93-0.2-5.8c-0.54-1.67-1.55-3.12-2.99-4.13c-2.74-1.94-6.54-1.7-9.24,0.18c-1.69,1.17-2.9,2.82-3.72,4.67
	c-0.17,0.37,0.08,0.79,0.49,0.85l0,0c0.36,0.05,0.69-0.21,0.69-0.58c0.01-2.52-1.1-5.1-3.47-6.24c-2.19-1.06-4.89-0.63-6.45,1.31
	c-0.95,1.18-1.37,2.64-1.48,4.13c-0.03,0.4,0.33,0.71,0.72,0.66l0,0c0.38-0.05,0.64-0.41,0.54-0.79c-0.49-1.85-1.39-3.64-2.84-4.91
	c-1.37-1.2-3.08-1.88-4.89-2c-3.32-0.21-6.93,1.58-8.35,4.68c-0.9,1.96-0.85,4.16-0.05,6.15c0.15,0.37,0.49,0.63,0.91,0.52
	c0.35-0.1,0.67-0.54,0.52-0.91c-0.18-0.45-0.33-0.91-0.43-1.38c-0.02-0.1-0.04-0.19-0.06-0.29c-0.01-0.06-0.02-0.12-0.03-0.17
	c-0.04-0.19,0.02,0.16-0.01-0.03c-0.02-0.2-0.04-0.41-0.05-0.62c-0.01-0.2-0.01-0.4,0.01-0.6c0.01-0.09,0.01-0.18,0.02-0.27
	c0.01-0.05,0.01-0.11,0.02-0.16c-0.02,0.22,0-0.02,0.01-0.06c0.06-0.37,0.16-0.74,0.28-1.09c0.03-0.08,0.06-0.16,0.09-0.24
	c0.06-0.16-0.07,0.15,0-0.01c0.02-0.04,0.04-0.09,0.06-0.14c0.08-0.17,0.17-0.34,0.27-0.51c0.09-0.15,0.18-0.3,0.28-0.44
	c0.06-0.08,0.12-0.16,0.18-0.24c-0.12,0.16,0.06-0.07,0.1-0.12c0.24-0.28,0.49-0.54,0.77-0.78c0.08-0.07,0.15-0.13,0.23-0.19
	c0.02-0.02,0.05-0.04,0.08-0.06c0.13-0.11-0.13,0.09,0.01-0.01c0.17-0.12,0.33-0.24,0.5-0.34c0.31-0.2,0.64-0.38,0.98-0.53
	c0.05-0.02,0.09-0.04,0.14-0.06c0.15-0.07-0.11,0.05-0.01,0.01c0.08-0.04,0.17-0.07,0.26-0.1c0.19-0.07,0.39-0.14,0.58-0.19
	c0.36-0.11,0.73-0.19,1.1-0.25c0.05-0.01,0.1-0.02,0.15-0.02c-0.19,0.03-0.09,0.01-0.04,0.01c0.1-0.01,0.2-0.02,0.31-0.03
	c0.19-0.02,0.38-0.02,0.57-0.03c0.19,0,0.38,0,0.57,0.01c0.09,0.01,0.19,0.01,0.28,0.02c0.06,0.01,0.41,0.05,0.19,0.02
	c0.38,0.06,0.75,0.13,1.11,0.25c0.18,0.05,0.36,0.12,0.54,0.19c0.05,0.02,0.1,0.04,0.15,0.06c-0.16-0.07-0.07-0.03-0.03-0.01
	c0.11,0.05,0.22,0.1,0.33,0.16c0.35,0.18,0.68,0.39,1.01,0.62c0.03,0.02,0.17,0.14,0.03,0.02c0.04,0.03,0.09,0.07,0.13,0.1
	c0.1,0.08,0.2,0.17,0.29,0.26c0.17,0.16,0.33,0.32,0.48,0.49c0.09,0.09,0.17,0.19,0.25,0.29c0.03,0.04,0.06,0.08,0.09,0.12
	c-0.11-0.14,0.05,0.06,0.07,0.09c0.14,0.2,0.28,0.41,0.41,0.62c0.14,0.24,0.28,0.49,0.4,0.74c0.15,0.31,0.16,0.33,0.27,0.64
	c0.23,0.6,0.4,1.23,0.53,1.86c0.17,0.83,1.45,0.62,1.45-0.2c0-0.39,0.02-0.79,0.07-1.17c0.02-0.15,0.01-0.05,0-0.02
	c0.01-0.05,0.02-0.1,0.02-0.14c0.01-0.08,0.03-0.16,0.04-0.24c0.03-0.17,0.07-0.33,0.11-0.5c0.04-0.16,0.09-0.31,0.14-0.47
	c0.02-0.07,0.05-0.14,0.07-0.21c0.02-0.04,0.03-0.08,0.05-0.11c-0.02,0.06-0.04,0.08,0,0.01c0.13-0.27,0.27-0.54,0.43-0.79
	c0.04-0.05,0.07-0.11,0.11-0.16c0,0,0,0,0,0c0.01-0.01,0.03-0.04,0.03-0.05l0,0c0.09-0.11,0.18-0.22,0.28-0.32
	c0.08-0.09,0.17-0.17,0.26-0.25c0.04-0.04,0.09-0.08,0.13-0.12c0.1-0.09-0.01,0.01-0.03,0.02c0.03-0.03,0.07-0.05,0.1-0.08
	c0.2-0.14,0.41-0.27,0.64-0.38c0.05-0.02,0.1-0.05,0.16-0.07c-0.2,0.09,0,0,0.05-0.02c0.11-0.04,0.23-0.08,0.35-0.11
	c0.12-0.03,0.23-0.06,0.35-0.08c0.05-0.01,0.11-0.02,0.17-0.03c0.08-0.02-0.08,0.01-0.08,0.01c0.04,0,0.08-0.01,0.12-0.01
	c0.24-0.02,0.48-0.03,0.72-0.01c0.06,0.01,0.13,0.01,0.19,0.02c0.17,0.01-0.11-0.02,0.02,0c0.13,0.02,0.25,0.04,0.38,0.07
	c0.24,0.06,0.47,0.14,0.7,0.22c0.12,0.04-0.14-0.07,0.03,0.01c0.05,0.03,0.11,0.05,0.16,0.08c0.12,0.06,0.24,0.12,0.35,0.19
	c0.1,0.06,0.2,0.12,0.3,0.19c0.06,0.04,0.11,0.08,0.17,0.12c-0.13-0.1,0,0,0.05,0.04c0.2,0.17,0.39,0.35,0.57,0.55
	c0.04,0.05,0.08,0.1,0.12,0.14c0.04,0.05,0.12,0.16,0.04,0.04c0.09,0.12,0.17,0.24,0.25,0.36c0.08,0.13,0.17,0.27,0.24,0.42
	c0.04,0.07,0.07,0.14,0.1,0.21c0.02,0.04,0.12,0.28,0.05,0.12c0.13,0.32,0.23,0.65,0.31,1c0.04,0.17,0.07,0.34,0.1,0.51
	c0.02,0.15,0,0.03,0,0c0.01,0.06,0.01,0.11,0.02,0.17c0.01,0.09,0.02,0.18,0.02,0.27c0.03,0.42,0.02,0.85-0.02,1.27
	c-0.03,0.36,0.3,0.69,0.64,0.73c0.39,0.05,0.68-0.18,0.81-0.53c0.3-0.81,0.77-1.73,1.34-2.52c0.06-0.09,0.13-0.18,0.2-0.27
	c-0.09,0.11,0.09-0.11,0.11-0.13c0.14-0.18,0.29-0.34,0.45-0.51c0.29-0.3,0.59-0.58,0.92-0.84c0.02-0.02,0.18-0.14,0.04-0.03
	c0.03-0.02,0.07-0.05,0.1-0.07c0.08-0.06,0.16-0.12,0.24-0.17c0.17-0.12,0.34-0.23,0.52-0.33c0.16-0.09,0.32-0.18,0.48-0.26
	c0.09-0.04,0.17-0.08,0.26-0.12c0.04-0.02,0.09-0.04,0.13-0.06c0.05-0.02,0.03-0.02-0.05,0.02c0.03-0.01,0.07-0.03,0.1-0.04
	c0.35-0.13,0.69-0.25,1.06-0.33c0.17-0.04,0.34-0.07,0.51-0.1c0.04-0.01,0.09-0.01,0.14-0.02c0.18-0.03-0.12,0.01-0.01,0
	c0.1-0.01,0.19-0.02,0.29-0.03c0.35-0.03,0.71-0.03,1.06-0.01c0.09,0.01,0.18,0.01,0.26,0.02c0.05,0.01,0.33,0.05,0.12,0.01
	c0.18,0.03,0.36,0.06,0.54,0.1c0.35,0.08,0.69,0.18,1.02,0.31c0.03,0.01,0.06,0.03,0.1,0.04c0.17,0.06-0.15-0.07,0.01,0.01
	c0.07,0.03,0.14,0.06,0.21,0.1c0.16,0.08,0.32,0.17,0.48,0.26c0.15,0.09,0.3,0.18,0.44,0.28c0.07,0.04,0.13,0.09,0.19,0.14
	c0.09,0.07-0.14-0.11,0,0c0.04,0.03,0.08,0.07,0.12,0.1c0.28,0.24,0.54,0.49,0.78,0.77c0.05,0.06,0.1,0.13,0.16,0.19
	c0.12,0.14-0.09-0.13,0.02,0.02c0.02,0.03,0.04,0.06,0.07,0.09c0.12,0.17,0.23,0.34,0.34,0.51c0.09,0.15,0.17,0.3,0.25,0.45
	c0.05,0.09,0.09,0.17,0.13,0.26c0.03,0.05,0.05,0.11,0.07,0.16c-0.05-0.12-0.01-0.02,0.02,0.04c0.17,0.44,0.31,0.88,0.4,1.34
	c0.03,0.12,0.05,0.23,0.07,0.35c0.01,0.06,0.02,0.13,0.03,0.2c0.01,0.03,0.03,0.23,0.01,0.07c0.03,0.25,0.05,0.51,0.07,0.76
	c0.03,0.57,0.01,1.14-0.04,1.71c-0.05,0.58-0.15,1.13-0.3,1.76c-0.15,0.65,0.51,1.12,1.09,0.83c0.91-0.45,1.92-0.82,2.99-1.01
	c0.11-0.02,0.22-0.04,0.33-0.05c-0.16,0.02,0.16-0.02,0.2-0.02c0.23-0.02,0.46-0.04,0.7-0.04c0.2,0,0.41,0,0.61,0.01
	c0.1,0.01,0.2,0.02,0.29,0.02c0.06,0.01,0.12,0.01,0.17,0.02c-0.19-0.02-0.01,0,0.03,0.01c0.4,0.07,0.8,0.17,1.19,0.3
	c0.08,0.03,0.17,0.06,0.25,0.1c0.04,0.01,0.13,0.06-0.03-0.01c0.05,0.02,0.1,0.04,0.14,0.06c0.18,0.08,0.35,0.17,0.52,0.27
	c0.15,0.09,0.3,0.18,0.44,0.28c0.07,0.05,0.14,0.1,0.21,0.15c0.15,0.1-0.12-0.1,0.01,0.01c0.04,0.03,0.08,0.06,0.12,0.1
	c0.27,0.23,0.53,0.48,0.76,0.76c0.06,0.07,0.12,0.15,0.18,0.22c0.03,0.04,0.1,0.14-0.01-0.01c0.03,0.03,0.05,0.07,0.08,0.1
	c0.11,0.16,0.22,0.32,0.33,0.49c0.19,0.31,0.35,0.63,0.49,0.96c-0.09-0.19,0.02,0.06,0.04,0.11c0.03,0.08,0.06,0.16,0.09,0.24
	c0.06,0.18,0.12,0.36,0.16,0.54c0.04,0.17,0.08,0.33,0.12,0.5c0.02,0.09,0.03,0.17,0.05,0.25c0.01,0.05,0.02,0.1,0.02,0.15
	c-0.03-0.2-0.01-0.04,0,0.01c0.04,0.37,0.06,0.74,0.05,1.11c-0.01,0.18-0.01,0.36-0.03,0.54c-0.01,0.05-0.04,0.34-0.01,0.11
	c-0.02,0.1-0.03,0.2-0.05,0.31c-0.07,0.36-0.16,0.72-0.27,1.06c-0.03,0.08-0.06,0.17-0.09,0.25c-0.02,0.05-0.13,0.3-0.04,0.12
	c-0.08,0.18-0.16,0.35-0.25,0.52c-0.1,0.19-0.21,0.37-0.33,0.55c-0.06,0.09-0.12,0.18-0.18,0.27c-0.02,0.03-0.13,0.17-0.01,0.02
	c-0.03,0.04-0.07,0.09-0.1,0.13c-0.29,0.35-0.6,0.67-0.95,0.96c-0.04,0.03-0.08,0.06-0.11,0.09c-0.15,0.12,0.06-0.04-0.06,0.04
	c-0.1,0.07-0.19,0.14-0.29,0.2c-0.2,0.14-0.41,0.26-0.62,0.38c-0.22,0.12-0.45,0.23-0.68,0.33c0.03-0.01,0.13-0.05-0.01,0
	c-0.07,0.03-0.14,0.06-0.21,0.09c-0.14,0.05-0.27,0.1-0.42,0.15c-0.62,0.21-0.71,0.99-0.18,1.35c0.23,0.16,0.48,0.37,0.72,0.64
	c0.06,0.06,0.11,0.13,0.17,0.2c-0.06-0.08,0.07,0.09,0.08,0.12c0.11,0.15,0.2,0.31,0.29,0.47c0.18,0.34,0.24,0.47,0.36,0.86
	c0.05,0.17,0.1,0.34,0.14,0.51c0.03,0.15,0.08,0.43,0.09,0.51c0.17,1.34-0.07,2.8-0.73,3.98c-0.08,0.15-0.17,0.3-0.27,0.44
	c-0.05,0.07-0.1,0.14-0.15,0.21c-0.05,0.07-0.01,0.01,0-0.01c-0.04,0.05-0.07,0.09-0.11,0.14c-0.11,0.13-0.22,0.25-0.34,0.36
	c-0.06,0.06-0.12,0.11-0.18,0.17c-0.03,0.02-0.05,0.04-0.08,0.07c-0.03,0.03-0.04,0.03-0.01,0.01c0.07-0.05,0.03-0.02-0.13,0.1
	c-0.73,0.61-1.47,1.16-2.39,1.45c-1.59,0.51-3.23,0.22-4.7-0.56c-1.7-0.9-3.12-2.33-4.15-3.93c-0.2-0.31-0.58-0.45-0.93-0.3
	c-0.36,0.16-0.48,0.5-0.43,0.87c0.03,0.23-0.01-0.08,0.01,0.05c0.01,0.05,0.01,0.1,0.01,0.14c0.01,0.11,0.02,0.21,0.03,0.32
	c0.01,0.22,0.02,0.43,0.02,0.65c0,0.19-0.01,0.37-0.02,0.56c-0.01,0.11-0.02,0.21-0.03,0.32c0,0.03-0.02,0.15,0-0.01
	c-0.01,0.06-0.02,0.12-0.03,0.18c-0.06,0.36-0.15,0.7-0.26,1.04c-0.03,0.08-0.06,0.16-0.09,0.25c-0.02,0.04-0.12,0.29-0.04,0.11
	c-0.07,0.16-0.15,0.32-0.23,0.48c-0.08,0.14-0.15,0.27-0.24,0.4c-0.05,0.08-0.1,0.15-0.15,0.23c-0.03,0.04-0.2,0.26-0.08,0.11
	c-0.2,0.25-0.41,0.49-0.65,0.71c-0.12,0.11-0.24,0.21-0.36,0.32c-0.16,0.13,0.06-0.04-0.08,0.06c-0.07,0.05-0.14,0.1-0.22,0.15
	c-0.27,0.18-0.55,0.35-0.84,0.49c-0.06,0.03-0.13,0.06-0.19,0.09c-0.04,0.02-0.08,0.04-0.12,0.05c-0.09,0.04,0.13-0.05,0.03-0.01
	c-0.16,0.06-0.31,0.12-0.47,0.17c-0.31,0.1-0.62,0.18-0.93,0.24c-0.08,0.01-0.16,0.03-0.23,0.04c-0.11,0.02,0.13-0.01-0.06,0.01
	c-0.17,0.02-0.35,0.03-0.52,0.04c-0.31,0.01-0.62,0-0.93-0.03c-0.04,0-0.27-0.03-0.16-0.02c0.12,0.02-0.12-0.02-0.16-0.03
	c-0.16-0.03-0.32-0.06-0.48-0.1c-0.14-0.04-0.28-0.08-0.42-0.12c-0.07-0.02-0.15-0.05-0.22-0.08c-0.04-0.02-0.08-0.03-0.12-0.05
	c-0.14-0.05,0.13,0.06-0.02-0.01c-0.29-0.13-0.56-0.27-0.83-0.44c-0.14-0.09-0.26-0.18-0.39-0.27c0.13,0.1-0.01-0.01-0.06-0.05
	c-0.07-0.06-0.15-0.13-0.22-0.19c-0.14-0.13-0.27-0.27-0.4-0.41c-0.06-0.07-0.12-0.14-0.18-0.21c-0.02-0.03-0.05-0.06-0.07-0.09
	c0.11,0.15-0.01-0.01-0.02-0.03c-0.23-0.33-0.44-0.67-0.61-1.04c-0.02-0.05-0.04-0.09-0.06-0.14c-0.06-0.13,0.02,0.06-0.01-0.02
	c-0.04-0.11-0.09-0.22-0.12-0.32c-0.07-0.2-0.14-0.41-0.19-0.63c-0.06-0.22-0.11-0.45-0.15-0.67c-0.06-0.32-0.06-0.33-0.09-0.67
	c-0.04-0.4-0.31-0.74-0.74-0.74c-0.41,0-0.73,0.34-0.74,0.74c-0.01,0.2-0.01,0.4-0.03,0.61c-0.01,0.04-0.01,0.09-0.01,0.13
	c0,0-0.03,0.21-0.01,0.1l0,0c0.02-0.11-0.02,0.15-0.04,0.25c0,0.01,0,0.02,0,0.03c-0.07,0.36-0.16,0.71-0.28,1.05
	c-0.03,0.09-0.07,0.18-0.1,0.27c-0.01,0.03-0.06,0.13,0.01-0.02c-0.02,0.03-0.03,0.07-0.05,0.1c-0.08,0.17-0.16,0.33-0.26,0.5
	c-0.08,0.14-0.17,0.28-0.26,0.42c-0.04,0.06-0.09,0.12-0.12,0.18c-0.08,0.11,0.01-0.01,0.02-0.02c-0.03,0.04-0.07,0.08-0.1,0.12
	c-0.21,0.26-0.45,0.49-0.7,0.71c-0.05,0.04-0.11,0.09-0.16,0.13c-0.13,0.11,0.1-0.07,0.01-0.01c-0.03,0.03-0.07,0.05-0.1,0.08
	c-0.12,0.09-0.25,0.18-0.39,0.26c-0.13,0.08-0.27,0.16-0.4,0.23c-0.08,0.04-0.15,0.08-0.23,0.11c-0.05,0.02-0.3,0.13-0.11,0.05
	c-0.3,0.12-0.59,0.22-0.9,0.3c-0.14,0.04-0.29,0.07-0.43,0.1c-0.08,0.02-0.17,0.03-0.25,0.04c-0.2,0.03,0.1-0.01-0.11,0.02
	c-0.32,0.03-0.63,0.05-0.95,0.04c-0.14,0-0.29-0.01-0.44-0.02c-0.09-0.01-0.17-0.02-0.26-0.03c-0.04,0-0.14-0.02,0.04,0.01
	c-0.05-0.01-0.1-0.02-0.15-0.02c-0.31-0.05-0.62-0.12-0.93-0.22c-0.14-0.04-0.28-0.09-0.42-0.14c-0.04-0.02-0.31-0.13-0.11-0.04
	c-0.08-0.03-0.16-0.07-0.23-0.11c-0.29-0.14-0.57-0.3-0.83-0.47c-0.06-0.04-0.13-0.09-0.19-0.13c-0.17-0.12,0.06,0.05-0.08-0.06
	c-0.13-0.11-0.25-0.21-0.37-0.33c-0.11-0.11-0.23-0.22-0.33-0.34c-0.05-0.05-0.09-0.11-0.14-0.16c-0.03-0.03-0.06-0.07-0.08-0.1
	c-0.04-0.05,0.08,0.11-0.02-0.02c-0.22-0.31-0.42-0.62-0.58-0.96c-0.02-0.04-0.04-0.09-0.06-0.13c-0.01-0.02-0.08-0.19-0.04-0.1
	c0.04,0.11-0.03-0.07-0.03-0.07c-0.02-0.05-0.04-0.11-0.06-0.16c-0.07-0.19-0.12-0.38-0.18-0.57c-0.05-0.21-0.1-0.42-0.14-0.64
	c-0.01-0.04-0.01-0.08-0.02-0.13c-0.01-0.05-0.01-0.04,0.01,0.04c-0.01-0.03-0.01-0.06-0.01-0.1c-0.01-0.12-0.03-0.24-0.03-0.36
	c-0.03-0.49-0.02-0.99,0.02-1.48c0.06-0.75-1.03-0.97-1.38-0.37c-0.66,1.13-1.36,2.1-2.32,2.99c-0.46,0.43-0.7,0.62-1.21,0.94
	c-0.2,0.12-0.4,0.24-0.61,0.35c-0.09,0.05-0.18,0.09-0.28,0.14c-0.05,0.03-0.11,0.05-0.17,0.08c0.17-0.07-0.07,0.03-0.1,0.04
	c-0.42,0.16-0.85,0.28-1.29,0.36c-0.05,0.01-0.11,0.02-0.17,0.03c-0.19,0.03,0.16-0.01-0.03,0c-0.11,0.01-0.22,0.02-0.33,0.03
	c-0.22,0.02-0.44,0.02-0.66,0.01c-0.2-0.01-0.4-0.03-0.6-0.05c-0.19-0.02,0.17,0.03-0.02,0c-0.05-0.01-0.11-0.02-0.16-0.03
	c-0.11-0.02-0.21-0.04-0.32-0.06c-0.19-0.04-0.38-0.1-0.57-0.16c-0.1-0.03-0.2-0.07-0.31-0.1c-0.06-0.02-0.4-0.17-0.22-0.09
	c-0.38-0.17-0.74-0.36-1.09-0.58c-0.17-0.11-0.33-0.22-0.49-0.34c-0.03-0.02-0.17-0.14-0.02-0.02c-0.04-0.03-0.09-0.07-0.13-0.1
	c-0.08-0.07-0.17-0.14-0.25-0.21c-0.32-0.29-0.62-0.6-0.9-0.93c-0.03-0.04-0.2-0.26-0.08-0.1c-0.07-0.09-0.13-0.17-0.19-0.26
	c-0.12-0.18-0.24-0.36-0.35-0.54c-0.1-0.17-0.2-0.34-0.29-0.52c-0.05-0.1-0.09-0.19-0.14-0.29c-0.02-0.03-0.09-0.2-0.01-0.02
	c-0.02-0.06-0.05-0.12-0.07-0.18c-0.15-0.39-0.27-0.8-0.36-1.21c-0.02-0.11-0.04-0.21-0.06-0.32c-0.01-0.04-0.01-0.07-0.02-0.11
	c-0.03-0.18,0.01,0.17,0-0.02c-0.02-0.22-0.04-0.43-0.04-0.65c-0.01-0.22,0-0.44,0.02-0.66c0.01-0.09,0.02-0.18,0.03-0.27
	c0.01-0.04,0.04-0.23,0-0.02c0.01-0.07,0.02-0.15,0.04-0.22c0.09-0.49,0.23-0.97,0.42-1.43c-0.07,0.16,0.07-0.15,0.1-0.2
	c0.06-0.13,0.13-0.25,0.2-0.38c0.13-0.24,0.28-0.47,0.43-0.69c0.04-0.05,0.08-0.1,0.12-0.16c0.05-0.07,0.05-0.07,0-0.01
	c0.03-0.03,0.05-0.07,0.08-0.1c0.08-0.1,0.17-0.21,0.26-0.31c0.2-0.23,0.41-0.44,0.63-0.65c0.53-0.49,0.94-0.8,1.56-1.19
	c0.61-0.39,0.38-1.38-0.37-1.38c-0.32,0-0.65-0.01-0.97-0.03c-0.15-0.01-0.3-0.02-0.45-0.04c-0.08-0.01-0.15-0.02-0.24-0.03
	c-0.09-0.01,0.02,0,0.03,0.01c-0.04-0.01-0.09-0.01-0.13-0.02c-0.57-0.09-1.12-0.21-1.67-0.39c-0.12-0.04-0.24-0.08-0.36-0.12
	c-0.06-0.02-0.12-0.05-0.19-0.07c-0.06-0.02-0.2-0.08-0.06-0.02c-0.23-0.1-0.45-0.2-0.67-0.32c-0.22-0.12-0.43-0.25-0.63-0.38
	c-0.09-0.06-0.18-0.13-0.27-0.19c-0.07-0.05-0.11-0.08-0.01-0.01c-0.05-0.04-0.11-0.08-0.16-0.13c-0.34-0.28-0.65-0.6-0.93-0.94
	c-0.04-0.04-0.07-0.09-0.1-0.13c-0.03-0.03,0.09,0.12,0,0c-0.07-0.1-0.14-0.19-0.2-0.29c-0.12-0.18-0.23-0.36-0.33-0.54
	c-0.1-0.18-0.19-0.37-0.28-0.56c0.09,0.19-0.03-0.07-0.05-0.15c-0.04-0.1-0.07-0.2-0.11-0.3c-0.13-0.4-0.22-0.81-0.29-1.23
	c-0.02-0.14,0.02,0.15,0,0.02c-0.01-0.05-0.01-0.11-0.02-0.16c-0.01-0.11-0.02-0.21-0.03-0.32c-0.01-0.2-0.02-0.41-0.01-0.62
	c0.01-0.2,0.01-0.41,0.04-0.62c0.01-0.08,0.05-0.37,0.01-0.15c0.02-0.11,0.03-0.21,0.05-0.32c0.07-0.41,0.18-0.82,0.32-1.21
	c0.03-0.09,0.07-0.19,0.1-0.28c0.01-0.04,0.03-0.09,0.05-0.13c-0.08,0.2-0.01,0.02,0.01-0.03c0.09-0.19,0.18-0.37,0.28-0.55
	c0.1-0.19,0.21-0.37,0.33-0.55c0.05-0.08,0.11-0.16,0.17-0.24c0.02-0.04,0.05-0.07,0.08-0.11c0.06-0.08-0.09,0.11,0.03-0.03
	c0.26-0.32,0.55-0.62,0.86-0.89c0.07-0.07,0.16-0.13,0.23-0.19c0.14-0.11-0.09,0.06,0.02-0.01c0.04-0.03,0.09-0.06,0.13-0.1
	c0.18-0.13,0.37-0.25,0.56-0.35c0.19-0.11,0.38-0.21,0.58-0.3c0.04-0.02,0.09-0.04,0.14-0.06c-0.19,0.08-0.02,0.01,0.03-0.01
	c0.11-0.04,0.22-0.08,0.33-0.12c0.21-0.07,0.43-0.13,0.66-0.19c0.11-0.03,0.22-0.05,0.33-0.07c0.06-0.01,0.12-0.02,0.18-0.03
	c0.05-0.01,0.27-0.04,0.07-0.01c0.5-0.06,1.01-0.08,1.51-0.05c0.13,0.01,0.26,0.02,0.39,0.03c0.07,0.01,0.14,0.01,0.21,0.02
	c0.03,0,0.06,0.01,0.09,0.01c0.11,0.01-0.13-0.02-0.01,0c0.28,0.04,0.56,0.09,0.84,0.16c0.62,0.14,1.23,0.33,1.83,0.56
	c0.07,0.03,0.14,0.05,0.21,0.08c0.03,0.01,0.22,0.09,0.14,0.06c0.17,0.07,0.33,0.15,0.5,0.22c0.36,0.17,0.8,0.1,1.01-0.26
	C334.51,11.39,334.42,10.86,334.06,10.7z"/>
<path class="st0" d="M342.83,26.62c-0.2-0.29-0.39-0.6-0.54-0.91c-0.03-0.07-0.06-0.13-0.09-0.2c-0.06-0.13-0.01-0.02,0,0.01
	c-0.02-0.04-0.03-0.08-0.04-0.11c-0.05-0.15-0.11-0.3-0.15-0.45c-0.04-0.13-0.07-0.27-0.09-0.41c-0.01-0.08-0.03-0.2-0.01-0.04
	c-0.01-0.08-0.02-0.16-0.02-0.24c-0.01-0.13-0.01-0.26-0.01-0.38c0-0.06,0.01-0.12,0.01-0.18c0.01-0.05,0.04-0.3,0-0.07
	c0.04-0.25,0.1-0.48,0.18-0.72c0.02-0.05,0.04-0.1,0.06-0.15c-0.06,0.15-0.02,0.04,0.02-0.04c0.05-0.11,0.11-0.22,0.18-0.33
	c0.06-0.09,0.12-0.18,0.18-0.27c0.11-0.16-0.05,0.05,0.03-0.04c0.04-0.05,0.08-0.1,0.12-0.14c0.17-0.19,0.36-0.35,0.55-0.52
	c0.1-0.09-0.13,0.09,0.02-0.02c0.05-0.03,0.09-0.06,0.14-0.1c0.11-0.07,0.21-0.14,0.32-0.2c0.1-0.06,0.21-0.12,0.32-0.17
	c0.05-0.03,0.1-0.05,0.15-0.07c0.19-0.09-0.09,0.03,0.07-0.03c0.24-0.08,0.47-0.17,0.72-0.23c0.12-0.03,0.24-0.05,0.36-0.07
	c0.1-0.02,0.16-0.02,0.02-0.01c0.07-0.01,0.14-0.02,0.22-0.02c0.25-0.02,0.5-0.02,0.75-0.01c0.06,0,0.11,0.01,0.17,0.02
	c0.03,0,0.06,0.01,0.1,0.01c0.1,0.01-0.15-0.03-0.05-0.01c0.13,0.02,0.26,0.04,0.38,0.08c0.12,0.03,0.24,0.06,0.35,0.1
	c0.05,0.02,0.11,0.04,0.16,0.06c0.03,0.01,0.06,0.02,0.09,0.04c0.09,0.03-0.17-0.08-0.02-0.01c0.23,0.11,0.45,0.22,0.66,0.36
	c0.03,0.02,0.21,0.15,0.13,0.09c-0.08-0.06,0.1,0.08,0.13,0.1c0.11,0.1,0.22,0.2,0.32,0.31c0.05,0.06,0.11,0.12,0.16,0.18
	c0.04,0.05,0.15,0.19,0.06,0.07c0.1,0.14,0.2,0.28,0.29,0.43c0.09,0.15,0.17,0.3,0.24,0.45c0.02,0.04,0.03,0.08,0.05,0.11
	c0.05,0.11-0.06-0.16,0.01,0.03c0.03,0.08,0.06,0.16,0.09,0.24c0.14,0.4,0.24,0.81,0.31,1.22c0.07,0.39,0.55,0.61,0.91,0.52
	c0.42-0.12,0.58-0.51,0.52-0.91c-0.12-0.76-0.17-1.77-0.08-2.65c0.01-0.05,0.01-0.11,0.02-0.16c0,0.03-0.02,0.15,0,0
	c0.01-0.09,0.03-0.19,0.05-0.28c0.04-0.19,0.08-0.38,0.13-0.57c0.05-0.17,0.1-0.34,0.16-0.5c0.03-0.08,0.06-0.16,0.09-0.24
	c0.02-0.04,0.07-0.16,0,0c0.02-0.05,0.04-0.1,0.07-0.15c0.13-0.29,0.29-0.56,0.47-0.83c0.05-0.07,0.1-0.14,0.15-0.2
	c-0.1,0.13-0.01,0.01,0.04-0.05c0.1-0.12,0.21-0.25,0.33-0.36c0.1-0.1,0.21-0.2,0.32-0.29c0.07-0.05,0.17-0.12,0.04-0.03
	c0.07-0.05,0.14-0.1,0.21-0.15c0.24-0.16,0.49-0.29,0.74-0.41c0.14-0.07-0.13,0.05-0.03,0.01c0.04-0.01,0.07-0.03,0.11-0.04
	c0.06-0.02,0.11-0.04,0.17-0.06c0.14-0.05,0.29-0.09,0.43-0.12c0.13-0.03,0.26-0.05,0.4-0.08c-0.15,0.03-0.08,0.01,0.03,0
	c0.08-0.01,0.16-0.01,0.25-0.02c0.28-0.01,0.55,0.01,0.83,0.03c-0.24-0.02-0.01,0,0.05,0.01c0.07,0.01,0.13,0.03,0.2,0.04
	c0.15,0.03,0.29,0.07,0.44,0.12c0.12,0.04,0.24,0.09,0.36,0.13c0.1,0.04-0.17-0.08-0.03-0.01c0.03,0.01,0.06,0.03,0.08,0.04
	c0.07,0.03,0.14,0.07,0.21,0.1c0.12,0.06,0.25,0.13,0.37,0.21c0.07,0.04,0.13,0.09,0.2,0.13c0.05,0.03,0.25,0.19,0.08,0.05
	c0.24,0.19,0.46,0.39,0.66,0.62c0.05,0.06,0.1,0.11,0.15,0.17c0.02,0.03,0.04,0.05,0.07,0.08c0.11,0.13-0.07-0.1-0.01-0.01
	c0.1,0.13,0.19,0.27,0.28,0.41c0.1,0.16,0.19,0.33,0.28,0.49c0.05,0.09,0.09,0.18,0.13,0.28c0.01,0.03,0.05,0.13-0.01-0.02
	c0.02,0.05,0.04,0.11,0.07,0.16c0.15,0.4,0.26,0.81,0.35,1.23c0.02,0.11,0.04,0.21,0.05,0.32c0.01,0.04,0.01,0.09,0.02,0.13
	c-0.02-0.17,0,0.03,0.01,0.07c0.03,0.25,0.04,0.51,0.05,0.76c0.02,0.53-0.01,1.06-0.07,1.59c-0.08,0.71,1.1,1.04,1.38,0.37
	c0.12-0.28,0.25-0.55,0.41-0.81c0.07-0.12,0.15-0.24,0.23-0.36c0.04-0.06,0.08-0.11,0.12-0.17c-0.08,0.1,0.03-0.04,0.05-0.06
	c0.17-0.2,0.35-0.39,0.55-0.55c0.05-0.04,0.1-0.08,0.15-0.12c-0.13,0.11,0.03-0.02,0.05-0.03c0.1-0.07,0.2-0.14,0.31-0.2
	c0.1-0.06,0.21-0.12,0.32-0.17c0.05-0.03,0.11-0.05,0.16-0.08c0.18-0.08-0.14,0.04,0.04-0.02c0.22-0.07,0.44-0.15,0.67-0.2
	c0.11-0.03,0.23-0.04,0.34-0.06c-0.2,0.03,0.15-0.01,0.2-0.01c0.23-0.01,0.46-0.01,0.69,0.01c0.06,0.01,0.11,0.01,0.17,0.02
	c0.19,0.02-0.16-0.03,0.03,0.01c0.11,0.02,0.23,0.04,0.33,0.06c0.22,0.05,0.44,0.12,0.65,0.19c0.05,0.02,0.11,0.04,0.16,0.06
	c-0.18-0.07,0,0,0.03,0.02c0.1,0.05,0.2,0.1,0.3,0.15c0.2,0.11,0.38,0.24,0.57,0.36c0.16,0.1-0.11-0.1,0.03,0.02
	c0.04,0.04,0.09,0.07,0.13,0.11c0.08,0.07,0.17,0.15,0.25,0.23c0.07,0.07,0.13,0.13,0.19,0.2c0.04,0.04,0.07,0.09,0.11,0.13
	c0.13,0.16-0.01-0.03,0.06,0.07c0.11,0.17,0.23,0.34,0.33,0.53c0.05,0.1,0.1,0.2,0.15,0.31c-0.08-0.17,0,0.01,0.01,0.04
	c0.02,0.07,0.05,0.15,0.07,0.22c0.04,0.13,0.07,0.26,0.1,0.4c0.01,0.04,0.02,0.08,0.02,0.12c0.01,0.04,0.01,0.08,0.02,0.12
	c-0.01-0.1-0.01-0.1-0.01-0.02c0.02,0.3,0.03,0.58,0,0.88c0,0.02-0.03,0.24-0.01,0.06c-0.01,0.07-0.02,0.13-0.03,0.2
	c-0.03,0.16-0.07,0.32-0.11,0.47c-0.1,0.37-0.19,0.59-0.33,0.88c-0.17,0.36-0.1,0.8,0.26,1.01c0.32,0.19,0.84,0.1,1.01-0.26
	c0.58-1.2,0.85-2.5,0.59-3.82c-0.21-1.07-0.82-2.07-1.63-2.79c-1.71-1.49-4.18-1.9-6.25-0.93c-1.07,0.5-1.91,1.39-2.48,2.42
	c-0.18,0.33,0.01,0.72,0.37,0.82l0,0c0.37,0.1,0.74-0.15,0.75-0.53c0.08-1.6-0.16-3.23-0.92-4.66c-0.68-1.29-1.78-2.3-3.13-2.84
	c-2.62-1.06-5.62,0.11-7,2.55c-0.91,1.61-1.07,3.48-0.89,5.29c0.04,0.43,0.47,0.71,0.89,0.6l0,0c0.36-0.1,0.59-0.46,0.5-0.82
	c-0.31-1.19-0.9-2.33-1.85-3.11c-0.98-0.8-2.19-1.23-3.46-1.21c-2.34,0.03-4.79,1.51-5.38,3.87c-0.39,1.58,0.13,3.18,1.03,4.49
	c0.23,0.33,0.65,0.48,1.01,0.26C342.88,27.44,343.05,26.95,342.83,26.62z"/>
<path class="st0" d="M11.81,173.03c-1.91-0.89-4.06-1.42-6.16-0.94c-1.61,0.37-3,1.36-3.92,2.73c-0.85,1.26-1.26,2.84-1.17,4.36
	c0.1,1.61,0.75,3.16,1.89,4.31c1.39,1.4,3.32,2.03,5.25,2.17c0.08,0.01,0.17,0.01,0.25,0.01c0.29,0.01,0.51-0.27,0.43-0.55l0,0
	c-0.08-0.29-0.41-0.42-0.66-0.25c-1.44,1.03-2.64,2.41-3.12,4.15c-0.44,1.58-0.21,3.26,0.51,4.72c1.41,2.88,4.77,4.72,7.94,3.83
	c2.09-0.59,3.69-2.19,4.84-3.98c0.17-0.26,0.03-0.61-0.28-0.69l0,0c-0.29-0.08-0.57,0.12-0.58,0.42c-0.02,1.26,0.24,2.54,0.92,3.62
	c0.68,1.09,1.7,1.88,2.9,2.34c2.24,0.86,5.01,0.36,6.71-1.38c0.97-1,1.49-2.3,1.63-3.67c0.03-0.32-0.23-0.59-0.56-0.59l0,0
	c-0.34,0-0.61,0.29-0.56,0.63c0.21,1.27,0.69,2.49,1.57,3.46c0.82,0.9,1.95,1.51,3.15,1.72c2.48,0.44,5.12-0.61,6.49-2.75
	c0.78-1.22,1.02-2.65,0.91-4.07c-0.02-0.32-0.36-0.51-0.66-0.39l0,0c-0.28,0.12-0.39,0.46-0.21,0.71c1.78,2.5,4.76,4.64,7.95,3.96
	c0.9-0.19,1.73-0.62,2.45-1.18c0.6-0.46,1.17-0.96,1.6-1.6c0.78-1.15,1.11-2.63,1.02-4c-0.1-1.44-0.65-2.82-1.72-3.77
	c-0.2-0.17-0.49-0.04-0.53,0.22l0,0c-0.03,0.26,0.21,0.46,0.46,0.37c1.32-0.54,2.47-1.4,3.26-2.61c0.76-1.16,1.12-2.58,1.06-3.96
	c-0.13-2.83-1.96-5.5-4.79-6.19c-1.8-0.45-3.65-0.06-5.33,0.67c-0.24,0.11-0.28,0.44-0.07,0.6l0,0c0.21,0.16,0.51,0.05,0.56-0.21
	c0.31-1.6,0.34-3.28-0.17-4.84c-0.45-1.39-1.29-2.6-2.49-3.44c-2.28-1.61-5.45-1.42-7.7,0.15c-1.41,0.98-2.42,2.35-3.1,3.9
	c-0.14,0.31,0.07,0.66,0.41,0.71l0,0c0.3,0.04,0.57-0.18,0.58-0.48c0.01-2.1-0.92-4.25-2.89-5.2c-1.83-0.88-4.08-0.53-5.37,1.09
	c-0.79,0.98-1.14,2.2-1.23,3.44c-0.02,0.33,0.27,0.59,0.6,0.55l0,0c0.32-0.04,0.53-0.35,0.45-0.65c-0.41-1.55-1.16-3.03-2.37-4.09
	c-1.14-1-2.57-1.57-4.08-1.66c-2.77-0.18-5.78,1.32-6.96,3.9c-0.75,1.63-0.71,3.47-0.05,5.12c0.12,0.31,0.41,0.53,0.76,0.43
	c0.29-0.08,0.56-0.45,0.43-0.76c-0.15-0.37-0.27-0.76-0.36-1.15c-0.02-0.08-0.03-0.16-0.05-0.24c-0.01-0.05-0.02-0.1-0.02-0.14
	c-0.03-0.16,0.01,0.13,0-0.03c-0.02-0.17-0.03-0.34-0.04-0.51c-0.01-0.17,0-0.33,0.01-0.5c0-0.07,0.01-0.15,0.02-0.22
	c0-0.04,0.01-0.09,0.02-0.13c-0.02,0.18,0-0.01,0.01-0.05c0.05-0.31,0.13-0.61,0.24-0.91c0.02-0.07,0.05-0.13,0.08-0.2
	c0.05-0.14-0.06,0.13,0-0.01c0.02-0.04,0.03-0.08,0.05-0.12c0.07-0.14,0.14-0.28,0.22-0.42c0.07-0.12,0.15-0.25,0.23-0.37
	c0.05-0.07,0.1-0.13,0.15-0.2c-0.1,0.14,0.05-0.06,0.08-0.1c0.2-0.23,0.41-0.45,0.64-0.65c0.06-0.06,0.13-0.11,0.19-0.16
	c0.02-0.02,0.04-0.04,0.06-0.05c0.11-0.09-0.11,0.08,0.01-0.01c0.14-0.1,0.27-0.2,0.41-0.29c0.26-0.17,0.54-0.31,0.82-0.44
	c0.04-0.02,0.08-0.03,0.12-0.05c0.13-0.06-0.1,0.04-0.01,0.01c0.07-0.03,0.14-0.06,0.22-0.09c0.16-0.06,0.32-0.11,0.48-0.16
	c0.3-0.09,0.61-0.16,0.92-0.21c0.04-0.01,0.08-0.01,0.13-0.02c-0.16,0.02-0.07,0.01-0.04,0.01c0.08-0.01,0.17-0.02,0.25-0.03
	c0.16-0.01,0.31-0.02,0.47-0.02c0.16,0,0.32,0,0.47,0.01c0.08,0.01,0.16,0.01,0.24,0.02c0.05,0,0.34,0.04,0.16,0.01
	c0.31,0.05,0.62,0.11,0.93,0.21c0.15,0.04,0.3,0.1,0.45,0.16c0.04,0.01,0.08,0.03,0.12,0.05c-0.14-0.06-0.06-0.02-0.03-0.01
	c0.09,0.05,0.19,0.09,0.28,0.13c0.29,0.15,0.57,0.32,0.84,0.52c0.02,0.02,0.14,0.12,0.02,0.01c0.04,0.03,0.07,0.06,0.11,0.09
	c0.08,0.07,0.17,0.14,0.25,0.21c0.14,0.13,0.27,0.26,0.4,0.41c0.07,0.08,0.14,0.16,0.21,0.24c0.03,0.03,0.05,0.06,0.08,0.1
	c-0.09-0.12,0.04,0.05,0.05,0.08c0.12,0.17,0.24,0.34,0.34,0.51c0.12,0.2,0.23,0.41,0.33,0.61c0.12,0.26,0.13,0.28,0.23,0.53
	c0.19,0.5,0.33,1.02,0.44,1.55c0.14,0.69,1.21,0.52,1.21-0.16c0-0.33,0.02-0.65,0.06-0.98c0.02-0.13,0.01-0.04,0-0.02
	c0.01-0.04,0.01-0.08,0.02-0.12c0.01-0.07,0.02-0.14,0.04-0.2c0.03-0.14,0.06-0.28,0.1-0.42c0.03-0.13,0.08-0.26,0.12-0.39
	c0.02-0.06,0.04-0.11,0.06-0.17c0.01-0.03,0.03-0.06,0.04-0.1c-0.02,0.05-0.03,0.07,0,0.01c0.11-0.23,0.22-0.45,0.36-0.66
	c0.03-0.04,0.06-0.09,0.09-0.13c0,0,0,0,0,0c0-0.01,0.02-0.03,0.03-0.04l0,0c0.08-0.09,0.15-0.18,0.23-0.26
	c0.07-0.07,0.14-0.14,0.22-0.21c0.04-0.03,0.08-0.06,0.11-0.1c0.08-0.07-0.01,0.01-0.03,0.02c0.03-0.02,0.06-0.04,0.08-0.06
	c0.17-0.12,0.34-0.23,0.53-0.31c0.04-0.02,0.09-0.04,0.13-0.06c-0.16,0.08,0,0,0.04-0.01c0.09-0.03,0.19-0.06,0.29-0.09
	c0.1-0.03,0.19-0.05,0.29-0.07c0.05-0.01,0.09-0.02,0.14-0.02c0.07-0.01-0.07,0.01-0.06,0.01c0.03,0,0.07-0.01,0.1-0.01
	c0.2-0.02,0.4-0.02,0.6-0.01c0.05,0,0.11,0.01,0.16,0.01c0.14,0.01-0.09-0.02,0.02,0c0.11,0.02,0.21,0.04,0.32,0.06
	c0.2,0.05,0.39,0.11,0.59,0.18c0.1,0.04-0.11-0.06,0.02,0.01c0.04,0.02,0.09,0.04,0.13,0.06c0.1,0.05,0.2,0.1,0.29,0.16
	c0.08,0.05,0.17,0.1,0.25,0.16c0.05,0.03,0.09,0.07,0.14,0.1c-0.11-0.08,0,0,0.04,0.04c0.17,0.14,0.33,0.29,0.47,0.46
	c0.03,0.04,0.07,0.08,0.1,0.12c0.04,0.04,0.1,0.13,0.03,0.03c0.07,0.1,0.14,0.2,0.21,0.3c0.07,0.11,0.14,0.23,0.2,0.35
	c0.03,0.06,0.06,0.11,0.09,0.17c0.02,0.04,0.1,0.23,0.05,0.1c0.11,0.27,0.19,0.54,0.26,0.83c0.03,0.14,0.06,0.28,0.08,0.43
	c0.02,0.12,0,0.03,0,0c0,0.05,0.01,0.09,0.02,0.14c0.01,0.08,0.01,0.15,0.02,0.23c0.02,0.35,0.01,0.71-0.02,1.06
	c-0.03,0.3,0.25,0.57,0.54,0.6c0.32,0.04,0.57-0.15,0.68-0.44c0.25-0.67,0.65-1.44,1.11-2.1c0.05-0.07,0.11-0.15,0.17-0.23
	c-0.07,0.1,0.07-0.09,0.09-0.11c0.12-0.15,0.24-0.29,0.37-0.43c0.24-0.25,0.49-0.48,0.76-0.7c0.02-0.01,0.15-0.12,0.03-0.03
	c0.03-0.02,0.05-0.04,0.08-0.06c0.07-0.05,0.13-0.1,0.2-0.14c0.14-0.1,0.29-0.19,0.43-0.27c0.13-0.08,0.27-0.15,0.4-0.22
	c0.07-0.03,0.14-0.07,0.21-0.1c0.04-0.01,0.07-0.03,0.11-0.05c0.04-0.02,0.03-0.01-0.04,0.02c0.03-0.01,0.06-0.02,0.09-0.04
	c0.29-0.11,0.58-0.21,0.88-0.28c0.14-0.03,0.28-0.06,0.42-0.08c0.04-0.01,0.07-0.01,0.11-0.02c0.15-0.03-0.1,0.01-0.01,0
	c0.08-0.01,0.16-0.02,0.24-0.03c0.29-0.02,0.59-0.03,0.88-0.01c0.07,0,0.15,0.01,0.22,0.02c0.04,0,0.28,0.04,0.1,0.01
	c0.15,0.02,0.3,0.05,0.45,0.08c0.29,0.06,0.57,0.15,0.85,0.26c0.03,0.01,0.05,0.02,0.08,0.03c0.14,0.05-0.12-0.06,0.01,0.01
	c0.06,0.03,0.12,0.05,0.18,0.08c0.14,0.07,0.27,0.14,0.4,0.22c0.13,0.07,0.25,0.15,0.37,0.24c0.05,0.04,0.11,0.08,0.16,0.12
	c0.08,0.06-0.11-0.1,0,0c0.03,0.03,0.07,0.06,0.1,0.09c0.24,0.2,0.45,0.41,0.65,0.64c0.05,0.05,0.09,0.11,0.13,0.16
	c0.1,0.12-0.08-0.11,0.02,0.02c0.02,0.03,0.04,0.05,0.05,0.07c0.1,0.14,0.19,0.28,0.28,0.43c0.07,0.12,0.14,0.25,0.21,0.38
	c0.04,0.07,0.07,0.14,0.11,0.22c0.02,0.05,0.04,0.09,0.06,0.13c-0.04-0.1-0.01-0.01,0.02,0.04c0.14,0.36,0.25,0.73,0.34,1.11
	c0.02,0.1,0.04,0.19,0.06,0.29c0.01,0.05,0.02,0.11,0.03,0.16c0,0.03,0.03,0.19,0.01,0.06c0.03,0.21,0.05,0.42,0.06,0.63
	c0.02,0.48,0.01,0.95-0.03,1.43c-0.05,0.48-0.13,0.94-0.25,1.47c-0.13,0.54,0.42,0.93,0.9,0.7c0.76-0.37,1.6-0.68,2.49-0.84
	c0.09-0.02,0.19-0.03,0.28-0.05c-0.13,0.02,0.13-0.01,0.16-0.02c0.19-0.02,0.39-0.03,0.58-0.03c0.17,0,0.34,0,0.51,0.01
	c0.08,0.01,0.16,0.01,0.25,0.02c0.05,0,0.1,0.01,0.14,0.02c-0.16-0.02-0.01,0,0.03,0.01c0.34,0.06,0.67,0.14,0.99,0.25
	c0.07,0.03,0.14,0.05,0.21,0.08c0.03,0.01,0.11,0.05-0.02-0.01c0.04,0.02,0.08,0.04,0.12,0.05c0.15,0.07,0.29,0.14,0.43,0.22
	c0.13,0.07,0.25,0.15,0.37,0.23c0.06,0.04,0.12,0.08,0.17,0.12c0.12,0.09-0.1-0.09,0.01,0.01c0.03,0.03,0.07,0.05,0.1,0.08
	c0.23,0.19,0.44,0.4,0.64,0.63c0.05,0.06,0.1,0.12,0.15,0.18c0.02,0.03,0.08,0.11,0-0.01c0.02,0.03,0.04,0.06,0.06,0.09
	c0.1,0.13,0.19,0.27,0.27,0.41c0.16,0.26,0.29,0.52,0.41,0.8c-0.07-0.16,0.02,0.05,0.03,0.09c0.03,0.07,0.05,0.13,0.07,0.2
	c0.05,0.15,0.1,0.3,0.14,0.45c0.04,0.14,0.07,0.28,0.1,0.42c0.01,0.07,0.03,0.14,0.04,0.21c0.01,0.04,0.01,0.08,0.02,0.13
	c-0.03-0.17,0-0.03,0,0.01c0.03,0.31,0.05,0.62,0.04,0.93c0,0.15-0.01,0.3-0.03,0.45c0,0.04-0.04,0.28-0.01,0.1
	c-0.01,0.09-0.03,0.17-0.04,0.26c-0.05,0.3-0.13,0.6-0.23,0.88c-0.02,0.07-0.05,0.14-0.07,0.21c-0.02,0.04-0.11,0.25-0.04,0.1
	c-0.07,0.15-0.13,0.29-0.21,0.44c-0.08,0.16-0.17,0.31-0.27,0.46c-0.05,0.07-0.1,0.15-0.15,0.22c-0.02,0.02-0.11,0.14-0.01,0.02
	c-0.03,0.04-0.06,0.07-0.09,0.11c-0.24,0.29-0.5,0.56-0.79,0.8c-0.03,0.03-0.06,0.05-0.09,0.08c-0.12,0.1,0.05-0.03-0.05,0.04
	c-0.08,0.06-0.16,0.12-0.24,0.17c-0.17,0.11-0.34,0.22-0.52,0.32c-0.19,0.1-0.38,0.19-0.57,0.28c0.02-0.01,0.11-0.04,0,0
	c-0.06,0.02-0.12,0.05-0.18,0.07c-0.11,0.04-0.23,0.08-0.35,0.12c-0.52,0.17-0.59,0.82-0.15,1.13c0.19,0.13,0.4,0.31,0.6,0.53
	c0.05,0.05,0.09,0.11,0.14,0.17c-0.05-0.07,0.05,0.08,0.07,0.1c0.09,0.13,0.17,0.26,0.24,0.39c0.15,0.28,0.2,0.39,0.3,0.71
	c0.04,0.14,0.08,0.28,0.11,0.43c0.03,0.12,0.07,0.36,0.08,0.42c0.14,1.11-0.06,2.34-0.6,3.31c-0.07,0.12-0.14,0.25-0.22,0.37
	c-0.04,0.06-0.08,0.12-0.12,0.17c-0.04,0.06,0,0.01,0-0.01c-0.03,0.04-0.06,0.08-0.1,0.11c-0.09,0.11-0.19,0.21-0.28,0.3
	c-0.05,0.05-0.1,0.09-0.15,0.14c-0.02,0.02-0.05,0.04-0.07,0.06c-0.03,0.02-0.03,0.02-0.01,0.01c0.06-0.04,0.02-0.02-0.11,0.08
	c-0.61,0.51-1.23,0.96-2,1.21c-1.32,0.42-2.69,0.18-3.91-0.47c-1.42-0.75-2.6-1.94-3.46-3.28c-0.16-0.26-0.48-0.38-0.77-0.25
	c-0.3,0.13-0.4,0.41-0.36,0.73c0.03,0.19-0.01-0.07,0.01,0.04c0,0.04,0.01,0.08,0.01,0.12c0.01,0.09,0.02,0.18,0.02,0.26
	c0.01,0.18,0.02,0.36,0.02,0.54c0,0.16-0.01,0.31-0.02,0.46c-0.01,0.09-0.02,0.18-0.02,0.26c0,0.03-0.02,0.12,0-0.01
	c-0.01,0.05-0.02,0.1-0.02,0.15c-0.05,0.3-0.12,0.59-0.22,0.87c-0.02,0.07-0.05,0.14-0.07,0.21c-0.01,0.04-0.1,0.24-0.04,0.1
	c-0.06,0.14-0.13,0.27-0.19,0.4c-0.06,0.11-0.13,0.23-0.2,0.34c-0.04,0.06-0.08,0.13-0.13,0.19c-0.03,0.04-0.16,0.22-0.06,0.09
	c-0.17,0.21-0.35,0.41-0.54,0.59c-0.1,0.09-0.2,0.18-0.3,0.26c-0.13,0.11,0.05-0.03-0.07,0.05c-0.06,0.04-0.12,0.09-0.18,0.13
	c-0.22,0.15-0.46,0.29-0.7,0.41c-0.05,0.03-0.11,0.05-0.16,0.08c-0.03,0.01-0.07,0.03-0.1,0.04c-0.08,0.04,0.11-0.04,0.03-0.01
	c-0.13,0.05-0.26,0.1-0.39,0.14c-0.25,0.08-0.52,0.15-0.78,0.2c-0.06,0.01-0.13,0.02-0.19,0.03c-0.09,0.02,0.11-0.01-0.05,0.01
	c-0.14,0.01-0.29,0.03-0.43,0.03c-0.26,0.01-0.52,0-0.78-0.02c-0.03,0-0.23-0.03-0.13-0.01c0.1,0.01-0.1-0.02-0.13-0.02
	c-0.13-0.02-0.27-0.05-0.4-0.09c-0.12-0.03-0.24-0.06-0.35-0.1c-0.06-0.02-0.12-0.04-0.18-0.07c-0.03-0.01-0.07-0.03-0.1-0.04
	c-0.12-0.04,0.11,0.05-0.01,0c-0.24-0.11-0.47-0.23-0.69-0.37c-0.11-0.07-0.22-0.15-0.32-0.23c0.11,0.08-0.01-0.01-0.05-0.04
	c-0.06-0.05-0.13-0.11-0.19-0.16c-0.12-0.11-0.23-0.22-0.33-0.34c-0.05-0.06-0.1-0.12-0.15-0.18c-0.02-0.02-0.04-0.05-0.06-0.07
	c0.09,0.12,0-0.01-0.02-0.03c-0.19-0.28-0.36-0.56-0.51-0.86c-0.02-0.04-0.03-0.08-0.05-0.12c-0.05-0.11,0.02,0.05-0.01-0.02
	c-0.04-0.09-0.07-0.18-0.1-0.27c-0.06-0.17-0.11-0.35-0.16-0.52c-0.05-0.18-0.09-0.37-0.13-0.56c-0.05-0.27-0.05-0.28-0.08-0.56
	c-0.03-0.33-0.26-0.62-0.62-0.62c-0.34,0-0.61,0.28-0.62,0.62c0,0.17-0.01,0.34-0.03,0.5c0,0.04-0.01,0.07-0.01,0.11
	c0,0-0.02,0.18-0.01,0.08l0,0c0.01-0.09-0.02,0.12-0.04,0.21c0,0.01,0,0.01,0,0.02c-0.06,0.3-0.13,0.59-0.23,0.88
	c-0.03,0.08-0.06,0.15-0.09,0.23c-0.01,0.03-0.05,0.11,0.01-0.01c-0.01,0.03-0.03,0.06-0.04,0.09c-0.07,0.14-0.14,0.28-0.21,0.41
	c-0.07,0.12-0.14,0.23-0.22,0.35c-0.03,0.05-0.07,0.1-0.1,0.15c-0.06,0.09,0,0,0.02-0.02c-0.03,0.03-0.06,0.07-0.08,0.1
	c-0.18,0.21-0.37,0.41-0.58,0.59c-0.04,0.04-0.09,0.07-0.13,0.11c-0.11,0.09,0.08-0.06,0,0c-0.03,0.02-0.06,0.04-0.09,0.07
	c-0.1,0.07-0.21,0.15-0.32,0.21c-0.11,0.07-0.22,0.13-0.34,0.19c-0.06,0.03-0.13,0.07-0.19,0.1c-0.04,0.02-0.25,0.11-0.09,0.04
	c-0.25,0.1-0.49,0.18-0.75,0.25c-0.12,0.03-0.24,0.06-0.36,0.08c-0.07,0.01-0.14,0.03-0.21,0.04c-0.17,0.03,0.08-0.01-0.09,0.01
	c-0.26,0.02-0.53,0.04-0.79,0.04c-0.12,0-0.24-0.01-0.36-0.02c-0.07-0.01-0.14-0.01-0.21-0.02c-0.03,0-0.12-0.02,0.04,0.01
	c-0.04-0.01-0.08-0.01-0.13-0.02c-0.26-0.04-0.52-0.1-0.77-0.18c-0.12-0.03-0.23-0.07-0.35-0.12c-0.03-0.01-0.26-0.11-0.09-0.03
	c-0.06-0.03-0.13-0.06-0.19-0.09c-0.24-0.11-0.47-0.25-0.69-0.39c-0.05-0.04-0.11-0.07-0.16-0.11c-0.14-0.1,0.05,0.04-0.06-0.05
	c-0.11-0.09-0.21-0.18-0.31-0.27c-0.09-0.09-0.19-0.19-0.27-0.28c-0.04-0.04-0.08-0.09-0.12-0.13c-0.02-0.03-0.05-0.06-0.07-0.09
	c-0.03-0.04,0.07,0.1-0.01-0.02c-0.18-0.26-0.35-0.52-0.49-0.8c-0.02-0.04-0.03-0.07-0.05-0.11c-0.01-0.01-0.07-0.16-0.03-0.08
	c0.04,0.09-0.02-0.06-0.02-0.06c-0.02-0.04-0.03-0.09-0.05-0.14c-0.06-0.15-0.1-0.32-0.15-0.47c-0.05-0.18-0.08-0.35-0.11-0.53
	c-0.01-0.03-0.01-0.07-0.02-0.11c-0.01-0.04-0.01-0.03,0,0.03c0-0.03-0.01-0.05-0.01-0.08c-0.01-0.1-0.02-0.2-0.03-0.3
	c-0.03-0.41-0.02-0.83,0.02-1.24c0.05-0.63-0.86-0.81-1.15-0.31c-0.55,0.95-1.13,1.75-1.93,2.49c-0.38,0.36-0.59,0.52-1.01,0.78
	c-0.17,0.1-0.33,0.2-0.51,0.29c-0.08,0.04-0.15,0.08-0.23,0.11c-0.05,0.02-0.09,0.04-0.14,0.06c0.14-0.06-0.06,0.02-0.09,0.03
	c-0.35,0.13-0.71,0.24-1.07,0.3c-0.05,0.01-0.09,0.01-0.14,0.02c-0.16,0.03,0.14-0.01-0.02,0c-0.09,0.01-0.19,0.02-0.28,0.03
	c-0.18,0.01-0.37,0.01-0.55,0.01c-0.17-0.01-0.33-0.02-0.5-0.04c-0.16-0.01,0.14,0.03-0.02,0c-0.04-0.01-0.09-0.01-0.13-0.02
	c-0.09-0.01-0.18-0.04-0.26-0.05c-0.16-0.04-0.32-0.08-0.48-0.13c-0.09-0.03-0.17-0.06-0.25-0.09c-0.05-0.02-0.34-0.14-0.19-0.07
	c-0.31-0.14-0.62-0.3-0.91-0.48c-0.14-0.09-0.27-0.18-0.41-0.28c-0.02-0.02-0.14-0.11-0.02-0.01c-0.03-0.03-0.07-0.06-0.11-0.08
	c-0.07-0.06-0.14-0.11-0.21-0.18c-0.27-0.24-0.52-0.5-0.75-0.78c-0.03-0.03-0.17-0.22-0.07-0.09c-0.05-0.07-0.11-0.14-0.16-0.22
	c-0.1-0.15-0.2-0.3-0.29-0.45c-0.08-0.14-0.16-0.29-0.24-0.43c-0.04-0.08-0.08-0.16-0.12-0.24c-0.01-0.03-0.07-0.17-0.01-0.02
	c-0.02-0.05-0.04-0.1-0.06-0.15c-0.13-0.33-0.23-0.67-0.3-1.01c-0.02-0.09-0.03-0.18-0.05-0.27c0-0.03-0.01-0.06-0.01-0.09
	c-0.03-0.15,0.01,0.14,0-0.01c-0.02-0.18-0.03-0.36-0.04-0.54c0-0.18,0-0.37,0.01-0.55c0.01-0.07,0.01-0.15,0.02-0.23
	c0-0.03,0.03-0.19,0-0.02c0.01-0.06,0.02-0.12,0.03-0.18c0.07-0.41,0.19-0.8,0.35-1.19c-0.06,0.13,0.06-0.12,0.08-0.17
	c0.05-0.11,0.11-0.21,0.16-0.31c0.11-0.2,0.23-0.39,0.36-0.57c0.03-0.04,0.06-0.09,0.1-0.13c0.04-0.06,0.04-0.06,0,0
	c0.02-0.03,0.05-0.06,0.07-0.09c0.07-0.09,0.14-0.17,0.22-0.25c0.17-0.19,0.34-0.37,0.53-0.54c0.44-0.41,0.78-0.66,1.3-0.99
	c0.51-0.32,0.32-1.15-0.31-1.15c-0.27,0-0.54-0.01-0.81-0.03c-0.13-0.01-0.25-0.02-0.37-0.03c-0.06-0.01-0.13-0.01-0.2-0.02
	c-0.07-0.01,0.02,0,0.03,0.01c-0.04-0.01-0.07-0.01-0.11-0.01c-0.47-0.07-0.94-0.18-1.39-0.32c-0.1-0.03-0.2-0.07-0.3-0.1
	c-0.05-0.02-0.1-0.04-0.16-0.06c-0.05-0.02-0.16-0.07-0.05-0.02c-0.19-0.08-0.38-0.17-0.56-0.27c-0.18-0.1-0.36-0.21-0.53-0.32
	c-0.08-0.05-0.15-0.11-0.23-0.16c-0.06-0.04-0.09-0.07-0.01-0.01c-0.04-0.03-0.09-0.07-0.13-0.11c-0.28-0.24-0.54-0.5-0.78-0.78
	c-0.03-0.04-0.06-0.07-0.09-0.11c-0.02-0.03,0.07,0.1,0,0c-0.06-0.08-0.11-0.16-0.17-0.24c-0.1-0.15-0.19-0.3-0.27-0.45
	c-0.08-0.15-0.16-0.31-0.23-0.47c0.07,0.16-0.02-0.06-0.05-0.12c-0.03-0.08-0.06-0.17-0.09-0.25c-0.11-0.33-0.18-0.68-0.24-1.02
	c-0.02-0.12,0.01,0.13,0,0.01c0-0.05-0.01-0.09-0.02-0.13c-0.01-0.09-0.02-0.18-0.02-0.27c-0.01-0.17-0.01-0.34-0.01-0.51
	c0-0.17,0.01-0.34,0.03-0.51c0.01-0.06,0.05-0.31,0.01-0.12c0.02-0.09,0.03-0.18,0.04-0.26c0.06-0.34,0.15-0.68,0.27-1.01
	c0.03-0.08,0.06-0.16,0.09-0.23c0.01-0.03,0.03-0.07,0.04-0.11c-0.07,0.17,0,0.01,0.01-0.03c0.07-0.15,0.15-0.31,0.23-0.46
	c0.09-0.16,0.18-0.31,0.28-0.46c0.05-0.07,0.09-0.14,0.14-0.2c0.02-0.03,0.05-0.06,0.07-0.09c0.05-0.07-0.08,0.09,0.02-0.03
	c0.22-0.27,0.46-0.52,0.72-0.74c0.06-0.06,0.13-0.11,0.19-0.16c0.12-0.1-0.08,0.05,0.01-0.01c0.04-0.03,0.07-0.05,0.11-0.08
	c0.15-0.11,0.3-0.21,0.46-0.3c0.16-0.09,0.32-0.17,0.48-0.25c0.04-0.02,0.07-0.03,0.11-0.05c-0.16,0.07-0.02,0.01,0.02-0.01
	c0.09-0.03,0.18-0.07,0.27-0.1c0.18-0.06,0.36-0.11,0.55-0.16c0.09-0.02,0.18-0.04,0.27-0.06c0.05-0.01,0.1-0.02,0.15-0.03
	c0.04-0.01,0.23-0.03,0.06-0.01c0.42-0.05,0.84-0.07,1.26-0.05c0.11,0.01,0.21,0.01,0.32,0.02c0.06,0.01,0.12,0.01,0.17,0.02
	c0.03,0,0.05,0.01,0.08,0.01c0.09,0.01-0.11-0.02-0.01,0c0.24,0.03,0.47,0.08,0.7,0.13c0.52,0.12,1.03,0.27,1.52,0.47
	c0.06,0.02,0.12,0.04,0.17,0.07c0.02,0.01,0.19,0.08,0.11,0.05c0.14,0.06,0.28,0.12,0.41,0.19c0.3,0.14,0.67,0.08,0.84-0.22
	C12.18,173.61,12.11,173.17,11.81,173.03z"/>
<path class="st0" d="M19.68,185.21c-0.17-0.24-0.32-0.5-0.45-0.76c-0.03-0.06-0.05-0.11-0.08-0.17c-0.05-0.11-0.01-0.02,0,0
	c-0.01-0.03-0.03-0.06-0.04-0.1c-0.05-0.12-0.09-0.25-0.12-0.37c-0.03-0.11-0.06-0.23-0.08-0.34c-0.01-0.06-0.02-0.16-0.01-0.04
	c-0.01-0.07-0.02-0.13-0.02-0.2c-0.01-0.11-0.01-0.21-0.01-0.32c0-0.05,0-0.1,0.01-0.15c0-0.04,0.04-0.25,0-0.06
	c0.04-0.21,0.08-0.4,0.15-0.6c0.02-0.04,0.03-0.09,0.05-0.13c-0.05,0.13-0.01,0.03,0.02-0.03c0.05-0.09,0.1-0.19,0.15-0.27
	c0.05-0.08,0.1-0.15,0.15-0.23c0.09-0.14-0.05,0.04,0.02-0.03c0.03-0.04,0.07-0.08,0.1-0.12c0.14-0.16,0.3-0.29,0.46-0.43
	c0.08-0.07-0.11,0.07,0.02-0.01c0.04-0.03,0.08-0.05,0.11-0.08c0.09-0.06,0.18-0.12,0.27-0.17c0.09-0.05,0.17-0.1,0.27-0.14
	c0.04-0.02,0.08-0.04,0.13-0.06c0.16-0.07-0.08,0.02,0.06-0.02c0.2-0.07,0.39-0.14,0.6-0.19c0.1-0.02,0.2-0.04,0.3-0.06
	c0.08-0.01,0.13-0.02,0.02,0c0.06-0.01,0.12-0.01,0.18-0.02c0.21-0.02,0.42-0.02,0.63-0.01c0.05,0,0.1,0.01,0.14,0.01
	c0.03,0,0.05,0.01,0.08,0.01c0.08,0.01-0.13-0.02-0.04-0.01c0.11,0.02,0.21,0.04,0.32,0.06c0.1,0.02,0.2,0.05,0.29,0.08
	c0.05,0.01,0.09,0.03,0.14,0.05c0.03,0.01,0.05,0.02,0.08,0.03c0.08,0.03-0.14-0.07-0.02-0.01c0.19,0.09,0.37,0.18,0.55,0.3
	c0.03,0.02,0.18,0.13,0.11,0.07c-0.06-0.05,0.08,0.07,0.11,0.09c0.09,0.08,0.18,0.17,0.27,0.26c0.05,0.05,0.09,0.1,0.14,0.15
	c0.03,0.04,0.12,0.16,0.05,0.06c0.08,0.12,0.16,0.23,0.24,0.36c0.07,0.12,0.14,0.25,0.2,0.38c0.02,0.03,0.03,0.06,0.04,0.09
	c0.04,0.09-0.05-0.14,0.01,0.02c0.03,0.07,0.05,0.13,0.08,0.2c0.12,0.33,0.2,0.67,0.26,1.02c0.06,0.33,0.46,0.51,0.76,0.43
	c0.35-0.1,0.48-0.43,0.43-0.76c-0.1-0.63-0.14-1.47-0.06-2.21c0-0.04,0.01-0.09,0.02-0.14c0,0.02-0.02,0.12,0,0
	c0.01-0.08,0.03-0.16,0.04-0.24c0.03-0.16,0.06-0.32,0.11-0.47c0.04-0.14,0.08-0.28,0.13-0.42c0.02-0.07,0.05-0.13,0.08-0.2
	c0.01-0.04,0.06-0.13,0,0c0.02-0.04,0.04-0.08,0.06-0.12c0.11-0.24,0.24-0.47,0.39-0.69c0.04-0.06,0.08-0.11,0.12-0.17
	c-0.08,0.11-0.01,0.01,0.03-0.04c0.09-0.1,0.18-0.21,0.28-0.3c0.08-0.08,0.17-0.16,0.27-0.24c0.05-0.04,0.14-0.1,0.03-0.03
	c0.06-0.04,0.11-0.08,0.17-0.12c0.2-0.13,0.41-0.24,0.62-0.34c0.12-0.06-0.11,0.04-0.03,0.01c0.03-0.01,0.06-0.02,0.09-0.04
	c0.05-0.02,0.1-0.03,0.14-0.05c0.12-0.04,0.24-0.07,0.36-0.1c0.11-0.03,0.22-0.04,0.33-0.06c-0.13,0.02-0.06,0.01,0.02,0
	c0.07-0.01,0.14-0.01,0.21-0.01c0.23-0.01,0.46,0.01,0.69,0.03c-0.2-0.01-0.01,0,0.04,0.01c0.06,0.01,0.11,0.02,0.17,0.03
	c0.12,0.03,0.24,0.06,0.36,0.1c0.1,0.03,0.2,0.07,0.3,0.11c0.08,0.03-0.14-0.07-0.02-0.01c0.02,0.01,0.05,0.02,0.07,0.03
	c0.06,0.03,0.12,0.06,0.17,0.08c0.1,0.05,0.21,0.11,0.3,0.18c0.06,0.03,0.11,0.07,0.16,0.11c0.04,0.03,0.21,0.16,0.07,0.04
	c0.2,0.16,0.38,0.33,0.55,0.52c0.04,0.05,0.08,0.1,0.12,0.14c0.02,0.02,0.03,0.04,0.05,0.07c0.09,0.11-0.06-0.08,0-0.01
	c0.08,0.11,0.16,0.23,0.23,0.34c0.08,0.13,0.16,0.27,0.23,0.41c0.04,0.08,0.07,0.15,0.11,0.23c0.01,0.03,0.04,0.11-0.01-0.02
	c0.02,0.04,0.04,0.09,0.05,0.13c0.13,0.33,0.22,0.67,0.29,1.02c0.02,0.09,0.03,0.18,0.05,0.27c0.01,0.04,0.01,0.07,0.02,0.11
	c-0.02-0.14,0,0.03,0,0.06c0.02,0.21,0.04,0.42,0.04,0.64c0.01,0.44-0.01,0.88-0.06,1.33c-0.06,0.59,0.91,0.87,1.15,0.31
	c0.1-0.23,0.21-0.46,0.34-0.68c0.06-0.1,0.13-0.2,0.19-0.3c0.03-0.05,0.07-0.09,0.1-0.14c-0.06,0.08,0.03-0.03,0.05-0.05
	c0.14-0.17,0.29-0.32,0.46-0.46c0.04-0.03,0.08-0.07,0.12-0.1c-0.11,0.09,0.02-0.02,0.04-0.03c0.08-0.06,0.17-0.12,0.25-0.17
	c0.09-0.05,0.17-0.1,0.26-0.14c0.05-0.02,0.09-0.04,0.13-0.06c0.15-0.07-0.12,0.04,0.03-0.01c0.19-0.06,0.36-0.12,0.56-0.17
	c0.09-0.02,0.19-0.04,0.28-0.05c-0.17,0.02,0.12-0.01,0.17-0.01c0.19-0.01,0.38-0.01,0.57,0.01c0.05,0,0.1,0.01,0.14,0.01
	c0.16,0.01-0.13-0.03,0.02,0c0.09,0.02,0.19,0.03,0.28,0.05c0.19,0.04,0.37,0.1,0.54,0.16c0.05,0.02,0.09,0.04,0.13,0.05
	c-0.15-0.06,0,0,0.03,0.01c0.08,0.04,0.17,0.08,0.25,0.13c0.17,0.09,0.32,0.2,0.48,0.3c0.13,0.09-0.09-0.09,0.02,0.02
	c0.03,0.03,0.07,0.06,0.11,0.09c0.07,0.06,0.14,0.12,0.21,0.19c0.06,0.06,0.11,0.11,0.16,0.17c0.03,0.03,0.06,0.07,0.09,0.11
	c0.11,0.13-0.01-0.02,0.05,0.06c0.1,0.14,0.19,0.29,0.27,0.44c0.05,0.08,0.09,0.17,0.12,0.26c-0.06-0.15,0,0.01,0.01,0.03
	c0.02,0.06,0.04,0.12,0.06,0.18c0.03,0.11,0.06,0.22,0.08,0.33c0.01,0.03,0.01,0.07,0.02,0.1c0.01,0.03,0.01,0.07,0.02,0.1
	c-0.01-0.08-0.01-0.09,0-0.01c0.01,0.25,0.03,0.49,0,0.73c0,0.02-0.02,0.2,0,0.05c-0.01,0.06-0.02,0.11-0.03,0.17
	c-0.02,0.13-0.06,0.27-0.09,0.4c-0.09,0.31-0.16,0.49-0.28,0.74c-0.14,0.3-0.08,0.66,0.22,0.84c0.27,0.16,0.7,0.08,0.84-0.22
	c0.48-1,0.71-2.09,0.49-3.19c-0.17-0.89-0.68-1.73-1.36-2.32c-1.43-1.24-3.48-1.58-5.21-0.78c-0.89,0.42-1.59,1.16-2.07,2.01
	c-0.15,0.27,0.01,0.6,0.31,0.68l0,0c0.3,0.08,0.61-0.13,0.63-0.44c0.07-1.34-0.14-2.69-0.76-3.88c-0.57-1.07-1.49-1.91-2.61-2.37
	c-2.19-0.88-4.69,0.1-5.83,2.12c-0.76,1.34-0.9,2.9-0.75,4.41c0.04,0.36,0.39,0.59,0.75,0.5l0,0c0.3-0.08,0.49-0.38,0.42-0.69
	c-0.26-0.99-0.75-1.94-1.54-2.6c-0.81-0.67-1.83-1.02-2.88-1.01c-1.95,0.02-3.99,1.25-4.48,3.23c-0.33,1.31,0.11,2.65,0.86,3.74
	c0.19,0.27,0.54,0.4,0.84,0.22C19.73,185.9,19.86,185.49,19.68,185.21z"/>
<path class="st0" d="M11.16,50.55c-1.8-0.84-3.83-1.34-5.81-0.88c-1.51,0.35-2.83,1.29-3.69,2.57c-0.8,1.19-1.19,2.68-1.1,4.11
	c0.09,1.52,0.7,2.98,1.78,4.07c1.31,1.32,3.13,1.91,4.95,2.05c0.08,0.01,0.16,0.01,0.24,0.01c0.28,0.01,0.48-0.25,0.41-0.52l0,0
	c-0.07-0.27-0.39-0.4-0.62-0.23c-1.36,0.97-2.49,2.28-2.94,3.91c-0.41,1.49-0.2,3.07,0.48,4.45c1.33,2.72,4.5,4.45,7.49,3.61
	c1.97-0.56,3.48-2.07,4.57-3.76c0.16-0.25,0.03-0.58-0.26-0.65l0,0c-0.27-0.07-0.54,0.12-0.55,0.4c-0.02,1.19,0.23,2.4,0.87,3.41
	c0.64,1.02,1.61,1.77,2.73,2.2c2.12,0.81,4.73,0.34,6.32-1.3c0.92-0.94,1.41-2.17,1.54-3.46c0.03-0.31-0.22-0.56-0.53-0.56l0,0
	c-0.32,0-0.58,0.28-0.52,0.6c0.2,1.2,0.65,2.35,1.49,3.26c0.77,0.84,1.84,1.42,2.97,1.62c2.34,0.42,4.82-0.57,6.12-2.6
	c0.74-1.15,0.96-2.5,0.86-3.83c-0.02-0.3-0.34-0.48-0.62-0.36l0,0c-0.27,0.11-0.37,0.44-0.2,0.67c1.68,2.36,4.49,4.37,7.49,3.73
	c0.85-0.18,1.63-0.58,2.31-1.11c0.57-0.44,1.1-0.9,1.51-1.51c0.73-1.08,1.05-2.48,0.97-3.77c-0.09-1.36-0.61-2.66-1.63-3.55
	c-0.19-0.16-0.46-0.04-0.5,0.21l0,0c-0.03,0.24,0.2,0.44,0.43,0.34c1.24-0.51,2.33-1.32,3.08-2.46c0.72-1.09,1.05-2.44,1-3.74
	c-0.12-2.67-1.85-5.18-4.51-5.84c-1.7-0.42-3.45-0.06-5.02,0.63c-0.23,0.1-0.26,0.41-0.06,0.56l0,0c0.2,0.15,0.48,0.05,0.53-0.19
	c0.29-1.51,0.32-3.09-0.16-4.56c-0.42-1.31-1.22-2.45-2.35-3.24c-2.15-1.52-5.13-1.34-7.26,0.14c-1.32,0.92-2.28,2.22-2.92,3.67
	c-0.13,0.29,0.07,0.62,0.38,0.67l0,0c0.28,0.04,0.54-0.17,0.54-0.45c0.01-1.98-0.86-4-2.73-4.9c-1.72-0.83-3.85-0.5-5.07,1.03
	c-0.74,0.93-1.08,2.08-1.16,3.25c-0.02,0.31,0.26,0.56,0.57,0.52l0,0c0.3-0.04,0.5-0.33,0.43-0.62c-0.38-1.46-1.09-2.86-2.24-3.86
	c-1.07-0.94-2.42-1.48-3.84-1.57c-2.61-0.17-5.45,1.24-6.56,3.68c-0.71,1.54-0.67,3.27-0.04,4.83c0.12,0.29,0.39,0.49,0.71,0.41
	c0.28-0.08,0.52-0.42,0.41-0.71c-0.14-0.35-0.26-0.71-0.34-1.09c-0.02-0.08-0.03-0.15-0.04-0.23c-0.01-0.04-0.01-0.09-0.02-0.14
	c-0.03-0.15,0.01,0.13,0-0.02c-0.02-0.16-0.03-0.32-0.04-0.48c-0.01-0.16,0-0.31,0.01-0.47c0-0.07,0.01-0.14,0.02-0.21
	c0-0.04,0.01-0.08,0.01-0.12c-0.02,0.17,0-0.01,0.01-0.05c0.05-0.29,0.12-0.58,0.22-0.86c0.02-0.06,0.05-0.12,0.07-0.19
	c0.05-0.13-0.06,0.12,0-0.01c0.02-0.03,0.03-0.07,0.05-0.11c0.06-0.14,0.13-0.27,0.21-0.4c0.07-0.12,0.14-0.23,0.22-0.35
	c0.04-0.07,0.09-0.13,0.14-0.19c-0.09,0.13,0.05-0.06,0.08-0.1c0.19-0.22,0.39-0.43,0.6-0.61c0.06-0.05,0.12-0.1,0.18-0.15
	c0.02-0.02,0.04-0.03,0.06-0.05c0.11-0.09-0.11,0.07,0.01-0.01c0.13-0.09,0.26-0.19,0.39-0.27c0.25-0.16,0.51-0.3,0.77-0.42
	c0.04-0.02,0.07-0.03,0.11-0.05c0.12-0.06-0.09,0.04-0.01,0c0.07-0.03,0.14-0.06,0.21-0.08c0.15-0.06,0.3-0.11,0.46-0.15
	c0.28-0.08,0.57-0.15,0.86-0.2c0.04-0.01,0.08-0.01,0.12-0.02c-0.15,0.02-0.07,0.01-0.03,0.01c0.08-0.01,0.16-0.02,0.24-0.02
	c0.15-0.01,0.3-0.02,0.44-0.02c0.15,0,0.3,0,0.44,0.01c0.07,0,0.15,0.01,0.22,0.02c0.05,0,0.32,0.04,0.15,0.01
	c0.3,0.05,0.59,0.11,0.87,0.19c0.14,0.04,0.29,0.09,0.43,0.15c0.04,0.01,0.08,0.03,0.11,0.05c-0.13-0.05-0.05-0.02-0.02-0.01
	c0.09,0.04,0.18,0.08,0.26,0.12c0.28,0.14,0.54,0.31,0.79,0.49c0.02,0.02,0.14,0.11,0.02,0.01c0.03,0.03,0.07,0.06,0.1,0.08
	c0.08,0.07,0.16,0.13,0.23,0.2c0.13,0.12,0.26,0.25,0.38,0.38c0.07,0.07,0.13,0.15,0.2,0.23c0.02,0.03,0.05,0.06,0.07,0.09
	c-0.09-0.11,0.04,0.05,0.05,0.07c0.11,0.16,0.22,0.32,0.32,0.48c0.11,0.19,0.22,0.38,0.31,0.58c0.12,0.24,0.12,0.26,0.22,0.5
	C21.77,48,21.9,48.49,22,48.99c0.13,0.65,1.14,0.49,1.14-0.15c0-0.31,0.02-0.62,0.05-0.92c0.01-0.12,0.01-0.04,0-0.02
	c0.01-0.04,0.01-0.08,0.02-0.11c0.01-0.07,0.02-0.13,0.03-0.19c0.03-0.13,0.06-0.26,0.09-0.39c0.03-0.12,0.07-0.25,0.11-0.37
	c0.02-0.05,0.04-0.11,0.06-0.16c0.01-0.03,0.02-0.06,0.04-0.09c-0.02,0.05-0.03,0.06,0,0.01c0.1-0.21,0.21-0.42,0.34-0.62
	c0.03-0.04,0.06-0.08,0.09-0.13c0,0,0,0,0,0c0-0.01,0.02-0.03,0.03-0.04l0,0c0.07-0.09,0.14-0.17,0.22-0.25
	c0.07-0.07,0.13-0.13,0.21-0.2c0.03-0.03,0.07-0.06,0.11-0.09c0.08-0.07-0.01,0.01-0.02,0.02c0.03-0.02,0.05-0.04,0.08-0.06
	c0.16-0.11,0.32-0.21,0.5-0.3c0.04-0.02,0.08-0.04,0.12-0.06c-0.15,0.07,0,0,0.04-0.01c0.09-0.03,0.18-0.06,0.27-0.09
	c0.09-0.02,0.18-0.05,0.27-0.06c0.04-0.01,0.09-0.01,0.13-0.02c0.07-0.01-0.07,0.01-0.06,0.01c0.03,0,0.06-0.01,0.09-0.01
	c0.19-0.02,0.38-0.02,0.57-0.01c0.05,0,0.1,0.01,0.15,0.01c0.13,0.01-0.09-0.02,0.01,0c0.1,0.02,0.2,0.03,0.3,0.06
	c0.19,0.04,0.37,0.11,0.55,0.17c0.1,0.03-0.11-0.05,0.02,0.01c0.04,0.02,0.08,0.04,0.12,0.06c0.09,0.05,0.19,0.1,0.28,0.15
	c0.08,0.05,0.16,0.1,0.23,0.15c0.04,0.03,0.09,0.06,0.13,0.09c-0.1-0.08,0,0,0.04,0.03c0.16,0.13,0.31,0.28,0.44,0.43
	c0.03,0.04,0.07,0.08,0.1,0.11c0.03,0.04,0.09,0.12,0.03,0.03c0.07,0.09,0.13,0.19,0.2,0.28c0.07,0.11,0.13,0.22,0.19,0.33
	c0.03,0.05,0.05,0.11,0.08,0.16c0.02,0.03,0.09,0.22,0.04,0.09c0.1,0.25,0.18,0.51,0.24,0.78c0.03,0.13,0.05,0.27,0.08,0.4
	c0.02,0.11,0,0.02,0,0c0,0.04,0.01,0.09,0.01,0.13c0.01,0.07,0.01,0.14,0.02,0.22c0.02,0.33,0.01,0.67-0.01,1
	c-0.02,0.29,0.24,0.54,0.51,0.57c0.3,0.04,0.53-0.14,0.64-0.42c0.24-0.63,0.61-1.36,1.05-1.98c0.05-0.07,0.1-0.14,0.16-0.21
	c-0.07,0.09,0.07-0.08,0.09-0.11c0.11-0.14,0.23-0.27,0.35-0.4c0.22-0.24,0.47-0.46,0.72-0.66c0.02-0.01,0.14-0.11,0.03-0.03
	c0.02-0.02,0.05-0.04,0.08-0.06c0.06-0.04,0.13-0.09,0.19-0.14c0.13-0.09,0.27-0.18,0.41-0.26c0.12-0.07,0.25-0.14,0.38-0.2
	c0.07-0.03,0.13-0.07,0.2-0.1c0.03-0.01,0.07-0.03,0.1-0.04c0.04-0.02,0.03-0.01-0.04,0.02c0.03-0.01,0.06-0.02,0.08-0.03
	c0.27-0.1,0.55-0.19,0.83-0.26c0.13-0.03,0.26-0.06,0.4-0.08c0.03-0.01,0.07-0.01,0.11-0.02c0.14-0.02-0.1,0.01-0.01,0
	c0.08-0.01,0.15-0.02,0.23-0.02c0.28-0.02,0.56-0.03,0.83-0.01c0.07,0,0.14,0.01,0.21,0.02c0.04,0,0.26,0.04,0.09,0.01
	c0.14,0.02,0.28,0.05,0.42,0.08c0.27,0.06,0.54,0.14,0.8,0.24c0.02,0.01,0.05,0.02,0.08,0.03c0.13,0.05-0.12-0.06,0.01,0.01
	c0.06,0.03,0.11,0.05,0.17,0.08c0.13,0.06,0.25,0.13,0.38,0.2c0.12,0.07,0.23,0.14,0.35,0.22c0.05,0.03,0.1,0.07,0.15,0.11
	c0.07,0.05-0.11-0.09,0,0c0.03,0.03,0.07,0.05,0.1,0.08c0.22,0.19,0.43,0.39,0.61,0.61c0.04,0.05,0.08,0.1,0.12,0.15
	c0.1,0.11-0.07-0.1,0.01,0.02c0.02,0.02,0.03,0.05,0.05,0.07c0.1,0.13,0.18,0.26,0.27,0.4c0.07,0.12,0.13,0.23,0.2,0.35
	c0.03,0.07,0.07,0.14,0.1,0.21c0.02,0.04,0.04,0.09,0.06,0.13c-0.04-0.09-0.01-0.01,0.01,0.03c0.13,0.34,0.24,0.69,0.32,1.05
	c0.02,0.09,0.04,0.18,0.06,0.28c0.01,0.05,0.02,0.1,0.02,0.15c0,0.03,0.02,0.18,0.01,0.06c0.02,0.2,0.04,0.4,0.05,0.6
	c0.02,0.45,0.01,0.9-0.03,1.34c-0.04,0.45-0.12,0.89-0.23,1.39c-0.12,0.51,0.4,0.88,0.85,0.66c0.72-0.35,1.51-0.64,2.35-0.79
	c0.09-0.02,0.18-0.03,0.26-0.04c-0.13,0.02,0.12-0.01,0.15-0.02c0.18-0.02,0.36-0.03,0.55-0.03c0.16,0,0.32,0,0.48,0.01
	c0.08,0,0.15,0.01,0.23,0.02c0.04,0,0.09,0.01,0.14,0.02c-0.15-0.02-0.01,0,0.03,0.01c0.32,0.06,0.63,0.13,0.93,0.24
	c0.07,0.02,0.13,0.05,0.2,0.08c0.03,0.01,0.1,0.04-0.02-0.01c0.04,0.02,0.08,0.03,0.11,0.05c0.14,0.06,0.27,0.13,0.41,0.21
	c0.12,0.07,0.23,0.14,0.35,0.22c0.06,0.04,0.11,0.08,0.16,0.12c0.11,0.08-0.1-0.08,0.01,0.01c0.03,0.03,0.06,0.05,0.09,0.08
	c0.22,0.18,0.42,0.38,0.6,0.59c0.05,0.06,0.09,0.11,0.14,0.17c0.02,0.03,0.08,0.11,0-0.01c0.02,0.03,0.04,0.05,0.06,0.08
	c0.09,0.13,0.18,0.25,0.26,0.38c0.15,0.24,0.27,0.49,0.39,0.75c-0.07-0.15,0.02,0.05,0.03,0.09c0.02,0.06,0.05,0.13,0.07,0.19
	c0.05,0.14,0.09,0.28,0.13,0.43c0.03,0.13,0.07,0.26,0.09,0.4c0.01,0.07,0.02,0.13,0.04,0.2c0.01,0.04,0.01,0.08,0.02,0.12
	c-0.02-0.16,0-0.03,0,0.01c0.03,0.29,0.05,0.58,0.04,0.87c0,0.14-0.01,0.28-0.03,0.43c0,0.04-0.03,0.26-0.01,0.09
	c-0.01,0.08-0.02,0.16-0.04,0.24c-0.05,0.28-0.12,0.56-0.22,0.83c-0.02,0.07-0.04,0.13-0.07,0.19c-0.01,0.04-0.1,0.24-0.03,0.09
	c-0.06,0.14-0.13,0.28-0.2,0.41c-0.08,0.15-0.17,0.29-0.26,0.43c-0.05,0.07-0.1,0.14-0.14,0.21c-0.02,0.02-0.1,0.14-0.01,0.02
	c-0.03,0.03-0.05,0.07-0.08,0.1c-0.22,0.27-0.47,0.53-0.75,0.75c-0.03,0.02-0.06,0.05-0.09,0.07c-0.12,0.1,0.05-0.03-0.04,0.03
	c-0.08,0.05-0.15,0.11-0.23,0.16c-0.16,0.11-0.32,0.21-0.49,0.3c-0.18,0.1-0.35,0.18-0.54,0.26c0.02-0.01,0.1-0.04,0,0
	c-0.06,0.02-0.11,0.04-0.17,0.07c-0.11,0.04-0.22,0.08-0.33,0.11c-0.49,0.16-0.56,0.78-0.14,1.06c0.18,0.12,0.37,0.29,0.57,0.5
	c0.04,0.05,0.09,0.1,0.13,0.15c-0.05-0.06,0.05,0.07,0.07,0.09c0.08,0.12,0.16,0.24,0.23,0.37c0.14,0.26,0.19,0.37,0.28,0.67
	c0.04,0.13,0.08,0.27,0.11,0.4c0.03,0.12,0.07,0.34,0.07,0.4c0.13,1.05-0.06,2.2-0.57,3.12c-0.07,0.12-0.14,0.23-0.21,0.34
	c-0.04,0.06-0.08,0.11-0.12,0.16c-0.04,0.05,0,0,0-0.01c-0.03,0.04-0.06,0.07-0.09,0.11c-0.09,0.1-0.18,0.19-0.27,0.29
	c-0.05,0.04-0.1,0.09-0.14,0.13c-0.02,0.02-0.04,0.03-0.06,0.05c-0.03,0.02-0.03,0.02-0.01,0.01c0.06-0.04,0.02-0.01-0.1,0.08
	c-0.57,0.48-1.16,0.91-1.88,1.14c-1.25,0.4-2.54,0.17-3.69-0.44c-1.34-0.71-2.45-1.83-3.26-3.09c-0.15-0.24-0.46-0.36-0.73-0.24
	c-0.29,0.13-0.38,0.39-0.34,0.69c0.03,0.18-0.01-0.07,0.01,0.04c0,0.04,0.01,0.08,0.01,0.11c0.01,0.08,0.02,0.16,0.02,0.25
	c0.01,0.17,0.02,0.34,0.02,0.51c0,0.15-0.01,0.29-0.02,0.44c-0.01,0.08-0.02,0.17-0.02,0.25c0,0.03-0.02,0.11,0-0.01
	c-0.01,0.05-0.01,0.1-0.02,0.14c-0.05,0.28-0.11,0.55-0.2,0.82c-0.02,0.07-0.04,0.13-0.07,0.19c-0.01,0.03-0.1,0.22-0.03,0.09
	c-0.06,0.13-0.12,0.25-0.18,0.38c-0.06,0.11-0.12,0.21-0.19,0.32c-0.04,0.06-0.08,0.12-0.12,0.18c-0.02,0.03-0.15,0.21-0.06,0.09
	c-0.16,0.2-0.33,0.39-0.51,0.56c-0.09,0.09-0.19,0.17-0.28,0.25c-0.13,0.11,0.05-0.03-0.06,0.05c-0.06,0.04-0.11,0.08-0.17,0.12
	c-0.21,0.14-0.43,0.27-0.66,0.38c-0.05,0.02-0.1,0.05-0.15,0.07C34.04,74,34,74.01,33.97,74.02c-0.07,0.03,0.1-0.04,0.02-0.01
	c-0.12,0.05-0.24,0.09-0.37,0.13c-0.24,0.08-0.49,0.14-0.74,0.19c-0.06,0.01-0.12,0.02-0.18,0.03c-0.09,0.02,0.1-0.01-0.05,0.01
	c-0.14,0.01-0.27,0.02-0.41,0.03c-0.24,0.01-0.49,0-0.73-0.02c-0.03,0-0.22-0.03-0.12-0.01c0.09,0.01-0.09-0.02-0.12-0.02
	c-0.13-0.02-0.25-0.05-0.38-0.08c-0.11-0.03-0.22-0.06-0.33-0.1c-0.06-0.02-0.12-0.04-0.17-0.06c-0.03-0.01-0.06-0.02-0.1-0.04
	c-0.11-0.04,0.11,0.05-0.01,0c-0.22-0.1-0.44-0.21-0.65-0.35c-0.11-0.07-0.21-0.14-0.31-0.21c0.1,0.08-0.01-0.01-0.05-0.04
	c-0.06-0.05-0.12-0.1-0.18-0.15c-0.11-0.1-0.22-0.21-0.32-0.32c-0.05-0.06-0.1-0.11-0.14-0.17c-0.02-0.02-0.04-0.05-0.06-0.07
	c0.09,0.11,0-0.01-0.02-0.02c-0.18-0.26-0.34-0.53-0.48-0.81c-0.02-0.04-0.03-0.07-0.05-0.11c-0.05-0.1,0.02,0.05-0.01-0.02
	c-0.03-0.08-0.07-0.17-0.1-0.25c-0.06-0.16-0.11-0.33-0.15-0.49c-0.05-0.18-0.09-0.35-0.12-0.53c-0.05-0.25-0.05-0.26-0.07-0.53
	c-0.03-0.31-0.25-0.58-0.58-0.58c-0.32,0-0.57,0.27-0.58,0.58c0,0.16-0.01,0.32-0.03,0.48c0,0.03-0.01,0.07-0.01,0.1
	c0,0-0.02,0.16-0.01,0.08l0,0c0.01-0.08-0.02,0.12-0.03,0.2c0,0.01,0,0.01,0,0.02c-0.05,0.28-0.12,0.56-0.22,0.83
	c-0.03,0.07-0.05,0.14-0.08,0.21c-0.01,0.03-0.05,0.1,0.01-0.01c-0.01,0.03-0.02,0.05-0.04,0.08c-0.06,0.13-0.13,0.26-0.2,0.39
	c-0.07,0.11-0.13,0.22-0.21,0.33c-0.03,0.05-0.07,0.09-0.1,0.14c-0.06,0.09,0,0,0.01-0.02c-0.03,0.03-0.05,0.07-0.08,0.1
	c-0.17,0.2-0.35,0.39-0.55,0.56c-0.04,0.03-0.08,0.07-0.13,0.1c-0.1,0.09,0.08-0.06,0,0c-0.03,0.02-0.06,0.04-0.08,0.06
	c-0.1,0.07-0.2,0.14-0.3,0.2c-0.1,0.06-0.21,0.12-0.32,0.18c-0.06,0.03-0.12,0.06-0.18,0.09c-0.04,0.02-0.23,0.1-0.08,0.04
	c-0.23,0.09-0.47,0.17-0.71,0.24c-0.11,0.03-0.22,0.05-0.34,0.08c-0.07,0.01-0.13,0.02-0.2,0.03c-0.16,0.03,0.08,0-0.09,0.01
	c-0.25,0.02-0.5,0.04-0.75,0.03c-0.11,0-0.23-0.01-0.34-0.02c-0.07-0.01-0.13-0.01-0.2-0.02c-0.03,0-0.11-0.02,0.03,0.01
	c-0.04-0.01-0.08-0.01-0.12-0.02c-0.25-0.04-0.49-0.1-0.73-0.17c-0.11-0.03-0.22-0.07-0.33-0.11c-0.03-0.01-0.24-0.1-0.09-0.03
	c-0.06-0.03-0.12-0.06-0.18-0.08c-0.23-0.11-0.44-0.23-0.65-0.37c-0.05-0.03-0.1-0.07-0.15-0.11c-0.13-0.1,0.04,0.04-0.06-0.04
	c-0.1-0.08-0.2-0.17-0.29-0.26c-0.09-0.09-0.18-0.18-0.26-0.27c-0.04-0.04-0.07-0.08-0.11-0.13c-0.02-0.03-0.04-0.06-0.07-0.08
	c-0.03-0.04,0.06,0.09-0.01-0.02c-0.17-0.24-0.33-0.49-0.46-0.76c-0.02-0.03-0.03-0.07-0.05-0.1c-0.01-0.01-0.07-0.15-0.03-0.08
	c0.03,0.09-0.02-0.05-0.02-0.06c-0.02-0.04-0.03-0.09-0.05-0.13c-0.05-0.15-0.1-0.3-0.14-0.45c-0.04-0.16-0.08-0.33-0.11-0.5
	c-0.01-0.03-0.01-0.07-0.02-0.1c-0.01-0.04-0.01-0.03,0,0.03c0-0.02-0.01-0.05-0.01-0.08c-0.01-0.1-0.02-0.19-0.03-0.29
	c-0.03-0.39-0.02-0.78,0.02-1.17c0.05-0.59-0.81-0.77-1.08-0.29c-0.52,0.89-1.07,1.65-1.82,2.35c-0.36,0.34-0.55,0.49-0.95,0.74
	c-0.16,0.1-0.32,0.19-0.48,0.27c-0.07,0.04-0.14,0.07-0.22,0.11c-0.04,0.02-0.09,0.04-0.13,0.06c0.13-0.06-0.06,0.02-0.08,0.03
	c-0.33,0.13-0.67,0.22-1.01,0.28c-0.04,0.01-0.09,0.01-0.13,0.02c-0.15,0.03,0.13-0.01-0.02,0c-0.09,0.01-0.18,0.02-0.26,0.02
	c-0.17,0.01-0.35,0.01-0.52,0.01c-0.16-0.01-0.31-0.02-0.47-0.04c-0.15-0.01,0.13,0.02-0.01,0c-0.04-0.01-0.08-0.01-0.13-0.02
	c-0.08-0.01-0.17-0.03-0.25-0.05c-0.15-0.03-0.3-0.08-0.45-0.12c-0.08-0.02-0.16-0.05-0.24-0.08c-0.05-0.02-0.32-0.13-0.18-0.07
	c-0.3-0.13-0.58-0.28-0.86-0.46c-0.13-0.08-0.26-0.17-0.38-0.26c-0.02-0.02-0.13-0.11-0.02-0.01c-0.03-0.03-0.07-0.05-0.1-0.08
	c-0.07-0.05-0.13-0.11-0.19-0.16c-0.25-0.23-0.49-0.47-0.71-0.73c-0.02-0.03-0.16-0.21-0.07-0.08c-0.05-0.07-0.1-0.14-0.15-0.21
	c-0.1-0.14-0.19-0.28-0.28-0.43c-0.08-0.13-0.15-0.27-0.22-0.41c-0.04-0.08-0.07-0.15-0.11-0.23c-0.01-0.03-0.07-0.16-0.01-0.02
	c-0.02-0.04-0.04-0.09-0.05-0.14c-0.12-0.31-0.22-0.63-0.28-0.95c-0.02-0.08-0.03-0.17-0.05-0.25c0-0.03-0.01-0.06-0.01-0.08
	c-0.02-0.14,0.01,0.13,0-0.01c-0.01-0.17-0.03-0.34-0.03-0.51c0-0.17,0-0.34,0.01-0.52c0.01-0.07,0.01-0.14,0.02-0.22
	c0-0.03,0.03-0.18,0-0.02c0.01-0.06,0.02-0.12,0.03-0.17c0.07-0.38,0.18-0.76,0.33-1.12c-0.05,0.13,0.05-0.11,0.08-0.16
	c0.05-0.1,0.1-0.2,0.15-0.3c0.1-0.19,0.22-0.37,0.34-0.54c0.03-0.04,0.06-0.08,0.09-0.12c0.04-0.05,0.04-0.05,0,0
	c0.02-0.03,0.04-0.06,0.07-0.08c0.07-0.08,0.13-0.16,0.2-0.24c0.16-0.18,0.32-0.35,0.5-0.51c0.41-0.39,0.74-0.63,1.23-0.94
	c0.48-0.3,0.3-1.08-0.29-1.08c-0.25,0-0.51-0.01-0.77-0.03c-0.12-0.01-0.23-0.02-0.35-0.03c-0.06-0.01-0.12-0.01-0.19-0.02
	c-0.07-0.01,0.02,0,0.02,0c-0.03,0-0.07-0.01-0.1-0.01c-0.44-0.07-0.88-0.17-1.31-0.31c-0.09-0.03-0.19-0.06-0.28-0.1
	c-0.05-0.02-0.1-0.04-0.15-0.06c-0.04-0.02-0.15-0.07-0.05-0.02c-0.18-0.08-0.35-0.16-0.53-0.25c-0.17-0.09-0.34-0.19-0.5-0.3
	c-0.07-0.05-0.14-0.1-0.21-0.15c-0.05-0.04-0.08-0.07-0.01-0.01c-0.04-0.03-0.08-0.07-0.12-0.1c-0.27-0.22-0.51-0.47-0.73-0.74
	c-0.03-0.03-0.05-0.07-0.08-0.1c-0.02-0.03,0.07,0.09,0,0c-0.05-0.08-0.11-0.15-0.16-0.23c-0.09-0.14-0.18-0.28-0.26-0.43
	c-0.08-0.14-0.15-0.29-0.22-0.44c0.07,0.15-0.02-0.06-0.04-0.11c-0.03-0.08-0.06-0.16-0.08-0.24c-0.1-0.32-0.17-0.64-0.23-0.97
	c-0.02-0.11,0.01,0.12,0,0.01c0-0.04-0.01-0.08-0.01-0.12c-0.01-0.08-0.01-0.17-0.02-0.25c-0.01-0.16-0.01-0.32-0.01-0.48
	c0-0.16,0.01-0.32,0.03-0.48c0.01-0.06,0.04-0.29,0.01-0.11c0.01-0.08,0.02-0.17,0.04-0.25c0.06-0.32,0.14-0.64,0.25-0.95
	c0.03-0.07,0.05-0.15,0.08-0.22c0.01-0.03,0.03-0.07,0.04-0.1c-0.07,0.16,0,0.01,0.01-0.03c0.07-0.15,0.14-0.29,0.22-0.43
	c0.08-0.15,0.17-0.29,0.26-0.43c0.04-0.07,0.09-0.13,0.13-0.19c0.02-0.03,0.04-0.06,0.07-0.09c0.05-0.06-0.07,0.09,0.02-0.02
	c0.21-0.25,0.43-0.49,0.68-0.7c0.06-0.05,0.12-0.1,0.18-0.15c0.11-0.09-0.07,0.05,0.01-0.01c0.03-0.02,0.07-0.05,0.1-0.08
	c0.14-0.1,0.29-0.19,0.44-0.28c0.15-0.09,0.3-0.16,0.45-0.23c0.03-0.02,0.07-0.03,0.11-0.05c-0.15,0.07-0.01,0.01,0.02-0.01
	c0.09-0.03,0.17-0.07,0.26-0.09c0.17-0.06,0.34-0.11,0.52-0.15c0.09-0.02,0.17-0.04,0.26-0.06c0.05-0.01,0.1-0.02,0.14-0.02
	c0.04-0.01,0.21-0.03,0.05-0.01c0.39-0.05,0.79-0.06,1.19-0.04c0.1,0.01,0.2,0.01,0.3,0.02c0.05,0.01,0.11,0.01,0.16,0.02
	c0.02,0,0.05,0.01,0.07,0.01c0.09,0.01-0.1-0.01-0.01,0c0.22,0.03,0.44,0.07,0.66,0.12c0.49,0.11,0.97,0.26,1.44,0.44
	c0.05,0.02,0.11,0.04,0.16,0.07c0.02,0.01,0.18,0.07,0.11,0.04c0.13,0.06,0.26,0.11,0.39,0.18c0.28,0.13,0.63,0.08,0.8-0.21
	C11.52,51.1,11.45,50.68,11.16,50.55z"/>
<path class="st0" d="M18.58,62.04c-0.16-0.23-0.3-0.47-0.43-0.72c-0.03-0.05-0.05-0.11-0.07-0.16c-0.05-0.1-0.01-0.02,0,0
	c-0.01-0.03-0.02-0.06-0.03-0.09c-0.04-0.12-0.08-0.23-0.12-0.35c-0.03-0.11-0.05-0.21-0.07-0.32c-0.01-0.06-0.02-0.15-0.01-0.03
	c-0.01-0.06-0.01-0.12-0.02-0.19c-0.01-0.1-0.01-0.2-0.01-0.3c0-0.05,0-0.09,0.01-0.14c0-0.04,0.03-0.23,0-0.06
	c0.03-0.19,0.08-0.38,0.14-0.57c0.01-0.04,0.03-0.08,0.05-0.12c-0.04,0.12-0.01,0.03,0.02-0.03c0.04-0.09,0.09-0.18,0.14-0.26
	c0.04-0.07,0.09-0.14,0.14-0.21c0.09-0.13-0.04,0.04,0.02-0.03c0.03-0.04,0.06-0.08,0.1-0.11c0.13-0.15,0.28-0.28,0.43-0.41
	c0.08-0.07-0.1,0.07,0.02-0.01c0.04-0.02,0.07-0.05,0.11-0.08c0.08-0.06,0.17-0.11,0.25-0.16c0.08-0.05,0.16-0.09,0.25-0.13
	c0.04-0.02,0.08-0.04,0.12-0.06c0.15-0.07-0.07,0.02,0.06-0.02c0.19-0.07,0.37-0.13,0.56-0.18c0.09-0.02,0.19-0.04,0.28-0.06
	c0.08-0.01,0.12-0.02,0.02,0c0.06-0.01,0.11-0.01,0.17-0.02c0.2-0.02,0.4-0.02,0.59-0.01c0.04,0,0.09,0.01,0.13,0.01
	c0.03,0,0.05,0.01,0.08,0.01c0.08,0.01-0.12-0.02-0.04-0.01c0.1,0.02,0.2,0.03,0.3,0.06c0.09,0.02,0.19,0.05,0.28,0.08
	c0.04,0.01,0.09,0.03,0.13,0.04c0.02,0.01,0.05,0.02,0.07,0.03c0.07,0.03-0.13-0.06-0.01-0.01c0.18,0.09,0.35,0.17,0.52,0.28
	c0.03,0.02,0.17,0.12,0.1,0.07c-0.06-0.04,0.08,0.06,0.1,0.08c0.09,0.08,0.17,0.16,0.25,0.24c0.04,0.05,0.09,0.09,0.13,0.14
	c0.03,0.04,0.12,0.15,0.04,0.05c0.08,0.11,0.15,0.22,0.22,0.34c0.07,0.11,0.13,0.23,0.19,0.35c0.01,0.03,0.03,0.06,0.04,0.09
	c0.04,0.08-0.05-0.13,0.01,0.02c0.02,0.06,0.05,0.13,0.07,0.19c0.11,0.31,0.19,0.63,0.24,0.96c0.05,0.31,0.43,0.48,0.71,0.41
	c0.33-0.09,0.45-0.4,0.41-0.71c-0.09-0.6-0.13-1.39-0.06-2.08c0-0.04,0.01-0.09,0.01-0.13c0,0.02-0.02,0.12,0,0
	c0.01-0.07,0.02-0.15,0.04-0.22c0.03-0.15,0.06-0.3,0.1-0.45c0.04-0.13,0.08-0.26,0.12-0.39c0.02-0.06,0.05-0.13,0.07-0.19
	c0.01-0.03,0.06-0.13,0,0c0.02-0.04,0.03-0.08,0.05-0.12c0.11-0.23,0.23-0.44,0.37-0.65c0.04-0.06,0.08-0.11,0.12-0.16
	c-0.08,0.1-0.01,0.01,0.03-0.04c0.08-0.1,0.17-0.19,0.26-0.28c0.08-0.08,0.16-0.15,0.25-0.23c0.05-0.04,0.13-0.1,0.03-0.02
	c0.05-0.04,0.11-0.08,0.16-0.12c0.19-0.12,0.38-0.22,0.58-0.32c0.11-0.05-0.1,0.04-0.02,0.01c0.03-0.01,0.06-0.02,0.08-0.03
	c0.04-0.02,0.09-0.03,0.13-0.05c0.11-0.04,0.23-0.07,0.34-0.1c0.1-0.02,0.21-0.04,0.31-0.06c-0.12,0.02-0.06,0.01,0.02,0
	c0.06-0.01,0.13-0.01,0.19-0.01c0.22-0.01,0.43,0.01,0.65,0.02c-0.19-0.01-0.01,0,0.04,0.01c0.05,0.01,0.1,0.02,0.16,0.03
	c0.12,0.02,0.23,0.05,0.34,0.09c0.1,0.03,0.19,0.07,0.29,0.1c0.08,0.03-0.13-0.06-0.02-0.01c0.02,0.01,0.04,0.02,0.07,0.03
	c0.06,0.03,0.11,0.05,0.16,0.08c0.1,0.05,0.19,0.11,0.29,0.16c0.05,0.03,0.1,0.07,0.15,0.1c0.04,0.03,0.19,0.15,0.06,0.04
	c0.19,0.15,0.36,0.31,0.52,0.49c0.04,0.04,0.08,0.09,0.12,0.13c0.02,0.02,0.03,0.04,0.05,0.06c0.09,0.1-0.05-0.08,0-0.01
	c0.08,0.11,0.15,0.21,0.22,0.32c0.08,0.13,0.15,0.26,0.22,0.39c0.04,0.07,0.07,0.14,0.1,0.22c0.01,0.02,0.04,0.1-0.01-0.02
	c0.02,0.04,0.03,0.08,0.05,0.13c0.12,0.31,0.21,0.64,0.27,0.96c0.02,0.08,0.03,0.17,0.04,0.25c0.01,0.03,0.01,0.07,0.01,0.1
	c-0.02-0.13,0,0.03,0,0.05c0.02,0.2,0.03,0.4,0.04,0.6c0.01,0.42-0.01,0.83-0.06,1.25c-0.06,0.56,0.86,0.82,1.08,0.29
	c0.09-0.22,0.2-0.43,0.32-0.64c0.06-0.1,0.12-0.19,0.18-0.28c0.03-0.04,0.06-0.09,0.1-0.13c-0.06,0.08,0.03-0.03,0.04-0.05
	c0.13-0.16,0.27-0.3,0.43-0.44c0.04-0.03,0.08-0.06,0.11-0.09c-0.1,0.08,0.02-0.02,0.04-0.03c0.08-0.05,0.16-0.11,0.24-0.16
	c0.08-0.05,0.16-0.09,0.25-0.13c0.04-0.02,0.09-0.04,0.13-0.06c0.14-0.07-0.11,0.03,0.03-0.01c0.18-0.06,0.34-0.12,0.53-0.16
	c0.09-0.02,0.18-0.03,0.27-0.05c-0.16,0.02,0.11-0.01,0.16-0.01c0.18-0.01,0.36-0.01,0.54,0.01c0.04,0,0.09,0.01,0.13,0.01
	c0.15,0.01-0.12-0.03,0.02,0c0.09,0.02,0.18,0.03,0.26,0.05c0.18,0.04,0.35,0.09,0.51,0.15c0.04,0.02,0.08,0.03,0.12,0.05
	c-0.14-0.06,0,0,0.02,0.01c0.08,0.04,0.16,0.08,0.24,0.12c0.16,0.09,0.3,0.19,0.45,0.29c0.12,0.08-0.09-0.08,0.02,0.02
	c0.03,0.03,0.07,0.06,0.1,0.09c0.07,0.06,0.13,0.12,0.2,0.18c0.05,0.05,0.1,0.11,0.15,0.16c0.03,0.03,0.06,0.07,0.09,0.1
	c0.1,0.12-0.01-0.02,0.04,0.06c0.09,0.14,0.18,0.27,0.26,0.41c0.04,0.08,0.08,0.16,0.12,0.24c-0.06-0.14,0,0.01,0.01,0.03
	c0.02,0.06,0.04,0.11,0.06,0.17c0.03,0.1,0.06,0.21,0.08,0.31c0.01,0.03,0.01,0.06,0.02,0.09c0.01,0.03,0.01,0.06,0.01,0.09
	c-0.01-0.08-0.01-0.08,0-0.01c0.01,0.23,0.02,0.46,0,0.69c0,0.02-0.02,0.19,0,0.05c-0.01,0.05-0.02,0.1-0.03,0.16
	c-0.02,0.13-0.05,0.25-0.09,0.37c-0.08,0.29-0.15,0.46-0.26,0.69c-0.13,0.28-0.08,0.63,0.21,0.8c0.25,0.15,0.66,0.08,0.8-0.21
	c0.45-0.94,0.67-1.97,0.47-3.01c-0.17-0.84-0.64-1.63-1.28-2.19c-1.34-1.17-3.28-1.49-4.91-0.73c-0.84,0.39-1.5,1.09-1.95,1.9
	c-0.14,0.26,0.01,0.57,0.29,0.64l0,0c0.29,0.08,0.58-0.12,0.59-0.42c0.06-1.26-0.13-2.54-0.72-3.66c-0.53-1.01-1.4-1.8-2.46-2.23
	c-2.06-0.83-4.42,0.09-5.5,2c-0.71,1.27-0.84,2.73-0.7,4.16c0.03,0.34,0.37,0.56,0.7,0.47l0,0c0.28-0.08,0.47-0.36,0.39-0.65
	c-0.24-0.93-0.71-1.83-1.46-2.45c-0.77-0.63-1.72-0.97-2.72-0.95c-1.84,0.02-3.76,1.18-4.22,3.04c-0.31,1.24,0.1,2.5,0.81,3.53
	c0.18,0.26,0.51,0.37,0.8,0.21C18.62,62.69,18.75,62.3,18.58,62.04z"/>
<path class="st1" d="M373.9,160.76L373.9,160.76c1.03-1.06,2.43-1.89,3.86-2.19c1.41-0.3,2.81-0.07,3.96,0.89
	c1.27,1.07,1.95,2.68,2.22,4.49c0.27,1.81,0.11,3.76-0.24,5.39c-0.86,3.96-2.98,7.6-5.25,11.09l-0.02,0.03l-0.02,0.03l-0.93,1.81
	c-0.26,0.28-0.83,0.84-1.42,1.27c-0.32,0.24-0.61,0.4-0.84,0.48c-0.1,0.03-0.16,0.04-0.19,0.04c-1.09-0.81-2.19-1.61-3.28-2.4
	c-2.69-1.94-5.36-3.87-7.83-6.02l0,0c-2.65-2.31-5.04-5.35-4.55-8.66l0,0c0.2-1.34,1.12-2.65,2.43-3.57
	c1.31-0.93,2.89-1.4,4.27-1.21l0,0c2.02,0.28,3.34,1.66,4.73,3.41l1.13,1.43l0.21-1.81C372.33,163.47,372.81,161.89,373.9,160.76z
	 M375.01,184.1C375.01,184.1,375.01,184.1,375.01,184.1C375.01,184.1,375.01,184.1,375.01,184.1z"/>
<path class="st1" d="M15.7,268.43L15.7,268.43c1.37,2.51,3.49,6.19,5.79,8.19c1.15,1,2.2,1.45,3.13,1.31
	c0.91-0.14,1.99-0.88,3.1-2.98h0c3.67-6.94,6.56-14.61,5.71-22.29c-0.06-0.55-0.2-1.1-0.43-1.52c-0.22-0.41-0.49-0.62-0.81-0.67
	c-0.29-0.05-0.6,0.04-0.95,0.28c-0.35,0.25-0.69,0.62-0.99,1.02c-2.83,3.75-4.73,8.12-5.51,12.67l-1.48,0.01
	c-0.82-4.41-3.06-8.58-6.36-11.8l0,0c-0.66-0.64-1.26-1.1-1.91-1.16h0c-0.7-0.07-1.29,0.28-1.77,1c-0.49,0.72-0.8,1.72-0.87,2.62
	L15.7,268.43z M15.7,268.43c-2.28-4.16-3.71-8.77-3.35-13.34L15.7,268.43z"/>
</svg>
