<?xml version="1.0" encoding="utf-8"?>
<!-- Generator: Adobe Illustrator 26.3.1, SVG Export Plug-In . SVG Version: 6.00 Build 0)  -->
<svg version="1.1" id="Layer_1" xmlns="http://www.w3.org/2000/svg" xmlns:xlink="http://www.w3.org/1999/xlink" x="0px" y="0px"
	 viewBox="0 0 377 226" style="enable-background:new 0 0 377 226;" xml:space="preserve">
<style type="text/css">
	.st0{fill:#8787C1;}
	.st1{fill:none;stroke:#8787C1;stroke-width:1.5;}
	.st2{fill:none;stroke:#8787C1;stroke-width:1.5;stroke-linecap:square;}
</style>
<path class="st0" d="M24.98,26.1c-0.23-0.33-0.43-0.67-0.6-1.02c-0.04-0.08-0.07-0.15-0.1-0.23c-0.07-0.14-0.01-0.02,0,0.01
	c-0.02-0.04-0.03-0.08-0.05-0.13c-0.06-0.17-0.12-0.33-0.16-0.5c-0.04-0.15-0.08-0.3-0.1-0.46c-0.01-0.08-0.03-0.22-0.01-0.05
	c-0.01-0.09-0.02-0.18-0.03-0.26c-0.01-0.14-0.01-0.29-0.01-0.43c0-0.07,0.01-0.13,0.01-0.2c0.01-0.06,0.05-0.33,0-0.08
	c0.05-0.28,0.11-0.54,0.2-0.81c0.02-0.06,0.04-0.12,0.07-0.17c-0.06,0.17-0.02,0.04,0.02-0.04c0.06-0.12,0.13-0.25,0.2-0.37
	c0.06-0.1,0.13-0.21,0.2-0.3c0.12-0.18-0.06,0.06,0.03-0.04c0.05-0.05,0.09-0.11,0.14-0.16c0.19-0.21,0.4-0.39,0.61-0.58
	c0.11-0.1-0.14,0.1,0.02-0.02c0.05-0.03,0.1-0.07,0.15-0.11c0.12-0.08,0.24-0.16,0.36-0.23c0.12-0.07,0.23-0.13,0.36-0.19
	c0.06-0.03,0.11-0.06,0.17-0.08c0.21-0.1-0.1,0.03,0.08-0.03c0.27-0.09,0.53-0.19,0.8-0.25c0.13-0.03,0.27-0.06,0.4-0.08
	c0.11-0.02,0.18-0.02,0.02-0.01c0.08-0.01,0.16-0.02,0.24-0.03c0.28-0.02,0.56-0.03,0.84-0.01c0.06,0,0.13,0.01,0.19,0.02
	c0.04,0,0.07,0.01,0.11,0.01c0.11,0.01-0.17-0.03-0.06-0.01c0.14,0.03,0.29,0.05,0.43,0.08c0.13,0.03,0.26,0.07,0.39,0.11
	c0.06,0.02,0.12,0.04,0.18,0.06c0.03,0.01,0.07,0.03,0.1,0.04c0.1,0.04-0.18-0.09-0.02-0.01c0.25,0.12,0.5,0.25,0.73,0.41
	c0.04,0.02,0.24,0.17,0.15,0.1c-0.08-0.06,0.11,0.09,0.14,0.12c0.13,0.11,0.25,0.23,0.36,0.35c0.06,0.07,0.12,0.13,0.18,0.2
	c0.05,0.06,0.16,0.22,0.06,0.08c0.11,0.16,0.22,0.31,0.32,0.48c0.1,0.16,0.18,0.33,0.27,0.51c0.02,0.04,0.04,0.08,0.06,0.12
	c0.05,0.12-0.07-0.18,0.01,0.03c0.03,0.09,0.07,0.18,0.1,0.27c0.16,0.44,0.27,0.9,0.35,1.37c0.08,0.44,0.62,0.69,1.01,0.58
	c0.47-0.13,0.64-0.58,0.57-1.02c-0.13-0.85-0.19-1.98-0.08-2.97c0.01-0.06,0.01-0.12,0.02-0.18c0,0.03-0.03,0.17,0,0
	c0.02-0.1,0.03-0.21,0.05-0.32c0.04-0.21,0.09-0.43,0.14-0.64c0.05-0.19,0.11-0.38,0.17-0.56c0.03-0.09,0.07-0.18,0.1-0.27
	c0.02-0.05,0.08-0.18,0,0c0.03-0.06,0.05-0.11,0.08-0.17c0.15-0.32,0.32-0.63,0.52-0.93c0.05-0.08,0.11-0.15,0.16-0.23
	c-0.11,0.15-0.01,0.01,0.04-0.05c0.12-0.14,0.24-0.28,0.37-0.4c0.11-0.11,0.23-0.22,0.36-0.32c0.07-0.06,0.18-0.14,0.04-0.03
	c0.08-0.06,0.15-0.11,0.23-0.17c0.26-0.18,0.54-0.32,0.83-0.46c0.16-0.08-0.14,0.06-0.03,0.01c0.04-0.01,0.08-0.03,0.12-0.05
	c0.06-0.02,0.13-0.05,0.19-0.07c0.16-0.05,0.32-0.1,0.48-0.14c0.15-0.03,0.29-0.06,0.44-0.08c-0.17,0.03-0.08,0.01,0.03,0
	c0.09-0.01,0.18-0.01,0.27-0.02c0.31-0.01,0.61,0.01,0.92,0.03c-0.26-0.02-0.01,0,0.05,0.01c0.08,0.01,0.15,0.03,0.22,0.04
	c0.16,0.03,0.33,0.08,0.49,0.13c0.14,0.04,0.27,0.1,0.41,0.15c0.11,0.04-0.19-0.09-0.03-0.01c0.03,0.01,0.06,0.03,0.09,0.04
	c0.08,0.04,0.16,0.08,0.23,0.11c0.14,0.07,0.27,0.15,0.41,0.24c0.08,0.05,0.15,0.1,0.22,0.15c0.05,0.04,0.27,0.21,0.09,0.06
	c0.26,0.21,0.51,0.44,0.74,0.69c0.06,0.06,0.11,0.13,0.16,0.19c0.02,0.03,0.05,0.06,0.07,0.09c0.12,0.15-0.08-0.11-0.01-0.01
	c0.11,0.15,0.21,0.3,0.31,0.46c0.11,0.18,0.21,0.37,0.31,0.55c0.05,0.1,0.1,0.21,0.14,0.31c0.02,0.03,0.06,0.15-0.01-0.02
	c0.02,0.06,0.05,0.12,0.07,0.18c0.17,0.44,0.29,0.91,0.39,1.37c0.02,0.12,0.04,0.24,0.06,0.36c0.01,0.05,0.01,0.1,0.02,0.15
	c-0.03-0.19,0,0.04,0.01,0.08c0.03,0.28,0.05,0.57,0.06,0.85c0.02,0.6-0.01,1.19-0.08,1.78c-0.09,0.8,1.22,1.16,1.54,0.42
	c0.13-0.31,0.28-0.62,0.45-0.91c0.08-0.14,0.17-0.27,0.26-0.4c0.04-0.06,0.09-0.13,0.14-0.19c-0.09,0.11,0.04-0.04,0.06-0.07
	c0.19-0.22,0.39-0.43,0.61-0.62c0.05-0.05,0.11-0.09,0.16-0.13c-0.15,0.12,0.03-0.02,0.05-0.04c0.11-0.08,0.23-0.15,0.34-0.22
	c0.12-0.07,0.23-0.13,0.35-0.19c0.06-0.03,0.12-0.06,0.18-0.08c0.2-0.09-0.16,0.05,0.05-0.02c0.25-0.08,0.49-0.17,0.75-0.22
	c0.12-0.03,0.25-0.05,0.38-0.07c-0.23,0.03,0.16-0.01,0.23-0.01c0.25-0.01,0.51-0.01,0.77,0.01c0.06,0.01,0.13,0.01,0.19,0.02
	c0.21,0.02-0.18-0.04,0.03,0.01c0.12,0.03,0.25,0.04,0.37,0.07c0.25,0.06,0.49,0.13,0.73,0.22c0.06,0.02,0.12,0.05,0.18,0.07
	c-0.2-0.08,0,0,0.03,0.02c0.11,0.06,0.23,0.11,0.34,0.17c0.22,0.12,0.43,0.26,0.64,0.41c0.18,0.12-0.13-0.11,0.03,0.02
	c0.05,0.04,0.1,0.08,0.14,0.12c0.1,0.08,0.19,0.17,0.28,0.26c0.08,0.08,0.15,0.15,0.22,0.23c0.04,0.05,0.08,0.1,0.12,0.14
	c0.15,0.17-0.01-0.03,0.06,0.08c0.13,0.19,0.26,0.38,0.37,0.59c0.06,0.11,0.12,0.23,0.16,0.35c-0.08-0.19,0,0.01,0.01,0.04
	c0.03,0.08,0.06,0.16,0.08,0.25c0.04,0.15,0.08,0.3,0.11,0.45c0.01,0.04,0.02,0.09,0.02,0.13c0.01,0.04,0.01,0.09,0.02,0.13
	c-0.01-0.11-0.01-0.12-0.01-0.02c0.02,0.33,0.03,0.65,0,0.98c0,0.03-0.03,0.27-0.01,0.07c-0.01,0.08-0.02,0.15-0.04,0.22
	c-0.03,0.18-0.08,0.36-0.12,0.53c-0.12,0.42-0.21,0.66-0.37,0.99c-0.19,0.4-0.11,0.89,0.29,1.14c0.36,0.21,0.94,0.11,1.13-0.3
	c0.64-1.35,0.95-2.81,0.66-4.29c-0.23-1.2-0.91-2.32-1.82-3.12c-1.91-1.67-4.66-2.13-6.96-1.05c-1.43,0.68-2.5,1.98-3.11,3.42
	c0.51,0.14,1.03,0.28,1.54,0.42c0.22-2.05,0.01-4.19-0.96-6.03c-0.76-1.44-1.99-2.57-3.49-3.18c-2.93-1.19-6.27,0.13-7.8,2.85
	c-1.16,2.08-1.24,4.54-0.88,6.84c0.53-0.15,1.06-0.29,1.59-0.44c-0.27-1.58-0.97-3.17-2.22-4.21c-1.09-0.9-2.44-1.38-3.86-1.36
	c-2.61,0.03-5.33,1.69-5.99,4.34c-0.44,1.77,0.14,3.57,1.14,5.03c0.25,0.37,0.72,0.53,1.13,0.3C25.05,27.02,25.23,26.47,24.98,26.1z
	"/>
<path class="st0" d="M14.93,10.48C12.44,9.36,9.63,8.7,6.9,9.3c-2.1,0.46-3.91,1.72-5.11,3.43c-1.11,1.59-1.65,3.57-1.52,5.48
	c0.13,2.03,0.97,3.97,2.46,5.42c1.81,1.75,4.33,2.55,6.85,2.73c0.36,0.02,0.73,0.04,1.1,0.04c-0.14-0.48-0.27-0.96-0.41-1.44
	c-2.16,1.32-4.02,3.21-4.72,5.64c-0.57,1.99-0.27,4.1,0.66,5.94c1.84,3.62,6.22,5.94,10.36,4.81c3-0.82,5.22-3.16,6.74-5.67
	c-0.5-0.13-1-0.26-1.5-0.39c-0.16,1.81,0.14,3.71,1.16,5.27c0.89,1.37,2.22,2.36,3.78,2.94c2.93,1.09,6.54,0.45,8.74-1.73
	c1.45-1.43,2.13-3.38,2.18-5.36c-0.54,0-1.07,0-1.61,0c0.19,1.89,0.82,3.72,2.16,5.14c1.06,1.13,2.55,1.9,4.1,2.16
	c3.24,0.55,6.67-0.77,8.46-3.46c1.17-1.76,1.41-3.87,1.1-5.9c-0.49,0.2-0.98,0.4-1.47,0.6c2.26,3.39,6.37,6.49,10.79,5.58
	c1.17-0.24,2.26-0.78,3.2-1.48c0.79-0.58,1.53-1.21,2.09-2.01c1.01-1.44,1.45-3.3,1.33-5.03c-0.14-2.05-1.04-4-2.84-5.18
	c-0.06,0.47-0.13,0.94-0.19,1.42c2.01-0.64,3.78-1.81,4.95-3.53c0.99-1.46,1.46-3.25,1.38-4.98c-0.17-3.56-2.56-6.91-6.24-7.79
	c-2.6-0.62-5.28,0.04-7.64,1.15c0.39,0.29,0.79,0.58,1.18,0.87c0.53-2.21,0.67-4.58-0.06-6.77c-0.58-1.75-1.69-3.27-3.25-4.32
	c-2.98-2.03-7.1-1.78-10.04,0.18c-2.07,1.39-3.49,3.42-4.37,5.67c0.53,0.07,1.05,0.14,1.58,0.21c0.25-2.85-0.93-5.93-3.74-7.24
	c-2.38-1.11-5.32-0.67-7.01,1.37c-1.2,1.45-1.63,3.3-1.64,5.12c0.53-0.07,1.05-0.14,1.58-0.21c-0.47-2.2-1.49-4.37-3.27-5.87
	c-1.49-1.26-3.35-1.97-5.32-2.09c-3.61-0.22-7.53,1.66-9.08,4.9c-0.98,2.06-0.92,4.36-0.06,6.44c0.16,0.39,0.54,0.66,0.99,0.54
	c0.38-0.1,0.72-0.56,0.56-0.95c-0.19-0.47-0.35-0.95-0.47-1.45c-0.02-0.1-0.05-0.2-0.06-0.3c-0.01-0.06-0.02-0.12-0.03-0.18
	c-0.04-0.2,0.02,0.17-0.01-0.03c-0.02-0.21-0.05-0.43-0.05-0.65c-0.01-0.21-0.01-0.42,0.01-0.63c0.01-0.09,0.01-0.19,0.02-0.28
	c0.01-0.05,0.01-0.11,0.02-0.17c-0.03,0.23,0-0.02,0.01-0.07c0.07-0.39,0.17-0.77,0.31-1.14c0.03-0.08,0.06-0.17,0.1-0.25
	c0.06-0.17-0.08,0.16,0-0.01c0.02-0.05,0.05-0.1,0.07-0.14c0.09-0.18,0.19-0.36,0.29-0.53c0.1-0.16,0.2-0.31,0.3-0.46
	c0.06-0.09,0.13-0.17,0.19-0.25c-0.13,0.17,0.06-0.08,0.11-0.13c0.26-0.29,0.54-0.57,0.84-0.82c0.08-0.07,0.17-0.14,0.25-0.2
	c0.03-0.02,0.06-0.04,0.08-0.07c0.15-0.12-0.15,0.1,0.01-0.01c0.18-0.12,0.35-0.25,0.54-0.36c0.34-0.21,0.7-0.4,1.06-0.56
	c0.05-0.02,0.1-0.04,0.15-0.07c0.17-0.08-0.12,0.05-0.01,0.01c0.09-0.04,0.19-0.07,0.28-0.11c0.21-0.08,0.42-0.14,0.63-0.2
	c0.39-0.11,0.79-0.2,1.19-0.26c0.06-0.01,0.11-0.02,0.17-0.02c-0.21,0.03-0.09,0.01-0.05,0.01c0.11-0.01,0.22-0.02,0.33-0.03
	c0.21-0.02,0.41-0.02,0.61-0.03c0.21,0,0.41,0,0.61,0.01c0.1,0.01,0.21,0.01,0.31,0.02c0.07,0.01,0.45,0.06,0.2,0.02
	c0.41,0.06,0.81,0.14,1.21,0.26c0.2,0.06,0.39,0.12,0.59,0.2c0.05,0.02,0.11,0.04,0.16,0.06c-0.18-0.07-0.07-0.03-0.03-0.01
	c0.12,0.06,0.24,0.11,0.36,0.17c0.38,0.19,0.74,0.41,1.09,0.65c0.03,0.02,0.19,0.14,0.03,0.02c0.05,0.04,0.09,0.07,0.14,0.11
	C27,3.15,27.1,3.23,27.21,3.33c0.18,0.16,0.36,0.33,0.52,0.51c0.09,0.1,0.18,0.2,0.27,0.3c0.03,0.04,0.07,0.08,0.1,0.12
	c-0.12-0.15,0.05,0.07,0.07,0.1c0.16,0.21,0.31,0.43,0.44,0.65c0.16,0.25,0.3,0.51,0.43,0.77c0.16,0.32,0.17,0.35,0.3,0.67
	c0.25,0.63,0.43,1.29,0.58,1.95c0.19,0.87,1.58,0.65,1.58-0.21c0-0.41,0.02-0.82,0.07-1.23c0.02-0.16,0.01-0.06,0-0.02
	c0.01-0.05,0.02-0.1,0.03-0.15c0.01-0.09,0.03-0.17,0.05-0.26c0.04-0.18,0.08-0.35,0.12-0.52c0.05-0.17,0.1-0.33,0.15-0.49
	c0.03-0.07,0.05-0.14,0.08-0.22c0.02-0.04,0.03-0.08,0.05-0.12c-0.03,0.06-0.04,0.08,0,0.01c0.14-0.29,0.29-0.56,0.47-0.83
	c0.04-0.06,0.08-0.11,0.12-0.17c0.02-0.03,0.05-0.06,0.07-0.09c0,0-0.09,0.11-0.03,0.04c0.1-0.11,0.2-0.23,0.3-0.33
	c0.09-0.09,0.19-0.18,0.28-0.26c0.05-0.04,0.1-0.08,0.15-0.12c0.1-0.09-0.01,0.01-0.03,0.02c0.04-0.03,0.07-0.05,0.11-0.08
	c0.22-0.15,0.45-0.28,0.69-0.39c0.06-0.02,0.11-0.05,0.17-0.07c-0.21,0.1,0,0,0.05-0.02c0.12-0.04,0.25-0.08,0.37-0.12
	c0.13-0.03,0.25-0.06,0.38-0.08c0.06-0.01,0.12-0.02,0.18-0.03c0.09-0.02-0.09,0.01-0.08,0.01c0.04,0,0.09-0.01,0.13-0.01
	c0.26-0.02,0.52-0.03,0.78-0.01c0.07,0.01,0.14,0.01,0.21,0.02c0.19,0.01-0.12-0.02,0.02,0c0.14,0.02,0.28,0.05,0.41,0.08
	c0.26,0.06,0.51,0.14,0.76,0.23c0.14,0.05-0.15-0.07,0.03,0.01c0.06,0.03,0.12,0.05,0.17,0.08c0.13,0.06,0.26,0.13,0.38,0.2
	c0.11,0.06,0.22,0.13,0.32,0.2c0.06,0.04,0.12,0.08,0.18,0.12c-0.14-0.1,0,0,0.06,0.05c0.22,0.18,0.43,0.37,0.61,0.58
	c0.05,0.05,0.09,0.1,0.13,0.15c0.05,0.06,0.13,0.17,0.04,0.04c0.09,0.12,0.19,0.25,0.27,0.38c0.09,0.14,0.18,0.29,0.26,0.44
	c0.04,0.07,0.08,0.14,0.11,0.22c0.02,0.05,0.13,0.29,0.06,0.12c0.14,0.34,0.25,0.68,0.34,1.04c0.04,0.18,0.07,0.36,0.1,0.53
	c0,0.03,0.03,0.15,0,0c0.01,0.06,0.01,0.12,0.02,0.18c0.01,0.1,0.02,0.19,0.02,0.29c0.03,0.45,0.02,0.89-0.02,1.33
	c-0.03,0.38,0.33,0.72,0.7,0.76c0.42,0.05,0.74-0.18,0.88-0.55c0.33-0.84,0.84-1.81,1.45-2.64c0.07-0.1,0.14-0.19,0.22-0.29
	c-0.09,0.12,0.09-0.11,0.12-0.14c0.16-0.18,0.32-0.36,0.49-0.53c0.31-0.32,0.64-0.61,0.99-0.89c0.02-0.02,0.2-0.15,0.05-0.04
	c0.03-0.02,0.07-0.05,0.1-0.08c0.09-0.06,0.17-0.12,0.26-0.18c0.19-0.12,0.37-0.24,0.57-0.34c0.17-0.1,0.35-0.19,0.52-0.27
	c0.09-0.04,0.19-0.09,0.28-0.13c0.05-0.02,0.09-0.04,0.14-0.06c0.05-0.02,0.04-0.02-0.05,0.02c0.04-0.01,0.08-0.03,0.11-0.04
	c0.38-0.14,0.75-0.26,1.15-0.35c0.18-0.04,0.37-0.08,0.55-0.11c0.05-0.01,0.1-0.01,0.15-0.02c0.19-0.03-0.14,0.01-0.01,0
	c0.11-0.01,0.21-0.02,0.32-0.03c0.38-0.03,0.77-0.04,1.15-0.01c0.1,0.01,0.19,0.01,0.28,0.02c0.06,0.01,0.36,0.05,0.13,0.01
	c0.2,0.03,0.39,0.06,0.59,0.1c0.38,0.08,0.75,0.19,1.11,0.33c0.03,0.01,0.07,0.03,0.1,0.04c0.18,0.07-0.16-0.08,0.02,0.01
	c0.08,0.04,0.15,0.07,0.23,0.1c0.18,0.08,0.35,0.17,0.52,0.27c0.16,0.09,0.32,0.19,0.48,0.3c0.07,0.05,0.14,0.1,0.21,0.15
	c0.1,0.07-0.15-0.12,0,0c0.05,0.04,0.09,0.07,0.13,0.11c0.31,0.25,0.59,0.52,0.85,0.81c0.06,0.07,0.11,0.13,0.17,0.2
	c0.13,0.15-0.1-0.13,0.02,0.02c0.02,0.03,0.05,0.06,0.07,0.09c0.13,0.17,0.25,0.35,0.37,0.54c0.1,0.15,0.19,0.31,0.27,0.47
	c0.05,0.09,0.09,0.18,0.14,0.27c0.03,0.06,0.05,0.11,0.08,0.17c-0.06-0.12-0.01-0.02,0.02,0.05c0.19,0.46,0.33,0.92,0.44,1.4
	c0.03,0.12,0.05,0.24,0.08,0.37c0.01,0.07,0.03,0.14,0.03,0.21c0.01,0.04,0.03,0.24,0.01,0.07c0.03,0.26,0.06,0.53,0.07,0.8
	c0.03,0.6,0.01,1.2-0.05,1.79c-0.06,0.6-0.17,1.18-0.32,1.85c-0.16,0.68,0.55,1.17,1.18,0.87c0.99-0.47,2.08-0.86,3.25-1.06
	c0.12-0.02,0.24-0.04,0.36-0.06c-0.17,0.02,0.17-0.02,0.21-0.02c0.25-0.02,0.5-0.04,0.76-0.04c0.22,0,0.44,0,0.66,0.01
	c0.11,0.01,0.21,0.02,0.32,0.02c0.06,0.01,0.13,0.01,0.19,0.02c-0.21-0.02-0.01,0,0.04,0.01c0.44,0.08,0.87,0.17,1.29,0.32
	c0.09,0.03,0.18,0.07,0.28,0.1c0.04,0.01,0.14,0.06-0.03-0.01c0.05,0.02,0.11,0.05,0.16,0.07c0.19,0.08,0.38,0.18,0.56,0.28
	c0.16,0.09,0.32,0.19,0.48,0.29c0.08,0.05,0.15,0.11,0.23,0.16c0.16,0.11-0.13-0.11,0.01,0.01c0.04,0.04,0.09,0.07,0.13,0.1
	c0.3,0.24,0.58,0.51,0.83,0.79c0.07,0.07,0.13,0.15,0.19,0.23c0.03,0.04,0.11,0.14-0.01-0.01c0.03,0.04,0.06,0.07,0.08,0.11
	c0.12,0.17,0.24,0.34,0.35,0.51c0.2,0.32,0.38,0.66,0.54,1c-0.09-0.2,0.03,0.07,0.05,0.11c0.03,0.08,0.06,0.17,0.1,0.25
	c0.07,0.19,0.13,0.38,0.18,0.57c0.05,0.17,0.09,0.35,0.13,0.53c0.02,0.09,0.03,0.18,0.05,0.27c0.01,0.05,0.02,0.11,0.03,0.16
	c-0.03-0.21-0.01-0.04,0,0.01c0.04,0.39,0.06,0.77,0.05,1.16c-0.01,0.19-0.02,0.38-0.04,0.57c-0.01,0.06-0.05,0.35-0.01,0.12
	c-0.02,0.11-0.03,0.21-0.05,0.32c-0.07,0.38-0.17,0.75-0.3,1.11c-0.03,0.09-0.06,0.17-0.1,0.26c-0.02,0.05-0.14,0.32-0.05,0.12
	c-0.09,0.18-0.17,0.37-0.28,0.55c-0.11,0.2-0.23,0.39-0.36,0.58c-0.06,0.1-0.13,0.19-0.2,0.28c-0.02,0.03-0.14,0.18-0.02,0.02
	c-0.04,0.05-0.07,0.09-0.11,0.14c-0.31,0.36-0.66,0.7-1.03,1c-0.04,0.03-0.08,0.07-0.12,0.09c-0.16,0.13,0.07-0.04-0.06,0.05
	c-0.1,0.07-0.21,0.15-0.32,0.21c-0.22,0.14-0.45,0.27-0.68,0.4c-0.24,0.13-0.49,0.24-0.74,0.35c0.03-0.01,0.14-0.05-0.01,0
	c-0.08,0.03-0.15,0.06-0.23,0.09c-0.15,0.05-0.3,0.11-0.45,0.15c-0.68,0.22-0.77,1.04-0.19,1.42c0.25,0.16,0.52,0.39,0.78,0.67
	c0.06,0.07,0.12,0.14,0.18,0.21c-0.07-0.08,0.07,0.1,0.09,0.12c0.12,0.16,0.22,0.33,0.32,0.49c0.2,0.35,0.26,0.49,0.39,0.9
	c0.06,0.18,0.11,0.36,0.15,0.54c0.04,0.15,0.09,0.45,0.1,0.53c0.18,1.4-0.08,2.94-0.79,4.16c-0.09,0.16-0.19,0.31-0.29,0.46
	c-0.05,0.07-0.1,0.15-0.16,0.22c-0.06,0.07-0.01,0.01,0.01-0.01c-0.04,0.05-0.08,0.1-0.12,0.14c-0.12,0.13-0.24,0.26-0.37,0.38
	c-0.06,0.06-0.13,0.12-0.2,0.17c-0.03,0.02-0.06,0.05-0.09,0.07c-0.04,0.03-0.04,0.03-0.01,0.01c0.08-0.05,0.03-0.02-0.14,0.11
	c-0.79,0.64-1.6,1.21-2.6,1.52c-1.73,0.53-3.51,0.23-5.1-0.59c-1.85-0.95-3.39-2.44-4.51-4.12c-0.21-0.32-0.63-0.48-1.01-0.32
	c-0.39,0.17-0.53,0.52-0.46,0.91c0.04,0.24-0.01-0.09,0.01,0.06c0.01,0.05,0.01,0.1,0.02,0.15c0.01,0.11,0.02,0.22,0.03,0.33
	c0.02,0.23,0.03,0.45,0.03,0.68c0,0.2-0.01,0.39-0.02,0.58c-0.01,0.11-0.02,0.22-0.03,0.33c0,0.04-0.02,0.15,0-0.01
	c-0.01,0.07-0.02,0.13-0.03,0.19c-0.06,0.37-0.16,0.74-0.28,1.09c-0.03,0.09-0.06,0.17-0.1,0.26c-0.02,0.05-0.13,0.3-0.05,0.12
	c-0.08,0.17-0.16,0.34-0.25,0.5c-0.08,0.14-0.17,0.28-0.26,0.42c-0.05,0.08-0.11,0.16-0.17,0.24c-0.03,0.05-0.21,0.27-0.08,0.12
	c-0.22,0.27-0.45,0.52-0.71,0.75c-0.13,0.11-0.26,0.22-0.39,0.33c-0.17,0.14,0.06-0.04-0.09,0.07c-0.08,0.05-0.15,0.11-0.23,0.16
	c-0.29,0.19-0.6,0.36-0.91,0.51c-0.07,0.03-0.14,0.07-0.21,0.09c-0.04,0.02-0.09,0.04-0.13,0.06c-0.1,0.04,0.14-0.05,0.03-0.01
	c-0.17,0.06-0.34,0.12-0.51,0.18c-0.33,0.11-0.67,0.19-1.02,0.25c-0.08,0.01-0.17,0.03-0.25,0.04c-0.12,0.02,0.14-0.01-0.07,0.01
	c-0.19,0.02-0.37,0.03-0.56,0.04c-0.34,0.01-0.68,0-1.01-0.03c-0.04,0-0.3-0.04-0.17-0.02c0.13,0.02-0.13-0.02-0.17-0.03
	c-0.17-0.03-0.35-0.07-0.52-0.11c-0.15-0.04-0.31-0.08-0.46-0.13c-0.08-0.02-0.16-0.05-0.24-0.08c-0.05-0.02-0.09-0.03-0.13-0.05
	c-0.15-0.05,0.15,0.07-0.02-0.01c-0.31-0.14-0.61-0.28-0.9-0.46c-0.15-0.09-0.28-0.18-0.42-0.28c0.14,0.1-0.01-0.01-0.06-0.05
	c-0.08-0.07-0.16-0.13-0.24-0.2c-0.15-0.14-0.3-0.28-0.44-0.43c-0.07-0.07-0.13-0.15-0.2-0.22c-0.03-0.03-0.05-0.06-0.08-0.09
	c0.12,0.15-0.01-0.01-0.02-0.03c-0.25-0.34-0.48-0.7-0.66-1.09c-0.02-0.05-0.05-0.1-0.07-0.15c-0.06-0.13,0.03,0.06-0.01-0.02
	c-0.05-0.11-0.09-0.23-0.14-0.34c-0.08-0.21-0.15-0.43-0.21-0.66c-0.06-0.23-0.12-0.47-0.16-0.7c-0.06-0.34-0.06-0.35-0.1-0.7
	c-0.04-0.42-0.34-0.77-0.8-0.77c-0.44,0-0.79,0.36-0.8,0.77c-0.01,0.21-0.02,0.42-0.04,0.64c-0.01,0.05-0.01,0.09-0.01,0.14
	c0,0-0.03,0.22-0.01,0.1c0.02-0.12-0.02,0.1-0.02,0.1c-0.01,0.07-0.02,0.13-0.03,0.2c-0.07,0.37-0.17,0.74-0.3,1.1
	c-0.04,0.1-0.07,0.19-0.11,0.28c-0.01,0.04-0.06,0.13,0.01-0.02c-0.02,0.04-0.03,0.07-0.05,0.11c-0.09,0.18-0.18,0.35-0.28,0.52
	c-0.09,0.15-0.18,0.29-0.28,0.44c-0.04,0.06-0.09,0.12-0.14,0.18c-0.08,0.11,0.01-0.01,0.02-0.02c-0.04,0.04-0.07,0.09-0.11,0.13
	c-0.23,0.27-0.49,0.52-0.76,0.74c-0.06,0.05-0.12,0.09-0.17,0.14c-0.14,0.12,0.1-0.07,0.01-0.01c-0.04,0.03-0.08,0.05-0.11,0.08
	c-0.14,0.1-0.28,0.18-0.42,0.27c-0.14,0.08-0.29,0.17-0.44,0.24c-0.08,0.04-0.17,0.08-0.25,0.12c-0.06,0.02-0.32,0.13-0.12,0.05
	c-0.32,0.12-0.64,0.23-0.98,0.31c-0.15,0.04-0.31,0.07-0.46,0.1c-0.09,0.02-0.18,0.03-0.28,0.05c-0.22,0.04,0.11-0.01-0.12,0.02
	c-0.34,0.03-0.69,0.05-1.04,0.05c-0.16,0-0.32-0.01-0.48-0.02c-0.09-0.01-0.19-0.02-0.28-0.03c-0.05,0-0.16-0.02,0.05,0.01
	c-0.06-0.01-0.11-0.02-0.17-0.02c-0.34-0.05-0.68-0.13-1.01-0.23c-0.15-0.04-0.3-0.09-0.45-0.15c-0.05-0.02-0.34-0.13-0.12-0.04
	c-0.08-0.04-0.17-0.07-0.25-0.11c-0.31-0.14-0.61-0.31-0.9-0.49c-0.07-0.05-0.14-0.09-0.21-0.14c-0.19-0.13,0.06,0.05-0.08-0.06
	c-0.14-0.11-0.28-0.22-0.41-0.34c-0.12-0.11-0.25-0.23-0.36-0.36c-0.05-0.05-0.1-0.11-0.15-0.17c-0.03-0.04-0.06-0.07-0.09-0.11
	c-0.04-0.05,0.09,0.12-0.02-0.02c-0.24-0.32-0.45-0.65-0.63-1.01c-0.02-0.04-0.05-0.09-0.06-0.13c-0.01-0.02-0.09-0.2-0.05-0.1
	c0.05,0.11-0.03-0.07-0.03-0.08c-0.02-0.06-0.05-0.11-0.07-0.17c-0.07-0.2-0.14-0.4-0.19-0.6c-0.06-0.22-0.11-0.44-0.15-0.67
	c-0.01-0.04-0.01-0.09-0.02-0.13c-0.01-0.06-0.01-0.04,0.01,0.04c-0.01-0.03-0.01-0.07-0.01-0.1c-0.01-0.13-0.03-0.25-0.04-0.38
	c-0.04-0.52-0.03-1.04,0.02-1.56c0.07-0.79-1.12-1.02-1.5-0.39c-0.72,1.19-1.48,2.2-2.52,3.13c-0.5,0.45-0.77,0.65-1.32,0.99
	c-0.22,0.13-0.44,0.25-0.66,0.37c-0.1,0.05-0.2,0.1-0.3,0.14c-0.06,0.03-0.12,0.05-0.18,0.08c0.18-0.08-0.08,0.03-0.11,0.04
	c-0.45,0.17-0.92,0.3-1.4,0.38c-0.06,0.01-0.12,0.02-0.18,0.03c-0.21,0.04,0.18-0.01-0.03,0c-0.12,0.01-0.24,0.02-0.36,0.03
	c-0.24,0.02-0.48,0.02-0.72,0.01c-0.22-0.01-0.43-0.03-0.65-0.05c-0.2-0.02,0.18,0.03-0.02,0c-0.06-0.01-0.12-0.02-0.17-0.03
	c-0.12-0.02-0.23-0.04-0.34-0.07c-0.21-0.05-0.42-0.1-0.62-0.16c-0.11-0.03-0.22-0.07-0.33-0.11c-0.07-0.02-0.44-0.17-0.24-0.09
	c-0.41-0.18-0.81-0.37-1.19-0.61c-0.18-0.11-0.36-0.23-0.53-0.35c-0.03-0.02-0.19-0.14-0.02-0.02c-0.05-0.04-0.09-0.07-0.14-0.11
	c-0.09-0.07-0.18-0.14-0.27-0.22c-0.35-0.3-0.68-0.63-0.98-0.98c-0.03-0.04-0.22-0.27-0.09-0.11C8.46,37.09,8.39,37,8.33,36.91
	c-0.14-0.18-0.26-0.37-0.38-0.57c-0.11-0.18-0.21-0.36-0.31-0.55c-0.05-0.1-0.1-0.2-0.15-0.31c-0.02-0.04-0.09-0.21-0.01-0.02
	c-0.03-0.06-0.05-0.12-0.08-0.18c-0.17-0.41-0.3-0.84-0.39-1.27c-0.02-0.11-0.05-0.22-0.06-0.33c-0.01-0.04-0.01-0.08-0.02-0.11
	c-0.03-0.19,0.01,0.18,0-0.02c-0.02-0.23-0.04-0.45-0.05-0.68c-0.01-0.23,0-0.46,0.02-0.69c0.01-0.09,0.02-0.19,0.03-0.29
	c0.01-0.04,0.04-0.24,0-0.02c0.01-0.08,0.03-0.15,0.04-0.23c0.1-0.51,0.25-1.01,0.46-1.49c-0.07,0.17,0.07-0.15,0.1-0.21
	c0.07-0.13,0.14-0.26,0.21-0.39c0.14-0.25,0.3-0.49,0.47-0.72c0.04-0.05,0.08-0.11,0.12-0.16c0.06-0.07,0.06-0.07,0-0.01
	c0.03-0.04,0.06-0.07,0.09-0.11c0.09-0.11,0.19-0.22,0.28-0.32c0.22-0.24,0.45-0.46,0.69-0.68c0.57-0.52,1.02-0.84,1.7-1.25
	c0.66-0.4,0.41-1.44-0.41-1.44c-0.35,0-0.71-0.01-1.06-0.04c-0.16-0.01-0.32-0.02-0.49-0.04c-0.08-0.01-0.17-0.02-0.26-0.03
	c-0.1-0.01,0.02,0,0.03,0.01c-0.05-0.01-0.1-0.01-0.14-0.02c-0.61-0.09-1.22-0.22-1.81-0.41c-0.13-0.04-0.26-0.08-0.39-0.13
	c-0.07-0.02-0.14-0.05-0.2-0.08c-0.06-0.02-0.21-0.09-0.06-0.02c-0.25-0.11-0.49-0.21-0.73-0.34c-0.24-0.12-0.46-0.26-0.69-0.4
	c-0.1-0.07-0.2-0.13-0.3-0.2c-0.07-0.05-0.12-0.09-0.01-0.01c-0.06-0.04-0.12-0.09-0.17-0.13c-0.37-0.3-0.71-0.62-1.01-0.98
	c-0.04-0.05-0.08-0.09-0.11-0.14c-0.03-0.04,0.09,0.12,0,0c-0.07-0.1-0.15-0.2-0.22-0.3c-0.13-0.18-0.25-0.37-0.35-0.57
	c-0.11-0.19-0.2-0.39-0.3-0.59c0.1,0.2-0.03-0.08-0.06-0.15c-0.04-0.11-0.08-0.21-0.12-0.32C2.09,19.53,2,19.11,1.92,18.67
	c-0.03-0.14,0.02,0.16,0,0.02c-0.01-0.06-0.01-0.11-0.02-0.17c-0.01-0.11-0.02-0.22-0.03-0.33c-0.01-0.21-0.02-0.43-0.01-0.65
	c0.01-0.21,0.02-0.43,0.04-0.65c0.01-0.08,0.06-0.39,0.01-0.15c0.02-0.11,0.03-0.22,0.06-0.33c0.08-0.43,0.2-0.86,0.35-1.27
	c0.04-0.1,0.07-0.2,0.11-0.29c0.02-0.04,0.04-0.09,0.06-0.13c-0.09,0.21-0.01,0.02,0.02-0.04c0.09-0.2,0.19-0.39,0.3-0.58
	c0.11-0.2,0.23-0.39,0.36-0.57c0.06-0.09,0.12-0.17,0.19-0.26c0.03-0.04,0.06-0.08,0.09-0.12c0.06-0.08-0.1,0.12,0.03-0.03
	c0.29-0.34,0.59-0.65,0.94-0.94c0.08-0.07,0.17-0.14,0.25-0.2c0.15-0.12-0.1,0.07,0.02-0.01c0.05-0.03,0.1-0.07,0.14-0.1
	c0.19-0.13,0.4-0.26,0.61-0.37c0.2-0.11,0.41-0.22,0.63-0.31c0.05-0.02,0.1-0.04,0.15-0.06C6,11.22,6.18,11.14,6.23,11.12
	c0.12-0.04,0.24-0.09,0.35-0.12c0.23-0.08,0.47-0.14,0.72-0.2c0.12-0.03,0.24-0.05,0.36-0.07c0.06-0.01,0.13-0.02,0.2-0.03
	c0.05-0.01,0.3-0.04,0.07-0.01c0.55-0.06,1.09-0.08,1.64-0.06c0.14,0.01,0.28,0.02,0.42,0.03c0.08,0.01,0.15,0.01,0.23,0.02
	c0.03,0,0.06,0.01,0.1,0.01c0.12,0.01-0.14-0.02-0.01,0c0.31,0.04,0.61,0.1,0.92,0.16c0.68,0.15,1.34,0.34,1.99,0.59
	c0.08,0.03,0.15,0.06,0.23,0.09c0.03,0.01,0.24,0.1,0.15,0.06c0.18,0.07,0.36,0.15,0.54,0.23c0.39,0.18,0.87,0.11,1.1-0.28
	C15.42,11.2,15.33,10.65,14.93,10.48z"/>
<path class="st0" d="M142.38,186.67c-2.74-1.24-5.82-1.98-8.83-1.31c-2.3,0.52-4.29,1.91-5.61,3.82c-1.22,1.77-1.81,3.98-1.67,6.1
	c0.14,2.26,1.07,4.43,2.71,6.04c1.99,1.95,4.76,2.84,7.52,3.04c0.4,0.03,0.8,0.04,1.2,0.04c-0.15-0.53-0.3-1.07-0.44-1.61
	c-2.38,1.47-4.42,3.58-5.18,6.28c-0.62,2.21-0.3,4.57,0.73,6.61c2.03,4.04,6.83,6.61,11.38,5.36c3.29-0.91,5.73-3.52,7.4-6.32
	c-0.55-0.14-1.1-0.29-1.65-0.43c-0.18,2.02,0.16,4.13,1.27,5.87c0.98,1.52,2.44,2.63,4.15,3.27c3.22,1.21,7.18,0.5,9.61-1.93
	c1.6-1.6,2.34-3.76,2.39-5.96c-0.59,0-1.18,0-1.77,0c0.2,2.1,0.9,4.14,2.37,5.73c1.17,1.25,2.8,2.11,4.51,2.41
	c3.56,0.62,7.33-0.85,9.3-3.86c1.28-1.96,1.55-4.31,1.21-6.57c-0.54,0.22-1.08,0.44-1.62,0.66c2.48,3.78,7,7.23,11.86,6.22
	c1.29-0.27,2.48-0.87,3.52-1.65c0.87-0.65,1.68-1.34,2.3-2.24c1.11-1.61,1.59-3.68,1.47-5.6c-0.15-2.28-1.15-4.46-3.12-5.77
	c-0.07,0.53-0.14,1.05-0.21,1.58c2.21-0.71,4.16-2.02,5.44-3.93c1.09-1.62,1.6-3.62,1.51-5.55c-0.18-3.96-2.81-7.7-6.86-8.67
	c-2.86-0.69-5.8,0.04-8.39,1.28c0.43,0.32,0.87,0.65,1.3,0.97c0.58-2.46,0.73-5.1-0.07-7.54c-0.64-1.94-1.85-3.64-3.57-4.82
	c-3.27-2.26-7.8-1.98-11.03,0.21c-2.28,1.54-3.84,3.8-4.81,6.32c0.58,0.08,1.16,0.15,1.74,0.23c0.27-3.18-1.03-6.61-4.11-8.06
	c-2.62-1.23-5.85-0.74-7.7,1.53c-1.32,1.61-1.79,3.67-1.8,5.71c0.58-0.08,1.16-0.15,1.74-0.23c-0.52-2.45-1.64-4.86-3.59-6.54
	c-1.63-1.4-3.68-2.2-5.84-2.33c-3.97-0.25-8.28,1.85-9.98,5.46c-1.08,2.29-1.01,4.85-0.06,7.17c0.18,0.43,0.59,0.74,1.09,0.6
	c0.42-0.11,0.8-0.63,0.62-1.06c-0.21-0.52-0.39-1.06-0.51-1.61c-0.02-0.11-0.05-0.23-0.07-0.34c-0.01-0.07-0.02-0.14-0.03-0.2
	c-0.04-0.23,0.02,0.19-0.01-0.04c-0.03-0.24-0.05-0.48-0.06-0.72c-0.01-0.23-0.01-0.47,0.01-0.7c0.01-0.1,0.01-0.21,0.02-0.31
	c0.01-0.06,0.02-0.12,0.02-0.18c-0.03,0.26,0-0.02,0.01-0.07c0.07-0.43,0.19-0.86,0.34-1.27c0.03-0.09,0.07-0.18,0.11-0.28
	c0.07-0.19-0.09,0.18,0-0.01c0.02-0.05,0.05-0.1,0.07-0.16c0.1-0.2,0.2-0.4,0.32-0.59c0.11-0.18,0.22-0.35,0.34-0.51
	c0.07-0.1,0.14-0.19,0.21-0.28c-0.14,0.19,0.07-0.08,0.12-0.14c0.28-0.33,0.59-0.63,0.92-0.91c0.09-0.08,0.18-0.15,0.27-0.23
	c0.03-0.03,0.06-0.05,0.09-0.07c0.16-0.13-0.16,0.11,0.01-0.01c0.2-0.14,0.39-0.28,0.6-0.4c0.37-0.23,0.77-0.44,1.17-0.62
	c0.05-0.02,0.11-0.05,0.17-0.07c0.18-0.08-0.14,0.06-0.02,0.01c0.1-0.04,0.21-0.08,0.31-0.12c0.23-0.08,0.46-0.16,0.69-0.23
	c0.43-0.12,0.87-0.22,1.31-0.29c0.06-0.01,0.12-0.02,0.18-0.03c-0.23,0.03-0.1,0.01-0.05,0.01c0.12-0.01,0.24-0.03,0.36-0.04
	c0.23-0.02,0.45-0.03,0.68-0.03c0.23,0,0.45,0,0.68,0.01c0.11,0.01,0.23,0.02,0.34,0.02c0.07,0.01,0.49,0.06,0.22,0.02
	c0.45,0.07,0.89,0.16,1.33,0.29c0.22,0.06,0.43,0.14,0.65,0.22c0.06,0.02,0.12,0.05,0.17,0.07c-0.19-0.08-0.08-0.03-0.04-0.01
	c0.13,0.06,0.27,0.12,0.4,0.18c0.42,0.21,0.82,0.45,1.2,0.72c0.03,0.02,0.21,0.16,0.03,0.02c0.05,0.04,0.1,0.08,0.15,0.12
	c0.12,0.1,0.24,0.2,0.35,0.3c0.2,0.18,0.39,0.37,0.58,0.57c0.1,0.11,0.2,0.22,0.3,0.33c0.04,0.05,0.07,0.09,0.11,0.14
	c-0.14-0.17,0.06,0.07,0.08,0.11c0.17,0.23,0.34,0.48,0.49,0.72c0.17,0.28,0.33,0.57,0.48,0.86c0.18,0.36,0.19,0.39,0.33,0.74
	c0.27,0.7,0.48,1.43,0.63,2.17c0.2,0.97,1.73,0.72,1.74-0.23c0-0.46,0.02-0.92,0.08-1.37c0.02-0.18,0.01-0.06,0-0.03
	c0.01-0.05,0.02-0.11,0.03-0.17c0.02-0.1,0.03-0.19,0.05-0.28c0.04-0.2,0.08-0.39,0.14-0.58c0.05-0.18,0.11-0.37,0.17-0.55
	c0.03-0.08,0.06-0.16,0.09-0.24c0.02-0.04,0.04-0.09,0.06-0.13c-0.03,0.07-0.04,0.09,0,0.01c0.15-0.32,0.32-0.63,0.52-0.92
	c0.04-0.06,0.09-0.12,0.13-0.19c0.02-0.04,0.05-0.07,0.08-0.1c0,0-0.1,0.12-0.04,0.05c0.11-0.13,0.22-0.25,0.33-0.37
	c0.1-0.1,0.2-0.2,0.31-0.29c0.05-0.05,0.11-0.09,0.16-0.14c0.11-0.1-0.01,0.01-0.04,0.02c0.04-0.03,0.08-0.06,0.12-0.09
	c0.24-0.17,0.49-0.31,0.76-0.44c0.06-0.03,0.12-0.05,0.19-0.08c-0.24,0.11,0,0,0.06-0.02c0.14-0.05,0.27-0.09,0.41-0.13
	c0.14-0.04,0.28-0.07,0.42-0.09c0.07-0.01,0.13-0.02,0.2-0.03c0.1-0.02-0.1,0.01-0.09,0.01c0.05,0,0.1-0.01,0.14-0.01
	c0.29-0.02,0.57-0.03,0.86-0.01c0.08,0.01,0.15,0.01,0.23,0.02c0.2,0.01-0.14-0.03,0.02,0c0.15,0.03,0.3,0.05,0.46,0.08
	c0.29,0.07,0.56,0.16,0.84,0.26c0.15,0.05-0.16-0.08,0.03,0.01c0.06,0.03,0.13,0.06,0.19,0.09c0.14,0.07,0.29,0.15,0.42,0.22
	c0.12,0.07,0.24,0.15,0.36,0.22c0.07,0.05,0.13,0.09,0.2,0.14c-0.16-0.11,0,0,0.06,0.05c0.24,0.2,0.47,0.41,0.67,0.64
	c0.05,0.05,0.1,0.11,0.15,0.17c0.05,0.06,0.14,0.18,0.04,0.05c0.1,0.14,0.21,0.28,0.3,0.42c0.1,0.16,0.2,0.32,0.29,0.49
	c0.04,0.08,0.08,0.16,0.12,0.24c0.03,0.05,0.14,0.32,0.07,0.14c0.15,0.38,0.28,0.76,0.37,1.16c0.05,0.2,0.08,0.4,0.12,0.6
	c0,0.04,0.03,0.17,0,0c0.01,0.07,0.01,0.13,0.02,0.2c0.01,0.11,0.02,0.21,0.02,0.32c0.03,0.5,0.02,0.99-0.02,1.48
	c-0.04,0.42,0.36,0.8,0.77,0.85c0.46,0.05,0.81-0.21,0.97-0.62c0.36-0.94,0.92-2.02,1.6-2.94c0.08-0.11,0.16-0.21,0.24-0.32
	c-0.1,0.13,0.1-0.12,0.13-0.16c0.17-0.21,0.35-0.4,0.54-0.6c0.34-0.35,0.71-0.68,1.09-0.99c0.02-0.02,0.22-0.16,0.05-0.04
	c0.04-0.03,0.08-0.06,0.12-0.09c0.1-0.07,0.19-0.14,0.29-0.2c0.2-0.14,0.41-0.26,0.62-0.38c0.19-0.11,0.38-0.21,0.58-0.3
	c0.1-0.05,0.2-0.1,0.31-0.14c0.05-0.02,0.1-0.05,0.15-0.07c0.06-0.02,0.04-0.02-0.06,0.02c0.04-0.01,0.08-0.03,0.12-0.05
	c0.41-0.15,0.83-0.29,1.26-0.39c0.2-0.04,0.4-0.09,0.6-0.12c0.05-0.01,0.1-0.01,0.16-0.02c0.21-0.04-0.15,0.01-0.01,0
	c0.12-0.01,0.23-0.03,0.35-0.04c0.42-0.03,0.85-0.04,1.27-0.02c0.11,0.01,0.21,0.01,0.31,0.02c0.06,0.01,0.4,0.05,0.14,0.01
	c0.22,0.03,0.43,0.07,0.64,0.11c0.41,0.09,0.82,0.21,1.22,0.36c0.04,0.01,0.08,0.03,0.11,0.05c0.2,0.07-0.18-0.08,0.02,0.01
	c0.08,0.04,0.17,0.07,0.25,0.12c0.19,0.09,0.39,0.19,0.57,0.3c0.18,0.1,0.36,0.22,0.53,0.33c0.08,0.05,0.15,0.11,0.23,0.16
	c0.11,0.08-0.16-0.13,0,0c0.05,0.04,0.1,0.08,0.15,0.12c0.34,0.28,0.65,0.58,0.93,0.9c0.06,0.07,0.12,0.15,0.19,0.22
	c0.15,0.17-0.11-0.15,0.02,0.03c0.02,0.04,0.05,0.07,0.08,0.1c0.15,0.19,0.28,0.39,0.41,0.6c0.1,0.17,0.2,0.35,0.3,0.53
	c0.05,0.1,0.1,0.2,0.15,0.3c0.03,0.06,0.06,0.13,0.09,0.19c-0.06-0.14-0.01-0.02,0.02,0.05c0.2,0.51,0.36,1.03,0.48,1.56
	c0.03,0.14,0.06,0.27,0.08,0.41c0.01,0.08,0.03,0.15,0.04,0.23c0.01,0.04,0.04,0.27,0.01,0.08c0.04,0.29,0.07,0.59,0.08,0.89
	c0.03,0.66,0.02,1.33-0.05,1.99c-0.07,0.67-0.18,1.32-0.36,2.06c-0.18,0.76,0.6,1.31,1.3,0.97c1.09-0.52,2.29-0.95,3.57-1.18
	c0.13-0.02,0.27-0.05,0.4-0.06c-0.19,0.03,0.19-0.02,0.23-0.03c0.28-0.03,0.55-0.04,0.83-0.05c0.24,0,0.49,0,0.73,0.01
	c0.12,0.01,0.24,0.02,0.35,0.03c0.07,0.01,0.14,0.02,0.21,0.03c-0.23-0.03-0.01,0,0.04,0.01c0.48,0.08,0.96,0.19,1.42,0.35
	c0.1,0.04,0.2,0.08,0.3,0.11c0.04,0.01,0.15,0.07-0.03-0.01c0.06,0.02,0.12,0.05,0.17,0.08c0.21,0.09,0.41,0.2,0.62,0.31
	c0.18,0.1,0.36,0.21,0.53,0.33c0.08,0.06,0.17,0.12,0.25,0.18c0.17,0.12-0.14-0.12,0.02,0.01c0.05,0.04,0.1,0.08,0.14,0.11
	c0.33,0.27,0.63,0.57,0.91,0.88c0.07,0.08,0.14,0.17,0.21,0.25c0.03,0.04,0.12,0.16-0.01-0.01c0.03,0.04,0.06,0.08,0.09,0.12
	c0.14,0.19,0.27,0.37,0.39,0.57c0.22,0.36,0.42,0.73,0.59,1.12c-0.1-0.23,0.03,0.07,0.05,0.13c0.04,0.09,0.07,0.19,0.1,0.28
	c0.07,0.21,0.14,0.42,0.19,0.63c0.05,0.19,0.1,0.39,0.14,0.59c0.02,0.1,0.04,0.2,0.06,0.3c0.01,0.06,0.02,0.12,0.03,0.18
	c-0.04-0.24-0.01-0.05,0,0.01c0.05,0.43,0.07,0.86,0.06,1.3c-0.01,0.21-0.02,0.42-0.04,0.63c-0.01,0.06-0.05,0.39-0.01,0.13
	c-0.02,0.12-0.04,0.24-0.06,0.36c-0.08,0.42-0.19,0.84-0.33,1.24c-0.03,0.1-0.07,0.19-0.11,0.29c-0.02,0.05-0.15,0.35-0.05,0.14
	c-0.1,0.21-0.19,0.41-0.3,0.61c-0.12,0.22-0.25,0.43-0.39,0.64c-0.07,0.11-0.15,0.21-0.22,0.31c-0.02,0.03-0.16,0.2-0.02,0.03
	c-0.04,0.05-0.08,0.1-0.12,0.15c-0.34,0.4-0.72,0.78-1.13,1.12c-0.04,0.04-0.09,0.07-0.13,0.11c-0.18,0.14,0.07-0.05-0.07,0.05
	c-0.12,0.08-0.23,0.16-0.35,0.24c-0.24,0.16-0.49,0.31-0.75,0.45c-0.27,0.14-0.54,0.27-0.82,0.39c0.03-0.01,0.15-0.06-0.01,0
	c-0.09,0.03-0.17,0.07-0.26,0.1c-0.16,0.06-0.33,0.12-0.49,0.17c-0.75,0.24-0.85,1.15-0.21,1.58c0.28,0.18,0.57,0.43,0.86,0.75
	c0.07,0.07,0.14,0.15,0.2,0.23c-0.07-0.09,0.08,0.11,0.1,0.14c0.13,0.18,0.24,0.36,0.35,0.55c0.22,0.39,0.28,0.55,0.43,1
	c0.06,0.2,0.12,0.4,0.16,0.6c0.04,0.17,0.1,0.5,0.11,0.59c0.2,1.56-0.09,3.27-0.87,4.64c-0.1,0.18-0.21,0.35-0.32,0.51
	c-0.06,0.08-0.12,0.16-0.18,0.24c-0.06,0.08-0.01,0.01,0.01-0.01c-0.04,0.05-0.09,0.11-0.14,0.16c-0.13,0.15-0.27,0.29-0.41,0.42
	c-0.07,0.07-0.15,0.13-0.22,0.19c-0.03,0.03-0.07,0.05-0.1,0.08c-0.04,0.03-0.04,0.03-0.01,0.01c0.08-0.06,0.03-0.02-0.15,0.12
	c-0.87,0.71-1.76,1.35-2.86,1.7c-1.9,0.59-3.86,0.25-5.61-0.65c-2.03-1.06-3.73-2.72-4.96-4.59c-0.24-0.36-0.69-0.53-1.1-0.35
	c-0.43,0.19-0.58,0.58-0.51,1.02c0.04,0.27-0.01-0.1,0.01,0.06c0.01,0.05,0.01,0.11,0.02,0.17c0.01,0.12,0.02,0.24,0.03,0.37
	c0.02,0.25,0.03,0.5,0.03,0.76c0,0.22-0.01,0.43-0.02,0.65c-0.01,0.12-0.02,0.25-0.03,0.37c0,0.04-0.02,0.17,0-0.01
	c-0.01,0.07-0.02,0.14-0.03,0.21c-0.07,0.41-0.17,0.82-0.31,1.22c-0.03,0.1-0.07,0.19-0.1,0.29c-0.02,0.05-0.15,0.33-0.05,0.13
	c-0.09,0.19-0.18,0.38-0.28,0.56c-0.09,0.16-0.18,0.32-0.29,0.47c-0.06,0.09-0.12,0.18-0.18,0.27c-0.04,0.05-0.24,0.3-0.09,0.13
	c-0.24,0.3-0.5,0.57-0.78,0.83c-0.14,0.13-0.29,0.25-0.43,0.37c-0.19,0.16,0.07-0.05-0.1,0.07c-0.09,0.06-0.17,0.12-0.26,0.18
	c-0.32,0.21-0.66,0.4-1,0.57c-0.07,0.04-0.15,0.07-0.23,0.11c-0.05,0.02-0.1,0.04-0.14,0.06c-0.11,0.05,0.15-0.06,0.04-0.01
	c-0.19,0.07-0.37,0.14-0.56,0.2c-0.37,0.12-0.74,0.21-1.12,0.28c-0.09,0.01-0.19,0.03-0.28,0.05c-0.14,0.02,0.15-0.02-0.07,0.01
	c-0.21,0.02-0.41,0.04-0.62,0.04c-0.37,0.02-0.74,0-1.11-0.03c-0.05,0-0.33-0.04-0.19-0.02c0.14,0.02-0.14-0.03-0.19-0.03
	c-0.19-0.03-0.38-0.07-0.57-0.12c-0.17-0.04-0.34-0.09-0.5-0.15c-0.09-0.03-0.18-0.06-0.26-0.09c-0.05-0.02-0.1-0.04-0.15-0.05
	c-0.17-0.06,0.16,0.08-0.02-0.01c-0.34-0.15-0.67-0.32-0.99-0.52c-0.16-0.1-0.31-0.21-0.46-0.32c0.15,0.11-0.01-0.01-0.07-0.06
	c-0.09-0.07-0.18-0.15-0.27-0.23c-0.17-0.15-0.33-0.31-0.48-0.48c-0.08-0.08-0.15-0.16-0.22-0.25c-0.03-0.03-0.06-0.07-0.08-0.1
	c0.14,0.17-0.01-0.01-0.02-0.04c-0.28-0.38-0.52-0.78-0.73-1.21c-0.02-0.06-0.05-0.11-0.08-0.16c-0.07-0.15,0.03,0.07-0.01-0.03
	c-0.05-0.12-0.1-0.25-0.15-0.38c-0.09-0.24-0.16-0.48-0.23-0.73c-0.07-0.26-0.13-0.52-0.18-0.78c-0.07-0.38-0.07-0.39-0.11-0.78
	c-0.05-0.46-0.37-0.86-0.88-0.86c-0.49,0-0.87,0.4-0.88,0.86c-0.01,0.24-0.02,0.47-0.04,0.71c-0.01,0.05-0.01,0.1-0.02,0.15
	c0,0-0.03,0.24-0.01,0.11s-0.02,0.11-0.02,0.11c-0.01,0.07-0.02,0.15-0.04,0.22c-0.08,0.42-0.19,0.83-0.33,1.23
	c-0.04,0.11-0.08,0.21-0.12,0.32c-0.01,0.04-0.07,0.15,0.01-0.02c-0.02,0.04-0.04,0.08-0.06,0.12c-0.1,0.2-0.19,0.39-0.31,0.58
	c-0.1,0.17-0.2,0.33-0.31,0.49c-0.05,0.07-0.1,0.14-0.15,0.21c-0.09,0.13,0.01-0.01,0.02-0.03c-0.04,0.05-0.08,0.1-0.12,0.15
	c-0.25,0.3-0.53,0.58-0.83,0.83c-0.06,0.05-0.13,0.1-0.19,0.15c-0.15,0.13,0.11-0.08,0.01-0.01c-0.04,0.03-0.08,0.06-0.12,0.09
	c-0.15,0.11-0.3,0.21-0.46,0.3c-0.16,0.09-0.32,0.18-0.48,0.27c-0.09,0.05-0.18,0.09-0.28,0.13c-0.06,0.03-0.36,0.15-0.13,0.06
	c-0.35,0.14-0.71,0.26-1.08,0.35c-0.17,0.04-0.34,0.08-0.51,0.11c-0.1,0.02-0.2,0.04-0.3,0.05c-0.24,0.04,0.12-0.01-0.13,0.02
	c-0.38,0.04-0.76,0.06-1.14,0.05c-0.17,0-0.35-0.01-0.52-0.03c-0.1-0.01-0.2-0.02-0.31-0.03c-0.05,0-0.17-0.02,0.05,0.01
	c-0.06-0.01-0.12-0.02-0.18-0.03c-0.38-0.06-0.75-0.14-1.11-0.25c-0.17-0.05-0.33-0.1-0.5-0.16c-0.05-0.02-0.37-0.15-0.13-0.05
	c-0.09-0.04-0.19-0.08-0.28-0.12c-0.34-0.16-0.68-0.34-0.99-0.55c-0.08-0.05-0.15-0.1-0.23-0.16c-0.2-0.14,0.07,0.06-0.09-0.07
	c-0.15-0.12-0.3-0.25-0.45-0.38c-0.14-0.13-0.27-0.26-0.39-0.4c-0.05-0.06-0.11-0.12-0.17-0.19c-0.03-0.04-0.07-0.08-0.1-0.12
	c-0.04-0.05,0.1,0.13-0.02-0.02c-0.26-0.36-0.5-0.73-0.7-1.12c-0.02-0.05-0.05-0.1-0.07-0.15c-0.01-0.02-0.1-0.23-0.05-0.11
	c0.05,0.13-0.03-0.08-0.03-0.09c-0.02-0.06-0.05-0.13-0.07-0.19c-0.08-0.22-0.15-0.44-0.21-0.67c-0.07-0.24-0.12-0.49-0.16-0.74
	c-0.01-0.05-0.01-0.1-0.03-0.15c-0.01-0.06-0.01-0.05,0.01,0.04c-0.01-0.04-0.01-0.08-0.01-0.11c-0.02-0.14-0.03-0.28-0.04-0.42
	c-0.04-0.58-0.03-1.15,0.02-1.73c0.08-0.88-1.23-1.14-1.65-0.43c-0.79,1.32-1.62,2.45-2.77,3.49c-0.55,0.5-0.84,0.72-1.45,1.1
	c-0.24,0.15-0.48,0.28-0.73,0.41c-0.11,0.05-0.22,0.11-0.33,0.16c-0.07,0.03-0.13,0.06-0.2,0.09c0.2-0.09-0.09,0.03-0.12,0.04
	c-0.5,0.19-1.01,0.33-1.54,0.42c-0.07,0.01-0.13,0.02-0.2,0.03c-0.23,0.04,0.2-0.01-0.03,0c-0.13,0.01-0.27,0.03-0.4,0.04
	c-0.26,0.02-0.53,0.02-0.79,0.01c-0.24-0.01-0.47-0.03-0.71-0.05c-0.22-0.02,0.2,0.04-0.02,0c-0.06-0.01-0.13-0.02-0.19-0.03
	c-0.13-0.02-0.25-0.05-0.38-0.08c-0.23-0.05-0.46-0.11-0.68-0.18c-0.12-0.04-0.24-0.08-0.37-0.12c-0.07-0.03-0.48-0.19-0.27-0.1
	c-0.45-0.2-0.89-0.42-1.3-0.68c-0.2-0.12-0.39-0.26-0.58-0.39c-0.03-0.02-0.2-0.16-0.02-0.02c-0.05-0.04-0.1-0.08-0.15-0.12
	c-0.1-0.08-0.2-0.16-0.29-0.24c-0.39-0.34-0.74-0.7-1.07-1.09c-0.04-0.04-0.24-0.31-0.1-0.12c-0.08-0.1-0.15-0.2-0.23-0.31
	c-0.15-0.21-0.29-0.42-0.42-0.63c-0.12-0.2-0.24-0.4-0.34-0.61c-0.06-0.11-0.11-0.23-0.17-0.34c-0.02-0.04-0.1-0.24-0.01-0.02
	c-0.03-0.07-0.06-0.14-0.08-0.21c-0.18-0.46-0.33-0.93-0.43-1.42c-0.03-0.12-0.05-0.25-0.07-0.37c-0.01-0.04-0.01-0.08-0.02-0.12
	c-0.04-0.21,0.02,0.2,0-0.02c-0.02-0.25-0.05-0.5-0.05-0.76c-0.01-0.25,0-0.51,0.02-0.77c0.01-0.1,0.02-0.21,0.03-0.32
	c0.01-0.04,0.04-0.26,0-0.03c0.01-0.08,0.03-0.17,0.04-0.26c0.11-0.57,0.28-1.13,0.5-1.66c-0.08,0.19,0.08-0.17,0.11-0.24
	c0.07-0.15,0.15-0.29,0.24-0.44c0.16-0.27,0.33-0.54,0.52-0.8c0.04-0.06,0.09-0.12,0.14-0.18c0.06-0.08,0.06-0.08,0-0.01
	c0.03-0.04,0.07-0.08,0.1-0.12c0.1-0.12,0.2-0.24,0.31-0.36c0.24-0.26,0.49-0.52,0.76-0.75c0.63-0.58,1.12-0.93,1.87-1.39
	c0.73-0.45,0.45-1.6-0.44-1.61c-0.39,0-0.78-0.01-1.16-0.04c-0.18-0.01-0.36-0.03-0.54-0.05c-0.09-0.01-0.19-0.02-0.28-0.03
	c-0.1-0.01,0.02,0,0.04,0.01c-0.05-0.01-0.11-0.01-0.15-0.02c-0.67-0.1-1.34-0.25-1.99-0.45c-0.14-0.04-0.29-0.09-0.43-0.15
	c-0.07-0.03-0.15-0.05-0.22-0.08c-0.07-0.03-0.24-0.1-0.07-0.03c-0.27-0.12-0.54-0.24-0.8-0.38c-0.26-0.14-0.51-0.29-0.76-0.45
	c-0.11-0.07-0.22-0.15-0.32-0.22c-0.08-0.06-0.13-0.1-0.02-0.01c-0.06-0.05-0.13-0.1-0.19-0.15c-0.41-0.33-0.78-0.7-1.12-1.09
	c-0.04-0.05-0.08-0.1-0.12-0.15c-0.03-0.04,0.1,0.14,0,0c-0.08-0.11-0.16-0.22-0.24-0.34c-0.14-0.21-0.27-0.42-0.39-0.63
	c-0.12-0.21-0.22-0.44-0.33-0.66c0.1,0.23-0.03-0.09-0.07-0.17c-0.05-0.12-0.09-0.24-0.13-0.35c-0.15-0.47-0.26-0.95-0.34-1.43
	c-0.03-0.16,0.02,0.18,0,0.02c-0.01-0.06-0.02-0.12-0.02-0.18c-0.01-0.12-0.02-0.25-0.03-0.37c-0.01-0.24-0.02-0.48-0.01-0.72
	c0.01-0.24,0.02-0.48,0.04-0.72c0.01-0.09,0.06-0.43,0.02-0.17c0.02-0.12,0.04-0.25,0.06-0.37c0.09-0.48,0.22-0.96,0.38-1.42
	c0.04-0.11,0.08-0.22,0.12-0.32c0.02-0.05,0.04-0.1,0.06-0.15c-0.1,0.24-0.01,0.02,0.02-0.04c0.1-0.22,0.21-0.43,0.33-0.64
	c0.12-0.22,0.25-0.43,0.4-0.64c0.07-0.1,0.13-0.19,0.2-0.29c0.03-0.04,0.07-0.08,0.1-0.13c0.07-0.09-0.11,0.13,0.03-0.04
	c0.32-0.38,0.65-0.72,1.03-1.04c0.09-0.08,0.19-0.15,0.28-0.22c0.17-0.13-0.11,0.07,0.02-0.01c0.05-0.04,0.1-0.07,0.16-0.11
	c0.21-0.15,0.44-0.29,0.67-0.41c0.22-0.13,0.46-0.24,0.69-0.34c0.05-0.03,0.1-0.05,0.16-0.07c-0.23,0.1-0.02,0.01,0.03-0.01
	c0.13-0.05,0.26-0.1,0.39-0.14c0.26-0.08,0.52-0.16,0.79-0.22c0.13-0.03,0.26-0.06,0.39-0.08c0.07-0.01,0.14-0.02,0.22-0.04
	c0.06-0.01,0.32-0.04,0.08-0.01c0.6-0.07,1.2-0.09,1.8-0.06c0.15,0.01,0.31,0.02,0.46,0.03c0.08,0.01,0.17,0.01,0.25,0.02
	c0.04,0,0.07,0.01,0.11,0.01c0.13,0.01-0.15-0.02-0.01,0c0.34,0.05,0.68,0.11,1.01,0.18c0.74,0.16,1.47,0.38,2.18,0.65
	c0.08,0.03,0.17,0.06,0.25,0.1c0.03,0.01,0.27,0.11,0.16,0.07c0.2,0.08,0.4,0.17,0.6,0.26c0.43,0.2,0.95,0.12,1.21-0.31
	C142.92,187.48,142.82,186.87,142.38,186.67z"/>
<path class="st0" d="M153.13,204.17c-0.25-0.37-0.47-0.74-0.66-1.14c-0.04-0.08-0.08-0.17-0.11-0.25c-0.07-0.16-0.01-0.03,0,0.01
	c-0.02-0.05-0.04-0.09-0.05-0.14c-0.07-0.18-0.13-0.37-0.18-0.56c-0.04-0.17-0.09-0.34-0.11-0.51c-0.02-0.09-0.04-0.25-0.01-0.05
	c-0.01-0.1-0.02-0.2-0.03-0.29c-0.01-0.16-0.01-0.32-0.01-0.48c0-0.07,0.01-0.14,0.01-0.22c0.01-0.06,0.05-0.37,0-0.09
	c0.05-0.31,0.12-0.6,0.22-0.9c0.02-0.07,0.05-0.13,0.07-0.19c-0.07,0.19-0.02,0.04,0.03-0.05c0.07-0.14,0.14-0.28,0.22-0.41
	c0.07-0.12,0.15-0.23,0.22-0.34c0.14-0.2-0.07,0.07,0.03-0.04c0.05-0.06,0.1-0.12,0.15-0.18c0.21-0.24,0.44-0.44,0.67-0.65
	c0.12-0.11-0.16,0.11,0.03-0.02c0.06-0.04,0.11-0.08,0.17-0.12c0.13-0.09,0.26-0.18,0.4-0.26c0.13-0.07,0.26-0.15,0.39-0.21
	c0.06-0.03,0.12-0.06,0.19-0.09c0.23-0.11-0.11,0.04,0.09-0.04c0.29-0.1,0.58-0.21,0.88-0.28c0.15-0.04,0.29-0.07,0.44-0.09
	c0.12-0.02,0.19-0.03,0.03-0.01c0.09-0.01,0.18-0.02,0.27-0.03c0.31-0.03,0.62-0.03,0.93-0.01c0.07,0,0.14,0.01,0.21,0.02
	c0.04,0,0.08,0.01,0.12,0.01c0.12,0.01-0.18-0.03-0.06-0.01c0.16,0.03,0.31,0.05,0.47,0.09c0.15,0.04,0.29,0.08,0.43,0.13
	c0.07,0.02,0.13,0.05,0.2,0.07c0.04,0.01,0.08,0.03,0.11,0.05c0.11,0.04-0.2-0.1-0.02-0.01c0.28,0.14,0.55,0.27,0.81,0.45
	c0.04,0.03,0.26,0.19,0.16,0.11c-0.09-0.07,0.12,0.1,0.16,0.13c0.14,0.12,0.27,0.25,0.4,0.39c0.07,0.08,0.13,0.15,0.2,0.23
	c0.05,0.06,0.18,0.24,0.07,0.08c0.12,0.17,0.24,0.35,0.35,0.53c0.11,0.18,0.2,0.37,0.29,0.56c0.02,0.05,0.04,0.09,0.06,0.14
	c0.06,0.13-0.08-0.2,0.02,0.03c0.04,0.1,0.08,0.2,0.11,0.3c0.17,0.5,0.29,1.01,0.38,1.53c0.08,0.49,0.68,0.77,1.12,0.64
	c0.52-0.15,0.71-0.64,0.63-1.14c-0.15-0.95-0.21-2.21-0.09-3.3c0.01-0.07,0.02-0.14,0.02-0.2c0,0.04-0.03,0.19,0,0
	c0.02-0.12,0.04-0.24,0.06-0.35c0.04-0.24,0.1-0.47,0.16-0.71c0.06-0.21,0.12-0.42,0.19-0.63c0.04-0.1,0.07-0.2,0.11-0.3
	c0.02-0.05,0.09-0.2,0,0c0.03-0.06,0.05-0.13,0.08-0.19c0.17-0.36,0.36-0.71,0.58-1.03c0.06-0.09,0.12-0.17,0.18-0.26
	c-0.12,0.16-0.01,0.02,0.05-0.06c0.13-0.15,0.26-0.31,0.41-0.45c0.12-0.13,0.26-0.25,0.39-0.36c0.08-0.07,0.2-0.15,0.04-0.04
	c0.09-0.06,0.17-0.13,0.26-0.18c0.29-0.2,0.6-0.36,0.91-0.51c0.18-0.08-0.16,0.06-0.04,0.02c0.04-0.02,0.09-0.04,0.13-0.05
	c0.07-0.03,0.14-0.05,0.21-0.07c0.18-0.06,0.35-0.11,0.53-0.15c0.16-0.04,0.32-0.07,0.49-0.09c-0.19,0.03-0.09,0.01,0.03,0
	c0.1-0.01,0.2-0.02,0.3-0.02c0.34-0.02,0.67,0.02,1.01,0.04c-0.29-0.02-0.02,0,0.06,0.01c0.08,0.02,0.16,0.03,0.25,0.05
	c0.18,0.04,0.36,0.09,0.54,0.15c0.15,0.05,0.3,0.11,0.45,0.16c0.12,0.05-0.21-0.1-0.04-0.02c0.04,0.02,0.07,0.03,0.1,0.05
	c0.09,0.04,0.17,0.08,0.25,0.13c0.15,0.08,0.3,0.17,0.45,0.26c0.08,0.05,0.16,0.11,0.24,0.16c0.06,0.04,0.3,0.24,0.1,0.07
	c0.29,0.24,0.56,0.49,0.81,0.77c0.06,0.07,0.12,0.14,0.18,0.21c0.03,0.03,0.05,0.07,0.08,0.1c0.14,0.16-0.09-0.12-0.01-0.01
	c0.12,0.17,0.24,0.34,0.34,0.51c0.12,0.2,0.24,0.41,0.34,0.62c0.06,0.11,0.11,0.23,0.16,0.35c0.02,0.04,0.06,0.16-0.01-0.03
	c0.02,0.07,0.05,0.13,0.08,0.2c0.18,0.49,0.32,1.01,0.43,1.53c0.03,0.13,0.05,0.26,0.07,0.4c0.01,0.06,0.02,0.11,0.02,0.16
	c-0.03-0.21,0,0.04,0.01,0.08c0.04,0.32,0.05,0.63,0.06,0.95c0.02,0.66-0.02,1.33-0.09,1.99c-0.1,0.89,1.35,1.3,1.69,0.47
	c0.15-0.35,0.31-0.69,0.5-1.02c0.09-0.15,0.18-0.3,0.28-0.45c0.05-0.07,0.1-0.14,0.15-0.21c-0.09,0.12,0.04-0.05,0.07-0.08
	c0.21-0.25,0.43-0.48,0.67-0.69c0.06-0.05,0.12-0.1,0.18-0.15c-0.16,0.13,0.04-0.03,0.06-0.04c0.12-0.09,0.25-0.17,0.38-0.25
	s0.25-0.15,0.39-0.21c0.07-0.03,0.13-0.06,0.2-0.09c0.22-0.1-0.18,0.05,0.05-0.02c0.27-0.09,0.54-0.19,0.82-0.25
	c0.14-0.03,0.28-0.05,0.42-0.08c-0.25,0.04,0.18-0.01,0.25-0.02c0.28-0.02,0.56-0.01,0.84,0.01c0.07,0.01,0.14,0.02,0.21,0.02
	c0.24,0.02-0.19-0.04,0.04,0.01c0.14,0.03,0.28,0.05,0.41,0.08c0.27,0.07,0.54,0.15,0.8,0.24c0.07,0.03,0.13,0.05,0.19,0.08
	c-0.22-0.09,0,0,0.04,0.02c0.12,0.06,0.25,0.12,0.37,0.19c0.24,0.14,0.47,0.29,0.7,0.45c0.19,0.13-0.14-0.13,0.04,0.03
	c0.05,0.04,0.11,0.09,0.16,0.14c0.1,0.09,0.21,0.19,0.31,0.28c0.08,0.08,0.16,0.17,0.24,0.26c0.05,0.05,0.09,0.11,0.13,0.16
	c0.16,0.19-0.01-0.04,0.07,0.09c0.14,0.22,0.28,0.43,0.4,0.66c0.07,0.13,0.13,0.26,0.18,0.38c-0.09-0.22,0,0.01,0.01,0.04
	c0.03,0.09,0.06,0.18,0.09,0.28c0.05,0.16,0.09,0.33,0.12,0.5c0.01,0.05,0.02,0.1,0.03,0.15c0.01,0.05,0.02,0.1,0.02,0.15
	c-0.02-0.12-0.02-0.13-0.01-0.02c0.02,0.37,0.04,0.73,0,1.1c0,0.03-0.04,0.3-0.01,0.08c-0.01,0.08-0.03,0.17-0.04,0.25
	c-0.04,0.2-0.08,0.4-0.14,0.59c-0.13,0.46-0.24,0.74-0.41,1.1c-0.21,0.45-0.12,1,0.32,1.26c0.4,0.24,1.03,0.12,1.24-0.33
	c0.71-1.5,1.05-3.12,0.73-4.77c-0.26-1.34-1-2.59-2-3.48c-2.1-1.86-5.13-2.37-7.67-1.16c-1.58,0.75-2.75,2.2-3.43,3.81
	c0.56,0.15,1.13,0.31,1.69,0.47c0.24-2.28,0.01-4.66-1.06-6.71c-0.83-1.61-2.19-2.86-3.84-3.54c-3.22-1.32-6.91,0.14-8.59,3.18
	c-1.28,2.31-1.36,5.05-0.97,7.61c0.59-0.16,1.17-0.33,1.75-0.49c-0.3-1.76-1.07-3.54-2.45-4.69c-1.2-1-2.69-1.53-4.25-1.51
	c-2.87,0.03-5.88,1.88-6.6,4.83c-0.48,1.97,0.16,3.97,1.26,5.6c0.28,0.41,0.8,0.6,1.24,0.33
	C153.2,205.2,153.41,204.59,153.13,204.17z"/>
<path class="st0" d="M316.09,187.15c-2.69-1.3-5.72-2.07-8.67-1.36c-2.26,0.54-4.22,1.99-5.51,3.97c-1.19,1.84-1.78,4.14-1.64,6.35
	c0.14,2.35,1.05,4.61,2.66,6.28c1.96,2.03,4.67,2.96,7.39,3.16c0.39,0.03,0.79,0.04,1.18,0.04c-0.15-0.56-0.29-1.12-0.44-1.67
	c-2.33,1.54-4.34,3.72-5.09,6.54c-0.61,2.3-0.29,4.75,0.71,6.88c1.99,4.2,6.71,6.88,11.17,5.58c3.23-0.95,5.63-3.66,7.27-6.58
	c-0.54-0.15-1.08-0.3-1.62-0.45c-0.18,2.1,0.15,4.3,1.25,6.1c0.96,1.58,2.4,2.73,4.08,3.4c3.16,1.26,7.05,0.52,9.44-2.01
	c1.57-1.66,2.3-3.91,2.35-6.21c-0.58,0-1.16,0-1.74,0c0.2,2.19,0.88,4.31,2.33,5.96c1.15,1.3,2.75,2.2,4.43,2.51
	c3.5,0.64,7.2-0.89,9.13-4.01c1.26-2.04,1.52-4.49,1.19-6.84c-0.53,0.23-1.06,0.46-1.59,0.69c2.44,3.93,6.88,7.53,11.65,6.47
	c1.26-0.28,2.43-0.9,3.45-1.71c0.85-0.68,1.65-1.4,2.26-2.33c1.09-1.67,1.57-3.83,1.44-5.83c-0.15-2.38-1.12-4.64-3.06-6
	c-0.07,0.55-0.14,1.1-0.21,1.64c2.17-0.74,4.08-2.1,5.34-4.09c1.07-1.69,1.57-3.77,1.49-5.78c-0.18-4.12-2.76-8.01-6.74-9.03
	c-2.81-0.72-5.7,0.04-8.24,1.33c0.42,0.34,0.85,0.68,1.27,1.01c0.57-2.56,0.72-5.31-0.07-7.85c-0.63-2.02-1.82-3.78-3.5-5.01
	c-3.22-2.35-7.67-2.06-10.83,0.21c-2.24,1.61-3.77,3.96-4.72,6.57c0.57,0.08,1.14,0.16,1.7,0.24c0.26-3.31-1.01-6.88-4.04-8.39
	c-2.57-1.28-5.74-0.77-7.57,1.59c-1.3,1.68-1.76,3.82-1.77,5.94c0.57-0.08,1.14-0.16,1.7-0.24c-0.51-2.55-1.61-5.06-3.52-6.8
	c-1.61-1.46-3.61-2.29-5.74-2.42c-3.9-0.26-8.13,1.92-9.8,5.68c-1.06,2.38-1,5.05-0.06,7.47c0.17,0.45,0.58,0.76,1.07,0.63
	c0.41-0.12,0.78-0.65,0.6-1.11c-0.21-0.54-0.38-1.1-0.5-1.68c-0.02-0.12-0.05-0.24-0.07-0.35c-0.01-0.07-0.02-0.14-0.03-0.21
	c-0.04-0.24,0.02,0.19-0.01-0.04c-0.02-0.25-0.05-0.5-0.05-0.75c-0.01-0.24-0.01-0.49,0.01-0.73c0.01-0.11,0.02-0.22,0.02-0.32
	c0.01-0.06,0.02-0.13,0.02-0.19c-0.03,0.27,0-0.02,0.01-0.08c0.07-0.45,0.18-0.89,0.33-1.32c0.03-0.1,0.07-0.19,0.11-0.29
	c0.07-0.2-0.08,0.18,0-0.01c0.02-0.05,0.05-0.11,0.07-0.17c0.1-0.21,0.2-0.41,0.31-0.62c0.1-0.18,0.21-0.36,0.33-0.53
	c0.07-0.1,0.14-0.2,0.21-0.29c-0.14,0.2,0.07-0.09,0.12-0.15c0.28-0.34,0.58-0.66,0.9-0.95c0.09-0.08,0.18-0.16,0.27-0.24
	c0.03-0.02,0.06-0.05,0.09-0.08c0.16-0.13-0.16,0.11,0.01-0.01c0.2-0.14,0.38-0.29,0.58-0.42c0.37-0.24,0.75-0.46,1.15-0.65
	c0.05-0.03,0.11-0.05,0.16-0.08c0.18-0.09-0.13,0.06-0.01,0.01c0.1-0.04,0.2-0.09,0.31-0.13c0.23-0.09,0.45-0.17,0.68-0.24
	c0.42-0.13,0.85-0.23,1.29-0.3c0.06-0.01,0.12-0.02,0.18-0.03c-0.22,0.03-0.1,0.01-0.05,0.01c0.12-0.01,0.24-0.03,0.36-0.04
	c0.22-0.02,0.44-0.03,0.66-0.03c0.22,0,0.44,0,0.66,0.02c0.11,0.01,0.22,0.02,0.33,0.03c0.07,0.01,0.48,0.07,0.22,0.02
	c0.44,0.07,0.88,0.16,1.3,0.3c0.22,0.07,0.43,0.14,0.64,0.23c0.06,0.02,0.11,0.05,0.17,0.07c-0.19-0.08-0.08-0.03-0.04-0.02
	c0.13,0.07,0.26,0.13,0.39,0.19c0.41,0.22,0.8,0.47,1.18,0.75c0.03,0.02,0.2,0.17,0.03,0.02c0.05,0.04,0.1,0.08,0.15,0.13
	c0.12,0.1,0.23,0.2,0.35,0.31c0.2,0.19,0.39,0.38,0.57,0.59c0.1,0.11,0.2,0.23,0.29,0.35c0.04,0.05,0.07,0.1,0.11,0.14
	c-0.13-0.17,0.06,0.08,0.08,0.11c0.17,0.24,0.33,0.49,0.48,0.75c0.17,0.29,0.33,0.59,0.47,0.9c0.17,0.37,0.19,0.41,0.32,0.77
	c0.27,0.73,0.47,1.49,0.62,2.26c0.2,1.01,1.7,0.75,1.71-0.24c0-0.48,0.02-0.95,0.08-1.43c0.02-0.19,0.01-0.07,0-0.03
	c0.01-0.06,0.02-0.12,0.03-0.17c0.02-0.1,0.03-0.2,0.05-0.3c0.04-0.2,0.08-0.4,0.13-0.61c0.05-0.19,0.11-0.38,0.17-0.57
	c0.03-0.09,0.06-0.17,0.09-0.25c0.02-0.05,0.04-0.1,0.05-0.14c-0.03,0.07-0.04,0.1,0,0.01c0.15-0.33,0.31-0.65,0.51-0.96
	c0.04-0.07,0.09-0.13,0.13-0.2c0.02-0.04,0.05-0.07,0.08-0.11c0,0-0.1,0.13-0.04,0.05c0.11-0.13,0.21-0.26,0.33-0.39
	c0.1-0.11,0.2-0.21,0.31-0.3c0.05-0.05,0.11-0.09,0.16-0.14c0.11-0.1-0.02,0.01-0.04,0.03c0.04-0.03,0.08-0.06,0.12-0.09
	c0.24-0.17,0.48-0.33,0.74-0.46c0.06-0.03,0.12-0.06,0.18-0.09c-0.23,0.11,0,0,0.05-0.02c0.13-0.05,0.27-0.09,0.4-0.13
	c0.14-0.04,0.27-0.07,0.41-0.1c0.06-0.01,0.13-0.02,0.19-0.03c0.1-0.02-0.1,0.01-0.09,0.01c0.05,0,0.09-0.01,0.14-0.01
	c0.28-0.03,0.56-0.03,0.85-0.01c0.08,0.01,0.15,0.02,0.22,0.02c0.2,0.01-0.13-0.03,0.02,0c0.15,0.03,0.3,0.05,0.45,0.09
	c0.28,0.07,0.55,0.17,0.82,0.27c0.15,0.05-0.16-0.08,0.03,0.01c0.06,0.03,0.12,0.06,0.18,0.09c0.14,0.07,0.28,0.15,0.41,0.23
	c0.12,0.07,0.24,0.15,0.35,0.23c0.07,0.05,0.13,0.1,0.19,0.15c-0.15-0.12,0,0,0.06,0.05c0.24,0.2,0.46,0.43,0.66,0.67
	c0.05,0.06,0.1,0.12,0.14,0.17c0.05,0.07,0.14,0.19,0.04,0.05c0.1,0.15,0.2,0.29,0.3,0.44c0.1,0.16,0.2,0.33,0.28,0.51
	c0.04,0.08,0.08,0.17,0.12,0.25c0.02,0.05,0.14,0.34,0.06,0.14c0.15,0.39,0.27,0.79,0.36,1.21c0.05,0.21,0.08,0.41,0.11,0.62
	c0,0.04,0.03,0.18,0,0c0.01,0.07,0.02,0.13,0.02,0.2c0.01,0.11,0.02,0.22,0.03,0.33c0.03,0.52,0.02,1.03-0.02,1.55
	c-0.04,0.44,0.36,0.83,0.75,0.88c0.45,0.06,0.8-0.21,0.95-0.64c0.36-0.98,0.91-2.1,1.57-3.07c0.08-0.11,0.15-0.22,0.23-0.33
	c-0.1,0.14,0.1-0.13,0.13-0.16c0.17-0.21,0.34-0.42,0.53-0.62c0.33-0.37,0.7-0.71,1.07-1.03c0.02-0.02,0.21-0.17,0.05-0.04
	c0.04-0.03,0.08-0.06,0.11-0.09c0.1-0.07,0.19-0.14,0.29-0.21c0.2-0.14,0.4-0.27,0.61-0.4c0.18-0.11,0.37-0.22,0.57-0.32
	c0.1-0.05,0.2-0.1,0.3-0.15c0.05-0.02,0.1-0.05,0.15-0.07c0.06-0.02,0.04-0.02-0.05,0.03c0.04-0.01,0.08-0.03,0.12-0.05
	c0.41-0.16,0.81-0.3,1.24-0.4c0.2-0.05,0.39-0.09,0.59-0.12c0.05-0.01,0.1-0.02,0.16-0.03c0.21-0.04-0.15,0.02-0.01,0
	c0.12-0.01,0.23-0.03,0.34-0.04c0.41-0.04,0.83-0.04,1.24-0.02c0.1,0.01,0.21,0.02,0.31,0.03c0.06,0.01,0.39,0.06,0.14,0.01
	c0.21,0.03,0.42,0.07,0.63,0.12c0.41,0.09,0.81,0.22,1.2,0.38c0.04,0.02,0.08,0.03,0.11,0.05c0.2,0.08-0.17-0.09,0.02,0.01
	c0.08,0.04,0.17,0.08,0.25,0.12c0.19,0.1,0.38,0.2,0.57,0.32c0.18,0.11,0.35,0.22,0.52,0.34c0.08,0.05,0.15,0.11,0.23,0.17
	c0.11,0.08-0.16-0.14,0,0c0.05,0.04,0.1,0.08,0.14,0.12c0.33,0.29,0.64,0.6,0.92,0.94c0.06,0.07,0.12,0.15,0.18,0.23
	c0.14,0.17-0.11-0.15,0.02,0.03c0.03,0.04,0.05,0.07,0.08,0.11c0.14,0.2,0.27,0.41,0.4,0.62c0.1,0.18,0.2,0.36,0.29,0.55
	c0.05,0.1,0.1,0.21,0.15,0.32c0.03,0.07,0.06,0.13,0.09,0.2c-0.06-0.14-0.01-0.02,0.02,0.05c0.2,0.53,0.36,1.07,0.47,1.62
	c0.03,0.14,0.06,0.28,0.08,0.43c0.01,0.08,0.03,0.16,0.04,0.24c0.01,0.04,0.04,0.28,0.01,0.09c0.04,0.3,0.06,0.61,0.08,0.92
	c0.03,0.69,0.02,1.39-0.05,2.08c-0.06,0.7-0.18,1.37-0.35,2.14c-0.18,0.79,0.59,1.36,1.27,1.01c1.07-0.54,2.25-0.99,3.51-1.23
	c0.13-0.03,0.26-0.05,0.39-0.07c-0.19,0.03,0.18-0.02,0.23-0.03c0.27-0.03,0.54-0.04,0.82-0.05c0.24,0,0.48,0,0.71,0.01
	c0.12,0.01,0.23,0.02,0.35,0.03c0.07,0.01,0.14,0.01,0.2,0.02c-0.22-0.03-0.01,0,0.04,0.01c0.47,0.09,0.94,0.2,1.4,0.37
	c0.1,0.04,0.2,0.08,0.3,0.12c0.04,0.02,0.15,0.07-0.03-0.02c0.06,0.02,0.12,0.05,0.17,0.08c0.21,0.1,0.41,0.21,0.61,0.32
	c0.18,0.11,0.35,0.22,0.52,0.34c0.08,0.06,0.16,0.12,0.25,0.18c0.17,0.13-0.14-0.13,0.01,0.01c0.05,0.04,0.09,0.08,0.14,0.12
	c0.32,0.28,0.62,0.59,0.9,0.92c0.07,0.08,0.14,0.18,0.21,0.26c0.03,0.04,0.12,0.17-0.01-0.01c0.03,0.04,0.06,0.08,0.09,0.13
	c0.13,0.19,0.26,0.39,0.38,0.6c0.22,0.37,0.41,0.76,0.58,1.16c-0.1-0.24,0.03,0.07,0.05,0.13c0.04,0.1,0.07,0.19,0.1,0.29
	c0.07,0.22,0.14,0.44,0.19,0.66c0.05,0.2,0.1,0.41,0.14,0.61c0.02,0.1,0.04,0.2,0.05,0.31c0.01,0.06,0.02,0.12,0.03,0.19
	c-0.04-0.25-0.01-0.05,0,0.01c0.05,0.45,0.07,0.9,0.06,1.35c-0.01,0.22-0.02,0.44-0.04,0.66c-0.01,0.07-0.05,0.41-0.01,0.14
	c-0.02,0.13-0.04,0.25-0.06,0.38c-0.08,0.44-0.18,0.87-0.32,1.29c-0.03,0.1-0.07,0.2-0.1,0.3c-0.02,0.06-0.15,0.37-0.05,0.14
	c-0.09,0.21-0.19,0.43-0.3,0.64c-0.12,0.23-0.25,0.45-0.39,0.67c-0.07,0.11-0.14,0.22-0.21,0.32c-0.02,0.04-0.15,0.21-0.02,0.03
	c-0.04,0.05-0.08,0.1-0.12,0.16c-0.33,0.42-0.71,0.81-1.11,1.16c-0.04,0.04-0.09,0.08-0.13,0.11c-0.17,0.15,0.07-0.05-0.07,0.05
	c-0.11,0.08-0.23,0.17-0.34,0.25c-0.24,0.17-0.48,0.32-0.73,0.46c-0.26,0.15-0.53,0.28-0.8,0.41c0.03-0.02,0.15-0.06-0.01,0
	c-0.08,0.03-0.17,0.07-0.25,0.1c-0.16,0.06-0.32,0.12-0.49,0.18c-0.73,0.25-0.83,1.2-0.21,1.64c0.27,0.19,0.56,0.45,0.85,0.78
	c0.07,0.08,0.13,0.16,0.2,0.24c-0.07-0.1,0.08,0.11,0.1,0.14c0.12,0.18,0.24,0.38,0.34,0.57c0.22,0.41,0.28,0.57,0.42,1.04
	c0.06,0.2,0.11,0.41,0.16,0.62c0.04,0.18,0.1,0.52,0.11,0.61c0.2,1.62-0.09,3.4-0.85,4.83c-0.1,0.18-0.2,0.36-0.32,0.53
	c-0.05,0.09-0.11,0.17-0.17,0.25s-0.01,0.01,0.01-0.01c-0.04,0.06-0.09,0.11-0.13,0.17c-0.13,0.15-0.26,0.3-0.4,0.44
	c-0.07,0.07-0.14,0.13-0.22,0.2c-0.03,0.03-0.06,0.05-0.09,0.08c-0.04,0.03-0.04,0.04-0.01,0.01c0.08-0.06,0.03-0.02-0.15,0.12
	c-0.86,0.74-1.73,1.41-2.81,1.76c-1.86,0.62-3.79,0.26-5.51-0.68c-2-1.1-3.66-2.83-4.87-4.78c-0.23-0.37-0.68-0.55-1.08-0.37
	c-0.43,0.2-0.57,0.6-0.5,1.06c0.04,0.28-0.01-0.1,0.01,0.07c0.01,0.06,0.01,0.12,0.02,0.17c0.01,0.13,0.02,0.25,0.03,0.38
	c0.02,0.26,0.03,0.52,0.03,0.79c0,0.23-0.01,0.45-0.02,0.68c-0.01,0.13-0.02,0.26-0.03,0.38c0,0.04-0.02,0.18,0-0.01
	c-0.01,0.07-0.02,0.15-0.03,0.22c-0.07,0.43-0.17,0.86-0.3,1.27c-0.03,0.1-0.07,0.2-0.1,0.3c-0.02,0.05-0.14,0.35-0.05,0.14
	c-0.08,0.2-0.18,0.39-0.27,0.58c-0.09,0.17-0.18,0.33-0.28,0.49c-0.06,0.09-0.12,0.19-0.18,0.28c-0.04,0.05-0.23,0.32-0.09,0.13
	c-0.23,0.31-0.49,0.6-0.76,0.87c-0.14,0.13-0.28,0.26-0.42,0.38c-0.19,0.16,0.07-0.05-0.09,0.08c-0.08,0.06-0.17,0.13-0.25,0.19
	c-0.31,0.22-0.64,0.42-0.98,0.59c-0.07,0.04-0.15,0.08-0.22,0.11c-0.04,0.02-0.09,0.04-0.14,0.07c-0.11,0.05,0.15-0.06,0.04-0.01
	c-0.18,0.07-0.36,0.14-0.55,0.21c-0.36,0.12-0.73,0.22-1.1,0.29c-0.09,0.02-0.18,0.03-0.27,0.05c-0.13,0.03,0.15-0.02-0.07,0.01
	c-0.2,0.02-0.4,0.04-0.61,0.05c-0.36,0.01-0.73,0-1.09-0.04c-0.04,0-0.32-0.04-0.18-0.02s-0.14-0.02-0.19-0.03
	c-0.19-0.04-0.38-0.08-0.56-0.13c-0.17-0.04-0.33-0.1-0.49-0.15c-0.09-0.03-0.17-0.06-0.26-0.1c-0.05-0.02-0.09-0.04-0.14-0.06
	c-0.17-0.06,0.16,0.08-0.02-0.01c-0.33-0.16-0.66-0.33-0.97-0.54c-0.16-0.1-0.31-0.21-0.46-0.33c0.15,0.12-0.01-0.01-0.07-0.06
	c-0.09-0.07-0.18-0.15-0.26-0.24c-0.17-0.16-0.32-0.32-0.47-0.5c-0.07-0.09-0.14-0.17-0.21-0.26c-0.03-0.04-0.05-0.07-0.08-0.11
	c0.13,0.18-0.01-0.01-0.02-0.04c-0.27-0.4-0.51-0.82-0.72-1.26c-0.02-0.06-0.05-0.11-0.08-0.17c-0.07-0.15,0.03,0.07-0.01-0.03
	c-0.05-0.13-0.1-0.26-0.15-0.39c-0.08-0.25-0.16-0.5-0.23-0.76c-0.07-0.27-0.13-0.54-0.18-0.82c-0.07-0.39-0.07-0.4-0.11-0.82
	c-0.05-0.48-0.37-0.9-0.87-0.9c-0.48,0-0.86,0.41-0.87,0.9c-0.01,0.25-0.02,0.49-0.04,0.74c-0.01,0.05-0.01,0.11-0.02,0.16
	c0,0-0.03,0.26-0.01,0.12c0.02-0.14-0.02,0.11-0.02,0.11c-0.01,0.08-0.02,0.15-0.04,0.23c-0.08,0.43-0.18,0.86-0.33,1.28
	c-0.04,0.11-0.08,0.22-0.12,0.33c-0.02,0.04-0.07,0.16,0.01-0.02c-0.02,0.04-0.04,0.08-0.05,0.13c-0.09,0.21-0.19,0.41-0.3,0.6
	c-0.1,0.17-0.2,0.34-0.31,0.51c-0.05,0.07-0.1,0.14-0.15,0.21c-0.09,0.13,0.01-0.01,0.02-0.03c-0.04,0.05-0.08,0.1-0.12,0.15
	c-0.25,0.31-0.53,0.6-0.82,0.86c-0.06,0.05-0.12,0.11-0.19,0.16c-0.15,0.14,0.11-0.08,0.01-0.01c-0.04,0.03-0.08,0.06-0.12,0.1
	c-0.15,0.11-0.3,0.21-0.45,0.31c-0.15,0.1-0.31,0.19-0.47,0.28c-0.09,0.05-0.18,0.09-0.27,0.14c-0.06,0.03-0.35,0.15-0.12,0.06
	c-0.35,0.15-0.7,0.27-1.06,0.37c-0.17,0.04-0.33,0.08-0.5,0.12c-0.1,0.02-0.2,0.04-0.3,0.05c-0.24,0.04,0.12-0.01-0.13,0.02
	c-0.37,0.04-0.74,0.06-1.12,0.05c-0.17,0-0.34-0.01-0.51-0.03c-0.1-0.01-0.2-0.02-0.3-0.03c-0.05,0-0.17-0.03,0.05,0.01
	c-0.06-0.01-0.12-0.02-0.18-0.03c-0.37-0.06-0.73-0.15-1.09-0.26c-0.16-0.05-0.33-0.11-0.49-0.17c-0.05-0.02-0.36-0.15-0.13-0.05
	c-0.09-0.04-0.18-0.08-0.27-0.13c-0.34-0.17-0.66-0.36-0.97-0.57c-0.08-0.05-0.15-0.11-0.22-0.16c-0.2-0.15,0.07,0.06-0.09-0.07
	c-0.15-0.13-0.3-0.26-0.44-0.4c-0.13-0.13-0.26-0.27-0.39-0.41c-0.05-0.06-0.11-0.13-0.16-0.19c-0.03-0.04-0.07-0.09-0.1-0.13
	c-0.04-0.06,0.09,0.14-0.02-0.02c-0.26-0.37-0.49-0.76-0.68-1.17c-0.02-0.05-0.05-0.1-0.07-0.15c-0.01-0.02-0.1-0.24-0.05-0.12
	c0.05,0.13-0.03-0.08-0.03-0.09c-0.02-0.07-0.05-0.13-0.07-0.2c-0.08-0.23-0.15-0.46-0.21-0.69c-0.06-0.25-0.11-0.51-0.16-0.77
	c-0.01-0.05-0.02-0.1-0.02-0.15c-0.01-0.07-0.01-0.05,0.01,0.04c-0.01-0.04-0.01-0.08-0.02-0.12c-0.01-0.15-0.03-0.29-0.04-0.44
	c-0.04-0.6-0.03-1.2,0.02-1.8c0.08-0.92-1.21-1.18-1.62-0.45c-0.77,1.38-1.59,2.55-2.72,3.63c-0.54,0.52-0.83,0.75-1.42,1.14
	c-0.23,0.15-0.47,0.29-0.72,0.43c-0.11,0.06-0.22,0.11-0.33,0.17c-0.06,0.03-0.13,0.06-0.2,0.09c0.2-0.09-0.08,0.04-0.12,0.05
	c-0.49,0.2-0.99,0.34-1.51,0.44c-0.06,0.01-0.13,0.02-0.2,0.03c-0.22,0.04,0.19-0.01-0.03,0c-0.13,0.01-0.26,0.03-0.39,0.04
	c-0.26,0.02-0.52,0.02-0.77,0.01c-0.23-0.01-0.46-0.03-0.7-0.06c-0.22-0.02,0.2,0.04-0.02,0c-0.06-0.01-0.12-0.02-0.19-0.03
	c-0.12-0.02-0.25-0.05-0.37-0.08c-0.23-0.05-0.45-0.12-0.67-0.19c-0.12-0.04-0.24-0.08-0.36-0.13c-0.07-0.03-0.47-0.2-0.26-0.1
	c-0.44-0.2-0.87-0.43-1.28-0.7c-0.19-0.13-0.39-0.27-0.57-0.41c-0.03-0.03-0.2-0.17-0.02-0.02c-0.05-0.04-0.1-0.08-0.15-0.12
	c-0.1-0.08-0.2-0.17-0.29-0.26c-0.38-0.35-0.73-0.73-1.05-1.13c-0.04-0.04-0.24-0.32-0.1-0.13c-0.08-0.1-0.15-0.21-0.23-0.32
	c-0.15-0.21-0.28-0.44-0.41-0.66c-0.12-0.21-0.23-0.42-0.33-0.63c-0.06-0.12-0.11-0.24-0.17-0.35c-0.02-0.04-0.1-0.25-0.01-0.03
	c-0.03-0.07-0.05-0.14-0.08-0.21c-0.18-0.48-0.32-0.97-0.42-1.47c-0.03-0.13-0.05-0.26-0.07-0.39c-0.01-0.04-0.01-0.09-0.02-0.13
	c-0.04-0.22,0.02,0.2,0-0.02c-0.02-0.26-0.05-0.53-0.05-0.79c-0.01-0.26,0-0.53,0.02-0.8c0.01-0.11,0.02-0.22,0.03-0.33
	c0.01-0.05,0.04-0.27,0-0.03c0.01-0.09,0.03-0.18,0.04-0.27c0.1-0.59,0.27-1.17,0.49-1.73c-0.08,0.19,0.08-0.18,0.11-0.25
	c0.07-0.15,0.15-0.31,0.23-0.46c0.15-0.29,0.33-0.57,0.51-0.84c0.04-0.06,0.09-0.13,0.13-0.19c0.06-0.08,0.06-0.08,0-0.01
	c0.03-0.04,0.06-0.08,0.1-0.13c0.1-0.13,0.2-0.25,0.3-0.37c0.23-0.27,0.48-0.54,0.74-0.79c0.62-0.6,1.1-0.97,1.83-1.45
	c0.71-0.47,0.44-1.67-0.44-1.67c-0.38,0-0.76-0.01-1.14-0.04c-0.18-0.01-0.35-0.03-0.53-0.05c-0.09-0.01-0.18-0.02-0.28-0.03
	c-0.1-0.01,0.02,0,0.04,0.01c-0.05-0.01-0.1-0.02-0.15-0.02c-0.66-0.1-1.32-0.26-1.95-0.47c-0.14-0.05-0.28-0.1-0.42-0.15
	c-0.07-0.03-0.15-0.06-0.22-0.09c-0.07-0.03-0.23-0.1-0.07-0.03c-0.26-0.12-0.53-0.25-0.78-0.39c-0.26-0.14-0.5-0.3-0.74-0.47
	c-0.11-0.07-0.22-0.15-0.32-0.23c-0.08-0.06-0.12-0.1-0.02-0.01c-0.06-0.05-0.12-0.1-0.18-0.15c-0.4-0.34-0.77-0.72-1.1-1.14
	c-0.04-0.05-0.08-0.11-0.12-0.16c-0.03-0.04,0.1,0.15,0,0c-0.08-0.12-0.16-0.23-0.24-0.35c-0.14-0.21-0.26-0.44-0.38-0.66
	c-0.12-0.22-0.22-0.45-0.32-0.69c0.1,0.24-0.03-0.09-0.06-0.18c-0.05-0.12-0.09-0.25-0.12-0.37c-0.15-0.49-0.25-0.99-0.34-1.49
	c-0.03-0.17,0.02,0.19,0,0.02c-0.01-0.07-0.02-0.13-0.02-0.19c-0.01-0.13-0.02-0.26-0.03-0.39c-0.01-0.25-0.02-0.5-0.01-0.75
	c0.01-0.25,0.02-0.5,0.04-0.75c0.01-0.09,0.06-0.45,0.01-0.18c0.02-0.13,0.04-0.26,0.06-0.38c0.09-0.5,0.21-0.99,0.38-1.47
	c0.04-0.11,0.08-0.23,0.12-0.34c0.02-0.05,0.04-0.1,0.06-0.15c-0.1,0.25-0.01,0.02,0.02-0.04c0.1-0.23,0.21-0.45,0.32-0.67
	c0.12-0.23,0.25-0.45,0.39-0.66c0.06-0.1,0.13-0.2,0.2-0.3c0.03-0.04,0.06-0.09,0.1-0.14c0.07-0.1-0.11,0.14,0.03-0.04
	c0.31-0.39,0.64-0.76,1.01-1.09c0.09-0.08,0.18-0.16,0.27-0.23c0.16-0.14-0.11,0.08,0.02-0.01c0.05-0.04,0.1-0.08,0.15-0.12
	c0.21-0.15,0.43-0.3,0.65-0.43c0.22-0.13,0.45-0.25,0.68-0.36c0.05-0.02,0.1-0.05,0.16-0.07c-0.22,0.1-0.02,0.01,0.03-0.01
	c0.13-0.05,0.26-0.1,0.38-0.14c0.25-0.09,0.51-0.16,0.77-0.23c0.13-0.03,0.26-0.06,0.39-0.09c0.07-0.01,0.14-0.02,0.21-0.04
	c0.06-0.01,0.32-0.04,0.08-0.01c0.59-0.07,1.18-0.1,1.77-0.07c0.15,0.01,0.3,0.02,0.45,0.03c0.08,0.01,0.17,0.02,0.25,0.02
	c0.04,0,0.07,0.01,0.11,0.01c0.13,0.02-0.15-0.02-0.01,0c0.33,0.05,0.66,0.11,0.99,0.19c0.73,0.17,1.45,0.4,2.14,0.68
	c0.08,0.03,0.16,0.07,0.24,0.1c0.03,0.01,0.27,0.11,0.16,0.07c0.19,0.09,0.39,0.18,0.58,0.27c0.43,0.2,0.94,0.12,1.19-0.32
	C316.62,187.99,316.52,187.35,316.09,187.15z"/>
<path class="st0" d="M327.46,205.23c-0.24-0.36-0.45-0.74-0.63-1.13c-0.04-0.08-0.07-0.17-0.11-0.25c-0.07-0.16-0.01-0.03,0,0.01
	c-0.02-0.05-0.04-0.09-0.05-0.14c-0.06-0.18-0.12-0.37-0.17-0.56c-0.04-0.17-0.08-0.34-0.11-0.51c-0.02-0.09-0.03-0.24-0.01-0.06
	c-0.01-0.1-0.02-0.2-0.03-0.29c-0.01-0.16-0.01-0.32-0.01-0.48c0-0.07,0.01-0.14,0.01-0.22c0.01-0.07,0.05-0.37,0-0.09
	c0.05-0.31,0.11-0.6,0.21-0.89c0.02-0.07,0.05-0.13,0.07-0.19c-0.07,0.19-0.02,0.04,0.02-0.05c0.06-0.14,0.13-0.28,0.21-0.41
	c0.07-0.12,0.14-0.23,0.21-0.34c0.13-0.2-0.06,0.07,0.03-0.05c0.05-0.06,0.09-0.12,0.14-0.18c0.2-0.24,0.42-0.44,0.64-0.65
	c0.11-0.11-0.15,0.11,0.02-0.02c0.05-0.04,0.11-0.08,0.16-0.12c0.12-0.09,0.25-0.17,0.38-0.25c0.12-0.07,0.25-0.15,0.37-0.21
	c0.06-0.03,0.12-0.06,0.18-0.09c0.22-0.11-0.11,0.04,0.08-0.04c0.28-0.1,0.55-0.21,0.84-0.28c0.14-0.04,0.28-0.06,0.42-0.09
	c0.12-0.02,0.18-0.03,0.02-0.01c0.09-0.01,0.17-0.02,0.26-0.03c0.29-0.03,0.59-0.03,0.88-0.01c0.07,0,0.13,0.01,0.2,0.02
	c0.04,0,0.08,0.01,0.11,0.01c0.12,0.01-0.18-0.03-0.06-0.01c0.15,0.03,0.3,0.05,0.45,0.09c0.14,0.04,0.28,0.08,0.41,0.12
	c0.06,0.02,0.13,0.04,0.19,0.07c0.04,0.01,0.07,0.03,0.11,0.04c0.11,0.04-0.19-0.1-0.02-0.01c0.26,0.13,0.52,0.27,0.77,0.45
	c0.04,0.03,0.25,0.19,0.15,0.11c-0.09-0.07,0.11,0.1,0.15,0.13c0.13,0.12,0.26,0.25,0.38,0.39c0.06,0.07,0.13,0.15,0.19,0.22
	c0.05,0.06,0.17,0.24,0.07,0.08c0.12,0.17,0.23,0.35,0.33,0.53c0.1,0.18,0.19,0.37,0.28,0.56c0.02,0.04,0.04,0.09,0.06,0.14
	c0.06,0.13-0.07-0.2,0.01,0.03c0.04,0.1,0.07,0.2,0.11,0.3c0.16,0.49,0.28,1,0.36,1.52c0.08,0.49,0.65,0.76,1.06,0.64
	c0.49-0.15,0.68-0.64,0.6-1.13c-0.14-0.94-0.2-2.19-0.09-3.28c0.01-0.07,0.01-0.13,0.02-0.2c0,0.04-0.03,0.18,0,0
	c0.02-0.12,0.04-0.24,0.05-0.35c0.04-0.24,0.09-0.47,0.15-0.7c0.05-0.21,0.12-0.42,0.18-0.62c0.03-0.1,0.07-0.2,0.11-0.3
	c0.02-0.05,0.08-0.2,0,0c0.03-0.06,0.05-0.13,0.08-0.19c0.16-0.36,0.34-0.7,0.55-1.02c0.06-0.09,0.12-0.17,0.17-0.25
	c-0.11,0.16-0.01,0.02,0.05-0.06c0.12-0.15,0.25-0.3,0.39-0.45c0.12-0.12,0.24-0.24,0.37-0.36c0.08-0.07,0.19-0.15,0.04-0.04
	c0.08-0.06,0.16-0.12,0.25-0.18c0.28-0.2,0.57-0.35,0.87-0.51c0.17-0.08-0.15,0.06-0.04,0.02c0.04-0.02,0.08-0.04,0.12-0.05
	c0.07-0.03,0.13-0.05,0.2-0.07c0.17-0.06,0.34-0.11,0.51-0.15c0.15-0.04,0.31-0.06,0.46-0.09c-0.18,0.03-0.09,0.01,0.03,0
	c0.09-0.01,0.19-0.02,0.29-0.02c0.33-0.02,0.64,0.02,0.97,0.04c-0.28-0.02-0.01,0,0.05,0.01c0.08,0.02,0.15,0.03,0.23,0.05
	c0.17,0.04,0.34,0.09,0.51,0.14c0.15,0.05,0.29,0.11,0.43,0.16c0.11,0.04-0.2-0.1-0.03-0.02c0.03,0.02,0.07,0.03,0.1,0.05
	c0.08,0.04,0.16,0.08,0.24,0.12c0.14,0.08,0.29,0.17,0.43,0.26c0.08,0.05,0.15,0.11,0.23,0.16c0.06,0.04,0.29,0.23,0.09,0.07
	c0.28,0.24,0.54,0.49,0.77,0.77c0.06,0.07,0.12,0.14,0.17,0.21c0.02,0.03,0.05,0.06,0.08,0.1c0.13,0.16-0.08-0.12-0.01-0.01
	c0.11,0.17,0.22,0.33,0.33,0.51c0.12,0.2,0.23,0.4,0.33,0.61c0.05,0.11,0.1,0.23,0.15,0.34c0.02,0.04,0.06,0.16-0.01-0.03
	c0.02,0.07,0.05,0.13,0.08,0.2c0.18,0.49,0.31,1,0.41,1.52c0.02,0.13,0.04,0.26,0.06,0.39c0.01,0.06,0.02,0.11,0.02,0.16
	c-0.03-0.21,0,0.04,0.01,0.08c0.03,0.32,0.05,0.63,0.06,0.95c0.02,0.66-0.02,1.32-0.08,1.97c-0.09,0.88,1.28,1.29,1.61,0.46
	c0.14-0.35,0.29-0.68,0.48-1.01c0.08-0.15,0.18-0.3,0.27-0.45c0.05-0.07,0.09-0.14,0.14-0.21c-0.09,0.12,0.04-0.05,0.06-0.08
	c0.2-0.25,0.41-0.48,0.64-0.69c0.05-0.05,0.11-0.1,0.17-0.15c-0.15,0.13,0.03-0.03,0.06-0.04c0.12-0.09,0.24-0.17,0.36-0.25
	c0.12-0.08,0.24-0.15,0.37-0.21c0.06-0.03,0.13-0.06,0.19-0.09c0.21-0.1-0.17,0.06,0.05-0.02c0.26-0.09,0.51-0.19,0.78-0.25
	c0.13-0.03,0.26-0.06,0.4-0.08c-0.24,0.04,0.17-0.01,0.24-0.02c0.27-0.02,0.54-0.01,0.8,0.01c0.07,0.01,0.13,0.02,0.2,0.02
	c0.22,0.02-0.18-0.04,0.03,0.01c0.13,0.03,0.26,0.05,0.39,0.08c0.26,0.06,0.52,0.15,0.76,0.24c0.06,0.03,0.12,0.05,0.18,0.08
	c-0.21-0.09,0,0,0.04,0.02c0.12,0.06,0.24,0.12,0.35,0.19c0.23,0.13,0.45,0.29,0.67,0.45c0.18,0.13-0.13-0.13,0.03,0.02
	c0.05,0.05,0.1,0.09,0.15,0.14c0.1,0.09,0.2,0.19,0.29,0.28c0.08,0.08,0.15,0.17,0.23,0.25c0.04,0.05,0.08,0.11,0.13,0.16
	c0.15,0.19-0.01-0.04,0.07,0.09c0.13,0.22,0.27,0.42,0.38,0.65c0.06,0.13,0.12,0.25,0.17,0.38c-0.09-0.21,0,0.01,0.01,0.04
	c0.03,0.09,0.06,0.18,0.08,0.27c0.05,0.16,0.08,0.33,0.12,0.5c0.01,0.05,0.02,0.1,0.02,0.14c0.01,0.05,0.01,0.1,0.02,0.15
	c-0.02-0.12-0.02-0.13-0.01-0.02c0.02,0.37,0.04,0.72,0,1.09c0,0.03-0.03,0.29-0.01,0.08c-0.01,0.08-0.02,0.16-0.04,0.25
	c-0.03,0.2-0.08,0.4-0.13,0.59c-0.12,0.46-0.22,0.73-0.39,1.09c-0.2,0.45-0.11,0.99,0.31,1.26c0.38,0.23,0.98,0.12,1.19-0.33
	c0.67-1.49,1-3.1,0.69-4.74c-0.25-1.33-0.96-2.57-1.91-3.45c-2-1.85-4.89-2.36-7.31-1.16c-1.51,0.75-2.63,2.19-3.27,3.78
	c0.54,0.15,1.08,0.31,1.61,0.46c0.23-2.26,0.01-4.63-1.01-6.67c-0.8-1.6-2.09-2.85-3.66-3.52c-3.07-1.31-6.58,0.14-8.19,3.16
	c-1.22,2.3-1.3,5.02-0.92,7.57c0.56-0.16,1.11-0.32,1.67-0.49c-0.29-1.75-1.02-3.51-2.33-4.66c-1.14-0.99-2.57-1.52-4.05-1.5
	c-2.74,0.03-5.6,1.87-6.29,4.8c-0.46,1.95,0.15,3.95,1.2,5.56c0.26,0.41,0.76,0.59,1.19,0.33
	C327.52,206.25,327.72,205.64,327.46,205.23z"/>
<path class="st1" d="M184.14,44.94c-2.5-4.89-4.08-10.33-3.68-15.73"/>
<path class="st1" d="M184.14,44.94c1.5,2.94,3.82,7.28,6.35,9.63c1.27,1.18,2.42,1.71,3.44,1.55c1.01-0.16,2.21-1.05,3.44-3.54
	c3.53-7.16,6.42-15.02,6.42-22.98c0-1.09-0.06-2.17-0.17-3.26c-0.07-0.65-0.22-1.33-0.48-1.84c-0.26-0.52-0.58-0.77-0.94-0.84
	c-0.32-0.05-0.66,0.05-1.06,0.34c-0.39,0.3-0.76,0.74-1.1,1.22c-3.1,4.41-5.19,9.56-6.04,14.92h-1.48
	c-0.9-5.2-3.37-10.11-6.99-13.91c-0.72-0.76-1.39-1.3-2.11-1.38c-0.06-0.01-0.12-0.01-0.18-0.01c-0.7,0-1.3,0.42-1.81,1.21
	c-0.55,0.87-0.89,2.07-0.97,3.16"/>
<path class="st2" d="M347.93,13.5c2.81,2.47,4.18,6.14,5.36,9.88l1.46-0.11 M354.74,23.27c0.48-3.15,0.99-6.21,2.63-8.73
	c1.63-2.51,4.65-4.27,7.44-3.67v0 M336.45,29.69c-0.75-2.21-1.39-5.24-1.45-8.23 M335,21.46c-0.06-3.57,0.72-6.9,2.91-8.83
	 M337.91,12.63c1.29-1.14,3.07-1.55,4.93-1.35c1.85,0.2,3.71,1.01,5.09,2.22 M354.24,22.55L354.24,22.55 M354.24,22.55L354.24,22.55
	 M370.13,16.16c2.2,5.58,0.82,12.11-2.42,17.38c-1.88,3.07-4.5,5.77-7.37,8.33c-1.43,1.28-2.92,2.51-4.4,3.75
	c-0.07,0.05-0.13,0.11-0.2,0.16c-1.23,1.02-2.46,2.04-3.64,3.07c-1.01-0.98-2.04-1.93-3.06-2.88c-2.01-1.87-4.01-3.73-5.86-5.72
	c-2.91-3.13-5.36-6.51-6.73-10.56 M364.81,10.87c2.48,0.54,4.33,2.78,5.32,5.29"/>
<path class="st2" d="M23.71,174.33c3.88,1.71,6.86,5.95,7.68,10.21l1.47-0.28 M32.86,184.26L32.86,184.26L32.86,184.26z
	 M41.15,174.32c1.9-0.72,3.7-0.66,5.18,0.02c1.47,0.68,2.68,2.03,3.35,4.03h0 M49.67,178.37c1.88,5.66,0.81,11.64-1.77,17.21
	c-2.58,5.57-6.63,10.68-10.59,14.53h0 M37.32,210.11c-1.3,1.27-2.44,1.87-3.44,2.06 M37.32,210.11l-3.44,2.06 M33.87,212.18
	c-0.99,0.19-1.94,0-2.89-0.48 M33.87,212.18l-2.89-0.48 M30.98,211.7c-0.97-0.49-1.93-1.27-2.92-2.22 M30.98,211.7l-2.92-2.22
	 M28.06,209.48c-0.73-0.7-1.45-1.47-2.18-2.26 M28.06,209.48l-2.18-2.26 M25.88,207.22c-0.26-0.28-0.53-0.57-0.8-0.85 M25.88,207.22
	l-0.8-0.85 M25.08,206.37c-2.2-2.34-4.26-4.81-5.99-7.5L25.08,206.37z M19.09,198.86c-2.58-4.04-4.59-8.97-5.04-13.75
	c-0.27-2.81,0.63-6.27,2.39-8.64c0.88-1.18,1.93-2.04,3.13-2.45c1.18-0.41,2.56-0.39,4.14,0.31 M32.86,184.26
	c-0.13-0.72,0.06-1.62,0.57-2.64c0.51-1.02,1.3-2.09,2.22-3.09c1.85-2.03,4.13-3.69,5.5-4.21"/>
</svg>
