<?xml version="1.0" encoding="utf-8"?>
<!-- Generator: Adobe Illustrator 27.6.1, SVG Export Plug-In . SVG Version: 6.00 Build 0)  -->
<svg version="1.1" id="Layer_1" xmlns="http://www.w3.org/2000/svg" xmlns:xlink="http://www.w3.org/1999/xlink" x="0px" y="0px"
	 viewBox="0 0 463 298" style="enable-background:new 0 0 463 298;" xml:space="preserve">
<style type="text/css">
	.st0{fill:#8787C1;}
	.st1{fill-rule:evenodd;clip-rule:evenodd;fill:#8787C1;}
</style>
<path class="st0" d="M96.53,70.29c-16.23-7.55-34.45-12.01-52.25-7.93C30.65,65.5,18.85,73.94,11.07,85.5
	c-7.2,10.71-10.71,24.1-9.91,36.98c0.84,13.68,6.32,26.81,16.03,36.57c11.79,11.83,28.17,17.22,44.52,18.41
	c2.36,0.16,4.74,0.24,7.12,0.26c-0.88-3.24-1.76-6.5-2.64-9.74c-14.07,8.94-26.15,21.67-30.68,38.04
	c-3.7,13.41-1.78,27.66,4.3,40.06c12,24.45,40.44,40.06,67.34,32.45c19.49-5.51,33.92-21.3,43.81-38.28
	c-3.24-0.88-6.5-1.76-9.74-2.64c-1.06,12.22,0.93,25.02,7.55,35.53c5.79,9.21,14.45,15.92,24.56,19.82
	c19.03,7.33,42.51,3.02,56.87-11.7c9.45-9.67,13.85-22.78,14.18-36.14c-3.48,0-6.98,0-10.46,0c1.21,12.75,5.33,25.11,14.05,34.71
	c6.92,7.6,16.58,12.8,26.69,14.6c21.06,3.74,43.39-5.17,55.02-23.37c7.6-11.89,9.18-26.12,7.16-39.84
	c-3.19,1.34-6.37,2.69-9.56,4.03c14.69,22.89,41.43,43.81,70.18,37.67c7.6-1.63,14.67-5.26,20.81-9.98
	c5.13-3.94,9.93-8.13,13.61-13.57c6.58-9.73,9.43-22.27,8.68-33.92c-0.92-13.83-6.78-27-18.46-34.93c-0.42,3.19-0.82,6.37-1.24,9.56
	c13.06-4.32,24.6-12.22,32.18-23.81c6.45-9.84,9.49-21.92,8.96-33.63c-1.1-24.01-16.65-46.63-40.61-52.55
	c-16.92-4.18-34.34,0.26-49.65,7.77c2.56,1.96,5.13,3.94,7.67,5.9c3.44-14.91,4.34-30.92-0.42-45.66
	c-3.79-11.78-10.97-22.03-21.12-29.18c-19.38-13.68-46.19-12.01-65.29,1.25c-13.48,9.36-22.71,23.04-28.44,38.26
	c3.42,0.46,6.85,0.93,10.27,1.39c1.59-19.25-6.08-40.02-24.34-48.83c-15.5-7.47-34.6-4.49-45.59,9.27
	c-7.82,9.76-10.59,22.23-10.64,34.56c3.43-0.46,6.85-0.93,10.27-1.39c-3.06-14.82-9.71-29.47-21.25-39.6
	c-9.67-8.5-21.78-13.3-34.58-14.1c-23.48-1.5-48.99,11.19-59.05,33.06c-6.37,13.86-6.01,29.4-0.38,43.46
	c1.04,2.62,3.5,4.45,6.43,3.64c2.49-0.68,4.71-3.79,3.64-6.43c-1.26-3.17-2.31-6.43-3.04-9.76c-0.15-0.68-0.29-1.37-0.4-2.05
	c-0.07-0.4-0.13-0.82-0.2-1.23c-0.26-1.37,0.11,1.14-0.04-0.22c-0.15-1.45-0.29-2.91-0.33-4.36c-0.06-1.41-0.04-2.82,0.05-4.23
	c0.04-0.62,0.09-1.26,0.15-1.89c0.04-0.37,0.09-0.75,0.13-1.12c-0.16,1.56,0.02-0.13,0.07-0.44c0.44-2.62,1.1-5.2,2-7.71
	c0.2-0.57,0.42-1.12,0.64-1.67c0.42-1.15-0.51,1.06,0.02-0.05c0.15-0.31,0.29-0.64,0.44-0.97c0.57-1.23,1.21-2.42,1.89-3.59
	c0.62-1.06,1.28-2.11,1.98-3.11c0.4-0.59,0.82-1.14,1.25-1.7c-0.84,1.15,0.42-0.51,0.71-0.86c1.67-1.98,3.48-3.83,5.44-5.53
	c0.53-0.48,1.08-0.92,1.63-1.37c0.18-0.15,0.37-0.29,0.55-0.44c0.95-0.79-0.95,0.66,0.07-0.05c1.17-0.82,2.31-1.67,3.52-2.44
	c2.22-1.41,4.54-2.67,6.92-3.77c0.33-0.15,0.66-0.29,0.99-0.44c1.1-0.51-0.81,0.33-0.09,0.04c0.6-0.26,1.23-0.49,1.85-0.73
	c1.36-0.51,2.73-0.97,4.1-1.37c2.55-0.75,5.15-1.34,7.76-1.76c0.37-0.05,0.71-0.11,1.08-0.16c-1.34,0.18-0.6,0.07-0.31,0.05
	c0.71-0.07,1.45-0.16,2.16-0.22c1.34-0.11,2.65-0.16,3.99-0.18c1.34-0.02,2.67,0.02,3.99,0.09c0.66,0.04,1.34,0.09,2,0.15
	c0.44,0.04,2.91,0.38,1.32,0.13c2.66,0.42,5.27,0.95,7.86,1.74c1.3,0.38,2.57,0.84,3.83,1.34c0.35,0.13,0.7,0.27,1.03,0.42
	c-1.15-0.48-0.48-0.2-0.22-0.09c0.79,0.38,1.57,0.73,2.36,1.12c2.49,1.26,4.84,2.75,7.11,4.38c0.2,0.15,1.23,0.97,0.18,0.13
	c0.31,0.24,0.61,0.49,0.92,0.73c0.71,0.59,1.41,1.19,2.09,1.81c1.19,1.1,2.33,2.23,3.41,3.44c0.6,0.66,1.19,1.34,1.76,2.03
	c0.22,0.27,0.44,0.55,0.66,0.82c-0.81-1.01,0.33,0.44,0.46,0.64c1.03,1.41,2,2.88,2.89,4.36c1.02,1.7,1.96,3.44,2.82,5.22
	c1.04,2.18,1.12,2.36,1.94,4.51c1.61,4.27,2.82,8.68,3.75,13.17c1.21,5.86,10.26,4.4,10.28-1.39c0.02-2.78,0.15-5.55,0.48-8.3
	c0.13-1.08,0.05-0.38,0.02-0.16c0.05-0.33,0.11-0.68,0.16-1.01c0.09-0.59,0.2-1.15,0.31-1.72c0.24-1.19,0.49-2.36,0.81-3.53
	c0.29-1.12,0.64-2.22,1.01-3.32c0.16-0.49,0.35-0.97,0.53-1.47c0.11-0.27,0.22-0.55,0.33-0.81c-0.16,0.42-0.26,0.55-0.02,0.06
	c0.91-1.92,1.87-3.81,3.06-5.59c0.26-0.38,0.51-0.75,0.79-1.14c0.15-0.22,0.31-0.42,0.46-0.62c-0.02,0.02-0.61,0.75-0.22,0.29
	c0.64-0.77,1.28-1.54,1.98-2.25c0.59-0.62,1.21-1.21,1.85-1.78c0.31-0.27,0.64-0.53,0.95-0.82c0.68-0.6-0.09,0.07-0.22,0.15
	c0.24-0.18,0.48-0.35,0.71-0.53c1.43-1.01,2.91-1.9,4.49-2.66c0.37-0.16,0.73-0.33,1.1-0.49c-1.39,0.64,0.02,0,0.33-0.11
	c0.81-0.29,1.61-0.55,2.44-0.79c0.82-0.22,1.65-0.42,2.47-0.57c0.38-0.07,0.79-0.13,1.17-0.2c0.59-0.11-0.59,0.07-0.55,0.07
	c0.27-0.02,0.57-0.07,0.84-0.09c1.7-0.15,3.39-0.18,5.09-0.07c0.46,0.04,0.9,0.09,1.36,0.11c1.21,0.07-0.81-0.16,0.13,0
	c0.9,0.16,1.79,0.31,2.69,0.51c1.7,0.4,3.32,0.97,4.96,1.56c0.88,0.31-0.97-0.48,0.2,0.09c0.37,0.18,0.75,0.35,1.12,0.53
	c0.84,0.42,1.68,0.88,2.49,1.36c0.71,0.42,1.43,0.88,2.11,1.36c0.4,0.27,0.79,0.57,1.17,0.84c-0.93-0.68-0.02-0.02,0.37,0.31
	c1.43,1.19,2.77,2.49,3.99,3.88c0.29,0.33,0.59,0.68,0.86,1.01c0.31,0.38,0.84,1.12,0.26,0.29c0.6,0.84,1.21,1.68,1.78,2.56
	c0.6,0.95,1.17,1.94,1.68,2.95c0.26,0.48,0.49,0.97,0.73,1.47c0.15,0.31,0.82,1.96,0.39,0.84c0.9,2.29,1.65,4.62,2.2,7.03
	c0.27,1.19,0.48,2.4,0.68,3.61c0.02,0.22,0.16,1.03,0,0c0.04,0.4,0.09,0.79,0.13,1.19c0.05,0.64,0.11,1.28,0.15,1.94
	c0.18,3,0.11,6.01-0.13,8.99c-0.22,2.56,2.14,4.85,4.54,5.13c2.73,0.33,4.8-1.25,5.73-3.74c2.14-5.7,5.48-12.23,9.45-17.84
	c0.46-0.64,0.93-1.28,1.41-1.92c-0.61,0.81,0.6-0.75,0.79-0.95c1.03-1.25,2.07-2.44,3.17-3.61c2.01-2.14,4.19-4.1,6.46-5.97
	c0.15-0.11,1.28-0.99,0.29-0.24c0.22-0.16,0.46-0.35,0.68-0.51c0.57-0.4,1.14-0.82,1.72-1.23c1.21-0.82,2.44-1.59,3.68-2.33
	c1.12-0.64,2.25-1.26,3.41-1.83c0.61-0.29,1.21-0.59,1.81-0.86c0.31-0.13,0.61-0.27,0.92-0.4c0.35-0.15,0.24-0.11-0.33,0.15
	c0.24-0.09,0.49-0.2,0.73-0.29c2.45-0.92,4.91-1.74,7.47-2.34c1.19-0.27,2.38-0.51,3.57-0.71c0.31-0.06,0.62-0.09,0.95-0.15
	c1.25-0.22-0.88,0.09-0.07,0c0.7-0.07,1.37-0.16,2.07-0.22c2.49-0.2,5-0.24,7.49-0.09c0.62,0.04,1.24,0.09,1.85,0.15
	c0.37,0.04,2.36,0.33,0.82,0.07c1.28,0.2,2.55,0.42,3.81,0.7c2.45,0.55,4.87,1.28,7.22,2.2c0.22,0.09,0.46,0.18,0.68,0.27
	c1.19,0.46-1.04-0.51,0.11,0.06c0.49,0.24,1.01,0.46,1.5,0.7c1.15,0.57,2.29,1.17,3.41,1.83c1.06,0.62,2.11,1.3,3.11,2
	c0.46,0.31,0.9,0.66,1.36,0.99c0.64,0.48-0.97-0.81-0.02-0.02c0.29,0.24,0.59,0.48,0.86,0.71c2,1.67,3.85,3.5,5.53,5.46
	c0.39,0.44,0.73,0.9,1.12,1.34c0.86,1.01-0.64-0.9,0.13,0.16c0.15,0.22,0.31,0.42,0.46,0.62c0.86,1.17,1.65,2.38,2.4,3.63
	c0.62,1.04,1.21,2.11,1.78,3.19c0.31,0.6,0.61,1.23,0.9,1.85c0.18,0.38,0.35,0.77,0.51,1.14c-0.37-0.82-0.05-0.13,0.13,0.31
	c1.21,3.08,2.16,6.23,2.86,9.45c0.18,0.82,0.35,1.65,0.49,2.49c0.07,0.46,0.17,0.92,0.22,1.39c0.04,0.24,0.22,1.63,0.07,0.49
	c0.22,1.78,0.39,3.57,0.48,5.37c0.2,4.03,0.09,8.08-0.29,12.09c-0.38,4.07-1.08,7.97-2.11,12.47c-1.06,4.62,3.57,7.91,7.67,5.9
	c6.45-3.17,13.55-5.77,21.14-7.14c0.79-0.15,1.58-0.27,2.36-0.38c-1.14,0.16,1.1-0.13,1.37-0.15c1.63-0.16,3.28-0.26,4.93-0.29
	c1.43-0.02,2.88,0.02,4.3,0.09c0.7,0.04,1.39,0.11,2.09,0.16c0.4,0.04,0.82,0.09,1.23,0.15c-1.34-0.16-0.07,0,0.24,0.06
	c2.86,0.51,5.66,1.17,8.41,2.14c0.6,0.22,1.19,0.46,1.8,0.68c0.26,0.09,0.92,0.4-0.2-0.09c0.35,0.15,0.7,0.31,1.03,0.46
	c1.24,0.57,2.45,1.21,3.64,1.89c1.06,0.62,2.11,1.26,3.11,1.98c0.49,0.35,0.99,0.71,1.48,1.06c1.03,0.73-0.86-0.73,0.09,0.07
	c0.27,0.24,0.57,0.46,0.84,0.7c1.94,1.63,3.76,3.42,5.4,5.35c0.44,0.5,0.84,1.03,1.26,1.54c0.2,0.26,0.71,0.97-0.04-0.06
	c0.18,0.24,0.37,0.48,0.53,0.73c0.81,1.14,1.58,2.27,2.31,3.46c1.32,2.16,2.47,4.43,3.48,6.76c-0.61-1.37,0.16,0.44,0.29,0.77
	c0.22,0.57,0.42,1.14,0.62,1.7c0.44,1.26,0.83,2.55,1.15,3.83c0.31,1.17,0.59,2.36,0.82,3.55c0.11,0.6,0.22,1.19,0.33,1.8
	c0.05,0.37,0.11,0.71,0.17,1.08c-0.22-1.45-0.04-0.27,0,0.06c0.27,2.62,0.42,5.22,0.35,7.86c-0.04,1.28-0.11,2.56-0.24,3.85
	c-0.04,0.38-0.31,2.38-0.07,0.81c-0.11,0.73-0.22,1.45-0.35,2.18c-0.46,2.55-1.12,5.06-1.94,7.49c-0.2,0.59-0.4,1.17-0.62,1.74
	c-0.13,0.33-0.92,2.14-0.31,0.82c-0.57,1.24-1.14,2.49-1.8,3.7c-0.71,1.34-1.48,2.64-2.33,3.9c-0.42,0.64-0.86,1.26-1.3,1.89
	c-0.15,0.2-0.93,1.23-0.11,0.16c-0.24,0.31-0.48,0.6-0.73,0.92c-2.01,2.45-4.27,4.73-6.7,6.76c-0.26,0.22-0.53,0.44-0.79,0.64
	c-1.04,0.86,0.44-0.27-0.4,0.31c-0.68,0.48-1.36,0.99-2.05,1.45c-1.43,0.97-2.91,1.85-4.41,2.69c-1.57,0.86-3.19,1.65-4.83,2.36
	c0.18-0.09,0.92-0.37-0.04,0.02c-0.51,0.2-1.01,0.4-1.52,0.6c-0.97,0.37-1.94,0.71-2.93,1.03c-4.41,1.46-5.02,7-1.24,9.56
	c1.63,1.1,3.37,2.6,5.09,4.54c0.4,0.46,0.81,0.92,1.17,1.39c-0.44-0.57,0.46,0.66,0.59,0.82c0.75,1.08,1.43,2.2,2.05,3.33
	c1.3,2.38,1.68,3.33,2.53,6.04c0.37,1.19,0.7,2.4,0.97,3.63c0.24,1.04,0.59,3.02,0.66,3.57c1.19,9.45-0.53,19.82-5.13,28.1
	c-0.59,1.06-1.23,2.09-1.9,3.1c-0.33,0.49-0.68,0.99-1.04,1.46c-0.37,0.48-0.04,0.04,0.04-0.05c-0.26,0.33-0.53,0.66-0.81,0.97
	c-0.77,0.9-1.58,1.74-2.42,2.56c-0.42,0.4-0.86,0.79-1.3,1.17c-0.18,0.16-0.38,0.31-0.57,0.48c-0.24,0.18-0.26,0.2-0.05,0.05
	c0.49-0.37,0.18-0.13-0.92,0.71c-5.17,4.32-10.42,8.19-16.92,10.28c-11.23,3.59-22.84,1.54-33.19-3.96
	c-12.03-6.39-22.05-16.47-29.32-27.8c-1.39-2.18-4.1-3.21-6.54-2.14c-2.56,1.14-3.43,3.52-3.02,6.17c0.24,1.63-0.05-0.59,0.05,0.38
	c0.04,0.33,0.07,0.68,0.11,1.01c0.07,0.75,0.15,1.48,0.2,2.23c0.11,1.52,0.16,3.04,0.16,4.58c0,1.32-0.06,2.62-0.15,3.94
	c-0.05,0.75-0.15,1.5-0.2,2.23c-0.02,0.24-0.15,1.03,0.02-0.07c-0.05,0.44-0.13,0.86-0.2,1.3c-0.42,2.51-1.02,4.98-1.83,7.38
	c-0.2,0.59-0.4,1.15-0.62,1.74c-0.11,0.31-0.86,2.01-0.31,0.81c-0.51,1.15-1.06,2.29-1.65,3.39c-0.53,0.97-1.08,1.92-1.68,2.86
	c-0.35,0.55-0.71,1.08-1.08,1.61c-0.22,0.31-1.39,1.85-0.55,0.79c-1.41,1.8-2.93,3.48-4.6,5.04c-0.82,0.77-1.68,1.5-2.55,2.23
	c-1.14,0.95,0.42-0.27-0.57,0.44c-0.51,0.37-1.01,0.73-1.52,1.08c-1.89,1.3-3.88,2.45-5.93,3.46c-0.44,0.22-0.9,0.44-1.34,0.64
	c-0.27,0.13-0.57,0.26-0.84,0.38c-0.66,0.29,0.9-0.37,0.22-0.09c-1.1,0.42-2.18,0.84-3.3,1.21c-2.16,0.72-4.38,1.26-6.61,1.69
	c-0.55,0.09-1.1,0.18-1.63,0.27c-0.81,0.15,0.92-0.09-0.44,0.05c-1.23,0.13-2.43,0.22-3.66,0.27c-2.2,0.09-4.4,0.02-6.59-0.2
	c-0.27-0.02-1.94-0.24-1.12-0.13c0.82,0.11-0.84-0.15-1.12-0.18c-1.14-0.2-2.27-0.44-3.39-0.73c-1.01-0.26-2-0.55-2.99-0.88
	c-0.51-0.17-1.04-0.35-1.56-0.55c-0.29-0.11-0.57-0.22-0.86-0.33c-1.01-0.37,0.95,0.46-0.11-0.04c-2.01-0.93-3.97-1.92-5.86-3.13
	c-0.95-0.61-1.85-1.25-2.75-1.92c0.92,0.68-0.05-0.05-0.42-0.35c-0.53-0.44-1.06-0.9-1.57-1.37c-0.99-0.92-1.94-1.89-2.84-2.89
	c-0.44-0.49-0.86-0.99-1.28-1.5c-0.17-0.2-0.33-0.42-0.49-0.62c0.81,1.02-0.04-0.05-0.15-0.22c-1.63-2.33-3.1-4.74-4.32-7.33
	c-0.15-0.33-0.29-0.66-0.46-0.99c-0.42-0.9,0.17,0.42-0.07-0.17c-0.31-0.75-0.6-1.52-0.88-2.29c-0.51-1.45-0.97-2.93-1.37-4.43
	c-0.42-1.58-0.77-3.15-1.06-4.74c-0.42-2.29-0.42-2.36-0.64-4.74c-0.27-2.8-2.22-5.22-5.22-5.22c-2.89,0-5.17,2.4-5.22,5.22
	c-0.04,1.43-0.11,2.86-0.24,4.29c-0.04,0.31-0.05,0.62-0.09,0.93c0-0.02-0.18,1.48-0.07,0.68c0.11-0.8-0.11,0.66-0.11,0.66
	c-0.07,0.44-0.15,0.88-0.22,1.32c-0.48,2.53-1.12,5.02-1.98,7.44c-0.24,0.64-0.48,1.28-0.73,1.92c-0.09,0.24-0.42,0.9,0.05-0.13
	c-0.11,0.24-0.22,0.49-0.33,0.73c-0.57,1.19-1.15,2.36-1.81,3.52c-0.59,1.01-1.19,1.98-1.85,2.95c-0.29,0.42-0.61,0.82-0.88,1.25
	c-0.53,0.77,0.04-0.04,0.13-0.17c-0.24,0.29-0.48,0.59-0.71,0.88c-1.5,1.81-3.17,3.5-4.95,5.02c-0.37,0.31-0.75,0.62-1.13,0.93
	c-0.92,0.79,0.68-0.49,0.04-0.04c-0.24,0.18-0.49,0.37-0.73,0.55c-0.88,0.64-1.79,1.24-2.73,1.81c-0.93,0.57-1.89,1.12-2.86,1.61
	c-0.53,0.27-1.08,0.55-1.63,0.81c-0.37,0.17-2.11,0.9-0.75,0.35c-2.09,0.84-4.19,1.56-6.37,2.12c-1.01,0.26-2.01,0.48-3.02,0.68
	c-0.6,0.11-1.19,0.22-1.79,0.31c-1.43,0.24,0.71-0.04-0.77,0.11c-2.23,0.22-4.49,0.35-6.74,0.31c-1.03-0.02-2.07-0.07-3.09-0.17
	c-0.61-0.05-1.21-0.13-1.81-0.18c-0.29-0.02-1.03-0.15,0.31,0.05c-0.37-0.05-0.71-0.11-1.08-0.17c-2.22-0.37-4.41-0.86-6.56-1.52
	c-0.99-0.29-1.96-0.62-2.93-0.99c-0.29-0.11-2.18-0.9-0.77-0.29c-0.55-0.24-1.12-0.5-1.65-0.75c-2.03-0.97-3.99-2.09-5.84-3.33
	c-0.46-0.31-0.9-0.62-1.34-0.95c-1.21-0.86,0.4,0.37-0.55-0.4c-0.9-0.75-1.79-1.5-2.64-2.31c-0.81-0.77-1.59-1.58-2.33-2.4
	c-0.33-0.37-0.66-0.75-0.99-1.14c-0.2-0.24-0.4-0.49-0.59-0.73c-0.26-0.33,0.57,0.81-0.11-0.15c-1.56-2.16-2.95-4.41-4.12-6.81
	c-0.15-0.29-0.29-0.6-0.42-0.9c-0.05-0.13-0.59-1.37-0.29-0.68c0.31,0.77-0.18-0.48-0.2-0.51c-0.15-0.38-0.29-0.77-0.44-1.15
	c-0.48-1.32-0.88-2.67-1.25-4.03c-0.38-1.48-0.7-2.99-0.95-4.51c-0.06-0.29-0.09-0.59-0.15-0.9c-0.05-0.38-0.05-0.29,0.04,0.26
	c-0.04-0.22-0.06-0.46-0.09-0.68c-0.09-0.86-0.18-1.7-0.24-2.56c-0.24-3.5-0.16-7,0.15-10.49c0.46-5.33-7.27-6.89-9.74-2.64
	c-4.67,8.02-9.6,14.82-16.41,21.14c-3.24,3.02-4.98,4.38-8.57,6.65c-1.41,0.88-2.84,1.7-4.32,2.47c-0.66,0.33-1.3,0.66-1.98,0.97
	c-0.38,0.18-0.79,0.35-1.19,0.53c1.19-0.51-0.51,0.2-0.73,0.28c-2.95,1.13-5.99,2-9.1,2.55c-0.38,0.07-0.79,0.13-1.19,0.2
	c-1.34,0.24,1.15-0.09-0.18,0.02c-0.79,0.07-1.58,0.17-2.34,0.22c-1.56,0.11-3.11,0.13-4.67,0.07c-1.41-0.05-2.8-0.18-4.21-0.33
	c-1.32-0.13,1.17,0.22-0.13-0.02c-0.37-0.07-0.75-0.13-1.14-0.18c-0.75-0.13-1.5-0.29-2.23-0.46c-1.36-0.31-2.71-0.68-4.03-1.1
	c-0.73-0.22-1.45-0.48-2.16-0.73c-0.44-0.16-2.86-1.17-1.58-0.6c-2.66-1.19-5.24-2.53-7.71-4.1c-1.17-0.75-2.33-1.56-3.44-2.38
	c-0.2-0.15-1.21-0.97-0.15-0.11c-0.29-0.24-0.6-0.48-0.9-0.71c-0.59-0.48-1.17-0.97-1.74-1.48c-2.29-2.03-4.41-4.23-6.36-6.59
	c-0.22-0.26-1.45-1.85-0.6-0.73c-0.46-0.6-0.92-1.23-1.36-1.85c-0.88-1.24-1.7-2.53-2.49-3.85c-0.71-1.21-1.39-2.44-2.01-3.68
	c-0.35-0.68-0.66-1.37-0.99-2.07c-0.11-0.24-0.6-1.45-0.07-0.15c-0.16-0.4-0.33-0.82-0.49-1.25c-1.08-2.78-1.94-5.66-2.55-8.57
	c-0.15-0.75-0.29-1.5-0.42-2.25c-0.04-0.26-0.07-0.51-0.11-0.75c-0.22-1.3,0.09,1.19-0.02-0.13c-0.13-1.54-0.27-3.06-0.31-4.6
	c-0.04-1.54,0-3.1,0.11-4.63c0.06-0.64,0.11-1.3,0.18-1.94c0.04-0.27,0.26-1.59,0.02-0.16c0.09-0.51,0.16-1.04,0.26-1.56
	c0.62-3.44,1.63-6.83,2.97-10.07c-0.48,1.13,0.48-1.03,0.68-1.43c0.44-0.9,0.9-1.78,1.39-2.66c0.93-1.67,1.96-3.3,3.08-4.87
	c0.26-0.37,0.53-0.73,0.81-1.1c0.37-0.48,0.37-0.49,0.02-0.04c0.18-0.24,0.38-0.49,0.59-0.73c0.59-0.73,1.21-1.47,1.83-2.16
	c1.41-1.59,2.91-3.13,4.47-4.58c3.72-3.48,6.65-5.64,11.04-8.43c4.3-2.73,2.67-9.73-2.64-9.74c-2.29,0-4.6-0.07-6.89-0.24
	c-1.06-0.07-2.11-0.16-3.17-0.27c-0.55-0.05-1.1-0.13-1.67-0.18c-0.62-0.07,0.15,0.02,0.22,0.04c-0.31-0.04-0.62-0.09-0.92-0.13
	c-3.99-0.6-7.95-1.5-11.78-2.75c-0.84-0.27-1.7-0.57-2.53-0.88c-0.44-0.16-0.88-0.33-1.32-0.51c-0.4-0.16-1.39-0.59-0.42-0.16
	c-1.59-0.71-3.19-1.45-4.73-2.29c-1.54-0.82-3.02-1.74-4.47-2.71c-0.66-0.44-1.3-0.9-1.92-1.36c-0.48-0.35-0.75-0.59-0.09-0.05
	c-0.37-0.29-0.75-0.59-1.12-0.9c-2.4-2-4.62-4.21-6.59-6.61c-0.26-0.31-0.49-0.62-0.73-0.92c-0.2-0.24,0.6,0.84,0-0.02
	c-0.48-0.68-0.97-1.36-1.45-2.05c-0.82-1.25-1.59-2.53-2.31-3.83c-0.7-1.3-1.32-2.64-1.94-3.99c0.62,1.37-0.2-0.51-0.38-1.03
	c-0.27-0.71-0.51-1.43-0.75-2.14c-0.92-2.84-1.52-5.73-2.03-8.68c-0.16-0.97,0.11,1.08,0.02,0.11c-0.04-0.39-0.09-0.75-0.13-1.12
	c-0.07-0.75-0.13-1.5-0.18-2.25c-0.09-1.45-0.11-2.91-0.09-4.36c0.04-1.45,0.11-2.91,0.26-4.36c0.05-0.55,0.38-2.6,0.09-1.03
	c0.13-0.75,0.22-1.48,0.37-2.23c0.53-2.91,1.28-5.79,2.27-8.57c0.24-0.66,0.48-1.32,0.73-1.96c0.11-0.29,0.24-0.6,0.37-0.9
	c-0.59,1.45-0.04,0.11,0.11-0.24c0.6-1.32,1.25-2.62,1.94-3.9c0.73-1.32,1.5-2.6,2.34-3.86c0.38-0.59,0.79-1.15,1.21-1.72
	c0.18-0.26,0.38-0.51,0.59-0.79c0.42-0.57-0.64,0.79,0.18-0.22c1.87-2.27,3.86-4.4,6.1-6.32c0.53-0.48,1.1-0.92,1.65-1.36
	c0.99-0.81-0.64,0.44,0.11-0.09c0.31-0.22,0.62-0.46,0.93-0.68c1.26-0.9,2.58-1.74,3.94-2.51c1.32-0.77,2.69-1.47,4.08-2.09
	c0.31-0.15,0.62-0.27,0.95-0.42c-1.34,0.59-0.13,0.05,0.2-0.07c0.77-0.29,1.54-0.59,2.31-0.84c1.52-0.51,3.08-0.95,4.65-1.32
	c0.77-0.18,1.56-0.35,2.33-0.49c0.42-0.07,0.86-0.15,1.28-0.22c0.35-0.05,1.92-0.26,0.48-0.07c3.55-0.42,7.11-0.57,10.68-0.38
	c0.92,0.06,1.81,0.11,2.73,0.2c0.49,0.05,0.99,0.09,1.48,0.15c0.22,0.02,0.42,0.06,0.64,0.07c0.79,0.09-0.9-0.13-0.09-0.02
	c2.01,0.29,3.99,0.66,5.97,1.1c4.4,0.99,8.72,2.33,12.91,3.96c0.49,0.18,0.99,0.38,1.47,0.59c0.18,0.07,1.59,0.66,0.97,0.4
	c1.17,0.49,2.34,1.03,3.52,1.58c2.56,1.19,5.64,0.71,7.16-1.87C99.71,75.18,99.09,71.49,96.53,70.29z"/>
<path class="st0" d="M204.41,145.7v-29.94h13.86v4.92h-7.25v25.03H204.41z M221.41,145.7v-29.94h13.46v4.51h-6.84v7.43h5.21v4.58
	h-5.21v8.95h6.91v4.47H221.41z M238.05,145.7v-29.94h6.62v12.12h4.62v-12.12h6.65v29.94h-6.65v-13.09h-4.62v13.09H238.05z
	 M269.08,146.14c-2.24,0-4.02-0.39-5.32-1.18c-1.31-0.79-2.24-1.92-2.81-3.4c-0.57-1.48-0.85-3.24-0.85-5.29v-11.13
	c0-2.07,0.28-3.83,0.85-5.29c0.57-1.45,1.5-2.56,2.81-3.33c1.31-0.79,3.08-1.18,5.32-1.18c2.27,0,4.05,0.39,5.36,1.18
	c1.33,0.76,2.28,1.87,2.85,3.33c0.57,1.45,0.85,3.22,0.85,5.29v11.13c0,2.05-0.28,3.81-0.85,5.29c-0.57,1.48-1.52,2.61-2.85,3.4
	C273.13,145.75,271.34,146.14,269.08,146.14z M269.08,141.45c0.69,0,1.2-0.17,1.52-0.52c0.32-0.35,0.53-0.79,0.63-1.33
	c0.1-0.54,0.15-1.1,0.15-1.66v-14.42c0-0.59-0.05-1.15-0.15-1.66c-0.1-0.54-0.31-0.99-0.63-1.33c-0.32-0.35-0.83-0.52-1.52-0.52
	c-0.64,0-1.12,0.17-1.44,0.52c-0.32,0.35-0.53,0.79-0.63,1.33c-0.1,0.52-0.15,1.07-0.15,1.66v14.42c0,0.57,0.04,1.12,0.11,1.66
	c0.1,0.54,0.3,0.99,0.59,1.33C267.88,141.28,268.39,141.45,269.08,141.45z M291.29,146.77v-4.47c-0.37,0.02-0.75,0.05-1.15,0.07
	c-0.37,0.02-0.75,0.04-1.15,0.04c-1.36,0-2.6-0.28-3.73-0.85c-1.11-0.57-2-1.39-2.66-2.48c-0.64-1.11-0.96-2.45-0.96-4.03v-9.02
	c0-1.43,0.33-2.7,1-3.81c0.69-1.11,1.64-1.97,2.85-2.59c1.23-0.64,2.64-0.96,4.21-0.96c0.27,0,0.54,0.01,0.81,0.04
	c0.3,0,0.55,0.01,0.78,0.04v-4.73h5.32v4.73c0.22-0.03,0.46-0.04,0.7-0.04c0.25-0.03,0.51-0.04,0.78-0.04
	c1.65,0,3.08,0.32,4.29,0.96c1.23,0.62,2.18,1.48,2.85,2.59c0.69,1.11,1.04,2.38,1.04,3.81v9.06c0,1.58-0.33,2.92-1,4.03
	c-0.64,1.08-1.5,1.91-2.59,2.48c-1.06,0.57-2.24,0.85-3.55,0.85c-0.42,0-0.84-0.01-1.26-0.04c-0.39-0.02-0.81-0.05-1.26-0.07v4.44
	H291.29z M290.55,138.31c0.12,0,0.26,0,0.41,0c0.15-0.02,0.26-0.05,0.33-0.07v-15.53c-0.1-0.02-0.23-0.04-0.41-0.04
	c-0.15-0.03-0.28-0.04-0.41-0.04c-0.62,0-1.15,0.14-1.59,0.41c-0.44,0.27-0.79,0.65-1.04,1.15c-0.25,0.49-0.37,1.08-0.37,1.77v9.2
	c0,0.59,0.1,1.12,0.29,1.59c0.2,0.47,0.52,0.85,0.96,1.15C289.18,138.17,289.79,138.31,290.55,138.31z M297.39,138.27
	c0.71,0,1.29-0.12,1.74-0.37c0.44-0.27,0.76-0.64,0.96-1.11c0.22-0.47,0.33-1.01,0.33-1.63v-9.2c0-0.74-0.11-1.36-0.33-1.85
	c-0.22-0.49-0.54-0.86-0.96-1.11c-0.39-0.25-0.88-0.37-1.44-0.37c-0.2,0-0.38,0.01-0.55,0.04c-0.17,0-0.35,0.01-0.52,0.04v15.49
	c0.12,0.02,0.25,0.05,0.37,0.07C297.13,138.27,297.27,138.27,297.39,138.27z M318.79,146.14c-2.24,0-4.02-0.39-5.32-1.18
	c-1.31-0.79-2.24-1.92-2.81-3.4c-0.57-1.48-0.85-3.24-0.85-5.29v-11.13c0-2.07,0.28-3.83,0.85-5.29c0.57-1.45,1.5-2.56,2.81-3.33
	c1.31-0.79,3.08-1.18,5.32-1.18c2.27,0,4.05,0.39,5.36,1.18c1.33,0.76,2.28,1.87,2.85,3.33c0.57,1.45,0.85,3.22,0.85,5.29v11.13
	c0,2.05-0.28,3.81-0.85,5.29c-0.57,1.48-1.52,2.61-2.85,3.4C322.84,145.75,321.05,146.14,318.79,146.14z M318.79,141.45
	c0.69,0,1.19-0.17,1.52-0.52c0.32-0.35,0.53-0.79,0.63-1.33c0.1-0.54,0.15-1.1,0.15-1.66v-14.42c0-0.59-0.05-1.15-0.15-1.66
	c-0.1-0.54-0.31-0.99-0.63-1.33c-0.32-0.35-0.83-0.52-1.52-0.52c-0.64,0-1.12,0.17-1.44,0.52c-0.32,0.35-0.53,0.79-0.63,1.33
	c-0.1,0.52-0.15,1.07-0.15,1.66v14.42c0,0.57,0.04,1.12,0.11,1.66c0.1,0.54,0.3,0.99,0.59,1.33
	C317.59,141.28,318.1,141.45,318.79,141.45z M331.98,145.7v-29.94h6.62v12.12h4.62v-12.12h6.65v29.94h-6.65v-13.09h-4.62v13.09
	H331.98z M352.88,152.17v-11.2h0.85c0.57-0.17,1.08-0.47,1.55-0.89c0.49-0.44,0.94-1.04,1.33-1.77c0.39-0.74,0.75-1.66,1.07-2.77
	c0.32-1.11,0.59-2.43,0.81-3.96c0.22-1.55,0.41-3.34,0.55-5.36l0.81-10.46h13.94v25.21h3.36v11.2h-4.36l-0.33-6.47H357.8l-0.37,6.47
	H352.88z M359.98,140.97h7.65v-20.52h-2.77l-0.33,6.43c-0.12,2.12-0.31,3.92-0.55,5.4c-0.22,1.48-0.49,2.71-0.81,3.7
	c-0.3,0.96-0.62,1.75-0.96,2.37c-0.35,0.62-0.71,1.12-1.11,1.52C360.72,140.25,360.35,140.62,359.98,140.97z"/>
<path class="st0" d="M204.48,189.59v-29.94h6.62v12.12h4.62v-12.12h6.65v29.94h-6.65V176.5h-4.62v13.09H204.48z M227.71,189.59
	l5.66-29.94h7.54l5.58,29.94h-6.1l-1-6.32h-4.4l-1.04,6.32H227.71z M235.58,179.31h3.18l-1.59-11.68L235.58,179.31z M269.32,196.06
	l-0.85-6.47h-16.64v-29.94h6.62v25.47h5.03v-25.47h6.62v25.47h4.07v10.94H269.32z M279.06,189.59v-29.94h6.58v29.94H279.06z
	 M291.53,189.59v-29.94h6.58v29.94H291.53z M296.3,156.54v-5.47h4.8v5.47H296.3z M288.24,156.54v-5.47h4.81v5.47H288.24z"/>
<path class="st1" d="M126.11,107.29c-17.08,7.24-29.06,24.15-29.06,43.87s11.98,36.64,29.06,43.87V107.29z M161.53,195.72
	c17.98-6.81,30.77-24.19,30.77-44.56s-12.79-37.75-30.77-44.56V195.72z"/>
<path class="st0" d="M146.76,169.45c2.35-3.68,5.46-10.13,5.46-18.37s-3.11-14.68-5.46-18.37c2.49-4.1,5.99-11.54,5.99-20.85
	c0-1.97-0.52-3.56-1.17-3.56c-0.65,0-1.17,1.59-1.17,3.56c0,6.3-3.77,13.53-6.43,17.07c-2.66-3.54-6.43-10.77-6.43-17.07
	c0-1.97-0.52-3.56-1.17-3.56c-0.65,0-1.17,1.59-1.17,3.56c0,9.24,3.45,16.62,5.93,20.74c-2.38,3.72-5.4,10.28-5.4,18.47
	c0,8.24,3.1,14.67,5.46,18.37c-2.48,4.1-5.99,11.54-5.99,20.83c0,1.97,0.52,3.56,1.17,3.56s1.17-1.59,1.17-3.56
	c0-6.3,3.77-13.53,6.43-17.07c2.35,3.18,6.43,10.58,6.43,17.07c0,1.97,0.52,3.56,1.17,3.56c0.65,0,1.17-1.59,1.17-3.56
	C152.74,180.99,149.23,173.56,146.76,169.45z M138.07,151.08c0-5.99,4.39-12.85,5.85-14.49c2.52,3.14,5.95,9.53,5.95,14.49
	c0,4.98-3.32,11.21-5.9,14.42C141.46,162.36,138.07,156.03,138.07,151.08z"/>
<path class="st0" d="M141.19,115.43h5.56c0.65,0,1.17-1.59,1.17-3.56c0-1.97-0.52-3.56-1.17-3.56h-5.56c-0.65,0-1.17,1.59-1.17,3.56
	C140.03,113.84,140.55,115.43,141.19,115.43z"/>
<path class="st0" d="M147.11,151.08c0-1.97-0.52-3.56-1.17-3.56h-3.92c-0.65,0-1.17,1.59-1.17,3.56c0,1.97,0.52,3.56,1.17,3.56h3.92
	C146.58,154.66,147.11,153.06,147.11,151.08z"/>
<path class="st0" d="M146.76,186.74h-5.56c-0.65,0-1.17,1.59-1.17,3.56c0,1.97,0.52,3.56,1.17,3.56h5.56c0.65,0,1.17-1.59,1.17-3.56
	C147.92,188.33,147.4,186.74,146.76,186.74z"/>
</svg>
