<?xml version="1.0" encoding="utf-8"?>
<!-- Generator: Adobe Illustrator 27.6.1, SVG Export Plug-In . SVG Version: 6.00 Build 0)  -->
<svg version="1.1" id="Layer_1" xmlns="http://www.w3.org/2000/svg" xmlns:xlink="http://www.w3.org/1999/xlink" x="0px" y="0px"
	 viewBox="0 0 177 74" style="enable-background:new 0 0 177 74;" xml:space="preserve">
<style type="text/css">
	.st0{fill:#8787C1;}
	.st1{fill-rule:evenodd;clip-rule:evenodd;fill:#8787C1;}
</style>
<path class="st0" d="M72.63,47.18l0.06,0.9c-0.32,0.08-0.55,0.12-0.69,0.12c-0.51,0-0.97-0.17-1.39-0.51
	c-0.42-0.34-0.76-0.76-1.03-1.25c-0.27-0.49-0.52-0.99-0.77-1.48c-0.23-0.49-0.48-0.91-0.75-1.25c-0.27-0.34-0.54-0.51-0.83-0.51
	c-0.11,0-0.21,0.02-0.3,0.06c0.05,0.82,0.15,2.15,0.28,3.98c-0.12,0.42-0.36,0.64-0.71,0.64c-0.24,0-0.48-0.1-0.71-0.29
	c-0.22-0.21-0.35-0.45-0.4-0.74c0.05-2.3,0.08-4.46,0.08-6.49c0-1.49,0.06-2.68,0.18-3.55l0.91,0.33c0.11,0.53,0.17,1.3,0.18,2.3
	c0.01,0.99,0.03,1.59,0.04,1.83c0.4-0.07,0.75-0.28,1.05-0.64c0.31-0.36,0.56-0.76,0.75-1.21c0.2-0.45,0.41-0.9,0.63-1.33
	c0.22-0.44,0.49-0.81,0.83-1.11c0.35-0.3,0.76-0.45,1.23-0.45c0.24,0,0.62,0.08,1.13,0.25l-0.08,0.7c-0.08-0.01-0.19-0.02-0.32-0.02
	c-0.54,0-1.01,0.23-1.41,0.7c-0.39,0.45-0.69,0.96-0.89,1.52c-0.19,0.55-0.43,1.07-0.73,1.58c-0.3,0.51-0.62,0.8-0.97,0.88
	c0.5,0.12,0.92,0.47,1.27,1.03c0.36,0.56,0.63,1.14,0.81,1.75c0.19,0.59,0.46,1.13,0.81,1.62c0.35,0.48,0.78,0.72,1.29,0.72
	C72.32,47.24,72.47,47.22,72.63,47.18z M71.36,49.54l-0.32-0.88c0.44-0.18,0.85-0.46,1.21-0.84c0.35-0.38,0.64-0.78,0.87-1.19
	c0.23-0.42,0.42-0.95,0.58-1.58c0.16-0.63,0.28-1.18,0.34-1.64c0.08-0.48,0.14-1.07,0.18-1.77c0.04-0.7,0.06-1.22,0.06-1.56
	c0.01-0.36,0.02-0.83,0.02-1.42c0-0.84,0.07-1.33,0.22-1.5c0.19-0.21,1.23-0.31,3.13-0.31c1.49,0,2.34-0.01,2.54-0.02
	c0.03,5.56,0.09,9.17,0.2,10.82c-0.13,0.41-0.37,0.62-0.71,0.62c-0.23,0-0.45-0.1-0.67-0.29c-0.22-0.19-0.35-0.42-0.4-0.7
	c-0.01-0.53-0.02-1.33-0.02-2.38c0-0.52,0-1.31,0-2.36c0.01-1.05,0.02-1.85,0.02-2.38c0-0.99-0.01-1.72-0.02-2.22
	c-0.56,0.1-1.12,0.15-1.67,0.16c-0.55,0.01-0.94,0.03-1.17,0.06c-0.04,0.45-0.07,1.12-0.1,2.01c-0.03,0.89-0.05,1.68-0.08,2.36
	c-0.01,0.67-0.09,1.44-0.24,2.3c-0.15,0.85-0.36,1.57-0.65,2.18c-0.27,0.59-0.69,1.12-1.27,1.58
	C72.85,49.07,72.17,49.39,71.36,49.54z M82.47,37.14l0.93,0.21c0.11,1.12,0.2,2.89,0.28,5.3c0.08,2.4,0.13,3.88,0.16,4.46
	c-0.12,0.42-0.36,0.64-0.71,0.64c-0.24,0-0.48-0.1-0.71-0.29c-0.22-0.21-0.35-0.45-0.4-0.74c0.03-0.56,0.08-2.02,0.16-4.37
	C82.27,39.96,82.36,38.23,82.47,37.14z M82.75,33.46c0.36,0,0.67,0.16,0.91,0.49c0.24,0.31,0.36,0.68,0.36,1.09
	c0,0.3-0.07,0.55-0.22,0.74c-0.13,0.18-0.32,0.27-0.56,0.27c-0.38,0-0.67-0.16-0.89-0.47c-0.22-0.31-0.32-0.68-0.32-1.11
	c0-0.3,0.06-0.54,0.18-0.72C82.34,33.56,82.52,33.46,82.75,33.46z M92.9,47.18l0.06,0.9c-0.32,0.08-0.55,0.12-0.69,0.12
	c-0.51,0-0.97-0.17-1.39-0.51c-0.42-0.34-0.76-0.76-1.03-1.25c-0.27-0.49-0.52-0.99-0.77-1.48c-0.23-0.49-0.48-0.91-0.75-1.25
	c-0.27-0.34-0.54-0.51-0.83-0.51c-0.11,0-0.21,0.02-0.3,0.06c0.05,0.82,0.15,2.15,0.28,3.98c-0.12,0.42-0.36,0.64-0.71,0.64
	c-0.24,0-0.48-0.1-0.71-0.29c-0.22-0.21-0.35-0.45-0.4-0.74c0.05-2.3,0.08-4.46,0.08-6.49c0-1.49,0.06-2.68,0.18-3.55l0.91,0.33
	c0.11,0.53,0.17,1.3,0.18,2.3c0.01,0.99,0.03,1.59,0.04,1.83c0.4-0.07,0.75-0.28,1.05-0.64c0.31-0.36,0.56-0.76,0.75-1.21
	c0.2-0.45,0.41-0.9,0.62-1.33c0.22-0.44,0.49-0.81,0.83-1.11c0.35-0.3,0.76-0.45,1.23-0.45c0.24,0,0.62,0.08,1.13,0.25l-0.08,0.7
	c-0.08-0.01-0.19-0.02-0.32-0.02c-0.54,0-1.01,0.23-1.41,0.7c-0.39,0.45-0.69,0.96-0.89,1.52c-0.19,0.55-0.43,1.07-0.73,1.58
	c-0.3,0.51-0.62,0.8-0.97,0.88c0.5,0.12,0.92,0.47,1.27,1.03c0.36,0.56,0.63,1.14,0.81,1.75c0.19,0.59,0.46,1.13,0.81,1.62
	c0.35,0.48,0.78,0.72,1.29,0.72C92.59,47.24,92.73,47.22,92.9,47.18z M99.81,37.28l0.91,0.21l0.46,9.96
	c-0.12,0.41-0.36,0.62-0.71,0.62c-0.24,0-0.48-0.1-0.71-0.31c-0.23-0.19-0.37-0.43-0.42-0.72c0-0.04,0.06-1.2,0.18-3.47V43.4
	c-0.38-0.03-0.93-0.04-1.67-0.04c-1.12,0-1.96-0.03-2.52-0.1c0.07,0.79,0.15,2.07,0.26,3.84c-0.12,0.42-0.36,0.64-0.71,0.64
	c-0.24,0-0.48-0.1-0.71-0.29c-0.22-0.21-0.35-0.45-0.4-0.74c0.04-0.68,0.06-1.37,0.06-2.05c0-0.44-0.01-1.1-0.02-1.97
	c-0.01-0.88-0.02-1.53-0.02-1.95c0-1.31,0.04-2.42,0.12-3.31l0.91,0.23c0.27,2.97,0.41,4.5,0.42,4.58c2.3,0.12,3.48,0.18,3.55,0.18
	c0.55,0,0.83-0.03,0.83-0.1c0-0.27,0.03-1.14,0.08-2.61C99.76,38.24,99.8,37.43,99.81,37.28z M104.59,45.99
	c0,0.23,0.01,0.54,0.04,0.92c-0.12,0.42-0.36,0.64-0.71,0.64c-0.24,0-0.48-0.1-0.71-0.29c-0.22-0.21-0.35-0.45-0.4-0.74
	c0.04-1.11,0.09-2.73,0.14-4.87c0.07-2.14,0.11-3.58,0.14-4.33l0.93-0.16c0.16,0.88,0.26,2.04,0.3,3.49
	c0.04,1.45,0.09,2.53,0.16,3.24c0.26-0.38,0.98-1.38,2.18-3c1.2-1.62,2.01-2.82,2.44-3.61c0.3-0.05,0.48-0.08,0.56-0.08
	c0.25,0,0.43,0.12,0.52,0.35c0.11,0.23,0.17,0.67,0.2,1.31l0.38,8.46c-0.12,0.41-0.36,0.62-0.71,0.62c-0.24,0-0.48-0.1-0.71-0.29
	c-0.22-0.21-0.35-0.45-0.4-0.74c0.01-0.45,0.05-1.55,0.1-3.31c0.07-1.77,0.12-3.02,0.16-3.76
	C106.93,42.52,105.38,44.56,104.59,45.99z M112.05,50.16l-0.04-0.66c0.97-0.34,1.45-0.81,1.45-1.4c0-0.1-0.03-0.25-0.08-0.47
	c-0.19,0.03-0.32,0.04-0.38,0.04c-0.25,0-0.46-0.17-0.6-0.51c-0.15-0.36-0.22-0.7-0.22-1.03c0-0.3,0.06-0.54,0.18-0.72
	c0.12-0.19,0.3-0.29,0.52-0.29c0.51,0,0.92,0.3,1.23,0.9c0.31,0.6,0.46,1.2,0.46,1.81c0,0.64-0.21,1.18-0.63,1.6
	C113.53,49.88,112.9,50.12,112.05,50.16z M133.12,50.67l-0.97-0.16l-0.38-2.75c-1.08,0.03-2.41,0.04-3.99,0.04
	c-3.12,0-5.19-0.03-6.21-0.1c0.04-0.78,0.09-2.51,0.14-5.2c0.05-2.7,0.13-4.63,0.22-5.81l0.91,0.23c0.09,1.15,0.17,2.91,0.22,5.28
	c0.05,2.37,0.09,3.79,0.1,4.25c0.3-0.03,0.83-0.04,1.59-0.04c0.78-0.01,1.28-0.03,1.51-0.04c0.01-1.22,0.02-3.2,0.02-5.93
	c0-1.34,0.05-2.52,0.14-3.53l0.91,0.21c0.08,1.1,0.14,2.82,0.18,5.17c0.05,2.34,0.09,3.68,0.1,4.02c0.26-0.01,0.74-0.02,1.45-0.02
	c0.69,0,1.16-0.01,1.43-0.02c0.04-0.82,0.09-2.31,0.14-4.46c0.07-2.15,0.13-3.74,0.18-4.78l0.91,0.21c0.05,1.07,0.08,2.77,0.08,5.09
	c0.01,2.31,0.02,3.63,0.02,3.96h1.51c-0.01,0.37-0.05,1.06-0.1,2.07C133.19,49.38,133.15,50.15,133.12,50.67z M133.77,43.32
	c0-0.55,0.05-1.16,0.16-1.83c0.12-0.67,0.3-1.38,0.52-2.12c0.23-0.74,0.57-1.36,1.03-1.85c0.46-0.49,0.99-0.74,1.59-0.74
	c1.29,0,2.32,0.6,3.1,1.79c0.78,1.18,1.17,2.49,1.17,3.94c0,0.62-0.07,1.23-0.2,1.85c-0.12,0.6-0.32,1.2-0.58,1.79
	c-0.27,0.59-0.66,1.08-1.17,1.48c-0.5,0.38-1.08,0.6-1.75,0.66c-1.24-0.16-2.19-0.7-2.86-1.6C134.1,45.77,133.77,44.65,133.77,43.32
	z M137.19,37.86c-0.47,0.05-0.87,0.49-1.19,1.31c-0.32,0.82-0.53,1.62-0.63,2.4c-0.09,0.77-0.14,1.44-0.14,2.03
	c0,0.77,0.23,1.48,0.69,2.14c0.47,0.64,1,0.97,1.57,0.97c0.42,0,0.79-0.16,1.13-0.49c0.34-0.33,0.6-0.73,0.79-1.21
	c0.2-0.49,0.35-0.99,0.44-1.48c0.11-0.49,0.16-0.93,0.16-1.31c0-1.12-0.25-2.1-0.75-2.94C138.77,38.44,138.08,37.97,137.19,37.86z
	 M144.33,37.92c0.32-0.26,0.73-0.47,1.21-0.64c0.5-0.18,0.93-0.27,1.31-0.27c2.5,0,3.75,1.47,3.75,4.41c0,0.63-0.05,1.3-0.14,2.01
	c-0.09,0.7-0.26,1.46-0.5,2.3c-0.23,0.84-0.6,1.52-1.11,2.05c-0.5,0.55-1.1,0.82-1.81,0.82c-0.77,0-1.42-0.21-1.96-0.62
	c-0.54-0.41-0.96-1.01-1.27-1.81c-0.3-0.79-0.51-1.68-0.65-2.67c-0.12-1-0.18-2.16-0.18-3.49c0-1.34,0.16-2.54,0.48-3.59
	c0.34-1.05,0.84-1.98,1.51-2.77c0.67-0.79,1.42-1.48,2.26-2.05c0.83-0.57,1.84-1.14,3.02-1.7c0.08,0.11,0.17,0.21,0.26,0.29
	c0.11,0.07,0.2,0.18,0.28,0.33c0.1,0.15,0.24,0.44,0.42,0.88c-0.26,0.15-0.67,0.38-1.23,0.68c-0.56,0.3-1.03,0.56-1.41,0.78
	c-0.38,0.21-0.83,0.5-1.35,0.88c-0.51,0.37-0.94,0.74-1.29,1.11c-0.34,0.36-0.66,0.81-0.97,1.36
	C144.68,36.75,144.47,37.32,144.33,37.92z M149.05,41.31c0-1.01-0.23-1.77-0.69-2.26c-0.46-0.51-1.07-0.76-1.83-0.76
	c-0.71,0-1.29,0.31-1.73,0.94c-0.44,0.62-0.66,1.37-0.66,2.26c0,0.53,0.04,1.1,0.12,1.7c0.09,0.6,0.23,1.21,0.4,1.83
	c0.19,0.6,0.45,1.1,0.79,1.5c0.35,0.4,0.74,0.6,1.17,0.6C148.24,47.12,149.05,45.18,149.05,41.31z M46.56,73.51l-0.91-0.21
	c0-0.15-0.03-0.6-0.08-1.33c-0.05-0.74-0.08-1.27-0.08-1.6c0-0.27,0.02-0.57,0.06-0.88h1.31c0.07-0.23,0.17-0.58,0.32-1.05
	c0.16-0.47,0.27-0.79,0.32-0.99c0.05-0.19,0.13-0.47,0.22-0.84c0.11-0.38,0.17-0.71,0.2-0.97c0.04-0.27,0.07-0.61,0.1-1.01
	c0.04-0.4,0.06-0.81,0.06-1.25c0-1.03-0.04-2.18-0.12-3.47c0.75,0.04,1.55,0.07,2.38,0.08c0.85,0.01,1.54,0.03,2.08,0.06
	c0.54,0.03,1.09,0.09,1.65,0.18c0.04,0.93,0.08,2.46,0.12,4.6c0.05,2.12,0.1,3.65,0.14,4.58h1.57v0.62c0,0.36,0.01,0.86,0.02,1.52
	c0.03,0.66,0.04,1.1,0.04,1.31c0,0.41-0.01,0.73-0.04,0.94l-0.91-0.21c-0.05-0.19-0.11-0.44-0.16-0.74
	c-0.04-0.29-0.09-0.6-0.14-0.94c-0.05-0.34-0.09-0.59-0.12-0.74c-0.77-0.04-1.99-0.12-3.67-0.25c-1.67-0.12-2.97-0.21-3.91-0.25
	L46.56,73.51z M49.66,61.21c-0.01,0.21-0.03,0.64-0.04,1.29c-0.01,0.64-0.03,1.14-0.06,1.48c-0.01,0.34-0.05,0.82-0.12,1.44
	c-0.05,0.6-0.13,1.11-0.22,1.52c-0.09,0.4-0.24,0.84-0.42,1.31c-0.17,0.47-0.38,0.87-0.63,1.21h4.42l0.4-8.09
	c-0.19-0.01-0.69-0.03-1.49-0.06C50.71,61.29,50.09,61.25,49.66,61.21z M57.65,60.27l0.93,0.21c0.11,1.12,0.2,2.89,0.28,5.3
	c0.08,2.4,0.13,3.88,0.16,4.46c-0.12,0.42-0.36,0.64-0.71,0.64c-0.24,0-0.48-0.1-0.71-0.29c-0.22-0.21-0.35-0.45-0.4-0.74
	c0.03-0.56,0.08-2.02,0.16-4.37C57.45,63.09,57.54,61.36,57.65,60.27z M57.93,56.59c0.36,0,0.67,0.16,0.91,0.49
	c0.24,0.31,0.36,0.68,0.36,1.09c0,0.3-0.07,0.55-0.22,0.74c-0.13,0.18-0.32,0.27-0.56,0.27c-0.38,0-0.67-0.16-0.89-0.47
	c-0.22-0.31-0.32-0.68-0.32-1.11c0-0.3,0.06-0.54,0.18-0.72C57.52,56.69,57.7,56.59,57.93,56.59z M62.04,65.75l-0.08-1.15
	c0.04,0,0.1,0.01,0.18,0.02c0.09,0,0.16,0,0.2,0c1.36,0,2.04-0.6,2.04-1.81c-0.15-1.05-0.72-1.58-1.71-1.58
	c-0.38,0-0.93,0.11-1.65,0.33l-0.36-0.6c0.56-0.53,1.37-0.8,2.42-0.8c0.74,0,1.36,0.19,1.86,0.58c0.5,0.38,0.75,0.94,0.75,1.68
	c0,0.45-0.09,0.9-0.26,1.33c-0.17,0.42-0.4,0.75-0.69,0.97c0.51,0.11,0.91,0.47,1.19,1.07c0.3,0.59,0.44,1.25,0.44,1.99
	c0,0.96-0.3,1.79-0.91,2.51c-0.6,0.71-1.38,1.07-2.34,1.07c-0.47,0-1.04-0.14-1.69-0.41c-0.66-0.27-0.99-0.62-0.99-1.03
	c0-0.29,0.18-0.43,0.54-0.43c0.24,0,0.56,0.12,0.95,0.35c0.39,0.22,0.71,0.33,0.97,0.33c0.56,0,1.06-0.25,1.49-0.76
	c0.43-0.51,0.65-1.07,0.65-1.68c0-0.66-0.23-1.15-0.69-1.48c-0.44-0.34-1.01-0.51-1.71-0.51C62.36,65.73,62.17,65.74,62.04,65.75z
	 M74.04,60.41l0.91,0.21l0.46,9.96c-0.12,0.41-0.36,0.62-0.71,0.62c-0.24,0-0.48-0.1-0.71-0.31c-0.23-0.19-0.37-0.43-0.42-0.72
	c0-0.04,0.06-1.2,0.18-3.47v-0.16c-0.38-0.03-0.93-0.04-1.67-0.04c-1.12,0-1.96-0.03-2.52-0.1c0.07,0.79,0.15,2.07,0.26,3.84
	c-0.12,0.42-0.36,0.64-0.71,0.64c-0.24,0-0.48-0.1-0.71-0.29c-0.22-0.21-0.35-0.45-0.4-0.74c0.04-0.68,0.06-1.37,0.06-2.05
	c0-0.44-0.01-1.1-0.02-1.97c-0.01-0.88-0.02-1.53-0.02-1.95c0-1.31,0.04-2.42,0.12-3.31l0.91,0.23c0.27,2.97,0.41,4.5,0.42,4.58
	c2.3,0.12,3.48,0.18,3.55,0.18c0.55,0,0.83-0.03,0.83-0.1c0-0.27,0.03-1.14,0.08-2.61C73.99,61.37,74.03,60.56,74.04,60.41z
	 M77.77,61.95l-0.4-1.05c0.35-0.36,0.79-0.64,1.33-0.84c0.54-0.22,1.07-0.33,1.59-0.33c2.27,0,3.41,2,3.41,6
	c0,0.55-0.03,1.36-0.1,2.42c-0.05,1.07-0.08,1.87-0.08,2.4c-0.11,0.42-0.32,0.64-0.63,0.64c-0.24,0-0.46-0.12-0.67-0.37
	c-0.2-0.25-0.3-0.52-0.3-0.82c0-0.1,0.01-0.16,0.02-0.21c-0.83,0.82-1.72,1.23-2.66,1.23c-0.71,0-1.34-0.26-1.88-0.78
	c-0.52-0.53-0.79-1.18-0.79-1.93c0-1.27,0.48-2.42,1.45-3.45c0.98-1.03,2.09-1.54,3.33-1.54c0.05,0,0.11,0.01,0.16,0.02
	c0.05,0,0.11,0.01,0.18,0.02c0.08,0.01,0.14,0.02,0.18,0.02c-0.11-1.6-0.73-2.4-1.88-2.4C79.38,60.99,78.62,61.31,77.77,61.95z
	 M81.99,68.38c0.03-0.96,0.04-1.68,0.04-2.18c0-0.41-0.01-0.99-0.04-1.72h-0.16c-0.95,0.01-1.83,0.38-2.62,1.09
	c-0.78,0.71-1.17,1.57-1.17,2.59c0,0.44,0.13,0.79,0.38,1.05c0.27,0.26,0.59,0.39,0.97,0.39C79.98,69.59,80.84,69.19,81.99,68.38z
	 M84.69,61.4l-0.18-0.9c1.8-0.11,4.64-0.26,8.51-0.45c0.32,0.01,0.6,0.14,0.83,0.37c0.23,0.23,0.34,0.48,0.34,0.74
	c0,0.41-0.27,0.64-0.81,0.7l-3.77-0.18c0.07,1.03,0.1,2.53,0.1,4.5c0.01,1.96,0.04,3.39,0.08,4.29c-0.12,0.4-0.36,0.6-0.71,0.6
	c-0.23,0-0.45-0.1-0.67-0.29c-0.22-0.19-0.35-0.42-0.4-0.7c0.19-3.37,0.38-6.19,0.58-8.48L84.69,61.4z M96.79,69.12
	c0,0.23,0.01,0.54,0.04,0.92c-0.12,0.42-0.36,0.64-0.71,0.64c-0.24,0-0.48-0.1-0.71-0.29c-0.22-0.21-0.35-0.45-0.4-0.74
	c0.04-1.11,0.09-2.73,0.14-4.87c0.07-2.14,0.11-3.58,0.14-4.33l0.93-0.16c0.16,0.88,0.26,2.04,0.3,3.49
	c0.04,1.45,0.09,2.53,0.16,3.24c0.26-0.38,0.98-1.38,2.18-3c1.2-1.62,2.01-2.82,2.44-3.61c0.3-0.05,0.48-0.08,0.56-0.08
	c0.26,0,0.43,0.12,0.52,0.35c0.11,0.23,0.17,0.67,0.2,1.31l0.38,8.46c-0.12,0.41-0.36,0.62-0.71,0.62c-0.24,0-0.48-0.1-0.71-0.29
	c-0.22-0.21-0.35-0.45-0.4-0.74c0.01-0.45,0.05-1.55,0.1-3.31c0.07-1.77,0.12-3.02,0.16-3.76C99.13,65.65,97.58,67.69,96.79,69.12z
	 M111.43,60.64l-0.1,0.88c-0.56-0.08-1.05-0.12-1.45-0.12c-0.93,0-1.69,0.29-2.3,0.86c-0.6,0.56-1.02,1.23-1.25,2.01
	c-0.22,0.77-0.32,1.62-0.32,2.57c0,0.44,0.03,0.83,0.08,1.17c0.05,0.34,0.15,0.68,0.28,1.01c0.15,0.33,0.37,0.59,0.66,0.78
	c0.31,0.18,0.69,0.27,1.13,0.27c0.59,0,1.34-0.12,2.26-0.35c0.28-0.11,0.5-0.16,0.67-0.16c0.32,0,0.52,0.38,0.58,1.15
	c-1.18,0.38-2.28,0.58-3.29,0.58c-1.47,0-2.46-0.36-2.98-1.09c-0.51-0.74-0.77-1.93-0.77-3.57c0-0.96,0.06-1.79,0.18-2.51
	c0.13-0.73,0.36-1.4,0.69-2.01c0.32-0.63,0.79-1.11,1.39-1.44c0.62-0.33,1.37-0.49,2.26-0.49C110.14,60.17,110.9,60.32,111.43,60.64
	z M112.76,60.41l0.91,0.21c0.03,0.44,0.07,0.95,0.12,1.54c0.07,0.59,0.14,1.26,0.22,2.01c0.54-0.16,1.05-0.25,1.53-0.25
	c0.58,0,1.12,0.12,1.61,0.35c0.5,0.22,0.92,0.51,1.27,0.88c0.35,0.37,0.63,0.79,0.83,1.27c0.2,0.47,0.3,0.94,0.3,1.44
	c0,0.48-0.1,0.92-0.3,1.31c-0.2,0.4-0.47,0.74-0.81,1.03c-0.34,0.27-0.73,0.49-1.17,0.64c-0.44,0.16-0.91,0.25-1.41,0.25
	c-0.09,0-0.3-0.01-0.63-0.02c-0.32-0.01-0.66-0.05-1.03-0.1c-0.35-0.04-0.66-0.1-0.95-0.18c-0.28-0.08-0.43-0.2-0.44-0.35
	c0-0.23-0.01-0.55-0.02-0.94c0-0.41-0.01-0.86-0.02-1.36c0-0.49-0.01-1.01-0.02-1.54c-0.01-0.55-0.03-1.07-0.04-1.58
	c0-0.51-0.01-0.97-0.02-1.4c0-0.42,0-0.76,0-1.01C112.7,61.84,112.72,61.11,112.76,60.41z M114.19,65.44l-0.18,4.13
	c0.54,0.19,1.05,0.29,1.53,0.29c0.38,0,0.72-0.06,1.03-0.18c0.32-0.14,0.59-0.31,0.81-0.51c0.21-0.22,0.38-0.47,0.5-0.74
	c0.12-0.27,0.18-0.56,0.18-0.86c0-0.3-0.06-0.58-0.18-0.84c-0.12-0.27-0.3-0.51-0.54-0.72c-0.24-0.21-0.54-0.36-0.89-0.47
	c-0.35-0.12-0.75-0.18-1.19-0.18c-0.15,0-0.31,0.01-0.48,0.04C114.6,65.39,114.4,65.42,114.19,65.44z M127.9,61.05
	c0.32-0.26,0.73-0.47,1.21-0.64c0.5-0.18,0.93-0.27,1.31-0.27c2.5,0,3.75,1.47,3.75,4.41c0,0.63-0.05,1.3-0.14,2.01
	c-0.09,0.7-0.26,1.46-0.5,2.3c-0.23,0.84-0.6,1.52-1.11,2.05c-0.5,0.55-1.1,0.82-1.81,0.82c-0.77,0-1.42-0.21-1.96-0.62
	c-0.54-0.41-0.96-1.01-1.27-1.81c-0.3-0.79-0.51-1.68-0.65-2.67c-0.12-1-0.18-2.16-0.18-3.49c0-1.34,0.16-2.54,0.48-3.59
	c0.34-1.05,0.84-1.98,1.51-2.77c0.67-0.79,1.42-1.48,2.26-2.05c0.83-0.57,1.84-1.14,3.02-1.7c0.08,0.11,0.17,0.21,0.26,0.29
	c0.11,0.07,0.2,0.18,0.28,0.33c0.1,0.15,0.24,0.44,0.42,0.88c-0.26,0.15-0.67,0.38-1.23,0.68c-0.56,0.3-1.03,0.56-1.41,0.78
	c-0.38,0.21-0.83,0.5-1.35,0.88c-0.51,0.37-0.94,0.74-1.29,1.11c-0.34,0.36-0.66,0.81-0.97,1.36
	C128.25,59.88,128.03,60.45,127.9,61.05z M132.62,64.44c0-1.01-0.23-1.77-0.69-2.26c-0.46-0.51-1.07-0.76-1.83-0.76
	c-0.71,0-1.29,0.31-1.73,0.94c-0.44,0.62-0.66,1.37-0.66,2.26c0,0.53,0.04,1.1,0.12,1.7c0.09,0.6,0.23,1.21,0.4,1.83
	c0.19,0.6,0.45,1.1,0.79,1.5c0.35,0.4,0.74,0.6,1.17,0.6C131.8,70.25,132.62,68.31,132.62,64.44z M136.47,60.27l0.93,0.21
	c0.11,1.12,0.2,2.89,0.28,5.3c0.08,2.4,0.13,3.88,0.16,4.46c-0.12,0.42-0.36,0.64-0.71,0.64c-0.24,0-0.48-0.1-0.71-0.29
	c-0.22-0.21-0.35-0.45-0.4-0.74c0.03-0.56,0.08-2.02,0.16-4.37C136.27,63.09,136.36,61.36,136.47,60.27z M136.75,56.59
	c0.36,0,0.67,0.16,0.91,0.49c0.24,0.31,0.36,0.68,0.36,1.09c0,0.3-0.07,0.55-0.22,0.74c-0.13,0.18-0.32,0.27-0.56,0.27
	c-0.38,0-0.67-0.16-0.89-0.47c-0.22-0.31-0.32-0.68-0.32-1.11c0-0.3,0.06-0.54,0.18-0.72C136.34,56.69,136.52,56.59,136.75,56.59z
	 M137.52,72.67l-0.32-0.88c0.44-0.18,0.85-0.46,1.21-0.84c0.35-0.38,0.64-0.78,0.87-1.19c0.23-0.42,0.42-0.95,0.58-1.58
	c0.16-0.63,0.28-1.18,0.34-1.64c0.08-0.48,0.14-1.07,0.18-1.77c0.04-0.7,0.06-1.22,0.06-1.56c0.01-0.36,0.02-0.83,0.02-1.42
	c0-0.84,0.07-1.33,0.22-1.5c0.19-0.21,1.23-0.31,3.13-0.31c1.49,0,2.34-0.01,2.54-0.02c0.03,5.56,0.09,9.17,0.2,10.82
	c-0.13,0.41-0.37,0.62-0.71,0.62c-0.23,0-0.45-0.1-0.67-0.29c-0.21-0.19-0.35-0.42-0.4-0.7c-0.01-0.53-0.02-1.33-0.02-2.38
	c0-0.52,0-1.31,0-2.36c0.01-1.05,0.02-1.85,0.02-2.38c0-0.99-0.01-1.72-0.02-2.22c-0.56,0.1-1.12,0.15-1.67,0.16
	s-0.94,0.03-1.17,0.06c-0.04,0.45-0.07,1.12-0.1,2.01c-0.03,0.89-0.05,1.68-0.08,2.36c-0.01,0.67-0.09,1.44-0.24,2.3
	c-0.15,0.85-0.36,1.57-0.65,2.18c-0.27,0.59-0.69,1.12-1.27,1.58C139.01,72.21,138.32,72.52,137.52,72.67z M148.24,60.41l0.91,0.21
	c0.03,0.44,0.07,0.95,0.12,1.54c0.07,0.59,0.14,1.26,0.22,2.01c0.54-0.16,1.05-0.25,1.53-0.25c0.58,0,1.12,0.12,1.61,0.35
	c0.5,0.22,0.92,0.51,1.27,0.88c0.35,0.37,0.63,0.79,0.83,1.27c0.2,0.47,0.3,0.94,0.3,1.44c0,0.48-0.1,0.92-0.3,1.31
	c-0.2,0.4-0.47,0.74-0.81,1.03c-0.34,0.27-0.73,0.49-1.17,0.64c-0.44,0.16-0.91,0.25-1.41,0.25c-0.09,0-0.3-0.01-0.63-0.02
	c-0.32-0.01-0.66-0.05-1.03-0.1c-0.35-0.04-0.66-0.1-0.95-0.18c-0.28-0.08-0.43-0.2-0.44-0.35c0-0.23-0.01-0.55-0.02-0.94
	c0-0.41-0.01-0.86-0.02-1.36c0-0.49-0.01-1.01-0.02-1.54c-0.01-0.55-0.03-1.07-0.04-1.58c0-0.51-0.01-0.97-0.02-1.4
	c0-0.42,0-0.76,0-1.01C148.18,61.84,148.2,61.11,148.24,60.41z M149.68,65.44l-0.18,4.13c0.54,0.19,1.05,0.29,1.53,0.29
	c0.38,0,0.72-0.06,1.03-0.18c0.32-0.14,0.59-0.31,0.81-0.51c0.21-0.22,0.38-0.47,0.5-0.74c0.12-0.27,0.18-0.56,0.18-0.86
	c0-0.3-0.06-0.58-0.18-0.84c-0.12-0.27-0.3-0.51-0.54-0.72c-0.24-0.21-0.54-0.36-0.89-0.47c-0.35-0.12-0.75-0.18-1.19-0.18
	c-0.15,0-0.31,0.01-0.48,0.04C150.09,65.39,149.89,65.42,149.68,65.44z M165.52,60.14l0.91,0.21c0.04,0.92,0.06,3.15,0.06,6.69
	c0,1.77,0.02,3.05,0.06,3.84c-1.02,0.03-2.35,0.04-3.99,0.04c-3.17,0-5.27-0.03-6.29-0.1c0.04-0.78,0.09-2.51,0.14-5.2
	c0.05-2.7,0.13-4.63,0.22-5.81l0.91,0.23c0.09,1.15,0.17,2.91,0.22,5.28c0.05,2.37,0.09,3.79,0.1,4.25c0.3-0.03,0.83-0.04,1.59-0.04
	c0.78-0.01,1.28-0.03,1.51-0.04c0.03-0.48,0.04-1.23,0.04-2.26c0-0.4-0.01-1.01-0.02-1.83c0-0.82,0-1.44,0-1.85
	c0-1.34,0.05-2.52,0.14-3.53l0.91,0.21c0.08,1.1,0.14,2.81,0.18,5.15c0.05,2.34,0.09,3.68,0.1,4.02c1.37,0,2.33-0.01,2.88-0.02
	c0.04-0.82,0.09-2.31,0.14-4.46C165.41,62.78,165.47,61.18,165.52,60.14z M176.31,68.83l0.2,0.9c-0.59,0.22-1.47,0.47-2.64,0.74
	c-1.16,0.26-2.02,0.39-2.58,0.39c-0.58,0-1.08-0.19-1.51-0.57c-0.43-0.4-0.75-0.9-0.97-1.5c-0.21-0.62-0.38-1.22-0.48-1.81
	c-0.09-0.6-0.14-1.19-0.14-1.77c0-3.42,1.52-5.13,4.56-5.13c0.73,0,1.36,0.24,1.92,0.72c0.55,0.47,0.83,1.07,0.83,1.83
	c0,0.41-0.11,0.77-0.34,1.09c-0.22,0.31-0.48,0.57-0.81,0.76c-0.31,0.18-0.71,0.34-1.21,0.49c-0.48,0.15-0.91,0.26-1.29,0.33
	c-0.38,0.07-0.83,0.14-1.35,0.23c-0.52,0.08-0.89,0.14-1.09,0.18c0.01,0.4,0.03,0.75,0.06,1.05c0.04,0.3,0.11,0.63,0.2,0.99
	c0.11,0.34,0.24,0.63,0.4,0.86c0.17,0.22,0.41,0.4,0.71,0.55c0.3,0.15,0.65,0.23,1.05,0.23c0.48,0,1.08-0.04,1.77-0.12
	c0.7-0.1,1.32-0.19,1.86-0.29C176,68.88,176.28,68.83,176.31,68.83z M169.48,64.44c1.83-0.53,3.33-1.1,4.5-1.68
	c-0.09-0.45-0.22-0.78-0.38-0.99c-0.16-0.21-0.4-0.31-0.73-0.31c-0.82,0-1.57,0.29-2.24,0.86C169.97,62.9,169.58,63.6,169.48,64.44z
	"/>
<path class="st1" d="M1.27,0.75c-0.11,0.11-0.16,0.28-0.16,0.5c0,0.25-0.04,0.34-0.16,0.38C0.69,1.71,0.68,1.99,0.86,3.02
	c0.1,0.52,0.21,1.42,0.25,1.99c0.48,6.87,3.24,13.52,8.14,19.64c1,1.25,3.92,4.27,5.1,5.28c5.94,5.09,12.41,8.08,18.91,8.75
	c0.39,0.04,0.73,0.09,0.75,0.11c0.04,0.04-0.49,1.08-1.27,2.51c-0.45,0.83-0.47,1.06-0.06,1.27c0.22,0.12,0.32,0.11,1.26-0.09
	c0.56-0.12,1.5-0.38,2.08-0.58c1.32-0.46,5.65-2.32,5.87-2.51c0.09-0.08,0.16-0.21,0.16-0.29c0-0.19-0.62-1.92-1.11-3.09
	c-0.59-1.41-1.96-4.45-2.05-4.57c-0.05-0.06-0.2-0.1-0.34-0.11c-0.21,0-0.37,0.12-1.01,0.81c-0.87,0.94-1.61,1.87-1.97,2.52
	l-0.25,0.45l-1.37-0.04c-1.46-0.05-2.24-0.17-3.57-0.57c-4.31-1.28-8.6-4.26-15.28-10.59C8.65,17.81,4.63,11.95,2.59,5.7
	C2.1,4.21,2.02,3.8,1.91,2.01C1.85,1.01,1.81,0.78,1.7,0.69C1.51,0.55,1.46,0.56,1.27,0.75z M4.26,12.43
	c2.85,5.06,8.2,11.06,14.44,16.18c4.84,3.97,9.11,6.44,12.24,7.06c1.05,0.21,2.52,0.23,3.4,0.04c0.34-0.07,0.62-0.12,0.63-0.1
	c0.01,0.01,0.08,0.13,0.15,0.26c0.15,0.25,0.42,0.3,0.63,0.13c0.07-0.06,0.49-0.57,0.94-1.15c0.45-0.57,0.99-1.25,1.21-1.49
	l0.39-0.45l0.62,1.41c1.01,2.3,1.76,4.19,1.76,4.43c0,0.11-0.11,0.16-1.65,0.8c-2.55,1.06-4.98,1.92-5.09,1.8
	c-0.04-0.04,0.23-0.74,0.75-1.93c0.24-0.55,0.27-0.69,0.2-0.86c-0.05-0.11-0.12-0.2-0.17-0.2s-0.08-0.06-0.08-0.12
	c0-0.19-0.2-0.26-1.7-0.58c-6.82-1.44-13.12-4.63-18.24-9.22c-1.19-1.07-3.48-3.49-4.37-4.62c-2.8-3.56-4.92-7.37-6.33-11.41
	C3.56,11.23,3.58,11.23,4.26,12.43z"/>
</svg>
