<?xml version="1.0" encoding="utf-8"?>
<!-- Generator: Adobe Illustrator 27.6.1, SVG Export Plug-In . SVG Version: 6.00 Build 0)  -->
<svg version="1.1" id="Layer_1" xmlns="http://www.w3.org/2000/svg" xmlns:xlink="http://www.w3.org/1999/xlink" x="0px" y="0px"
	 viewBox="0 0 340 269.03" style="enable-background:new 0 0 340 269.03;" xml:space="preserve">
<style type="text/css">
	.st0{fill:#8787C1;}
	.st1{fill-rule:evenodd;clip-rule:evenodd;fill:#8787C1;}
	.st2{fill:none;stroke:#8787C1;stroke-width:2;}
	.st3{fill:none;stroke:#8787C1;stroke-width:1.5;}
</style>
<g>
	<path class="st0" d="M274.95,29.24c-2.25-1.05-4.78-1.67-7.25-1.1c-1.89,0.43-3.53,1.61-4.61,3.21c-1,1.49-1.49,3.35-1.38,5.13
		c0.12,1.9,0.88,3.72,2.22,5.08c1.64,1.64,3.91,2.39,6.18,2.56c0.1,0.01,0.2,0.01,0.3,0.02c0.35,0.02,0.6-0.31,0.51-0.65l0,0
		c-0.09-0.34-0.49-0.49-0.78-0.29c-1.7,1.21-3.1,2.84-3.67,4.88c-0.51,1.86-0.25,3.84,0.6,5.56c1.67,3.39,5.61,5.56,9.35,4.51
		c2.46-0.7,4.35-2.58,5.7-4.69c0.2-0.31,0.03-0.72-0.32-0.81l0,0c-0.34-0.09-0.68,0.14-0.68,0.49c-0.03,1.49,0.29,2.99,1.08,4.26
		c0.8,1.28,2.01,2.21,3.41,2.75c2.64,1.02,5.9,0.42,7.89-1.62c1.15-1.17,1.76-2.71,1.92-4.32c0.04-0.38-0.27-0.7-0.66-0.7l0,0
		c-0.4,0-0.72,0.35-0.66,0.75c0.25,1.5,0.81,2.93,1.85,4.07c0.96,1.06,2.3,1.78,3.7,2.03c2.92,0.52,6.02-0.72,7.64-3.24
		c0.92-1.44,1.2-3.12,1.08-4.79c-0.03-0.38-0.42-0.6-0.77-0.45l0,0c-0.33,0.14-0.46,0.55-0.25,0.84c2.1,2.94,5.6,5.46,9.35,4.66
		c1.06-0.23,2.04-0.73,2.89-1.39c0.71-0.55,1.38-1.13,1.89-1.88c0.91-1.35,1.31-3.09,1.21-4.71c-0.11-1.7-0.76-3.32-2.03-4.44
		c-0.23-0.2-0.58-0.05-0.62,0.26l0,0c-0.04,0.3,0.25,0.54,0.54,0.43c1.55-0.63,2.91-1.65,3.84-3.08c0.89-1.37,1.32-3.04,1.24-4.67
		c-0.15-3.33-2.31-6.47-5.64-7.29c-2.12-0.52-4.3-0.07-6.27,0.79c-0.29,0.13-0.33,0.51-0.08,0.7l0,0c0.24,0.19,0.6,0.06,0.66-0.24
		c0.36-1.88,0.4-3.86-0.19-5.69c-0.53-1.63-1.52-3.06-2.93-4.05c-2.69-1.9-6.41-1.67-9.06,0.17c-1.65,1.15-2.85,2.77-3.65,4.59
		c-0.16,0.37,0.08,0.78,0.48,0.83l0,0c0.35,0.05,0.68-0.21,0.68-0.57c0.01-2.47-1.08-5-3.41-6.12c-2.15-1.04-4.8-0.62-6.33,1.29
		c-0.93,1.16-1.34,2.59-1.45,4.05c-0.03,0.39,0.32,0.7,0.71,0.64l0,0c0.37-0.05,0.63-0.41,0.53-0.77c-0.48-1.82-1.37-3.57-2.79-4.82
		c-1.34-1.18-3.02-1.85-4.8-1.96c-3.26-0.21-6.8,1.55-8.2,4.59c-0.88,1.92-0.83,4.08-0.05,6.03c0.14,0.36,0.49,0.62,0.89,0.51
		c0.35-0.09,0.65-0.53,0.51-0.89c-0.18-0.44-0.32-0.89-0.42-1.36c-0.02-0.09-0.04-0.19-0.06-0.28c-0.01-0.06-0.02-0.11-0.03-0.17
		c-0.04-0.19,0.02,0.16-0.01-0.03c-0.02-0.2-0.04-0.4-0.05-0.61c-0.01-0.2-0.01-0.39,0.01-0.59c0.01-0.09,0.01-0.18,0.02-0.26
		c0.01-0.05,0.01-0.1,0.02-0.16c-0.02,0.22,0-0.02,0.01-0.06c0.06-0.36,0.15-0.72,0.28-1.07c0.03-0.08,0.06-0.16,0.09-0.23
		c0.06-0.16-0.07,0.15,0-0.01c0.02-0.04,0.04-0.09,0.06-0.13c0.08-0.17,0.17-0.34,0.26-0.5c0.09-0.15,0.18-0.29,0.27-0.43
		c0.06-0.08,0.11-0.16,0.17-0.24c-0.12,0.16,0.06-0.07,0.1-0.12c0.23-0.27,0.48-0.53,0.76-0.77c0.07-0.07,0.15-0.13,0.23-0.19
		c0.03-0.02,0.05-0.04,0.08-0.06c0.13-0.11-0.13,0.09,0.01-0.01c0.16-0.11,0.32-0.23,0.49-0.34c0.31-0.2,0.63-0.37,0.96-0.52
		c0.05-0.02,0.09-0.04,0.14-0.06c0.15-0.07-0.11,0.05-0.01,0.01c0.08-0.04,0.17-0.07,0.26-0.1c0.19-0.07,0.38-0.13,0.57-0.19
		c0.35-0.1,0.71-0.19,1.08-0.24c0.05-0.01,0.1-0.02,0.15-0.02c-0.19,0.03-0.08,0.01-0.04,0.01c0.1-0.01,0.2-0.02,0.3-0.03
		c0.19-0.02,0.37-0.02,0.55-0.03c0.19,0,0.37,0,0.55,0.01c0.09,0.01,0.19,0.01,0.28,0.02c0.06,0.01,0.4,0.05,0.18,0.02
		c0.37,0.06,0.73,0.13,1.09,0.24c0.18,0.05,0.36,0.12,0.53,0.19c0.05,0.02,0.1,0.04,0.14,0.06c-0.16-0.07-0.07-0.03-0.03-0.01
		c0.11,0.05,0.22,0.1,0.33,0.16c0.35,0.18,0.67,0.38,0.99,0.61c0.03,0.02,0.17,0.13,0.03,0.02c0.04,0.03,0.08,0.07,0.13,0.1
		c0.1,0.08,0.2,0.17,0.29,0.25c0.17,0.15,0.32,0.31,0.47,0.48c0.08,0.09,0.17,0.19,0.24,0.28c0.03,0.04,0.06,0.08,0.09,0.11
		c-0.11-0.14,0.05,0.06,0.06,0.09c0.14,0.2,0.28,0.4,0.4,0.61c0.14,0.24,0.27,0.48,0.39,0.72c0.14,0.3,0.16,0.33,0.27,0.63
		c0.22,0.59,0.39,1.21,0.52,1.83c0.17,0.81,1.42,0.61,1.43-0.19c0-0.39,0.02-0.77,0.07-1.15c0.02-0.15,0.01-0.05,0-0.02
		c0.01-0.05,0.02-0.09,0.02-0.14c0.01-0.08,0.03-0.16,0.04-0.24c0.03-0.17,0.07-0.33,0.11-0.49c0.04-0.16,0.09-0.31,0.14-0.46
		c0.02-0.07,0.05-0.13,0.07-0.2c0.02-0.04,0.03-0.08,0.05-0.11c-0.02,0.06-0.04,0.08,0,0.01c0.13-0.27,0.26-0.53,0.42-0.78
		c0.04-0.05,0.07-0.1,0.11-0.16l0,0c0.01-0.01,0.03-0.04,0.03-0.04l0,0c0.09-0.11,0.18-0.21,0.27-0.31
		c0.08-0.09,0.17-0.17,0.26-0.25c0.04-0.04,0.09-0.07,0.13-0.11c0.09-0.08-0.01,0.01-0.03,0.02c0.03-0.03,0.07-0.05,0.1-0.07
		c0.2-0.14,0.4-0.26,0.62-0.37c0.05-0.02,0.1-0.05,0.15-0.07c-0.19,0.09,0,0,0.05-0.02c0.11-0.04,0.22-0.08,0.34-0.11
		c0.11-0.03,0.23-0.06,0.34-0.08c0.05-0.01,0.11-0.02,0.16-0.03c0.08-0.02-0.08,0.01-0.08,0.01c0.04,0,0.08-0.01,0.12-0.01
		c0.24-0.02,0.47-0.03,0.71-0.01c0.06,0.01,0.12,0.01,0.19,0.02c0.17,0.01-0.11-0.02,0.02,0c0.12,0.02,0.25,0.04,0.37,0.07
		c0.24,0.06,0.46,0.13,0.69,0.22c0.12,0.04-0.13-0.07,0.03,0.01c0.05,0.03,0.1,0.05,0.16,0.07c0.12,0.06,0.23,0.12,0.35,0.19
		c0.1,0.06,0.2,0.12,0.29,0.19c0.06,0.04,0.11,0.08,0.16,0.12c-0.13-0.09,0,0,0.05,0.04c0.2,0.17,0.38,0.35,0.55,0.54
		c0.04,0.05,0.08,0.09,0.12,0.14s0.12,0.16,0.04,0.04c0.08,0.12,0.17,0.23,0.25,0.36s0.16,0.27,0.23,0.41
		c0.04,0.07,0.07,0.13,0.1,0.2c0.02,0.04,0.11,0.27,0.05,0.12c0.12,0.32,0.23,0.64,0.31,0.98c0.04,0.17,0.07,0.33,0.09,0.5
		c0.02,0.14,0,0.03,0,0c0.01,0.06,0.01,0.11,0.02,0.17c0.01,0.09,0.02,0.18,0.02,0.27c0.03,0.42,0.02,0.83-0.02,1.25
		c-0.03,0.36,0.3,0.67,0.63,0.71c0.38,0.05,0.67-0.17,0.8-0.52c0.3-0.79,0.76-1.7,1.31-2.48c0.06-0.09,0.13-0.18,0.2-0.27
		c-0.08,0.11,0.08-0.1,0.11-0.13c0.14-0.17,0.29-0.34,0.44-0.5c0.28-0.3,0.58-0.57,0.9-0.83c0.02-0.02,0.18-0.14,0.04-0.03
		c0.03-0.02,0.06-0.05,0.09-0.07c0.08-0.06,0.16-0.11,0.24-0.17c0.17-0.11,0.34-0.22,0.51-0.32c0.16-0.09,0.31-0.18,0.47-0.25
		c0.08-0.04,0.17-0.08,0.25-0.12c0.04-0.02,0.08-0.04,0.13-0.06c0.05-0.02,0.03-0.02-0.05,0.02c0.03-0.01,0.07-0.03,0.1-0.04
		c0.34-0.13,0.68-0.24,1.04-0.33c0.17-0.04,0.33-0.07,0.5-0.1c0.04-0.01,0.09-0.01,0.13-0.02c0.17-0.03-0.12,0.01-0.01,0
		c0.1-0.01,0.19-0.02,0.29-0.03c0.35-0.03,0.69-0.03,1.04-0.01c0.09,0.01,0.17,0.01,0.26,0.02c0.05,0.01,0.33,0.05,0.11,0.01
		c0.18,0.03,0.35,0.06,0.53,0.1c0.34,0.08,0.68,0.18,1,0.31c0.03,0.01,0.06,0.03,0.09,0.04c0.17,0.06-0.14-0.07,0.02,0.01
		c0.07,0.03,0.14,0.06,0.21,0.1c0.16,0.08,0.32,0.16,0.47,0.25s0.29,0.18,0.43,0.28c0.06,0.04,0.12,0.09,0.19,0.14
		c0.09,0.07-0.13-0.11,0,0c0.04,0.03,0.08,0.07,0.12,0.1c0.28,0.23,0.53,0.49,0.77,0.76c0.05,0.06,0.1,0.12,0.16,0.19
		c0.12,0.14-0.09-0.12,0.02,0.02c0.02,0.03,0.04,0.06,0.06,0.09c0.12,0.16,0.23,0.33,0.33,0.5c0.09,0.14,0.17,0.29,0.25,0.44
		c0.04,0.08,0.08,0.17,0.12,0.26c0.03,0.05,0.05,0.11,0.07,0.16c-0.05-0.11-0.01-0.02,0.02,0.04c0.17,0.43,0.3,0.86,0.4,1.31
		c0.03,0.11,0.05,0.23,0.07,0.35c0.01,0.06,0.02,0.13,0.03,0.19c0.01,0.03,0.03,0.23,0.01,0.07c0.03,0.25,0.05,0.5,0.07,0.74
		c0.03,0.56,0.01,1.12-0.04,1.68c-0.05,0.56-0.15,1.11-0.29,1.73c-0.15,0.64,0.5,1.1,1.07,0.82c0.89-0.44,1.88-0.8,2.93-0.99
		c0.11-0.02,0.22-0.04,0.33-0.05c-0.16,0.02,0.15-0.02,0.19-0.02c0.23-0.02,0.46-0.04,0.68-0.04c0.2,0,0.4,0,0.6,0.01
		c0.1,0.01,0.19,0.02,0.29,0.02c0.06,0.01,0.11,0.01,0.17,0.02c-0.19-0.02-0.01,0,0.03,0.01c0.4,0.07,0.79,0.16,1.17,0.3
		c0.08,0.03,0.17,0.06,0.25,0.09c0.04,0.01,0.13,0.06-0.03-0.01c0.05,0.02,0.1,0.04,0.14,0.06c0.17,0.08,0.34,0.17,0.51,0.26
		c0.15,0.09,0.29,0.18,0.43,0.27c0.07,0.05,0.14,0.1,0.21,0.15c0.14,0.1-0.12-0.1,0.01,0.01c0.04,0.03,0.08,0.06,0.12,0.1
		c0.27,0.23,0.52,0.48,0.75,0.74c0.06,0.07,0.12,0.14,0.18,0.21c0.03,0.04,0.1,0.13-0.01-0.01c0.03,0.03,0.05,0.07,0.07,0.1
		c0.11,0.16,0.22,0.32,0.32,0.48c0.18,0.3,0.34,0.62,0.48,0.94c-0.08-0.19,0.02,0.06,0.04,0.11c0.03,0.08,0.06,0.16,0.09,0.24
		c0.06,0.18,0.11,0.35,0.16,0.53c0.04,0.16,0.08,0.33,0.11,0.49c0.02,0.08,0.03,0.17,0.05,0.25c0.01,0.05,0.02,0.1,0.02,0.15
		c-0.03-0.2-0.01-0.04,0,0.01c0.04,0.36,0.06,0.72,0.05,1.09c-0.01,0.18-0.02,0.36-0.03,0.53c-0.01,0.05-0.04,0.33-0.01,0.11
		c-0.02,0.1-0.03,0.2-0.05,0.3c-0.06,0.35-0.16,0.7-0.27,1.04c-0.03,0.08-0.06,0.16-0.09,0.24c-0.02,0.05-0.13,0.3-0.04,0.11
		c-0.08,0.17-0.16,0.35-0.25,0.51c-0.1,0.19-0.21,0.37-0.32,0.54c-0.06,0.09-0.12,0.18-0.18,0.26c-0.02,0.03-0.13,0.17-0.02,0.02
		c-0.03,0.04-0.07,0.08-0.1,0.13c-0.28,0.34-0.59,0.66-0.93,0.94c-0.04,0.03-0.07,0.06-0.11,0.09c-0.14,0.12,0.06-0.04-0.06,0.04
		c-0.09,0.07-0.19,0.14-0.28,0.2c-0.2,0.13-0.4,0.26-0.61,0.37c-0.22,0.12-0.44,0.23-0.67,0.33c0.03-0.01,0.13-0.05-0.01,0
		c-0.07,0.03-0.14,0.06-0.21,0.08c-0.13,0.05-0.27,0.1-0.41,0.14c-0.61,0.2-0.7,0.97-0.17,1.33c0.23,0.15,0.47,0.36,0.71,0.63
		c0.06,0.06,0.11,0.13,0.16,0.19c-0.06-0.08,0.06,0.09,0.08,0.11c0.1,0.15,0.2,0.31,0.28,0.46c0.18,0.33,0.23,0.46,0.35,0.84
		c0.05,0.17,0.1,0.33,0.13,0.5c0.03,0.14,0.08,0.42,0.09,0.5c0.17,1.31-0.07,2.75-0.71,3.9c-0.08,0.15-0.17,0.29-0.26,0.43
		c-0.05,0.07-0.09,0.14-0.14,0.2c-0.05,0.07-0.01,0.01,0.01-0.01c-0.04,0.05-0.07,0.09-0.11,0.13c-0.11,0.12-0.22,0.24-0.34,0.36
		c-0.06,0.06-0.12,0.11-0.18,0.16c-0.03,0.02-0.05,0.04-0.08,0.07c-0.03,0.03-0.04,0.03-0.01,0.01c0.07-0.05,0.03-0.02-0.13,0.1
		c-0.72,0.6-1.45,1.14-2.35,1.43c-1.56,0.5-3.17,0.21-4.61-0.55c-1.67-0.89-3.06-2.29-4.07-3.86c-0.19-0.3-0.57-0.44-0.91-0.3
		c-0.36,0.16-0.48,0.49-0.42,0.86c0.03,0.23-0.01-0.08,0.01,0.05c0.01,0.05,0.01,0.09,0.02,0.14c0.01,0.1,0.02,0.21,0.03,0.31
		c0.02,0.21,0.02,0.42,0.02,0.64c0,0.18-0.01,0.36-0.02,0.55c-0.01,0.1-0.02,0.21-0.03,0.31c0,0.03-0.02,0.14,0-0.01
		c-0.01,0.06-0.02,0.12-0.03,0.18c-0.06,0.35-0.14,0.69-0.25,1.02c-0.03,0.08-0.06,0.16-0.09,0.24c-0.02,0.04-0.12,0.28-0.04,0.11
		c-0.07,0.16-0.15,0.32-0.23,0.47c-0.07,0.13-0.15,0.27-0.23,0.4c-0.05,0.08-0.1,0.15-0.15,0.22c-0.03,0.04-0.19,0.26-0.08,0.11
		c-0.2,0.25-0.41,0.48-0.64,0.7c-0.11,0.11-0.23,0.21-0.35,0.31c-0.16,0.13,0.06-0.04-0.08,0.06c-0.07,0.05-0.14,0.1-0.21,0.15
		c-0.26,0.18-0.54,0.34-0.82,0.48c-0.06,0.03-0.12,0.06-0.19,0.09c-0.04,0.02-0.08,0.04-0.12,0.05c-0.09,0.04,0.12-0.05,0.03-0.01
		c-0.15,0.06-0.3,0.12-0.46,0.17c-0.3,0.1-0.61,0.18-0.92,0.23c-0.08,0.01-0.15,0.03-0.23,0.04c-0.11,0.02,0.13-0.01-0.06,0.01
		c-0.17,0.02-0.34,0.03-0.51,0.04c-0.31,0.01-0.61,0-0.92-0.03c-0.04,0-0.27-0.03-0.16-0.02c0.11,0.02-0.12-0.02-0.16-0.03
		c-0.16-0.03-0.32-0.06-0.47-0.1c-0.14-0.04-0.28-0.08-0.41-0.12c-0.07-0.02-0.14-0.05-0.22-0.08c-0.04-0.02-0.08-0.03-0.12-0.05
		c-0.14-0.05,0.13,0.06-0.02-0.01c-0.28-0.13-0.55-0.27-0.81-0.43c-0.13-0.08-0.26-0.17-0.38-0.27c0.13,0.09-0.01-0.01-0.06-0.05
		c-0.07-0.06-0.15-0.12-0.22-0.19c-0.14-0.13-0.27-0.26-0.39-0.4c-0.06-0.07-0.12-0.14-0.18-0.21c-0.02-0.03-0.05-0.06-0.07-0.09
		c0.11,0.14-0.01-0.01-0.02-0.03c-0.23-0.32-0.43-0.66-0.6-1.02c-0.02-0.05-0.04-0.09-0.06-0.14c-0.06-0.12,0.02,0.06-0.01-0.02
		c-0.04-0.1-0.08-0.21-0.12-0.32c-0.07-0.2-0.13-0.41-0.19-0.62c-0.06-0.22-0.11-0.44-0.15-0.66c-0.06-0.32-0.06-0.33-0.09-0.66
		c-0.04-0.39-0.31-0.72-0.72-0.72c-0.4,0-0.72,0.33-0.72,0.72c-0.01,0.2-0.02,0.4-0.03,0.59c-0.01,0.04-0.01,0.09-0.01,0.13
		c0,0-0.03,0.21-0.01,0.09l0,0c0.01-0.11-0.02,0.14-0.04,0.25c0,0.01,0,0.02,0,0.02c-0.07,0.35-0.16,0.7-0.27,1.03
		c-0.03,0.09-0.07,0.18-0.1,0.27c-0.01,0.03-0.06,0.12,0.01-0.02c-0.02,0.03-0.03,0.07-0.05,0.1c-0.08,0.17-0.16,0.33-0.25,0.49
		c-0.08,0.14-0.17,0.27-0.26,0.41c-0.04,0.06-0.08,0.11-0.12,0.17c-0.07,0.11,0.01-0.01,0.02-0.02c-0.03,0.04-0.07,0.08-0.1,0.12
		c-0.21,0.25-0.44,0.49-0.69,0.7c-0.05,0.04-0.1,0.09-0.16,0.13c-0.13,0.11,0.09-0.07,0.01-0.01c-0.03,0.03-0.07,0.05-0.1,0.08
		c-0.12,0.09-0.25,0.17-0.38,0.25s-0.26,0.16-0.4,0.22c-0.07,0.04-0.15,0.08-0.23,0.11c-0.05,0.02-0.29,0.12-0.1,0.05
		c-0.29,0.12-0.58,0.22-0.88,0.29c-0.14,0.04-0.28,0.07-0.42,0.09c-0.08,0.02-0.17,0.03-0.25,0.04c-0.2,0.03,0.1-0.01-0.11,0.02
		c-0.31,0.03-0.62,0.05-0.94,0.04c-0.14,0-0.29-0.01-0.43-0.02c-0.08-0.01-0.17-0.02-0.25-0.03c-0.04,0-0.14-0.02,0.04,0.01
		c-0.05-0.01-0.1-0.02-0.15-0.02c-0.31-0.05-0.61-0.12-0.91-0.21c-0.14-0.04-0.27-0.09-0.41-0.14c-0.04-0.02-0.3-0.12-0.11-0.04
		c-0.08-0.03-0.16-0.07-0.23-0.1c-0.28-0.13-0.55-0.29-0.81-0.46c-0.06-0.04-0.12-0.09-0.19-0.13c-0.17-0.12,0.06,0.05-0.08-0.06
		c-0.12-0.1-0.25-0.21-0.37-0.32c-0.11-0.11-0.22-0.22-0.32-0.33c-0.05-0.05-0.09-0.1-0.14-0.16c-0.03-0.03-0.06-0.07-0.08-0.1
		c-0.04-0.05,0.08,0.11-0.02-0.02c-0.22-0.3-0.41-0.61-0.57-0.95c-0.02-0.04-0.04-0.08-0.06-0.12c-0.01-0.02-0.08-0.19-0.04-0.09
		c0.04,0.11-0.03-0.07-0.03-0.07c-0.02-0.05-0.04-0.11-0.06-0.16c-0.07-0.18-0.12-0.37-0.17-0.56c-0.05-0.21-0.1-0.41-0.13-0.63
		c-0.01-0.04-0.01-0.08-0.02-0.12c-0.01-0.05-0.01-0.04,0.01,0.04c-0.01-0.03-0.01-0.06-0.01-0.09c-0.01-0.12-0.03-0.24-0.03-0.36
		c-0.03-0.49-0.02-0.97,0.02-1.46c0.06-0.74-1.01-0.96-1.35-0.37c-0.65,1.11-1.33,2.06-2.28,2.93c-0.45,0.42-0.69,0.61-1.19,0.92
		c-0.2,0.12-0.39,0.24-0.6,0.34c-0.09,0.05-0.18,0.09-0.27,0.13c-0.05,0.03-0.11,0.05-0.17,0.07c0.17-0.07-0.07,0.03-0.1,0.04
		c-0.41,0.16-0.83,0.28-1.26,0.35c-0.05,0.01-0.11,0.02-0.17,0.03c-0.19,0.03,0.16-0.01-0.03,0c-0.11,0.01-0.22,0.02-0.33,0.03
		c-0.22,0.02-0.43,0.02-0.65,0.01c-0.2-0.01-0.39-0.03-0.58-0.05c-0.18-0.02,0.16,0.03-0.02,0c-0.05-0.01-0.1-0.02-0.16-0.03
		c-0.1-0.02-0.21-0.04-0.31-0.06c-0.19-0.04-0.38-0.09-0.56-0.15c-0.1-0.03-0.2-0.07-0.3-0.1c-0.06-0.02-0.4-0.16-0.22-0.08
		c-0.37-0.17-0.73-0.35-1.07-0.57c-0.16-0.1-0.32-0.22-0.48-0.33c-0.03-0.02-0.17-0.13-0.02-0.02c-0.04-0.03-0.08-0.07-0.12-0.1
		c-0.08-0.07-0.16-0.13-0.24-0.21c-0.32-0.28-0.61-0.59-0.88-0.92c-0.03-0.04-0.2-0.26-0.08-0.1c-0.06-0.08-0.13-0.17-0.19-0.26
		c-0.12-0.17-0.24-0.35-0.35-0.53c-0.1-0.17-0.19-0.34-0.28-0.51c-0.05-0.09-0.09-0.19-0.14-0.29c-0.02-0.03-0.08-0.2-0.01-0.02
		c-0.02-0.06-0.05-0.11-0.07-0.17c-0.15-0.39-0.27-0.79-0.35-1.19c-0.02-0.1-0.04-0.21-0.06-0.31c-0.01-0.04-0.01-0.07-0.02-0.1
		c-0.03-0.18,0.01,0.17,0-0.02c-0.02-0.21-0.04-0.42-0.04-0.64c-0.01-0.21,0-0.43,0.02-0.64c0.01-0.09,0.02-0.18,0.03-0.27
		c0.01-0.04,0.04-0.22,0-0.02c0.01-0.07,0.02-0.14,0.04-0.22c0.09-0.48,0.23-0.95,0.41-1.4c-0.07,0.16,0.07-0.14,0.09-0.2
		c0.06-0.12,0.12-0.25,0.19-0.37c0.13-0.23,0.27-0.46,0.43-0.68c0.04-0.05,0.07-0.1,0.11-0.15c0.05-0.07,0.05-0.07,0-0.01
		c0.03-0.03,0.05-0.07,0.08-0.1c0.08-0.1,0.17-0.2,0.25-0.3c0.2-0.22,0.4-0.43,0.62-0.64c0.52-0.48,0.92-0.78,1.53-1.17
		c0.6-0.38,0.37-1.35-0.37-1.35c-0.32,0-0.64-0.01-0.96-0.03c-0.15-0.01-0.29-0.02-0.44-0.04c-0.08-0.01-0.15-0.02-0.23-0.03
		c-0.09-0.01,0.02,0,0.03,0.01c-0.04-0.01-0.09-0.01-0.13-0.02c-0.55-0.08-1.1-0.21-1.63-0.38c-0.12-0.04-0.24-0.08-0.35-0.12
		c-0.06-0.02-0.12-0.05-0.18-0.07s-0.19-0.08-0.06-0.02c-0.22-0.1-0.44-0.2-0.66-0.32c-0.21-0.11-0.42-0.24-0.62-0.38
		c-0.09-0.06-0.18-0.12-0.27-0.19c-0.07-0.05-0.1-0.08-0.01-0.01c-0.05-0.04-0.1-0.08-0.16-0.12c-0.33-0.28-0.64-0.58-0.92-0.92
		c-0.04-0.04-0.07-0.09-0.1-0.13c-0.03-0.03,0.08,0.12,0,0c-0.07-0.09-0.13-0.19-0.2-0.28c-0.11-0.17-0.22-0.35-0.32-0.53
		s-0.18-0.37-0.27-0.55c0.09,0.19-0.03-0.07-0.05-0.14c-0.04-0.1-0.07-0.2-0.1-0.3c-0.13-0.39-0.21-0.8-0.28-1.21
		c-0.02-0.13,0.02,0.15,0,0.02c-0.01-0.05-0.01-0.1-0.02-0.16c-0.01-0.1-0.02-0.21-0.03-0.31c-0.01-0.2-0.02-0.4-0.01-0.61
		c0.01-0.2,0.02-0.4,0.04-0.61c0.01-0.08,0.05-0.36,0.01-0.14c0.02-0.1,0.03-0.21,0.05-0.31c0.07-0.4,0.18-0.8,0.32-1.19
		c0.03-0.09,0.07-0.18,0.1-0.27c0.02-0.04,0.03-0.08,0.05-0.12c-0.08,0.2-0.01,0.02,0.02-0.03c0.08-0.18,0.17-0.36,0.27-0.54
		c0.1-0.18,0.21-0.36,0.33-0.54c0.05-0.08,0.11-0.16,0.17-0.24c0.03-0.04,0.05-0.07,0.08-0.11c0.06-0.08-0.09,0.11,0.03-0.03
		c0.26-0.32,0.54-0.61,0.85-0.88c0.07-0.07,0.15-0.13,0.23-0.19c0.14-0.11-0.09,0.06,0.02-0.01c0.04-0.03,0.09-0.06,0.13-0.09
		c0.18-0.12,0.36-0.24,0.55-0.35c0.18-0.11,0.37-0.2,0.57-0.29c0.04-0.02,0.09-0.04,0.13-0.06c-0.19,0.08-0.02,0.01,0.03-0.01
		c0.11-0.04,0.21-0.08,0.32-0.12c0.21-0.07,0.43-0.13,0.65-0.18c0.11-0.03,0.22-0.05,0.32-0.07c0.06-0.01,0.12-0.02,0.18-0.03
		c0.05-0.01,0.27-0.04,0.07-0.01c0.49-0.06,0.99-0.08,1.48-0.05c0.13,0.01,0.25,0.02,0.38,0.03c0.07,0.01,0.14,0.01,0.21,0.02
		c0.03,0,0.06,0.01,0.09,0.01c0.11,0.01-0.12-0.02-0.01,0c0.28,0.04,0.55,0.09,0.83,0.15c0.61,0.14,1.21,0.32,1.79,0.55
		c0.07,0.03,0.14,0.05,0.2,0.08c0.03,0.01,0.22,0.09,0.13,0.06c0.16,0.07,0.33,0.14,0.49,0.22c0.36,0.17,0.78,0.1,0.99-0.26
		C275.39,29.92,275.3,29.4,274.95,29.24z"/>
	<path class="st0" d="M284.2,43.59c-0.2-0.29-0.38-0.58-0.53-0.9c-0.03-0.07-0.06-0.13-0.09-0.2c-0.06-0.12-0.01-0.02,0,0.01
		c-0.02-0.04-0.03-0.07-0.04-0.11c-0.05-0.14-0.1-0.29-0.14-0.44c-0.04-0.13-0.07-0.27-0.09-0.4c-0.01-0.07-0.03-0.19-0.01-0.04
		c-0.01-0.08-0.02-0.16-0.02-0.23c-0.01-0.12-0.01-0.25-0.01-0.38c0-0.06,0.01-0.11,0.01-0.17c0.01-0.05,0.04-0.29,0-0.07
		c0.04-0.24,0.09-0.48,0.18-0.71c0.02-0.05,0.04-0.1,0.06-0.15c-0.06,0.15-0.02,0.04,0.02-0.04c0.05-0.11,0.11-0.22,0.18-0.32
		c0.06-0.09,0.12-0.18,0.18-0.27c0.11-0.16-0.05,0.05,0.03-0.04c0.04-0.05,0.08-0.09,0.12-0.14c0.17-0.19,0.35-0.35,0.54-0.51
		c0.09-0.08-0.13,0.09,0.02-0.02c0.05-0.03,0.09-0.06,0.13-0.09c0.1-0.07,0.21-0.14,0.32-0.2c0.1-0.06,0.21-0.11,0.31-0.17
		c0.05-0.03,0.1-0.05,0.15-0.07c0.18-0.09-0.09,0.03,0.07-0.03c0.23-0.08,0.46-0.16,0.7-0.22c0.12-0.03,0.23-0.05,0.35-0.07
		c0.1-0.02,0.16-0.02,0.02-0.01c0.07-0.01,0.14-0.02,0.21-0.02c0.25-0.02,0.49-0.02,0.74-0.01c0.06,0,0.11,0.01,0.17,0.02
		c0.03,0,0.06,0.01,0.09,0.01c0.1,0.01-0.15-0.03-0.05-0.01c0.12,0.02,0.25,0.04,0.38,0.07c0.12,0.03,0.23,0.06,0.35,0.1
		c0.05,0.02,0.11,0.04,0.16,0.06c0.03,0.01,0.06,0.02,0.09,0.04c0.09,0.03-0.16-0.08-0.02-0.01c0.22,0.11,0.44,0.22,0.64,0.36
		c0.03,0.02,0.21,0.15,0.13,0.09c-0.07-0.06,0.09,0.08,0.12,0.1c0.11,0.1,0.22,0.2,0.32,0.31c0.05,0.06,0.11,0.12,0.16,0.18
		c0.04,0.05,0.14,0.19,0.06,0.07c0.1,0.14,0.19,0.27,0.28,0.42c0.09,0.14,0.16,0.29,0.23,0.44c0.02,0.04,0.03,0.07,0.05,0.11
		c0.05,0.1-0.06-0.16,0.01,0.03c0.03,0.08,0.06,0.16,0.09,0.24c0.14,0.39,0.23,0.79,0.31,1.2c0.07,0.39,0.54,0.6,0.89,0.51
		c0.41-0.11,0.57-0.5,0.51-0.89c-0.12-0.74-0.17-1.74-0.07-2.6c0.01-0.05,0.01-0.11,0.02-0.16c0,0.03-0.02,0.14,0,0
		c0.02-0.09,0.03-0.19,0.05-0.28c0.04-0.19,0.08-0.37,0.12-0.56c0.05-0.17,0.1-0.33,0.15-0.49c0.03-0.08,0.06-0.16,0.09-0.23
		c0.02-0.04,0.07-0.16,0,0c0.02-0.05,0.04-0.1,0.07-0.15c0.13-0.28,0.28-0.55,0.46-0.81c0.05-0.07,0.1-0.13,0.14-0.2
		c-0.09,0.13-0.01,0.01,0.04-0.05c0.1-0.12,0.21-0.24,0.33-0.35c0.1-0.1,0.2-0.19,0.31-0.28c0.06-0.05,0.16-0.12,0.04-0.03
		c0.07-0.05,0.13-0.1,0.21-0.14c0.23-0.16,0.48-0.28,0.73-0.4c0.14-0.07-0.12,0.05-0.03,0.01c0.04-0.01,0.07-0.03,0.1-0.04
		c0.06-0.02,0.11-0.04,0.17-0.06c0.14-0.05,0.28-0.09,0.42-0.12c0.13-0.03,0.26-0.05,0.39-0.07c-0.15,0.03-0.07,0.01,0.03,0
		c0.08-0.01,0.16-0.01,0.24-0.02c0.27-0.01,0.54,0.01,0.81,0.03c-0.23-0.02-0.01,0,0.05,0.01c0.07,0.01,0.13,0.03,0.2,0.04
		c0.14,0.03,0.29,0.07,0.43,0.11c0.12,0.04,0.24,0.08,0.36,0.13c0.1,0.04-0.17-0.08-0.03-0.01c0.03,0.01,0.06,0.03,0.08,0.04
		c0.07,0.03,0.14,0.07,0.2,0.1c0.12,0.06,0.24,0.13,0.36,0.21c0.07,0.04,0.13,0.08,0.19,0.13c0.05,0.03,0.24,0.19,0.08,0.05
		c0.23,0.19,0.45,0.39,0.65,0.61c0.05,0.06,0.1,0.11,0.14,0.17c0.02,0.03,0.04,0.05,0.06,0.08c0.11,0.13-0.07-0.09-0.01-0.01
		c0.1,0.13,0.19,0.26,0.27,0.4c0.1,0.16,0.19,0.32,0.27,0.49c0.05,0.09,0.09,0.18,0.13,0.27c0.02,0.03,0.05,0.13-0.01-0.02
		c0.02,0.05,0.04,0.1,0.06,0.16c0.15,0.39,0.26,0.79,0.34,1.2c0.02,0.1,0.04,0.21,0.05,0.31c0.01,0.04,0.01,0.08,0.02,0.13
		c-0.02-0.16,0,0.03,0.01,0.07c0.03,0.25,0.04,0.5,0.05,0.75c0.02,0.52-0.01,1.04-0.07,1.56c-0.08,0.7,1.08,1.02,1.35,0.37
		c0.12-0.27,0.25-0.54,0.4-0.8c0.07-0.12,0.15-0.24,0.23-0.35c0.04-0.06,0.08-0.11,0.12-0.17c-0.08,0.1,0.03-0.04,0.05-0.06
		c0.17-0.2,0.34-0.38,0.54-0.54c0.05-0.04,0.09-0.08,0.14-0.12c-0.13,0.1,0.03-0.02,0.05-0.03c0.1-0.07,0.2-0.13,0.3-0.2
		c0.1-0.06,0.2-0.12,0.31-0.17c0.05-0.03,0.11-0.05,0.16-0.07c0.17-0.08-0.14,0.04,0.04-0.02c0.22-0.07,0.43-0.15,0.66-0.2
		c0.11-0.03,0.22-0.04,0.33-0.06c-0.2,0.03,0.14-0.01,0.2-0.01c0.22-0.01,0.45-0.01,0.67,0.01c0.06,0.01,0.11,0.01,0.17,0.02
		c0.19,0.02-0.16-0.03,0.03,0.01c0.11,0.02,0.22,0.04,0.33,0.06c0.22,0.05,0.43,0.11,0.64,0.19c0.05,0.02,0.1,0.04,0.16,0.06
		c-0.17-0.07,0,0,0.03,0.02c0.1,0.05,0.2,0.1,0.3,0.15c0.2,0.11,0.38,0.23,0.56,0.36c0.16,0.1-0.11-0.1,0.03,0.02
		c0.04,0.04,0.09,0.07,0.13,0.11c0.08,0.07,0.17,0.15,0.24,0.22c0.07,0.07,0.13,0.13,0.19,0.2c0.04,0.04,0.07,0.08,0.11,0.12
		c0.13,0.15-0.01-0.03,0.06,0.07c0.11,0.17,0.23,0.34,0.32,0.52c0.05,0.1,0.1,0.2,0.14,0.3c-0.07-0.17,0,0.01,0.01,0.04
		c0.02,0.07,0.05,0.14,0.07,0.22c0.04,0.13,0.07,0.26,0.1,0.39c0.01,0.04,0.02,0.08,0.02,0.11c0.01,0.04,0.01,0.08,0.02,0.12
		c-0.01-0.1-0.01-0.1-0.01-0.02c0.02,0.29,0.03,0.57,0,0.86c0,0.02-0.03,0.23-0.01,0.06c-0.01,0.07-0.02,0.13-0.03,0.2
		c-0.03,0.16-0.07,0.31-0.11,0.47c-0.1,0.36-0.19,0.58-0.33,0.86c-0.17,0.35-0.1,0.78,0.26,0.99c0.32,0.19,0.82,0.09,0.99-0.26
		c0.56-1.18,0.84-2.46,0.58-3.75c-0.21-1.05-0.8-2.03-1.6-2.73c-1.68-1.46-4.1-1.87-6.13-0.92c-1.05,0.49-1.88,1.36-2.43,2.37
		c-0.18,0.32,0.01,0.71,0.37,0.8l0,0c0.36,0.1,0.72-0.15,0.74-0.52c0.08-1.57-0.16-3.17-0.9-4.57c-0.67-1.26-1.75-2.25-3.07-2.79
		c-2.58-1.04-5.52,0.11-6.87,2.5c-0.89,1.58-1.05,3.41-0.88,5.19c0.04,0.43,0.46,0.7,0.88,0.58l0,0c0.35-0.1,0.58-0.45,0.49-0.81
		c-0.3-1.16-0.88-2.28-1.82-3.06c-0.96-0.79-2.15-1.21-3.39-1.19c-2.3,0.03-4.7,1.48-5.28,3.8c-0.38,1.55,0.12,3.12,1.01,4.4
		c0.22,0.32,0.64,0.47,0.99,0.26C284.26,44.39,284.42,43.91,284.2,43.59z"/>
</g>
<path class="st1" d="M6.49,141.45c-1.34,0.44-2.24,1.65-2.8,3.75c-0.29,1.08-0.4,4.16-0.2,5.83c0.49,4.28,2.19,9.03,4.45,12.46
	l0.87,1.33l-0.78,0.86c-3.05,3.38-4.88,7.27-5.45,11.58c-1.03,7.69,3.79,14.83,11.84,17.51c5.58,1.86,11.54,1.5,16.52-1.01
	c1.83-0.92,3.16-1.88,4.59-3.31c2.29-2.29,3.76-5.05,4.36-8.16c1.04-5.42-1.18-12.35-5.42-16.94l-0.61-0.66l0.79-1.21
	c1.87-2.85,3.32-6.48,4.06-10.17c0.41-2.03,0.51-3.2,0.45-5.32c-0.06-2.18-0.24-3.09-0.87-4.39c-0.47-0.99-1.01-1.58-1.74-1.95
	c-0.51-0.25-0.75-0.3-1.47-0.3c-0.79,0-0.93,0.04-1.76,0.45c-0.49,0.24-1.21,0.71-1.6,1.04c-3.25,2.71-6.31,9.18-7.07,14.95
	c-0.27,2.05-0.22,1.9-0.62,1.83c-0.18-0.04-0.97-0.1-1.72-0.14c-1.25-0.06-2.31,0.01-3.7,0.24c-0.45,0.08-0.37,0.33-0.68-1.98
	c-0.66-4.83-2.97-10.34-5.7-13.53c-1.44-1.69-3.15-2.77-4.52-2.86C7.21,141.32,6.79,141.35,6.49,141.45z M8.76,142.83
	c2.82,1.37,5.71,5.96,7.3,11.59c0.46,1.65,0.84,3.74,0.88,4.89l0.03,0.78l-0.59,0.19c-0.32,0.11-0.67,0.22-0.77,0.27
	c-0.16,0.07-0.18,0-0.18-0.72c0-3.16-1.84-7.55-3.82-9.12c-1.98-1.57-3.71-0.67-4.08,2.12c-0.38,2.86,1.01,7.32,2.99,9.59l0.48,0.55
	l-0.37,0.31c-0.2,0.17-0.49,0.41-0.66,0.52l-0.29,0.2l-0.49-0.69c-3.5-4.93-5.57-13.35-4.36-17.93
	C5.49,142.81,6.87,141.91,8.76,142.83z M35.91,142.61c1.55,0.65,2.42,3.68,2.11,7.36c-0.3,3.57-1.39,7.41-3.05,10.68
	c-0.63,1.24-1.84,3.16-1.99,3.16c-0.05,0-0.34-0.2-0.65-0.45c-0.3-0.25-0.57-0.46-0.59-0.47c-0.02-0.01,0.15-0.25,0.4-0.53
	c1.95-2.31,3.29-6.69,2.91-9.49c-0.38-2.8-2.09-3.7-4.08-2.13c-1.96,1.54-3.82,5.94-3.82,9c0,0.61-0.02,0.69-0.18,0.62
	c-0.11-0.04-0.46-0.15-0.81-0.24l-0.63-0.17l0.07-0.7c0.13-1.31,0.5-3.33,0.86-4.65c1.5-5.49,4.91-10.9,7.49-11.9
	C34.53,142.45,35.43,142.42,35.91,142.61z M10.49,151.32c0.96,0.58,2.09,2.22,2.8,4.02c0.65,1.65,0.86,2.66,0.93,4.31l0.06,1.44
	l-0.52,0.25c-0.28,0.14-0.8,0.43-1.15,0.63l-0.63,0.39l-0.52-0.56c-1.03-1.12-2.03-3.23-2.55-5.34c-0.29-1.21-0.36-3.61-0.12-4.3
	C9.14,151.18,9.76,150.88,10.49,151.32z M33.35,151.43c0.45,0.54,0.55,1.01,0.54,2.56c0,1.19-0.06,1.64-0.29,2.57
	c-0.5,2.02-1.33,3.8-2.32,4.99l-0.52,0.63l-0.78-0.45c-0.43-0.24-0.99-0.53-1.23-0.65l-0.45-0.2v-1.01c0-1.69,0.5-3.7,1.35-5.42
	c0.46-0.93,1.4-2.36,1.8-2.74C32.21,151.04,32.93,150.93,33.35,151.43z M24.74,160.91c7.23,1.62,12.88,8.16,14.08,16.28
	c0.21,1.42,0.15,3.84-0.11,5.08c-1.08,5.04-4.66,9.1-9.76,11.11c-5.97,2.35-13.31,1.64-18.46-1.8c-3.58-2.39-5.81-5.57-6.66-9.56
	c-0.29-1.35-0.26-4.35,0.06-5.84c1.68-7.85,7.77-14.02,15.11-15.36C20.53,160.55,23.3,160.59,24.74,160.91z M13.55,172.41
	c-0.85,0.21-1.24,0.41-1.64,0.83c-0.62,0.67-0.83,1.57-0.46,1.91c0.41,0.37,0.98,0.08,0.98-0.5c0-0.67,1.03-1.23,1.98-1.08
	c0.59,0.09,1.22,0.62,1.22,1.04c0,0.61,0.62,0.94,1.02,0.55c0.26-0.26,0.14-1.14-0.25-1.68C15.9,172.75,14.41,172.21,13.55,172.41z
	 M27.84,172.44c-0.5,0.14-1.14,0.5-1.46,0.83c-0.56,0.59-0.79,1.56-0.45,1.9c0.39,0.39,1.01,0.04,1.01-0.56
	c0-0.42,0.62-0.95,1.22-1.04c0.97-0.15,1.98,0.42,1.98,1.1c0,0.57,0.63,0.87,1,0.47c0.52-0.58-0.24-2-1.33-2.47
	C29.19,172.41,28.33,172.32,27.84,172.44z M20.64,179.4c-2.51,0.23-3.34,1.39-2.39,3.34c0.44,0.9,1.02,1.49,1.82,1.9l0.7,0.35
	l-0.05,1.18c-0.03,0.85-0.1,1.29-0.24,1.55c-1.04,2.02-3.96,1.61-4.31-0.61c-0.11-0.65-0.26-0.88-0.61-0.88
	c-0.45,0-0.61,0.29-0.55,0.93c0.13,1.21,1.02,2.37,2.16,2.8c0.51,0.19,0.78,0.23,1.43,0.19c0.94-0.06,1.54-0.32,2.21-0.97l0.45-0.44
	l0.45,0.44c0.68,0.65,1.27,0.91,2.21,0.97c0.65,0.04,0.92,0,1.43-0.19c1.14-0.44,2.03-1.59,2.16-2.8c0.07-0.64-0.11-0.93-0.55-0.93
	c-0.34,0-0.5,0.23-0.61,0.88c-0.23,1.5-1.92,2.38-3.25,1.69c-0.94-0.48-1.24-1.08-1.3-2.64l-0.05-1.19l0.63-0.29
	c1.61-0.74,2.77-3.09,2.07-4.2C23.97,179.66,22.45,179.24,20.64,179.4z M22.91,180.74c0.28,0.1,0.56,0.27,0.62,0.39
	c0.25,0.47-0.64,2.04-1.39,2.46c-0.28,0.15-0.52,0.19-0.99,0.16c-0.77-0.05-1.26-0.42-1.74-1.32c-0.49-0.92-0.51-1.05-0.23-1.37
	C19.66,180.48,21.69,180.31,22.91,180.74z"/>
<path class="st2" d="M111.63,231.15L111.63,231.15c1.42-1.47,3.35-2.61,5.32-3.02c1.95-0.41,3.88-0.1,5.46,1.23
	c1.74,1.48,2.69,3.69,3.05,6.2c0.37,2.5,0.15,5.18-0.34,7.43c-1.18,5.46-4.11,10.47-7.24,15.29l-0.03,0.04l-0.02,0.05l-1.28,2.5
	c-0.36,0.39-1.14,1.16-1.95,1.75c-0.45,0.33-0.85,0.55-1.15,0.66c-0.14,0.05-0.22,0.06-0.26,0.06c-1.5-1.12-3.02-2.21-4.53-3.3
	c-3.71-2.68-7.39-5.34-10.79-8.3h0c-3.65-3.18-6.95-7.37-6.27-11.94l0,0c0.27-1.85,1.55-3.65,3.35-4.92
	c1.8-1.28,3.98-1.93,5.88-1.66l0,0c2.78,0.39,4.61,2.3,6.52,4.71l1.55,1.97l0.29-2.49C109.47,234.88,110.13,232.7,111.63,231.15z
	 M113.16,263.32C113.16,263.32,113.16,263.32,113.16,263.32C113.16,263.33,113.16,263.32,113.16,263.32z"/>
<path class="st2" d="M65.23,88.48L65.23,88.48c-1.3-1.34-3.07-2.39-4.87-2.77c-1.78-0.37-3.55-0.1-5,1.13
	c-1.6,1.35-2.46,3.38-2.79,5.67c-0.34,2.29-0.13,4.74,0.31,6.8c1.08,5,3.76,9.58,6.63,13.99l0.03,0.04l0.02,0.04l1.17,2.29
	c0.33,0.36,1.04,1.06,1.79,1.61c0.41,0.3,0.77,0.51,1.06,0.6c0.13,0.04,0.2,0.05,0.24,0.05c1.38-1.02,2.76-2.02,4.14-3.02
	c3.4-2.45,6.77-4.88,9.88-7.6h0c3.34-2.91,6.36-6.74,5.74-10.93l0,0c-0.25-1.69-1.42-3.34-3.07-4.5c-1.65-1.17-3.64-1.76-5.38-1.52
	l0,0c-2.55,0.36-4.22,2.1-5.96,4.31l-1.42,1.8l-0.26-2.28C67.21,91.9,66.6,89.9,65.23,88.48z M63.83,117.93
	C63.83,117.93,63.82,117.93,63.83,117.93C63.82,117.93,63.83,117.93,63.83,117.93z"/>
<path class="st3" d="M314.15,193.94L314.15,193.94c1.03-1.06,2.43-1.89,3.86-2.19c1.41-0.3,2.81-0.08,3.96,0.89
	c1.27,1.07,1.95,2.68,2.22,4.49c0.27,1.81,0.11,3.76-0.24,5.39c-0.86,3.96-2.98,7.6-5.25,11.09l-0.02,0.03l-0.02,0.03l-0.93,1.81
	c-0.26,0.28-0.82,0.84-1.42,1.27c-0.32,0.24-0.61,0.4-0.84,0.48c-0.1,0.04-0.16,0.04-0.19,0.04c-1.09-0.81-2.19-1.61-3.28-2.4
	c-2.69-1.94-5.36-3.87-7.83-6.02h0c-2.65-2.31-5.04-5.35-4.55-8.66l0,0c0.2-1.34,1.12-2.64,2.43-3.57c1.31-0.93,2.89-1.4,4.27-1.2
	l0,0c2.02,0.28,3.35,1.67,4.73,3.41l1.13,1.43l0.21-1.81C312.58,196.65,313.06,195.07,314.15,193.94z M315.26,217.28
	C315.26,217.28,315.26,217.28,315.26,217.28C315.26,217.28,315.26,217.28,315.26,217.28z"/>
<path class="st2" d="M263.55,225.46L263.55,225.46c-1.42-1.47-3.35-2.61-5.32-3.02c-1.95-0.41-3.88-0.1-5.46,1.23
	c-1.74,1.48-2.69,3.69-3.05,6.2c-0.37,2.5-0.15,5.18,0.34,7.43c1.18,5.46,4.11,10.47,7.24,15.29l0.03,0.04l0.02,0.05l1.28,2.5
	c0.36,0.39,1.14,1.16,1.95,1.75c0.45,0.33,0.85,0.55,1.15,0.66c0.14,0.05,0.22,0.06,0.26,0.06c1.5-1.12,3.02-2.21,4.53-3.3
	c3.71-2.68,7.39-5.34,10.79-8.3h0c3.65-3.18,6.95-7.37,6.27-11.94l0,0c-0.27-1.85-1.55-3.65-3.35-4.92
	c-1.8-1.28-3.98-1.93-5.88-1.66l0,0c-2.78,0.39-4.61,2.3-6.52,4.71l-1.55,1.97l-0.29-2.49
	C265.71,229.19,265.05,227.01,263.55,225.46z M262.02,257.63C262.02,257.63,262.02,257.63,262.02,257.63
	C262.02,257.63,262.02,257.63,262.02,257.63z"/>
<g>
	<path class="st0" d="M188.91,320.88c-2.09-0.98-4.45-1.55-6.74-1.02c-1.76,0.4-3.28,1.5-4.29,2.99c-0.93,1.39-1.39,3.12-1.28,4.77
		c0.11,1.77,0.82,3.46,2.06,4.72c1.53,1.53,3.64,2.22,5.75,2.38c0.09,0.01,0.19,0.01,0.28,0.02c0.33,0.02,0.56-0.29,0.47-0.6l0,0
		c-0.08-0.32-0.46-0.46-0.73-0.27c-1.58,1.13-2.88,2.64-3.41,4.54c-0.47,1.73-0.23,3.57,0.56,5.17c1.55,3.15,5.22,5.17,8.7,4.19
		c2.29-0.65,4.05-2.4,5.3-4.36c0.19-0.29,0.03-0.67-0.3-0.75l0,0c-0.32-0.08-0.63,0.13-0.63,0.46c-0.03,1.39,0.27,2.78,1,3.96
		c0.74,1.19,1.87,2.06,3.17,2.56c2.46,0.95,5.49,0.39,7.34-1.51c1.07-1.09,1.64-2.52,1.79-4.02c0.04-0.35-0.25-0.65-0.61-0.65l0,0
		c-0.37,0-0.67,0.33-0.61,0.7c0.23,1.4,0.75,2.73,1.72,3.79c0.89,0.99,2.14,1.66,3.44,1.89c2.72,0.48,5.6-0.67,7.11-3.01
		c0.86-1.34,1.12-2.9,1-4.46c-0.03-0.35-0.39-0.56-0.72-0.42l0,0c-0.31,0.13-0.43,0.51-0.23,0.78c1.95,2.73,5.21,5.08,8.7,4.33
		c0.99-0.21,1.9-0.68,2.69-1.29c0.66-0.51,1.28-1.05,1.76-1.75c0.85-1.26,1.22-2.87,1.13-4.38c-0.1-1.58-0.71-3.09-1.89-4.13
		c-0.21-0.19-0.54-0.05-0.58,0.24l0,0c-0.04,0.28,0.23,0.5,0.5,0.4c1.44-0.59,2.71-1.53,3.57-2.86c0.83-1.27,1.23-2.83,1.15-4.34
		c-0.14-3.1-2.15-6.02-5.25-6.78c-1.97-0.48-4-0.07-5.83,0.73c-0.27,0.12-0.31,0.47-0.07,0.65l0,0c0.22,0.18,0.56,0.06,0.61-0.22
		c0.33-1.75,0.37-3.59-0.18-5.29c-0.49-1.52-1.41-2.85-2.73-3.77c-2.5-1.77-5.96-1.55-8.43,0.16c-1.53,1.07-2.65,2.58-3.39,4.27
		c-0.15,0.34,0.07,0.73,0.45,0.77l0,0c0.33,0.05,0.63-0.2,0.63-0.53c0.01-2.3-1-4.65-3.17-5.69c-2-0.97-4.46-0.58-5.89,1.2
		c-0.86,1.08-1.25,2.41-1.35,3.77c-0.03,0.36,0.3,0.65,0.66,0.6l0,0c0.34-0.05,0.59-0.38,0.49-0.72c-0.45-1.69-1.27-3.32-2.59-4.48
		c-1.25-1.1-2.81-1.72-4.46-1.82c-3.03-0.2-6.32,1.44-7.63,4.27c-0.82,1.79-0.77,3.79-0.05,5.61c0.13,0.33,0.46,0.58,0.83,0.47
		c0.33-0.08,0.6-0.49,0.47-0.83c-0.17-0.41-0.3-0.83-0.39-1.26c-0.02-0.08-0.04-0.18-0.06-0.26c-0.01-0.06-0.02-0.1-0.03-0.16
		c-0.04-0.18,0.02,0.15-0.01-0.03c-0.02-0.19-0.04-0.37-0.05-0.57c-0.01-0.19-0.01-0.36,0.01-0.55c0.01-0.08,0.01-0.17,0.02-0.24
		c0.01-0.05,0.01-0.09,0.02-0.15c-0.02,0.2,0-0.02,0.01-0.06c0.06-0.33,0.14-0.67,0.26-1c0.03-0.07,0.06-0.15,0.08-0.21
		c0.06-0.15-0.07,0.14,0-0.01c0.02-0.04,0.04-0.08,0.06-0.12c0.07-0.16,0.16-0.32,0.24-0.47c0.08-0.14,0.17-0.27,0.25-0.4
		c0.06-0.07,0.1-0.15,0.16-0.22c-0.11,0.15,0.06-0.07,0.09-0.11c0.21-0.25,0.45-0.49,0.71-0.72c0.07-0.07,0.14-0.12,0.21-0.18
		c0.03-0.02,0.05-0.04,0.07-0.06c0.12-0.1-0.12,0.08,0.01-0.01c0.15-0.1,0.3-0.21,0.46-0.32c0.29-0.19,0.59-0.34,0.89-0.48
		c0.05-0.02,0.08-0.04,0.13-0.06c0.14-0.07-0.1,0.05-0.01,0.01c0.07-0.04,0.16-0.07,0.24-0.09c0.18-0.07,0.35-0.12,0.53-0.18
		c0.33-0.09,0.66-0.18,1-0.22c0.05-0.01,0.09-0.02,0.14-0.02c-0.18,0.03-0.07,0.01-0.04,0.01c0.09-0.01,0.19-0.02,0.28-0.03
		c0.18-0.02,0.34-0.02,0.51-0.03c0.18,0,0.34,0,0.51,0.01c0.08,0.01,0.18,0.01,0.26,0.02c0.06,0.01,0.37,0.05,0.17,0.02
		c0.34,0.06,0.68,0.12,1.01,0.22c0.17,0.05,0.33,0.11,0.49,0.18c0.05,0.02,0.09,0.04,0.13,0.06c-0.15-0.07-0.07-0.03-0.03-0.01
		c0.1,0.05,0.2,0.09,0.31,0.15c0.33,0.17,0.62,0.35,0.92,0.57c0.03,0.02,0.16,0.12,0.03,0.02c0.04,0.03,0.07,0.07,0.12,0.09
		c0.09,0.07,0.19,0.16,0.27,0.23c0.16,0.14,0.3,0.29,0.44,0.45c0.07,0.08,0.16,0.18,0.22,0.26c0.03,0.04,0.06,0.07,0.08,0.1
		c-0.1-0.13,0.05,0.06,0.06,0.08c0.13,0.19,0.26,0.37,0.37,0.57c0.13,0.22,0.25,0.45,0.36,0.67c0.13,0.28,0.15,0.31,0.25,0.59
		c0.2,0.55,0.36,1.13,0.48,1.7c0.16,0.75,1.32,0.57,1.33-0.18c0-0.36,0.02-0.72,0.07-1.07c0.02-0.14,0.01-0.05,0-0.02
		c0.01-0.05,0.02-0.08,0.02-0.13c0.01-0.07,0.03-0.15,0.04-0.22c0.03-0.16,0.07-0.31,0.1-0.46c0.04-0.15,0.08-0.29,0.13-0.43
		c0.02-0.07,0.05-0.12,0.07-0.19c0.02-0.04,0.03-0.07,0.05-0.1c-0.02,0.06-0.04,0.07,0,0.01c0.12-0.25,0.24-0.49,0.39-0.73
		c0.04-0.05,0.07-0.09,0.1-0.15l0,0c0.01-0.01,0.03-0.04,0.03-0.04l0,0c0.08-0.1,0.17-0.2,0.25-0.29c0.07-0.08,0.16-0.16,0.24-0.23
		c0.04-0.04,0.08-0.07,0.12-0.1c0.08-0.07-0.01,0.01-0.03,0.02c0.03-0.03,0.07-0.05,0.09-0.07c0.19-0.13,0.37-0.24,0.58-0.34
		c0.05-0.02,0.09-0.05,0.14-0.07c-0.18,0.08,0,0,0.05-0.02c0.1-0.04,0.2-0.07,0.32-0.1c0.1-0.03,0.21-0.06,0.32-0.07
		c0.05-0.01,0.1-0.02,0.15-0.03c0.07-0.02-0.07,0.01-0.07,0.01c0.04,0,0.07-0.01,0.11-0.01c0.22-0.02,0.44-0.03,0.66-0.01
		c0.06,0.01,0.11,0.01,0.18,0.02c0.16,0.01-0.1-0.02,0.02,0c0.11,0.02,0.23,0.04,0.34,0.07c0.22,0.06,0.43,0.12,0.64,0.2
		c0.11,0.04-0.12-0.07,0.03,0.01c0.05,0.03,0.09,0.05,0.15,0.07c0.11,0.06,0.21,0.11,0.33,0.18c0.09,0.06,0.19,0.11,0.27,0.18
		c0.06,0.04,0.1,0.07,0.15,0.11c-0.12-0.08,0,0,0.05,0.04c0.19,0.16,0.35,0.33,0.51,0.5c0.04,0.05,0.07,0.08,0.11,0.13
		s0.11,0.15,0.04,0.04c0.07,0.11,0.16,0.21,0.23,0.33s0.15,0.25,0.21,0.38c0.04,0.07,0.07,0.12,0.09,0.19
		c0.02,0.04,0.1,0.25,0.05,0.11c0.11,0.3,0.21,0.6,0.29,0.91c0.04,0.16,0.07,0.31,0.08,0.47c0.02,0.13,0,0.03,0,0
		c0.01,0.06,0.01,0.1,0.02,0.16c0.01,0.08,0.02,0.17,0.02,0.25c0.03,0.39,0.02,0.77-0.02,1.16c-0.03,0.33,0.28,0.62,0.59,0.66
		c0.35,0.05,0.62-0.16,0.74-0.48c0.28-0.73,0.71-1.58,1.22-2.31c0.06-0.08,0.12-0.17,0.19-0.25c-0.07,0.1,0.07-0.09,0.1-0.12
		c0.13-0.16,0.27-0.32,0.41-0.47c0.26-0.28,0.54-0.53,0.84-0.77c0.02-0.02,0.17-0.13,0.04-0.03c0.03-0.02,0.06-0.05,0.08-0.07
		c0.07-0.06,0.15-0.1,0.22-0.16c0.16-0.1,0.32-0.2,0.47-0.3c0.15-0.08,0.29-0.17,0.44-0.23c0.07-0.04,0.16-0.07,0.23-0.11
		c0.04-0.02,0.07-0.04,0.12-0.06c0.05-0.02,0.03-0.02-0.05,0.02c0.03-0.01,0.07-0.03,0.09-0.04c0.32-0.12,0.63-0.22,0.97-0.31
		c0.16-0.04,0.31-0.07,0.47-0.09c0.04-0.01,0.08-0.01,0.12-0.02c0.16-0.03-0.11,0.01-0.01,0c0.09-0.01,0.18-0.02,0.27-0.03
		c0.33-0.03,0.64-0.03,0.97-0.01c0.08,0.01,0.16,0.01,0.24,0.02c0.05,0.01,0.31,0.05,0.1,0.01c0.17,0.03,0.33,0.06,0.49,0.09
		c0.32,0.07,0.63,0.17,0.93,0.29c0.03,0.01,0.06,0.03,0.08,0.04c0.16,0.06-0.13-0.07,0.02,0.01c0.07,0.03,0.13,0.06,0.2,0.09
		c0.15,0.07,0.3,0.15,0.44,0.23c0.14,0.08,0.27,0.17,0.4,0.26c0.06,0.04,0.11,0.08,0.18,0.13c0.08,0.07-0.12-0.1,0,0
		c0.04,0.03,0.07,0.07,0.11,0.09c0.26,0.21,0.49,0.46,0.72,0.71c0.05,0.06,0.09,0.11,0.15,0.18c0.11,0.13-0.08-0.11,0.02,0.02
		c0.02,0.03,0.04,0.06,0.06,0.08c0.11,0.15,0.21,0.31,0.31,0.47c0.08,0.13,0.16,0.27,0.23,0.41c0.04,0.07,0.07,0.16,0.11,0.24
		c0.03,0.05,0.05,0.1,0.07,0.15c-0.05-0.1-0.01-0.02,0.02,0.04c0.16,0.4,0.28,0.8,0.37,1.22c0.03,0.1,0.05,0.21,0.07,0.33
		c0.01,0.06,0.02,0.12,0.03,0.18c0.01,0.03,0.03,0.21,0.01,0.07c0.03,0.23,0.05,0.47,0.07,0.69c0.03,0.52,0.01,1.04-0.04,1.56
		c-0.05,0.52-0.14,1.03-0.27,1.61c-0.14,0.6,0.47,1.02,1,0.76c0.83-0.41,1.75-0.74,2.73-0.92c0.1-0.02,0.2-0.04,0.31-0.05
		c-0.15,0.02,0.14-0.02,0.18-0.02c0.21-0.02,0.43-0.04,0.63-0.04c0.19,0,0.37,0,0.56,0.01c0.09,0.01,0.18,0.02,0.27,0.02
		c0.06,0.01,0.1,0.01,0.16,0.02c-0.18-0.02-0.01,0,0.03,0.01c0.37,0.07,0.73,0.15,1.09,0.28c0.07,0.03,0.16,0.06,0.23,0.08
		c0.04,0.01,0.12,0.06-0.03-0.01c0.05,0.02,0.09,0.04,0.13,0.06c0.16,0.07,0.32,0.16,0.47,0.24c0.14,0.08,0.27,0.17,0.4,0.25
		c0.07,0.05,0.13,0.09,0.2,0.14c0.13,0.09-0.11-0.09,0.01,0.01c0.04,0.03,0.07,0.06,0.11,0.09c0.25,0.21,0.48,0.45,0.7,0.69
		c0.06,0.07,0.11,0.13,0.17,0.2c0.03,0.04,0.09,0.12-0.01-0.01c0.03,0.03,0.05,0.07,0.07,0.09c0.1,0.15,0.2,0.3,0.3,0.45
		c0.17,0.28,0.32,0.58,0.45,0.87c-0.07-0.18,0.02,0.06,0.04,0.1c0.03,0.07,0.06,0.15,0.08,0.22c0.06,0.17,0.1,0.33,0.15,0.49
		c0.04,0.15,0.07,0.31,0.1,0.46c0.02,0.07,0.03,0.16,0.05,0.23c0.01,0.05,0.02,0.09,0.02,0.14c-0.03-0.19-0.01-0.04,0,0.01
		c0.04,0.33,0.06,0.67,0.05,1.01c-0.01,0.17-0.02,0.33-0.03,0.49c-0.01,0.05-0.04,0.31-0.01,0.1c-0.02,0.09-0.03,0.19-0.05,0.28
		c-0.06,0.33-0.15,0.65-0.25,0.97c-0.03,0.07-0.06,0.15-0.08,0.22c-0.02,0.05-0.12,0.28-0.04,0.1c-0.07,0.16-0.15,0.33-0.23,0.47
		c-0.09,0.18-0.2,0.34-0.3,0.5c-0.06,0.08-0.11,0.17-0.17,0.24c-0.02,0.03-0.12,0.16-0.02,0.02c-0.03,0.04-0.07,0.07-0.09,0.12
		c-0.26,0.32-0.55,0.61-0.86,0.87c-0.04,0.03-0.07,0.06-0.1,0.08c-0.13,0.11,0.06-0.04-0.06,0.04c-0.08,0.07-0.18,0.13-0.26,0.19
		c-0.19,0.12-0.37,0.24-0.57,0.34c-0.2,0.11-0.41,0.21-0.62,0.31c0.03-0.01,0.12-0.05-0.01,0c-0.07,0.03-0.13,0.06-0.2,0.07
		c-0.12,0.05-0.25,0.09-0.38,0.13c-0.57,0.19-0.65,0.9-0.16,1.24c0.21,0.14,0.44,0.33,0.66,0.59c0.06,0.06,0.1,0.12,0.15,0.18
		c-0.06-0.07,0.06,0.08,0.07,0.1c0.09,0.14,0.19,0.29,0.26,0.43c0.17,0.31,0.21,0.43,0.33,0.78c0.05,0.16,0.09,0.31,0.12,0.47
		c0.03,0.13,0.07,0.39,0.08,0.47c0.16,1.22-0.07,2.56-0.66,3.63c-0.07,0.14-0.16,0.27-0.24,0.4c-0.05,0.07-0.08,0.13-0.13,0.19
		c-0.05,0.07-0.01,0.01,0.01-0.01c-0.04,0.05-0.07,0.08-0.1,0.12c-0.1,0.11-0.2,0.22-0.32,0.33c-0.06,0.06-0.11,0.1-0.17,0.15
		c-0.03,0.02-0.05,0.04-0.07,0.07c-0.03,0.03-0.04,0.03-0.01,0.01c0.07-0.05,0.03-0.02-0.12,0.09c-0.67,0.56-1.35,1.06-2.19,1.33
		c-1.45,0.47-2.95,0.2-4.29-0.51c-1.55-0.83-2.85-2.13-3.79-3.59c-0.18-0.28-0.53-0.41-0.85-0.28c-0.33,0.15-0.45,0.46-0.39,0.8
		c0.03,0.21-0.01-0.07,0.01,0.05c0.01,0.05,0.01,0.08,0.02,0.13c0.01,0.09,0.02,0.2,0.03,0.29c0.02,0.2,0.02,0.39,0.02,0.6
		c0,0.17-0.01,0.33-0.02,0.51c-0.01,0.09-0.02,0.2-0.03,0.29c0,0.03-0.02,0.13,0-0.01c-0.01,0.06-0.02,0.11-0.03,0.17
		c-0.06,0.33-0.13,0.64-0.23,0.95c-0.03,0.07-0.06,0.15-0.08,0.22c-0.02,0.04-0.11,0.26-0.04,0.1c-0.07,0.15-0.14,0.3-0.21,0.44
		c-0.07,0.12-0.14,0.25-0.21,0.37c-0.05,0.07-0.09,0.14-0.14,0.2c-0.03,0.04-0.18,0.24-0.07,0.1c-0.19,0.23-0.38,0.45-0.6,0.65
		c-0.1,0.1-0.21,0.2-0.33,0.29c-0.15,0.12,0.06-0.04-0.07,0.06c-0.07,0.05-0.13,0.09-0.2,0.14c-0.24,0.17-0.5,0.32-0.76,0.45
		c-0.06,0.03-0.11,0.06-0.18,0.08c-0.04,0.02-0.07,0.04-0.11,0.05c-0.08,0.04,0.11-0.05,0.03-0.01c-0.14,0.06-0.28,0.11-0.43,0.16
		c-0.28,0.09-0.57,0.17-0.86,0.21c-0.07,0.01-0.14,0.03-0.21,0.04c-0.1,0.02,0.12-0.01-0.06,0.01c-0.16,0.02-0.32,0.03-0.47,0.04
		c-0.29,0.01-0.57,0-0.86-0.03c-0.04,0-0.25-0.03-0.15-0.02c0.1,0.02-0.11-0.02-0.15-0.03c-0.15-0.03-0.3-0.06-0.44-0.09
		c-0.13-0.04-0.26-0.07-0.38-0.11c-0.07-0.02-0.13-0.05-0.2-0.07c-0.04-0.02-0.07-0.03-0.11-0.05c-0.13-0.05,0.12,0.06-0.02-0.01
		c-0.26-0.12-0.51-0.25-0.75-0.4c-0.12-0.07-0.24-0.16-0.35-0.25c0.12,0.08-0.01-0.01-0.06-0.05c-0.07-0.06-0.14-0.11-0.2-0.18
		c-0.13-0.12-0.25-0.24-0.36-0.37c-0.06-0.07-0.11-0.13-0.17-0.2c-0.02-0.03-0.05-0.06-0.07-0.08c0.1,0.13-0.01-0.01-0.02-0.03
		c-0.21-0.3-0.4-0.61-0.56-0.95c-0.02-0.05-0.04-0.08-0.06-0.13c-0.06-0.11,0.02,0.06-0.01-0.02c-0.04-0.09-0.07-0.2-0.11-0.3
		c-0.07-0.19-0.12-0.38-0.18-0.58c-0.06-0.2-0.1-0.41-0.14-0.61c-0.06-0.3-0.06-0.31-0.08-0.61c-0.04-0.36-0.29-0.67-0.67-0.67
		c-0.37,0-0.67,0.31-0.67,0.67c-0.01,0.19-0.02,0.37-0.03,0.55c-0.01,0.04-0.01,0.08-0.01,0.12c0,0-0.03,0.2-0.01,0.08l0,0
		c0.01-0.1-0.02,0.13-0.04,0.23c0,0.01,0,0.02,0,0.02c-0.07,0.33-0.15,0.65-0.25,0.96c-0.03,0.08-0.07,0.17-0.09,0.25
		c-0.01,0.03-0.06,0.11,0.01-0.02c-0.02,0.03-0.03,0.07-0.05,0.09c-0.07,0.16-0.15,0.31-0.23,0.46c-0.07,0.13-0.16,0.25-0.24,0.38
		c-0.04,0.06-0.07,0.1-0.11,0.16c-0.07,0.1,0.01-0.01,0.02-0.02c-0.03,0.04-0.07,0.07-0.09,0.11c-0.2,0.23-0.41,0.46-0.64,0.65
		c-0.05,0.04-0.09,0.08-0.15,0.12c-0.12,0.1,0.08-0.07,0.01-0.01c-0.03,0.03-0.07,0.05-0.09,0.07c-0.11,0.08-0.23,0.16-0.35,0.23
		c-0.12,0.07-0.24,0.15-0.37,0.2c-0.07,0.04-0.14,0.07-0.21,0.1c-0.05,0.02-0.27,0.11-0.09,0.05c-0.27,0.11-0.54,0.2-0.82,0.27
		c-0.13,0.04-0.26,0.07-0.39,0.08c-0.07,0.02-0.16,0.03-0.23,0.04c-0.19,0.03,0.09-0.01-0.1,0.02c-0.29,0.03-0.58,0.05-0.87,0.04
		c-0.13,0-0.27-0.01-0.4-0.02c-0.07-0.01-0.16-0.02-0.23-0.03c-0.04,0-0.13-0.02,0.04,0.01c-0.05-0.01-0.09-0.02-0.14-0.02
		c-0.29-0.05-0.57-0.11-0.85-0.2c-0.13-0.04-0.25-0.08-0.38-0.13c-0.04-0.02-0.28-0.11-0.1-0.04c-0.07-0.03-0.15-0.07-0.21-0.09
		c-0.26-0.12-0.51-0.27-0.75-0.43c-0.06-0.04-0.11-0.08-0.18-0.12c-0.16-0.11,0.06,0.05-0.07-0.06c-0.11-0.09-0.23-0.2-0.34-0.3
		c-0.1-0.1-0.2-0.2-0.3-0.31c-0.05-0.05-0.08-0.09-0.13-0.15c-0.03-0.03-0.06-0.07-0.07-0.09c-0.04-0.05,0.07,0.1-0.02-0.02
		c-0.2-0.28-0.38-0.57-0.53-0.88c-0.02-0.04-0.04-0.07-0.06-0.11c-0.01-0.02-0.07-0.18-0.04-0.08c0.04,0.1-0.03-0.07-0.03-0.07
		c-0.02-0.05-0.04-0.1-0.06-0.15c-0.07-0.17-0.11-0.34-0.16-0.52c-0.05-0.2-0.09-0.38-0.12-0.59c-0.01-0.04-0.01-0.07-0.02-0.11
		c-0.01-0.05-0.01-0.04,0.01,0.04c-0.01-0.03-0.01-0.06-0.01-0.08c-0.01-0.11-0.03-0.22-0.03-0.33c-0.03-0.46-0.02-0.9,0.02-1.36
		c0.06-0.69-0.94-0.89-1.26-0.34c-0.6,1.03-1.24,1.92-2.12,2.73c-0.42,0.39-0.64,0.57-1.11,0.86c-0.19,0.11-0.36,0.22-0.56,0.32
		c-0.08,0.05-0.17,0.08-0.25,0.12c-0.05,0.03-0.1,0.05-0.16,0.07c0.16-0.07-0.07,0.03-0.09,0.04c-0.38,0.15-0.77,0.26-1.17,0.33
		c-0.05,0.01-0.1,0.02-0.16,0.03c-0.18,0.03,0.15-0.01-0.03,0c-0.1,0.01-0.2,0.02-0.31,0.03c-0.2,0.02-0.4,0.02-0.6,0.01
		c-0.19-0.01-0.36-0.03-0.54-0.05c-0.17-0.02,0.15,0.03-0.02,0c-0.05-0.01-0.09-0.02-0.15-0.03c-0.09-0.02-0.2-0.04-0.29-0.06
		c-0.18-0.04-0.35-0.08-0.52-0.14c-0.09-0.03-0.19-0.07-0.28-0.09c-0.06-0.02-0.37-0.15-0.2-0.07c-0.34-0.16-0.68-0.33-1-0.53
		c-0.15-0.09-0.3-0.2-0.45-0.31c-0.03-0.02-0.16-0.12-0.02-0.02c-0.04-0.03-0.07-0.07-0.11-0.09c-0.07-0.07-0.15-0.12-0.22-0.2
		c-0.3-0.26-0.57-0.55-0.82-0.86c-0.03-0.04-0.19-0.24-0.07-0.09c-0.06-0.07-0.12-0.16-0.18-0.24c-0.11-0.16-0.22-0.33-0.33-0.49
		c-0.09-0.16-0.18-0.32-0.26-0.47c-0.05-0.08-0.08-0.18-0.13-0.27c-0.02-0.03-0.07-0.19-0.01-0.02c-0.02-0.06-0.05-0.1-0.07-0.16
		c-0.14-0.36-0.25-0.73-0.33-1.11c-0.02-0.09-0.04-0.2-0.06-0.29c-0.01-0.04-0.01-0.07-0.02-0.09c-0.03-0.17,0.01,0.16,0-0.02
		c-0.02-0.2-0.04-0.39-0.04-0.6c-0.01-0.2,0-0.4,0.02-0.6c0.01-0.08,0.02-0.17,0.03-0.25c0.01-0.04,0.04-0.2,0-0.02
		c0.01-0.07,0.02-0.13,0.04-0.2c0.08-0.45,0.21-0.88,0.38-1.3c-0.07,0.15,0.07-0.13,0.08-0.19c0.06-0.11,0.11-0.23,0.18-0.34
		c0.12-0.21,0.25-0.43,0.4-0.63c0.04-0.05,0.07-0.09,0.1-0.14c0.05-0.07,0.05-0.07,0-0.01c0.03-0.03,0.05-0.07,0.07-0.09
		c0.07-0.09,0.16-0.19,0.23-0.28c0.19-0.2,0.37-0.4,0.58-0.6c0.48-0.45,0.86-0.73,1.42-1.09c0.56-0.35,0.34-1.26-0.34-1.26
		c-0.3,0-0.6-0.01-0.89-0.03c-0.14-0.01-0.27-0.02-0.41-0.04c-0.07-0.01-0.14-0.02-0.21-0.03c-0.08-0.01,0.02,0,0.03,0.01
		c-0.04-0.01-0.08-0.01-0.12-0.02c-0.51-0.07-1.02-0.2-1.52-0.35c-0.11-0.04-0.22-0.07-0.33-0.11c-0.06-0.02-0.11-0.05-0.17-0.07
		c-0.06-0.02-0.18-0.07-0.06-0.02c-0.2-0.09-0.41-0.19-0.61-0.3c-0.2-0.1-0.39-0.22-0.58-0.35c-0.08-0.06-0.17-0.11-0.25-0.18
		c-0.07-0.05-0.09-0.07-0.01-0.01c-0.05-0.04-0.09-0.07-0.15-0.11c-0.31-0.26-0.6-0.54-0.86-0.86c-0.04-0.04-0.07-0.08-0.09-0.12
		c-0.03-0.03,0.07,0.11,0,0c-0.07-0.08-0.12-0.18-0.19-0.26c-0.1-0.16-0.2-0.33-0.3-0.49s-0.17-0.34-0.25-0.51
		c0.08,0.18-0.03-0.07-0.05-0.13c-0.04-0.09-0.07-0.19-0.09-0.28c-0.12-0.36-0.2-0.74-0.26-1.13c-0.02-0.12,0.02,0.14,0,0.02
		c-0.01-0.05-0.01-0.09-0.02-0.15c-0.01-0.09-0.02-0.2-0.03-0.29c-0.01-0.19-0.02-0.37-0.01-0.57c0.01-0.19,0.02-0.37,0.04-0.57
		c0.01-0.07,0.05-0.33,0.01-0.13c0.02-0.09,0.03-0.2,0.05-0.29c0.07-0.37,0.17-0.74,0.3-1.11c0.03-0.08,0.07-0.17,0.09-0.25
		c0.02-0.04,0.03-0.07,0.05-0.11c-0.07,0.19-0.01,0.02,0.02-0.03c0.07-0.17,0.16-0.33,0.25-0.5c0.09-0.17,0.2-0.33,0.31-0.5
		c0.05-0.07,0.1-0.15,0.16-0.22c0.03-0.04,0.05-0.07,0.07-0.1c0.06-0.07-0.08,0.1,0.03-0.03c0.24-0.3,0.5-0.57,0.79-0.82
		c0.07-0.07,0.14-0.12,0.21-0.18c0.13-0.1-0.08,0.06,0.02-0.01c0.04-0.03,0.08-0.06,0.12-0.08c0.17-0.11,0.33-0.22,0.51-0.33
		c0.17-0.1,0.34-0.19,0.53-0.27c0.04-0.02,0.08-0.04,0.12-0.06c-0.18,0.07-0.02,0.01,0.03-0.01c0.1-0.04,0.2-0.07,0.3-0.11
		c0.2-0.07,0.4-0.12,0.6-0.17c0.1-0.03,0.2-0.05,0.3-0.07c0.06-0.01,0.11-0.02,0.17-0.03c0.05-0.01,0.25-0.04,0.07-0.01
		c0.46-0.06,0.92-0.07,1.38-0.05c0.12,0.01,0.23,0.02,0.35,0.03c0.07,0.01,0.13,0.01,0.2,0.02c0.03,0,0.06,0.01,0.08,0.01
		c0.1,0.01-0.11-0.02-0.01,0c0.26,0.04,0.51,0.08,0.77,0.14c0.57,0.13,1.13,0.3,1.66,0.51c0.07,0.03,0.13,0.05,0.19,0.07
		c0.03,0.01,0.2,0.08,0.12,0.06c0.15,0.07,0.31,0.13,0.46,0.2c0.33,0.16,0.73,0.09,0.92-0.24
		C189.32,321.51,189.24,321.03,188.91,320.88z"/>
	<path class="st0" d="M197.52,334.22c-0.19-0.27-0.35-0.54-0.49-0.84c-0.03-0.07-0.06-0.12-0.08-0.19c-0.06-0.11-0.01-0.02,0,0.01
		c-0.02-0.04-0.03-0.07-0.04-0.1c-0.05-0.13-0.09-0.27-0.13-0.41c-0.04-0.12-0.07-0.25-0.08-0.37c-0.01-0.07-0.03-0.18-0.01-0.04
		c-0.01-0.07-0.02-0.15-0.02-0.21c-0.01-0.11-0.01-0.23-0.01-0.35c0-0.06,0.01-0.1,0.01-0.16c0.01-0.05,0.04-0.27,0-0.07
		c0.04-0.22,0.08-0.45,0.17-0.66c0.02-0.05,0.04-0.09,0.06-0.14c-0.06,0.14-0.02,0.04,0.02-0.04c0.05-0.1,0.1-0.2,0.17-0.3
		c0.06-0.08,0.11-0.17,0.17-0.25c0.1-0.15-0.05,0.05,0.03-0.04c0.04-0.05,0.07-0.08,0.11-0.13c0.16-0.18,0.33-0.33,0.5-0.47
		c0.08-0.07-0.12,0.08,0.02-0.02c0.05-0.03,0.08-0.06,0.12-0.08c0.09-0.07,0.2-0.13,0.3-0.19c0.09-0.06,0.2-0.1,0.29-0.16
		c0.05-0.03,0.09-0.05,0.14-0.07c0.17-0.08-0.08,0.03,0.07-0.03c0.21-0.07,0.43-0.15,0.65-0.2c0.11-0.03,0.21-0.05,0.33-0.07
		c0.09-0.02,0.15-0.02,0.02-0.01c0.07-0.01,0.13-0.02,0.2-0.02c0.23-0.02,0.46-0.02,0.69-0.01c0.06,0,0.1,0.01,0.16,0.02
		c0.03,0,0.06,0.01,0.08,0.01c0.09,0.01-0.14-0.03-0.05-0.01c0.11,0.02,0.23,0.04,0.35,0.07c0.11,0.03,0.21,0.06,0.33,0.09
		c0.05,0.02,0.1,0.04,0.15,0.06c0.03,0.01,0.06,0.02,0.08,0.04c0.08,0.03-0.15-0.07-0.02-0.01c0.2,0.1,0.41,0.2,0.6,0.33
		c0.03,0.02,0.2,0.14,0.12,0.08c-0.07-0.06,0.08,0.07,0.11,0.09c0.1,0.09,0.2,0.19,0.3,0.29c0.05,0.06,0.1,0.11,0.15,0.17
		c0.04,0.05,0.13,0.18,0.06,0.07c0.09,0.13,0.18,0.25,0.26,0.39c0.08,0.13,0.15,0.27,0.21,0.41c0.02,0.04,0.03,0.07,0.05,0.1
		c0.05,0.09-0.06-0.15,0.01,0.03c0.03,0.07,0.06,0.15,0.08,0.22c0.13,0.36,0.21,0.73,0.29,1.12c0.07,0.36,0.5,0.56,0.83,0.47
		c0.38-0.1,0.53-0.47,0.47-0.83c-0.11-0.69-0.16-1.62-0.07-2.42c0.01-0.05,0.01-0.1,0.02-0.15c0,0.03-0.02,0.13,0,0
		c0.02-0.08,0.03-0.18,0.05-0.26c0.04-0.18,0.07-0.34,0.11-0.52c0.05-0.16,0.09-0.31,0.14-0.46c0.03-0.07,0.06-0.15,0.08-0.21
		c0.02-0.04,0.07-0.15,0,0c0.02-0.05,0.04-0.09,0.07-0.14c0.12-0.26,0.26-0.51,0.43-0.75c0.05-0.07,0.09-0.12,0.13-0.19
		c-0.08,0.12-0.01,0.01,0.04-0.05c0.09-0.11,0.2-0.22,0.31-0.33c0.09-0.09,0.19-0.18,0.29-0.26c0.06-0.05,0.15-0.11,0.04-0.03
		c0.07-0.05,0.12-0.09,0.2-0.13c0.21-0.15,0.45-0.26,0.68-0.37c0.13-0.07-0.11,0.05-0.03,0.01c0.04-0.01,0.07-0.03,0.09-0.04
		c0.06-0.02,0.1-0.04,0.16-0.06c0.13-0.05,0.26-0.08,0.39-0.11c0.12-0.03,0.24-0.05,0.36-0.07c-0.14,0.03-0.07,0.01,0.03,0
		c0.07-0.01,0.15-0.01,0.22-0.02c0.25-0.01,0.5,0.01,0.75,0.03c-0.21-0.02-0.01,0,0.05,0.01c0.07,0.01,0.12,0.03,0.19,0.04
		c0.13,0.03,0.27,0.07,0.4,0.1c0.11,0.04,0.22,0.07,0.33,0.12c0.09,0.04-0.16-0.07-0.03-0.01c0.03,0.01,0.06,0.03,0.07,0.04
		c0.07,0.03,0.13,0.07,0.19,0.09c0.11,0.06,0.22,0.12,0.33,0.2c0.07,0.04,0.12,0.07,0.18,0.12c0.05,0.03,0.22,0.18,0.07,0.05
		c0.21,0.18,0.42,0.36,0.6,0.57c0.05,0.06,0.09,0.1,0.13,0.16c0.02,0.03,0.04,0.05,0.06,0.07c0.1,0.12-0.07-0.08-0.01-0.01
		c0.09,0.12,0.18,0.24,0.25,0.37c0.09,0.15,0.18,0.3,0.25,0.46c0.05,0.08,0.08,0.17,0.12,0.25c0.02,0.03,0.05,0.12-0.01-0.02
		c0.02,0.05,0.04,0.09,0.06,0.15c0.14,0.36,0.24,0.73,0.32,1.12c0.02,0.09,0.04,0.2,0.05,0.29c0.01,0.04,0.01,0.07,0.02,0.12
		c-0.02-0.15,0,0.03,0.01,0.07c0.03,0.23,0.04,0.47,0.05,0.7c0.02,0.48-0.01,0.97-0.07,1.45c-0.07,0.65,1,0.95,1.26,0.34
		c0.11-0.25,0.23-0.5,0.37-0.74c0.07-0.11,0.14-0.22,0.21-0.33c0.04-0.06,0.07-0.1,0.11-0.16c-0.07,0.09,0.03-0.04,0.05-0.06
		c0.16-0.19,0.32-0.35,0.5-0.5c0.05-0.04,0.08-0.07,0.13-0.11c-0.12,0.09,0.03-0.02,0.05-0.03c0.09-0.07,0.19-0.12,0.28-0.19
		c0.09-0.06,0.19-0.11,0.29-0.16c0.05-0.03,0.1-0.05,0.15-0.07c0.16-0.07-0.13,0.04,0.04-0.02c0.2-0.07,0.4-0.14,0.61-0.19
		c0.1-0.03,0.2-0.04,0.31-0.06c-0.19,0.03,0.13-0.01,0.19-0.01c0.2-0.01,0.42-0.01,0.62,0.01c0.06,0.01,0.1,0.01,0.16,0.02
		c0.18,0.02-0.15-0.03,0.03,0.01c0.1,0.02,0.2,0.04,0.31,0.06c0.2,0.05,0.4,0.1,0.6,0.18c0.05,0.02,0.09,0.04,0.15,0.06
		c-0.16-0.07,0,0,0.03,0.02c0.09,0.05,0.19,0.09,0.28,0.14c0.19,0.1,0.35,0.21,0.52,0.33c0.15,0.09-0.1-0.09,0.03,0.02
		c0.04,0.04,0.08,0.07,0.12,0.1c0.07,0.07,0.16,0.14,0.22,0.2c0.07,0.07,0.12,0.12,0.18,0.19c0.04,0.04,0.07,0.07,0.1,0.11
		c0.12,0.14-0.01-0.03,0.06,0.07c0.1,0.16,0.21,0.32,0.3,0.48c0.05,0.09,0.09,0.19,0.13,0.28c-0.07-0.16,0,0.01,0.01,0.04
		c0.02,0.07,0.05,0.13,0.07,0.2c0.04,0.12,0.07,0.24,0.09,0.36c0.01,0.04,0.02,0.07,0.02,0.1c0.01,0.04,0.01,0.07,0.02,0.11
		c-0.01-0.09-0.01-0.09-0.01-0.02c0.02,0.27,0.03,0.53,0,0.8c0,0.02-0.03,0.21-0.01,0.06c-0.01,0.07-0.02,0.12-0.03,0.19
		c-0.03,0.15-0.07,0.29-0.1,0.44c-0.09,0.33-0.18,0.54-0.31,0.8c-0.16,0.33-0.09,0.73,0.24,0.92c0.3,0.18,0.76,0.08,0.92-0.24
		c0.52-1.1,0.78-2.29,0.54-3.49c-0.2-0.98-0.74-1.89-1.49-2.54c-1.56-1.36-3.81-1.74-5.7-0.86c-0.98,0.46-1.75,1.26-2.26,2.2
		c-0.17,0.3,0.01,0.66,0.34,0.74l0,0c0.33,0.09,0.67-0.14,0.69-0.48c0.07-1.46-0.15-2.95-0.84-4.25c-0.62-1.17-1.63-2.09-2.86-2.59
		c-2.4-0.97-5.13,0.1-6.39,2.33c-0.83,1.47-0.98,3.17-0.82,4.83c0.04,0.4,0.43,0.65,0.82,0.54l0,0c0.33-0.09,0.54-0.42,0.46-0.75
		c-0.28-1.08-0.82-2.12-1.69-2.85c-0.89-0.73-2-1.13-3.15-1.11c-2.14,0.03-4.37,1.38-4.91,3.53c-0.35,1.44,0.11,2.9,0.94,4.09
		c0.2,0.3,0.6,0.44,0.92,0.24C197.57,334.97,197.72,334.52,197.52,334.22z"/>
</g>
<path class="st1" d="M9.87,2.95c0.17,0.09,1.31,1.27,2.53,2.63l2.22,2.47l0.42-0.3c0.74-0.54,1.74-1.08,2.53-1.38
	c1.12-0.41,2.68-0.48,3.72-0.16l0.74,0.23l0.36-0.32c0.61-0.54,1.12-0.4,1.72,0.46l0.39,0.56l0.76-0.46
	c1.92-1.16,4.04-1.8,6.19-1.88c3.16-0.12,5.54,0.74,8.14,2.94c1.24,1.05,2.33,2.37,3.78,4.55c1.1,1.65,1.9,2.64,2.98,3.66
	c1,0.95,1.61,1.35,2.27,1.49c0.95,0.2,1.29,1.14,0.63,1.79l-0.34,0.34l0.3,0.4c0.42,0.55,1.06,1.94,1.2,2.61
	c0.17,0.8,0.14,2.41-0.05,3.27c-0.09,0.41-0.35,1.2-0.57,1.76c-0.22,0.56-0.4,1.19-0.4,1.4c0,0.58,0.34,1.21,0.93,1.76
	c1.08,1,1.97,2.46,2.32,3.81c0.22,0.87,0.2,2.5-0.04,3.53c-0.38,1.58-1.24,3.3-2.45,4.88c-0.33,0.43-0.88,1.15-1.22,1.6
	c-1.68,2.21-2.49,4.3-2.23,5.75c0.15,0.84,0.36,1.24,0.95,1.87c0.41,0.44,0.54,0.65,0.54,0.9c0,0.48-0.37,0.75-0.94,0.67
	c-0.97-0.13-3.06-1.15-4.5-2.18l-0.78-0.57l-0.21,0.33c-0.11,0.18-0.41,0.45-0.65,0.59l-0.44,0.26H26.4
	c-15.54,0-14.69,0.03-15.41-0.6c-1.39-1.22-1.27-4.45,0.28-7.55c1.05-2.11,2.7-4.1,5.83-7.05c2.29-2.16,3.12-3.08,3.65-4.04
	c0.56-1.02,0.58-0.98-0.52-1.02c-0.52-0.02-1.3-0.1-1.73-0.18c-1.52-0.29-1.57-0.27-2.96,0.93c-0.81,0.7-1.89,1.26-2.6,1.36
	c-0.9,0.12-2.7-0.66-4.07-1.78c-1.91-1.55-3.29-4.14-3.15-5.92c0.09-1.16,0.93-2.17,2.41-2.92c1.04-0.53,1.58-0.94,3.14-2.42
	l1.27-1.2l-1.07-0.01c-1.44-0.01-2.43-0.23-3.55-0.79c-1.54-0.76-2.77-2.09-3.42-3.69c-0.32-0.8-0.32-1.26,0-1.63
	c0.25-0.29,0.27-0.29,1.73-0.36c1.6-0.07,2.14-0.21,3.27-0.81c0.61-0.33,1.88-1.31,1.88-1.46c0-0.04-0.67-1.58-1.5-3.42
	c-1.69-3.76-1.75-4.01-1.2-4.57C9.01,2.75,9.39,2.71,9.87,2.95z M10.24,5.46c0.38,0.86,0.4,0.88,0.4,0.43c0-0.25-0.1-0.48-0.32-0.74
	c-0.17-0.21-0.34-0.39-0.36-0.39C9.95,4.76,10.07,5.08,10.24,5.46z M29.18,6.35c-0.51,0.14-1.28,0.41-1.7,0.59
	c-1.01,0.43-2.38,1.23-2.37,1.38c0,0.07,0.11,0.48,0.25,0.91c0.14,0.44,0.31,1.19,0.38,1.67l0.13,0.88l0.82,0.13
	c3.41,0.52,6.84,2.49,9.13,5.23c2.83,3.39,4.68,8.02,5.46,13.71c0.28,2.03,0.06,2.74-1.23,4c-0.9,0.88-1.36,1.69-1.73,3.06
	c-0.2,0.72-0.23,1.1-0.23,2.85c0,1.91,0.01,2.07,0.28,2.96c0.87,2.86,2.69,5.23,5.44,7.1c0.76,0.52,1.86,1.14,2,1.14
	c0.03,0-0.05-0.27-0.17-0.6c-0.3-0.84-0.3-2.19,0-3.27l0.23-0.8l-0.41-0.37c-1.65-1.5-2.88-3.85-3.21-6.15
	c-0.21-1.45-0.04-2.09,0.58-2.09c0.4,0,0.53,0.3,0.59,1.3c0.12,2.04,0.83,3.69,2.32,5.41c0.31,0.36,0.6,0.65,0.64,0.65
	s0.32-0.39,0.61-0.86c0.29-0.47,0.93-1.37,1.42-1.99c2.25-2.84,3.15-4.81,3.14-6.9c0-1-0.11-1.56-0.43-2.32
	c-0.21-0.48-0.27-0.53-1.07-0.91c-1.32-0.61-2.28-1.29-3.3-2.32c-1.39-1.41-2.27-2.9-2.8-4.75c-0.25-0.86-0.26-0.99-0.13-1.23
	c0.19-0.34,0.7-0.41,0.93-0.14c0.09,0.1,0.22,0.42,0.29,0.71c0.2,0.84,0.71,2.02,1.22,2.85c0.46,0.75,1.83,2.3,2.21,2.5
	c0.16,0.09,0.15,0.04-0.05-0.4c-0.17-0.38-0.22-0.69-0.22-1.32c0-0.72,0.05-0.95,0.39-1.73c0.21-0.5,0.45-1.2,0.54-1.56
	c0.18-0.75,0.2-2.31,0.05-2.99c-0.14-0.62-0.63-1.63-1.02-2.1l-0.32-0.38l-0.46,0.2c-0.25,0.11-0.83,0.26-1.28,0.32
	c-1.44,0.21-3-0.23-4.55-1.27c-1.17-0.79-2.09-1.65-3.12-2.88c-1.27-1.53-1.79-2.34-1.71-2.66c0.08-0.32,0.41-0.52,0.72-0.44
	c0.13,0.03,0.58,0.53,1.1,1.23c1.02,1.37,2.57,2.97,3.5,3.6c2.06,1.4,4,1.59,5.63,0.56l0.41-0.26l-0.43-0.19
	c-1.5-0.67-3.43-2.66-5.27-5.42c-2.08-3.12-3.73-4.78-5.82-5.88c-1.73-0.91-2.78-1.14-4.88-1.09C30.41,6.08,29.94,6.14,29.18,6.35z
	 M11.66,7.62L11.47,8.2l0.28,0.62c0.15,0.34,0.31,0.62,0.35,0.62c0.1,0,0.39-0.7,0.5-1.21c0.09-0.41,0.07-0.46-0.27-0.86
	c-0.2-0.23-0.39-0.4-0.42-0.37C11.88,7.02,11.76,7.3,11.66,7.62z M22.51,7.69c-1.04,1.11-1.86,2.84-2.37,5
	c-0.37,1.53-0.48,1.84-0.89,2.34c-0.42,0.52-8.32,8.05-9.02,8.59c-0.32,0.25-0.98,0.65-1.46,0.9c-1.04,0.52-1.7,1.17-1.81,1.78
	c-0.24,1.29,1.03,3.68,2.67,5.01c0.69,0.56,1.93,1.25,2.62,1.46c0.74,0.22,1.54-0.17,2.92-1.4c0.37-0.33,0.85-0.68,1.08-0.79
	c0.53-0.24,1.4-0.25,2.43-0.03c1.04,0.22,2.85,0.22,3.76,0c1.2-0.29,1.99-0.73,2.87-1.62c0.63-0.63,0.89-0.99,1.24-1.72
	c0.35-0.73,0.51-0.95,0.74-1.03c0.25-0.09,0.32-0.07,0.54,0.19c0.3,0.35,0.29,0.41-0.29,1.62c-0.34,0.71-0.6,1.05-1.31,1.77
	c-0.95,0.95-1.81,1.48-3.08,1.91l-0.66,0.22l-0.23,0.68c-0.51,1.49-1.48,2.7-4.23,5.27c-1.15,1.08-2.42,2.32-2.82,2.78
	c-2.17,2.41-3.5,4.83-3.86,6.99c-0.15,0.91-0.08,2.25,0.15,2.69c0.35,0.68-0.82,0.63,14.85,0.63c13.96,0,14.23,0,14.34-0.2
	c0.21-0.39,0.11-0.66-0.5-1.35c-1.4-1.58-2.26-3.03-2.84-4.79c-0.49-1.48-0.62-2.49-0.55-4.38c0.04-1.22,0.11-1.8,0.32-2.59
	c0.42-1.61,0.88-2.47,1.89-3.48c1.14-1.15,1.24-1.43,1.08-2.78c-0.44-3.56-1.45-7.02-2.85-9.79c-1.76-3.45-3.92-5.69-6.91-7.16
	c-1.42-0.7-2.59-1.06-4.28-1.33c-0.8-0.13-1.22-0.24-1.3-0.36c-0.07-0.09-0.15-0.58-0.18-1.08s-0.18-1.33-0.33-1.84
	c-0.28-0.95-1.03-2.55-1.2-2.55C22.97,7.25,22.74,7.45,22.51,7.69z M18.1,7.52c-0.74,0.25-1.81,0.82-2.39,1.28L15.46,9l1.63,1.8
	c0.9,0.99,1.67,1.81,1.71,1.83c0.04,0.02,0.16-0.31,0.26-0.73c0.35-1.44,1.28-3.54,1.89-4.25c0.14-0.16,0.13-0.19-0.09-0.28
	C20.34,7.16,18.94,7.24,18.1,7.52z M13.5,9.48c-0.1,0.25-0.34,0.66-0.53,0.91l-0.34,0.44l0.43,0.93l0.43,0.93l0.33-0.46
	c0.34-0.47,0.58-1.17,0.67-1.96c0.05-0.4,0.01-0.49-0.31-0.86C13.98,9.19,13.79,9,13.75,9C13.72,9.02,13.6,9.22,13.5,9.48z
	 M15.03,12.7c-0.11,0.17-0.38,0.51-0.6,0.74l-0.41,0.43l0.5,1.15l0.5,1.15l0.38-0.37c0.71-0.69,1.32-2.13,1.32-3.11
	c0-0.38-0.07-0.51-0.53-1.02l-0.53-0.59l-0.22,0.66C15.32,12.09,15.14,12.53,15.03,12.7z M11.25,12.85
	c-1.35,1.09-2.81,1.65-4.56,1.74c-0.61,0.03-1.11,0.1-1.11,0.16c0,0.27,0.74,1.44,1.28,2.02c0.72,0.77,1.87,1.4,3.01,1.63
	c1.39,0.29,4.09,0.13,4.44-0.26c0.16-0.17,0.08-0.38-1.09-3c-0.69-1.55-1.28-2.81-1.3-2.81C11.9,12.33,11.6,12.56,11.25,12.85z
	 M17.47,14.91c-0.12,0.23-0.11,0.23,0.24-0.05c0.21-0.16,0.45-0.41,0.54-0.54c0.15-0.23,0.14-0.26-0.08-0.5l-0.24-0.26l-0.16,0.55
	C17.67,14.42,17.54,14.78,17.47,14.91z M21.8,16.48c0.11,0.07,0.15,0.29,0.15,0.8c0,0.84,0.11,0.89,0.56,0.26
	c0.42-0.58,0.74-0.73,1.07-0.51c0.44,0.29,0.42,0.55-0.07,1.25l-0.19,0.27l0.42,0.38c0.32,0.29,0.42,0.46,0.42,0.71
	c0,0.69-0.62,0.79-1.26,0.21c-0.68-0.62-1.42-0.82-2.1-0.56c-0.15,0.06-0.59,0.41-0.97,0.78s-0.76,0.67-0.84,0.67
	s-0.25-0.07-0.38-0.16c-0.37-0.26-0.3-0.7,0.19-1.23c0.4-0.44,0.42-0.47,0.31-0.85c-0.21-0.77-0.1-1.59,0.24-1.82
	c0.2-0.14,0.54-0.08,0.72,0.11c0.12,0.13,0.17,0.38,0.17,0.78c0,0.32,0.03,0.59,0.08,0.59c0.21,0,0.31-0.2,0.37-0.71
	c0.08-0.71,0.3-1.05,0.67-1.05C21.52,16.38,21.71,16.43,21.8,16.48z M11.05,25.61c0.29,0.29,0.26,0.57-0.12,1.04
	c-0.4,0.5-0.5,1.21-0.25,1.8c0.21,0.51,0.21,0.72-0.02,0.93c-0.25,0.22-0.67,0.22-0.87-0.01c-0.29-0.33-0.52-1.23-0.47-1.87
	c0.05-0.69,0.29-1.25,0.76-1.75C10.45,25.35,10.76,25.31,11.05,25.61z"/>
<path class="st3" d="M42,233c1.5,2.94,3.83,7.28,6.35,9.63c1.27,1.18,2.43,1.71,3.44,1.55s2.21-1.05,3.43-3.54l0,0
	c4.01-8.14,7.19-17.17,6.25-26.24c-0.07-0.65-0.22-1.33-0.48-1.85c-0.26-0.51-0.57-0.77-0.94-0.83c-0.32-0.06-0.66,0.05-1.06,0.34
	c-0.4,0.3-0.77,0.74-1.1,1.22c-3.1,4.41-5.19,9.56-6.04,14.92l-1.48,0.01c-0.9-5.2-3.37-10.12-6.98-13.91l0,0
	c-0.72-0.76-1.39-1.31-2.12-1.38l0,0c-0.77-0.08-1.43,0.33-1.98,1.2c-0.55,0.87-0.89,2.07-0.97,3.15 M42,233
	c-2.5-4.89-4.08-10.33-3.68-15.73"/>
<path class="st3" d="M304.82,115.02c-1.5,2.94-3.83,7.28-6.35,9.63c-1.27,1.18-2.43,1.71-3.44,1.55s-2.21-1.05-3.43-3.54l0,0
	c-4.01-8.14-7.19-17.17-6.25-26.24c0.07-0.65,0.22-1.33,0.48-1.85c0.26-0.51,0.57-0.77,0.94-0.83c0.32-0.06,0.66,0.05,1.06,0.34
	c0.4,0.3,0.77,0.74,1.1,1.22c3.1,4.41,5.19,9.56,6.04,14.92l1.48,0.01c0.9-5.2,3.37-10.12,6.98-13.91l0,0
	c0.72-0.76,1.39-1.31,2.12-1.38l0,0c0.77-0.08,1.43,0.33,1.98,1.2c0.55,0.87,0.89,2.07,0.97,3.15 M304.82,115.02
	c2.5-4.89,4.08-10.33,3.68-15.73"/>
</svg>
