<?xml version="1.0" encoding="utf-8"?>
<!-- Generator: Adobe Illustrator 27.6.1, SVG Export Plug-In . SVG Version: 6.00 Build 0)  -->
<svg version="1.1" id="Layer_1" xmlns="http://www.w3.org/2000/svg" xmlns:xlink="http://www.w3.org/1999/xlink" x="0px" y="0px"
	 viewBox="0 0 380 281.15" style="enable-background:new 0 0 380 281.15;" xml:space="preserve">
<style type="text/css">
	.st0{fill:none;stroke:#8787C1;stroke-width:2;}
	.st1{fill:#8787C1;}
</style>
<path class="st0" d="M355.47,241.02L355.47,241.02c1.59-1.64,3.75-2.92,5.95-3.38c2.18-0.46,4.34-0.12,6.11,1.38
	c1.95,1.65,3,4.13,3.42,6.93c0.41,2.8,0.16,5.8-0.38,8.31c-1.32,6.11-4.6,11.72-8.1,17.11l-0.03,0.05l-0.03,0.05l-1.43,2.79
	c-0.4,0.44-1.27,1.3-2.18,1.96c-0.5,0.36-0.95,0.62-1.29,0.73c-0.16,0.05-0.25,0.06-0.29,0.06c-1.68-1.25-3.38-2.48-5.07-3.7
	c-4.15-3-8.27-5.97-12.08-9.29l0,0c-4.08-3.56-7.77-8.25-7.02-13.36v0c0.3-2.07,1.73-4.08,3.75-5.51c2.02-1.43,4.45-2.16,6.59-1.86
	v0c3.12,0.43,5.16,2.57,7.29,5.27l1.74,2.2l0.32-2.79C353.05,245.2,353.79,242.76,355.47,241.02z M357.18,277.03
	C357.18,277.03,357.19,277.03,357.18,277.03C357.19,277.03,357.18,277.03,357.18,277.03z"/>
<path class="st0" d="M23.28,157.89L23.28,157.89c-1.59-1.64-3.75-2.92-5.95-3.38c-2.18-0.46-4.34-0.12-6.11,1.38
	c-1.95,1.65-3,4.13-3.42,6.93c-0.41,2.8-0.16,5.8,0.38,8.31c1.32,6.11,4.6,11.72,8.1,17.11l0.03,0.05l0.03,0.05l1.43,2.79
	c0.4,0.44,1.27,1.3,2.18,1.96c0.5,0.36,0.95,0.62,1.29,0.73c0.16,0.05,0.25,0.06,0.29,0.06c1.68-1.25,3.38-2.48,5.07-3.7
	c4.15-3,8.27-5.97,12.08-9.29l0,0c4.08-3.56,7.77-8.25,7.02-13.36v0c-0.3-2.07-1.73-4.08-3.75-5.51c-2.02-1.43-4.45-2.16-6.59-1.86
	v0c-3.12,0.43-5.16,2.57-7.29,5.27l-1.74,2.2l-0.32-2.79C25.69,162.07,24.96,159.63,23.28,157.89z M21.56,193.89
	C21.56,193.89,21.56,193.89,21.56,193.89C21.56,193.89,21.56,193.89,21.56,193.89z"/>
<path class="st0" d="M31.86,74.15L31.86,74.15c1.05-1.09,2.48-1.93,3.94-2.24c1.44-0.3,2.88-0.08,4.05,0.91
	c1.29,1.1,1.99,2.74,2.27,4.59c0.27,1.85,0.11,3.84-0.25,5.51c-0.87,4.05-3.05,7.77-5.37,11.34l-0.02,0.03l-0.02,0.03l-0.95,1.85
	c-0.27,0.29-0.84,0.86-1.45,1.3c-0.33,0.24-0.63,0.41-0.86,0.49c-0.11,0.04-0.17,0.04-0.19,0.04c-1.11-0.83-2.24-1.64-3.36-2.45
	c-2.75-1.99-5.48-3.96-8-6.16l0,0c-2.7-2.36-5.15-5.47-4.65-8.86v0c0.2-1.37,1.15-2.7,2.49-3.65c1.34-0.95,2.95-1.43,4.36-1.23v0
	c2.06,0.29,3.42,1.7,4.83,3.49l1.15,1.46l0.21-1.85C30.26,76.92,30.75,75.3,31.86,74.15z M33,98.01C33,98.01,33,98.01,33,98.01
	C33,98.01,33,98.01,33,98.01z"/>
<path class="st0" d="M346.42,31.3L346.42,31.3c1.59-1.65,3.77-2.93,5.98-3.4c2.19-0.46,4.36-0.12,6.14,1.38
	c1.96,1.66,3.02,4.15,3.43,6.97c0.41,2.81,0.16,5.82-0.38,8.35c-1.33,6.14-4.62,11.78-8.14,17.19l-0.03,0.05l-0.03,0.05l-1.44,2.81
	c-0.4,0.44-1.28,1.31-2.19,1.97c-0.5,0.37-0.95,0.62-1.3,0.74c-0.16,0.05-0.25,0.06-0.29,0.06c-1.69-1.26-3.39-2.49-5.09-3.71
	c-4.17-3.01-8.31-6-12.14-9.34l0,0c-4.1-3.58-7.81-8.29-7.05-13.43v0c0.31-2.08,1.74-4.1,3.77-5.53c2.03-1.43,4.47-2.17,6.62-1.87v0
	c3.13,0.44,5.18,2.58,7.33,5.29l1.75,2.21l0.32-2.8C343.99,35.5,344.73,33.05,346.42,31.3z M348.14,67.48
	C348.14,67.48,348.14,67.48,348.14,67.48C348.14,67.48,348.14,67.48,348.14,67.48z"/>
<path class="st0" d="M43.39,244.91L43.39,244.91c1.05-1.09,2.48-1.93,3.94-2.24c1.44-0.3,2.88-0.08,4.05,0.91
	c1.29,1.1,1.99,2.74,2.27,4.59c0.27,1.85,0.11,3.84-0.25,5.51c-0.87,4.05-3.05,7.77-5.37,11.34l-0.02,0.03l-0.02,0.03l-0.95,1.85
	c-0.27,0.29-0.84,0.86-1.45,1.3c-0.33,0.24-0.63,0.41-0.86,0.49c-0.11,0.04-0.17,0.04-0.19,0.04c-1.11-0.83-2.24-1.64-3.36-2.45
	c-2.75-1.99-5.48-3.96-8-6.16l0,0c-2.7-2.36-5.15-5.47-4.65-8.86v0c0.2-1.37,1.15-2.7,2.49-3.65c1.34-0.95,2.95-1.43,4.36-1.23v0
	c2.06,0.29,3.42,1.7,4.83,3.49l1.15,1.46l0.21-1.85C41.79,247.67,42.28,246.06,43.39,244.91z M44.53,268.77
	C44.53,268.77,44.53,268.77,44.53,268.77C44.53,268.77,44.53,268.77,44.53,268.77z"/>
<g>
	<path class="st1" d="M13.39,10.37c-2.25-1.05-4.78-1.67-7.25-1.1c-1.89,0.43-3.53,1.61-4.61,3.21c-1,1.49-1.49,3.35-1.38,5.13
		c0.12,1.9,0.88,3.72,2.22,5.08c1.64,1.64,3.91,2.39,6.18,2.56c0.1,0.01,0.2,0.01,0.3,0.02c0.35,0.02,0.6-0.31,0.51-0.65l0,0
		c-0.09-0.34-0.49-0.49-0.78-0.29c-1.7,1.21-3.1,2.84-3.67,4.88c-0.51,1.86-0.25,3.84,0.6,5.56c1.67,3.39,5.61,5.56,9.35,4.5
		c2.46-0.7,4.35-2.58,5.7-4.69c0.2-0.31,0.03-0.72-0.32-0.81l0,0c-0.34-0.09-0.68,0.14-0.68,0.49c-0.03,1.49,0.29,2.99,1.08,4.26
		c0.8,1.28,2.01,2.21,3.41,2.75c2.64,1.02,5.9,0.42,7.89-1.62c1.15-1.17,1.76-2.71,1.92-4.32c0.04-0.38-0.27-0.7-0.66-0.7l0,0
		c-0.4,0-0.72,0.35-0.66,0.74c0.25,1.5,0.81,2.93,1.85,4.07c0.96,1.06,2.3,1.78,3.7,2.03c2.92,0.52,6.02-0.72,7.64-3.24
		c0.92-1.44,1.2-3.12,1.08-4.79c-0.03-0.38-0.42-0.6-0.77-0.45l0,0c-0.33,0.14-0.46,0.55-0.25,0.84c2.1,2.94,5.6,5.46,9.35,4.66
		c1.06-0.23,2.04-0.73,2.89-1.39c0.71-0.55,1.38-1.13,1.89-1.88c0.91-1.35,1.31-3.09,1.2-4.71c-0.11-1.7-0.76-3.32-2.03-4.44
		c-0.23-0.2-0.58-0.05-0.62,0.26l0,0c-0.04,0.3,0.25,0.54,0.54,0.43c1.55-0.63,2.91-1.65,3.84-3.08c0.89-1.37,1.32-3.04,1.24-4.67
		c-0.15-3.33-2.31-6.47-5.64-7.29c-2.12-0.52-4.3-0.07-6.27,0.79c-0.29,0.13-0.33,0.51-0.08,0.7l0,0c0.24,0.19,0.6,0.06,0.66-0.24
		c0.36-1.88,0.4-3.86-0.19-5.69c-0.53-1.63-1.52-3.06-2.93-4.05c-2.69-1.9-6.41-1.67-9.06,0.17c-1.65,1.15-2.85,2.77-3.65,4.59
		c-0.16,0.37,0.08,0.78,0.48,0.83l0,0c0.35,0.05,0.68-0.21,0.68-0.57c0.01-2.47-1.08-5-3.41-6.12c-2.15-1.04-4.8-0.62-6.33,1.29
		c-0.93,1.16-1.34,2.59-1.45,4.05c-0.03,0.39,0.32,0.7,0.71,0.64l0,0c0.37-0.05,0.63-0.41,0.53-0.77c-0.48-1.82-1.37-3.57-2.79-4.82
		c-1.34-1.18-3.02-1.85-4.8-1.96c-3.26-0.21-6.8,1.55-8.2,4.59c-0.88,1.92-0.83,4.08-0.05,6.03c0.14,0.36,0.49,0.62,0.89,0.51
		c0.35-0.09,0.65-0.53,0.51-0.89c-0.18-0.44-0.32-0.89-0.42-1.36c-0.02-0.09-0.04-0.19-0.06-0.28C13.23,9.11,13.23,9.05,13.22,9
		c-0.04-0.19,0.02,0.16-0.01-0.03c-0.02-0.2-0.04-0.4-0.05-0.61c-0.01-0.2-0.01-0.39,0.01-0.59c0.01-0.09,0.01-0.18,0.02-0.26
		c0.01-0.05,0.01-0.1,0.02-0.16c-0.02,0.22,0-0.02,0.01-0.06c0.06-0.36,0.15-0.72,0.28-1.07c0.03-0.08,0.06-0.16,0.09-0.23
		c0.06-0.16-0.07,0.15,0-0.01c0.02-0.04,0.04-0.09,0.06-0.13c0.08-0.17,0.17-0.34,0.26-0.5C14,5.2,14.09,5.06,14.19,4.92
		c0.06-0.08,0.11-0.16,0.17-0.24c-0.12,0.16,0.06-0.07,0.1-0.12c0.23-0.27,0.48-0.53,0.76-0.77c0.07-0.07,0.15-0.13,0.23-0.19
		c0.03-0.02,0.05-0.04,0.08-0.06c0.13-0.11-0.13,0.09,0.01-0.01c0.16-0.11,0.32-0.23,0.49-0.34c0.31-0.2,0.63-0.37,0.96-0.52
		c0.05-0.02,0.09-0.04,0.14-0.06C17.27,2.54,17,2.66,17.1,2.62c0.08-0.04,0.17-0.07,0.26-0.1c0.19-0.07,0.38-0.13,0.57-0.19
		c0.35-0.1,0.71-0.19,1.08-0.24c0.05-0.01,0.1-0.02,0.15-0.02c-0.19,0.03-0.08,0.01-0.04,0.01c0.1-0.01,0.2-0.02,0.3-0.03
		c0.19-0.02,0.37-0.02,0.55-0.03c0.19,0,0.37,0,0.55,0.01c0.09,0.01,0.19,0.01,0.28,0.02c0.06,0.01,0.4,0.05,0.18,0.02
		c0.37,0.06,0.73,0.13,1.09,0.24c0.18,0.05,0.36,0.12,0.53,0.19c0.05,0.02,0.1,0.04,0.14,0.06c-0.16-0.07-0.07-0.03-0.03-0.01
		c0.11,0.05,0.22,0.1,0.33,0.16c0.35,0.18,0.67,0.38,0.99,0.61c0.03,0.02,0.17,0.13,0.03,0.02c0.04,0.03,0.08,0.07,0.13,0.1
		c0.1,0.08,0.2,0.17,0.29,0.25c0.17,0.15,0.32,0.31,0.47,0.48c0.08,0.09,0.17,0.19,0.24,0.28c0.03,0.04,0.06,0.08,0.09,0.11
		c-0.11-0.14,0.05,0.06,0.06,0.09c0.14,0.2,0.28,0.4,0.4,0.61c0.14,0.24,0.27,0.48,0.39,0.72c0.14,0.3,0.16,0.33,0.27,0.63
		c0.22,0.59,0.39,1.21,0.52,1.83c0.17,0.81,1.42,0.61,1.43-0.19c0-0.39,0.02-0.77,0.07-1.15c0.02-0.15,0.01-0.05,0-0.02
		c0.01-0.05,0.02-0.09,0.02-0.14c0.01-0.08,0.03-0.16,0.04-0.24c0.03-0.17,0.07-0.33,0.11-0.49c0.04-0.16,0.09-0.31,0.14-0.46
		c0.02-0.07,0.05-0.13,0.07-0.2c0.02-0.04,0.03-0.08,0.05-0.11c-0.02,0.06-0.04,0.08,0,0.01c0.13-0.27,0.26-0.53,0.42-0.78
		c0.04-0.05,0.07-0.1,0.11-0.16c0,0,0,0,0,0c0.01-0.01,0.03-0.04,0.03-0.04l0,0c0.09-0.11,0.18-0.21,0.27-0.31
		c0.08-0.09,0.17-0.17,0.26-0.25C30,3.83,30.04,3.8,30.09,3.76c0.09-0.08-0.01,0.01-0.03,0.02c0.03-0.03,0.07-0.05,0.1-0.07
		c0.2-0.14,0.4-0.26,0.62-0.37c0.05-0.02,0.1-0.05,0.15-0.07c-0.19,0.09,0,0,0.05-0.02c0.11-0.04,0.22-0.08,0.34-0.11
		c0.11-0.03,0.23-0.06,0.34-0.08c0.05-0.01,0.11-0.02,0.16-0.03c0.08-0.02-0.08,0.01-0.08,0.01c0.04,0,0.08-0.01,0.12-0.01
		c0.24-0.02,0.47-0.03,0.71-0.01c0.06,0.01,0.12,0.01,0.19,0.02c0.17,0.01-0.11-0.02,0.02,0c0.12,0.02,0.25,0.04,0.37,0.07
		c0.24,0.06,0.46,0.13,0.69,0.22c0.12,0.04-0.13-0.07,0.03,0.01c0.05,0.03,0.1,0.05,0.16,0.07c0.12,0.06,0.23,0.12,0.35,0.19
		c0.1,0.06,0.2,0.12,0.29,0.19c0.06,0.04,0.11,0.08,0.16,0.12c-0.13-0.09,0,0,0.05,0.04c0.2,0.17,0.38,0.35,0.55,0.54
		c0.04,0.05,0.08,0.09,0.12,0.14c0.04,0.05,0.12,0.16,0.04,0.04c0.08,0.12,0.17,0.23,0.25,0.36c0.08,0.13,0.16,0.27,0.23,0.41
		c0.04,0.07,0.07,0.13,0.1,0.2c0.02,0.04,0.11,0.27,0.05,0.12c0.12,0.32,0.23,0.64,0.31,0.98c0.04,0.17,0.07,0.33,0.09,0.5
		c0.02,0.14,0,0.03,0,0c0.01,0.06,0.01,0.11,0.02,0.17c0.01,0.09,0.02,0.18,0.02,0.27c0.03,0.42,0.02,0.83-0.02,1.25
		c-0.03,0.36,0.3,0.67,0.63,0.71c0.38,0.05,0.67-0.17,0.8-0.52c0.3-0.79,0.76-1.7,1.31-2.48c0.06-0.09,0.13-0.18,0.2-0.27
		c-0.08,0.11,0.08-0.1,0.11-0.13c0.14-0.17,0.29-0.34,0.44-0.5c0.28-0.3,0.58-0.57,0.9-0.83c0.02-0.02,0.18-0.14,0.04-0.03
		c0.03-0.02,0.06-0.05,0.09-0.07c0.08-0.06,0.16-0.11,0.24-0.17c0.17-0.11,0.34-0.22,0.51-0.32c0.16-0.09,0.31-0.18,0.47-0.25
		c0.08-0.04,0.17-0.08,0.25-0.12c0.04-0.02,0.08-0.04,0.13-0.06c0.05-0.02,0.03-0.02-0.05,0.02c0.03-0.01,0.07-0.03,0.1-0.04
		c0.34-0.13,0.68-0.24,1.04-0.33c0.17-0.04,0.33-0.07,0.5-0.1c0.04-0.01,0.09-0.01,0.13-0.02c0.17-0.03-0.12,0.01-0.01,0
		c0.1-0.01,0.19-0.02,0.29-0.03c0.35-0.03,0.69-0.03,1.04-0.01c0.09,0.01,0.17,0.01,0.26,0.02c0.05,0.01,0.33,0.05,0.11,0.01
		c0.18,0.03,0.35,0.06,0.53,0.1c0.34,0.08,0.68,0.18,1,0.31c0.03,0.01,0.06,0.03,0.09,0.04c0.17,0.06-0.14-0.07,0.02,0.01
		c0.07,0.03,0.14,0.06,0.21,0.1c0.16,0.08,0.32,0.16,0.47,0.25c0.15,0.09,0.29,0.18,0.43,0.28c0.06,0.04,0.12,0.09,0.19,0.14
		c0.09,0.07-0.13-0.11,0,0c0.04,0.03,0.08,0.07,0.12,0.1c0.28,0.23,0.53,0.49,0.77,0.76c0.05,0.06,0.1,0.12,0.16,0.19
		c0.12,0.14-0.09-0.12,0.02,0.02c0.02,0.03,0.04,0.06,0.06,0.09c0.12,0.16,0.23,0.33,0.33,0.5c0.09,0.14,0.17,0.29,0.25,0.44
		c0.04,0.08,0.08,0.17,0.12,0.26c0.03,0.05,0.05,0.11,0.07,0.16C50.95,7,50.99,7.1,51.02,7.16c0.17,0.43,0.3,0.86,0.4,1.31
		c0.03,0.11,0.05,0.23,0.07,0.35c0.01,0.06,0.02,0.13,0.03,0.19c0.01,0.03,0.03,0.23,0.01,0.07c0.03,0.25,0.05,0.5,0.07,0.74
		c0.03,0.56,0.01,1.12-0.04,1.68c-0.05,0.56-0.15,1.11-0.29,1.73c-0.15,0.64,0.5,1.1,1.07,0.82c0.89-0.44,1.88-0.8,2.93-0.99
		c0.11-0.02,0.22-0.04,0.33-0.05c-0.16,0.02,0.15-0.02,0.19-0.02c0.23-0.02,0.46-0.04,0.68-0.04c0.2,0,0.4,0,0.6,0.01
		c0.1,0.01,0.19,0.02,0.29,0.02C57.4,12.99,57.46,13,57.52,13c-0.19-0.02-0.01,0,0.03,0.01c0.4,0.07,0.79,0.16,1.17,0.3
		c0.08,0.03,0.17,0.06,0.25,0.09c0.04,0.01,0.13,0.06-0.03-0.01c0.05,0.02,0.1,0.04,0.14,0.06c0.17,0.08,0.34,0.17,0.51,0.26
		c0.15,0.09,0.29,0.18,0.43,0.27c0.07,0.05,0.14,0.1,0.21,0.15c0.14,0.1-0.12-0.1,0.01,0.01c0.04,0.03,0.08,0.06,0.12,0.1
		c0.27,0.23,0.52,0.48,0.75,0.74c0.06,0.07,0.12,0.14,0.18,0.21c0.03,0.04,0.1,0.13-0.01-0.01c0.03,0.03,0.05,0.07,0.07,0.1
		c0.11,0.16,0.22,0.32,0.32,0.48c0.18,0.3,0.34,0.62,0.48,0.94c-0.08-0.19,0.02,0.06,0.04,0.11c0.03,0.08,0.06,0.16,0.09,0.24
		c0.06,0.18,0.11,0.35,0.16,0.53c0.04,0.16,0.08,0.33,0.11,0.49c0.02,0.08,0.03,0.17,0.05,0.25c0.01,0.05,0.02,0.1,0.02,0.15
		c-0.03-0.2-0.01-0.04,0,0.01c0.04,0.36,0.06,0.72,0.05,1.09c-0.01,0.18-0.02,0.36-0.03,0.53c-0.01,0.05-0.04,0.33-0.01,0.11
		c-0.02,0.1-0.03,0.2-0.05,0.3c-0.06,0.35-0.16,0.7-0.27,1.04c-0.03,0.08-0.06,0.16-0.09,0.24c-0.02,0.05-0.13,0.3-0.04,0.11
		c-0.08,0.17-0.16,0.35-0.25,0.51c-0.1,0.19-0.21,0.37-0.32,0.54c-0.06,0.09-0.12,0.18-0.18,0.26c-0.02,0.03-0.13,0.17-0.02,0.02
		c-0.03,0.04-0.07,0.08-0.1,0.13c-0.28,0.34-0.59,0.66-0.93,0.94c-0.04,0.03-0.07,0.06-0.11,0.09c-0.14,0.12,0.06-0.04-0.06,0.04
		c-0.09,0.07-0.19,0.14-0.28,0.2c-0.2,0.13-0.4,0.26-0.61,0.37c-0.22,0.12-0.44,0.23-0.67,0.33c0.03-0.01,0.13-0.05-0.01,0
		c-0.07,0.03-0.14,0.06-0.21,0.08c-0.13,0.05-0.27,0.1-0.41,0.14c-0.61,0.2-0.7,0.97-0.17,1.33c0.23,0.15,0.47,0.36,0.71,0.63
		c0.06,0.06,0.11,0.13,0.16,0.19c-0.06-0.08,0.06,0.09,0.08,0.11c0.1,0.15,0.2,0.31,0.28,0.46c0.18,0.33,0.23,0.46,0.35,0.84
		c0.05,0.17,0.1,0.33,0.13,0.5c0.03,0.14,0.08,0.42,0.09,0.5c0.17,1.31-0.07,2.75-0.71,3.9c-0.08,0.15-0.17,0.29-0.26,0.43
		c-0.05,0.07-0.09,0.14-0.14,0.2c-0.05,0.07-0.01,0.01,0.01-0.01c-0.04,0.05-0.07,0.09-0.11,0.13c-0.11,0.12-0.22,0.24-0.34,0.36
		c-0.06,0.06-0.12,0.11-0.18,0.16c-0.03,0.02-0.05,0.04-0.08,0.07c-0.03,0.03-0.04,0.03-0.01,0.01c0.07-0.05,0.03-0.02-0.13,0.1
		c-0.72,0.6-1.45,1.14-2.35,1.43c-1.56,0.5-3.17,0.21-4.61-0.55c-1.67-0.89-3.06-2.29-4.07-3.86c-0.19-0.3-0.57-0.44-0.91-0.3
		c-0.36,0.16-0.48,0.49-0.42,0.86c0.03,0.23-0.01-0.08,0.01,0.05c0.01,0.05,0.01,0.09,0.02,0.14c0.01,0.1,0.02,0.21,0.03,0.31
		c0.02,0.21,0.02,0.42,0.02,0.64c0,0.18-0.01,0.36-0.02,0.55c-0.01,0.1-0.02,0.21-0.03,0.31c0,0.03-0.02,0.14,0-0.01
		c-0.01,0.06-0.02,0.12-0.03,0.18c-0.06,0.35-0.14,0.69-0.25,1.02c-0.03,0.08-0.06,0.16-0.09,0.24c-0.02,0.04-0.12,0.28-0.04,0.11
		c-0.07,0.16-0.15,0.32-0.23,0.47c-0.07,0.13-0.15,0.27-0.23,0.4c-0.05,0.08-0.1,0.15-0.15,0.22c-0.03,0.04-0.19,0.26-0.08,0.11
		c-0.2,0.25-0.41,0.48-0.64,0.7c-0.11,0.11-0.23,0.21-0.35,0.31c-0.16,0.13,0.06-0.04-0.08,0.06c-0.07,0.05-0.14,0.1-0.21,0.15
		c-0.26,0.18-0.54,0.34-0.82,0.48c-0.06,0.03-0.12,0.06-0.19,0.09c-0.04,0.02-0.08,0.04-0.12,0.05c-0.09,0.04,0.12-0.05,0.03-0.01
		c-0.15,0.06-0.3,0.12-0.46,0.17c-0.3,0.1-0.61,0.18-0.92,0.23c-0.08,0.01-0.15,0.03-0.23,0.04c-0.11,0.02,0.13-0.01-0.06,0.01
		c-0.17,0.02-0.34,0.03-0.51,0.04c-0.31,0.01-0.61,0-0.92-0.03c-0.04,0-0.27-0.03-0.16-0.02c0.11,0.02-0.12-0.02-0.16-0.03
		c-0.16-0.03-0.32-0.06-0.47-0.1c-0.14-0.04-0.28-0.08-0.41-0.12c-0.07-0.02-0.14-0.05-0.22-0.08c-0.04-0.02-0.08-0.03-0.12-0.05
		c-0.14-0.05,0.13,0.06-0.02-0.01c-0.28-0.13-0.55-0.27-0.81-0.43c-0.13-0.08-0.26-0.17-0.38-0.27c0.13,0.09-0.01-0.01-0.06-0.05
		c-0.07-0.06-0.15-0.12-0.22-0.19c-0.14-0.13-0.27-0.26-0.39-0.4c-0.06-0.07-0.12-0.14-0.18-0.21c-0.02-0.03-0.05-0.06-0.07-0.09
		c0.11,0.14-0.01-0.01-0.02-0.03c-0.23-0.32-0.43-0.66-0.6-1.02c-0.02-0.05-0.04-0.09-0.06-0.14c-0.06-0.12,0.02,0.06-0.01-0.02
		c-0.04-0.1-0.08-0.21-0.12-0.32c-0.07-0.2-0.13-0.41-0.19-0.62c-0.06-0.22-0.11-0.44-0.15-0.66c-0.06-0.32-0.06-0.33-0.09-0.66
		c-0.04-0.39-0.31-0.72-0.72-0.72c-0.4,0-0.72,0.33-0.72,0.72c-0.01,0.2-0.02,0.4-0.03,0.59c-0.01,0.04-0.01,0.09-0.01,0.13
		c0,0-0.03,0.21-0.01,0.09l0,0c0.01-0.11-0.02,0.14-0.04,0.25c0,0.01,0,0.02,0,0.02c-0.07,0.35-0.16,0.7-0.27,1.03
		c-0.03,0.09-0.07,0.18-0.1,0.27c-0.01,0.03-0.06,0.12,0.01-0.02c-0.02,0.03-0.03,0.07-0.05,0.1c-0.08,0.17-0.16,0.33-0.25,0.49
		c-0.08,0.14-0.17,0.27-0.26,0.41c-0.04,0.06-0.08,0.11-0.12,0.17c-0.07,0.11,0.01-0.01,0.02-0.02c-0.03,0.04-0.07,0.08-0.1,0.12
		c-0.21,0.25-0.44,0.49-0.69,0.7c-0.05,0.04-0.1,0.09-0.16,0.13c-0.13,0.11,0.09-0.07,0.01-0.01c-0.03,0.03-0.07,0.05-0.1,0.08
		c-0.12,0.09-0.25,0.17-0.38,0.25c-0.13,0.08-0.26,0.16-0.4,0.22c-0.07,0.04-0.15,0.08-0.23,0.11c-0.05,0.02-0.29,0.12-0.1,0.05
		c-0.29,0.12-0.58,0.22-0.88,0.29c-0.14,0.04-0.28,0.07-0.42,0.09c-0.08,0.02-0.17,0.03-0.25,0.04c-0.2,0.03,0.1-0.01-0.11,0.02
		c-0.31,0.03-0.62,0.05-0.94,0.04c-0.14,0-0.29-0.01-0.43-0.02c-0.08-0.01-0.17-0.02-0.25-0.03c-0.04,0-0.14-0.02,0.04,0.01
		c-0.05-0.01-0.1-0.02-0.15-0.02c-0.31-0.05-0.61-0.12-0.91-0.21c-0.14-0.04-0.27-0.09-0.41-0.14c-0.04-0.02-0.3-0.12-0.11-0.04
		c-0.08-0.03-0.16-0.07-0.23-0.1c-0.28-0.13-0.55-0.29-0.81-0.46c-0.06-0.04-0.12-0.09-0.19-0.13c-0.17-0.12,0.06,0.05-0.08-0.06
		c-0.12-0.1-0.25-0.21-0.37-0.32c-0.11-0.11-0.22-0.22-0.32-0.33c-0.05-0.05-0.09-0.1-0.14-0.16c-0.03-0.03-0.06-0.07-0.08-0.1
		c-0.04-0.05,0.08,0.11-0.02-0.02c-0.22-0.3-0.41-0.61-0.57-0.95c-0.02-0.04-0.04-0.08-0.06-0.12c-0.01-0.02-0.08-0.19-0.04-0.09
		c0.04,0.11-0.03-0.07-0.03-0.07c-0.02-0.05-0.04-0.11-0.06-0.16c-0.07-0.18-0.12-0.37-0.17-0.56c-0.05-0.21-0.1-0.41-0.13-0.63
		c-0.01-0.04-0.01-0.08-0.02-0.12c-0.01-0.05-0.01-0.04,0.01,0.04c-0.01-0.03-0.01-0.06-0.01-0.09c-0.01-0.12-0.03-0.24-0.03-0.36
		c-0.03-0.49-0.02-0.97,0.02-1.46c0.06-0.74-1.01-0.96-1.35-0.37c-0.65,1.11-1.33,2.06-2.28,2.93c-0.45,0.42-0.69,0.61-1.19,0.92
		c-0.2,0.12-0.39,0.24-0.6,0.34c-0.09,0.05-0.18,0.09-0.27,0.13c-0.05,0.03-0.11,0.05-0.17,0.07c0.17-0.07-0.07,0.03-0.1,0.04
		c-0.41,0.16-0.83,0.28-1.26,0.35c-0.05,0.01-0.11,0.02-0.17,0.03c-0.19,0.03,0.16-0.01-0.03,0c-0.11,0.01-0.22,0.02-0.33,0.03
		c-0.22,0.02-0.43,0.02-0.65,0.01c-0.2-0.01-0.39-0.03-0.58-0.05c-0.18-0.02,0.16,0.03-0.02,0c-0.05-0.01-0.1-0.02-0.16-0.03
		c-0.1-0.02-0.21-0.04-0.31-0.06c-0.19-0.04-0.38-0.09-0.56-0.15c-0.1-0.03-0.2-0.07-0.3-0.1c-0.06-0.02-0.4-0.16-0.22-0.08
		c-0.37-0.17-0.73-0.35-1.07-0.57c-0.16-0.1-0.32-0.22-0.48-0.33c-0.03-0.02-0.17-0.13-0.02-0.02c-0.04-0.03-0.08-0.07-0.12-0.1
		c-0.08-0.07-0.16-0.13-0.24-0.21c-0.32-0.28-0.61-0.59-0.88-0.92c-0.03-0.04-0.2-0.26-0.08-0.1c-0.06-0.08-0.13-0.17-0.19-0.26
		c-0.12-0.17-0.24-0.35-0.35-0.53c-0.1-0.17-0.19-0.34-0.28-0.51c-0.05-0.09-0.09-0.19-0.14-0.29c-0.02-0.03-0.08-0.2-0.01-0.02
		c-0.02-0.06-0.05-0.11-0.07-0.17c-0.15-0.39-0.27-0.79-0.35-1.19c-0.02-0.1-0.04-0.21-0.06-0.31c-0.01-0.04-0.01-0.07-0.02-0.1
		c-0.03-0.18,0.01,0.17,0-0.02c-0.02-0.21-0.04-0.42-0.04-0.64c-0.01-0.21,0-0.43,0.02-0.64c0.01-0.09,0.02-0.18,0.03-0.27
		c0.01-0.04,0.04-0.22,0-0.02c0.01-0.07,0.02-0.14,0.04-0.22c0.09-0.48,0.23-0.95,0.41-1.4c-0.07,0.16,0.07-0.14,0.09-0.2
		c0.06-0.12,0.12-0.25,0.19-0.37c0.13-0.23,0.27-0.46,0.43-0.68c0.04-0.05,0.07-0.1,0.11-0.15c0.05-0.07,0.05-0.07,0-0.01
		c0.03-0.03,0.05-0.07,0.08-0.1c0.08-0.1,0.17-0.2,0.25-0.3c0.2-0.22,0.4-0.43,0.62-0.64c0.52-0.48,0.92-0.78,1.53-1.17
		c0.6-0.38,0.37-1.35-0.37-1.35c-0.32,0-0.64-0.01-0.96-0.03c-0.15-0.01-0.29-0.02-0.44-0.04C8.08,23.74,8,23.73,7.92,23.72
		c-0.09-0.01,0.02,0,0.03,0.01c-0.04-0.01-0.09-0.01-0.13-0.02c-0.55-0.08-1.1-0.21-1.63-0.38c-0.12-0.04-0.24-0.08-0.35-0.12
		c-0.06-0.02-0.12-0.05-0.18-0.07c-0.06-0.02-0.19-0.08-0.06-0.02c-0.22-0.1-0.44-0.2-0.66-0.32c-0.21-0.11-0.42-0.24-0.62-0.38
		c-0.09-0.06-0.18-0.12-0.27-0.19c-0.07-0.05-0.1-0.08-0.01-0.01c-0.05-0.04-0.1-0.08-0.16-0.12c-0.33-0.28-0.64-0.58-0.92-0.92
		c-0.04-0.04-0.07-0.09-0.1-0.13c-0.03-0.03,0.08,0.12,0,0c-0.07-0.09-0.13-0.19-0.2-0.28c-0.11-0.17-0.22-0.35-0.32-0.53
		c-0.1-0.18-0.18-0.37-0.27-0.55c0.09,0.19-0.03-0.07-0.05-0.14c-0.04-0.1-0.07-0.2-0.1-0.3c-0.13-0.39-0.21-0.8-0.28-1.2
		c-0.02-0.13,0.02,0.15,0,0.02C1.64,18,1.63,17.95,1.63,17.9c-0.01-0.1-0.02-0.21-0.03-0.31c-0.01-0.2-0.02-0.4-0.01-0.6
		c0.01-0.2,0.02-0.4,0.04-0.61c0.01-0.08,0.05-0.36,0.01-0.14c0.02-0.1,0.03-0.21,0.05-0.31c0.07-0.4,0.18-0.8,0.32-1.19
		c0.03-0.09,0.07-0.18,0.1-0.27c0.02-0.04,0.03-0.08,0.05-0.12c-0.08,0.2-0.01,0.02,0.02-0.03c0.08-0.18,0.17-0.36,0.27-0.54
		c0.1-0.18,0.21-0.36,0.33-0.54c0.05-0.08,0.11-0.16,0.17-0.24c0.03-0.04,0.05-0.07,0.08-0.11c0.06-0.08-0.09,0.11,0.03-0.03
		c0.26-0.32,0.54-0.61,0.85-0.88c0.07-0.07,0.15-0.13,0.23-0.19c0.14-0.11-0.09,0.06,0.02-0.01c0.04-0.03,0.09-0.06,0.13-0.09
		c0.18-0.12,0.36-0.24,0.55-0.35c0.18-0.11,0.37-0.2,0.57-0.29c0.04-0.02,0.09-0.04,0.13-0.06c-0.19,0.08-0.02,0.01,0.03-0.01
		c0.11-0.04,0.21-0.08,0.32-0.12c0.21-0.07,0.43-0.13,0.65-0.18c0.11-0.03,0.22-0.05,0.32-0.07c0.06-0.01,0.12-0.02,0.18-0.03
		c0.05-0.01,0.27-0.04,0.07-0.01c0.49-0.06,0.99-0.08,1.48-0.05c0.13,0.01,0.25,0.02,0.38,0.03c0.07,0.01,0.14,0.01,0.21,0.02
		c0.03,0,0.06,0.01,0.09,0.01c0.11,0.01-0.12-0.02-0.01,0c0.28,0.04,0.55,0.09,0.83,0.15c0.61,0.14,1.21,0.32,1.79,0.55
		c0.07,0.03,0.14,0.05,0.2,0.08c0.03,0.01,0.22,0.09,0.13,0.06c0.16,0.07,0.33,0.14,0.49,0.22c0.36,0.17,0.78,0.1,0.99-0.26
		C13.83,11.04,13.74,10.53,13.39,10.37z"/>
	<path class="st1" d="M22.64,24.71c-0.2-0.29-0.38-0.58-0.53-0.9c-0.03-0.07-0.06-0.13-0.09-0.2c-0.06-0.12-0.01-0.02,0,0.01
		c-0.02-0.04-0.03-0.07-0.04-0.11c-0.05-0.14-0.1-0.29-0.14-0.44c-0.04-0.13-0.07-0.27-0.09-0.4c-0.01-0.07-0.03-0.19-0.01-0.04
		c-0.01-0.08-0.02-0.16-0.02-0.23c-0.01-0.12-0.01-0.25-0.01-0.38c0-0.06,0.01-0.11,0.01-0.17c0.01-0.05,0.04-0.29,0-0.07
		c0.04-0.24,0.09-0.48,0.18-0.71c0.02-0.05,0.04-0.1,0.06-0.15c-0.06,0.15-0.02,0.04,0.02-0.04c0.05-0.11,0.11-0.22,0.18-0.32
		c0.06-0.09,0.12-0.18,0.18-0.27c0.11-0.16-0.05,0.05,0.03-0.04c0.04-0.05,0.08-0.09,0.12-0.14c0.17-0.19,0.35-0.35,0.54-0.51
		c0.09-0.08-0.13,0.09,0.02-0.02c0.05-0.03,0.09-0.06,0.13-0.09c0.1-0.07,0.21-0.14,0.32-0.2c0.1-0.06,0.21-0.11,0.31-0.17
		c0.05-0.03,0.1-0.05,0.15-0.07c0.18-0.09-0.09,0.03,0.07-0.03c0.23-0.08,0.46-0.16,0.7-0.22c0.12-0.03,0.23-0.05,0.35-0.07
		c0.1-0.02,0.16-0.02,0.02-0.01c0.07-0.01,0.14-0.02,0.21-0.02c0.25-0.02,0.49-0.02,0.74-0.01c0.06,0,0.11,0.01,0.17,0.02
		c0.03,0,0.06,0.01,0.09,0.01c0.1,0.01-0.15-0.03-0.05-0.01c0.12,0.02,0.25,0.04,0.38,0.07c0.12,0.03,0.23,0.06,0.35,0.1
		c0.05,0.02,0.11,0.04,0.16,0.06c0.03,0.01,0.06,0.02,0.09,0.04c0.09,0.03-0.16-0.08-0.02-0.01c0.22,0.11,0.44,0.22,0.64,0.36
		c0.03,0.02,0.21,0.15,0.13,0.09c-0.07-0.06,0.09,0.08,0.12,0.1c0.11,0.1,0.22,0.2,0.32,0.31c0.05,0.06,0.11,0.12,0.16,0.18
		c0.04,0.05,0.14,0.19,0.06,0.07c0.1,0.14,0.19,0.27,0.28,0.42c0.09,0.14,0.16,0.29,0.23,0.44c0.02,0.04,0.03,0.07,0.05,0.11
		c0.05,0.1-0.06-0.16,0.01,0.03c0.03,0.08,0.06,0.16,0.09,0.24c0.14,0.39,0.23,0.79,0.31,1.2c0.07,0.39,0.54,0.6,0.89,0.51
		c0.41-0.11,0.57-0.5,0.51-0.89c-0.12-0.74-0.17-1.74-0.07-2.6c0.01-0.05,0.01-0.11,0.02-0.16c0,0.03-0.02,0.14,0,0
		c0.02-0.09,0.03-0.19,0.05-0.28c0.04-0.19,0.08-0.37,0.12-0.56c0.05-0.17,0.1-0.33,0.15-0.49c0.03-0.08,0.06-0.16,0.09-0.23
		c0.02-0.04,0.07-0.16,0,0c0.02-0.05,0.04-0.1,0.07-0.15c0.13-0.28,0.28-0.55,0.46-0.81c0.05-0.07,0.1-0.13,0.14-0.2
		c-0.09,0.13-0.01,0.01,0.04-0.05c0.1-0.12,0.21-0.24,0.33-0.35c0.1-0.1,0.2-0.19,0.31-0.28c0.06-0.05,0.16-0.12,0.04-0.03
		c0.07-0.05,0.13-0.1,0.21-0.14c0.23-0.16,0.48-0.28,0.73-0.4c0.14-0.07-0.12,0.05-0.03,0.01c0.04-0.01,0.07-0.03,0.1-0.04
		c0.06-0.02,0.11-0.04,0.17-0.06c0.14-0.05,0.28-0.09,0.42-0.12c0.13-0.03,0.26-0.05,0.39-0.07c-0.15,0.03-0.07,0.01,0.03,0
		c0.08-0.01,0.16-0.01,0.24-0.02c0.27-0.01,0.54,0.01,0.81,0.03c-0.23-0.02-0.01,0,0.05,0.01c0.07,0.01,0.13,0.03,0.2,0.04
		c0.14,0.03,0.29,0.07,0.43,0.11c0.12,0.04,0.24,0.08,0.36,0.13c0.1,0.04-0.17-0.08-0.03-0.01c0.03,0.01,0.06,0.03,0.08,0.04
		c0.07,0.03,0.14,0.07,0.2,0.1c0.12,0.06,0.24,0.13,0.36,0.21c0.07,0.04,0.13,0.08,0.19,0.13c0.05,0.03,0.24,0.19,0.08,0.05
		c0.23,0.19,0.45,0.39,0.65,0.61c0.05,0.06,0.1,0.11,0.14,0.17c0.02,0.03,0.04,0.05,0.06,0.08c0.11,0.13-0.07-0.09-0.01-0.01
		c0.1,0.13,0.19,0.26,0.27,0.4c0.1,0.16,0.19,0.32,0.27,0.49c0.05,0.09,0.09,0.18,0.13,0.27c0.02,0.03,0.05,0.13-0.01-0.02
		c0.02,0.05,0.04,0.1,0.06,0.16c0.15,0.39,0.26,0.79,0.34,1.2c0.02,0.1,0.04,0.21,0.05,0.31c0.01,0.04,0.01,0.08,0.02,0.13
		c-0.02-0.16,0,0.03,0.01,0.07c0.03,0.25,0.04,0.5,0.05,0.75c0.02,0.52-0.01,1.04-0.07,1.56c-0.08,0.7,1.08,1.02,1.35,0.37
		c0.12-0.27,0.25-0.54,0.4-0.8c0.07-0.12,0.15-0.24,0.23-0.35c0.04-0.06,0.08-0.11,0.12-0.17c-0.08,0.1,0.03-0.04,0.05-0.06
		c0.17-0.2,0.34-0.38,0.54-0.54c0.05-0.04,0.09-0.08,0.14-0.12c-0.13,0.1,0.03-0.02,0.05-0.03c0.1-0.07,0.2-0.13,0.3-0.2
		c0.1-0.06,0.2-0.12,0.31-0.17c0.05-0.03,0.11-0.05,0.16-0.07c0.17-0.08-0.14,0.04,0.04-0.02c0.22-0.07,0.43-0.15,0.66-0.2
		c0.11-0.03,0.22-0.04,0.33-0.06c-0.2,0.03,0.14-0.01,0.2-0.01c0.22-0.01,0.45-0.01,0.67,0.01c0.06,0.01,0.11,0.01,0.17,0.02
		c0.19,0.02-0.16-0.03,0.03,0.01c0.11,0.02,0.22,0.04,0.33,0.06c0.22,0.05,0.43,0.11,0.64,0.19c0.05,0.02,0.1,0.04,0.16,0.06
		c-0.17-0.07,0,0,0.03,0.02c0.1,0.05,0.2,0.1,0.3,0.15c0.2,0.11,0.38,0.23,0.56,0.36c0.16,0.1-0.11-0.1,0.03,0.02
		c0.04,0.04,0.09,0.07,0.13,0.11c0.08,0.07,0.17,0.15,0.24,0.22c0.07,0.07,0.13,0.13,0.19,0.2c0.04,0.04,0.07,0.08,0.11,0.12
		c0.13,0.15-0.01-0.03,0.06,0.07c0.11,0.17,0.23,0.34,0.32,0.52c0.05,0.1,0.1,0.2,0.14,0.3c-0.07-0.17,0,0.01,0.01,0.04
		c0.02,0.07,0.05,0.14,0.07,0.22c0.04,0.13,0.07,0.26,0.1,0.39c0.01,0.04,0.02,0.08,0.02,0.11c0.01,0.04,0.01,0.08,0.02,0.12
		c-0.01-0.1-0.01-0.1-0.01-0.02c0.02,0.29,0.03,0.57,0,0.86c0,0.02-0.03,0.23-0.01,0.06c-0.01,0.07-0.02,0.13-0.03,0.2
		c-0.03,0.16-0.07,0.31-0.11,0.47c-0.1,0.36-0.19,0.58-0.33,0.86c-0.17,0.35-0.1,0.78,0.26,0.99c0.32,0.19,0.82,0.09,0.99-0.26
		c0.56-1.18,0.84-2.46,0.58-3.75c-0.21-1.05-0.8-2.03-1.6-2.73c-1.68-1.46-4.1-1.87-6.13-0.92c-1.05,0.49-1.88,1.36-2.43,2.37
		c-0.18,0.32,0.01,0.71,0.37,0.8l0,0c0.36,0.1,0.72-0.15,0.74-0.52c0.08-1.57-0.16-3.17-0.9-4.57c-0.67-1.26-1.75-2.25-3.07-2.79
		c-2.58-1.04-5.52,0.11-6.87,2.5c-0.89,1.58-1.05,3.41-0.88,5.19c0.04,0.43,0.46,0.7,0.88,0.58l0,0c0.35-0.1,0.58-0.45,0.49-0.81
		c-0.3-1.16-0.88-2.28-1.82-3.06c-0.96-0.79-2.15-1.2-3.39-1.19c-2.3,0.03-4.7,1.48-5.28,3.8c-0.38,1.55,0.12,3.12,1.01,4.4
		c0.22,0.32,0.64,0.47,0.99,0.26C22.7,25.52,22.87,25.04,22.64,24.71z"/>
	<path class="st1" d="M13.39,10.37c-2.25-1.05-4.78-1.67-7.25-1.1c-1.89,0.43-3.53,1.61-4.61,3.21c-1,1.49-1.49,3.35-1.38,5.13
		c0.12,1.9,0.88,3.72,2.22,5.08c1.64,1.64,3.91,2.39,6.18,2.56c0.1,0.01,0.2,0.01,0.3,0.02c0.35,0.02,0.6-0.31,0.51-0.65l0,0
		c-0.09-0.34-0.49-0.49-0.78-0.29c-1.7,1.21-3.1,2.84-3.67,4.88c-0.51,1.86-0.25,3.84,0.6,5.56c1.67,3.39,5.61,5.56,9.35,4.5
		c2.46-0.7,4.35-2.58,5.7-4.69c0.2-0.31,0.03-0.72-0.32-0.81l0,0c-0.34-0.09-0.68,0.14-0.68,0.49c-0.03,1.49,0.29,2.99,1.08,4.26
		c0.8,1.28,2.01,2.21,3.41,2.75c2.64,1.02,5.9,0.42,7.89-1.62c1.15-1.17,1.76-2.71,1.92-4.32c0.04-0.38-0.27-0.7-0.66-0.7l0,0
		c-0.4,0-0.72,0.35-0.66,0.74c0.25,1.5,0.81,2.93,1.85,4.07c0.96,1.06,2.3,1.78,3.7,2.03c2.92,0.52,6.02-0.72,7.64-3.24
		c0.92-1.44,1.2-3.12,1.08-4.79c-0.03-0.38-0.42-0.6-0.77-0.45l0,0c-0.33,0.14-0.46,0.55-0.25,0.84c2.1,2.94,5.6,5.46,9.35,4.66
		c1.06-0.23,2.04-0.73,2.89-1.39c0.71-0.55,1.38-1.13,1.89-1.88c0.91-1.35,1.31-3.09,1.2-4.71c-0.11-1.7-0.76-3.32-2.03-4.44
		c-0.23-0.2-0.58-0.05-0.62,0.26l0,0c-0.04,0.3,0.25,0.54,0.54,0.43c1.55-0.63,2.91-1.65,3.84-3.08c0.89-1.37,1.32-3.04,1.24-4.67
		c-0.15-3.33-2.31-6.47-5.64-7.29c-2.12-0.52-4.3-0.07-6.27,0.79c-0.29,0.13-0.33,0.51-0.08,0.7l0,0c0.24,0.19,0.6,0.06,0.66-0.24
		c0.36-1.88,0.4-3.86-0.19-5.69c-0.53-1.63-1.52-3.06-2.93-4.05c-2.69-1.9-6.41-1.67-9.06,0.17c-1.65,1.15-2.85,2.77-3.65,4.59
		c-0.16,0.37,0.08,0.78,0.48,0.83l0,0c0.35,0.05,0.68-0.21,0.68-0.57c0.01-2.47-1.08-5-3.41-6.12c-2.15-1.04-4.8-0.62-6.33,1.29
		c-0.93,1.16-1.34,2.59-1.45,4.05c-0.03,0.39,0.32,0.7,0.71,0.64l0,0c0.37-0.05,0.63-0.41,0.53-0.77c-0.48-1.82-1.37-3.57-2.79-4.82
		c-1.34-1.18-3.02-1.85-4.8-1.96c-3.26-0.21-6.8,1.55-8.2,4.59c-0.88,1.92-0.83,4.08-0.05,6.03c0.14,0.36,0.49,0.62,0.89,0.51
		c0.35-0.09,0.65-0.53,0.51-0.89c-0.18-0.44-0.32-0.89-0.42-1.36c-0.02-0.09-0.04-0.19-0.06-0.28C13.23,9.11,13.23,9.05,13.22,9
		c-0.04-0.19,0.02,0.16-0.01-0.03c-0.02-0.2-0.04-0.4-0.05-0.61c-0.01-0.2-0.01-0.39,0.01-0.59c0.01-0.09,0.01-0.18,0.02-0.26
		c0.01-0.05,0.01-0.1,0.02-0.16c-0.02,0.22,0-0.02,0.01-0.06c0.06-0.36,0.15-0.72,0.28-1.07c0.03-0.08,0.06-0.16,0.09-0.23
		c0.06-0.16-0.07,0.15,0-0.01c0.02-0.04,0.04-0.09,0.06-0.13c0.08-0.17,0.17-0.34,0.26-0.5C14,5.2,14.09,5.06,14.19,4.92
		c0.06-0.08,0.11-0.16,0.17-0.24c-0.12,0.16,0.06-0.07,0.1-0.12c0.23-0.27,0.48-0.53,0.76-0.77c0.07-0.07,0.15-0.13,0.23-0.19
		c0.03-0.02,0.05-0.04,0.08-0.06c0.13-0.11-0.13,0.09,0.01-0.01c0.16-0.11,0.32-0.23,0.49-0.34c0.31-0.2,0.63-0.37,0.96-0.52
		c0.05-0.02,0.09-0.04,0.14-0.06C17.27,2.54,17,2.66,17.1,2.62c0.08-0.04,0.17-0.07,0.26-0.1c0.19-0.07,0.38-0.13,0.57-0.19
		c0.35-0.1,0.71-0.19,1.08-0.24c0.05-0.01,0.1-0.02,0.15-0.02c-0.19,0.03-0.08,0.01-0.04,0.01c0.1-0.01,0.2-0.02,0.3-0.03
		c0.19-0.02,0.37-0.02,0.55-0.03c0.19,0,0.37,0,0.55,0.01c0.09,0.01,0.19,0.01,0.28,0.02c0.06,0.01,0.4,0.05,0.18,0.02
		c0.37,0.06,0.73,0.13,1.09,0.24c0.18,0.05,0.36,0.12,0.53,0.19c0.05,0.02,0.1,0.04,0.14,0.06c-0.16-0.07-0.07-0.03-0.03-0.01
		c0.11,0.05,0.22,0.1,0.33,0.16c0.35,0.18,0.67,0.38,0.99,0.61c0.03,0.02,0.17,0.13,0.03,0.02c0.04,0.03,0.08,0.07,0.13,0.1
		c0.1,0.08,0.2,0.17,0.29,0.25c0.17,0.15,0.32,0.31,0.47,0.48c0.08,0.09,0.17,0.19,0.24,0.28c0.03,0.04,0.06,0.08,0.09,0.11
		c-0.11-0.14,0.05,0.06,0.06,0.09c0.14,0.2,0.28,0.4,0.4,0.61c0.14,0.24,0.27,0.48,0.39,0.72c0.14,0.3,0.16,0.33,0.27,0.63
		c0.22,0.59,0.39,1.21,0.52,1.83c0.17,0.81,1.42,0.61,1.43-0.19c0-0.39,0.02-0.77,0.07-1.15c0.02-0.15,0.01-0.05,0-0.02
		c0.01-0.05,0.02-0.09,0.02-0.14c0.01-0.08,0.03-0.16,0.04-0.24c0.03-0.17,0.07-0.33,0.11-0.49c0.04-0.16,0.09-0.31,0.14-0.46
		c0.02-0.07,0.05-0.13,0.07-0.2c0.02-0.04,0.03-0.08,0.05-0.11c-0.02,0.06-0.04,0.08,0,0.01c0.13-0.27,0.26-0.53,0.42-0.78
		c0.04-0.05,0.07-0.1,0.11-0.16c0,0,0,0,0,0c0.01-0.01,0.03-0.04,0.03-0.04l0,0c0.09-0.11,0.18-0.21,0.27-0.31
		c0.08-0.09,0.17-0.17,0.26-0.25C30,3.83,30.04,3.8,30.09,3.76c0.09-0.08-0.01,0.01-0.03,0.02c0.03-0.03,0.07-0.05,0.1-0.07
		c0.2-0.14,0.4-0.26,0.62-0.37c0.05-0.02,0.1-0.05,0.15-0.07c-0.19,0.09,0,0,0.05-0.02c0.11-0.04,0.22-0.08,0.34-0.11
		c0.11-0.03,0.23-0.06,0.34-0.08c0.05-0.01,0.11-0.02,0.16-0.03c0.08-0.02-0.08,0.01-0.08,0.01c0.04,0,0.08-0.01,0.12-0.01
		c0.24-0.02,0.47-0.03,0.71-0.01c0.06,0.01,0.12,0.01,0.19,0.02c0.17,0.01-0.11-0.02,0.02,0c0.12,0.02,0.25,0.04,0.37,0.07
		c0.24,0.06,0.46,0.13,0.69,0.22c0.12,0.04-0.13-0.07,0.03,0.01c0.05,0.03,0.1,0.05,0.16,0.07c0.12,0.06,0.23,0.12,0.35,0.19
		c0.1,0.06,0.2,0.12,0.29,0.19c0.06,0.04,0.11,0.08,0.16,0.12c-0.13-0.09,0,0,0.05,0.04c0.2,0.17,0.38,0.35,0.55,0.54
		c0.04,0.05,0.08,0.09,0.12,0.14c0.04,0.05,0.12,0.16,0.04,0.04c0.08,0.12,0.17,0.23,0.25,0.36c0.08,0.13,0.16,0.27,0.23,0.41
		c0.04,0.07,0.07,0.13,0.1,0.2c0.02,0.04,0.11,0.27,0.05,0.12c0.12,0.32,0.23,0.64,0.31,0.98c0.04,0.17,0.07,0.33,0.09,0.5
		c0.02,0.14,0,0.03,0,0c0.01,0.06,0.01,0.11,0.02,0.17c0.01,0.09,0.02,0.18,0.02,0.27c0.03,0.42,0.02,0.83-0.02,1.25
		c-0.03,0.36,0.3,0.67,0.63,0.71c0.38,0.05,0.67-0.17,0.8-0.52c0.3-0.79,0.76-1.7,1.31-2.48c0.06-0.09,0.13-0.18,0.2-0.27
		c-0.08,0.11,0.08-0.1,0.11-0.13c0.14-0.17,0.29-0.34,0.44-0.5c0.28-0.3,0.58-0.57,0.9-0.83c0.02-0.02,0.18-0.14,0.04-0.03
		c0.03-0.02,0.06-0.05,0.09-0.07c0.08-0.06,0.16-0.11,0.24-0.17c0.17-0.11,0.34-0.22,0.51-0.32c0.16-0.09,0.31-0.18,0.47-0.25
		c0.08-0.04,0.17-0.08,0.25-0.12c0.04-0.02,0.08-0.04,0.13-0.06c0.05-0.02,0.03-0.02-0.05,0.02c0.03-0.01,0.07-0.03,0.1-0.04
		c0.34-0.13,0.68-0.24,1.04-0.33c0.17-0.04,0.33-0.07,0.5-0.1c0.04-0.01,0.09-0.01,0.13-0.02c0.17-0.03-0.12,0.01-0.01,0
		c0.1-0.01,0.19-0.02,0.29-0.03c0.35-0.03,0.69-0.03,1.04-0.01c0.09,0.01,0.17,0.01,0.26,0.02c0.05,0.01,0.33,0.05,0.11,0.01
		c0.18,0.03,0.35,0.06,0.53,0.1c0.34,0.08,0.68,0.18,1,0.31c0.03,0.01,0.06,0.03,0.09,0.04c0.17,0.06-0.14-0.07,0.02,0.01
		c0.07,0.03,0.14,0.06,0.21,0.1c0.16,0.08,0.32,0.16,0.47,0.25c0.15,0.09,0.29,0.18,0.43,0.28c0.06,0.04,0.12,0.09,0.19,0.14
		c0.09,0.07-0.13-0.11,0,0c0.04,0.03,0.08,0.07,0.12,0.1c0.28,0.23,0.53,0.49,0.77,0.76c0.05,0.06,0.1,0.12,0.16,0.19
		c0.12,0.14-0.09-0.12,0.02,0.02c0.02,0.03,0.04,0.06,0.06,0.09c0.12,0.16,0.23,0.33,0.33,0.5c0.09,0.14,0.17,0.29,0.25,0.44
		c0.04,0.08,0.08,0.17,0.12,0.26c0.03,0.05,0.05,0.11,0.07,0.16C50.95,7,50.99,7.1,51.02,7.16c0.17,0.43,0.3,0.86,0.4,1.31
		c0.03,0.11,0.05,0.23,0.07,0.35c0.01,0.06,0.02,0.13,0.03,0.19c0.01,0.03,0.03,0.23,0.01,0.07c0.03,0.25,0.05,0.5,0.07,0.74
		c0.03,0.56,0.01,1.12-0.04,1.68c-0.05,0.56-0.15,1.11-0.29,1.73c-0.15,0.64,0.5,1.1,1.07,0.82c0.89-0.44,1.88-0.8,2.93-0.99
		c0.11-0.02,0.22-0.04,0.33-0.05c-0.16,0.02,0.15-0.02,0.19-0.02c0.23-0.02,0.46-0.04,0.68-0.04c0.2,0,0.4,0,0.6,0.01
		c0.1,0.01,0.19,0.02,0.29,0.02C57.4,12.99,57.46,13,57.52,13c-0.19-0.02-0.01,0,0.03,0.01c0.4,0.07,0.79,0.16,1.17,0.3
		c0.08,0.03,0.17,0.06,0.25,0.09c0.04,0.01,0.13,0.06-0.03-0.01c0.05,0.02,0.1,0.04,0.14,0.06c0.17,0.08,0.34,0.17,0.51,0.26
		c0.15,0.09,0.29,0.18,0.43,0.27c0.07,0.05,0.14,0.1,0.21,0.15c0.14,0.1-0.12-0.1,0.01,0.01c0.04,0.03,0.08,0.06,0.12,0.1
		c0.27,0.23,0.52,0.48,0.75,0.74c0.06,0.07,0.12,0.14,0.18,0.21c0.03,0.04,0.1,0.13-0.01-0.01c0.03,0.03,0.05,0.07,0.07,0.1
		c0.11,0.16,0.22,0.32,0.32,0.48c0.18,0.3,0.34,0.62,0.48,0.94c-0.08-0.19,0.02,0.06,0.04,0.11c0.03,0.08,0.06,0.16,0.09,0.24
		c0.06,0.18,0.11,0.35,0.16,0.53c0.04,0.16,0.08,0.33,0.11,0.49c0.02,0.08,0.03,0.17,0.05,0.25c0.01,0.05,0.02,0.1,0.02,0.15
		c-0.03-0.2-0.01-0.04,0,0.01c0.04,0.36,0.06,0.72,0.05,1.09c-0.01,0.18-0.02,0.36-0.03,0.53c-0.01,0.05-0.04,0.33-0.01,0.11
		c-0.02,0.1-0.03,0.2-0.05,0.3c-0.06,0.35-0.16,0.7-0.27,1.04c-0.03,0.08-0.06,0.16-0.09,0.24c-0.02,0.05-0.13,0.3-0.04,0.11
		c-0.08,0.17-0.16,0.35-0.25,0.51c-0.1,0.19-0.21,0.37-0.32,0.54c-0.06,0.09-0.12,0.18-0.18,0.26c-0.02,0.03-0.13,0.17-0.02,0.02
		c-0.03,0.04-0.07,0.08-0.1,0.13c-0.28,0.34-0.59,0.66-0.93,0.94c-0.04,0.03-0.07,0.06-0.11,0.09c-0.14,0.12,0.06-0.04-0.06,0.04
		c-0.09,0.07-0.19,0.14-0.28,0.2c-0.2,0.13-0.4,0.26-0.61,0.37c-0.22,0.12-0.44,0.23-0.67,0.33c0.03-0.01,0.13-0.05-0.01,0
		c-0.07,0.03-0.14,0.06-0.21,0.08c-0.13,0.05-0.27,0.1-0.41,0.14c-0.61,0.2-0.7,0.97-0.17,1.33c0.23,0.15,0.47,0.36,0.71,0.63
		c0.06,0.06,0.11,0.13,0.16,0.19c-0.06-0.08,0.06,0.09,0.08,0.11c0.1,0.15,0.2,0.31,0.28,0.46c0.18,0.33,0.23,0.46,0.35,0.84
		c0.05,0.17,0.1,0.33,0.13,0.5c0.03,0.14,0.08,0.42,0.09,0.5c0.17,1.31-0.07,2.75-0.71,3.9c-0.08,0.15-0.17,0.29-0.26,0.43
		c-0.05,0.07-0.09,0.14-0.14,0.2c-0.05,0.07-0.01,0.01,0.01-0.01c-0.04,0.05-0.07,0.09-0.11,0.13c-0.11,0.12-0.22,0.24-0.34,0.36
		c-0.06,0.06-0.12,0.11-0.18,0.16c-0.03,0.02-0.05,0.04-0.08,0.07c-0.03,0.03-0.04,0.03-0.01,0.01c0.07-0.05,0.03-0.02-0.13,0.1
		c-0.72,0.6-1.45,1.14-2.35,1.43c-1.56,0.5-3.17,0.21-4.61-0.55c-1.67-0.89-3.06-2.29-4.07-3.86c-0.19-0.3-0.57-0.44-0.91-0.3
		c-0.36,0.16-0.48,0.49-0.42,0.86c0.03,0.23-0.01-0.08,0.01,0.05c0.01,0.05,0.01,0.09,0.02,0.14c0.01,0.1,0.02,0.21,0.03,0.31
		c0.02,0.21,0.02,0.42,0.02,0.64c0,0.18-0.01,0.36-0.02,0.55c-0.01,0.1-0.02,0.21-0.03,0.31c0,0.03-0.02,0.14,0-0.01
		c-0.01,0.06-0.02,0.12-0.03,0.18c-0.06,0.35-0.14,0.69-0.25,1.02c-0.03,0.08-0.06,0.16-0.09,0.24c-0.02,0.04-0.12,0.28-0.04,0.11
		c-0.07,0.16-0.15,0.32-0.23,0.47c-0.07,0.13-0.15,0.27-0.23,0.4c-0.05,0.08-0.1,0.15-0.15,0.22c-0.03,0.04-0.19,0.26-0.08,0.11
		c-0.2,0.25-0.41,0.48-0.64,0.7c-0.11,0.11-0.23,0.21-0.35,0.31c-0.16,0.13,0.06-0.04-0.08,0.06c-0.07,0.05-0.14,0.1-0.21,0.15
		c-0.26,0.18-0.54,0.34-0.82,0.48c-0.06,0.03-0.12,0.06-0.19,0.09c-0.04,0.02-0.08,0.04-0.12,0.05c-0.09,0.04,0.12-0.05,0.03-0.01
		c-0.15,0.06-0.3,0.12-0.46,0.17c-0.3,0.1-0.61,0.18-0.92,0.23c-0.08,0.01-0.15,0.03-0.23,0.04c-0.11,0.02,0.13-0.01-0.06,0.01
		c-0.17,0.02-0.34,0.03-0.51,0.04c-0.31,0.01-0.61,0-0.92-0.03c-0.04,0-0.27-0.03-0.16-0.02c0.11,0.02-0.12-0.02-0.16-0.03
		c-0.16-0.03-0.32-0.06-0.47-0.1c-0.14-0.04-0.28-0.08-0.41-0.12c-0.07-0.02-0.14-0.05-0.22-0.08c-0.04-0.02-0.08-0.03-0.12-0.05
		c-0.14-0.05,0.13,0.06-0.02-0.01c-0.28-0.13-0.55-0.27-0.81-0.43c-0.13-0.08-0.26-0.17-0.38-0.27c0.13,0.09-0.01-0.01-0.06-0.05
		c-0.07-0.06-0.15-0.12-0.22-0.19c-0.14-0.13-0.27-0.26-0.39-0.4c-0.06-0.07-0.12-0.14-0.18-0.21c-0.02-0.03-0.05-0.06-0.07-0.09
		c0.11,0.14-0.01-0.01-0.02-0.03c-0.23-0.32-0.43-0.66-0.6-1.02c-0.02-0.05-0.04-0.09-0.06-0.14c-0.06-0.12,0.02,0.06-0.01-0.02
		c-0.04-0.1-0.08-0.21-0.12-0.32c-0.07-0.2-0.13-0.41-0.19-0.62c-0.06-0.22-0.11-0.44-0.15-0.66c-0.06-0.32-0.06-0.33-0.09-0.66
		c-0.04-0.39-0.31-0.72-0.72-0.72c-0.4,0-0.72,0.33-0.72,0.72c-0.01,0.2-0.02,0.4-0.03,0.59c-0.01,0.04-0.01,0.09-0.01,0.13
		c0,0-0.03,0.21-0.01,0.09l0,0c0.01-0.11-0.02,0.14-0.04,0.25c0,0.01,0,0.02,0,0.02c-0.07,0.35-0.16,0.7-0.27,1.03
		c-0.03,0.09-0.07,0.18-0.1,0.27c-0.01,0.03-0.06,0.12,0.01-0.02c-0.02,0.03-0.03,0.07-0.05,0.1c-0.08,0.17-0.16,0.33-0.25,0.49
		c-0.08,0.14-0.17,0.27-0.26,0.41c-0.04,0.06-0.08,0.11-0.12,0.17c-0.07,0.11,0.01-0.01,0.02-0.02c-0.03,0.04-0.07,0.08-0.1,0.12
		c-0.21,0.25-0.44,0.49-0.69,0.7c-0.05,0.04-0.1,0.09-0.16,0.13c-0.13,0.11,0.09-0.07,0.01-0.01c-0.03,0.03-0.07,0.05-0.1,0.08
		c-0.12,0.09-0.25,0.17-0.38,0.25c-0.13,0.08-0.26,0.16-0.4,0.22c-0.07,0.04-0.15,0.08-0.23,0.11c-0.05,0.02-0.29,0.12-0.1,0.05
		c-0.29,0.12-0.58,0.22-0.88,0.29c-0.14,0.04-0.28,0.07-0.42,0.09c-0.08,0.02-0.17,0.03-0.25,0.04c-0.2,0.03,0.1-0.01-0.11,0.02
		c-0.31,0.03-0.62,0.05-0.94,0.04c-0.14,0-0.29-0.01-0.43-0.02c-0.08-0.01-0.17-0.02-0.25-0.03c-0.04,0-0.14-0.02,0.04,0.01
		c-0.05-0.01-0.1-0.02-0.15-0.02c-0.31-0.05-0.61-0.12-0.91-0.21c-0.14-0.04-0.27-0.09-0.41-0.14c-0.04-0.02-0.3-0.12-0.11-0.04
		c-0.08-0.03-0.16-0.07-0.23-0.1c-0.28-0.13-0.55-0.29-0.81-0.46c-0.06-0.04-0.12-0.09-0.19-0.13c-0.17-0.12,0.06,0.05-0.08-0.06
		c-0.12-0.1-0.25-0.21-0.37-0.32c-0.11-0.11-0.22-0.22-0.32-0.33c-0.05-0.05-0.09-0.1-0.14-0.16c-0.03-0.03-0.06-0.07-0.08-0.1
		c-0.04-0.05,0.08,0.11-0.02-0.02c-0.22-0.3-0.41-0.61-0.57-0.95c-0.02-0.04-0.04-0.08-0.06-0.12c-0.01-0.02-0.08-0.19-0.04-0.09
		c0.04,0.11-0.03-0.07-0.03-0.07c-0.02-0.05-0.04-0.11-0.06-0.16c-0.07-0.18-0.12-0.37-0.17-0.56c-0.05-0.21-0.1-0.41-0.13-0.63
		c-0.01-0.04-0.01-0.08-0.02-0.12c-0.01-0.05-0.01-0.04,0.01,0.04c-0.01-0.03-0.01-0.06-0.01-0.09c-0.01-0.12-0.03-0.24-0.03-0.36
		c-0.03-0.49-0.02-0.97,0.02-1.46c0.06-0.74-1.01-0.96-1.35-0.37c-0.65,1.11-1.33,2.06-2.28,2.93c-0.45,0.42-0.69,0.61-1.19,0.92
		c-0.2,0.12-0.39,0.24-0.6,0.34c-0.09,0.05-0.18,0.09-0.27,0.13c-0.05,0.03-0.11,0.05-0.17,0.07c0.17-0.07-0.07,0.03-0.1,0.04
		c-0.41,0.16-0.83,0.28-1.26,0.35c-0.05,0.01-0.11,0.02-0.17,0.03c-0.19,0.03,0.16-0.01-0.03,0c-0.11,0.01-0.22,0.02-0.33,0.03
		c-0.22,0.02-0.43,0.02-0.65,0.01c-0.2-0.01-0.39-0.03-0.58-0.05c-0.18-0.02,0.16,0.03-0.02,0c-0.05-0.01-0.1-0.02-0.16-0.03
		c-0.1-0.02-0.21-0.04-0.31-0.06c-0.19-0.04-0.38-0.09-0.56-0.15c-0.1-0.03-0.2-0.07-0.3-0.1c-0.06-0.02-0.4-0.16-0.22-0.08
		c-0.37-0.17-0.73-0.35-1.07-0.57c-0.16-0.1-0.32-0.22-0.48-0.33c-0.03-0.02-0.17-0.13-0.02-0.02c-0.04-0.03-0.08-0.07-0.12-0.1
		c-0.08-0.07-0.16-0.13-0.24-0.21c-0.32-0.28-0.61-0.59-0.88-0.92c-0.03-0.04-0.2-0.26-0.08-0.1c-0.06-0.08-0.13-0.17-0.19-0.26
		c-0.12-0.17-0.24-0.35-0.35-0.53c-0.1-0.17-0.19-0.34-0.28-0.51c-0.05-0.09-0.09-0.19-0.14-0.29c-0.02-0.03-0.08-0.2-0.01-0.02
		c-0.02-0.06-0.05-0.11-0.07-0.17c-0.15-0.39-0.27-0.79-0.35-1.19c-0.02-0.1-0.04-0.21-0.06-0.31c-0.01-0.04-0.01-0.07-0.02-0.1
		c-0.03-0.18,0.01,0.17,0-0.02c-0.02-0.21-0.04-0.42-0.04-0.64c-0.01-0.21,0-0.43,0.02-0.64c0.01-0.09,0.02-0.18,0.03-0.27
		c0.01-0.04,0.04-0.22,0-0.02c0.01-0.07,0.02-0.14,0.04-0.22c0.09-0.48,0.23-0.95,0.41-1.4c-0.07,0.16,0.07-0.14,0.09-0.2
		c0.06-0.12,0.12-0.25,0.19-0.37c0.13-0.23,0.27-0.46,0.43-0.68c0.04-0.05,0.07-0.1,0.11-0.15c0.05-0.07,0.05-0.07,0-0.01
		c0.03-0.03,0.05-0.07,0.08-0.1c0.08-0.1,0.17-0.2,0.25-0.3c0.2-0.22,0.4-0.43,0.62-0.64c0.52-0.48,0.92-0.78,1.53-1.17
		c0.6-0.38,0.37-1.35-0.37-1.35c-0.32,0-0.64-0.01-0.96-0.03c-0.15-0.01-0.29-0.02-0.44-0.04C8.08,23.74,8,23.73,7.92,23.72
		c-0.09-0.01,0.02,0,0.03,0.01c-0.04-0.01-0.09-0.01-0.13-0.02c-0.55-0.08-1.1-0.21-1.63-0.38c-0.12-0.04-0.24-0.08-0.35-0.12
		c-0.06-0.02-0.12-0.05-0.18-0.07c-0.06-0.02-0.19-0.08-0.06-0.02c-0.22-0.1-0.44-0.2-0.66-0.32c-0.21-0.11-0.42-0.24-0.62-0.38
		c-0.09-0.06-0.18-0.12-0.27-0.19c-0.07-0.05-0.1-0.08-0.01-0.01c-0.05-0.04-0.1-0.08-0.16-0.12c-0.33-0.28-0.64-0.58-0.92-0.92
		c-0.04-0.04-0.07-0.09-0.1-0.13c-0.03-0.03,0.08,0.12,0,0c-0.07-0.09-0.13-0.19-0.2-0.28c-0.11-0.17-0.22-0.35-0.32-0.53
		c-0.1-0.18-0.18-0.37-0.27-0.55c0.09,0.19-0.03-0.07-0.05-0.14c-0.04-0.1-0.07-0.2-0.1-0.3c-0.13-0.39-0.21-0.8-0.28-1.2
		c-0.02-0.13,0.02,0.15,0,0.02C1.64,18,1.63,17.95,1.63,17.9c-0.01-0.1-0.02-0.21-0.03-0.31c-0.01-0.2-0.02-0.4-0.01-0.6
		c0.01-0.2,0.02-0.4,0.04-0.61c0.01-0.08,0.05-0.36,0.01-0.14c0.02-0.1,0.03-0.21,0.05-0.31c0.07-0.4,0.18-0.8,0.32-1.19
		c0.03-0.09,0.07-0.18,0.1-0.27c0.02-0.04,0.03-0.08,0.05-0.12c-0.08,0.2-0.01,0.02,0.02-0.03c0.08-0.18,0.17-0.36,0.27-0.54
		c0.1-0.18,0.21-0.36,0.33-0.54c0.05-0.08,0.11-0.16,0.17-0.24c0.03-0.04,0.05-0.07,0.08-0.11c0.06-0.08-0.09,0.11,0.03-0.03
		c0.26-0.32,0.54-0.61,0.85-0.88c0.07-0.07,0.15-0.13,0.23-0.19c0.14-0.11-0.09,0.06,0.02-0.01c0.04-0.03,0.09-0.06,0.13-0.09
		c0.18-0.12,0.36-0.24,0.55-0.35c0.18-0.11,0.37-0.2,0.57-0.29c0.04-0.02,0.09-0.04,0.13-0.06c-0.19,0.08-0.02,0.01,0.03-0.01
		c0.11-0.04,0.21-0.08,0.32-0.12c0.21-0.07,0.43-0.13,0.65-0.18c0.11-0.03,0.22-0.05,0.32-0.07c0.06-0.01,0.12-0.02,0.18-0.03
		c0.05-0.01,0.27-0.04,0.07-0.01c0.49-0.06,0.99-0.08,1.48-0.05c0.13,0.01,0.25,0.02,0.38,0.03c0.07,0.01,0.14,0.01,0.21,0.02
		c0.03,0,0.06,0.01,0.09,0.01c0.11,0.01-0.12-0.02-0.01,0c0.28,0.04,0.55,0.09,0.83,0.15c0.61,0.14,1.21,0.32,1.79,0.55
		c0.07,0.03,0.14,0.05,0.2,0.08c0.03,0.01,0.22,0.09,0.13,0.06c0.16,0.07,0.33,0.14,0.49,0.22c0.36,0.17,0.78,0.1,0.99-0.26
		C13.83,11.04,13.74,10.53,13.39,10.37z"/>
	<path class="st1" d="M22.64,24.71c-0.2-0.29-0.38-0.58-0.53-0.9c-0.03-0.07-0.06-0.13-0.09-0.2c-0.06-0.12-0.01-0.02,0,0.01
		c-0.02-0.04-0.03-0.07-0.04-0.11c-0.05-0.14-0.1-0.29-0.14-0.44c-0.04-0.13-0.07-0.27-0.09-0.4c-0.01-0.07-0.03-0.19-0.01-0.04
		c-0.01-0.08-0.02-0.16-0.02-0.23c-0.01-0.12-0.01-0.25-0.01-0.38c0-0.06,0.01-0.11,0.01-0.17c0.01-0.05,0.04-0.29,0-0.07
		c0.04-0.24,0.09-0.48,0.18-0.71c0.02-0.05,0.04-0.1,0.06-0.15c-0.06,0.15-0.02,0.04,0.02-0.04c0.05-0.11,0.11-0.22,0.18-0.32
		c0.06-0.09,0.12-0.18,0.18-0.27c0.11-0.16-0.05,0.05,0.03-0.04c0.04-0.05,0.08-0.09,0.12-0.14c0.17-0.19,0.35-0.35,0.54-0.51
		c0.09-0.08-0.13,0.09,0.02-0.02c0.05-0.03,0.09-0.06,0.13-0.09c0.1-0.07,0.21-0.14,0.32-0.2c0.1-0.06,0.21-0.11,0.31-0.17
		c0.05-0.03,0.1-0.05,0.15-0.07c0.18-0.09-0.09,0.03,0.07-0.03c0.23-0.08,0.46-0.16,0.7-0.22c0.12-0.03,0.23-0.05,0.35-0.07
		c0.1-0.02,0.16-0.02,0.02-0.01c0.07-0.01,0.14-0.02,0.21-0.02c0.25-0.02,0.49-0.02,0.74-0.01c0.06,0,0.11,0.01,0.17,0.02
		c0.03,0,0.06,0.01,0.09,0.01c0.1,0.01-0.15-0.03-0.05-0.01c0.12,0.02,0.25,0.04,0.38,0.07c0.12,0.03,0.23,0.06,0.35,0.1
		c0.05,0.02,0.11,0.04,0.16,0.06c0.03,0.01,0.06,0.02,0.09,0.04c0.09,0.03-0.16-0.08-0.02-0.01c0.22,0.11,0.44,0.22,0.64,0.36
		c0.03,0.02,0.21,0.15,0.13,0.09c-0.07-0.06,0.09,0.08,0.12,0.1c0.11,0.1,0.22,0.2,0.32,0.31c0.05,0.06,0.11,0.12,0.16,0.18
		c0.04,0.05,0.14,0.19,0.06,0.07c0.1,0.14,0.19,0.27,0.28,0.42c0.09,0.14,0.16,0.29,0.23,0.44c0.02,0.04,0.03,0.07,0.05,0.11
		c0.05,0.1-0.06-0.16,0.01,0.03c0.03,0.08,0.06,0.16,0.09,0.24c0.14,0.39,0.23,0.79,0.31,1.2c0.07,0.39,0.54,0.6,0.89,0.51
		c0.41-0.11,0.57-0.5,0.51-0.89c-0.12-0.74-0.17-1.74-0.07-2.6c0.01-0.05,0.01-0.11,0.02-0.16c0,0.03-0.02,0.14,0,0
		c0.02-0.09,0.03-0.19,0.05-0.28c0.04-0.19,0.08-0.37,0.12-0.56c0.05-0.17,0.1-0.33,0.15-0.49c0.03-0.08,0.06-0.16,0.09-0.23
		c0.02-0.04,0.07-0.16,0,0c0.02-0.05,0.04-0.1,0.07-0.15c0.13-0.28,0.28-0.55,0.46-0.81c0.05-0.07,0.1-0.13,0.14-0.2
		c-0.09,0.13-0.01,0.01,0.04-0.05c0.1-0.12,0.21-0.24,0.33-0.35c0.1-0.1,0.2-0.19,0.31-0.28c0.06-0.05,0.16-0.12,0.04-0.03
		c0.07-0.05,0.13-0.1,0.21-0.14c0.23-0.16,0.48-0.28,0.73-0.4c0.14-0.07-0.12,0.05-0.03,0.01c0.04-0.01,0.07-0.03,0.1-0.04
		c0.06-0.02,0.11-0.04,0.17-0.06c0.14-0.05,0.28-0.09,0.42-0.12c0.13-0.03,0.26-0.05,0.39-0.07c-0.15,0.03-0.07,0.01,0.03,0
		c0.08-0.01,0.16-0.01,0.24-0.02c0.27-0.01,0.54,0.01,0.81,0.03c-0.23-0.02-0.01,0,0.05,0.01c0.07,0.01,0.13,0.03,0.2,0.04
		c0.14,0.03,0.29,0.07,0.43,0.11c0.12,0.04,0.24,0.08,0.36,0.13c0.1,0.04-0.17-0.08-0.03-0.01c0.03,0.01,0.06,0.03,0.08,0.04
		c0.07,0.03,0.14,0.07,0.2,0.1c0.12,0.06,0.24,0.13,0.36,0.21c0.07,0.04,0.13,0.08,0.19,0.13c0.05,0.03,0.24,0.19,0.08,0.05
		c0.23,0.19,0.45,0.39,0.65,0.61c0.05,0.06,0.1,0.11,0.14,0.17c0.02,0.03,0.04,0.05,0.06,0.08c0.11,0.13-0.07-0.09-0.01-0.01
		c0.1,0.13,0.19,0.26,0.27,0.4c0.1,0.16,0.19,0.32,0.27,0.49c0.05,0.09,0.09,0.18,0.13,0.27c0.02,0.03,0.05,0.13-0.01-0.02
		c0.02,0.05,0.04,0.1,0.06,0.16c0.15,0.39,0.26,0.79,0.34,1.2c0.02,0.1,0.04,0.21,0.05,0.31c0.01,0.04,0.01,0.08,0.02,0.13
		c-0.02-0.16,0,0.03,0.01,0.07c0.03,0.25,0.04,0.5,0.05,0.75c0.02,0.52-0.01,1.04-0.07,1.56c-0.08,0.7,1.08,1.02,1.35,0.37
		c0.12-0.27,0.25-0.54,0.4-0.8c0.07-0.12,0.15-0.24,0.23-0.35c0.04-0.06,0.08-0.11,0.12-0.17c-0.08,0.1,0.03-0.04,0.05-0.06
		c0.17-0.2,0.34-0.38,0.54-0.54c0.05-0.04,0.09-0.08,0.14-0.12c-0.13,0.1,0.03-0.02,0.05-0.03c0.1-0.07,0.2-0.13,0.3-0.2
		c0.1-0.06,0.2-0.12,0.31-0.17c0.05-0.03,0.11-0.05,0.16-0.07c0.17-0.08-0.14,0.04,0.04-0.02c0.22-0.07,0.43-0.15,0.66-0.2
		c0.11-0.03,0.22-0.04,0.33-0.06c-0.2,0.03,0.14-0.01,0.2-0.01c0.22-0.01,0.45-0.01,0.67,0.01c0.06,0.01,0.11,0.01,0.17,0.02
		c0.19,0.02-0.16-0.03,0.03,0.01c0.11,0.02,0.22,0.04,0.33,0.06c0.22,0.05,0.43,0.11,0.64,0.19c0.05,0.02,0.1,0.04,0.16,0.06
		c-0.17-0.07,0,0,0.03,0.02c0.1,0.05,0.2,0.1,0.3,0.15c0.2,0.11,0.38,0.23,0.56,0.36c0.16,0.1-0.11-0.1,0.03,0.02
		c0.04,0.04,0.09,0.07,0.13,0.11c0.08,0.07,0.17,0.15,0.24,0.22c0.07,0.07,0.13,0.13,0.19,0.2c0.04,0.04,0.07,0.08,0.11,0.12
		c0.13,0.15-0.01-0.03,0.06,0.07c0.11,0.17,0.23,0.34,0.32,0.52c0.05,0.1,0.1,0.2,0.14,0.3c-0.07-0.17,0,0.01,0.01,0.04
		c0.02,0.07,0.05,0.14,0.07,0.22c0.04,0.13,0.07,0.26,0.1,0.39c0.01,0.04,0.02,0.08,0.02,0.11c0.01,0.04,0.01,0.08,0.02,0.12
		c-0.01-0.1-0.01-0.1-0.01-0.02c0.02,0.29,0.03,0.57,0,0.86c0,0.02-0.03,0.23-0.01,0.06c-0.01,0.07-0.02,0.13-0.03,0.2
		c-0.03,0.16-0.07,0.31-0.11,0.47c-0.1,0.36-0.19,0.58-0.33,0.86c-0.17,0.35-0.1,0.78,0.26,0.99c0.32,0.19,0.82,0.09,0.99-0.26
		c0.56-1.18,0.84-2.46,0.58-3.75c-0.21-1.05-0.8-2.03-1.6-2.73c-1.68-1.46-4.1-1.87-6.13-0.92c-1.05,0.49-1.88,1.36-2.43,2.37
		c-0.18,0.32,0.01,0.71,0.37,0.8l0,0c0.36,0.1,0.72-0.15,0.74-0.52c0.08-1.57-0.16-3.17-0.9-4.57c-0.67-1.26-1.75-2.25-3.07-2.79
		c-2.58-1.04-5.52,0.11-6.87,2.5c-0.89,1.58-1.05,3.41-0.88,5.19c0.04,0.43,0.46,0.7,0.88,0.58l0,0c0.35-0.1,0.58-0.45,0.49-0.81
		c-0.3-1.16-0.88-2.28-1.82-3.06c-0.96-0.79-2.15-1.2-3.39-1.19c-2.3,0.03-4.7,1.48-5.28,3.8c-0.38,1.55,0.12,3.12,1.01,4.4
		c0.22,0.32,0.64,0.47,0.99,0.26C22.7,25.52,22.87,25.04,22.64,24.71z"/>
</g>
<g>
	<path class="st1" d="M322.38,98.68c-2.25-1.05-4.78-1.67-7.25-1.1c-1.89,0.43-3.53,1.61-4.61,3.21c-1,1.49-1.49,3.35-1.38,5.13
		c0.12,1.9,0.88,3.72,2.22,5.08c1.64,1.64,3.91,2.39,6.18,2.56c0.1,0.01,0.2,0.01,0.3,0.02c0.35,0.02,0.6-0.31,0.51-0.65l0,0
		c-0.09-0.34-0.49-0.49-0.78-0.29c-1.7,1.21-3.1,2.84-3.67,4.88c-0.51,1.86-0.25,3.84,0.6,5.56c1.67,3.39,5.61,5.56,9.35,4.5
		c2.46-0.7,4.35-2.58,5.7-4.69c0.2-0.31,0.03-0.72-0.32-0.81l0,0c-0.34-0.09-0.68,0.14-0.68,0.49c-0.03,1.49,0.29,2.99,1.08,4.26
		c0.8,1.28,2.01,2.21,3.41,2.75c2.64,1.02,5.9,0.42,7.89-1.62c1.15-1.17,1.76-2.71,1.92-4.32c0.04-0.38-0.27-0.7-0.66-0.7l0,0
		c-0.4,0-0.72,0.35-0.66,0.74c0.25,1.5,0.81,2.93,1.85,4.07c0.96,1.06,2.3,1.78,3.7,2.03c2.92,0.52,6.02-0.72,7.64-3.24
		c0.92-1.44,1.2-3.12,1.08-4.79c-0.03-0.38-0.42-0.6-0.77-0.45l0,0c-0.33,0.14-0.46,0.55-0.25,0.84c2.1,2.94,5.6,5.46,9.35,4.66
		c1.06-0.23,2.04-0.73,2.89-1.39c0.71-0.55,1.38-1.13,1.89-1.88c0.91-1.35,1.31-3.09,1.21-4.71c-0.11-1.7-0.76-3.32-2.03-4.44
		c-0.23-0.2-0.58-0.05-0.62,0.26l0,0c-0.04,0.3,0.25,0.54,0.54,0.43c1.55-0.63,2.91-1.65,3.84-3.08c0.89-1.37,1.32-3.04,1.24-4.67
		c-0.15-3.33-2.31-6.47-5.64-7.29c-2.12-0.52-4.3-0.07-6.27,0.79c-0.29,0.13-0.33,0.51-0.08,0.7l0,0c0.24,0.19,0.6,0.06,0.66-0.24
		c0.36-1.88,0.4-3.86-0.19-5.69c-0.53-1.63-1.52-3.06-2.93-4.05c-2.69-1.9-6.41-1.67-9.06,0.17c-1.65,1.15-2.85,2.77-3.65,4.59
		c-0.16,0.37,0.08,0.78,0.48,0.83l0,0c0.35,0.05,0.68-0.21,0.68-0.57c0.01-2.47-1.08-5-3.41-6.12c-2.15-1.04-4.8-0.62-6.33,1.29
		c-0.93,1.16-1.34,2.59-1.45,4.05c-0.03,0.39,0.32,0.7,0.71,0.64l0,0c0.37-0.05,0.63-0.41,0.53-0.77c-0.48-1.82-1.37-3.57-2.79-4.82
		c-1.34-1.18-3.02-1.85-4.8-1.96c-3.26-0.21-6.8,1.55-8.2,4.59c-0.88,1.92-0.83,4.08-0.05,6.03c0.14,0.36,0.49,0.62,0.89,0.51
		c0.35-0.09,0.65-0.53,0.51-0.89c-0.18-0.44-0.32-0.89-0.42-1.36c-0.02-0.09-0.04-0.19-0.06-0.28c-0.01-0.06-0.02-0.11-0.03-0.17
		c-0.04-0.19,0.02,0.16-0.01-0.03c-0.02-0.2-0.04-0.4-0.05-0.61c-0.01-0.2-0.01-0.39,0.01-0.59c0.01-0.09,0.01-0.18,0.02-0.26
		c0.01-0.05,0.01-0.1,0.02-0.16c-0.02,0.22,0-0.02,0.01-0.06c0.06-0.36,0.15-0.72,0.28-1.07c0.03-0.08,0.06-0.16,0.09-0.23
		c0.06-0.16-0.07,0.15,0-0.01c0.02-0.04,0.04-0.09,0.06-0.13c0.08-0.17,0.17-0.34,0.26-0.5c0.09-0.15,0.18-0.29,0.27-0.43
		c0.06-0.08,0.11-0.16,0.17-0.24c-0.12,0.16,0.06-0.07,0.1-0.12c0.23-0.27,0.48-0.53,0.76-0.77c0.07-0.07,0.15-0.13,0.23-0.19
		c0.03-0.02,0.05-0.04,0.08-0.06c0.13-0.11-0.13,0.09,0.01-0.01c0.16-0.11,0.32-0.23,0.49-0.34c0.31-0.2,0.63-0.37,0.96-0.52
		c0.05-0.02,0.09-0.04,0.14-0.06c0.15-0.07-0.11,0.05-0.01,0.01c0.08-0.04,0.17-0.07,0.26-0.1c0.19-0.07,0.38-0.13,0.57-0.19
		c0.35-0.1,0.71-0.19,1.08-0.24c0.05-0.01,0.1-0.02,0.15-0.02c-0.19,0.03-0.08,0.01-0.04,0.01c0.1-0.01,0.2-0.02,0.3-0.03
		c0.19-0.02,0.37-0.02,0.55-0.03c0.19,0,0.37,0,0.55,0.01c0.09,0.01,0.19,0.01,0.28,0.02c0.06,0.01,0.4,0.05,0.18,0.02
		c0.37,0.06,0.73,0.13,1.09,0.24c0.18,0.05,0.36,0.12,0.53,0.19c0.05,0.02,0.1,0.04,0.14,0.06c-0.16-0.07-0.07-0.03-0.03-0.01
		c0.11,0.05,0.22,0.1,0.33,0.16c0.35,0.18,0.67,0.38,0.99,0.61c0.03,0.02,0.17,0.13,0.03,0.02c0.04,0.03,0.08,0.07,0.13,0.1
		c0.1,0.08,0.2,0.17,0.29,0.25c0.17,0.15,0.32,0.31,0.47,0.48c0.08,0.09,0.17,0.19,0.24,0.28c0.03,0.04,0.06,0.08,0.09,0.11
		c-0.11-0.14,0.05,0.06,0.06,0.09c0.14,0.2,0.28,0.4,0.4,0.61c0.14,0.24,0.27,0.48,0.39,0.72c0.14,0.3,0.16,0.33,0.27,0.63
		c0.22,0.59,0.39,1.21,0.52,1.83c0.17,0.81,1.42,0.61,1.43-0.19c0-0.39,0.02-0.77,0.07-1.15c0.02-0.15,0.01-0.05,0-0.02
		c0.01-0.05,0.02-0.09,0.02-0.14c0.01-0.08,0.03-0.16,0.04-0.24c0.03-0.17,0.07-0.33,0.11-0.49c0.04-0.16,0.09-0.31,0.14-0.46
		c0.02-0.07,0.05-0.13,0.07-0.2c0.02-0.04,0.03-0.08,0.05-0.11c-0.02,0.06-0.04,0.08,0,0.01c0.13-0.27,0.26-0.53,0.42-0.78
		c0.04-0.05,0.07-0.1,0.11-0.16c0,0,0,0,0,0c0.01-0.01,0.03-0.04,0.03-0.04l0,0c0.09-0.11,0.18-0.21,0.27-0.31
		c0.08-0.09,0.17-0.17,0.26-0.25c0.04-0.04,0.09-0.07,0.13-0.11c0.09-0.08-0.01,0.01-0.03,0.02c0.03-0.03,0.07-0.05,0.1-0.07
		c0.2-0.14,0.4-0.26,0.62-0.37c0.05-0.02,0.1-0.05,0.15-0.07c-0.19,0.09,0,0,0.05-0.02c0.11-0.04,0.22-0.08,0.34-0.11
		c0.11-0.03,0.23-0.06,0.34-0.08c0.05-0.01,0.11-0.02,0.16-0.03c0.08-0.02-0.08,0.01-0.08,0.01c0.04,0,0.08-0.01,0.12-0.01
		c0.24-0.02,0.47-0.03,0.71-0.01c0.06,0.01,0.12,0.01,0.19,0.02c0.17,0.01-0.11-0.02,0.02,0c0.12,0.02,0.25,0.04,0.37,0.07
		c0.24,0.06,0.46,0.13,0.69,0.22c0.12,0.04-0.13-0.07,0.03,0.01c0.05,0.03,0.1,0.05,0.16,0.07c0.12,0.06,0.23,0.12,0.35,0.19
		c0.1,0.06,0.2,0.12,0.29,0.19c0.06,0.04,0.11,0.08,0.16,0.12c-0.13-0.09,0,0,0.05,0.04c0.2,0.17,0.38,0.35,0.55,0.54
		c0.04,0.05,0.08,0.09,0.12,0.14c0.04,0.05,0.12,0.16,0.04,0.04c0.08,0.12,0.17,0.23,0.25,0.36c0.08,0.13,0.16,0.27,0.23,0.41
		c0.04,0.07,0.07,0.13,0.1,0.2c0.02,0.04,0.11,0.27,0.05,0.12c0.12,0.32,0.23,0.64,0.31,0.98c0.04,0.17,0.07,0.33,0.09,0.5
		c0.02,0.14,0,0.03,0,0c0.01,0.06,0.01,0.11,0.02,0.17c0.01,0.09,0.02,0.18,0.02,0.27c0.03,0.42,0.02,0.83-0.02,1.25
		c-0.03,0.36,0.3,0.67,0.63,0.71c0.38,0.05,0.67-0.17,0.8-0.52c0.3-0.79,0.76-1.7,1.31-2.48c0.06-0.09,0.13-0.18,0.2-0.27
		c-0.08,0.11,0.08-0.1,0.11-0.13c0.14-0.17,0.29-0.34,0.44-0.5c0.28-0.3,0.58-0.57,0.9-0.83c0.02-0.02,0.18-0.14,0.04-0.03
		c0.03-0.02,0.06-0.05,0.09-0.07c0.08-0.06,0.16-0.11,0.24-0.17c0.17-0.11,0.34-0.22,0.51-0.32c0.16-0.09,0.31-0.18,0.47-0.25
		c0.08-0.04,0.17-0.08,0.25-0.12c0.04-0.02,0.08-0.04,0.13-0.06c0.05-0.02,0.03-0.02-0.05,0.02c0.03-0.01,0.07-0.03,0.1-0.04
		c0.34-0.13,0.68-0.24,1.04-0.33c0.17-0.04,0.33-0.07,0.5-0.1c0.04-0.01,0.09-0.01,0.13-0.02c0.17-0.03-0.12,0.01-0.01,0
		c0.1-0.01,0.19-0.02,0.29-0.03c0.35-0.03,0.69-0.03,1.04-0.01c0.09,0.01,0.17,0.01,0.26,0.02c0.05,0.01,0.33,0.05,0.11,0.01
		c0.18,0.03,0.35,0.06,0.53,0.1c0.34,0.08,0.68,0.18,1,0.31c0.03,0.01,0.06,0.03,0.09,0.04c0.17,0.06-0.14-0.07,0.02,0.01
		c0.07,0.03,0.14,0.06,0.21,0.1c0.16,0.08,0.32,0.16,0.47,0.25c0.15,0.09,0.29,0.18,0.43,0.28c0.06,0.04,0.12,0.09,0.19,0.14
		c0.09,0.07-0.13-0.11,0,0c0.04,0.03,0.08,0.07,0.12,0.1c0.28,0.23,0.53,0.49,0.77,0.76c0.05,0.06,0.1,0.12,0.16,0.19
		c0.12,0.14-0.09-0.12,0.02,0.02c0.02,0.03,0.04,0.06,0.06,0.09c0.12,0.16,0.23,0.33,0.33,0.5c0.09,0.14,0.17,0.29,0.25,0.44
		c0.04,0.08,0.08,0.17,0.12,0.26c0.03,0.05,0.05,0.11,0.07,0.16c-0.05-0.11-0.01-0.02,0.02,0.04c0.17,0.43,0.3,0.86,0.4,1.31
		c0.03,0.11,0.05,0.23,0.07,0.35c0.01,0.06,0.02,0.13,0.03,0.19c0.01,0.03,0.03,0.23,0.01,0.07c0.03,0.25,0.05,0.5,0.07,0.74
		c0.03,0.56,0.01,1.12-0.04,1.68c-0.05,0.56-0.15,1.11-0.29,1.73c-0.15,0.64,0.5,1.1,1.07,0.82c0.89-0.44,1.88-0.8,2.93-0.99
		c0.11-0.02,0.22-0.04,0.33-0.05c-0.16,0.02,0.15-0.02,0.19-0.02c0.23-0.02,0.46-0.04,0.68-0.04c0.2,0,0.4,0,0.6,0.01
		c0.1,0.01,0.19,0.02,0.29,0.02c0.06,0.01,0.11,0.01,0.17,0.02c-0.19-0.02-0.01,0,0.03,0.01c0.4,0.07,0.79,0.16,1.17,0.3
		c0.08,0.03,0.17,0.06,0.25,0.09c0.04,0.01,0.13,0.06-0.03-0.01c0.05,0.02,0.1,0.04,0.14,0.06c0.17,0.08,0.34,0.17,0.51,0.26
		c0.15,0.09,0.29,0.18,0.43,0.27c0.07,0.05,0.14,0.1,0.21,0.15c0.14,0.1-0.12-0.1,0.01,0.01c0.04,0.03,0.08,0.06,0.12,0.1
		c0.27,0.23,0.52,0.48,0.75,0.74c0.06,0.07,0.12,0.14,0.18,0.21c0.03,0.04,0.1,0.13-0.01-0.01c0.03,0.03,0.05,0.07,0.07,0.1
		c0.11,0.16,0.22,0.32,0.32,0.48c0.18,0.3,0.34,0.62,0.48,0.94c-0.08-0.19,0.02,0.06,0.04,0.11c0.03,0.08,0.06,0.16,0.09,0.24
		c0.06,0.18,0.11,0.35,0.16,0.53c0.04,0.16,0.08,0.33,0.11,0.49c0.02,0.08,0.03,0.17,0.05,0.25c0.01,0.05,0.02,0.1,0.02,0.15
		c-0.03-0.2-0.01-0.04,0,0.01c0.04,0.36,0.06,0.72,0.05,1.09c-0.01,0.18-0.02,0.36-0.03,0.53c-0.01,0.05-0.04,0.33-0.01,0.11
		c-0.02,0.1-0.03,0.2-0.05,0.3c-0.06,0.35-0.16,0.7-0.27,1.04c-0.03,0.08-0.06,0.16-0.09,0.24c-0.02,0.05-0.13,0.3-0.04,0.11
		c-0.08,0.17-0.16,0.35-0.25,0.51c-0.1,0.19-0.21,0.37-0.32,0.54c-0.06,0.09-0.12,0.18-0.18,0.26c-0.02,0.03-0.13,0.17-0.02,0.02
		c-0.03,0.04-0.07,0.08-0.1,0.13c-0.28,0.34-0.59,0.66-0.93,0.94c-0.04,0.03-0.07,0.06-0.11,0.09c-0.14,0.12,0.06-0.04-0.06,0.04
		c-0.09,0.07-0.19,0.14-0.28,0.2c-0.2,0.13-0.4,0.26-0.61,0.37c-0.22,0.12-0.44,0.23-0.67,0.33c0.03-0.01,0.13-0.05-0.01,0
		c-0.07,0.03-0.14,0.06-0.21,0.08c-0.13,0.05-0.27,0.1-0.41,0.14c-0.61,0.2-0.7,0.97-0.17,1.33c0.23,0.15,0.47,0.36,0.71,0.63
		c0.06,0.06,0.11,0.13,0.16,0.19c-0.06-0.08,0.06,0.09,0.08,0.11c0.1,0.15,0.2,0.31,0.28,0.46c0.18,0.33,0.23,0.46,0.35,0.84
		c0.05,0.17,0.1,0.33,0.13,0.5c0.03,0.14,0.08,0.42,0.09,0.5c0.17,1.31-0.07,2.75-0.71,3.9c-0.08,0.15-0.17,0.29-0.26,0.43
		c-0.05,0.07-0.09,0.14-0.14,0.2c-0.05,0.07-0.01,0.01,0.01-0.01c-0.04,0.05-0.07,0.09-0.11,0.13c-0.11,0.12-0.22,0.24-0.34,0.36
		c-0.06,0.06-0.12,0.11-0.18,0.16c-0.03,0.02-0.05,0.04-0.08,0.07c-0.03,0.03-0.04,0.03-0.01,0.01c0.07-0.05,0.03-0.02-0.13,0.1
		c-0.72,0.6-1.45,1.14-2.35,1.43c-1.56,0.5-3.17,0.21-4.61-0.55c-1.67-0.89-3.06-2.29-4.07-3.86c-0.19-0.3-0.57-0.44-0.91-0.3
		c-0.36,0.16-0.48,0.49-0.42,0.86c0.03,0.23-0.01-0.08,0.01,0.05c0.01,0.05,0.01,0.09,0.02,0.14c0.01,0.1,0.02,0.21,0.03,0.31
		c0.02,0.21,0.02,0.42,0.02,0.64c0,0.18-0.01,0.36-0.02,0.55c-0.01,0.1-0.02,0.21-0.03,0.31c0,0.03-0.02,0.14,0-0.01
		c-0.01,0.06-0.02,0.12-0.03,0.18c-0.06,0.35-0.14,0.69-0.25,1.02c-0.03,0.08-0.06,0.16-0.09,0.24c-0.02,0.04-0.12,0.28-0.04,0.11
		c-0.07,0.16-0.15,0.32-0.23,0.47c-0.07,0.13-0.15,0.27-0.23,0.4c-0.05,0.08-0.1,0.15-0.15,0.22c-0.03,0.04-0.19,0.26-0.08,0.11
		c-0.2,0.25-0.41,0.48-0.64,0.7c-0.11,0.11-0.23,0.21-0.35,0.31c-0.16,0.13,0.06-0.04-0.08,0.06c-0.07,0.05-0.14,0.1-0.21,0.15
		c-0.26,0.18-0.54,0.34-0.82,0.48c-0.06,0.03-0.12,0.06-0.19,0.09c-0.04,0.02-0.08,0.04-0.12,0.05c-0.09,0.04,0.12-0.05,0.03-0.01
		c-0.15,0.06-0.3,0.12-0.46,0.17c-0.3,0.1-0.61,0.18-0.92,0.23c-0.08,0.01-0.15,0.03-0.23,0.04c-0.11,0.02,0.13-0.01-0.06,0.01
		c-0.17,0.02-0.34,0.03-0.51,0.04c-0.31,0.01-0.61,0-0.92-0.03c-0.04,0-0.27-0.03-0.16-0.02c0.11,0.02-0.12-0.02-0.16-0.03
		c-0.16-0.03-0.32-0.06-0.47-0.1c-0.14-0.04-0.28-0.08-0.41-0.12c-0.07-0.02-0.14-0.05-0.22-0.08c-0.04-0.02-0.08-0.03-0.12-0.05
		c-0.14-0.05,0.13,0.06-0.02-0.01c-0.28-0.13-0.55-0.27-0.81-0.43c-0.13-0.08-0.26-0.17-0.38-0.27c0.13,0.09-0.01-0.01-0.06-0.05
		c-0.07-0.06-0.15-0.12-0.22-0.19c-0.14-0.13-0.27-0.26-0.39-0.4c-0.06-0.07-0.12-0.14-0.18-0.21c-0.02-0.03-0.05-0.06-0.07-0.09
		c0.11,0.14-0.01-0.01-0.02-0.03c-0.23-0.32-0.43-0.66-0.6-1.02c-0.02-0.05-0.04-0.09-0.06-0.14c-0.06-0.12,0.02,0.06-0.01-0.02
		c-0.04-0.1-0.08-0.21-0.12-0.32c-0.07-0.2-0.13-0.41-0.19-0.62c-0.06-0.22-0.11-0.44-0.15-0.66c-0.06-0.32-0.06-0.33-0.09-0.66
		c-0.04-0.39-0.31-0.72-0.72-0.72c-0.4,0-0.72,0.33-0.72,0.72c-0.01,0.2-0.02,0.4-0.03,0.59c-0.01,0.04-0.01,0.09-0.01,0.13
		c0,0-0.03,0.21-0.01,0.09l0,0c0.01-0.11-0.02,0.14-0.04,0.25c0,0.01,0,0.02,0,0.02c-0.07,0.35-0.16,0.7-0.27,1.03
		c-0.03,0.09-0.07,0.18-0.1,0.27c-0.01,0.03-0.06,0.12,0.01-0.02c-0.02,0.03-0.03,0.07-0.05,0.1c-0.08,0.17-0.16,0.33-0.25,0.49
		c-0.08,0.14-0.17,0.27-0.26,0.41c-0.04,0.06-0.08,0.11-0.12,0.17c-0.07,0.11,0.01-0.01,0.02-0.02c-0.03,0.04-0.07,0.08-0.1,0.12
		c-0.21,0.25-0.44,0.49-0.69,0.7c-0.05,0.04-0.1,0.09-0.16,0.13c-0.13,0.11,0.09-0.07,0.01-0.01c-0.03,0.03-0.07,0.05-0.1,0.08
		c-0.12,0.09-0.25,0.17-0.38,0.25c-0.13,0.08-0.26,0.16-0.4,0.22c-0.07,0.04-0.15,0.08-0.23,0.11c-0.05,0.02-0.29,0.12-0.1,0.05
		c-0.29,0.12-0.58,0.22-0.88,0.29c-0.14,0.04-0.28,0.07-0.42,0.09c-0.08,0.02-0.17,0.03-0.25,0.04c-0.2,0.03,0.1-0.01-0.11,0.02
		c-0.31,0.03-0.62,0.05-0.94,0.04c-0.14,0-0.29-0.01-0.43-0.02c-0.08-0.01-0.17-0.02-0.25-0.03c-0.04,0-0.14-0.02,0.04,0.01
		c-0.05-0.01-0.1-0.02-0.15-0.02c-0.31-0.05-0.61-0.12-0.91-0.21c-0.14-0.04-0.27-0.09-0.41-0.14c-0.04-0.02-0.3-0.12-0.11-0.04
		c-0.08-0.03-0.16-0.07-0.23-0.1c-0.28-0.13-0.55-0.29-0.81-0.46c-0.06-0.04-0.12-0.09-0.19-0.13c-0.17-0.12,0.06,0.05-0.08-0.06
		c-0.12-0.1-0.25-0.21-0.37-0.32c-0.11-0.11-0.22-0.22-0.32-0.33c-0.05-0.05-0.09-0.1-0.14-0.16c-0.03-0.03-0.06-0.07-0.08-0.1
		c-0.04-0.05,0.08,0.11-0.02-0.02c-0.22-0.3-0.41-0.61-0.57-0.95c-0.02-0.04-0.04-0.08-0.06-0.12c-0.01-0.02-0.08-0.19-0.04-0.09
		c0.04,0.11-0.03-0.07-0.03-0.07c-0.02-0.05-0.04-0.11-0.06-0.16c-0.07-0.18-0.12-0.37-0.17-0.56c-0.05-0.21-0.1-0.41-0.13-0.63
		c-0.01-0.04-0.01-0.08-0.02-0.12c-0.01-0.05-0.01-0.04,0.01,0.04c-0.01-0.03-0.01-0.06-0.01-0.09c-0.01-0.12-0.03-0.24-0.03-0.36
		c-0.03-0.49-0.02-0.97,0.02-1.46c0.06-0.74-1.01-0.96-1.35-0.37c-0.65,1.11-1.33,2.06-2.28,2.93c-0.45,0.42-0.69,0.61-1.19,0.92
		c-0.2,0.12-0.39,0.24-0.6,0.34c-0.09,0.05-0.18,0.09-0.27,0.13c-0.05,0.03-0.11,0.05-0.17,0.07c0.17-0.07-0.07,0.03-0.1,0.04
		c-0.41,0.16-0.83,0.28-1.26,0.35c-0.05,0.01-0.11,0.02-0.17,0.03c-0.19,0.03,0.16-0.01-0.03,0c-0.11,0.01-0.22,0.02-0.33,0.03
		c-0.22,0.02-0.43,0.02-0.65,0.01c-0.2-0.01-0.39-0.03-0.58-0.05c-0.18-0.02,0.16,0.03-0.02,0c-0.05-0.01-0.1-0.02-0.16-0.03
		c-0.1-0.02-0.21-0.04-0.31-0.06c-0.19-0.04-0.38-0.09-0.56-0.15c-0.1-0.03-0.2-0.07-0.3-0.1c-0.06-0.02-0.4-0.16-0.22-0.08
		c-0.37-0.17-0.73-0.35-1.07-0.57c-0.16-0.1-0.32-0.22-0.48-0.33c-0.03-0.02-0.17-0.13-0.02-0.02c-0.04-0.03-0.08-0.07-0.12-0.1
		c-0.08-0.07-0.16-0.13-0.24-0.21c-0.32-0.28-0.61-0.59-0.88-0.92c-0.03-0.04-0.2-0.26-0.08-0.1c-0.06-0.08-0.13-0.17-0.19-0.26
		c-0.12-0.17-0.24-0.35-0.35-0.53c-0.1-0.17-0.19-0.34-0.28-0.51c-0.05-0.09-0.09-0.19-0.14-0.29c-0.02-0.03-0.08-0.2-0.01-0.02
		c-0.02-0.06-0.05-0.11-0.07-0.17c-0.15-0.39-0.27-0.79-0.35-1.19c-0.02-0.1-0.04-0.21-0.06-0.31c-0.01-0.04-0.01-0.07-0.02-0.1
		c-0.03-0.18,0.01,0.17,0-0.02c-0.02-0.21-0.04-0.42-0.04-0.64c-0.01-0.21,0-0.43,0.02-0.64c0.01-0.09,0.02-0.18,0.03-0.27
		c0.01-0.04,0.04-0.22,0-0.02c0.01-0.07,0.02-0.14,0.04-0.22c0.09-0.48,0.23-0.95,0.41-1.4c-0.07,0.16,0.07-0.14,0.09-0.2
		c0.06-0.12,0.12-0.25,0.19-0.37c0.13-0.23,0.27-0.46,0.43-0.68c0.04-0.05,0.07-0.1,0.11-0.15c0.05-0.07,0.05-0.07,0-0.01
		c0.03-0.03,0.05-0.07,0.08-0.1c0.08-0.1,0.17-0.2,0.25-0.3c0.2-0.22,0.4-0.43,0.62-0.64c0.52-0.48,0.92-0.78,1.53-1.17
		c0.6-0.38,0.37-1.35-0.37-1.35c-0.32,0-0.64-0.01-0.96-0.03c-0.15-0.01-0.29-0.02-0.44-0.04c-0.08-0.01-0.15-0.02-0.23-0.03
		c-0.09-0.01,0.02,0,0.03,0.01c-0.04-0.01-0.09-0.01-0.13-0.02c-0.55-0.08-1.1-0.21-1.63-0.38c-0.12-0.04-0.24-0.08-0.35-0.12
		c-0.06-0.02-0.12-0.05-0.18-0.07c-0.06-0.02-0.19-0.08-0.06-0.02c-0.22-0.1-0.44-0.2-0.66-0.32c-0.21-0.11-0.42-0.24-0.62-0.38
		c-0.09-0.06-0.18-0.12-0.27-0.19c-0.07-0.05-0.1-0.08-0.01-0.01c-0.05-0.04-0.1-0.08-0.16-0.12c-0.33-0.28-0.64-0.58-0.92-0.92
		c-0.04-0.04-0.07-0.09-0.1-0.13c-0.03-0.03,0.08,0.12,0,0c-0.07-0.09-0.13-0.19-0.2-0.28c-0.11-0.17-0.22-0.35-0.32-0.53
		c-0.1-0.18-0.18-0.37-0.27-0.55c0.09,0.19-0.03-0.07-0.05-0.14c-0.04-0.1-0.07-0.2-0.1-0.3c-0.13-0.39-0.21-0.8-0.28-1.21
		c-0.02-0.13,0.02,0.15,0,0.02c-0.01-0.05-0.01-0.1-0.02-0.16c-0.01-0.1-0.02-0.21-0.03-0.31c-0.01-0.2-0.02-0.4-0.01-0.61
		c0.01-0.2,0.02-0.4,0.04-0.61c0.01-0.08,0.05-0.36,0.01-0.14c0.02-0.1,0.03-0.21,0.05-0.31c0.07-0.4,0.18-0.8,0.32-1.19
		c0.03-0.09,0.07-0.18,0.1-0.27c0.02-0.04,0.03-0.08,0.05-0.12c-0.08,0.2-0.01,0.02,0.02-0.03c0.08-0.18,0.17-0.36,0.27-0.54
		c0.1-0.18,0.21-0.36,0.33-0.54c0.05-0.08,0.11-0.16,0.17-0.24c0.03-0.04,0.05-0.07,0.08-0.11c0.06-0.08-0.09,0.11,0.03-0.03
		c0.26-0.32,0.54-0.61,0.85-0.88c0.07-0.07,0.15-0.13,0.23-0.19c0.14-0.11-0.09,0.06,0.02-0.01c0.04-0.03,0.09-0.06,0.13-0.09
		c0.18-0.12,0.36-0.24,0.55-0.35c0.18-0.11,0.37-0.2,0.57-0.29c0.04-0.02,0.09-0.04,0.13-0.06c-0.19,0.08-0.02,0.01,0.03-0.01
		c0.11-0.04,0.21-0.08,0.32-0.12c0.21-0.07,0.43-0.13,0.65-0.18c0.11-0.03,0.22-0.05,0.32-0.07c0.06-0.01,0.12-0.02,0.18-0.03
		c0.05-0.01,0.27-0.04,0.07-0.01c0.49-0.06,0.99-0.08,1.48-0.05c0.13,0.01,0.25,0.02,0.38,0.03c0.07,0.01,0.14,0.01,0.21,0.02
		c0.03,0,0.06,0.01,0.09,0.01c0.11,0.01-0.12-0.02-0.01,0c0.28,0.04,0.55,0.09,0.83,0.15c0.61,0.14,1.21,0.32,1.79,0.55
		c0.07,0.03,0.14,0.05,0.2,0.08c0.03,0.01,0.22,0.09,0.13,0.06c0.16,0.07,0.33,0.14,0.49,0.22c0.36,0.17,0.78,0.1,0.99-0.26
		C322.82,99.36,322.74,98.85,322.38,98.68z"/>
	<path class="st1" d="M331.64,113.03c-0.2-0.29-0.38-0.58-0.53-0.9c-0.03-0.07-0.06-0.13-0.09-0.2c-0.06-0.12-0.01-0.02,0,0.01
		c-0.02-0.04-0.03-0.07-0.04-0.11c-0.05-0.14-0.1-0.29-0.14-0.44c-0.04-0.13-0.07-0.27-0.09-0.4c-0.01-0.07-0.03-0.19-0.01-0.04
		c-0.01-0.08-0.02-0.16-0.02-0.23c-0.01-0.12-0.01-0.25-0.01-0.38c0-0.06,0.01-0.11,0.01-0.17c0.01-0.05,0.04-0.29,0-0.07
		c0.04-0.24,0.09-0.48,0.18-0.71c0.02-0.05,0.04-0.1,0.06-0.15c-0.06,0.15-0.02,0.04,0.02-0.04c0.05-0.11,0.11-0.22,0.18-0.32
		c0.06-0.09,0.12-0.18,0.18-0.27c0.11-0.16-0.05,0.05,0.03-0.04c0.04-0.05,0.08-0.09,0.12-0.14c0.17-0.19,0.35-0.35,0.54-0.51
		c0.09-0.08-0.13,0.09,0.02-0.02c0.05-0.03,0.09-0.06,0.13-0.09c0.1-0.07,0.21-0.14,0.32-0.2c0.1-0.06,0.21-0.11,0.31-0.17
		c0.05-0.03,0.1-0.05,0.15-0.07c0.18-0.09-0.09,0.03,0.07-0.03c0.23-0.08,0.46-0.16,0.7-0.22c0.12-0.03,0.23-0.05,0.35-0.07
		c0.1-0.02,0.16-0.02,0.02-0.01c0.07-0.01,0.14-0.02,0.21-0.02c0.25-0.02,0.49-0.02,0.74-0.01c0.06,0,0.11,0.01,0.17,0.02
		c0.03,0,0.06,0.01,0.09,0.01c0.1,0.01-0.15-0.03-0.05-0.01c0.12,0.02,0.25,0.04,0.38,0.07c0.12,0.03,0.23,0.06,0.35,0.1
		c0.05,0.02,0.11,0.04,0.16,0.06c0.03,0.01,0.06,0.02,0.09,0.04c0.09,0.03-0.16-0.08-0.02-0.01c0.22,0.11,0.44,0.22,0.64,0.36
		c0.03,0.02,0.21,0.15,0.13,0.09c-0.07-0.06,0.09,0.08,0.12,0.1c0.11,0.1,0.22,0.2,0.32,0.31c0.05,0.06,0.11,0.12,0.16,0.18
		c0.04,0.05,0.14,0.19,0.06,0.07c0.1,0.14,0.19,0.27,0.28,0.42c0.09,0.14,0.16,0.29,0.23,0.44c0.02,0.04,0.03,0.07,0.05,0.11
		c0.05,0.1-0.06-0.16,0.01,0.03c0.03,0.08,0.06,0.16,0.09,0.24c0.14,0.39,0.23,0.79,0.31,1.2c0.07,0.39,0.54,0.6,0.89,0.51
		c0.41-0.11,0.57-0.5,0.51-0.89c-0.12-0.74-0.17-1.74-0.07-2.6c0.01-0.05,0.01-0.11,0.02-0.16c0,0.03-0.02,0.14,0,0
		c0.02-0.09,0.03-0.19,0.05-0.28c0.04-0.19,0.08-0.37,0.12-0.56c0.05-0.17,0.1-0.33,0.15-0.49c0.03-0.08,0.06-0.16,0.09-0.23
		c0.02-0.04,0.07-0.16,0,0c0.02-0.05,0.04-0.1,0.07-0.15c0.13-0.28,0.28-0.55,0.46-0.81c0.05-0.07,0.1-0.13,0.14-0.2
		c-0.09,0.13-0.01,0.01,0.04-0.05c0.1-0.12,0.21-0.24,0.33-0.35c0.1-0.1,0.2-0.19,0.31-0.28c0.06-0.05,0.16-0.12,0.04-0.03
		c0.07-0.05,0.13-0.1,0.21-0.14c0.23-0.16,0.48-0.28,0.73-0.4c0.14-0.07-0.12,0.05-0.03,0.01c0.04-0.01,0.07-0.03,0.1-0.04
		c0.06-0.02,0.11-0.04,0.17-0.06c0.14-0.05,0.28-0.09,0.42-0.12c0.13-0.03,0.26-0.05,0.39-0.07c-0.15,0.03-0.07,0.01,0.03,0
		c0.08-0.01,0.16-0.01,0.24-0.02c0.27-0.01,0.54,0.01,0.81,0.03c-0.23-0.02-0.01,0,0.05,0.01c0.07,0.01,0.13,0.03,0.2,0.04
		c0.14,0.03,0.29,0.07,0.43,0.11c0.12,0.04,0.24,0.08,0.36,0.13c0.1,0.04-0.17-0.08-0.03-0.01c0.03,0.01,0.06,0.03,0.08,0.04
		c0.07,0.03,0.14,0.07,0.2,0.1c0.12,0.06,0.24,0.13,0.36,0.21c0.07,0.04,0.13,0.08,0.19,0.13c0.05,0.03,0.24,0.19,0.08,0.05
		c0.23,0.19,0.45,0.39,0.65,0.61c0.05,0.06,0.1,0.11,0.14,0.17c0.02,0.03,0.04,0.05,0.06,0.08c0.11,0.13-0.07-0.09-0.01-0.01
		c0.1,0.13,0.19,0.26,0.27,0.4c0.1,0.16,0.19,0.32,0.27,0.49c0.05,0.09,0.09,0.18,0.13,0.27c0.02,0.03,0.05,0.13-0.01-0.02
		c0.02,0.05,0.04,0.1,0.06,0.16c0.15,0.39,0.26,0.79,0.34,1.2c0.02,0.1,0.04,0.21,0.05,0.31c0.01,0.04,0.01,0.08,0.02,0.13
		c-0.02-0.16,0,0.03,0.01,0.07c0.03,0.25,0.04,0.5,0.05,0.75c0.02,0.52-0.01,1.04-0.07,1.56c-0.08,0.7,1.08,1.02,1.35,0.37
		c0.12-0.27,0.25-0.54,0.4-0.8c0.07-0.12,0.15-0.24,0.23-0.35c0.04-0.06,0.08-0.11,0.12-0.17c-0.08,0.1,0.03-0.04,0.05-0.06
		c0.17-0.2,0.34-0.38,0.54-0.54c0.05-0.04,0.09-0.08,0.14-0.12c-0.13,0.1,0.03-0.02,0.05-0.03c0.1-0.07,0.2-0.13,0.3-0.2
		c0.1-0.06,0.2-0.12,0.31-0.17c0.05-0.03,0.11-0.05,0.16-0.07c0.17-0.08-0.14,0.04,0.04-0.02c0.22-0.07,0.43-0.15,0.66-0.2
		c0.11-0.03,0.22-0.04,0.33-0.06c-0.2,0.03,0.14-0.01,0.2-0.01c0.22-0.01,0.45-0.01,0.67,0.01c0.06,0.01,0.11,0.01,0.17,0.02
		c0.19,0.02-0.16-0.03,0.03,0.01c0.11,0.02,0.22,0.04,0.33,0.06c0.22,0.05,0.43,0.11,0.64,0.19c0.05,0.02,0.1,0.04,0.16,0.06
		c-0.17-0.07,0,0,0.03,0.02c0.1,0.05,0.2,0.1,0.3,0.15c0.2,0.11,0.38,0.23,0.56,0.36c0.16,0.1-0.11-0.1,0.03,0.02
		c0.04,0.04,0.09,0.07,0.13,0.11c0.08,0.07,0.17,0.15,0.24,0.22c0.07,0.07,0.13,0.13,0.19,0.2c0.04,0.04,0.07,0.08,0.11,0.12
		c0.13,0.15-0.01-0.03,0.06,0.07c0.11,0.17,0.23,0.34,0.32,0.52c0.05,0.1,0.1,0.2,0.14,0.3c-0.07-0.17,0,0.01,0.01,0.04
		c0.02,0.07,0.05,0.14,0.07,0.22c0.04,0.13,0.07,0.26,0.1,0.39c0.01,0.04,0.02,0.08,0.02,0.11c0.01,0.04,0.01,0.08,0.02,0.12
		c-0.01-0.1-0.01-0.1-0.01-0.02c0.02,0.29,0.03,0.57,0,0.86c0,0.02-0.03,0.23-0.01,0.06c-0.01,0.07-0.02,0.13-0.03,0.2
		c-0.03,0.16-0.07,0.31-0.11,0.47c-0.1,0.36-0.19,0.58-0.33,0.86c-0.17,0.35-0.1,0.78,0.26,0.99c0.32,0.19,0.82,0.09,0.99-0.26
		c0.56-1.18,0.84-2.46,0.58-3.75c-0.21-1.05-0.8-2.03-1.6-2.73c-1.68-1.46-4.1-1.87-6.13-0.92c-1.05,0.49-1.88,1.36-2.43,2.37
		c-0.18,0.32,0.01,0.71,0.37,0.8l0,0c0.36,0.1,0.72-0.15,0.74-0.52c0.08-1.57-0.16-3.17-0.9-4.57c-0.67-1.26-1.75-2.25-3.07-2.79
		c-2.58-1.04-5.52,0.11-6.87,2.5c-0.89,1.58-1.05,3.41-0.88,5.19c0.04,0.43,0.46,0.7,0.88,0.58l0,0c0.35-0.1,0.58-0.45,0.49-0.81
		c-0.3-1.16-0.88-2.28-1.82-3.06c-0.96-0.79-2.15-1.21-3.39-1.19c-2.3,0.03-4.7,1.48-5.28,3.8c-0.38,1.55,0.12,3.12,1.01,4.4
		c0.22,0.32,0.64,0.47,0.99,0.26C331.7,113.83,331.86,113.35,331.64,113.03z"/>
	<path class="st1" d="M322.38,98.68c-2.25-1.05-4.78-1.67-7.25-1.1c-1.89,0.43-3.53,1.61-4.61,3.21c-1,1.49-1.49,3.35-1.38,5.13
		c0.12,1.9,0.88,3.72,2.22,5.08c1.64,1.64,3.91,2.39,6.18,2.56c0.1,0.01,0.2,0.01,0.3,0.02c0.35,0.02,0.6-0.31,0.51-0.65l0,0
		c-0.09-0.34-0.49-0.49-0.78-0.29c-1.7,1.21-3.1,2.84-3.67,4.88c-0.51,1.86-0.25,3.84,0.6,5.56c1.67,3.39,5.61,5.56,9.35,4.5
		c2.46-0.7,4.35-2.58,5.7-4.69c0.2-0.31,0.03-0.72-0.32-0.81l0,0c-0.34-0.09-0.68,0.14-0.68,0.49c-0.03,1.49,0.29,2.99,1.08,4.26
		c0.8,1.28,2.01,2.21,3.41,2.75c2.64,1.02,5.9,0.42,7.89-1.62c1.15-1.17,1.76-2.71,1.92-4.32c0.04-0.38-0.27-0.7-0.66-0.7l0,0
		c-0.4,0-0.72,0.35-0.66,0.74c0.25,1.5,0.81,2.93,1.85,4.07c0.96,1.06,2.3,1.78,3.7,2.03c2.92,0.52,6.02-0.72,7.64-3.24
		c0.92-1.44,1.2-3.12,1.08-4.79c-0.03-0.38-0.42-0.6-0.77-0.45l0,0c-0.33,0.14-0.46,0.55-0.25,0.84c2.1,2.94,5.6,5.46,9.35,4.66
		c1.06-0.23,2.04-0.73,2.89-1.39c0.71-0.55,1.38-1.13,1.89-1.88c0.91-1.35,1.31-3.09,1.21-4.71c-0.11-1.7-0.76-3.32-2.03-4.44
		c-0.23-0.2-0.58-0.05-0.62,0.26l0,0c-0.04,0.3,0.25,0.54,0.54,0.43c1.55-0.63,2.91-1.65,3.84-3.08c0.89-1.37,1.32-3.04,1.24-4.67
		c-0.15-3.33-2.31-6.47-5.64-7.29c-2.12-0.52-4.3-0.07-6.27,0.79c-0.29,0.13-0.33,0.51-0.08,0.7l0,0c0.24,0.19,0.6,0.06,0.66-0.24
		c0.36-1.88,0.4-3.86-0.19-5.69c-0.53-1.63-1.52-3.06-2.93-4.05c-2.69-1.9-6.41-1.67-9.06,0.17c-1.65,1.15-2.85,2.77-3.65,4.59
		c-0.16,0.37,0.08,0.78,0.48,0.83l0,0c0.35,0.05,0.68-0.21,0.68-0.57c0.01-2.47-1.08-5-3.41-6.12c-2.15-1.04-4.8-0.62-6.33,1.29
		c-0.93,1.16-1.34,2.59-1.45,4.05c-0.03,0.39,0.32,0.7,0.71,0.64l0,0c0.37-0.05,0.63-0.41,0.53-0.77c-0.48-1.82-1.37-3.57-2.79-4.82
		c-1.34-1.18-3.02-1.85-4.8-1.96c-3.26-0.21-6.8,1.55-8.2,4.59c-0.88,1.92-0.83,4.08-0.05,6.03c0.14,0.36,0.49,0.62,0.89,0.51
		c0.35-0.09,0.65-0.53,0.51-0.89c-0.18-0.44-0.32-0.89-0.42-1.36c-0.02-0.09-0.04-0.19-0.06-0.28c-0.01-0.06-0.02-0.11-0.03-0.17
		c-0.04-0.19,0.02,0.16-0.01-0.03c-0.02-0.2-0.04-0.4-0.05-0.61c-0.01-0.2-0.01-0.39,0.01-0.59c0.01-0.09,0.01-0.18,0.02-0.26
		c0.01-0.05,0.01-0.1,0.02-0.16c-0.02,0.22,0-0.02,0.01-0.06c0.06-0.36,0.15-0.72,0.28-1.07c0.03-0.08,0.06-0.16,0.09-0.23
		c0.06-0.16-0.07,0.15,0-0.01c0.02-0.04,0.04-0.09,0.06-0.13c0.08-0.17,0.17-0.34,0.26-0.5c0.09-0.15,0.18-0.29,0.27-0.43
		c0.06-0.08,0.11-0.16,0.17-0.24c-0.12,0.16,0.06-0.07,0.1-0.12c0.23-0.27,0.48-0.53,0.76-0.77c0.07-0.07,0.15-0.13,0.23-0.19
		c0.03-0.02,0.05-0.04,0.08-0.06c0.13-0.11-0.13,0.09,0.01-0.01c0.16-0.11,0.32-0.23,0.49-0.34c0.31-0.2,0.63-0.37,0.96-0.52
		c0.05-0.02,0.09-0.04,0.14-0.06c0.15-0.07-0.11,0.05-0.01,0.01c0.08-0.04,0.17-0.07,0.26-0.1c0.19-0.07,0.38-0.13,0.57-0.19
		c0.35-0.1,0.71-0.19,1.08-0.24c0.05-0.01,0.1-0.02,0.15-0.02c-0.19,0.03-0.08,0.01-0.04,0.01c0.1-0.01,0.2-0.02,0.3-0.03
		c0.19-0.02,0.37-0.02,0.55-0.03c0.19,0,0.37,0,0.55,0.01c0.09,0.01,0.19,0.01,0.28,0.02c0.06,0.01,0.4,0.05,0.18,0.02
		c0.37,0.06,0.73,0.13,1.09,0.24c0.18,0.05,0.36,0.12,0.53,0.19c0.05,0.02,0.1,0.04,0.14,0.06c-0.16-0.07-0.07-0.03-0.03-0.01
		c0.11,0.05,0.22,0.1,0.33,0.16c0.35,0.18,0.67,0.38,0.99,0.61c0.03,0.02,0.17,0.13,0.03,0.02c0.04,0.03,0.08,0.07,0.13,0.1
		c0.1,0.08,0.2,0.17,0.29,0.25c0.17,0.15,0.32,0.31,0.47,0.48c0.08,0.09,0.17,0.19,0.24,0.28c0.03,0.04,0.06,0.08,0.09,0.11
		c-0.11-0.14,0.05,0.06,0.06,0.09c0.14,0.2,0.28,0.4,0.4,0.61c0.14,0.24,0.27,0.48,0.39,0.72c0.14,0.3,0.16,0.33,0.27,0.63
		c0.22,0.59,0.39,1.21,0.52,1.83c0.17,0.81,1.42,0.61,1.43-0.19c0-0.39,0.02-0.77,0.07-1.15c0.02-0.15,0.01-0.05,0-0.02
		c0.01-0.05,0.02-0.09,0.02-0.14c0.01-0.08,0.03-0.16,0.04-0.24c0.03-0.17,0.07-0.33,0.11-0.49c0.04-0.16,0.09-0.31,0.14-0.46
		c0.02-0.07,0.05-0.13,0.07-0.2c0.02-0.04,0.03-0.08,0.05-0.11c-0.02,0.06-0.04,0.08,0,0.01c0.13-0.27,0.26-0.53,0.42-0.78
		c0.04-0.05,0.07-0.1,0.11-0.16c0,0,0,0,0,0c0.01-0.01,0.03-0.04,0.03-0.04l0,0c0.09-0.11,0.18-0.21,0.27-0.31
		c0.08-0.09,0.17-0.17,0.26-0.25c0.04-0.04,0.09-0.07,0.13-0.11c0.09-0.08-0.01,0.01-0.03,0.02c0.03-0.03,0.07-0.05,0.1-0.07
		c0.2-0.14,0.4-0.26,0.62-0.37c0.05-0.02,0.1-0.05,0.15-0.07c-0.19,0.09,0,0,0.05-0.02c0.11-0.04,0.22-0.08,0.34-0.11
		c0.11-0.03,0.23-0.06,0.34-0.08c0.05-0.01,0.11-0.02,0.16-0.03c0.08-0.02-0.08,0.01-0.08,0.01c0.04,0,0.08-0.01,0.12-0.01
		c0.24-0.02,0.47-0.03,0.71-0.01c0.06,0.01,0.12,0.01,0.19,0.02c0.17,0.01-0.11-0.02,0.02,0c0.12,0.02,0.25,0.04,0.37,0.07
		c0.24,0.06,0.46,0.13,0.69,0.22c0.12,0.04-0.13-0.07,0.03,0.01c0.05,0.03,0.1,0.05,0.16,0.07c0.12,0.06,0.23,0.12,0.35,0.19
		c0.1,0.06,0.2,0.12,0.29,0.19c0.06,0.04,0.11,0.08,0.16,0.12c-0.13-0.09,0,0,0.05,0.04c0.2,0.17,0.38,0.35,0.55,0.54
		c0.04,0.05,0.08,0.09,0.12,0.14c0.04,0.05,0.12,0.16,0.04,0.04c0.08,0.12,0.17,0.23,0.25,0.36c0.08,0.13,0.16,0.27,0.23,0.41
		c0.04,0.07,0.07,0.13,0.1,0.2c0.02,0.04,0.11,0.27,0.05,0.12c0.12,0.32,0.23,0.64,0.31,0.98c0.04,0.17,0.07,0.33,0.09,0.5
		c0.02,0.14,0,0.03,0,0c0.01,0.06,0.01,0.11,0.02,0.17c0.01,0.09,0.02,0.18,0.02,0.27c0.03,0.42,0.02,0.83-0.02,1.25
		c-0.03,0.36,0.3,0.67,0.63,0.71c0.38,0.05,0.67-0.17,0.8-0.52c0.3-0.79,0.76-1.7,1.31-2.48c0.06-0.09,0.13-0.18,0.2-0.27
		c-0.08,0.11,0.08-0.1,0.11-0.13c0.14-0.17,0.29-0.34,0.44-0.5c0.28-0.3,0.58-0.57,0.9-0.83c0.02-0.02,0.18-0.14,0.04-0.03
		c0.03-0.02,0.06-0.05,0.09-0.07c0.08-0.06,0.16-0.11,0.24-0.17c0.17-0.11,0.34-0.22,0.51-0.32c0.16-0.09,0.31-0.18,0.47-0.25
		c0.08-0.04,0.17-0.08,0.25-0.12c0.04-0.02,0.08-0.04,0.13-0.06c0.05-0.02,0.03-0.02-0.05,0.02c0.03-0.01,0.07-0.03,0.1-0.04
		c0.34-0.13,0.68-0.24,1.04-0.33c0.17-0.04,0.33-0.07,0.5-0.1c0.04-0.01,0.09-0.01,0.13-0.02c0.17-0.03-0.12,0.01-0.01,0
		c0.1-0.01,0.19-0.02,0.29-0.03c0.35-0.03,0.69-0.03,1.04-0.01c0.09,0.01,0.17,0.01,0.26,0.02c0.05,0.01,0.33,0.05,0.11,0.01
		c0.18,0.03,0.35,0.06,0.53,0.1c0.34,0.08,0.68,0.18,1,0.31c0.03,0.01,0.06,0.03,0.09,0.04c0.17,0.06-0.14-0.07,0.02,0.01
		c0.07,0.03,0.14,0.06,0.21,0.1c0.16,0.08,0.32,0.16,0.47,0.25c0.15,0.09,0.29,0.18,0.43,0.28c0.06,0.04,0.12,0.09,0.19,0.14
		c0.09,0.07-0.13-0.11,0,0c0.04,0.03,0.08,0.07,0.12,0.1c0.28,0.23,0.53,0.49,0.77,0.76c0.05,0.06,0.1,0.12,0.16,0.19
		c0.12,0.14-0.09-0.12,0.02,0.02c0.02,0.03,0.04,0.06,0.06,0.09c0.12,0.16,0.23,0.33,0.33,0.5c0.09,0.14,0.17,0.29,0.25,0.44
		c0.04,0.08,0.08,0.17,0.12,0.26c0.03,0.05,0.05,0.11,0.07,0.16c-0.05-0.11-0.01-0.02,0.02,0.04c0.17,0.43,0.3,0.86,0.4,1.31
		c0.03,0.11,0.05,0.23,0.07,0.35c0.01,0.06,0.02,0.13,0.03,0.19c0.01,0.03,0.03,0.23,0.01,0.07c0.03,0.25,0.05,0.5,0.07,0.74
		c0.03,0.56,0.01,1.12-0.04,1.68c-0.05,0.56-0.15,1.11-0.29,1.73c-0.15,0.64,0.5,1.1,1.07,0.82c0.89-0.44,1.88-0.8,2.93-0.99
		c0.11-0.02,0.22-0.04,0.33-0.05c-0.16,0.02,0.15-0.02,0.19-0.02c0.23-0.02,0.46-0.04,0.68-0.04c0.2,0,0.4,0,0.6,0.01
		c0.1,0.01,0.19,0.02,0.29,0.02c0.06,0.01,0.11,0.01,0.17,0.02c-0.19-0.02-0.01,0,0.03,0.01c0.4,0.07,0.79,0.16,1.17,0.3
		c0.08,0.03,0.17,0.06,0.25,0.09c0.04,0.01,0.13,0.06-0.03-0.01c0.05,0.02,0.1,0.04,0.14,0.06c0.17,0.08,0.34,0.17,0.51,0.26
		c0.15,0.09,0.29,0.18,0.43,0.27c0.07,0.05,0.14,0.1,0.21,0.15c0.14,0.1-0.12-0.1,0.01,0.01c0.04,0.03,0.08,0.06,0.12,0.1
		c0.27,0.23,0.52,0.48,0.75,0.74c0.06,0.07,0.12,0.14,0.18,0.21c0.03,0.04,0.1,0.13-0.01-0.01c0.03,0.03,0.05,0.07,0.07,0.1
		c0.11,0.16,0.22,0.32,0.32,0.48c0.18,0.3,0.34,0.62,0.48,0.94c-0.08-0.19,0.02,0.06,0.04,0.11c0.03,0.08,0.06,0.16,0.09,0.24
		c0.06,0.18,0.11,0.35,0.16,0.53c0.04,0.16,0.08,0.33,0.11,0.49c0.02,0.08,0.03,0.17,0.05,0.25c0.01,0.05,0.02,0.1,0.02,0.15
		c-0.03-0.2-0.01-0.04,0,0.01c0.04,0.36,0.06,0.72,0.05,1.09c-0.01,0.18-0.02,0.36-0.03,0.53c-0.01,0.05-0.04,0.33-0.01,0.11
		c-0.02,0.1-0.03,0.2-0.05,0.3c-0.06,0.35-0.16,0.7-0.27,1.04c-0.03,0.08-0.06,0.16-0.09,0.24c-0.02,0.05-0.13,0.3-0.04,0.11
		c-0.08,0.17-0.16,0.35-0.25,0.51c-0.1,0.19-0.21,0.37-0.32,0.54c-0.06,0.09-0.12,0.18-0.18,0.26c-0.02,0.03-0.13,0.17-0.02,0.02
		c-0.03,0.04-0.07,0.08-0.1,0.13c-0.28,0.34-0.59,0.66-0.93,0.94c-0.04,0.03-0.07,0.06-0.11,0.09c-0.14,0.12,0.06-0.04-0.06,0.04
		c-0.09,0.07-0.19,0.14-0.28,0.2c-0.2,0.13-0.4,0.26-0.61,0.37c-0.22,0.12-0.44,0.23-0.67,0.33c0.03-0.01,0.13-0.05-0.01,0
		c-0.07,0.03-0.14,0.06-0.21,0.08c-0.13,0.05-0.27,0.1-0.41,0.14c-0.61,0.2-0.7,0.97-0.17,1.33c0.23,0.15,0.47,0.36,0.71,0.63
		c0.06,0.06,0.11,0.13,0.16,0.19c-0.06-0.08,0.06,0.09,0.08,0.11c0.1,0.15,0.2,0.31,0.28,0.46c0.18,0.33,0.23,0.46,0.35,0.84
		c0.05,0.17,0.1,0.33,0.13,0.5c0.03,0.14,0.08,0.42,0.09,0.5c0.17,1.31-0.07,2.75-0.71,3.9c-0.08,0.15-0.17,0.29-0.26,0.43
		c-0.05,0.07-0.09,0.14-0.14,0.2c-0.05,0.07-0.01,0.01,0.01-0.01c-0.04,0.05-0.07,0.09-0.11,0.13c-0.11,0.12-0.22,0.24-0.34,0.36
		c-0.06,0.06-0.12,0.11-0.18,0.16c-0.03,0.02-0.05,0.04-0.08,0.07c-0.03,0.03-0.04,0.03-0.01,0.01c0.07-0.05,0.03-0.02-0.13,0.1
		c-0.72,0.6-1.45,1.14-2.35,1.43c-1.56,0.5-3.17,0.21-4.61-0.55c-1.67-0.89-3.06-2.29-4.07-3.86c-0.19-0.3-0.57-0.44-0.91-0.3
		c-0.36,0.16-0.48,0.49-0.42,0.86c0.03,0.23-0.01-0.08,0.01,0.05c0.01,0.05,0.01,0.09,0.02,0.14c0.01,0.1,0.02,0.21,0.03,0.31
		c0.02,0.21,0.02,0.42,0.02,0.64c0,0.18-0.01,0.36-0.02,0.55c-0.01,0.1-0.02,0.21-0.03,0.31c0,0.03-0.02,0.14,0-0.01
		c-0.01,0.06-0.02,0.12-0.03,0.18c-0.06,0.35-0.14,0.69-0.25,1.02c-0.03,0.08-0.06,0.16-0.09,0.24c-0.02,0.04-0.12,0.28-0.04,0.11
		c-0.07,0.16-0.15,0.32-0.23,0.47c-0.07,0.13-0.15,0.27-0.23,0.4c-0.05,0.08-0.1,0.15-0.15,0.22c-0.03,0.04-0.19,0.26-0.08,0.11
		c-0.2,0.25-0.41,0.48-0.64,0.7c-0.11,0.11-0.23,0.21-0.35,0.31c-0.16,0.13,0.06-0.04-0.08,0.06c-0.07,0.05-0.14,0.1-0.21,0.15
		c-0.26,0.18-0.54,0.34-0.82,0.48c-0.06,0.03-0.12,0.06-0.19,0.09c-0.04,0.02-0.08,0.04-0.12,0.05c-0.09,0.04,0.12-0.05,0.03-0.01
		c-0.15,0.06-0.3,0.12-0.46,0.17c-0.3,0.1-0.61,0.18-0.92,0.23c-0.08,0.01-0.15,0.03-0.23,0.04c-0.11,0.02,0.13-0.01-0.06,0.01
		c-0.17,0.02-0.34,0.03-0.51,0.04c-0.31,0.01-0.61,0-0.92-0.03c-0.04,0-0.27-0.03-0.16-0.02c0.11,0.02-0.12-0.02-0.16-0.03
		c-0.16-0.03-0.32-0.06-0.47-0.1c-0.14-0.04-0.28-0.08-0.41-0.12c-0.07-0.02-0.14-0.05-0.22-0.08c-0.04-0.02-0.08-0.03-0.12-0.05
		c-0.14-0.05,0.13,0.06-0.02-0.01c-0.28-0.13-0.55-0.27-0.81-0.43c-0.13-0.08-0.26-0.17-0.38-0.27c0.13,0.09-0.01-0.01-0.06-0.05
		c-0.07-0.06-0.15-0.12-0.22-0.19c-0.14-0.13-0.27-0.26-0.39-0.4c-0.06-0.07-0.12-0.14-0.18-0.21c-0.02-0.03-0.05-0.06-0.07-0.09
		c0.11,0.14-0.01-0.01-0.02-0.03c-0.23-0.32-0.43-0.66-0.6-1.02c-0.02-0.05-0.04-0.09-0.06-0.14c-0.06-0.12,0.02,0.06-0.01-0.02
		c-0.04-0.1-0.08-0.21-0.12-0.32c-0.07-0.2-0.13-0.41-0.19-0.62c-0.06-0.22-0.11-0.44-0.15-0.66c-0.06-0.32-0.06-0.33-0.09-0.66
		c-0.04-0.39-0.31-0.72-0.72-0.72c-0.4,0-0.72,0.33-0.72,0.72c-0.01,0.2-0.02,0.4-0.03,0.59c-0.01,0.04-0.01,0.09-0.01,0.13
		c0,0-0.03,0.21-0.01,0.09l0,0c0.01-0.11-0.02,0.14-0.04,0.25c0,0.01,0,0.02,0,0.02c-0.07,0.35-0.16,0.7-0.27,1.03
		c-0.03,0.09-0.07,0.18-0.1,0.27c-0.01,0.03-0.06,0.12,0.01-0.02c-0.02,0.03-0.03,0.07-0.05,0.1c-0.08,0.17-0.16,0.33-0.25,0.49
		c-0.08,0.14-0.17,0.27-0.26,0.41c-0.04,0.06-0.08,0.11-0.12,0.17c-0.07,0.11,0.01-0.01,0.02-0.02c-0.03,0.04-0.07,0.08-0.1,0.12
		c-0.21,0.25-0.44,0.49-0.69,0.7c-0.05,0.04-0.1,0.09-0.16,0.13c-0.13,0.11,0.09-0.07,0.01-0.01c-0.03,0.03-0.07,0.05-0.1,0.08
		c-0.12,0.09-0.25,0.17-0.38,0.25c-0.13,0.08-0.26,0.16-0.4,0.22c-0.07,0.04-0.15,0.08-0.23,0.11c-0.05,0.02-0.29,0.12-0.1,0.05
		c-0.29,0.12-0.58,0.22-0.88,0.29c-0.14,0.04-0.28,0.07-0.42,0.09c-0.08,0.02-0.17,0.03-0.25,0.04c-0.2,0.03,0.1-0.01-0.11,0.02
		c-0.31,0.03-0.62,0.05-0.94,0.04c-0.14,0-0.29-0.01-0.43-0.02c-0.08-0.01-0.17-0.02-0.25-0.03c-0.04,0-0.14-0.02,0.04,0.01
		c-0.05-0.01-0.1-0.02-0.15-0.02c-0.31-0.05-0.61-0.12-0.91-0.21c-0.14-0.04-0.27-0.09-0.41-0.14c-0.04-0.02-0.3-0.12-0.11-0.04
		c-0.08-0.03-0.16-0.07-0.23-0.1c-0.28-0.13-0.55-0.29-0.81-0.46c-0.06-0.04-0.12-0.09-0.19-0.13c-0.17-0.12,0.06,0.05-0.08-0.06
		c-0.12-0.1-0.25-0.21-0.37-0.32c-0.11-0.11-0.22-0.22-0.32-0.33c-0.05-0.05-0.09-0.1-0.14-0.16c-0.03-0.03-0.06-0.07-0.08-0.1
		c-0.04-0.05,0.08,0.11-0.02-0.02c-0.22-0.3-0.41-0.61-0.57-0.95c-0.02-0.04-0.04-0.08-0.06-0.12c-0.01-0.02-0.08-0.19-0.04-0.09
		c0.04,0.11-0.03-0.07-0.03-0.07c-0.02-0.05-0.04-0.11-0.06-0.16c-0.07-0.18-0.12-0.37-0.17-0.56c-0.05-0.21-0.1-0.41-0.13-0.63
		c-0.01-0.04-0.01-0.08-0.02-0.12c-0.01-0.05-0.01-0.04,0.01,0.04c-0.01-0.03-0.01-0.06-0.01-0.09c-0.01-0.12-0.03-0.24-0.03-0.36
		c-0.03-0.49-0.02-0.97,0.02-1.46c0.06-0.74-1.01-0.96-1.35-0.37c-0.65,1.11-1.33,2.06-2.28,2.93c-0.45,0.42-0.69,0.61-1.19,0.92
		c-0.2,0.12-0.39,0.24-0.6,0.34c-0.09,0.05-0.18,0.09-0.27,0.13c-0.05,0.03-0.11,0.05-0.17,0.07c0.17-0.07-0.07,0.03-0.1,0.04
		c-0.41,0.16-0.83,0.28-1.26,0.35c-0.05,0.01-0.11,0.02-0.17,0.03c-0.19,0.03,0.16-0.01-0.03,0c-0.11,0.01-0.22,0.02-0.33,0.03
		c-0.22,0.02-0.43,0.02-0.65,0.01c-0.2-0.01-0.39-0.03-0.58-0.05c-0.18-0.02,0.16,0.03-0.02,0c-0.05-0.01-0.1-0.02-0.16-0.03
		c-0.1-0.02-0.21-0.04-0.31-0.06c-0.19-0.04-0.38-0.09-0.56-0.15c-0.1-0.03-0.2-0.07-0.3-0.1c-0.06-0.02-0.4-0.16-0.22-0.08
		c-0.37-0.17-0.73-0.35-1.07-0.57c-0.16-0.1-0.32-0.22-0.48-0.33c-0.03-0.02-0.17-0.13-0.02-0.02c-0.04-0.03-0.08-0.07-0.12-0.1
		c-0.08-0.07-0.16-0.13-0.24-0.21c-0.32-0.28-0.61-0.59-0.88-0.92c-0.03-0.04-0.2-0.26-0.08-0.1c-0.06-0.08-0.13-0.17-0.19-0.26
		c-0.12-0.17-0.24-0.35-0.35-0.53c-0.1-0.17-0.19-0.34-0.28-0.51c-0.05-0.09-0.09-0.19-0.14-0.29c-0.02-0.03-0.08-0.2-0.01-0.02
		c-0.02-0.06-0.05-0.11-0.07-0.17c-0.15-0.39-0.27-0.79-0.35-1.19c-0.02-0.1-0.04-0.21-0.06-0.31c-0.01-0.04-0.01-0.07-0.02-0.1
		c-0.03-0.18,0.01,0.17,0-0.02c-0.02-0.21-0.04-0.42-0.04-0.64c-0.01-0.21,0-0.43,0.02-0.64c0.01-0.09,0.02-0.18,0.03-0.27
		c0.01-0.04,0.04-0.22,0-0.02c0.01-0.07,0.02-0.14,0.04-0.22c0.09-0.48,0.23-0.95,0.41-1.4c-0.07,0.16,0.07-0.14,0.09-0.2
		c0.06-0.12,0.12-0.25,0.19-0.37c0.13-0.23,0.27-0.46,0.43-0.68c0.04-0.05,0.07-0.1,0.11-0.15c0.05-0.07,0.05-0.07,0-0.01
		c0.03-0.03,0.05-0.07,0.08-0.1c0.08-0.1,0.17-0.2,0.25-0.3c0.2-0.22,0.4-0.43,0.62-0.64c0.52-0.48,0.92-0.78,1.53-1.17
		c0.6-0.38,0.37-1.35-0.37-1.35c-0.32,0-0.64-0.01-0.96-0.03c-0.15-0.01-0.29-0.02-0.44-0.04c-0.08-0.01-0.15-0.02-0.23-0.03
		c-0.09-0.01,0.02,0,0.03,0.01c-0.04-0.01-0.09-0.01-0.13-0.02c-0.55-0.08-1.1-0.21-1.63-0.38c-0.12-0.04-0.24-0.08-0.35-0.12
		c-0.06-0.02-0.12-0.05-0.18-0.07c-0.06-0.02-0.19-0.08-0.06-0.02c-0.22-0.1-0.44-0.2-0.66-0.32c-0.21-0.11-0.42-0.24-0.62-0.38
		c-0.09-0.06-0.18-0.12-0.27-0.19c-0.07-0.05-0.1-0.08-0.01-0.01c-0.05-0.04-0.1-0.08-0.16-0.12c-0.33-0.28-0.64-0.58-0.92-0.92
		c-0.04-0.04-0.07-0.09-0.1-0.13c-0.03-0.03,0.08,0.12,0,0c-0.07-0.09-0.13-0.19-0.2-0.28c-0.11-0.17-0.22-0.35-0.32-0.53
		c-0.1-0.18-0.18-0.37-0.27-0.55c0.09,0.19-0.03-0.07-0.05-0.14c-0.04-0.1-0.07-0.2-0.1-0.3c-0.13-0.39-0.21-0.8-0.28-1.21
		c-0.02-0.13,0.02,0.15,0,0.02c-0.01-0.05-0.01-0.1-0.02-0.16c-0.01-0.1-0.02-0.21-0.03-0.31c-0.01-0.2-0.02-0.4-0.01-0.61
		c0.01-0.2,0.02-0.4,0.04-0.61c0.01-0.08,0.05-0.36,0.01-0.14c0.02-0.1,0.03-0.21,0.05-0.31c0.07-0.4,0.18-0.8,0.32-1.19
		c0.03-0.09,0.07-0.18,0.1-0.27c0.02-0.04,0.03-0.08,0.05-0.12c-0.08,0.2-0.01,0.02,0.02-0.03c0.08-0.18,0.17-0.36,0.27-0.54
		c0.1-0.18,0.21-0.36,0.33-0.54c0.05-0.08,0.11-0.16,0.17-0.24c0.03-0.04,0.05-0.07,0.08-0.11c0.06-0.08-0.09,0.11,0.03-0.03
		c0.26-0.32,0.54-0.61,0.85-0.88c0.07-0.07,0.15-0.13,0.23-0.19c0.14-0.11-0.09,0.06,0.02-0.01c0.04-0.03,0.09-0.06,0.13-0.09
		c0.18-0.12,0.36-0.24,0.55-0.35c0.18-0.11,0.37-0.2,0.57-0.29c0.04-0.02,0.09-0.04,0.13-0.06c-0.19,0.08-0.02,0.01,0.03-0.01
		c0.11-0.04,0.21-0.08,0.32-0.12c0.21-0.07,0.43-0.13,0.65-0.18c0.11-0.03,0.22-0.05,0.32-0.07c0.06-0.01,0.12-0.02,0.18-0.03
		c0.05-0.01,0.27-0.04,0.07-0.01c0.49-0.06,0.99-0.08,1.48-0.05c0.13,0.01,0.25,0.02,0.38,0.03c0.07,0.01,0.14,0.01,0.21,0.02
		c0.03,0,0.06,0.01,0.09,0.01c0.11,0.01-0.12-0.02-0.01,0c0.28,0.04,0.55,0.09,0.83,0.15c0.61,0.14,1.21,0.32,1.79,0.55
		c0.07,0.03,0.14,0.05,0.2,0.08c0.03,0.01,0.22,0.09,0.13,0.06c0.16,0.07,0.33,0.14,0.49,0.22c0.36,0.17,0.78,0.1,0.99-0.26
		C322.82,99.36,322.74,98.85,322.38,98.68z"/>
	<path class="st1" d="M331.64,113.03c-0.2-0.29-0.38-0.58-0.53-0.9c-0.03-0.07-0.06-0.13-0.09-0.2c-0.06-0.12-0.01-0.02,0,0.01
		c-0.02-0.04-0.03-0.07-0.04-0.11c-0.05-0.14-0.1-0.29-0.14-0.44c-0.04-0.13-0.07-0.27-0.09-0.4c-0.01-0.07-0.03-0.19-0.01-0.04
		c-0.01-0.08-0.02-0.16-0.02-0.23c-0.01-0.12-0.01-0.25-0.01-0.38c0-0.06,0.01-0.11,0.01-0.17c0.01-0.05,0.04-0.29,0-0.07
		c0.04-0.24,0.09-0.48,0.18-0.71c0.02-0.05,0.04-0.1,0.06-0.15c-0.06,0.15-0.02,0.04,0.02-0.04c0.05-0.11,0.11-0.22,0.18-0.32
		c0.06-0.09,0.12-0.18,0.18-0.27c0.11-0.16-0.05,0.05,0.03-0.04c0.04-0.05,0.08-0.09,0.12-0.14c0.17-0.19,0.35-0.35,0.54-0.51
		c0.09-0.08-0.13,0.09,0.02-0.02c0.05-0.03,0.09-0.06,0.13-0.09c0.1-0.07,0.21-0.14,0.32-0.2c0.1-0.06,0.21-0.11,0.31-0.17
		c0.05-0.03,0.1-0.05,0.15-0.07c0.18-0.09-0.09,0.03,0.07-0.03c0.23-0.08,0.46-0.16,0.7-0.22c0.12-0.03,0.23-0.05,0.35-0.07
		c0.1-0.02,0.16-0.02,0.02-0.01c0.07-0.01,0.14-0.02,0.21-0.02c0.25-0.02,0.49-0.02,0.74-0.01c0.06,0,0.11,0.01,0.17,0.02
		c0.03,0,0.06,0.01,0.09,0.01c0.1,0.01-0.15-0.03-0.05-0.01c0.12,0.02,0.25,0.04,0.38,0.07c0.12,0.03,0.23,0.06,0.35,0.1
		c0.05,0.02,0.11,0.04,0.16,0.06c0.03,0.01,0.06,0.02,0.09,0.04c0.09,0.03-0.16-0.08-0.02-0.01c0.22,0.11,0.44,0.22,0.64,0.36
		c0.03,0.02,0.21,0.15,0.13,0.09c-0.07-0.06,0.09,0.08,0.12,0.1c0.11,0.1,0.22,0.2,0.32,0.31c0.05,0.06,0.11,0.12,0.16,0.18
		c0.04,0.05,0.14,0.19,0.06,0.07c0.1,0.14,0.19,0.27,0.28,0.42c0.09,0.14,0.16,0.29,0.23,0.44c0.02,0.04,0.03,0.07,0.05,0.11
		c0.05,0.1-0.06-0.16,0.01,0.03c0.03,0.08,0.06,0.16,0.09,0.24c0.14,0.39,0.23,0.79,0.31,1.2c0.07,0.39,0.54,0.6,0.89,0.51
		c0.41-0.11,0.57-0.5,0.51-0.89c-0.12-0.74-0.17-1.74-0.07-2.6c0.01-0.05,0.01-0.11,0.02-0.16c0,0.03-0.02,0.14,0,0
		c0.02-0.09,0.03-0.19,0.05-0.28c0.04-0.19,0.08-0.37,0.12-0.56c0.05-0.17,0.1-0.33,0.15-0.49c0.03-0.08,0.06-0.16,0.09-0.23
		c0.02-0.04,0.07-0.16,0,0c0.02-0.05,0.04-0.1,0.07-0.15c0.13-0.28,0.28-0.55,0.46-0.81c0.05-0.07,0.1-0.13,0.14-0.2
		c-0.09,0.13-0.01,0.01,0.04-0.05c0.1-0.12,0.21-0.24,0.33-0.35c0.1-0.1,0.2-0.19,0.31-0.28c0.06-0.05,0.16-0.12,0.04-0.03
		c0.07-0.05,0.13-0.1,0.21-0.14c0.23-0.16,0.48-0.28,0.73-0.4c0.14-0.07-0.12,0.05-0.03,0.01c0.04-0.01,0.07-0.03,0.1-0.04
		c0.06-0.02,0.11-0.04,0.17-0.06c0.14-0.05,0.28-0.09,0.42-0.12c0.13-0.03,0.26-0.05,0.39-0.07c-0.15,0.03-0.07,0.01,0.03,0
		c0.08-0.01,0.16-0.01,0.24-0.02c0.27-0.01,0.54,0.01,0.81,0.03c-0.23-0.02-0.01,0,0.05,0.01c0.07,0.01,0.13,0.03,0.2,0.04
		c0.14,0.03,0.29,0.07,0.43,0.11c0.12,0.04,0.24,0.08,0.36,0.13c0.1,0.04-0.17-0.08-0.03-0.01c0.03,0.01,0.06,0.03,0.08,0.04
		c0.07,0.03,0.14,0.07,0.2,0.1c0.12,0.06,0.24,0.13,0.36,0.21c0.07,0.04,0.13,0.08,0.19,0.13c0.05,0.03,0.24,0.19,0.08,0.05
		c0.23,0.19,0.45,0.39,0.65,0.61c0.05,0.06,0.1,0.11,0.14,0.17c0.02,0.03,0.04,0.05,0.06,0.08c0.11,0.13-0.07-0.09-0.01-0.01
		c0.1,0.13,0.19,0.26,0.27,0.4c0.1,0.16,0.19,0.32,0.27,0.49c0.05,0.09,0.09,0.18,0.13,0.27c0.02,0.03,0.05,0.13-0.01-0.02
		c0.02,0.05,0.04,0.1,0.06,0.16c0.15,0.39,0.26,0.79,0.34,1.2c0.02,0.1,0.04,0.21,0.05,0.31c0.01,0.04,0.01,0.08,0.02,0.13
		c-0.02-0.16,0,0.03,0.01,0.07c0.03,0.25,0.04,0.5,0.05,0.75c0.02,0.52-0.01,1.04-0.07,1.56c-0.08,0.7,1.08,1.02,1.35,0.37
		c0.12-0.27,0.25-0.54,0.4-0.8c0.07-0.12,0.15-0.24,0.23-0.35c0.04-0.06,0.08-0.11,0.12-0.17c-0.08,0.1,0.03-0.04,0.05-0.06
		c0.17-0.2,0.34-0.38,0.54-0.54c0.05-0.04,0.09-0.08,0.14-0.12c-0.13,0.1,0.03-0.02,0.05-0.03c0.1-0.07,0.2-0.13,0.3-0.2
		c0.1-0.06,0.2-0.12,0.31-0.17c0.05-0.03,0.11-0.05,0.16-0.07c0.17-0.08-0.14,0.04,0.04-0.02c0.22-0.07,0.43-0.15,0.66-0.2
		c0.11-0.03,0.22-0.04,0.33-0.06c-0.2,0.03,0.14-0.01,0.2-0.01c0.22-0.01,0.45-0.01,0.67,0.01c0.06,0.01,0.11,0.01,0.17,0.02
		c0.19,0.02-0.16-0.03,0.03,0.01c0.11,0.02,0.22,0.04,0.33,0.06c0.22,0.05,0.43,0.11,0.64,0.19c0.05,0.02,0.1,0.04,0.16,0.06
		c-0.17-0.07,0,0,0.03,0.02c0.1,0.05,0.2,0.1,0.3,0.15c0.2,0.11,0.38,0.23,0.56,0.36c0.16,0.1-0.11-0.1,0.03,0.02
		c0.04,0.04,0.09,0.07,0.13,0.11c0.08,0.07,0.17,0.15,0.24,0.22c0.07,0.07,0.13,0.13,0.19,0.2c0.04,0.04,0.07,0.08,0.11,0.12
		c0.13,0.15-0.01-0.03,0.06,0.07c0.11,0.17,0.23,0.34,0.32,0.52c0.05,0.1,0.1,0.2,0.14,0.3c-0.07-0.17,0,0.01,0.01,0.04
		c0.02,0.07,0.05,0.14,0.07,0.22c0.04,0.13,0.07,0.26,0.1,0.39c0.01,0.04,0.02,0.08,0.02,0.11c0.01,0.04,0.01,0.08,0.02,0.12
		c-0.01-0.1-0.01-0.1-0.01-0.02c0.02,0.29,0.03,0.57,0,0.86c0,0.02-0.03,0.23-0.01,0.06c-0.01,0.07-0.02,0.13-0.03,0.2
		c-0.03,0.16-0.07,0.31-0.11,0.47c-0.1,0.36-0.19,0.58-0.33,0.86c-0.17,0.35-0.1,0.78,0.26,0.99c0.32,0.19,0.82,0.09,0.99-0.26
		c0.56-1.18,0.84-2.46,0.58-3.75c-0.21-1.05-0.8-2.03-1.6-2.73c-1.68-1.46-4.1-1.87-6.13-0.92c-1.05,0.49-1.88,1.36-2.43,2.37
		c-0.18,0.32,0.01,0.71,0.37,0.8l0,0c0.36,0.1,0.72-0.15,0.74-0.52c0.08-1.57-0.16-3.17-0.9-4.57c-0.67-1.26-1.75-2.25-3.07-2.79
		c-2.58-1.04-5.52,0.11-6.87,2.5c-0.89,1.58-1.05,3.41-0.88,5.19c0.04,0.43,0.46,0.7,0.88,0.58l0,0c0.35-0.1,0.58-0.45,0.49-0.81
		c-0.3-1.16-0.88-2.28-1.82-3.06c-0.96-0.79-2.15-1.21-3.39-1.19c-2.3,0.03-4.7,1.48-5.28,3.8c-0.38,1.55,0.12,3.12,1.01,4.4
		c0.22,0.32,0.64,0.47,0.99,0.26C331.7,113.83,331.86,113.35,331.64,113.03z"/>
</g>
<path class="st0" d="M326.06,160.87L326.06,160.87c1.05-1.09,2.48-1.93,3.94-2.24c1.44-0.3,2.88-0.08,4.05,0.91
	c1.29,1.1,1.99,2.74,2.27,4.59c0.27,1.85,0.11,3.84-0.25,5.51c-0.87,4.05-3.05,7.77-5.37,11.34l-0.02,0.03l-0.02,0.03l-0.95,1.85
	c-0.27,0.29-0.84,0.86-1.45,1.3c-0.33,0.24-0.63,0.41-0.86,0.49c-0.11,0.04-0.17,0.04-0.19,0.04c-1.11-0.83-2.24-1.64-3.36-2.45
	c-2.75-1.99-5.48-3.96-8-6.16l0,0c-2.7-2.36-5.15-5.47-4.65-8.86v0c0.2-1.37,1.15-2.7,2.49-3.65c1.34-0.95,2.95-1.43,4.36-1.23v0
	c2.06,0.29,3.42,1.7,4.83,3.49l1.15,1.46l0.21-1.85C324.45,163.64,324.94,162.02,326.06,160.87z M327.19,184.73
	C327.19,184.73,327.19,184.73,327.19,184.73C327.19,184.73,327.19,184.73,327.19,184.73z"/>
</svg>
