<?xml version="1.0" encoding="utf-8"?>
<!-- Generator: Adobe Illustrator 27.6.1, SVG Export Plug-In . SVG Version: 6.00 Build 0)  -->
<svg version="1.1" id="Layer_1" xmlns="http://www.w3.org/2000/svg" xmlns:xlink="http://www.w3.org/1999/xlink" x="0px" y="0px"
	 viewBox="0 0 340 441" style="enable-background:new 0 0 340 441;" xml:space="preserve">
<style type="text/css">
	.st0{fill:#8787C1;}
	.st1{fill:none;stroke:#8787C1;stroke-width:1.5;}
	.st2{fill-rule:evenodd;clip-rule:evenodd;fill:#8787C1;}
</style>
<g>
	<path class="st0" d="M26.3,27.76c-2.25-1.05-4.78-1.67-7.25-1.1c-1.89,0.43-3.53,1.61-4.61,3.21c-1,1.49-1.49,3.35-1.38,5.13
		c0.12,1.9,0.88,3.72,2.22,5.08c1.64,1.64,3.91,2.39,6.18,2.56c0.1,0.01,0.2,0.01,0.3,0.02c0.35,0.02,0.6-0.31,0.51-0.65l0,0
		c-0.09-0.34-0.49-0.49-0.78-0.29c-1.7,1.21-3.1,2.84-3.67,4.88c-0.51,1.86-0.25,3.84,0.6,5.56c1.67,3.39,5.61,5.56,9.35,4.5
		c2.46-0.7,4.35-2.58,5.7-4.69c0.2-0.31,0.03-0.72-0.32-0.81l0,0c-0.34-0.09-0.68,0.14-0.68,0.49c-0.03,1.49,0.29,2.99,1.08,4.26
		c0.8,1.28,2.01,2.21,3.41,2.75c2.64,1.02,5.9,0.42,7.89-1.62c1.15-1.17,1.76-2.71,1.92-4.32c0.04-0.38-0.27-0.7-0.66-0.7l0,0
		c-0.4,0-0.72,0.35-0.66,0.74c0.25,1.5,0.81,2.93,1.85,4.07c0.96,1.06,2.3,1.78,3.7,2.03c2.92,0.52,6.02-0.72,7.64-3.24
		c0.92-1.44,1.2-3.12,1.08-4.79c-0.03-0.38-0.42-0.6-0.77-0.45l0,0c-0.33,0.14-0.46,0.55-0.25,0.84c2.1,2.94,5.6,5.46,9.35,4.66
		c1.06-0.23,2.04-0.73,2.89-1.39c0.71-0.55,1.38-1.13,1.89-1.88c0.91-1.35,1.31-3.09,1.2-4.71c-0.11-1.7-0.76-3.32-2.03-4.44
		c-0.23-0.2-0.58-0.05-0.62,0.26l0,0c-0.04,0.3,0.25,0.54,0.54,0.43c1.55-0.63,2.91-1.65,3.84-3.08c0.89-1.37,1.32-3.04,1.24-4.67
		c-0.15-3.33-2.31-6.47-5.64-7.29c-2.12-0.52-4.3-0.07-6.27,0.79c-0.29,0.13-0.33,0.51-0.08,0.7l0,0c0.24,0.19,0.6,0.06,0.66-0.24
		c0.36-1.88,0.4-3.86-0.19-5.69c-0.53-1.63-1.52-3.06-2.93-4.05c-2.69-1.9-6.41-1.67-9.06,0.17c-1.65,1.15-2.85,2.77-3.65,4.59
		c-0.16,0.37,0.08,0.78,0.48,0.83l0,0c0.35,0.05,0.68-0.21,0.68-0.57c0.01-2.47-1.08-5-3.41-6.12c-2.15-1.04-4.8-0.62-6.33,1.29
		c-0.93,1.16-1.34,2.59-1.45,4.05c-0.03,0.39,0.32,0.7,0.71,0.64l0,0c0.37-0.05,0.63-0.41,0.53-0.77c-0.48-1.82-1.37-3.57-2.79-4.82
		c-1.34-1.18-3.02-1.85-4.8-1.96c-3.26-0.21-6.8,1.55-8.2,4.59c-0.88,1.92-0.83,4.08-0.05,6.03c0.14,0.36,0.49,0.62,0.89,0.51
		c0.35-0.09,0.65-0.53,0.51-0.89c-0.18-0.44-0.32-0.89-0.42-1.36c-0.02-0.09-0.04-0.19-0.06-0.28c-0.01-0.06-0.02-0.11-0.03-0.17
		c-0.04-0.19,0.02,0.16-0.01-0.03c-0.02-0.2-0.04-0.4-0.05-0.61c-0.01-0.2-0.01-0.39,0.01-0.59c0.01-0.09,0.01-0.18,0.02-0.26
		c0.01-0.05,0.01-0.1,0.02-0.16c-0.02,0.22,0-0.02,0.01-0.06c0.06-0.36,0.15-0.72,0.28-1.07c0.03-0.08,0.06-0.16,0.09-0.23
		c0.06-0.16-0.07,0.15,0-0.01c0.02-0.04,0.04-0.09,0.06-0.13c0.08-0.17,0.17-0.34,0.26-0.5c0.09-0.15,0.18-0.29,0.27-0.43
		c0.06-0.08,0.11-0.16,0.17-0.24c-0.12,0.16,0.06-0.07,0.1-0.12c0.23-0.27,0.48-0.53,0.76-0.77c0.07-0.07,0.15-0.13,0.23-0.19
		c0.03-0.02,0.05-0.04,0.08-0.06c0.13-0.11-0.13,0.09,0.01-0.01c0.16-0.11,0.32-0.23,0.49-0.34c0.31-0.2,0.63-0.37,0.96-0.52
		c0.05-0.02,0.09-0.04,0.14-0.06c0.15-0.07-0.11,0.05-0.01,0.01c0.08-0.04,0.17-0.07,0.26-0.1c0.19-0.07,0.38-0.13,0.57-0.19
		c0.35-0.1,0.71-0.19,1.08-0.24c0.05-0.01,0.1-0.02,0.15-0.02c-0.19,0.03-0.08,0.01-0.04,0.01c0.1-0.01,0.2-0.02,0.3-0.03
		c0.19-0.02,0.37-0.02,0.55-0.03s0.37,0,0.55,0.01c0.09,0.01,0.19,0.01,0.28,0.02c0.06,0.01,0.4,0.05,0.18,0.02
		c0.37,0.06,0.73,0.13,1.09,0.24c0.18,0.05,0.36,0.12,0.53,0.19c0.05,0.02,0.1,0.04,0.14,0.06c-0.16-0.07-0.07-0.03-0.03-0.01
		c0.11,0.05,0.22,0.1,0.33,0.16c0.35,0.18,0.67,0.38,0.99,0.61c0.03,0.02,0.17,0.13,0.03,0.02c0.04,0.03,0.08,0.07,0.13,0.1
		c0.1,0.08,0.2,0.17,0.29,0.25c0.17,0.15,0.32,0.31,0.47,0.48c0.08,0.09,0.17,0.19,0.24,0.28c0.03,0.04,0.06,0.08,0.09,0.11
		c-0.11-0.14,0.05,0.06,0.06,0.09c0.14,0.2,0.28,0.4,0.4,0.61c0.14,0.24,0.27,0.48,0.39,0.72c0.14,0.3,0.16,0.33,0.27,0.63
		c0.22,0.59,0.39,1.21,0.52,1.83c0.17,0.81,1.42,0.61,1.43-0.19c0-0.39,0.02-0.77,0.07-1.15c0.02-0.15,0.01-0.05,0-0.02
		c0.01-0.05,0.02-0.09,0.02-0.14c0.01-0.08,0.03-0.16,0.04-0.24c0.03-0.17,0.07-0.33,0.11-0.49c0.04-0.16,0.09-0.31,0.14-0.46
		c0.02-0.07,0.05-0.13,0.07-0.2c0.02-0.04,0.03-0.08,0.05-0.11c-0.02,0.06-0.04,0.08,0,0.01c0.13-0.27,0.26-0.53,0.42-0.78
		c0.04-0.05,0.07-0.1,0.11-0.16c0,0,0,0,0,0c0.01-0.01,0.03-0.04,0.03-0.04l0,0c0.09-0.11,0.18-0.21,0.27-0.31
		c0.08-0.09,0.17-0.17,0.26-0.25c0.04-0.04,0.09-0.07,0.13-0.11c0.09-0.08-0.01,0.01-0.03,0.02c0.03-0.03,0.07-0.05,0.1-0.07
		c0.2-0.14,0.4-0.26,0.62-0.37c0.05-0.02,0.1-0.05,0.15-0.07c-0.19,0.09,0,0,0.05-0.02c0.11-0.04,0.22-0.08,0.34-0.11
		c0.11-0.03,0.23-0.06,0.34-0.08c0.05-0.01,0.11-0.02,0.16-0.03c0.08-0.02-0.08,0.01-0.08,0.01c0.04,0,0.08-0.01,0.12-0.01
		c0.24-0.02,0.47-0.03,0.71-0.01c0.06,0.01,0.12,0.01,0.19,0.02c0.17,0.01-0.11-0.02,0.02,0c0.12,0.02,0.25,0.04,0.37,0.07
		c0.24,0.06,0.46,0.13,0.69,0.22c0.12,0.04-0.13-0.07,0.03,0.01c0.05,0.03,0.1,0.05,0.16,0.07c0.12,0.06,0.23,0.12,0.35,0.19
		c0.1,0.06,0.2,0.12,0.29,0.19c0.06,0.04,0.11,0.08,0.16,0.12c-0.13-0.09,0,0,0.05,0.04c0.2,0.17,0.38,0.35,0.55,0.54
		c0.04,0.05,0.08,0.09,0.12,0.14c0.04,0.05,0.12,0.16,0.04,0.04c0.08,0.12,0.17,0.23,0.25,0.36c0.08,0.13,0.16,0.27,0.23,0.41
		c0.04,0.07,0.07,0.13,0.1,0.2c0.02,0.04,0.11,0.27,0.05,0.12c0.12,0.32,0.23,0.64,0.31,0.98c0.04,0.17,0.07,0.33,0.09,0.5
		c0.02,0.14,0,0.03,0,0c0.01,0.06,0.01,0.11,0.02,0.17c0.01,0.09,0.02,0.18,0.02,0.27c0.03,0.42,0.02,0.83-0.02,1.25
		c-0.03,0.36,0.3,0.67,0.63,0.71c0.38,0.05,0.67-0.17,0.8-0.52c0.3-0.79,0.76-1.7,1.31-2.48c0.06-0.09,0.13-0.18,0.2-0.27
		c-0.08,0.11,0.08-0.1,0.11-0.13c0.14-0.17,0.29-0.34,0.44-0.5c0.28-0.3,0.58-0.57,0.9-0.83c0.02-0.02,0.18-0.14,0.04-0.03
		c0.03-0.02,0.06-0.05,0.09-0.07c0.08-0.06,0.16-0.11,0.24-0.17c0.17-0.11,0.34-0.22,0.51-0.32c0.16-0.09,0.31-0.18,0.47-0.25
		c0.08-0.04,0.17-0.08,0.25-0.12c0.04-0.02,0.08-0.04,0.13-0.06c0.05-0.02,0.03-0.02-0.05,0.02c0.03-0.01,0.07-0.03,0.1-0.04
		c0.34-0.13,0.68-0.24,1.04-0.33c0.17-0.04,0.33-0.07,0.5-0.1c0.04-0.01,0.09-0.01,0.13-0.02c0.17-0.03-0.12,0.01-0.01,0
		c0.1-0.01,0.19-0.02,0.29-0.03c0.35-0.03,0.69-0.03,1.04-0.01c0.09,0.01,0.17,0.01,0.26,0.02c0.05,0.01,0.33,0.05,0.11,0.01
		c0.18,0.03,0.35,0.06,0.53,0.1c0.34,0.08,0.68,0.18,1,0.31c0.03,0.01,0.06,0.03,0.09,0.04c0.17,0.06-0.14-0.07,0.02,0.01
		c0.07,0.03,0.14,0.06,0.21,0.1c0.16,0.08,0.32,0.16,0.47,0.25c0.15,0.09,0.29,0.18,0.43,0.28c0.06,0.04,0.12,0.09,0.19,0.14
		c0.09,0.07-0.13-0.11,0,0c0.04,0.03,0.08,0.07,0.12,0.1c0.28,0.23,0.53,0.49,0.77,0.76c0.05,0.06,0.1,0.12,0.16,0.19
		c0.12,0.14-0.09-0.12,0.02,0.02c0.02,0.03,0.04,0.06,0.06,0.09c0.12,0.16,0.23,0.33,0.33,0.5c0.09,0.14,0.17,0.29,0.25,0.44
		c0.04,0.08,0.08,0.17,0.12,0.26c0.03,0.05,0.05,0.11,0.07,0.16c-0.05-0.11-0.01-0.02,0.02,0.04c0.17,0.43,0.3,0.86,0.4,1.31
		c0.03,0.11,0.05,0.23,0.07,0.35c0.01,0.06,0.02,0.13,0.03,0.19c0.01,0.03,0.03,0.23,0.01,0.07c0.03,0.25,0.05,0.5,0.07,0.74
		c0.03,0.56,0.01,1.12-0.04,1.68c-0.05,0.56-0.15,1.11-0.29,1.73c-0.15,0.64,0.5,1.1,1.07,0.82c0.89-0.44,1.88-0.8,2.93-0.99
		c0.11-0.02,0.22-0.04,0.33-0.05c-0.16,0.02,0.15-0.02,0.19-0.02c0.23-0.02,0.46-0.04,0.68-0.04c0.2,0,0.4,0,0.6,0.01
		c0.1,0.01,0.19,0.02,0.29,0.02c0.06,0.01,0.11,0.01,0.17,0.02c-0.19-0.02-0.01,0,0.03,0.01c0.4,0.07,0.79,0.16,1.17,0.3
		c0.08,0.03,0.17,0.06,0.25,0.09c0.04,0.01,0.13,0.06-0.03-0.01c0.05,0.02,0.1,0.04,0.14,0.06c0.17,0.08,0.34,0.17,0.51,0.26
		c0.15,0.09,0.29,0.18,0.43,0.27c0.07,0.05,0.14,0.1,0.21,0.15c0.14,0.1-0.12-0.1,0.01,0.01c0.04,0.03,0.08,0.06,0.12,0.1
		c0.27,0.23,0.52,0.48,0.75,0.74c0.06,0.07,0.12,0.14,0.18,0.21c0.03,0.04,0.1,0.13-0.01-0.01c0.03,0.03,0.05,0.07,0.07,0.1
		c0.11,0.16,0.22,0.32,0.32,0.48c0.18,0.3,0.34,0.62,0.48,0.94c-0.08-0.19,0.02,0.06,0.04,0.11c0.03,0.08,0.06,0.16,0.09,0.24
		c0.06,0.18,0.11,0.35,0.16,0.53c0.04,0.16,0.08,0.33,0.11,0.49c0.02,0.08,0.03,0.17,0.05,0.25c0.01,0.05,0.02,0.1,0.02,0.15
		c-0.03-0.2-0.01-0.04,0,0.01c0.04,0.36,0.06,0.72,0.05,1.09c-0.01,0.18-0.02,0.36-0.03,0.53c-0.01,0.05-0.04,0.33-0.01,0.11
		c-0.02,0.1-0.03,0.2-0.05,0.3c-0.06,0.35-0.16,0.7-0.27,1.04c-0.03,0.08-0.06,0.16-0.09,0.24c-0.02,0.05-0.13,0.3-0.04,0.11
		c-0.08,0.17-0.16,0.35-0.25,0.51c-0.1,0.19-0.21,0.37-0.32,0.54c-0.06,0.09-0.12,0.18-0.18,0.26c-0.02,0.03-0.13,0.17-0.02,0.02
		c-0.03,0.04-0.07,0.08-0.1,0.13c-0.28,0.34-0.59,0.66-0.93,0.94c-0.04,0.03-0.07,0.06-0.11,0.09c-0.14,0.12,0.06-0.04-0.06,0.04
		c-0.09,0.07-0.19,0.14-0.28,0.2c-0.2,0.13-0.4,0.26-0.61,0.37c-0.22,0.12-0.44,0.23-0.67,0.33c0.03-0.01,0.13-0.05-0.01,0
		c-0.07,0.03-0.14,0.06-0.21,0.08c-0.13,0.05-0.27,0.1-0.41,0.14c-0.61,0.2-0.7,0.97-0.17,1.33c0.23,0.15,0.47,0.36,0.71,0.63
		c0.06,0.06,0.11,0.13,0.16,0.19c-0.06-0.08,0.06,0.09,0.08,0.11c0.1,0.15,0.2,0.31,0.28,0.46c0.18,0.33,0.23,0.46,0.35,0.84
		c0.05,0.17,0.1,0.33,0.13,0.5c0.03,0.14,0.08,0.42,0.09,0.5c0.17,1.31-0.07,2.75-0.71,3.9c-0.08,0.15-0.17,0.29-0.26,0.43
		c-0.05,0.07-0.09,0.14-0.14,0.2c-0.05,0.07-0.01,0.01,0.01-0.01c-0.04,0.05-0.07,0.09-0.11,0.13c-0.11,0.12-0.22,0.24-0.34,0.36
		c-0.06,0.06-0.12,0.11-0.18,0.16c-0.03,0.02-0.05,0.04-0.08,0.07c-0.03,0.03-0.04,0.03-0.01,0.01c0.07-0.05,0.03-0.02-0.13,0.1
		c-0.72,0.6-1.45,1.14-2.35,1.43c-1.56,0.5-3.17,0.21-4.61-0.55c-1.67-0.89-3.06-2.29-4.07-3.86c-0.19-0.3-0.57-0.44-0.91-0.3
		c-0.36,0.16-0.48,0.49-0.42,0.86c0.03,0.23-0.01-0.08,0.01,0.05c0.01,0.05,0.01,0.09,0.02,0.14c0.01,0.1,0.02,0.21,0.03,0.31
		c0.02,0.21,0.02,0.42,0.02,0.64c0,0.18-0.01,0.36-0.02,0.55c-0.01,0.1-0.02,0.21-0.03,0.31c0,0.03-0.02,0.14,0-0.01
		c-0.01,0.06-0.02,0.12-0.03,0.18c-0.06,0.35-0.14,0.69-0.25,1.02c-0.03,0.08-0.06,0.16-0.09,0.24c-0.02,0.04-0.12,0.28-0.04,0.11
		c-0.07,0.16-0.15,0.32-0.23,0.47c-0.07,0.13-0.15,0.27-0.23,0.4c-0.05,0.08-0.1,0.15-0.15,0.22c-0.03,0.04-0.19,0.26-0.08,0.11
		c-0.2,0.25-0.41,0.48-0.64,0.7c-0.11,0.11-0.23,0.21-0.35,0.31c-0.16,0.13,0.06-0.04-0.08,0.06c-0.07,0.05-0.14,0.1-0.21,0.15
		c-0.26,0.18-0.54,0.34-0.82,0.48c-0.06,0.03-0.12,0.06-0.19,0.09c-0.04,0.02-0.08,0.04-0.12,0.05c-0.09,0.04,0.12-0.05,0.03-0.01
		c-0.15,0.06-0.3,0.12-0.46,0.17c-0.3,0.1-0.61,0.18-0.92,0.23c-0.08,0.01-0.15,0.03-0.23,0.04c-0.11,0.02,0.13-0.01-0.06,0.01
		c-0.17,0.02-0.34,0.03-0.51,0.04c-0.31,0.01-0.61,0-0.92-0.03c-0.04,0-0.27-0.03-0.16-0.02c0.11,0.02-0.12-0.02-0.16-0.03
		c-0.16-0.03-0.32-0.06-0.47-0.1c-0.14-0.04-0.28-0.08-0.41-0.12c-0.07-0.02-0.14-0.05-0.22-0.08c-0.04-0.02-0.08-0.03-0.12-0.05
		c-0.14-0.05,0.13,0.06-0.02-0.01c-0.28-0.13-0.55-0.27-0.81-0.43c-0.13-0.08-0.26-0.17-0.38-0.27c0.13,0.09-0.01-0.01-0.06-0.05
		c-0.07-0.06-0.15-0.12-0.22-0.19c-0.14-0.13-0.27-0.26-0.39-0.4c-0.06-0.07-0.12-0.14-0.18-0.21c-0.02-0.03-0.05-0.06-0.07-0.09
		c0.11,0.14-0.01-0.01-0.02-0.03c-0.23-0.32-0.43-0.66-0.6-1.02c-0.02-0.05-0.04-0.09-0.06-0.14c-0.06-0.12,0.02,0.06-0.01-0.02
		c-0.04-0.1-0.08-0.21-0.12-0.32c-0.07-0.2-0.13-0.41-0.19-0.62c-0.06-0.22-0.11-0.44-0.15-0.66c-0.06-0.32-0.06-0.33-0.09-0.66
		c-0.04-0.39-0.31-0.72-0.72-0.72c-0.4,0-0.72,0.33-0.72,0.72c-0.01,0.2-0.02,0.4-0.03,0.59c-0.01,0.04-0.01,0.09-0.01,0.13
		c0,0-0.03,0.21-0.01,0.09l0,0c0.01-0.11-0.02,0.14-0.04,0.25c0,0.01,0,0.02,0,0.02c-0.07,0.35-0.16,0.7-0.27,1.03
		c-0.03,0.09-0.07,0.18-0.1,0.27c-0.01,0.03-0.06,0.12,0.01-0.02c-0.02,0.03-0.03,0.07-0.05,0.1c-0.08,0.17-0.16,0.33-0.25,0.49
		c-0.08,0.14-0.17,0.27-0.26,0.41c-0.04,0.06-0.08,0.11-0.12,0.17c-0.07,0.11,0.01-0.01,0.02-0.02c-0.03,0.04-0.07,0.08-0.1,0.12
		c-0.21,0.25-0.44,0.49-0.69,0.7c-0.05,0.04-0.1,0.09-0.16,0.13c-0.13,0.11,0.09-0.07,0.01-0.01c-0.03,0.03-0.07,0.05-0.1,0.08
		c-0.12,0.09-0.25,0.17-0.38,0.25c-0.13,0.08-0.26,0.16-0.4,0.22c-0.07,0.04-0.15,0.08-0.23,0.11c-0.05,0.02-0.29,0.12-0.1,0.05
		c-0.29,0.12-0.58,0.22-0.88,0.29c-0.14,0.04-0.28,0.07-0.42,0.09c-0.08,0.02-0.17,0.03-0.25,0.04c-0.2,0.03,0.1-0.01-0.11,0.02
		c-0.31,0.03-0.62,0.05-0.94,0.04c-0.14,0-0.29-0.01-0.43-0.02c-0.08-0.01-0.17-0.02-0.25-0.03c-0.04,0-0.14-0.02,0.04,0.01
		c-0.05-0.01-0.1-0.02-0.15-0.02c-0.31-0.05-0.61-0.12-0.91-0.21c-0.14-0.04-0.27-0.09-0.41-0.14c-0.04-0.02-0.3-0.12-0.11-0.04
		c-0.08-0.03-0.16-0.07-0.23-0.1c-0.28-0.13-0.55-0.29-0.81-0.46c-0.06-0.04-0.12-0.09-0.19-0.13c-0.17-0.12,0.06,0.05-0.08-0.06
		c-0.12-0.1-0.25-0.21-0.37-0.32c-0.11-0.11-0.22-0.22-0.32-0.33c-0.05-0.05-0.09-0.1-0.14-0.16c-0.03-0.03-0.06-0.07-0.08-0.1
		c-0.04-0.05,0.08,0.11-0.02-0.02c-0.22-0.3-0.41-0.61-0.57-0.95c-0.02-0.04-0.04-0.08-0.06-0.12c-0.01-0.02-0.08-0.19-0.04-0.09
		c0.04,0.11-0.03-0.07-0.03-0.07c-0.02-0.05-0.04-0.11-0.06-0.16c-0.07-0.18-0.12-0.37-0.17-0.56c-0.05-0.21-0.1-0.41-0.13-0.63
		c-0.01-0.04-0.01-0.08-0.02-0.12c-0.01-0.05-0.01-0.04,0.01,0.04c-0.01-0.03-0.01-0.06-0.01-0.09c-0.01-0.12-0.03-0.24-0.03-0.36
		c-0.03-0.49-0.02-0.97,0.02-1.46c0.06-0.74-1.01-0.96-1.35-0.37c-0.65,1.11-1.33,2.06-2.28,2.93c-0.45,0.42-0.69,0.61-1.19,0.92
		c-0.2,0.12-0.39,0.24-0.6,0.34c-0.09,0.05-0.18,0.09-0.27,0.13c-0.05,0.03-0.11,0.05-0.17,0.07c0.17-0.07-0.07,0.03-0.1,0.04
		c-0.41,0.16-0.83,0.28-1.26,0.35c-0.05,0.01-0.11,0.02-0.17,0.03c-0.19,0.03,0.16-0.01-0.03,0c-0.11,0.01-0.22,0.02-0.33,0.03
		c-0.22,0.02-0.43,0.02-0.65,0.01c-0.2-0.01-0.39-0.03-0.58-0.05c-0.18-0.02,0.16,0.03-0.02,0c-0.05-0.01-0.1-0.02-0.16-0.03
		c-0.1-0.02-0.21-0.04-0.31-0.06c-0.19-0.04-0.38-0.09-0.56-0.15c-0.1-0.03-0.2-0.07-0.3-0.1c-0.06-0.02-0.4-0.16-0.22-0.08
		c-0.37-0.17-0.73-0.35-1.07-0.57c-0.16-0.1-0.32-0.22-0.48-0.33c-0.03-0.02-0.17-0.13-0.02-0.02c-0.04-0.03-0.08-0.07-0.12-0.1
		c-0.08-0.07-0.16-0.13-0.24-0.21c-0.32-0.28-0.61-0.59-0.88-0.92c-0.03-0.04-0.2-0.26-0.08-0.1c-0.06-0.08-0.13-0.17-0.19-0.26
		c-0.12-0.17-0.24-0.35-0.35-0.53c-0.1-0.17-0.19-0.34-0.28-0.51c-0.05-0.09-0.09-0.19-0.14-0.29c-0.02-0.03-0.08-0.2-0.01-0.02
		c-0.02-0.06-0.05-0.11-0.07-0.17c-0.15-0.39-0.27-0.79-0.35-1.19c-0.02-0.1-0.04-0.21-0.06-0.31c-0.01-0.04-0.01-0.07-0.02-0.1
		c-0.03-0.18,0.01,0.17,0-0.02c-0.02-0.21-0.04-0.42-0.04-0.64c-0.01-0.21,0-0.43,0.02-0.64c0.01-0.09,0.02-0.18,0.03-0.27
		c0.01-0.04,0.04-0.22,0-0.02c0.01-0.07,0.02-0.14,0.04-0.22c0.09-0.48,0.23-0.95,0.41-1.4c-0.07,0.16,0.07-0.14,0.09-0.2
		c0.06-0.12,0.12-0.25,0.19-0.37c0.13-0.23,0.27-0.46,0.43-0.68c0.04-0.05,0.07-0.1,0.11-0.15c0.05-0.07,0.05-0.07,0-0.01
		c0.03-0.03,0.05-0.07,0.08-0.1c0.08-0.1,0.17-0.2,0.25-0.3c0.2-0.22,0.4-0.43,0.62-0.64c0.52-0.48,0.92-0.78,1.53-1.17
		c0.6-0.38,0.37-1.35-0.37-1.35c-0.32,0-0.64-0.01-0.96-0.03c-0.15-0.01-0.29-0.02-0.44-0.04c-0.08-0.01-0.15-0.02-0.23-0.03
		c-0.09-0.01,0.02,0,0.03,0.01c-0.04-0.01-0.09-0.01-0.13-0.02c-0.55-0.08-1.1-0.21-1.63-0.38c-0.12-0.04-0.24-0.08-0.35-0.12
		c-0.06-0.02-0.12-0.05-0.18-0.07c-0.06-0.02-0.19-0.08-0.06-0.02c-0.22-0.1-0.44-0.2-0.66-0.32c-0.21-0.11-0.42-0.24-0.62-0.38
		c-0.09-0.06-0.18-0.12-0.27-0.19c-0.07-0.05-0.1-0.08-0.01-0.01c-0.05-0.04-0.1-0.08-0.16-0.12c-0.33-0.28-0.64-0.58-0.92-0.92
		c-0.04-0.04-0.07-0.09-0.1-0.13c-0.03-0.03,0.08,0.12,0,0c-0.07-0.09-0.13-0.19-0.2-0.28c-0.11-0.17-0.22-0.35-0.32-0.53
		c-0.1-0.18-0.18-0.37-0.27-0.55c0.09,0.19-0.03-0.07-0.05-0.14c-0.04-0.1-0.07-0.2-0.1-0.3c-0.13-0.39-0.21-0.8-0.28-1.21
		c-0.02-0.13,0.02,0.15,0,0.02c-0.01-0.05-0.01-0.1-0.02-0.16c-0.01-0.1-0.02-0.21-0.03-0.31c-0.01-0.2-0.02-0.4-0.01-0.6
		c0.01-0.2,0.02-0.4,0.04-0.61c0.01-0.08,0.05-0.36,0.01-0.14c0.02-0.1,0.03-0.21,0.05-0.31c0.07-0.4,0.18-0.8,0.32-1.19
		c0.03-0.09,0.07-0.18,0.1-0.27c0.02-0.04,0.03-0.08,0.05-0.12c-0.08,0.2-0.01,0.02,0.02-0.03c0.08-0.18,0.17-0.36,0.27-0.54
		c0.1-0.18,0.21-0.36,0.33-0.54c0.05-0.08,0.11-0.16,0.17-0.24c0.03-0.04,0.05-0.07,0.08-0.11c0.06-0.08-0.09,0.11,0.03-0.03
		c0.26-0.32,0.54-0.61,0.85-0.88c0.07-0.07,0.15-0.13,0.23-0.19c0.14-0.11-0.09,0.06,0.02-0.01c0.04-0.03,0.09-0.06,0.13-0.09
		c0.18-0.12,0.36-0.24,0.55-0.35c0.18-0.11,0.37-0.2,0.57-0.29c0.04-0.02,0.09-0.04,0.13-0.06c-0.19,0.08-0.02,0.01,0.03-0.01
		c0.11-0.04,0.21-0.08,0.32-0.12c0.21-0.07,0.43-0.13,0.65-0.18c0.11-0.03,0.22-0.05,0.32-0.07c0.06-0.01,0.12-0.02,0.18-0.03
		c0.05-0.01,0.27-0.04,0.07-0.01c0.49-0.06,0.99-0.08,1.48-0.05c0.13,0.01,0.25,0.02,0.38,0.03c0.07,0.01,0.14,0.01,0.21,0.02
		c0.03,0,0.06,0.01,0.09,0.01c0.11,0.01-0.12-0.02-0.01,0c0.28,0.04,0.55,0.09,0.83,0.15c0.61,0.14,1.21,0.32,1.79,0.55
		c0.07,0.03,0.14,0.05,0.2,0.08c0.03,0.01,0.22,0.09,0.13,0.06c0.16,0.07,0.33,0.14,0.49,0.22c0.36,0.17,0.78,0.1,0.99-0.26
		C26.74,28.43,26.65,27.92,26.3,27.76z"/>
	<path class="st0" d="M35.55,42.1c-0.2-0.29-0.38-0.58-0.53-0.9c-0.03-0.07-0.06-0.13-0.09-0.2c-0.06-0.12-0.01-0.02,0,0.01
		c-0.02-0.04-0.03-0.07-0.04-0.11c-0.05-0.14-0.1-0.29-0.14-0.44c-0.04-0.13-0.07-0.27-0.09-0.4c-0.01-0.07-0.03-0.19-0.01-0.04
		c-0.01-0.08-0.02-0.16-0.02-0.23c-0.01-0.12-0.01-0.25-0.01-0.38c0-0.06,0.01-0.11,0.01-0.17c0.01-0.05,0.04-0.29,0-0.07
		c0.04-0.24,0.09-0.48,0.18-0.71c0.02-0.05,0.04-0.1,0.06-0.15c-0.06,0.15-0.02,0.04,0.02-0.04c0.05-0.11,0.11-0.22,0.18-0.32
		c0.06-0.09,0.12-0.18,0.18-0.27c0.11-0.16-0.05,0.05,0.03-0.04c0.04-0.05,0.08-0.09,0.12-0.14c0.17-0.19,0.35-0.35,0.54-0.51
		c0.09-0.08-0.13,0.09,0.02-0.02c0.05-0.03,0.09-0.06,0.13-0.09c0.1-0.07,0.21-0.14,0.32-0.2c0.1-0.06,0.21-0.11,0.31-0.17
		c0.05-0.03,0.1-0.05,0.15-0.07c0.18-0.09-0.09,0.03,0.07-0.03c0.23-0.08,0.46-0.16,0.7-0.22c0.12-0.03,0.23-0.05,0.35-0.07
		c0.1-0.02,0.16-0.02,0.02-0.01c0.07-0.01,0.14-0.02,0.21-0.02c0.25-0.02,0.49-0.02,0.74-0.01c0.06,0,0.11,0.01,0.17,0.02
		c0.03,0,0.06,0.01,0.09,0.01c0.1,0.01-0.15-0.03-0.05-0.01c0.12,0.02,0.25,0.04,0.38,0.07c0.12,0.03,0.23,0.06,0.35,0.1
		c0.05,0.02,0.11,0.04,0.16,0.06c0.03,0.01,0.06,0.02,0.09,0.04c0.09,0.03-0.16-0.08-0.02-0.01c0.22,0.11,0.44,0.22,0.64,0.36
		c0.03,0.02,0.21,0.15,0.13,0.09c-0.07-0.06,0.09,0.08,0.12,0.1c0.11,0.1,0.22,0.2,0.32,0.31c0.05,0.06,0.11,0.12,0.16,0.18
		c0.04,0.05,0.14,0.19,0.06,0.07c0.1,0.14,0.19,0.27,0.28,0.42c0.09,0.14,0.16,0.29,0.23,0.44c0.02,0.04,0.03,0.07,0.05,0.11
		c0.05,0.1-0.06-0.16,0.01,0.03c0.03,0.08,0.06,0.16,0.09,0.24c0.14,0.39,0.23,0.79,0.31,1.2c0.07,0.39,0.54,0.6,0.89,0.51
		c0.41-0.11,0.57-0.5,0.51-0.89c-0.12-0.74-0.17-1.74-0.07-2.6c0.01-0.05,0.01-0.11,0.02-0.16c0,0.03-0.02,0.14,0,0
		c0.02-0.09,0.03-0.19,0.05-0.28c0.04-0.19,0.08-0.37,0.12-0.56c0.05-0.17,0.1-0.33,0.15-0.49c0.03-0.08,0.06-0.16,0.09-0.23
		c0.02-0.04,0.07-0.16,0,0c0.02-0.05,0.04-0.1,0.07-0.15c0.13-0.28,0.28-0.55,0.46-0.81c0.05-0.07,0.1-0.13,0.14-0.2
		c-0.09,0.13-0.01,0.01,0.04-0.05c0.1-0.12,0.21-0.24,0.33-0.35c0.1-0.1,0.2-0.19,0.31-0.28c0.06-0.05,0.16-0.12,0.04-0.03
		c0.07-0.05,0.13-0.1,0.21-0.14c0.23-0.16,0.48-0.28,0.73-0.4c0.14-0.07-0.12,0.05-0.03,0.01c0.04-0.01,0.07-0.03,0.1-0.04
		c0.06-0.02,0.11-0.04,0.17-0.06c0.14-0.05,0.28-0.09,0.42-0.12c0.13-0.03,0.26-0.05,0.39-0.07c-0.15,0.03-0.07,0.01,0.03,0
		c0.08-0.01,0.16-0.01,0.24-0.02c0.27-0.01,0.54,0.01,0.81,0.03c-0.23-0.02-0.01,0,0.05,0.01c0.07,0.01,0.13,0.03,0.2,0.04
		c0.14,0.03,0.29,0.07,0.43,0.11c0.12,0.04,0.24,0.08,0.36,0.13c0.1,0.04-0.17-0.08-0.03-0.01c0.03,0.01,0.06,0.03,0.08,0.04
		c0.07,0.03,0.14,0.07,0.2,0.1c0.12,0.06,0.24,0.13,0.36,0.21c0.07,0.04,0.13,0.08,0.19,0.13c0.05,0.03,0.24,0.19,0.08,0.05
		c0.23,0.19,0.45,0.39,0.65,0.61c0.05,0.06,0.1,0.11,0.14,0.17c0.02,0.03,0.04,0.05,0.06,0.08c0.11,0.13-0.07-0.09-0.01-0.01
		c0.1,0.13,0.19,0.26,0.27,0.4c0.1,0.16,0.19,0.32,0.27,0.49c0.05,0.09,0.09,0.18,0.13,0.27c0.02,0.03,0.05,0.13-0.01-0.02
		c0.02,0.05,0.04,0.1,0.06,0.16c0.15,0.39,0.26,0.79,0.34,1.2c0.02,0.1,0.04,0.21,0.05,0.31c0.01,0.04,0.01,0.08,0.02,0.13
		c-0.02-0.16,0,0.03,0.01,0.07c0.03,0.25,0.04,0.5,0.05,0.75c0.02,0.52-0.01,1.04-0.07,1.56c-0.08,0.7,1.08,1.02,1.35,0.37
		c0.12-0.27,0.25-0.54,0.4-0.8c0.07-0.12,0.15-0.24,0.23-0.35c0.04-0.06,0.08-0.11,0.12-0.17c-0.08,0.1,0.03-0.04,0.05-0.06
		c0.17-0.2,0.34-0.38,0.54-0.54c0.05-0.04,0.09-0.08,0.14-0.12c-0.13,0.1,0.03-0.02,0.05-0.03c0.1-0.07,0.2-0.13,0.3-0.2
		c0.1-0.06,0.2-0.12,0.31-0.17c0.05-0.03,0.11-0.05,0.16-0.07c0.17-0.08-0.14,0.04,0.04-0.02c0.22-0.07,0.43-0.15,0.66-0.2
		c0.11-0.03,0.22-0.04,0.33-0.06c-0.2,0.03,0.14-0.01,0.2-0.01c0.22-0.01,0.45-0.01,0.67,0.01c0.06,0.01,0.11,0.01,0.17,0.02
		c0.19,0.02-0.16-0.03,0.03,0.01c0.11,0.02,0.22,0.04,0.33,0.06c0.22,0.05,0.43,0.11,0.64,0.19c0.05,0.02,0.1,0.04,0.16,0.06
		c-0.17-0.07,0,0,0.03,0.02c0.1,0.05,0.2,0.1,0.3,0.15c0.2,0.11,0.38,0.23,0.56,0.36c0.16,0.1-0.11-0.1,0.03,0.02
		c0.04,0.04,0.09,0.07,0.13,0.11c0.08,0.07,0.17,0.15,0.24,0.22c0.07,0.07,0.13,0.13,0.19,0.2c0.04,0.04,0.07,0.08,0.11,0.12
		c0.13,0.15-0.01-0.03,0.06,0.07c0.11,0.17,0.23,0.34,0.32,0.52c0.05,0.1,0.1,0.2,0.14,0.3c-0.07-0.17,0,0.01,0.01,0.04
		c0.02,0.07,0.05,0.14,0.07,0.22c0.04,0.13,0.07,0.26,0.1,0.39c0.01,0.04,0.02,0.08,0.02,0.11c0.01,0.04,0.01,0.08,0.02,0.12
		c-0.01-0.1-0.01-0.1-0.01-0.02c0.02,0.29,0.03,0.57,0,0.86c0,0.02-0.03,0.23-0.01,0.06c-0.01,0.07-0.02,0.13-0.03,0.2
		c-0.03,0.16-0.07,0.31-0.11,0.47c-0.1,0.36-0.19,0.58-0.33,0.86c-0.17,0.35-0.1,0.78,0.26,0.99c0.32,0.19,0.82,0.09,0.99-0.26
		c0.56-1.18,0.84-2.46,0.58-3.75c-0.21-1.05-0.8-2.03-1.6-2.73c-1.68-1.46-4.1-1.87-6.13-0.92c-1.05,0.49-1.88,1.36-2.43,2.37
		c-0.18,0.32,0.01,0.71,0.37,0.8l0,0c0.36,0.1,0.72-0.15,0.74-0.52c0.08-1.57-0.16-3.17-0.9-4.57c-0.67-1.26-1.75-2.25-3.07-2.79
		c-2.58-1.04-5.52,0.11-6.87,2.5c-0.89,1.58-1.05,3.41-0.88,5.19c0.04,0.43,0.46,0.7,0.88,0.58l0,0c0.35-0.1,0.58-0.45,0.49-0.81
		c-0.3-1.16-0.88-2.28-1.82-3.06c-0.96-0.79-2.15-1.21-3.39-1.19c-2.3,0.03-4.7,1.48-5.28,3.8c-0.38,1.55,0.12,3.12,1.01,4.4
		c0.22,0.32,0.64,0.47,0.99,0.26C35.61,42.91,35.77,42.43,35.55,42.1z"/>
</g>
<path class="st1" d="M297.68,211.34c1.5,2.94,3.83,7.28,6.35,9.63c1.27,1.18,2.43,1.71,3.44,1.55c1.01-0.16,2.21-1.05,3.43-3.54l0,0
	c4.01-8.14,7.19-17.17,6.25-26.24c-0.07-0.65-0.22-1.33-0.48-1.85c-0.26-0.51-0.57-0.77-0.94-0.83c-0.32-0.06-0.66,0.05-1.06,0.34
	c-0.4,0.3-0.77,0.74-1.1,1.22c-3.1,4.41-5.19,9.56-6.04,14.92l-1.48,0.01c-0.9-5.2-3.37-10.12-6.98-13.91l0,0
	c-0.72-0.76-1.39-1.31-2.12-1.38l0,0c-0.77-0.08-1.43,0.33-1.98,1.2c-0.55,0.87-0.89,2.07-0.97,3.15 M297.68,211.34
	c-2.5-4.89-4.08-10.33-3.68-15.73"/>
<path class="st2" d="M316.81,65.9c-0.17,0.09-1.31,1.27-2.53,2.63l-2.22,2.47l-0.42-0.3c-0.74-0.54-1.74-1.08-2.53-1.38
	c-1.12-0.41-2.68-0.48-3.72-0.16l-0.74,0.23l-0.36-0.32c-0.61-0.54-1.12-0.4-1.72,0.46l-0.39,0.56l-0.76-0.46
	c-1.92-1.16-4.04-1.8-6.19-1.88c-3.16-0.12-5.54,0.74-8.14,2.94c-1.24,1.05-2.33,2.37-3.78,4.55c-1.1,1.65-1.9,2.64-2.98,3.66
	c-1,0.95-1.61,1.35-2.27,1.49c-0.95,0.2-1.29,1.14-0.63,1.79l0.34,0.34l-0.3,0.4c-0.42,0.55-1.06,1.94-1.2,2.61
	c-0.17,0.8-0.14,2.41,0.05,3.27c0.09,0.41,0.35,1.2,0.57,1.76s0.4,1.19,0.4,1.4c0,0.58-0.34,1.21-0.93,1.76
	c-1.08,1-1.97,2.46-2.32,3.81c-0.22,0.87-0.2,2.5,0.04,3.53c0.38,1.58,1.24,3.3,2.45,4.88c0.33,0.43,0.88,1.15,1.22,1.6
	c1.68,2.21,2.49,4.3,2.23,5.75c-0.15,0.84-0.36,1.24-0.95,1.87c-0.41,0.44-0.54,0.65-0.54,0.9c0,0.48,0.37,0.75,0.94,0.67
	c0.97-0.13,3.06-1.15,4.5-2.18l0.78-0.57l0.21,0.33c0.11,0.18,0.41,0.45,0.65,0.59l0.44,0.26h14.26c15.54,0,14.69,0.03,15.41-0.6
	c1.39-1.22,1.27-4.45-0.28-7.55c-1.05-2.11-2.7-4.1-5.83-7.05c-2.29-2.16-3.12-3.08-3.65-4.04c-0.56-1.02-0.57-0.98,0.52-1.02
	c0.52-0.02,1.3-0.1,1.73-0.18c1.52-0.29,1.57-0.27,2.96,0.93c0.81,0.7,1.89,1.26,2.6,1.36c0.9,0.12,2.7-0.66,4.07-1.78
	c1.91-1.55,3.29-4.14,3.15-5.92c-0.09-1.16-0.93-2.17-2.41-2.92c-1.04-0.53-1.58-0.94-3.14-2.42l-1.27-1.2l1.07-0.01
	c1.44-0.01,2.43-0.23,3.55-0.79c1.54-0.76,2.77-2.09,3.42-3.69c0.32-0.8,0.32-1.26,0-1.63c-0.25-0.29-0.27-0.29-1.73-0.36
	c-1.6-0.07-2.14-0.21-3.27-0.81c-0.61-0.33-1.88-1.31-1.88-1.46c0-0.04,0.67-1.58,1.5-3.42c1.69-3.76,1.75-4.01,1.2-4.57
	C317.66,65.69,317.29,65.65,316.81,65.9z M316.44,68.4c-0.38,0.86-0.4,0.88-0.4,0.43c0-0.25,0.1-0.48,0.32-0.74
	c0.17-0.21,0.34-0.39,0.36-0.39C316.73,67.7,316.61,68.02,316.44,68.4z M297.49,69.3c0.51,0.14,1.28,0.41,1.7,0.59
	c1.01,0.43,2.38,1.23,2.37,1.38c0,0.07-0.12,0.48-0.25,0.91c-0.14,0.44-0.31,1.19-0.38,1.67l-0.13,0.88l-0.82,0.13
	c-3.41,0.52-6.84,2.49-9.13,5.23c-2.83,3.39-4.68,8.02-5.46,13.71c-0.28,2.03-0.06,2.74,1.23,4c0.9,0.88,1.36,1.68,1.73,3.06
	c0.2,0.72,0.23,1.1,0.23,2.85c0,1.91-0.01,2.07-0.28,2.96c-0.87,2.86-2.69,5.23-5.44,7.1c-0.76,0.52-1.86,1.14-2,1.14
	c-0.03,0,0.05-0.27,0.17-0.6c0.3-0.84,0.3-2.19,0-3.27l-0.23-0.8l0.41-0.37c1.65-1.5,2.88-3.85,3.21-6.15
	c0.21-1.45,0.04-2.09-0.58-2.09c-0.4,0-0.53,0.3-0.59,1.3c-0.12,2.04-0.83,3.69-2.32,5.41c-0.31,0.36-0.6,0.65-0.64,0.65
	c-0.04,0-0.32-0.39-0.61-0.86c-0.29-0.47-0.93-1.37-1.42-1.99c-2.25-2.84-3.15-4.81-3.14-6.9c0-1,0.11-1.56,0.43-2.32
	c0.21-0.48,0.27-0.53,1.07-0.91c1.32-0.61,2.28-1.29,3.3-2.32c1.39-1.41,2.27-2.9,2.8-4.75c0.25-0.86,0.26-0.99,0.13-1.23
	c-0.19-0.34-0.7-0.41-0.93-0.14c-0.09,0.1-0.22,0.42-0.29,0.71c-0.2,0.84-0.71,2.02-1.22,2.85c-0.46,0.75-1.83,2.3-2.21,2.5
	c-0.16,0.09-0.15,0.04,0.05-0.4c0.17-0.38,0.22-0.69,0.22-1.32c0-0.72-0.05-0.95-0.39-1.73c-0.21-0.5-0.45-1.2-0.54-1.56
	c-0.18-0.75-0.2-2.31-0.05-2.99c0.14-0.62,0.63-1.63,1.02-2.1l0.32-0.38l0.46,0.2c0.25,0.11,0.83,0.26,1.28,0.32
	c1.44,0.21,3-0.23,4.55-1.27c1.17-0.79,2.09-1.65,3.12-2.88c1.27-1.53,1.79-2.34,1.71-2.66c-0.08-0.32-0.41-0.52-0.72-0.44
	c-0.13,0.03-0.58,0.53-1.1,1.23c-1.02,1.37-2.57,2.97-3.5,3.6c-2.06,1.4-4,1.59-5.63,0.56l-0.41-0.26l0.43-0.19
	c1.5-0.67,3.43-2.66,5.27-5.42c2.08-3.12,3.73-4.78,5.82-5.88c1.73-0.91,2.78-1.14,4.88-1.09C296.27,69.03,296.74,69.09,297.49,69.3
	z M315.02,70.56l0.19,0.58l-0.28,0.62c-0.15,0.34-0.31,0.62-0.35,0.62c-0.1,0-0.4-0.7-0.5-1.21c-0.09-0.41-0.07-0.46,0.27-0.86
	c0.2-0.23,0.39-0.4,0.42-0.37C314.8,69.96,314.91,70.24,315.02,70.56z M304.16,70.63c1.04,1.11,1.86,2.84,2.37,5
	c0.37,1.53,0.48,1.84,0.89,2.34c0.42,0.52,8.32,8.05,9.02,8.59c0.32,0.25,0.98,0.65,1.46,0.9c1.04,0.52,1.7,1.17,1.81,1.78
	c0.24,1.29-1.03,3.68-2.67,5.01c-0.69,0.56-1.93,1.25-2.62,1.46c-0.74,0.22-1.54-0.17-2.92-1.4c-0.37-0.33-0.85-0.68-1.08-0.79
	c-0.53-0.24-1.4-0.25-2.43-0.03c-1.04,0.22-2.85,0.22-3.76,0c-1.2-0.29-1.99-0.73-2.87-1.62c-0.63-0.63-0.89-0.99-1.24-1.72
	c-0.35-0.73-0.51-0.95-0.74-1.03c-0.25-0.09-0.32-0.07-0.54,0.19c-0.3,0.35-0.29,0.41,0.29,1.62c0.34,0.71,0.6,1.05,1.31,1.77
	c0.95,0.95,1.81,1.48,3.08,1.91l0.66,0.22l0.23,0.68c0.51,1.49,1.48,2.7,4.23,5.27c1.15,1.08,2.42,2.32,2.82,2.78
	c2.17,2.41,3.5,4.83,3.86,6.99c0.15,0.91,0.08,2.25-0.15,2.69c-0.35,0.68,0.82,0.63-14.85,0.63c-13.96,0-14.23,0-14.34-0.2
	c-0.21-0.39-0.11-0.66,0.5-1.35c1.4-1.58,2.26-3.03,2.84-4.79c0.49-1.48,0.62-2.49,0.55-4.38c-0.04-1.22-0.11-1.8-0.32-2.59
	c-0.42-1.61-0.88-2.47-1.89-3.48c-1.14-1.15-1.24-1.43-1.08-2.78c0.44-3.56,1.45-7.02,2.85-9.79c1.76-3.45,3.92-5.69,6.91-7.16
	c1.42-0.7,2.59-1.06,4.28-1.33c0.8-0.13,1.22-0.24,1.3-0.36c0.07-0.09,0.15-0.58,0.18-1.08c0.03-0.5,0.18-1.33,0.33-1.84
	c0.28-0.95,1.03-2.55,1.2-2.55C303.71,70.19,303.94,70.39,304.16,70.63z M308.58,70.46c0.74,0.25,1.81,0.82,2.39,1.28l0.25,0.2
	l-1.63,1.8c-0.9,0.99-1.67,1.81-1.71,1.83c-0.04,0.02-0.16-0.31-0.26-0.73c-0.35-1.44-1.28-3.54-1.89-4.25
	c-0.14-0.16-0.13-0.19,0.09-0.28C306.33,70.1,307.74,70.18,308.58,70.46z M313.18,72.42c0.1,0.25,0.34,0.66,0.53,0.91l0.34,0.44
	l-0.43,0.93l-0.43,0.93l-0.33-0.46c-0.34-0.47-0.58-1.17-0.67-1.96c-0.05-0.4-0.01-0.49,0.31-0.86c0.2-0.22,0.39-0.41,0.43-0.41
	C312.96,71.96,313.07,72.17,313.18,72.42z M311.64,75.64c0.11,0.17,0.38,0.51,0.6,0.74l0.41,0.43l-0.5,1.15l-0.5,1.15l-0.38-0.37
	c-0.71-0.69-1.32-2.13-1.32-3.11c0-0.38,0.07-0.51,0.53-1.02l0.54-0.59l0.22,0.66C311.35,75.03,311.54,75.47,311.64,75.64z
	 M315.43,75.79c1.35,1.09,2.81,1.65,4.56,1.74c0.61,0.03,1.11,0.1,1.11,0.16c0,0.27-0.74,1.44-1.28,2.02
	c-0.72,0.77-1.87,1.4-3.01,1.63c-1.39,0.29-4.09,0.13-4.44-0.26c-0.16-0.17-0.08-0.38,1.09-3c0.69-1.55,1.28-2.81,1.3-2.81
	C314.78,75.28,315.08,75.51,315.43,75.79z M309.21,77.86c0.12,0.23,0.11,0.23-0.24-0.05c-0.21-0.16-0.45-0.41-0.54-0.54
	c-0.15-0.23-0.14-0.26,0.08-0.5l0.24-0.26l0.16,0.55C309,77.36,309.14,77.72,309.21,77.86z M304.88,79.42
	c-0.11,0.07-0.15,0.29-0.15,0.8c0,0.84-0.11,0.89-0.56,0.26c-0.42-0.58-0.74-0.73-1.07-0.51c-0.44,0.29-0.42,0.55,0.07,1.25
	l0.19,0.27l-0.42,0.38c-0.32,0.29-0.42,0.46-0.42,0.71c0,0.69,0.62,0.79,1.26,0.21c0.68-0.62,1.42-0.82,2.1-0.56
	c0.15,0.06,0.59,0.41,0.97,0.78c0.38,0.37,0.76,0.67,0.84,0.67c0.08,0,0.25-0.07,0.38-0.16c0.37-0.26,0.3-0.7-0.19-1.23
	c-0.4-0.44-0.42-0.47-0.31-0.85c0.21-0.77,0.1-1.59-0.24-1.82c-0.2-0.14-0.54-0.08-0.72,0.11c-0.12,0.13-0.17,0.38-0.17,0.78
	c0,0.32-0.03,0.59-0.08,0.59c-0.21,0-0.31-0.2-0.37-0.71c-0.08-0.71-0.3-1.05-0.67-1.05C305.16,79.32,304.96,79.37,304.88,79.42z
	 M315.62,88.55c-0.29,0.29-0.26,0.57,0.12,1.04c0.4,0.5,0.5,1.21,0.25,1.8c-0.21,0.51-0.21,0.72,0.02,0.93
	c0.25,0.22,0.67,0.22,0.87-0.01c0.29-0.33,0.52-1.23,0.47-1.87c-0.05-0.69-0.29-1.25-0.76-1.75
	C316.22,88.3,315.92,88.25,315.62,88.55z"/>
<path class="st2" d="M45.78,155.51c-1.38,0.45-2.31,1.7-2.89,3.87c-0.3,1.12-0.41,4.3-0.21,6.02c0.51,4.42,2.26,9.33,4.6,12.87
	l0.9,1.37l-0.81,0.89c-3.15,3.49-5.04,7.51-5.63,11.96c-1.06,7.95,3.92,15.32,12.23,18.09c5.77,1.92,11.92,1.55,17.07-1.04
	c1.89-0.95,3.26-1.94,4.74-3.42c2.37-2.37,3.89-5.22,4.51-8.43c1.07-5.6-1.22-12.76-5.6-17.5l-0.63-0.68l0.82-1.25
	c1.93-2.94,3.43-6.7,4.2-10.51c0.42-2.1,0.53-3.31,0.47-5.5c-0.06-2.25-0.25-3.19-0.9-4.54c-0.49-1.02-1.04-1.63-1.8-2.01
	c-0.53-0.26-0.77-0.31-1.52-0.31c-0.82,0-0.96,0.04-1.82,0.46c-0.51,0.25-1.25,0.73-1.65,1.07c-3.36,2.8-6.52,9.49-7.31,15.45
	c-0.28,2.12-0.23,1.96-0.64,1.89c-0.19-0.04-1-0.1-1.78-0.14c-1.29-0.06-2.39,0.01-3.82,0.25c-0.47,0.08-0.38,0.34-0.7-2.05
	c-0.68-4.99-3.07-10.68-5.89-13.98c-1.49-1.75-3.25-2.86-4.67-2.95C46.53,155.37,46.09,155.41,45.78,155.51z M48.13,156.94
	c2.91,1.42,5.9,6.16,7.54,11.97c0.48,1.71,0.87,3.86,0.91,5.05l0.03,0.81l-0.61,0.2c-0.33,0.11-0.69,0.23-0.8,0.28
	c-0.17,0.07-0.19,0-0.19-0.74c0-3.27-1.9-7.8-3.95-9.42c-2.05-1.62-3.83-0.69-4.22,2.19c-0.39,2.95,1.04,7.56,3.09,9.91l0.5,0.57
	l-0.38,0.32c-0.21,0.18-0.51,0.42-0.68,0.54l-0.3,0.21l-0.51-0.71c-3.62-5.09-5.75-13.79-4.51-18.53
	C44.76,156.92,46.18,155.99,48.13,156.94z M76.19,156.72c1.6,0.67,2.5,3.8,2.18,7.6c-0.31,3.69-1.44,7.66-3.15,11.04
	c-0.65,1.28-1.9,3.26-2.06,3.26c-0.05,0-0.35-0.21-0.67-0.47c-0.31-0.26-0.59-0.48-0.61-0.49c-0.02-0.01,0.16-0.26,0.41-0.55
	c2.01-2.39,3.4-6.91,3.01-9.81c-0.39-2.89-2.16-3.82-4.22-2.2c-2.02,1.59-3.95,6.14-3.95,9.3c0,0.63-0.02,0.71-0.19,0.64
	c-0.11-0.04-0.48-0.15-0.84-0.25l-0.65-0.18l0.07-0.72c0.13-1.35,0.52-3.44,0.89-4.8c1.55-5.67,5.07-11.26,7.74-12.3
	C74.77,156.54,75.69,156.51,76.19,156.72z M49.92,165.72c0.99,0.6,2.16,2.29,2.89,4.15c0.67,1.71,0.89,2.75,0.96,4.45l0.06,1.49
	l-0.54,0.26c-0.29,0.14-0.83,0.44-1.19,0.65l-0.65,0.4l-0.54-0.58c-1.06-1.16-2.1-3.34-2.63-5.52c-0.3-1.25-0.37-3.73-0.12-4.44
	C48.52,165.56,49.16,165.25,49.92,165.72z M73.55,165.83c0.47,0.56,0.57,1.04,0.56,2.65c0,1.23-0.06,1.69-0.3,2.66
	c-0.52,2.09-1.37,3.93-2.4,5.16l-0.54,0.65l-0.81-0.46c-0.44-0.25-1.02-0.55-1.27-0.67l-0.46-0.21v-1.04c0-1.75,0.52-3.82,1.4-5.6
	c0.48-0.96,1.45-2.44,1.86-2.83C72.36,165.42,73.1,165.3,73.55,165.83z M64.65,175.62c7.47,1.67,13.31,8.43,14.55,16.82
	c0.22,1.47,0.16,3.97-0.11,5.25c-1.12,5.21-4.81,9.4-10.08,11.48c-6.17,2.43-13.75,1.69-19.07-1.86c-3.7-2.47-6-5.76-6.88-9.88
	c-0.3-1.39-0.27-4.49,0.06-6.03c1.74-8.11,8.03-14.49,15.61-15.87C60.3,175.24,63.15,175.29,64.65,175.62z M53.09,187.51
	c-0.88,0.22-1.28,0.42-1.69,0.86c-0.64,0.69-0.86,1.62-0.48,1.97c0.42,0.38,1.01,0.08,1.01-0.52c0-0.69,1.06-1.27,2.05-1.12
	c0.61,0.09,1.26,0.64,1.26,1.07c0,0.63,0.64,0.97,1.05,0.57c0.27-0.27,0.14-1.18-0.26-1.74C55.51,187.86,53.98,187.29,53.09,187.51z
	 M67.84,187.54c-0.52,0.14-1.18,0.52-1.51,0.86c-0.58,0.61-0.82,1.61-0.47,1.96c0.4,0.4,1.04,0.04,1.04-0.58
	c0-0.43,0.64-0.98,1.26-1.07c1-0.15,2.05,0.43,2.05,1.14c0,0.59,0.65,0.9,1.03,0.49c0.54-0.6-0.25-2.07-1.37-2.55
	C69.24,187.5,68.35,187.4,67.84,187.54z M60.41,194.73c-2.59,0.24-3.45,1.44-2.47,3.45c0.45,0.93,1.05,1.54,1.88,1.96l0.72,0.36
	l-0.05,1.22c-0.03,0.88-0.1,1.33-0.25,1.6c-1.07,2.09-4.09,1.66-4.45-0.63c-0.11-0.67-0.27-0.91-0.63-0.91
	c-0.46,0-0.63,0.3-0.57,0.96c0.13,1.25,1.05,2.45,2.23,2.89c0.53,0.2,0.81,0.24,1.48,0.2c0.97-0.06,1.59-0.33,2.28-1l0.47-0.45
	l0.47,0.45c0.7,0.67,1.31,0.94,2.28,1c0.67,0.04,0.95,0,1.48-0.2c1.18-0.45,2.1-1.64,2.23-2.89c0.07-0.66-0.11-0.96-0.57-0.96
	c-0.35,0-0.52,0.24-0.63,0.91c-0.24,1.55-1.98,2.46-3.36,1.75c-0.97-0.5-1.28-1.12-1.34-2.73l-0.05-1.23l0.65-0.3
	c1.66-0.76,2.86-3.19,2.14-4.34C63.85,195,62.27,194.55,60.41,194.73z M62.75,196.1c0.29,0.1,0.58,0.28,0.64,0.4
	c0.26,0.49-0.66,2.11-1.44,2.54c-0.29,0.16-0.54,0.2-1.02,0.17c-0.8-0.05-1.3-0.43-1.8-1.36c-0.51-0.95-0.53-1.08-0.24-1.42
	C59.4,195.85,61.5,195.67,62.75,196.1z"/>
<path class="st1" d="M273.16,147.88L273.16,147.88c1.03-1.06,2.43-1.89,3.86-2.19c1.41-0.3,2.81-0.08,3.96,0.89
	c1.27,1.07,1.95,2.68,2.22,4.49c0.27,1.81,0.11,3.76-0.24,5.39c-0.85,3.96-2.98,7.6-5.25,11.09l-0.02,0.03l-0.02,0.03l-0.93,1.81
	c-0.26,0.28-0.82,0.84-1.42,1.27c-0.32,0.24-0.61,0.4-0.84,0.48c-0.1,0.04-0.16,0.04-0.19,0.04c-1.09-0.81-2.19-1.61-3.28-2.4
	c-2.69-1.94-5.36-3.87-7.83-6.02h0c-2.65-2.31-5.04-5.35-4.55-8.66l0,0c0.2-1.34,1.12-2.64,2.43-3.57c1.31-0.93,2.89-1.4,4.27-1.2
	l0,0c2.02,0.28,3.35,1.67,4.73,3.41l1.13,1.43l0.21-1.81C271.59,150.59,272.07,149.01,273.16,147.88z M274.27,171.22
	C274.27,171.22,274.27,171.22,274.27,171.22C274.27,171.22,274.27,171.22,274.27,171.22z"/>
<path class="st1" d="M33.42,99.31L33.42,99.31c-1.03-1.06-2.43-1.89-3.86-2.19c-1.41-0.3-2.81-0.08-3.96,0.89
	c-1.27,1.07-1.95,2.68-2.22,4.49c-0.27,1.81-0.11,3.76,0.24,5.39c0.85,3.96,2.98,7.6,5.25,11.09l0.02,0.03l0.02,0.03l0.93,1.81
	c0.26,0.28,0.82,0.84,1.42,1.27c0.32,0.24,0.61,0.4,0.84,0.48c0.1,0.04,0.16,0.04,0.19,0.04c1.09-0.81,2.19-1.61,3.28-2.4
	c2.69-1.94,5.36-3.87,7.83-6.02h0c2.65-2.31,5.04-5.35,4.55-8.66l0,0c-0.2-1.34-1.12-2.64-2.43-3.57c-1.31-0.93-2.89-1.4-4.27-1.2
	l0,0c-2.02,0.28-3.35,1.67-4.73,3.41l-1.13,1.43l-0.21-1.81C34.98,102.02,34.5,100.44,33.42,99.31z M32.3,122.65
	C32.3,122.65,32.3,122.65,32.3,122.65C32.3,122.65,32.3,122.65,32.3,122.65z"/>
</svg>
