<?xml version="1.0" encoding="utf-8"?>
<!-- Generator: Adobe Illustrator 27.6.1, SVG Export Plug-In . SVG Version: 6.00 Build 0)  -->
<svg version="1.1" id="Layer_1" xmlns="http://www.w3.org/2000/svg" xmlns:xlink="http://www.w3.org/1999/xlink" x="0px" y="0px"
	 viewBox="0 0 340 380" style="enable-background:new 0 0 340 380;" xml:space="preserve">
<style type="text/css">
	.st0{fill:#8787C1;}
	.st1{fill:none;stroke:#8787C1;stroke-width:1.5;}
	.st2{fill-rule:evenodd;clip-rule:evenodd;fill:#8787C1;}
	.st3{fill:none;stroke:#8787C1;stroke-width:2;}
</style>
<g>
	<path class="st0" d="M281.07,100.02c-2.25-1.05-4.78-1.67-7.25-1.1c-1.89,0.43-3.53,1.61-4.61,3.21c-1,1.49-1.49,3.35-1.38,5.13
		c0.12,1.9,0.88,3.72,2.22,5.08c1.64,1.64,3.91,2.39,6.18,2.56c0.1,0.01,0.2,0.01,0.3,0.02c0.35,0.02,0.6-0.31,0.51-0.65l0,0
		c-0.09-0.34-0.49-0.49-0.78-0.29c-1.7,1.21-3.1,2.84-3.67,4.88c-0.51,1.86-0.25,3.84,0.6,5.56c1.67,3.39,5.61,5.56,9.35,4.51
		c2.46-0.7,4.35-2.58,5.7-4.69c0.2-0.31,0.03-0.72-0.32-0.81l0,0c-0.34-0.09-0.68,0.14-0.68,0.49c-0.03,1.49,0.29,2.99,1.08,4.26
		c0.8,1.28,2.01,2.21,3.41,2.75c2.64,1.02,5.9,0.42,7.89-1.62c1.15-1.17,1.76-2.71,1.92-4.32c0.04-0.38-0.27-0.7-0.66-0.7l0,0
		c-0.4,0-0.72,0.35-0.66,0.75c0.25,1.5,0.81,2.93,1.85,4.07c0.96,1.06,2.3,1.78,3.7,2.03c2.92,0.52,6.02-0.72,7.64-3.24
		c0.92-1.44,1.2-3.12,1.08-4.79c-0.03-0.38-0.42-0.6-0.77-0.45l0,0c-0.33,0.14-0.46,0.55-0.25,0.84c2.1,2.94,5.6,5.46,9.35,4.66
		c1.06-0.23,2.04-0.73,2.89-1.39c0.71-0.55,1.38-1.13,1.89-1.88c0.91-1.35,1.31-3.09,1.21-4.71c-0.11-1.7-0.76-3.32-2.03-4.44
		c-0.23-0.2-0.58-0.05-0.62,0.26l0,0c-0.04,0.3,0.25,0.54,0.54,0.43c1.55-0.63,2.91-1.65,3.84-3.08c0.89-1.37,1.32-3.04,1.24-4.67
		c-0.15-3.33-2.31-6.47-5.64-7.29c-2.12-0.52-4.3-0.07-6.27,0.79c-0.29,0.13-0.33,0.51-0.08,0.7l0,0c0.24,0.19,0.6,0.06,0.66-0.24
		c0.36-1.88,0.4-3.86-0.19-5.69c-0.53-1.63-1.52-3.06-2.93-4.05c-2.69-1.9-6.41-1.67-9.06,0.17c-1.65,1.15-2.85,2.77-3.65,4.59
		c-0.16,0.37,0.08,0.78,0.48,0.83l0,0c0.35,0.05,0.68-0.21,0.68-0.57c0.01-2.47-1.08-5-3.41-6.12c-2.15-1.04-4.8-0.62-6.33,1.29
		c-0.93,1.16-1.34,2.59-1.45,4.05c-0.03,0.39,0.32,0.7,0.71,0.64l0,0c0.37-0.05,0.63-0.41,0.53-0.77c-0.48-1.82-1.37-3.57-2.79-4.82
		c-1.34-1.18-3.02-1.85-4.8-1.96c-3.26-0.21-6.8,1.55-8.2,4.59c-0.88,1.92-0.83,4.08-0.05,6.03c0.14,0.36,0.49,0.62,0.89,0.51
		c0.35-0.09,0.65-0.53,0.51-0.89c-0.18-0.44-0.32-0.89-0.42-1.36c-0.02-0.09-0.04-0.19-0.06-0.28c-0.01-0.06-0.02-0.11-0.03-0.17
		c-0.04-0.19,0.02,0.16-0.01-0.03c-0.02-0.2-0.04-0.4-0.05-0.61c-0.01-0.2-0.01-0.39,0.01-0.59c0.01-0.09,0.01-0.18,0.02-0.26
		c0.01-0.05,0.01-0.1,0.02-0.16c-0.02,0.22,0-0.02,0.01-0.06c0.06-0.36,0.15-0.72,0.28-1.07c0.03-0.08,0.06-0.16,0.09-0.23
		c0.06-0.16-0.07,0.15,0-0.01c0.02-0.04,0.04-0.09,0.06-0.13c0.08-0.17,0.17-0.34,0.26-0.5c0.09-0.15,0.18-0.29,0.27-0.43
		c0.06-0.08,0.11-0.16,0.17-0.24c-0.12,0.16,0.06-0.07,0.1-0.12c0.23-0.27,0.48-0.53,0.76-0.77c0.07-0.07,0.15-0.13,0.23-0.19
		c0.03-0.02,0.05-0.04,0.08-0.06c0.13-0.11-0.13,0.09,0.01-0.01c0.16-0.11,0.32-0.23,0.49-0.34c0.31-0.2,0.63-0.37,0.96-0.52
		c0.05-0.02,0.09-0.04,0.14-0.06c0.15-0.07-0.11,0.05-0.01,0.01c0.08-0.04,0.17-0.07,0.26-0.1c0.19-0.07,0.38-0.13,0.57-0.19
		c0.35-0.1,0.71-0.19,1.08-0.24c0.05-0.01,0.1-0.02,0.15-0.02c-0.19,0.03-0.08,0.01-0.04,0.01c0.1-0.01,0.2-0.02,0.3-0.03
		c0.19-0.02,0.37-0.02,0.55-0.03c0.19,0,0.37,0,0.55,0.01c0.09,0.01,0.19,0.01,0.28,0.02c0.06,0.01,0.4,0.05,0.18,0.02
		c0.37,0.06,0.73,0.13,1.09,0.24c0.18,0.05,0.36,0.12,0.53,0.19c0.05,0.02,0.1,0.04,0.14,0.06c-0.16-0.07-0.07-0.03-0.03-0.01
		c0.11,0.05,0.22,0.1,0.33,0.16c0.35,0.18,0.67,0.38,0.99,0.61c0.03,0.02,0.17,0.13,0.03,0.02c0.04,0.03,0.08,0.07,0.13,0.1
		c0.1,0.08,0.2,0.17,0.29,0.25c0.17,0.15,0.32,0.31,0.47,0.48c0.08,0.09,0.17,0.19,0.24,0.28c0.03,0.04,0.06,0.08,0.09,0.11
		c-0.11-0.14,0.05,0.06,0.06,0.09c0.14,0.2,0.28,0.4,0.4,0.61c0.14,0.24,0.27,0.48,0.39,0.72c0.14,0.3,0.16,0.33,0.27,0.63
		c0.22,0.59,0.39,1.21,0.52,1.83c0.17,0.81,1.42,0.61,1.43-0.19c0-0.39,0.02-0.77,0.07-1.15c0.02-0.15,0.01-0.05,0-0.02
		c0.01-0.05,0.02-0.09,0.02-0.14c0.01-0.08,0.03-0.16,0.04-0.24c0.03-0.17,0.07-0.33,0.11-0.49c0.04-0.16,0.09-0.31,0.14-0.46
		c0.02-0.07,0.05-0.13,0.07-0.2c0.02-0.04,0.03-0.08,0.05-0.11c-0.02,0.06-0.04,0.08,0,0.01c0.13-0.27,0.26-0.53,0.42-0.78
		c0.04-0.05,0.07-0.1,0.11-0.16l0,0c0.01-0.01,0.03-0.04,0.03-0.04l0,0c0.09-0.11,0.18-0.21,0.27-0.31
		c0.08-0.09,0.17-0.17,0.26-0.25c0.04-0.04,0.09-0.07,0.13-0.11c0.09-0.08-0.01,0.01-0.03,0.02c0.03-0.03,0.07-0.05,0.1-0.07
		c0.2-0.14,0.4-0.26,0.62-0.37c0.05-0.02,0.1-0.05,0.15-0.07c-0.19,0.09,0,0,0.05-0.02c0.11-0.04,0.22-0.08,0.34-0.11
		c0.11-0.03,0.23-0.06,0.34-0.08c0.05-0.01,0.11-0.02,0.16-0.03c0.08-0.02-0.08,0.01-0.08,0.01c0.04,0,0.08-0.01,0.12-0.01
		c0.24-0.02,0.47-0.03,0.71-0.01c0.06,0.01,0.12,0.01,0.19,0.02c0.17,0.01-0.11-0.02,0.02,0c0.12,0.02,0.25,0.04,0.37,0.07
		c0.24,0.06,0.46,0.13,0.69,0.22c0.12,0.04-0.13-0.07,0.03,0.01c0.05,0.03,0.1,0.05,0.16,0.07c0.12,0.06,0.23,0.12,0.35,0.19
		c0.1,0.06,0.2,0.12,0.29,0.19c0.06,0.04,0.11,0.08,0.16,0.12c-0.13-0.09,0,0,0.05,0.04c0.2,0.17,0.38,0.35,0.55,0.54
		c0.04,0.05,0.08,0.09,0.12,0.14s0.12,0.16,0.04,0.04c0.08,0.12,0.17,0.23,0.25,0.36s0.16,0.27,0.23,0.41
		c0.04,0.07,0.07,0.13,0.1,0.2c0.02,0.04,0.11,0.27,0.05,0.12c0.12,0.32,0.23,0.64,0.31,0.98c0.04,0.17,0.07,0.33,0.09,0.5
		c0.02,0.14,0,0.03,0,0c0.01,0.06,0.01,0.11,0.02,0.17c0.01,0.09,0.02,0.18,0.02,0.27c0.03,0.42,0.02,0.83-0.02,1.25
		c-0.03,0.36,0.3,0.67,0.63,0.71c0.38,0.05,0.67-0.17,0.8-0.52c0.3-0.79,0.76-1.7,1.31-2.48c0.06-0.09,0.13-0.18,0.2-0.27
		c-0.08,0.11,0.08-0.1,0.11-0.13c0.14-0.17,0.29-0.34,0.44-0.5c0.28-0.3,0.58-0.57,0.9-0.83c0.02-0.02,0.18-0.14,0.04-0.03
		c0.03-0.02,0.06-0.05,0.09-0.07c0.08-0.06,0.16-0.11,0.24-0.17c0.17-0.11,0.34-0.22,0.51-0.32c0.16-0.09,0.31-0.18,0.47-0.25
		c0.08-0.04,0.17-0.08,0.25-0.12c0.04-0.02,0.08-0.04,0.13-0.06c0.05-0.02,0.03-0.02-0.05,0.02c0.03-0.01,0.07-0.03,0.1-0.04
		c0.34-0.13,0.68-0.24,1.04-0.33c0.17-0.04,0.33-0.07,0.5-0.1c0.04-0.01,0.09-0.01,0.13-0.02c0.17-0.03-0.12,0.01-0.01,0
		c0.1-0.01,0.19-0.02,0.29-0.03c0.35-0.03,0.69-0.03,1.04-0.01c0.09,0.01,0.17,0.01,0.26,0.02c0.05,0.01,0.33,0.05,0.11,0.01
		c0.18,0.03,0.35,0.06,0.53,0.1c0.34,0.08,0.68,0.18,1,0.31c0.03,0.01,0.06,0.03,0.09,0.04c0.17,0.06-0.14-0.07,0.02,0.01
		c0.07,0.03,0.14,0.06,0.21,0.1c0.16,0.08,0.32,0.16,0.47,0.25s0.29,0.18,0.43,0.28c0.06,0.04,0.12,0.09,0.19,0.14
		c0.09,0.07-0.13-0.11,0,0c0.04,0.03,0.08,0.07,0.12,0.1c0.28,0.23,0.53,0.49,0.77,0.76c0.05,0.06,0.1,0.12,0.16,0.19
		c0.12,0.14-0.09-0.12,0.02,0.02c0.02,0.03,0.04,0.06,0.06,0.09c0.12,0.16,0.23,0.33,0.33,0.5c0.09,0.14,0.17,0.29,0.25,0.44
		c0.04,0.08,0.08,0.17,0.12,0.26c0.03,0.05,0.05,0.11,0.07,0.16c-0.05-0.11-0.01-0.02,0.02,0.04c0.17,0.43,0.3,0.86,0.4,1.31
		c0.03,0.11,0.05,0.23,0.07,0.35c0.01,0.06,0.02,0.13,0.03,0.19c0.01,0.03,0.03,0.23,0.01,0.07c0.03,0.25,0.05,0.5,0.07,0.74
		c0.03,0.56,0.01,1.12-0.04,1.68c-0.05,0.56-0.15,1.11-0.29,1.73c-0.15,0.64,0.5,1.1,1.07,0.82c0.89-0.44,1.88-0.8,2.93-0.99
		c0.11-0.02,0.22-0.04,0.33-0.05c-0.16,0.02,0.15-0.02,0.19-0.02c0.23-0.02,0.46-0.04,0.68-0.04c0.2,0,0.4,0,0.6,0.01
		c0.1,0.01,0.19,0.02,0.29,0.02c0.06,0.01,0.11,0.01,0.17,0.02c-0.19-0.02-0.01,0,0.03,0.01c0.4,0.07,0.79,0.16,1.17,0.3
		c0.08,0.03,0.17,0.06,0.25,0.09c0.04,0.01,0.13,0.06-0.03-0.01c0.05,0.02,0.1,0.04,0.14,0.06c0.17,0.08,0.34,0.17,0.51,0.26
		c0.15,0.09,0.29,0.18,0.43,0.27c0.07,0.05,0.14,0.1,0.21,0.15c0.14,0.1-0.12-0.1,0.01,0.01c0.04,0.03,0.08,0.06,0.12,0.1
		c0.27,0.23,0.52,0.48,0.75,0.74c0.06,0.07,0.12,0.14,0.18,0.21c0.03,0.04,0.1,0.13-0.01-0.01c0.03,0.03,0.05,0.07,0.07,0.1
		c0.11,0.16,0.22,0.32,0.32,0.48c0.18,0.3,0.34,0.62,0.48,0.94c-0.08-0.19,0.02,0.06,0.04,0.11c0.03,0.08,0.06,0.16,0.09,0.24
		c0.06,0.18,0.11,0.35,0.16,0.53c0.04,0.16,0.08,0.33,0.11,0.49c0.02,0.08,0.03,0.17,0.05,0.25c0.01,0.05,0.02,0.1,0.02,0.15
		c-0.03-0.2-0.01-0.04,0,0.01c0.04,0.36,0.06,0.72,0.05,1.09c-0.01,0.18-0.02,0.36-0.03,0.53c-0.01,0.05-0.04,0.33-0.01,0.11
		c-0.02,0.1-0.03,0.2-0.05,0.3c-0.06,0.35-0.16,0.7-0.27,1.04c-0.03,0.08-0.06,0.16-0.09,0.24c-0.02,0.05-0.13,0.3-0.04,0.11
		c-0.08,0.17-0.16,0.35-0.25,0.51c-0.1,0.19-0.21,0.37-0.32,0.54c-0.06,0.09-0.12,0.18-0.18,0.26c-0.02,0.03-0.13,0.17-0.02,0.02
		c-0.03,0.04-0.07,0.08-0.1,0.13c-0.28,0.34-0.59,0.66-0.93,0.94c-0.04,0.03-0.07,0.06-0.11,0.09c-0.14,0.12,0.06-0.04-0.06,0.04
		c-0.09,0.07-0.19,0.14-0.28,0.2c-0.2,0.13-0.4,0.26-0.61,0.37c-0.22,0.12-0.44,0.23-0.67,0.33c0.03-0.01,0.13-0.05-0.01,0
		c-0.07,0.03-0.14,0.06-0.21,0.08c-0.13,0.05-0.27,0.1-0.41,0.14c-0.61,0.2-0.7,0.97-0.17,1.33c0.23,0.15,0.47,0.36,0.71,0.63
		c0.06,0.06,0.11,0.13,0.16,0.19c-0.06-0.08,0.06,0.09,0.08,0.11c0.1,0.15,0.2,0.31,0.28,0.46c0.18,0.33,0.23,0.46,0.35,0.84
		c0.05,0.17,0.1,0.33,0.13,0.5c0.03,0.14,0.08,0.42,0.09,0.5c0.17,1.31-0.07,2.75-0.71,3.9c-0.08,0.15-0.17,0.29-0.26,0.43
		c-0.05,0.07-0.09,0.14-0.14,0.2c-0.05,0.07-0.01,0.01,0.01-0.01c-0.04,0.05-0.07,0.09-0.11,0.13c-0.11,0.12-0.22,0.24-0.34,0.36
		c-0.06,0.06-0.12,0.11-0.18,0.16c-0.03,0.02-0.05,0.04-0.08,0.07c-0.03,0.03-0.04,0.03-0.01,0.01c0.07-0.05,0.03-0.02-0.13,0.1
		c-0.72,0.6-1.45,1.14-2.35,1.43c-1.56,0.5-3.17,0.21-4.61-0.55c-1.67-0.89-3.06-2.29-4.07-3.86c-0.19-0.3-0.57-0.44-0.91-0.3
		c-0.36,0.16-0.48,0.49-0.42,0.86c0.03,0.23-0.01-0.08,0.01,0.05c0.01,0.05,0.01,0.09,0.02,0.14c0.01,0.1,0.02,0.21,0.03,0.31
		c0.02,0.21,0.02,0.42,0.02,0.64c0,0.18-0.01,0.36-0.02,0.55c-0.01,0.1-0.02,0.21-0.03,0.31c0,0.03-0.02,0.14,0-0.01
		c-0.01,0.06-0.02,0.12-0.03,0.18c-0.06,0.35-0.14,0.69-0.25,1.02c-0.03,0.08-0.06,0.16-0.09,0.24c-0.02,0.04-0.12,0.28-0.04,0.11
		c-0.07,0.16-0.15,0.32-0.23,0.47c-0.07,0.13-0.15,0.27-0.23,0.4c-0.05,0.08-0.1,0.15-0.15,0.22c-0.03,0.04-0.19,0.26-0.08,0.11
		c-0.2,0.25-0.41,0.48-0.64,0.7c-0.11,0.11-0.23,0.21-0.35,0.31c-0.16,0.13,0.06-0.04-0.08,0.06c-0.07,0.05-0.14,0.1-0.21,0.15
		c-0.26,0.18-0.54,0.34-0.82,0.48c-0.06,0.03-0.12,0.06-0.19,0.09c-0.04,0.02-0.08,0.04-0.12,0.05c-0.09,0.04,0.12-0.05,0.03-0.01
		c-0.15,0.06-0.3,0.12-0.46,0.17c-0.3,0.1-0.61,0.18-0.92,0.23c-0.08,0.01-0.15,0.03-0.23,0.04c-0.11,0.02,0.13-0.01-0.06,0.01
		c-0.17,0.02-0.34,0.03-0.51,0.04c-0.31,0.01-0.61,0-0.92-0.03c-0.04,0-0.27-0.03-0.16-0.02c0.11,0.02-0.12-0.02-0.16-0.03
		c-0.16-0.03-0.32-0.06-0.47-0.1c-0.14-0.04-0.28-0.08-0.41-0.12c-0.07-0.02-0.14-0.05-0.22-0.08c-0.04-0.02-0.08-0.03-0.12-0.05
		c-0.14-0.05,0.13,0.06-0.02-0.01c-0.28-0.13-0.55-0.27-0.81-0.43c-0.13-0.08-0.26-0.17-0.38-0.27c0.13,0.09-0.01-0.01-0.06-0.05
		c-0.07-0.06-0.15-0.12-0.22-0.19c-0.14-0.13-0.27-0.26-0.39-0.4c-0.06-0.07-0.12-0.14-0.18-0.21c-0.02-0.03-0.05-0.06-0.07-0.09
		c0.11,0.14-0.01-0.01-0.02-0.03c-0.23-0.32-0.43-0.66-0.6-1.02c-0.02-0.05-0.04-0.09-0.06-0.14c-0.06-0.12,0.02,0.06-0.01-0.02
		c-0.04-0.1-0.08-0.21-0.12-0.32c-0.07-0.2-0.13-0.41-0.19-0.62c-0.06-0.22-0.11-0.44-0.15-0.66c-0.06-0.32-0.06-0.33-0.09-0.66
		c-0.04-0.39-0.31-0.72-0.72-0.72c-0.4,0-0.72,0.33-0.72,0.72c-0.01,0.2-0.02,0.4-0.03,0.59c-0.01,0.04-0.01,0.09-0.01,0.13
		c0,0-0.03,0.21-0.01,0.09l0,0c0.01-0.11-0.02,0.14-0.04,0.25c0,0.01,0,0.02,0,0.02c-0.07,0.35-0.16,0.7-0.27,1.03
		c-0.03,0.09-0.07,0.18-0.1,0.27c-0.01,0.03-0.06,0.12,0.01-0.02c-0.02,0.03-0.03,0.07-0.05,0.1c-0.08,0.17-0.16,0.33-0.25,0.49
		c-0.08,0.14-0.17,0.27-0.26,0.41c-0.04,0.06-0.08,0.11-0.12,0.17c-0.07,0.11,0.01-0.01,0.02-0.02c-0.03,0.04-0.07,0.08-0.1,0.12
		c-0.21,0.25-0.44,0.49-0.69,0.7c-0.05,0.04-0.1,0.09-0.16,0.13c-0.13,0.11,0.09-0.07,0.01-0.01c-0.03,0.03-0.07,0.05-0.1,0.08
		c-0.12,0.09-0.25,0.17-0.38,0.25s-0.26,0.16-0.4,0.22c-0.07,0.04-0.15,0.08-0.23,0.11c-0.05,0.02-0.29,0.12-0.1,0.05
		c-0.29,0.12-0.58,0.22-0.88,0.29c-0.14,0.04-0.28,0.07-0.42,0.09c-0.08,0.02-0.17,0.03-0.25,0.04c-0.2,0.03,0.1-0.01-0.11,0.02
		c-0.31,0.03-0.62,0.05-0.94,0.04c-0.14,0-0.29-0.01-0.43-0.02c-0.08-0.01-0.17-0.02-0.25-0.03c-0.04,0-0.14-0.02,0.04,0.01
		c-0.05-0.01-0.1-0.02-0.15-0.02c-0.31-0.05-0.61-0.12-0.91-0.21c-0.14-0.04-0.27-0.09-0.41-0.14c-0.04-0.02-0.3-0.12-0.11-0.04
		c-0.08-0.03-0.16-0.07-0.23-0.1c-0.28-0.13-0.55-0.29-0.81-0.46c-0.06-0.04-0.12-0.09-0.19-0.13c-0.17-0.12,0.06,0.05-0.08-0.06
		c-0.12-0.1-0.25-0.21-0.37-0.32c-0.11-0.11-0.22-0.22-0.32-0.33c-0.05-0.05-0.09-0.1-0.14-0.16c-0.03-0.03-0.06-0.07-0.08-0.1
		c-0.04-0.05,0.08,0.11-0.02-0.02c-0.22-0.3-0.41-0.61-0.57-0.95c-0.02-0.04-0.04-0.08-0.06-0.12c-0.01-0.02-0.08-0.19-0.04-0.09
		c0.04,0.11-0.03-0.07-0.03-0.07c-0.02-0.05-0.04-0.11-0.06-0.16c-0.07-0.18-0.12-0.37-0.17-0.56c-0.05-0.21-0.1-0.41-0.13-0.63
		c-0.01-0.04-0.01-0.08-0.02-0.12c-0.01-0.05-0.01-0.04,0.01,0.04c-0.01-0.03-0.01-0.06-0.01-0.09c-0.01-0.12-0.03-0.24-0.03-0.36
		c-0.03-0.49-0.02-0.97,0.02-1.46c0.06-0.74-1.01-0.96-1.35-0.37c-0.65,1.11-1.33,2.06-2.28,2.93c-0.45,0.42-0.69,0.61-1.19,0.92
		c-0.2,0.12-0.39,0.24-0.6,0.34c-0.09,0.05-0.18,0.09-0.27,0.13c-0.05,0.03-0.11,0.05-0.17,0.07c0.17-0.07-0.07,0.03-0.1,0.04
		c-0.41,0.16-0.83,0.28-1.26,0.35c-0.05,0.01-0.11,0.02-0.17,0.03c-0.19,0.03,0.16-0.01-0.03,0c-0.11,0.01-0.22,0.02-0.33,0.03
		c-0.22,0.02-0.43,0.02-0.65,0.01c-0.2-0.01-0.39-0.03-0.58-0.05c-0.18-0.02,0.16,0.03-0.02,0c-0.05-0.01-0.1-0.02-0.16-0.03
		c-0.1-0.02-0.21-0.04-0.31-0.06c-0.19-0.04-0.38-0.09-0.56-0.15c-0.1-0.03-0.2-0.07-0.3-0.1c-0.06-0.02-0.4-0.16-0.22-0.08
		c-0.37-0.17-0.73-0.35-1.07-0.57c-0.16-0.1-0.32-0.22-0.48-0.33c-0.03-0.02-0.17-0.13-0.02-0.02c-0.04-0.03-0.08-0.07-0.12-0.1
		c-0.08-0.07-0.16-0.13-0.24-0.21c-0.32-0.28-0.61-0.59-0.88-0.92c-0.03-0.04-0.2-0.26-0.08-0.1c-0.06-0.08-0.13-0.17-0.19-0.26
		c-0.12-0.17-0.24-0.35-0.35-0.53c-0.1-0.17-0.19-0.34-0.28-0.51c-0.05-0.09-0.09-0.19-0.14-0.29c-0.02-0.03-0.08-0.2-0.01-0.02
		c-0.02-0.06-0.05-0.11-0.07-0.17c-0.15-0.39-0.27-0.79-0.35-1.19c-0.02-0.1-0.04-0.21-0.06-0.31c-0.01-0.04-0.01-0.07-0.02-0.1
		c-0.03-0.18,0.01,0.17,0-0.02c-0.02-0.21-0.04-0.42-0.04-0.64c-0.01-0.21,0-0.43,0.02-0.64c0.01-0.09,0.02-0.18,0.03-0.27
		c0.01-0.04,0.04-0.22,0-0.02c0.01-0.07,0.02-0.14,0.04-0.22c0.09-0.48,0.23-0.95,0.41-1.4c-0.07,0.16,0.07-0.14,0.09-0.2
		c0.06-0.12,0.12-0.25,0.19-0.37c0.13-0.23,0.27-0.46,0.43-0.68c0.04-0.05,0.07-0.1,0.11-0.15c0.05-0.07,0.05-0.07,0-0.01
		c0.03-0.03,0.05-0.07,0.08-0.1c0.08-0.1,0.17-0.2,0.25-0.3c0.2-0.22,0.4-0.43,0.62-0.64c0.52-0.48,0.92-0.78,1.53-1.17
		c0.6-0.38,0.37-1.35-0.37-1.35c-0.32,0-0.64-0.01-0.96-0.03c-0.15-0.01-0.29-0.02-0.44-0.04c-0.08-0.01-0.15-0.02-0.23-0.03
		c-0.09-0.01,0.02,0,0.03,0.01c-0.04-0.01-0.09-0.01-0.13-0.02c-0.55-0.08-1.1-0.21-1.63-0.38c-0.12-0.04-0.24-0.08-0.35-0.12
		c-0.06-0.02-0.12-0.05-0.18-0.07s-0.19-0.08-0.06-0.02c-0.22-0.1-0.44-0.2-0.66-0.32c-0.21-0.11-0.42-0.24-0.62-0.38
		c-0.09-0.06-0.18-0.12-0.27-0.19c-0.07-0.05-0.1-0.08-0.01-0.01c-0.05-0.04-0.1-0.08-0.16-0.12c-0.33-0.28-0.64-0.58-0.92-0.92
		c-0.04-0.04-0.07-0.09-0.1-0.13c-0.03-0.03,0.08,0.12,0,0c-0.07-0.09-0.13-0.19-0.2-0.28c-0.11-0.17-0.22-0.35-0.32-0.53
		s-0.18-0.37-0.27-0.55c0.09,0.19-0.03-0.07-0.05-0.14c-0.04-0.1-0.07-0.2-0.1-0.3c-0.13-0.39-0.21-0.8-0.28-1.21
		c-0.02-0.13,0.02,0.15,0,0.02c-0.01-0.05-0.01-0.1-0.02-0.16c-0.01-0.1-0.02-0.21-0.03-0.31c-0.01-0.2-0.02-0.4-0.01-0.61
		c0.01-0.2,0.02-0.4,0.04-0.61c0.01-0.08,0.05-0.36,0.01-0.14c0.02-0.1,0.03-0.21,0.05-0.31c0.07-0.4,0.18-0.8,0.32-1.19
		c0.03-0.09,0.07-0.18,0.1-0.27c0.02-0.04,0.03-0.08,0.05-0.12c-0.08,0.2-0.01,0.02,0.02-0.03c0.08-0.18,0.17-0.36,0.27-0.54
		c0.1-0.18,0.21-0.36,0.33-0.54c0.05-0.08,0.11-0.16,0.17-0.24c0.03-0.04,0.05-0.07,0.08-0.11c0.06-0.08-0.09,0.11,0.03-0.03
		c0.26-0.32,0.54-0.61,0.85-0.88c0.07-0.07,0.15-0.13,0.23-0.19c0.14-0.11-0.09,0.06,0.02-0.01c0.04-0.03,0.09-0.06,0.13-0.09
		c0.18-0.12,0.36-0.24,0.55-0.35c0.18-0.11,0.37-0.2,0.57-0.29c0.04-0.02,0.09-0.04,0.13-0.06c-0.19,0.08-0.02,0.01,0.03-0.01
		c0.11-0.04,0.21-0.08,0.32-0.12c0.21-0.07,0.43-0.13,0.65-0.18c0.11-0.03,0.22-0.05,0.32-0.07c0.06-0.01,0.12-0.02,0.18-0.03
		c0.05-0.01,0.27-0.04,0.07-0.01c0.49-0.06,0.99-0.08,1.48-0.05c0.13,0.01,0.25,0.02,0.38,0.03c0.07,0.01,0.14,0.01,0.21,0.02
		c0.03,0,0.06,0.01,0.09,0.01c0.11,0.01-0.12-0.02-0.01,0c0.28,0.04,0.55,0.09,0.83,0.15c0.61,0.14,1.21,0.32,1.79,0.55
		c0.07,0.03,0.14,0.05,0.2,0.08c0.03,0.01,0.22,0.09,0.13,0.06c0.16,0.07,0.33,0.14,0.49,0.22c0.36,0.17,0.78,0.1,0.99-0.26
		C281.51,100.7,281.42,100.18,281.07,100.02z"/>
	<path class="st0" d="M290.32,114.37c-0.2-0.29-0.38-0.58-0.53-0.9c-0.03-0.07-0.06-0.13-0.09-0.2c-0.06-0.12-0.01-0.02,0,0.01
		c-0.02-0.04-0.03-0.07-0.04-0.11c-0.05-0.14-0.1-0.29-0.14-0.44c-0.04-0.13-0.07-0.27-0.09-0.4c-0.01-0.07-0.03-0.19-0.01-0.04
		c-0.01-0.08-0.02-0.16-0.02-0.23c-0.01-0.12-0.01-0.25-0.01-0.38c0-0.06,0.01-0.11,0.01-0.17c0.01-0.05,0.04-0.29,0-0.07
		c0.04-0.24,0.09-0.48,0.18-0.71c0.02-0.05,0.04-0.1,0.06-0.15c-0.06,0.15-0.02,0.04,0.02-0.04c0.05-0.11,0.11-0.22,0.18-0.32
		c0.06-0.09,0.12-0.18,0.18-0.27c0.11-0.16-0.05,0.05,0.03-0.04c0.04-0.05,0.08-0.09,0.12-0.14c0.17-0.19,0.35-0.35,0.54-0.51
		c0.09-0.08-0.13,0.09,0.02-0.02c0.05-0.03,0.09-0.06,0.13-0.09c0.1-0.07,0.21-0.14,0.32-0.2c0.1-0.06,0.21-0.11,0.31-0.17
		c0.05-0.03,0.1-0.05,0.15-0.07c0.18-0.09-0.09,0.03,0.07-0.03c0.23-0.08,0.46-0.16,0.7-0.22c0.12-0.03,0.23-0.05,0.35-0.07
		c0.1-0.02,0.16-0.02,0.02-0.01c0.07-0.01,0.14-0.02,0.21-0.02c0.25-0.02,0.49-0.02,0.74-0.01c0.06,0,0.11,0.01,0.17,0.02
		c0.03,0,0.06,0.01,0.09,0.01c0.1,0.01-0.15-0.03-0.05-0.01c0.12,0.02,0.25,0.04,0.38,0.07c0.12,0.03,0.23,0.06,0.35,0.1
		c0.05,0.02,0.11,0.04,0.16,0.06c0.03,0.01,0.06,0.02,0.09,0.04c0.09,0.03-0.16-0.08-0.02-0.01c0.22,0.11,0.44,0.22,0.64,0.36
		c0.03,0.02,0.21,0.15,0.13,0.09c-0.07-0.06,0.09,0.08,0.12,0.1c0.11,0.1,0.22,0.2,0.32,0.31c0.05,0.06,0.11,0.12,0.16,0.18
		c0.04,0.05,0.14,0.19,0.06,0.07c0.1,0.14,0.19,0.27,0.28,0.42c0.09,0.14,0.16,0.29,0.23,0.44c0.02,0.04,0.03,0.07,0.05,0.11
		c0.05,0.1-0.06-0.16,0.01,0.03c0.03,0.08,0.06,0.16,0.09,0.24c0.14,0.39,0.23,0.79,0.31,1.2c0.07,0.39,0.54,0.6,0.89,0.51
		c0.41-0.11,0.57-0.5,0.51-0.89c-0.12-0.74-0.17-1.74-0.07-2.6c0.01-0.05,0.01-0.11,0.02-0.16c0,0.03-0.02,0.14,0,0
		c0.02-0.09,0.03-0.19,0.05-0.28c0.04-0.19,0.08-0.37,0.12-0.56c0.05-0.17,0.1-0.33,0.15-0.49c0.03-0.08,0.06-0.16,0.09-0.23
		c0.02-0.04,0.07-0.16,0,0c0.02-0.05,0.04-0.1,0.07-0.15c0.13-0.28,0.28-0.55,0.46-0.81c0.05-0.07,0.1-0.13,0.14-0.2
		c-0.09,0.13-0.01,0.01,0.04-0.05c0.1-0.12,0.21-0.24,0.33-0.35c0.1-0.1,0.2-0.19,0.31-0.28c0.06-0.05,0.16-0.12,0.04-0.03
		c0.07-0.05,0.13-0.1,0.21-0.14c0.23-0.16,0.48-0.28,0.73-0.4c0.14-0.07-0.12,0.05-0.03,0.01c0.04-0.01,0.07-0.03,0.1-0.04
		c0.06-0.02,0.11-0.04,0.17-0.06c0.14-0.05,0.28-0.09,0.42-0.12c0.13-0.03,0.26-0.05,0.39-0.07c-0.15,0.03-0.07,0.01,0.03,0
		c0.08-0.01,0.16-0.01,0.24-0.02c0.27-0.01,0.54,0.01,0.81,0.03c-0.23-0.02-0.01,0,0.05,0.01c0.07,0.01,0.13,0.03,0.2,0.04
		c0.14,0.03,0.29,0.07,0.43,0.11c0.12,0.04,0.24,0.08,0.36,0.13c0.1,0.04-0.17-0.08-0.03-0.01c0.03,0.01,0.06,0.03,0.08,0.04
		c0.07,0.03,0.14,0.07,0.2,0.1c0.12,0.06,0.24,0.13,0.36,0.21c0.07,0.04,0.13,0.08,0.19,0.13c0.05,0.03,0.24,0.19,0.08,0.05
		c0.23,0.19,0.45,0.39,0.65,0.61c0.05,0.06,0.1,0.11,0.14,0.17c0.02,0.03,0.04,0.05,0.06,0.08c0.11,0.13-0.07-0.09-0.01-0.01
		c0.1,0.13,0.19,0.26,0.27,0.4c0.1,0.16,0.19,0.32,0.27,0.49c0.05,0.09,0.09,0.18,0.13,0.27c0.02,0.03,0.05,0.13-0.01-0.02
		c0.02,0.05,0.04,0.1,0.06,0.16c0.15,0.39,0.26,0.79,0.34,1.2c0.02,0.1,0.04,0.21,0.05,0.31c0.01,0.04,0.01,0.08,0.02,0.13
		c-0.02-0.16,0,0.03,0.01,0.07c0.03,0.25,0.04,0.5,0.05,0.75c0.02,0.52-0.01,1.04-0.07,1.56c-0.08,0.7,1.08,1.02,1.35,0.37
		c0.12-0.27,0.25-0.54,0.4-0.8c0.07-0.12,0.15-0.24,0.23-0.35c0.04-0.06,0.08-0.11,0.12-0.17c-0.08,0.1,0.03-0.04,0.05-0.06
		c0.17-0.2,0.34-0.38,0.54-0.54c0.05-0.04,0.09-0.08,0.14-0.12c-0.13,0.1,0.03-0.02,0.05-0.03c0.1-0.07,0.2-0.13,0.3-0.2
		c0.1-0.06,0.2-0.12,0.31-0.17c0.05-0.03,0.11-0.05,0.16-0.07c0.17-0.08-0.14,0.04,0.04-0.02c0.22-0.07,0.43-0.15,0.66-0.2
		c0.11-0.03,0.22-0.04,0.33-0.06c-0.2,0.03,0.14-0.01,0.2-0.01c0.22-0.01,0.45-0.01,0.67,0.01c0.06,0.01,0.11,0.01,0.17,0.02
		c0.19,0.02-0.16-0.03,0.03,0.01c0.11,0.02,0.22,0.04,0.33,0.06c0.22,0.05,0.43,0.11,0.64,0.19c0.05,0.02,0.1,0.04,0.16,0.06
		c-0.17-0.07,0,0,0.03,0.02c0.1,0.05,0.2,0.1,0.3,0.15c0.2,0.11,0.38,0.23,0.56,0.36c0.16,0.1-0.11-0.1,0.03,0.02
		c0.04,0.04,0.09,0.07,0.13,0.11c0.08,0.07,0.17,0.15,0.24,0.22c0.07,0.07,0.13,0.13,0.19,0.2c0.04,0.04,0.07,0.08,0.11,0.12
		c0.13,0.15-0.01-0.03,0.06,0.07c0.11,0.17,0.23,0.34,0.32,0.52c0.05,0.1,0.1,0.2,0.14,0.3c-0.07-0.17,0,0.01,0.01,0.04
		c0.02,0.07,0.05,0.14,0.07,0.22c0.04,0.13,0.07,0.26,0.1,0.39c0.01,0.04,0.02,0.08,0.02,0.11c0.01,0.04,0.01,0.08,0.02,0.12
		c-0.01-0.1-0.01-0.1-0.01-0.02c0.02,0.29,0.03,0.57,0,0.86c0,0.02-0.03,0.23-0.01,0.06c-0.01,0.07-0.02,0.13-0.03,0.2
		c-0.03,0.16-0.07,0.31-0.11,0.47c-0.1,0.36-0.19,0.58-0.33,0.86c-0.17,0.35-0.1,0.78,0.26,0.99c0.32,0.19,0.82,0.09,0.99-0.26
		c0.56-1.18,0.84-2.46,0.58-3.75c-0.21-1.05-0.8-2.03-1.6-2.73c-1.68-1.46-4.1-1.87-6.13-0.92c-1.05,0.49-1.88,1.36-2.43,2.37
		c-0.18,0.32,0.01,0.71,0.37,0.8l0,0c0.36,0.1,0.72-0.15,0.74-0.52c0.08-1.57-0.16-3.17-0.9-4.57c-0.67-1.26-1.75-2.25-3.07-2.79
		c-2.58-1.04-5.52,0.11-6.87,2.5c-0.89,1.58-1.05,3.41-0.88,5.19c0.04,0.43,0.46,0.7,0.88,0.58l0,0c0.35-0.1,0.58-0.45,0.49-0.81
		c-0.3-1.16-0.88-2.28-1.82-3.06c-0.96-0.79-2.15-1.21-3.39-1.19c-2.3,0.03-4.7,1.48-5.28,3.8c-0.38,1.55,0.12,3.12,1.01,4.4
		c0.22,0.32,0.64,0.47,0.99,0.26C290.38,115.17,290.54,114.69,290.32,114.37z"/>
</g>
<g>
	<path class="st0" d="M23.38,61.56c-2.25-1.05-4.78-1.67-7.25-1.1c-1.89,0.43-3.53,1.61-4.61,3.21c-1,1.49-1.49,3.35-1.38,5.13
		c0.12,1.9,0.88,3.72,2.22,5.08c1.64,1.64,3.91,2.39,6.18,2.56c0.1,0.01,0.2,0.01,0.3,0.02c0.35,0.02,0.6-0.31,0.51-0.65l0,0
		c-0.09-0.34-0.49-0.49-0.78-0.29c-1.7,1.21-3.1,2.84-3.67,4.88c-0.51,1.86-0.25,3.84,0.6,5.56c1.67,3.39,5.61,5.56,9.35,4.51
		c2.46-0.7,4.35-2.58,5.7-4.69c0.2-0.31,0.03-0.72-0.32-0.81l0,0c-0.34-0.09-0.68,0.14-0.68,0.49c-0.03,1.49,0.29,2.99,1.08,4.26
		c0.8,1.28,2.01,2.21,3.41,2.75c2.64,1.02,5.9,0.42,7.89-1.62c1.15-1.17,1.76-2.71,1.92-4.32c0.04-0.38-0.27-0.7-0.66-0.7l0,0
		c-0.4,0-0.72,0.35-0.66,0.75c0.25,1.5,0.81,2.93,1.85,4.07c0.96,1.06,2.3,1.78,3.7,2.03c2.92,0.52,6.02-0.72,7.64-3.24
		c0.92-1.44,1.2-3.12,1.08-4.79c-0.03-0.38-0.42-0.6-0.77-0.45l0,0c-0.33,0.14-0.46,0.55-0.25,0.84c2.1,2.94,5.6,5.46,9.35,4.66
		c1.06-0.23,2.04-0.73,2.89-1.39c0.71-0.55,1.38-1.13,1.89-1.88c0.91-1.35,1.31-3.09,1.21-4.71c-0.11-1.7-0.76-3.32-2.03-4.44
		c-0.23-0.2-0.58-0.05-0.62,0.26l0,0c-0.04,0.3,0.25,0.54,0.54,0.43c1.55-0.63,2.91-1.65,3.84-3.08c0.89-1.37,1.32-3.04,1.24-4.67
		c-0.15-3.33-2.31-6.47-5.64-7.29c-2.12-0.52-4.3-0.07-6.27,0.79c-0.29,0.13-0.33,0.51-0.08,0.7l0,0c0.24,0.19,0.6,0.06,0.66-0.24
		c0.36-1.88,0.4-3.86-0.19-5.69c-0.53-1.63-1.52-3.06-2.93-4.05c-2.69-1.9-6.41-1.67-9.06,0.17c-1.65,1.15-2.85,2.77-3.65,4.59
		c-0.16,0.37,0.08,0.78,0.48,0.83l0,0c0.35,0.05,0.68-0.21,0.68-0.57c0.01-2.47-1.08-5-3.41-6.12c-2.15-1.04-4.8-0.62-6.33,1.29
		c-0.93,1.16-1.34,2.59-1.45,4.05c-0.03,0.39,0.32,0.7,0.71,0.64l0,0c0.37-0.05,0.63-0.41,0.53-0.77c-0.48-1.82-1.37-3.57-2.79-4.82
		c-1.34-1.18-3.02-1.85-4.8-1.96c-3.26-0.21-6.8,1.55-8.2,4.59c-0.88,1.92-0.83,4.08-0.05,6.03c0.14,0.36,0.49,0.62,0.89,0.51
		c0.35-0.09,0.65-0.53,0.51-0.89c-0.18-0.44-0.32-0.89-0.42-1.36c-0.02-0.09-0.04-0.19-0.06-0.28c-0.01-0.06-0.02-0.11-0.03-0.17
		c-0.04-0.19,0.02,0.16-0.01-0.03c-0.02-0.2-0.04-0.4-0.05-0.61c-0.01-0.2-0.01-0.39,0.01-0.59c0.01-0.09,0.01-0.18,0.02-0.26
		c0.01-0.05,0.01-0.1,0.02-0.16c-0.02,0.22,0-0.02,0.01-0.06c0.06-0.36,0.15-0.72,0.28-1.07c0.03-0.08,0.06-0.16,0.09-0.23
		c0.06-0.16-0.07,0.15,0-0.01c0.02-0.04,0.04-0.09,0.06-0.13c0.08-0.17,0.17-0.34,0.26-0.5c0.09-0.15,0.18-0.29,0.27-0.43
		c0.06-0.08,0.11-0.16,0.17-0.24c-0.12,0.16,0.06-0.07,0.1-0.12c0.23-0.27,0.48-0.53,0.76-0.77c0.07-0.07,0.15-0.13,0.23-0.19
		c0.03-0.02,0.05-0.04,0.08-0.06c0.13-0.11-0.13,0.09,0.01-0.01c0.16-0.11,0.32-0.23,0.49-0.34c0.31-0.2,0.63-0.37,0.96-0.52
		c0.05-0.02,0.09-0.04,0.14-0.06c0.15-0.07-0.11,0.05-0.01,0.01c0.08-0.04,0.17-0.07,0.26-0.1c0.19-0.07,0.38-0.13,0.57-0.19
		c0.35-0.1,0.71-0.19,1.08-0.24c0.05-0.01,0.1-0.02,0.15-0.02c-0.19,0.03-0.08,0.01-0.04,0.01c0.1-0.01,0.2-0.02,0.3-0.03
		c0.19-0.02,0.37-0.02,0.55-0.03c0.19,0,0.37,0,0.55,0.01c0.09,0.01,0.19,0.01,0.28,0.02c0.06,0.01,0.4,0.05,0.18,0.02
		c0.37,0.06,0.73,0.13,1.09,0.24c0.18,0.05,0.36,0.12,0.53,0.19c0.05,0.02,0.1,0.04,0.14,0.06c-0.16-0.07-0.07-0.03-0.03-0.01
		c0.11,0.05,0.22,0.1,0.33,0.16c0.35,0.18,0.67,0.38,0.99,0.61c0.03,0.02,0.17,0.13,0.03,0.02c0.04,0.03,0.08,0.07,0.13,0.1
		c0.1,0.08,0.2,0.17,0.29,0.25c0.17,0.15,0.32,0.31,0.47,0.48c0.08,0.09,0.17,0.19,0.24,0.28c0.03,0.04,0.06,0.08,0.09,0.11
		c-0.11-0.14,0.05,0.06,0.06,0.09c0.14,0.2,0.28,0.4,0.4,0.61c0.14,0.24,0.27,0.48,0.39,0.72c0.14,0.3,0.16,0.33,0.27,0.63
		c0.22,0.59,0.39,1.21,0.52,1.83c0.17,0.81,1.42,0.61,1.43-0.19c0-0.39,0.02-0.77,0.07-1.15c0.02-0.15,0.01-0.05,0-0.02
		c0.01-0.05,0.02-0.09,0.02-0.14c0.01-0.08,0.03-0.16,0.04-0.24c0.03-0.17,0.07-0.33,0.11-0.49c0.04-0.16,0.09-0.31,0.14-0.46
		c0.02-0.07,0.05-0.13,0.07-0.2c0.02-0.04,0.03-0.08,0.05-0.11c-0.02,0.06-0.04,0.08,0,0.01c0.13-0.27,0.26-0.53,0.42-0.78
		c0.04-0.05,0.07-0.1,0.11-0.16l0,0c0.01-0.01,0.03-0.04,0.03-0.04l0,0c0.09-0.11,0.18-0.21,0.27-0.31
		c0.08-0.09,0.17-0.17,0.26-0.25c0.04-0.04,0.09-0.07,0.13-0.11c0.09-0.08-0.01,0.01-0.03,0.02c0.03-0.03,0.07-0.05,0.1-0.07
		c0.2-0.14,0.4-0.26,0.62-0.37c0.05-0.02,0.1-0.05,0.15-0.07c-0.19,0.09,0,0,0.05-0.02c0.11-0.04,0.22-0.08,0.34-0.11
		c0.11-0.03,0.23-0.06,0.34-0.08c0.05-0.01,0.11-0.02,0.16-0.03c0.08-0.02-0.08,0.01-0.08,0.01c0.04,0,0.08-0.01,0.12-0.01
		c0.24-0.02,0.47-0.03,0.71-0.01c0.06,0.01,0.12,0.01,0.19,0.02c0.17,0.01-0.11-0.02,0.02,0c0.12,0.02,0.25,0.04,0.37,0.07
		c0.24,0.06,0.46,0.13,0.69,0.22c0.12,0.04-0.13-0.07,0.03,0.01c0.05,0.03,0.1,0.05,0.16,0.07c0.12,0.06,0.23,0.12,0.35,0.19
		c0.1,0.06,0.2,0.12,0.29,0.19c0.06,0.04,0.11,0.08,0.16,0.12c-0.13-0.09,0,0,0.05,0.04c0.2,0.17,0.38,0.35,0.55,0.54
		c0.04,0.05,0.08,0.09,0.12,0.14s0.12,0.16,0.04,0.04c0.08,0.12,0.17,0.23,0.25,0.36s0.16,0.27,0.23,0.41
		c0.04,0.07,0.07,0.13,0.1,0.2c0.02,0.04,0.11,0.27,0.05,0.12c0.12,0.32,0.23,0.64,0.31,0.98c0.04,0.17,0.07,0.33,0.09,0.5
		c0.02,0.14,0,0.03,0,0c0.01,0.06,0.01,0.11,0.02,0.17c0.01,0.09,0.02,0.18,0.02,0.27c0.03,0.42,0.02,0.83-0.02,1.25
		c-0.03,0.36,0.3,0.67,0.63,0.71c0.38,0.05,0.67-0.17,0.8-0.52c0.3-0.79,0.76-1.7,1.31-2.48c0.06-0.09,0.13-0.18,0.2-0.27
		c-0.08,0.11,0.08-0.1,0.11-0.13c0.14-0.17,0.29-0.34,0.44-0.5c0.28-0.3,0.58-0.57,0.9-0.83c0.02-0.02,0.18-0.14,0.04-0.03
		c0.03-0.02,0.06-0.05,0.09-0.07c0.08-0.06,0.16-0.11,0.24-0.17c0.17-0.11,0.34-0.22,0.51-0.32c0.16-0.09,0.31-0.18,0.47-0.25
		c0.08-0.04,0.17-0.08,0.25-0.12c0.04-0.02,0.08-0.04,0.13-0.06c0.05-0.02,0.03-0.02-0.05,0.02c0.03-0.01,0.07-0.03,0.1-0.04
		c0.34-0.13,0.68-0.24,1.04-0.33c0.17-0.04,0.33-0.07,0.5-0.1c0.04-0.01,0.09-0.01,0.13-0.02c0.17-0.03-0.12,0.01-0.01,0
		c0.1-0.01,0.19-0.02,0.29-0.03c0.35-0.03,0.69-0.03,1.04-0.01c0.09,0.01,0.17,0.01,0.26,0.02c0.05,0.01,0.33,0.05,0.11,0.01
		c0.18,0.03,0.35,0.06,0.53,0.1c0.34,0.08,0.68,0.18,1,0.31c0.03,0.01,0.06,0.03,0.09,0.04c0.17,0.06-0.14-0.07,0.02,0.01
		c0.07,0.03,0.14,0.06,0.21,0.1c0.16,0.08,0.32,0.16,0.47,0.25s0.29,0.18,0.43,0.28c0.06,0.04,0.12,0.09,0.19,0.14
		c0.09,0.07-0.13-0.11,0,0c0.04,0.03,0.08,0.07,0.12,0.1c0.28,0.23,0.53,0.49,0.77,0.76c0.05,0.06,0.1,0.12,0.16,0.19
		c0.12,0.14-0.09-0.12,0.02,0.02c0.02,0.03,0.04,0.06,0.06,0.09c0.12,0.16,0.23,0.33,0.33,0.5c0.09,0.14,0.17,0.29,0.25,0.44
		c0.04,0.08,0.08,0.17,0.12,0.26c0.03,0.05,0.05,0.11,0.07,0.16c-0.05-0.11-0.01-0.02,0.02,0.04c0.17,0.43,0.3,0.86,0.4,1.31
		c0.03,0.11,0.05,0.23,0.07,0.35c0.01,0.06,0.02,0.13,0.03,0.19c0.01,0.03,0.03,0.23,0.01,0.07c0.03,0.25,0.05,0.5,0.07,0.74
		c0.03,0.56,0.01,1.12-0.04,1.68c-0.05,0.56-0.15,1.11-0.29,1.73c-0.15,0.64,0.5,1.1,1.07,0.82c0.89-0.44,1.88-0.8,2.93-0.99
		c0.11-0.02,0.22-0.04,0.33-0.05c-0.16,0.02,0.15-0.02,0.19-0.02c0.23-0.02,0.46-0.04,0.68-0.04c0.2,0,0.4,0,0.6,0.01
		c0.1,0.01,0.19,0.02,0.29,0.02c0.06,0.01,0.11,0.01,0.17,0.02c-0.19-0.02-0.01,0,0.03,0.01c0.4,0.07,0.79,0.16,1.17,0.3
		c0.08,0.03,0.17,0.06,0.25,0.09c0.04,0.01,0.13,0.06-0.03-0.01c0.05,0.02,0.1,0.04,0.14,0.06c0.17,0.08,0.34,0.17,0.51,0.26
		c0.15,0.09,0.29,0.18,0.43,0.27c0.07,0.05,0.14,0.1,0.21,0.15c0.14,0.1-0.12-0.1,0.01,0.01c0.04,0.03,0.08,0.06,0.12,0.1
		c0.27,0.23,0.52,0.48,0.75,0.74c0.06,0.07,0.12,0.14,0.18,0.21c0.03,0.04,0.1,0.13-0.01-0.01c0.03,0.03,0.05,0.07,0.07,0.1
		c0.11,0.16,0.22,0.32,0.32,0.48c0.18,0.3,0.34,0.62,0.48,0.94c-0.08-0.19,0.02,0.06,0.04,0.11c0.03,0.08,0.06,0.16,0.09,0.24
		c0.06,0.18,0.11,0.35,0.16,0.53c0.04,0.16,0.08,0.33,0.11,0.49c0.02,0.08,0.03,0.17,0.05,0.25c0.01,0.05,0.02,0.1,0.02,0.15
		c-0.03-0.2-0.01-0.04,0,0.01c0.04,0.36,0.06,0.72,0.05,1.09c-0.01,0.18-0.02,0.36-0.03,0.53c-0.01,0.05-0.04,0.33-0.01,0.11
		c-0.02,0.1-0.03,0.2-0.05,0.3c-0.06,0.35-0.16,0.7-0.27,1.04c-0.03,0.08-0.06,0.16-0.09,0.24c-0.02,0.05-0.13,0.3-0.04,0.11
		c-0.08,0.17-0.16,0.35-0.25,0.51c-0.1,0.19-0.21,0.37-0.32,0.54c-0.06,0.09-0.12,0.18-0.18,0.26c-0.02,0.03-0.13,0.17-0.02,0.02
		c-0.03,0.04-0.07,0.08-0.1,0.13c-0.28,0.34-0.59,0.66-0.93,0.94c-0.04,0.03-0.07,0.06-0.11,0.09c-0.14,0.12,0.06-0.04-0.06,0.04
		c-0.09,0.07-0.19,0.14-0.28,0.2c-0.2,0.13-0.4,0.26-0.61,0.37c-0.22,0.12-0.44,0.23-0.67,0.33c0.03-0.01,0.13-0.05-0.01,0
		c-0.07,0.03-0.14,0.06-0.21,0.08c-0.13,0.05-0.27,0.1-0.41,0.14c-0.61,0.2-0.7,0.97-0.17,1.33c0.23,0.15,0.47,0.36,0.71,0.63
		c0.06,0.06,0.11,0.13,0.16,0.19c-0.06-0.08,0.06,0.09,0.08,0.11c0.1,0.15,0.2,0.31,0.28,0.46c0.18,0.33,0.23,0.46,0.35,0.84
		c0.05,0.17,0.1,0.33,0.13,0.5c0.03,0.14,0.08,0.42,0.09,0.5c0.17,1.31-0.07,2.75-0.71,3.9c-0.08,0.15-0.17,0.29-0.26,0.43
		c-0.05,0.07-0.09,0.14-0.14,0.2c-0.05,0.07-0.01,0.01,0.01-0.01c-0.04,0.05-0.07,0.09-0.11,0.13c-0.11,0.12-0.22,0.24-0.34,0.36
		c-0.06,0.06-0.12,0.11-0.18,0.16c-0.03,0.02-0.05,0.04-0.08,0.07c-0.03,0.03-0.04,0.03-0.01,0.01c0.07-0.05,0.03-0.02-0.13,0.1
		c-0.72,0.6-1.45,1.14-2.35,1.43c-1.56,0.5-3.17,0.21-4.61-0.55c-1.67-0.89-3.06-2.29-4.07-3.86c-0.19-0.3-0.57-0.44-0.91-0.3
		c-0.36,0.16-0.48,0.49-0.42,0.86c0.03,0.23-0.01-0.08,0.01,0.05c0.01,0.05,0.01,0.09,0.02,0.14c0.01,0.1,0.02,0.21,0.03,0.31
		c0.02,0.21,0.02,0.42,0.02,0.64c0,0.18-0.01,0.36-0.02,0.55c-0.01,0.1-0.02,0.21-0.03,0.31c0,0.03-0.02,0.14,0-0.01
		c-0.01,0.06-0.02,0.12-0.03,0.18c-0.06,0.35-0.14,0.69-0.25,1.02c-0.03,0.08-0.06,0.16-0.09,0.24c-0.02,0.04-0.12,0.28-0.04,0.11
		c-0.07,0.16-0.15,0.32-0.23,0.47c-0.07,0.13-0.15,0.27-0.23,0.4c-0.05,0.08-0.1,0.15-0.15,0.22c-0.03,0.04-0.19,0.26-0.08,0.11
		c-0.2,0.25-0.41,0.48-0.64,0.7c-0.11,0.11-0.23,0.21-0.35,0.31c-0.16,0.13,0.06-0.04-0.08,0.06c-0.07,0.05-0.14,0.1-0.21,0.15
		c-0.26,0.18-0.54,0.34-0.82,0.48c-0.06,0.03-0.12,0.06-0.19,0.09c-0.04,0.02-0.08,0.04-0.12,0.05c-0.09,0.04,0.12-0.05,0.03-0.01
		c-0.15,0.06-0.3,0.12-0.46,0.17c-0.3,0.1-0.61,0.18-0.92,0.23c-0.08,0.01-0.15,0.03-0.23,0.04c-0.11,0.02,0.13-0.01-0.06,0.01
		c-0.17,0.02-0.34,0.03-0.51,0.04c-0.31,0.01-0.61,0-0.92-0.03c-0.04,0-0.27-0.03-0.16-0.02c0.11,0.02-0.12-0.02-0.16-0.03
		c-0.16-0.03-0.32-0.06-0.47-0.1c-0.14-0.04-0.28-0.08-0.41-0.12c-0.07-0.02-0.14-0.05-0.22-0.08c-0.04-0.02-0.08-0.03-0.12-0.05
		c-0.14-0.05,0.13,0.06-0.02-0.01c-0.28-0.13-0.55-0.27-0.81-0.43c-0.13-0.08-0.26-0.17-0.38-0.27c0.13,0.09-0.01-0.01-0.06-0.05
		c-0.07-0.06-0.15-0.12-0.22-0.19c-0.14-0.13-0.27-0.26-0.39-0.4c-0.06-0.07-0.12-0.14-0.18-0.21c-0.02-0.03-0.05-0.06-0.07-0.09
		c0.11,0.14-0.01-0.01-0.02-0.03c-0.23-0.32-0.43-0.66-0.6-1.02c-0.02-0.05-0.04-0.09-0.06-0.14c-0.06-0.12,0.02,0.06-0.01-0.02
		c-0.04-0.1-0.08-0.21-0.12-0.32c-0.07-0.2-0.13-0.41-0.19-0.62c-0.06-0.22-0.11-0.44-0.15-0.66c-0.06-0.32-0.06-0.33-0.09-0.66
		c-0.04-0.39-0.31-0.72-0.72-0.72c-0.4,0-0.72,0.33-0.72,0.72c-0.01,0.2-0.02,0.4-0.03,0.59c-0.01,0.04-0.01,0.09-0.01,0.13
		c0,0-0.03,0.21-0.01,0.09l0,0c0.01-0.11-0.02,0.14-0.04,0.25c0,0.01,0,0.02,0,0.02c-0.07,0.35-0.16,0.7-0.27,1.03
		c-0.03,0.09-0.07,0.18-0.1,0.27c-0.01,0.03-0.06,0.12,0.01-0.02c-0.02,0.03-0.03,0.07-0.05,0.1c-0.08,0.17-0.16,0.33-0.25,0.49
		c-0.08,0.14-0.17,0.27-0.26,0.41c-0.04,0.06-0.08,0.11-0.12,0.17c-0.07,0.11,0.01-0.01,0.02-0.02c-0.03,0.04-0.07,0.08-0.1,0.12
		c-0.21,0.25-0.44,0.49-0.69,0.7c-0.05,0.04-0.1,0.09-0.16,0.13c-0.13,0.11,0.09-0.07,0.01-0.01c-0.03,0.03-0.07,0.05-0.1,0.08
		c-0.12,0.09-0.25,0.17-0.38,0.25s-0.26,0.16-0.4,0.22c-0.07,0.04-0.15,0.08-0.23,0.11c-0.05,0.02-0.29,0.12-0.1,0.05
		c-0.29,0.12-0.58,0.22-0.88,0.29c-0.14,0.04-0.28,0.07-0.42,0.09c-0.08,0.02-0.17,0.03-0.25,0.04c-0.2,0.03,0.1-0.01-0.11,0.02
		c-0.31,0.03-0.62,0.05-0.94,0.04c-0.14,0-0.29-0.01-0.43-0.02c-0.08-0.01-0.17-0.02-0.25-0.03c-0.04,0-0.14-0.02,0.04,0.01
		c-0.05-0.01-0.1-0.02-0.15-0.02c-0.31-0.05-0.61-0.12-0.91-0.21c-0.14-0.04-0.27-0.09-0.41-0.14c-0.04-0.02-0.3-0.12-0.11-0.04
		c-0.08-0.03-0.16-0.07-0.23-0.1c-0.28-0.13-0.55-0.29-0.81-0.46c-0.06-0.04-0.12-0.09-0.19-0.13c-0.17-0.12,0.06,0.05-0.08-0.06
		c-0.12-0.1-0.25-0.21-0.37-0.32c-0.11-0.11-0.22-0.22-0.32-0.33c-0.05-0.05-0.09-0.1-0.14-0.16c-0.03-0.03-0.06-0.07-0.08-0.1
		c-0.04-0.05,0.08,0.11-0.02-0.02c-0.22-0.3-0.41-0.61-0.57-0.95c-0.02-0.04-0.04-0.08-0.06-0.12c-0.01-0.02-0.08-0.19-0.04-0.09
		c0.04,0.11-0.03-0.07-0.03-0.07c-0.02-0.05-0.04-0.11-0.06-0.16c-0.07-0.18-0.12-0.37-0.17-0.56c-0.05-0.21-0.1-0.41-0.13-0.63
		c-0.01-0.04-0.01-0.08-0.02-0.12c-0.01-0.05-0.01-0.04,0.01,0.04c-0.01-0.03-0.01-0.06-0.01-0.09c-0.01-0.12-0.03-0.24-0.03-0.36
		c-0.03-0.49-0.02-0.97,0.02-1.46c0.06-0.74-1.01-0.96-1.35-0.37c-0.65,1.11-1.33,2.06-2.28,2.93c-0.45,0.42-0.69,0.61-1.19,0.92
		c-0.2,0.12-0.39,0.24-0.6,0.34c-0.09,0.05-0.18,0.09-0.27,0.13c-0.05,0.03-0.11,0.05-0.17,0.07c0.17-0.07-0.07,0.03-0.1,0.04
		c-0.41,0.16-0.83,0.28-1.26,0.35c-0.05,0.01-0.11,0.02-0.17,0.03c-0.19,0.03,0.16-0.01-0.03,0c-0.11,0.01-0.22,0.02-0.33,0.03
		c-0.22,0.02-0.43,0.02-0.65,0.01c-0.2-0.01-0.39-0.03-0.58-0.05c-0.18-0.02,0.16,0.03-0.02,0c-0.05-0.01-0.1-0.02-0.16-0.03
		c-0.1-0.02-0.21-0.04-0.31-0.06c-0.19-0.04-0.38-0.09-0.56-0.15c-0.1-0.03-0.2-0.07-0.3-0.1c-0.06-0.02-0.4-0.16-0.22-0.08
		c-0.37-0.17-0.73-0.35-1.07-0.57c-0.16-0.1-0.32-0.22-0.48-0.33c-0.03-0.02-0.17-0.13-0.02-0.02c-0.04-0.03-0.08-0.07-0.12-0.1
		c-0.08-0.07-0.16-0.13-0.24-0.21c-0.32-0.28-0.61-0.59-0.88-0.92c-0.03-0.04-0.2-0.26-0.08-0.1c-0.06-0.08-0.13-0.17-0.19-0.26
		c-0.12-0.17-0.24-0.35-0.35-0.53c-0.1-0.17-0.19-0.34-0.28-0.51c-0.05-0.09-0.09-0.19-0.14-0.29c-0.02-0.03-0.08-0.2-0.01-0.02
		c-0.02-0.06-0.05-0.11-0.07-0.17c-0.15-0.39-0.27-0.79-0.35-1.19c-0.02-0.1-0.04-0.21-0.06-0.31c-0.01-0.04-0.01-0.07-0.02-0.1
		c-0.03-0.18,0.01,0.17,0-0.02c-0.02-0.21-0.04-0.42-0.04-0.64c-0.01-0.21,0-0.43,0.02-0.64c0.01-0.09,0.02-0.18,0.03-0.27
		c0.01-0.04,0.04-0.22,0-0.02c0.01-0.07,0.02-0.14,0.04-0.22c0.09-0.48,0.23-0.95,0.41-1.4c-0.07,0.16,0.07-0.14,0.09-0.2
		c0.06-0.12,0.12-0.25,0.19-0.37c0.13-0.23,0.27-0.46,0.43-0.68c0.04-0.05,0.07-0.1,0.11-0.15c0.05-0.07,0.05-0.07,0-0.01
		c0.03-0.03,0.05-0.07,0.08-0.1c0.08-0.1,0.17-0.2,0.25-0.3c0.2-0.22,0.4-0.43,0.62-0.64c0.52-0.48,0.92-0.78,1.53-1.17
		c0.6-0.38,0.37-1.35-0.37-1.35c-0.32,0-0.64-0.01-0.96-0.03c-0.15-0.01-0.29-0.02-0.44-0.04c-0.08-0.01-0.15-0.02-0.23-0.03
		c-0.09-0.01,0.02,0,0.03,0.01c-0.04-0.01-0.09-0.01-0.13-0.02c-0.55-0.08-1.1-0.21-1.63-0.38c-0.12-0.04-0.24-0.08-0.35-0.12
		c-0.06-0.02-0.12-0.05-0.18-0.07s-0.19-0.08-0.06-0.02c-0.22-0.1-0.44-0.2-0.66-0.32c-0.21-0.11-0.42-0.24-0.62-0.38
		c-0.09-0.06-0.18-0.12-0.27-0.19c-0.07-0.05-0.1-0.08-0.01-0.01c-0.05-0.04-0.1-0.08-0.16-0.12c-0.33-0.28-0.64-0.58-0.92-0.92
		c-0.04-0.04-0.07-0.09-0.1-0.13c-0.03-0.03,0.08,0.12,0,0c-0.07-0.09-0.13-0.19-0.2-0.28c-0.11-0.17-0.22-0.35-0.32-0.53
		s-0.18-0.37-0.27-0.55c0.09,0.19-0.03-0.07-0.05-0.14c-0.04-0.1-0.07-0.2-0.1-0.3c-0.13-0.39-0.21-0.8-0.28-1.21
		c-0.02-0.13,0.02,0.15,0,0.02c-0.01-0.05-0.01-0.1-0.02-0.16c-0.01-0.1-0.02-0.21-0.03-0.31c-0.01-0.2-0.02-0.4-0.01-0.61
		c0.01-0.2,0.02-0.4,0.04-0.61c0.01-0.08,0.05-0.36,0.01-0.14c0.02-0.1,0.03-0.21,0.05-0.31c0.07-0.4,0.18-0.8,0.32-1.19
		c0.03-0.09,0.07-0.18,0.1-0.27c0.02-0.04,0.03-0.08,0.05-0.12c-0.08,0.2-0.01,0.02,0.02-0.03c0.08-0.18,0.17-0.36,0.27-0.54
		c0.1-0.18,0.21-0.36,0.33-0.54c0.05-0.08,0.11-0.16,0.17-0.24c0.03-0.04,0.05-0.07,0.08-0.11c0.06-0.08-0.09,0.11,0.03-0.03
		c0.26-0.32,0.54-0.61,0.85-0.88c0.07-0.07,0.15-0.13,0.23-0.19c0.14-0.11-0.09,0.06,0.02-0.01c0.04-0.03,0.09-0.06,0.13-0.09
		c0.18-0.12,0.36-0.24,0.55-0.35c0.18-0.11,0.37-0.2,0.57-0.29c0.04-0.02,0.09-0.04,0.13-0.06c-0.19,0.08-0.02,0.01,0.03-0.01
		c0.11-0.04,0.21-0.08,0.32-0.12c0.21-0.07,0.43-0.13,0.65-0.18c0.11-0.03,0.22-0.05,0.32-0.07c0.06-0.01,0.12-0.02,0.18-0.03
		c0.05-0.01,0.27-0.04,0.07-0.01c0.49-0.06,0.99-0.08,1.48-0.05c0.13,0.01,0.25,0.02,0.38,0.03c0.07,0.01,0.14,0.01,0.21,0.02
		c0.03,0,0.06,0.01,0.09,0.01c0.11,0.01-0.12-0.02-0.01,0c0.28,0.04,0.55,0.09,0.83,0.15c0.61,0.14,1.21,0.32,1.79,0.55
		c0.07,0.03,0.14,0.05,0.2,0.08c0.03,0.01,0.22,0.09,0.13,0.06c0.16,0.07,0.33,0.14,0.49,0.22c0.36,0.17,0.78,0.1,0.99-0.26
		C23.82,62.24,23.73,61.72,23.38,61.56z"/>
	<path class="st0" d="M32.63,75.91c-0.2-0.29-0.38-0.58-0.53-0.9c-0.03-0.07-0.06-0.13-0.09-0.2c-0.06-0.12-0.01-0.02,0,0.01
		c-0.02-0.04-0.03-0.07-0.04-0.11c-0.05-0.14-0.1-0.29-0.14-0.44c-0.04-0.13-0.07-0.27-0.09-0.4c-0.01-0.07-0.03-0.19-0.01-0.04
		c-0.01-0.08-0.02-0.16-0.02-0.23c-0.01-0.12-0.01-0.25-0.01-0.38c0-0.06,0.01-0.11,0.01-0.17c0.01-0.05,0.04-0.29,0-0.07
		c0.04-0.24,0.09-0.48,0.18-0.71c0.02-0.05,0.04-0.1,0.06-0.15c-0.06,0.15-0.02,0.04,0.02-0.04c0.05-0.11,0.11-0.22,0.18-0.32
		c0.06-0.09,0.12-0.18,0.18-0.27c0.11-0.16-0.05,0.05,0.03-0.04c0.04-0.05,0.08-0.09,0.12-0.14c0.17-0.19,0.35-0.35,0.54-0.51
		c0.09-0.08-0.13,0.09,0.02-0.02c0.05-0.03,0.09-0.06,0.13-0.09c0.1-0.07,0.21-0.14,0.32-0.2c0.1-0.06,0.21-0.11,0.31-0.17
		c0.05-0.03,0.1-0.05,0.15-0.07c0.18-0.09-0.09,0.03,0.07-0.03c0.23-0.08,0.46-0.16,0.7-0.22c0.12-0.03,0.23-0.05,0.35-0.07
		c0.1-0.02,0.16-0.02,0.02-0.01c0.07-0.01,0.14-0.02,0.21-0.02c0.25-0.02,0.49-0.02,0.74-0.01c0.06,0,0.11,0.01,0.17,0.02
		c0.03,0,0.06,0.01,0.09,0.01c0.1,0.01-0.15-0.03-0.05-0.01c0.12,0.02,0.25,0.04,0.38,0.07c0.12,0.03,0.23,0.06,0.35,0.1
		c0.05,0.02,0.11,0.04,0.16,0.06c0.03,0.01,0.06,0.02,0.09,0.04c0.09,0.03-0.16-0.08-0.02-0.01c0.22,0.11,0.44,0.22,0.64,0.36
		c0.03,0.02,0.21,0.15,0.13,0.09c-0.07-0.06,0.09,0.08,0.12,0.1c0.11,0.1,0.22,0.2,0.32,0.31c0.05,0.06,0.11,0.12,0.16,0.18
		c0.04,0.05,0.14,0.19,0.06,0.07c0.1,0.14,0.19,0.27,0.28,0.42c0.09,0.14,0.16,0.29,0.23,0.44c0.02,0.04,0.03,0.07,0.05,0.11
		c0.05,0.1-0.06-0.16,0.01,0.03c0.03,0.08,0.06,0.16,0.09,0.24c0.14,0.39,0.23,0.79,0.31,1.2c0.07,0.39,0.54,0.6,0.89,0.51
		c0.41-0.11,0.57-0.5,0.51-0.89c-0.12-0.74-0.17-1.74-0.07-2.6c0.01-0.05,0.01-0.11,0.02-0.16c0,0.03-0.02,0.14,0,0
		c0.02-0.09,0.03-0.19,0.05-0.28c0.04-0.19,0.08-0.37,0.12-0.56c0.05-0.17,0.1-0.33,0.15-0.49c0.03-0.08,0.06-0.16,0.09-0.23
		c0.02-0.04,0.07-0.16,0,0c0.02-0.05,0.04-0.1,0.07-0.15c0.13-0.28,0.28-0.55,0.46-0.81c0.05-0.07,0.1-0.13,0.14-0.2
		c-0.09,0.13-0.01,0.01,0.04-0.05c0.1-0.12,0.21-0.24,0.33-0.35c0.1-0.1,0.2-0.19,0.31-0.28c0.06-0.05,0.16-0.12,0.04-0.03
		c0.07-0.05,0.13-0.1,0.21-0.14c0.23-0.16,0.48-0.28,0.73-0.4c0.14-0.07-0.12,0.05-0.03,0.01c0.04-0.01,0.07-0.03,0.1-0.04
		c0.06-0.02,0.11-0.04,0.17-0.06c0.14-0.05,0.28-0.09,0.42-0.12c0.13-0.03,0.26-0.05,0.39-0.07c-0.15,0.03-0.07,0.01,0.03,0
		c0.08-0.01,0.16-0.01,0.24-0.02c0.27-0.01,0.54,0.01,0.81,0.03c-0.23-0.02-0.01,0,0.05,0.01c0.07,0.01,0.13,0.03,0.2,0.04
		c0.14,0.03,0.29,0.07,0.43,0.11c0.12,0.04,0.24,0.08,0.36,0.13c0.1,0.04-0.17-0.08-0.03-0.01c0.03,0.01,0.06,0.03,0.08,0.04
		c0.07,0.03,0.14,0.07,0.2,0.1c0.12,0.06,0.24,0.13,0.36,0.21c0.07,0.04,0.13,0.08,0.19,0.13c0.05,0.03,0.24,0.19,0.08,0.05
		c0.23,0.19,0.45,0.39,0.65,0.61c0.05,0.06,0.1,0.11,0.14,0.17c0.02,0.03,0.04,0.05,0.06,0.08c0.11,0.13-0.07-0.09-0.01-0.01
		c0.1,0.13,0.19,0.26,0.27,0.4c0.1,0.16,0.19,0.32,0.27,0.49c0.05,0.09,0.09,0.18,0.13,0.27c0.02,0.03,0.05,0.13-0.01-0.02
		c0.02,0.05,0.04,0.1,0.06,0.16c0.15,0.39,0.26,0.79,0.34,1.2c0.02,0.1,0.04,0.21,0.05,0.31c0.01,0.04,0.01,0.08,0.02,0.13
		c-0.02-0.16,0,0.03,0.01,0.07c0.03,0.25,0.04,0.5,0.05,0.75c0.02,0.52-0.01,1.04-0.07,1.56c-0.08,0.7,1.08,1.02,1.35,0.37
		c0.12-0.27,0.25-0.54,0.4-0.8c0.07-0.12,0.15-0.24,0.23-0.35c0.04-0.06,0.08-0.11,0.12-0.17c-0.08,0.1,0.03-0.04,0.05-0.06
		c0.17-0.2,0.34-0.38,0.54-0.54c0.05-0.04,0.09-0.08,0.14-0.12c-0.13,0.1,0.03-0.02,0.05-0.03c0.1-0.07,0.2-0.13,0.3-0.2
		c0.1-0.06,0.2-0.12,0.31-0.17c0.05-0.03,0.11-0.05,0.16-0.07c0.17-0.08-0.14,0.04,0.04-0.02c0.22-0.07,0.43-0.15,0.66-0.2
		c0.11-0.03,0.22-0.04,0.33-0.06c-0.2,0.03,0.14-0.01,0.2-0.01c0.22-0.01,0.45-0.01,0.67,0.01c0.06,0.01,0.11,0.01,0.17,0.02
		c0.19,0.02-0.16-0.03,0.03,0.01c0.11,0.02,0.22,0.04,0.33,0.06c0.22,0.05,0.43,0.11,0.64,0.19c0.05,0.02,0.1,0.04,0.16,0.06
		c-0.17-0.07,0,0,0.03,0.02c0.1,0.05,0.2,0.1,0.3,0.15c0.2,0.11,0.38,0.23,0.56,0.36c0.16,0.1-0.11-0.1,0.03,0.02
		c0.04,0.04,0.09,0.07,0.13,0.11c0.08,0.07,0.17,0.15,0.24,0.22c0.07,0.07,0.13,0.13,0.19,0.2c0.04,0.04,0.07,0.08,0.11,0.12
		c0.13,0.15-0.01-0.03,0.06,0.07c0.11,0.17,0.23,0.34,0.32,0.52c0.05,0.1,0.1,0.2,0.14,0.3c-0.07-0.17,0,0.01,0.01,0.04
		c0.02,0.07,0.05,0.14,0.07,0.22c0.04,0.13,0.07,0.26,0.1,0.39c0.01,0.04,0.02,0.08,0.02,0.11c0.01,0.04,0.01,0.08,0.02,0.12
		c-0.01-0.1-0.01-0.1-0.01-0.02c0.02,0.29,0.03,0.57,0,0.86c0,0.02-0.03,0.23-0.01,0.06c-0.01,0.07-0.02,0.13-0.03,0.2
		c-0.03,0.16-0.07,0.31-0.11,0.47c-0.1,0.36-0.19,0.58-0.33,0.86c-0.17,0.35-0.1,0.78,0.26,0.99c0.32,0.19,0.82,0.09,0.99-0.26
		c0.56-1.18,0.84-2.46,0.58-3.75c-0.21-1.05-0.8-2.03-1.6-2.73c-1.68-1.46-4.1-1.87-6.13-0.92c-1.05,0.49-1.88,1.36-2.43,2.37
		c-0.18,0.32,0.01,0.71,0.37,0.8l0,0c0.36,0.1,0.72-0.15,0.74-0.52c0.08-1.57-0.16-3.17-0.9-4.57c-0.67-1.26-1.75-2.25-3.07-2.79
		c-2.58-1.04-5.52,0.11-6.87,2.5c-0.89,1.58-1.05,3.41-0.88,5.19c0.04,0.43,0.46,0.7,0.88,0.58l0,0c0.35-0.1,0.58-0.45,0.49-0.81
		c-0.3-1.16-0.88-2.28-1.82-3.06c-0.96-0.79-2.15-1.21-3.39-1.19c-2.3,0.03-4.7,1.48-5.28,3.8c-0.38,1.55,0.12,3.12,1.01,4.4
		c0.22,0.32,0.64,0.47,0.99,0.26C32.69,76.71,32.85,76.23,32.63,75.91z"/>
</g>
<path class="st1" d="M278.53,357.64c1.5,2.94,3.83,7.28,6.35,9.63c1.27,1.18,2.43,1.71,3.44,1.55s2.21-1.05,3.43-3.54l0,0
	c4.01-8.14,7.19-17.17,6.25-26.24c-0.07-0.65-0.22-1.33-0.48-1.85c-0.26-0.51-0.57-0.77-0.94-0.83c-0.32-0.06-0.66,0.05-1.06,0.34
	c-0.4,0.3-0.77,0.74-1.1,1.22c-3.1,4.41-5.19,9.56-6.04,14.92l-1.48,0.01c-0.9-5.2-3.37-10.12-6.98-13.91l0,0
	c-0.72-0.76-1.39-1.31-2.12-1.38l0,0c-0.77-0.08-1.43,0.33-1.98,1.2c-0.55,0.87-0.89,2.07-0.97,3.15 M278.53,357.64
	c-2.5-4.89-4.08-10.33-3.68-15.73"/>
<path class="st2" d="M9.33,135.53c-1.6,0.52-2.68,1.97-3.35,4.49C5.63,141.32,5.5,145,5.73,147c0.59,5.13,2.62,10.82,5.34,14.93
	l1.04,1.59l-0.94,1.03c-3.65,4.05-5.85,8.71-6.53,13.87c-1.23,9.22,4.55,17.77,14.19,20.98c6.69,2.23,13.83,1.8,19.8-1.21
	c2.19-1.1,3.78-2.25,5.5-3.97c2.75-2.75,4.51-6.05,5.23-9.78c1.24-6.5-1.42-14.8-6.5-20.3l-0.73-0.79l0.95-1.45
	c2.24-3.41,3.98-7.77,4.87-12.19c0.49-2.44,0.61-3.84,0.55-6.38c-0.07-2.61-0.29-3.7-1.04-5.27c-0.57-1.18-1.21-1.89-2.09-2.33
	c-0.61-0.3-0.89-0.36-1.76-0.36c-0.95,0-1.11,0.05-2.11,0.53c-0.59,0.29-1.45,0.85-1.91,1.24c-3.9,3.25-7.56,11.01-8.48,17.92
	c-0.32,2.46-0.27,2.27-0.74,2.19c-0.22-0.05-1.16-0.12-2.06-0.16c-1.5-0.07-2.77,0.01-4.43,0.29c-0.53,0.09-0.44,0.39-0.81-2.38
	c-0.79-5.79-3.56-12.39-6.83-16.22c-1.73-2.03-3.77-3.32-5.42-3.42C10.2,135.37,9.69,135.41,9.33,135.53z M12.05,137.19
	c3.38,1.65,6.84,7.15,8.75,13.88c0.56,1.98,1.01,4.48,1.06,5.86l0.03,0.94l-0.71,0.23c-0.38,0.13-0.8,0.27-0.93,0.32
	c-0.2,0.08-0.22,0-0.22-0.86c0-3.79-2.2-9.05-4.58-10.93c-2.38-1.88-4.44-0.8-4.89,2.54c-0.45,3.42,1.21,8.77,3.58,11.49l0.58,0.66
	l-0.44,0.37c-0.24,0.21-0.59,0.49-0.79,0.63l-0.35,0.24l-0.59-0.82c-4.2-5.9-6.67-16-5.23-21.49
	C8.13,137.15,9.79,136.07,12.05,137.19z M44.59,136.92c1.86,0.78,2.9,4.41,2.53,8.82c-0.36,4.28-1.67,8.88-3.65,12.81
	c-0.75,1.48-2.2,3.78-2.39,3.78c-0.06,0-0.41-0.24-0.78-0.55c-0.36-0.3-0.68-0.56-0.71-0.57c-0.02-0.01,0.19-0.3,0.48-0.64
	c2.33-2.77,3.94-8.02,3.49-11.38c-0.45-3.35-2.51-4.43-4.89-2.55c-2.34,1.84-4.58,7.12-4.58,10.79c0,0.73-0.02,0.82-0.22,0.74
	c-0.13-0.05-0.56-0.17-0.97-0.29l-0.75-0.21l0.08-0.84c0.15-1.57,0.6-3.99,1.03-5.57c1.8-6.58,5.88-13.06,8.98-14.27
	C42.94,136.72,44.02,136.69,44.59,136.92z M14.13,147.36c1.15,0.7,2.51,2.66,3.35,4.81c0.78,1.98,1.03,3.19,1.11,5.16l0.07,1.73
	l-0.63,0.3c-0.34,0.16-0.96,0.51-1.38,0.75l-0.75,0.46l-0.63-0.67c-1.23-1.35-2.44-3.87-3.05-6.4c-0.35-1.45-0.43-4.33-0.14-5.15
	C12.51,147.19,13.25,146.83,14.13,147.36z M41.53,147.49c0.55,0.65,0.66,1.21,0.65,3.07c0,1.43-0.07,1.96-0.35,3.09
	c-0.6,2.42-1.59,4.56-2.78,5.99l-0.63,0.75l-0.94-0.53c-0.51-0.29-1.18-0.64-1.47-0.78l-0.53-0.24v-1.21c0-2.03,0.6-4.43,1.62-6.5
	c0.56-1.11,1.68-2.83,2.16-3.28C40.16,147.02,41.02,146.88,41.53,147.49z M31.2,158.85c8.66,1.94,15.44,9.78,16.88,19.51
	c0.26,1.71,0.19,4.6-0.13,6.09c-1.3,6.04-5.58,10.9-11.69,13.32c-7.16,2.82-15.95,1.96-22.12-2.16c-4.29-2.87-6.96-6.68-7.98-11.46
	c-0.35-1.61-0.31-5.21,0.07-6.99c2.02-9.41,9.31-16.81,18.11-18.41C26.16,158.41,29.48,158.47,31.2,158.85z M17.8,172.63
	c-1.02,0.26-1.48,0.49-1.96,1c-0.74,0.8-1,1.88-0.56,2.29c0.49,0.44,1.17,0.09,1.17-0.6c0-0.8,1.23-1.47,2.38-1.3
	c0.71,0.1,1.46,0.74,1.46,1.24c0,0.73,0.74,1.13,1.22,0.66c0.31-0.31,0.16-1.37-0.3-2.02C20.61,173.04,18.83,172.39,17.8,172.63z
	 M34.92,172.67c-0.6,0.16-1.37,0.6-1.75,1c-0.67,0.71-0.95,1.87-0.55,2.27c0.46,0.46,1.21,0.05,1.21-0.67c0-0.5,0.74-1.14,1.46-1.24
	c1.16-0.17,2.38,0.5,2.38,1.32c0,0.68,0.75,1.04,1.19,0.57c0.63-0.7-0.29-2.4-1.59-2.96C36.54,172.63,35.51,172.52,34.92,172.67z
	 M26.29,181.01c-3,0.28-4,1.67-2.86,4c0.52,1.08,1.22,1.79,2.18,2.27l0.84,0.42l-0.06,1.42c-0.03,1.02-0.12,1.54-0.29,1.86
	c-1.24,2.42-4.74,1.93-5.16-0.73c-0.13-0.78-0.31-1.06-0.73-1.06c-0.53,0-0.73,0.35-0.66,1.11c0.15,1.45,1.22,2.84,2.59,3.35
	c0.61,0.23,0.94,0.28,1.72,0.23c1.13-0.07,1.84-0.38,2.64-1.16l0.55-0.52l0.55,0.52c0.81,0.78,1.52,1.09,2.64,1.16
	c0.78,0.05,1.1,0,1.72-0.23c1.37-0.52,2.44-1.9,2.59-3.35c0.08-0.77-0.13-1.11-0.66-1.11c-0.41,0-0.6,0.28-0.73,1.06
	c-0.28,1.8-2.3,2.85-3.9,2.03c-1.13-0.58-1.48-1.3-1.55-3.17l-0.06-1.43l0.75-0.35c1.93-0.88,3.32-3.7,2.48-5.03
	C30.28,181.32,28.46,180.81,26.29,181.01z M29.01,182.61c0.34,0.12,0.67,0.32,0.74,0.46c0.3,0.57-0.77,2.45-1.67,2.95
	c-0.34,0.19-0.63,0.23-1.18,0.2c-0.93-0.06-1.51-0.5-2.09-1.58c-0.59-1.1-0.61-1.25-0.28-1.65
	C25.12,182.31,27.55,182.1,29.01,182.61z"/>
<path class="st1" d="M312.09,306.05L312.09,306.05c-1.03-1.06-2.43-1.89-3.86-2.19c-1.41-0.3-2.81-0.08-3.96,0.89
	c-1.27,1.07-1.95,2.68-2.22,4.49c-0.27,1.81-0.11,3.76,0.24,5.39c0.86,3.96,2.98,7.6,5.25,11.09l0.02,0.03l0.02,0.03l0.93,1.81
	c0.26,0.28,0.82,0.84,1.42,1.27c0.32,0.24,0.61,0.4,0.84,0.48c0.1,0.04,0.16,0.04,0.19,0.04c1.09-0.81,2.19-1.61,3.28-2.4
	c2.69-1.94,5.36-3.87,7.83-6.02h0c2.65-2.31,5.04-5.35,4.55-8.66l0,0c-0.2-1.34-1.12-2.64-2.43-3.57c-1.31-0.93-2.89-1.4-4.27-1.2
	l0,0c-2.02,0.28-3.35,1.67-4.73,3.41l-1.13,1.43l-0.21-1.81C313.66,308.76,313.18,307.18,312.09,306.05z M310.98,329.39
	C310.98,329.39,310.98,329.39,310.98,329.39C310.98,329.39,310.98,329.39,310.98,329.39z"/>
<path class="st1" d="M24.86,331.66L24.86,331.66c-1.03-1.06-2.43-1.89-3.86-2.19c-1.41-0.3-2.81-0.08-3.96,0.89
	c-1.27,1.07-1.95,2.68-2.22,4.49c-0.27,1.81-0.11,3.76,0.24,5.39c0.85,3.96,2.98,7.6,5.25,11.09l0.02,0.03l0.02,0.03l0.93,1.81
	c0.26,0.28,0.82,0.84,1.42,1.27c0.32,0.24,0.61,0.4,0.84,0.48c0.1,0.04,0.16,0.04,0.19,0.04c1.09-0.81,2.19-1.61,3.28-2.4
	c2.69-1.94,5.36-3.87,7.83-6.02h0c2.65-2.31,5.04-5.35,4.55-8.66l0,0c-0.2-1.34-1.12-2.64-2.43-3.57c-1.31-0.93-2.89-1.4-4.27-1.2
	l0,0c-2.02,0.28-3.35,1.67-4.73,3.41l-1.13,1.43l-0.21-1.81C26.43,334.37,25.95,332.78,24.86,331.66z M23.75,355
	C23.75,355,23.75,355,23.75,355C23.75,355,23.75,355,23.75,355z"/>
<path class="st2" d="M288.76,192.46c-1.6,0.52-2.68,1.97-3.35,4.49c-0.35,1.3-0.48,4.99-0.24,6.98c0.59,5.13,2.62,10.82,5.34,14.93
	l1.04,1.59l-0.94,1.03c-3.65,4.05-5.85,8.71-6.53,13.87c-1.23,9.22,4.55,17.77,14.19,20.98c6.69,2.23,13.83,1.8,19.8-1.21
	c2.19-1.1,3.78-2.25,5.5-3.97c2.75-2.75,4.51-6.05,5.23-9.78c1.24-6.5-1.42-14.8-6.5-20.3l-0.73-0.79l0.95-1.45
	c2.24-3.41,3.98-7.77,4.87-12.19c0.49-2.44,0.61-3.84,0.55-6.38c-0.07-2.61-0.29-3.7-1.04-5.27c-0.57-1.18-1.21-1.89-2.09-2.33
	c-0.61-0.3-0.89-0.36-1.76-0.36c-0.95,0-1.11,0.05-2.11,0.53c-0.59,0.29-1.45,0.85-1.91,1.24c-3.9,3.25-7.56,11.01-8.48,17.92
	c-0.32,2.46-0.27,2.27-0.74,2.19c-0.22-0.05-1.16-0.12-2.06-0.16c-1.5-0.07-2.77,0.01-4.43,0.29c-0.53,0.09-0.44,0.39-0.81-2.38
	c-0.79-5.79-3.56-12.39-6.83-16.22c-1.73-2.03-3.77-3.32-5.42-3.42C289.63,192.3,289.12,192.34,288.76,192.46z M291.49,194.12
	c3.38,1.65,6.84,7.15,8.75,13.88c0.56,1.98,1.01,4.48,1.06,5.86l0.03,0.94l-0.71,0.23c-0.38,0.13-0.8,0.27-0.93,0.32
	c-0.2,0.08-0.22,0-0.22-0.86c0-3.79-2.2-9.05-4.58-10.93c-2.38-1.88-4.44-0.8-4.89,2.54c-0.45,3.42,1.21,8.77,3.58,11.49l0.58,0.66
	l-0.44,0.37c-0.24,0.21-0.59,0.49-0.79,0.63l-0.35,0.24l-0.59-0.82c-4.2-5.9-6.67-16-5.23-21.49
	C287.57,194.08,289.23,193,291.49,194.12z M324.02,193.85c1.86,0.78,2.9,4.41,2.53,8.82c-0.36,4.28-1.67,8.88-3.65,12.81
	c-0.75,1.48-2.2,3.78-2.39,3.78c-0.06,0-0.41-0.24-0.78-0.55c-0.36-0.3-0.68-0.56-0.71-0.57c-0.02-0.01,0.19-0.3,0.48-0.64
	c2.33-2.77,3.94-8.02,3.49-11.38c-0.45-3.35-2.51-4.43-4.89-2.55c-2.34,1.84-4.58,7.12-4.58,10.79c0,0.73-0.02,0.82-0.22,0.74
	c-0.13-0.05-0.56-0.17-0.97-0.29l-0.75-0.21l0.08-0.84c0.15-1.57,0.6-3.99,1.03-5.57c1.8-6.58,5.88-13.06,8.98-14.27
	C322.38,193.65,323.46,193.62,324.02,193.85z M293.57,204.29c1.15,0.7,2.51,2.66,3.35,4.81c0.78,1.98,1.03,3.19,1.11,5.16l0.07,1.73
	l-0.63,0.3c-0.34,0.16-0.96,0.51-1.38,0.75l-0.75,0.46l-0.63-0.67c-1.23-1.35-2.44-3.87-3.05-6.4c-0.35-1.45-0.43-4.33-0.14-5.15
	C291.94,204.12,292.68,203.76,293.57,204.29z M320.96,204.42c0.55,0.65,0.66,1.21,0.65,3.07c0,1.43-0.07,1.96-0.35,3.09
	c-0.6,2.42-1.59,4.56-2.78,5.99l-0.63,0.75l-0.94-0.53c-0.51-0.29-1.18-0.64-1.47-0.78l-0.53-0.24v-1.21c0-2.03,0.6-4.43,1.62-6.5
	c0.56-1.11,1.68-2.83,2.16-3.28C319.59,203.95,320.45,203.81,320.96,204.42z M310.64,215.79c8.66,1.94,15.44,9.78,16.88,19.51
	c0.26,1.71,0.19,4.6-0.13,6.09c-1.3,6.04-5.58,10.9-11.69,13.32c-7.16,2.82-15.95,1.96-22.12-2.16c-4.29-2.86-6.96-6.68-7.98-11.46
	c-0.35-1.61-0.31-5.21,0.07-6.99c2.02-9.41,9.31-16.81,18.11-18.41C305.59,215.34,308.91,215.4,310.64,215.79z M297.23,229.57
	c-1.02,0.26-1.48,0.49-1.96,1c-0.74,0.8-1,1.88-0.56,2.29c0.49,0.44,1.17,0.09,1.17-0.6c0-0.8,1.23-1.47,2.38-1.3
	c0.71,0.1,1.46,0.74,1.46,1.24c0,0.73,0.74,1.13,1.22,0.66c0.31-0.31,0.16-1.37-0.3-2.02C300.05,229.97,298.26,229.32,297.23,229.57
	z M314.35,229.6c-0.6,0.16-1.37,0.6-1.75,1c-0.67,0.71-0.95,1.87-0.55,2.27c0.46,0.46,1.21,0.05,1.21-0.67
	c0-0.5,0.74-1.14,1.46-1.24c1.16-0.17,2.38,0.5,2.38,1.32c0,0.68,0.75,1.04,1.19,0.57c0.63-0.7-0.29-2.4-1.59-2.96
	C315.98,229.57,314.94,229.45,314.35,229.6z M305.72,237.94c-3,0.28-4,1.67-2.86,4c0.52,1.08,1.22,1.79,2.18,2.27l0.84,0.42
	l-0.06,1.42c-0.03,1.02-0.12,1.54-0.29,1.86c-1.24,2.42-4.74,1.93-5.16-0.73c-0.13-0.78-0.31-1.06-0.73-1.06
	c-0.53,0-0.73,0.35-0.66,1.11c0.15,1.45,1.22,2.84,2.59,3.35c0.61,0.23,0.94,0.28,1.72,0.23c1.13-0.07,1.84-0.38,2.64-1.16
	l0.55-0.52l0.55,0.52c0.81,0.78,1.52,1.09,2.64,1.16c0.78,0.05,1.1,0,1.72-0.23c1.37-0.52,2.44-1.9,2.59-3.35
	c0.08-0.77-0.13-1.11-0.66-1.11c-0.41,0-0.6,0.28-0.73,1.06c-0.28,1.8-2.3,2.85-3.9,2.03c-1.13-0.58-1.48-1.3-1.55-3.17l-0.06-1.43
	l0.75-0.35c1.93-0.88,3.32-3.7,2.48-5.03C309.71,238.25,307.89,237.74,305.72,237.94z M308.45,239.54c0.34,0.12,0.67,0.32,0.74,0.46
	c0.3,0.57-0.77,2.45-1.67,2.95c-0.34,0.19-0.63,0.23-1.18,0.2c-0.93-0.06-1.51-0.5-2.09-1.58c-0.59-1.1-0.61-1.25-0.28-1.65
	C304.55,239.24,306.99,239.03,308.45,239.54z"/>
<path class="st3" d="M53.68,234.39L53.68,234.39c-1.42-1.47-3.35-2.61-5.32-3.02c-1.95-0.41-3.88-0.1-5.46,1.23
	c-1.74,1.48-2.69,3.69-3.05,6.2c-0.37,2.5-0.15,5.18,0.34,7.43c1.18,5.46,4.11,10.47,7.24,15.29l0.03,0.04l0.02,0.05l1.28,2.5
	c0.36,0.39,1.14,1.16,1.95,1.75c0.45,0.33,0.85,0.55,1.15,0.66c0.14,0.05,0.22,0.06,0.26,0.06c1.5-1.12,3.02-2.21,4.53-3.3
	c3.71-2.68,7.39-5.34,10.79-8.3h0c3.65-3.18,6.95-7.37,6.27-11.94l0,0c-0.27-1.85-1.55-3.65-3.35-4.92
	c-1.8-1.28-3.98-1.93-5.88-1.66l0,0c-2.78,0.39-4.61,2.3-6.52,4.71l-1.55,1.97l-0.29-2.49C55.84,238.12,55.18,235.94,53.68,234.39z
	 M52.15,266.56C52.15,266.56,52.14,266.56,52.15,266.56C52.14,266.56,52.15,266.56,52.15,266.56z"/>
</svg>
