<?xml version="1.0" encoding="utf-8"?>
<!-- Generator: Adobe Illustrator 26.3.1, SVG Export Plug-In . SVG Version: 6.00 Build 0)  -->
<svg version="1.1" id="Layer_1" xmlns="http://www.w3.org/2000/svg" xmlns:xlink="http://www.w3.org/1999/xlink" x="0px" y="0px"
	 viewBox="0 0 318 288" style="enable-background:new 0 0 318 288;" xml:space="preserve">
<style type="text/css">
	.st0{fill-rule:evenodd;clip-rule:evenodd;fill:#8787C1;}
	.st1{fill:none;stroke:#8787C1;stroke-width:1.5;stroke-linecap:round;stroke-linejoin:round;}
	.st2{fill:#8787C1;}
</style>
<path class="st0" d="M43.78-0.07c-0.17,0.09-1.31,1.27-2.53,2.63l-2.22,2.47l-0.42-0.3c-0.74-0.54-1.74-1.08-2.53-1.38
	c-1.12-0.41-2.68-0.48-3.72-0.16l-0.74,0.23l-0.36-0.32c-0.61-0.54-1.12-0.4-1.72,0.46l-0.39,0.56L28.4,3.65
	c-1.92-1.16-4.04-1.8-6.19-1.88c-3.16-0.12-5.54,0.74-8.14,2.94c-1.24,1.05-2.33,2.37-3.78,4.55c-1.1,1.65-1.9,2.64-2.98,3.66
	c-1,0.95-1.61,1.35-2.27,1.49c-0.95,0.2-1.29,1.14-0.63,1.79l0.34,0.34l-0.3,0.4c-0.42,0.55-1.06,1.94-1.2,2.61
	c-0.17,0.8-0.14,2.41,0.05,3.27c0.09,0.41,0.35,1.2,0.57,1.76c0.22,0.56,0.4,1.19,0.4,1.4c0,0.58-0.34,1.21-0.93,1.76
	c-1.08,1-1.97,2.46-2.32,3.81c-0.22,0.87-0.2,2.5,0.04,3.53c0.38,1.58,1.24,3.3,2.45,4.88c0.33,0.43,0.88,1.15,1.22,1.6
	c1.68,2.21,2.49,4.3,2.23,5.75c-0.15,0.84-0.36,1.24-0.95,1.87c-0.41,0.44-0.54,0.65-0.54,0.9c0,0.48,0.37,0.75,0.94,0.67
	c0.97-0.13,3.06-1.15,4.5-2.18l0.78-0.57l0.21,0.33c0.11,0.18,0.41,0.45,0.65,0.59L13,49.19h14.26c15.54,0,14.69,0.03,15.41-0.6
	c1.39-1.22,1.27-4.45-0.28-7.55c-1.05-2.11-2.7-4.1-5.83-7.05c-2.29-2.16-3.12-3.08-3.65-4.05c-0.56-1.02-0.58-0.98,0.52-1.02
	c0.52-0.02,1.3-0.1,1.73-0.18c1.52-0.29,1.57-0.27,2.96,0.93c0.81,0.7,1.89,1.26,2.6,1.36c0.9,0.12,2.7-0.66,4.07-1.78
	c1.91-1.55,3.29-4.14,3.15-5.92c-0.09-1.16-0.93-2.17-2.41-2.92c-1.04-0.53-1.58-0.94-3.14-2.42l-1.27-1.2l1.07-0.01
	c1.44-0.01,2.43-0.23,3.55-0.79c1.54-0.76,2.77-2.09,3.42-3.69c0.32-0.8,0.32-1.26,0-1.63c-0.25-0.29-0.27-0.29-1.73-0.36
	c-1.6-0.07-2.14-0.21-3.27-0.81c-0.61-0.33-1.88-1.31-1.88-1.46c0-0.04,0.67-1.58,1.5-3.42c1.69-3.76,1.75-4.01,1.2-4.57
	C44.64-0.27,44.26-0.32,43.78-0.07z M43.41,2.44c-0.38,0.86-0.4,0.88-0.4,0.43c0-0.25,0.1-0.48,0.32-0.74
	c0.17-0.21,0.34-0.39,0.36-0.39S43.58,2.05,43.41,2.44z M24.46,3.33c0.51,0.14,1.28,0.41,1.7,0.59c1.01,0.43,2.38,1.23,2.37,1.38
	c0,0.07-0.12,0.48-0.25,0.91c-0.14,0.44-0.31,1.19-0.38,1.67l-0.13,0.88l-0.82,0.13c-3.41,0.52-6.84,2.49-9.13,5.23
	c-2.83,3.39-4.68,8.02-5.46,13.71c-0.28,2.03-0.06,2.74,1.23,4c0.9,0.88,1.36,1.69,1.73,3.06c0.2,0.72,0.23,1.1,0.23,2.85
	c0,1.91-0.01,2.07-0.28,2.96c-0.87,2.86-2.69,5.23-5.44,7.1c-0.76,0.52-1.86,1.14-2,1.14c-0.03,0,0.05-0.27,0.17-0.6
	c0.3-0.84,0.3-2.19,0-3.27l-0.23-0.8l0.41-0.37c1.65-1.5,2.88-3.85,3.21-6.15c0.21-1.45,0.04-2.09-0.58-2.09
	c-0.4,0-0.53,0.3-0.59,1.3C10.1,39,9.4,40.65,7.91,42.37c-0.31,0.36-0.6,0.65-0.64,0.65c-0.04,0-0.32-0.39-0.61-0.86
	c-0.29-0.47-0.93-1.37-1.42-1.99c-2.25-2.84-3.15-4.81-3.14-6.9c0-1,0.11-1.56,0.43-2.32c0.21-0.48,0.27-0.53,1.07-0.91
	c1.32-0.61,2.28-1.29,3.3-2.32c1.39-1.41,2.27-2.9,2.8-4.75c0.25-0.86,0.26-0.99,0.13-1.23c-0.19-0.34-0.7-0.41-0.93-0.14
	c-0.09,0.1-0.22,0.42-0.29,0.71c-0.2,0.84-0.71,2.02-1.22,2.85c-0.46,0.75-1.83,2.3-2.21,2.5c-0.16,0.09-0.15,0.04,0.05-0.4
	c0.17-0.38,0.22-0.69,0.22-1.32c0-0.72-0.05-0.95-0.39-1.73c-0.21-0.5-0.45-1.2-0.54-1.56c-0.18-0.75-0.2-2.31-0.05-2.99
	c0.14-0.62,0.63-1.63,1.02-2.1l0.32-0.38l0.46,0.2c0.25,0.11,0.83,0.26,1.28,0.32c1.44,0.21,3-0.23,4.55-1.27
	c1.17-0.79,2.09-1.65,3.12-2.88c1.27-1.53,1.79-2.34,1.71-2.66c-0.08-0.32-0.41-0.52-0.72-0.44c-0.13,0.03-0.58,0.53-1.1,1.23
	c-1.02,1.37-2.57,2.97-3.5,3.6c-2.06,1.4-4,1.59-5.63,0.56l-0.41-0.26l0.43-0.19c1.5-0.67,3.43-2.66,5.27-5.42
	c2.08-3.12,3.73-4.78,5.82-5.88c1.73-0.91,2.78-1.14,4.88-1.09C23.24,3.06,23.71,3.12,24.46,3.33z M41.99,4.59l0.19,0.58l-0.28,0.62
	c-0.15,0.34-0.31,0.62-0.35,0.62c-0.1,0-0.4-0.7-0.5-1.21c-0.09-0.41-0.07-0.46,0.27-0.86c0.2-0.23,0.39-0.4,0.42-0.37
	C41.77,3.99,41.89,4.28,41.99,4.59z M31.13,4.67c1.04,1.11,1.86,2.84,2.37,5c0.37,1.53,0.48,1.84,0.89,2.34
	c0.42,0.52,8.32,8.05,9.02,8.59c0.32,0.25,0.98,0.65,1.46,0.9c1.04,0.52,1.7,1.17,1.81,1.78c0.24,1.29-1.03,3.68-2.67,5.01
	c-0.69,0.56-1.93,1.25-2.62,1.46c-0.74,0.22-1.54-0.17-2.92-1.4c-0.37-0.33-0.85-0.68-1.08-0.79c-0.53-0.24-1.4-0.25-2.43-0.03
	c-1.04,0.22-2.85,0.22-3.76,0c-1.2-0.29-1.99-0.73-2.87-1.62c-0.63-0.63-0.89-0.99-1.24-1.72c-0.35-0.73-0.51-0.95-0.74-1.03
	c-0.25-0.09-0.32-0.07-0.54,0.19c-0.3,0.35-0.29,0.41,0.29,1.62c0.34,0.71,0.6,1.05,1.31,1.77c0.95,0.95,1.81,1.48,3.08,1.91
	l0.66,0.22l0.23,0.68c0.51,1.49,1.48,2.7,4.23,5.27c1.15,1.08,2.42,2.32,2.82,2.78c2.17,2.41,3.5,4.83,3.86,6.99
	c0.15,0.91,0.08,2.25-0.15,2.69c-0.35,0.68,0.82,0.63-14.85,0.63c-13.96,0-14.23,0-14.34-0.2c-0.21-0.39-0.11-0.66,0.5-1.35
	c1.4-1.58,2.26-3.03,2.84-4.79c0.49-1.48,0.62-2.49,0.55-4.38c-0.04-1.22-0.11-1.8-0.32-2.59c-0.42-1.61-0.88-2.47-1.89-3.48
	c-1.14-1.15-1.24-1.43-1.08-2.78c0.44-3.56,1.45-7.02,2.85-9.79c1.76-3.45,3.92-5.69,6.91-7.16c1.42-0.7,2.59-1.06,4.28-1.33
	c0.8-0.13,1.22-0.24,1.3-0.36c0.07-0.09,0.15-0.58,0.18-1.08c0.03-0.5,0.18-1.33,0.33-1.84c0.28-0.95,1.03-2.55,1.2-2.55
	C30.68,4.23,30.91,4.43,31.13,4.67z M35.55,4.49c0.74,0.25,1.81,0.82,2.39,1.28l0.25,0.2l-1.63,1.8c-0.9,0.99-1.67,1.81-1.71,1.83
	c-0.04,0.02-0.16-0.31-0.26-0.73c-0.35-1.44-1.28-3.54-1.89-4.25c-0.14-0.16-0.13-0.19,0.09-0.28C33.3,4.13,34.71,4.21,35.55,4.49z
	 M40.15,6.45c0.1,0.25,0.34,0.66,0.53,0.91l0.34,0.44l-0.43,0.93l-0.43,0.93l-0.33-0.46c-0.34-0.47-0.58-1.17-0.67-1.96
	c-0.05-0.4-0.01-0.49,0.31-0.86c0.2-0.22,0.39-0.41,0.43-0.41C39.93,5.99,40.04,6.2,40.15,6.45z M38.62,9.67
	c0.11,0.17,0.38,0.51,0.6,0.74l0.41,0.43L39.12,12l-0.5,1.15l-0.38-0.37c-0.71-0.69-1.32-2.13-1.32-3.11c0-0.38,0.07-0.51,0.53-1.02
	l0.53-0.59L38.2,8.7C38.32,9.07,38.51,9.5,38.62,9.67z M42.4,9.82c1.35,1.09,2.81,1.65,4.56,1.74c0.61,0.03,1.11,0.1,1.11,0.16
	c0,0.27-0.74,1.44-1.28,2.02c-0.72,0.77-1.87,1.4-3.01,1.63c-1.39,0.29-4.09,0.13-4.44-0.26c-0.16-0.17-0.08-0.38,1.09-3
	c0.69-1.55,1.28-2.81,1.3-2.81C41.75,9.31,42.05,9.54,42.4,9.82z M36.18,11.89c0.12,0.23,0.11,0.23-0.24-0.05
	c-0.21-0.16-0.45-0.41-0.54-0.54c-0.15-0.23-0.14-0.26,0.08-0.5l0.24-0.26l0.16,0.55C35.98,11.4,36.11,11.75,36.18,11.89z
	 M31.85,13.46c-0.11,0.07-0.15,0.29-0.15,0.8c0,0.84-0.11,0.89-0.56,0.26c-0.42-0.58-0.74-0.73-1.07-0.51
	c-0.44,0.29-0.42,0.55,0.07,1.25l0.19,0.27l-0.42,0.38c-0.32,0.29-0.42,0.46-0.42,0.71c0,0.69,0.62,0.79,1.26,0.21
	c0.68-0.62,1.42-0.82,2.1-0.56c0.15,0.06,0.59,0.41,0.97,0.78c0.38,0.37,0.76,0.67,0.84,0.67c0.08,0,0.25-0.07,0.38-0.16
	c0.37-0.26,0.3-0.7-0.19-1.23c-0.4-0.44-0.42-0.47-0.31-0.85c0.21-0.77,0.1-1.59-0.24-1.82c-0.2-0.14-0.54-0.08-0.72,0.11
	c-0.12,0.13-0.17,0.38-0.17,0.78c0,0.32-0.03,0.59-0.08,0.59c-0.21,0-0.31-0.2-0.37-0.71c-0.08-0.71-0.3-1.05-0.67-1.05
	C32.13,13.36,31.93,13.4,31.85,13.46z M42.59,22.59c-0.29,0.29-0.26,0.57,0.12,1.04c0.4,0.5,0.5,1.21,0.25,1.8
	c-0.21,0.51-0.21,0.72,0.02,0.93c0.25,0.22,0.67,0.22,0.87-0.01c0.29-0.33,0.52-1.23,0.47-1.87c-0.05-0.69-0.29-1.25-0.76-1.75
	C43.19,22.33,42.89,22.29,42.59,22.59z"/>
<path class="st1" d="M292.86,225.79c-0.95-0.93-1.9-1.67-2.97-1.78 M292.86,225.79c3.81,3.72,6.66,8.3,8.28,13.25l0.01,0.01
	c0.43,1.31,0.77,2.65,1.02,4.01l1.48-0.01 M303.65,243.05c0.81-4.74,2.45-9.34,4.83-13.57l0.01-0.01c0.95-1.7,2.02-3.34,3.2-4.91
	 M313.2,223.01c-0.55,0.39-1.07,0.96-1.51,1.55 M313.2,223.01l-1.51,1.55 M290.58,249.06c-3.32-6.06-5.42-12.8-4.89-19.5
	 M285.69,229.56c0.11-1.36,0.57-2.86,1.32-3.96c0.74-1.09,1.71-1.7,2.88-1.59 M301.15,239.05l-0.01-0.01 M308.49,229.47
	L308.49,229.47 M314.81,222.55c0.61,0.09,1.07,0.49,1.42,1.14c0.36,0.66,0.57,1.51,0.66,2.33c0.15,1.35,0.22,2.69,0.22,4.03
	c0,9.86-3.84,19.59-8.53,28.45c-1.62,3.07-3.26,4.26-4.73,4.48c-1.49,0.23-3.11-0.5-4.8-1.97c-3.38-2.93-6.48-8.33-8.47-11.95
	 M313.2,223.01c0.55-0.38,1.08-0.55,1.61-0.46"/>
<path class="st1" d="M296.5,17.05c-0.05,0.33-0.1,0.66-0.15,0.99 M311.74,10.93c2.19,5.58,0.82,12.11-2.42,17.38
	c-1.89,3.07-4.51,5.77-7.37,8.33c-1.43,1.28-2.92,2.51-4.4,3.74l-0.2,0.17c-1.23,1.02-2.46,2.04-3.64,3.06
	c-1.02-0.97-2.04-1.92-3.06-2.87c-2.02-1.88-4.01-3.73-5.86-5.72c-2.91-3.13-5.36-6.51-6.73-10.56 M279.52,7.41
	c1.29-1.14,3.07-1.56,4.93-1.36c1.85,0.2,3.71,1.01,5.09,2.22 M276.61,16.23c-0.06-3.57,0.72-6.9,2.91-8.82 M278.06,24.46
	c-0.75-2.21-1.39-5.24-1.45-8.23 M289.54,8.27c1.61,1.41,2.75,3.22,3.63,5.21c0.63,1.36,1.13,2.81,1.59,4.27
	c0.05,0.13,0.09,0.27,0.13,0.4l1.46-0.11 M296.35,18.04c0.05-0.33,0.1-0.66,0.15-0.99c0.45-2.8,1.01-5.48,2.48-7.74
	c1.63-2.51,4.64-4.27,7.44-3.67 M306.42,5.64c2.48,0.54,4.33,2.78,5.32,5.29"/>
<path class="st0" d="M14.83,247.86c-0.98,0.32-1.64,1.21-2.05,2.74c-0.21,0.79-0.29,3.05-0.15,4.27c0.36,3.13,1.6,6.62,3.26,9.13
	l0.64,0.97l-0.57,0.63c-2.23,2.48-3.57,5.32-3.99,8.48c-0.75,5.64,2.78,10.86,8.67,12.83c4.09,1.36,8.46,1.1,12.1-0.74
	c1.34-0.67,2.31-1.37,3.36-2.42c1.68-1.68,2.76-3.7,3.2-5.98c0.76-3.97-0.87-9.05-3.97-12.41l-0.44-0.48l0.58-0.89
	c1.37-2.09,2.43-4.75,2.98-7.45c0.3-1.49,0.37-2.35,0.33-3.9c-0.04-1.6-0.17-2.26-0.64-3.22c-0.35-0.72-0.73-1.15-1.28-1.42
	c-0.38-0.19-0.54-0.22-1.08-0.22c-0.59,0-0.68,0.03-1.29,0.33c-0.36,0.18-0.89,0.52-1.17,0.76c-2.38,1.99-4.63,6.73-5.18,10.96
	c-0.2,1.5-0.16,1.39-0.45,1.34c-0.14-0.02-0.71-0.07-1.27-0.1c-0.91-0.04-1.7,0.01-2.71,0.17c-0.33,0.05-0.27,0.24-0.5-1.46
	c-0.48-3.54-2.18-7.57-4.18-9.91c-1.06-1.24-2.3-2.03-3.32-2.09C15.36,247.76,15.05,247.79,14.83,247.86z M16.5,248.87
	c2.07,1.01,4.18,4.37,5.34,8.49c0.34,1.21,0.62,2.74,0.65,3.58l0.02,0.57l-0.43,0.14c-0.24,0.08-0.49,0.17-0.57,0.2
	c-0.12,0.05-0.14,0-0.14-0.52c0-2.32-1.35-5.53-2.8-6.68c-1.46-1.15-2.72-0.49-2.99,1.55c-0.28,2.1,0.74,5.36,2.19,7.03l0.35,0.4
	l-0.27,0.23c-0.15,0.13-0.36,0.3-0.48,0.38l-0.21,0.15l-0.36-0.51c-2.57-3.61-4.07-9.78-3.2-13.14
	C14.1,248.85,15.11,248.19,16.5,248.87z M36.39,248.71c1.14,0.47,1.77,2.69,1.55,5.39c-0.22,2.62-1.02,5.44-2.24,7.83
	c-0.46,0.91-1.35,2.31-1.46,2.31c-0.04,0-0.25-0.15-0.47-0.33c-0.22-0.18-0.42-0.34-0.43-0.35c-0.02-0.01,0.11-0.18,0.29-0.39
	c1.43-1.69,2.41-4.9,2.14-6.96c-0.27-2.05-1.53-2.71-2.99-1.56c-1.43,1.12-2.8,4.36-2.8,6.6c0,0.45-0.02,0.5-0.14,0.45
	c-0.08-0.03-0.34-0.11-0.59-0.18l-0.46-0.13l0.05-0.51c0.09-0.96,0.37-2.44,0.63-3.4c1.1-4.02,3.59-7.98,5.49-8.73
	C35.39,248.59,36.04,248.56,36.39,248.71z M17.76,255.09c0.7,0.43,1.54,1.63,2.05,2.94c0.47,1.21,0.63,1.95,0.68,3.16l0.04,1.06
	l-0.38,0.18c-0.21,0.1-0.59,0.31-0.84,0.46l-0.46,0.28l-0.38-0.41c-0.76-0.82-1.49-2.37-1.86-3.91c-0.21-0.89-0.26-2.65-0.08-3.15
	C16.77,254.99,17.22,254.77,17.76,255.09z M34.52,255.17c0.33,0.4,0.4,0.74,0.4,1.88c0,0.87-0.04,1.2-0.21,1.89
	c-0.37,1.48-0.97,2.78-1.7,3.66l-0.38,0.46l-0.57-0.33c-0.32-0.18-0.72-0.39-0.9-0.47l-0.33-0.15v-0.74c0-1.24,0.37-2.71,0.99-3.97
	c0.34-0.68,1.03-1.73,1.32-2.01C33.68,254.88,34.21,254.8,34.52,255.17z M28.21,262.12c5.3,1.19,9.44,5.98,10.32,11.93
	c0.15,1.04,0.11,2.82-0.08,3.72c-0.8,3.69-3.41,6.67-7.15,8.14c-4.37,1.72-9.75,1.2-13.53-1.32c-2.62-1.75-4.25-4.09-4.88-7.01
	c-0.21-0.98-0.19-3.18,0.05-4.27c1.24-5.75,5.69-10.28,11.07-11.26C25.12,261.85,27.15,261.88,28.21,262.12z M20.01,270.55
	c-0.63,0.15-0.91,0.3-1.2,0.61c-0.45,0.49-0.61,1.15-0.34,1.4c0.3,0.27,0.72,0.06,0.72-0.37c0-0.49,0.75-0.9,1.45-0.79
	c0.44,0.07,0.89,0.45,0.89,0.76c0,0.45,0.46,0.69,0.75,0.4c0.19-0.2,0.1-0.83-0.18-1.23C21.73,270.8,20.64,270.39,20.01,270.55z
	 M30.47,270.57c-0.37,0.1-0.84,0.36-1.07,0.61c-0.41,0.43-0.58,1.14-0.33,1.39c0.28,0.28,0.74,0.03,0.74-0.41
	c0-0.31,0.46-0.69,0.89-0.76c0.71-0.11,1.45,0.3,1.45,0.81c0,0.42,0.46,0.64,0.73,0.35c0.38-0.43-0.18-1.46-0.97-1.81
	C31.47,270.55,30.84,270.47,30.47,270.57z M25.2,275.67c-1.84,0.17-2.45,1.02-1.75,2.45c0.32,0.66,0.74,1.1,1.33,1.39l0.51,0.25
	l-0.03,0.86c-0.02,0.62-0.07,0.94-0.17,1.14c-0.76,1.48-2.9,1.18-3.16-0.45c-0.07-0.47-0.19-0.65-0.44-0.65
	c-0.32,0-0.45,0.21-0.4,0.68c0.09,0.89,0.75,1.73,1.58,2.05c0.38,0.14,0.58,0.17,1.05,0.14c0.69-0.04,1.13-0.23,1.62-0.71l0.33-0.32
	l0.33,0.32c0.49,0.48,0.93,0.67,1.62,0.71c0.47,0.03,0.67,0,1.05-0.14c0.84-0.32,1.49-1.16,1.58-2.05c0.05-0.47-0.08-0.68-0.4-0.68
	c-0.25,0-0.37,0.17-0.44,0.65c-0.17,1.1-1.41,1.74-2.38,1.24c-0.69-0.35-0.91-0.8-0.95-1.94l-0.03-0.87l0.46-0.21
	c1.18-0.54,2.03-2.26,1.52-3.08C27.64,275.86,26.52,275.55,25.2,275.67z M26.86,276.64c0.2,0.07,0.41,0.2,0.45,0.28
	c0.19,0.35-0.47,1.5-1.02,1.8c-0.2,0.11-0.39,0.14-0.72,0.12c-0.57-0.04-0.92-0.31-1.28-0.96c-0.36-0.67-0.38-0.77-0.17-1
	C24.48,276.46,25.97,276.34,26.86,276.64z"/>
<path class="st2" d="M143.12,28.11c-1.91-0.89-4.06-1.42-6.16-0.94c-1.61,0.37-3,1.36-3.91,2.73c-0.85,1.26-1.26,2.84-1.17,4.36
	c0.1,1.61,0.74,3.16,1.89,4.31c1.39,1.4,3.32,2.03,5.25,2.17c0.28,0.02,0.56,0.03,0.84,0.03c-0.1-0.38-0.21-0.77-0.31-1.15
	c-1.66,1.05-3.08,2.55-3.62,4.49c-0.44,1.58-0.21,3.26,0.51,4.72c1.41,2.88,4.77,4.72,7.94,3.83c2.3-0.65,4-2.51,5.17-4.51
	c-0.38-0.1-0.77-0.21-1.15-0.31c-0.12,1.44,0.11,2.95,0.89,4.19c0.68,1.09,1.7,1.88,2.9,2.34c2.24,0.86,5.01,0.36,6.71-1.38
	c1.11-1.14,1.63-2.69,1.67-4.26c-0.41,0-0.82,0-1.23,0c0.14,1.5,0.63,2.96,1.66,4.09c0.82,0.9,1.96,1.51,3.15,1.72
	c2.48,0.44,5.12-0.61,6.49-2.76c0.9-1.4,1.08-3.08,0.84-4.7c-0.38,0.16-0.75,0.32-1.13,0.48c1.73,2.7,4.89,5.17,8.28,4.44
	c0.9-0.19,1.73-0.62,2.45-1.18c0.61-0.46,1.17-0.96,1.61-1.6c0.77-1.15,1.11-2.63,1.02-4c-0.11-1.63-0.8-3.18-2.18-4.12
	c-0.05,0.38-0.1,0.75-0.15,1.13c1.54-0.51,2.9-1.44,3.79-2.81c0.76-1.16,1.12-2.58,1.06-3.96c-0.13-2.83-1.96-5.5-4.79-6.2
	c-1.99-0.49-4.05,0.03-5.85,0.92c0.3,0.23,0.61,0.46,0.9,0.7c0.41-1.76,0.51-3.65-0.05-5.38c-0.45-1.39-1.29-2.6-2.49-3.44
	c-2.28-1.61-5.45-1.42-7.7,0.15c-1.59,1.1-2.68,2.72-3.35,4.51c0.4,0.05,0.81,0.11,1.21,0.16c0.19-2.27-0.72-4.72-2.87-5.76
	c-1.83-0.88-4.08-0.53-5.38,1.09c-0.92,1.15-1.25,2.62-1.25,4.07c0.4-0.05,0.81-0.11,1.21-0.16c-0.36-1.75-1.14-3.47-2.5-4.67
	c-1.14-1-2.57-1.57-4.08-1.66c-2.77-0.18-5.78,1.32-6.96,3.9c-0.75,1.63-0.71,3.47-0.04,5.12c0.12,0.31,0.41,0.52,0.76,0.43
	c0.29-0.08,0.56-0.45,0.43-0.76c-0.15-0.37-0.27-0.76-0.36-1.15c-0.02-0.08-0.03-0.16-0.05-0.24c-0.01-0.05-0.01-0.1-0.02-0.14
	c-0.03-0.16,0.01,0.13,0-0.03c-0.02-0.17-0.03-0.34-0.04-0.51c-0.01-0.17,0-0.33,0.01-0.5c0-0.07,0.01-0.15,0.02-0.22
	c0-0.04,0.01-0.09,0.02-0.13c-0.02,0.18,0-0.02,0.01-0.05c0.05-0.31,0.13-0.61,0.24-0.91c0.02-0.07,0.05-0.13,0.07-0.2
	c0.05-0.14-0.06,0.13,0-0.01c0.02-0.04,0.04-0.08,0.05-0.11c0.07-0.14,0.14-0.29,0.22-0.42c0.07-0.13,0.15-0.25,0.23-0.37
	c0.05-0.07,0.1-0.13,0.15-0.2c-0.1,0.14,0.05-0.06,0.08-0.1c0.2-0.23,0.41-0.45,0.64-0.65c0.06-0.06,0.13-0.11,0.19-0.16
	c0.02-0.02,0.04-0.03,0.07-0.05c0.11-0.09-0.11,0.08,0.01-0.01c0.14-0.1,0.27-0.2,0.41-0.29c0.26-0.17,0.54-0.32,0.82-0.44
	c0.04-0.02,0.08-0.03,0.12-0.05c0.13-0.06-0.1,0.04-0.01,0c0.07-0.03,0.14-0.06,0.22-0.09c0.16-0.06,0.32-0.11,0.48-0.16
	c0.3-0.09,0.61-0.16,0.92-0.21c0.04-0.01,0.08-0.01,0.13-0.02c-0.16,0.02-0.07,0.01-0.04,0.01c0.08-0.01,0.17-0.02,0.25-0.03
	c0.16-0.01,0.31-0.02,0.47-0.02c0.16,0,0.32,0,0.47,0.01c0.08,0,0.16,0.01,0.24,0.02c0.05,0,0.34,0.05,0.16,0.02
	c0.31,0.05,0.62,0.11,0.93,0.21c0.15,0.05,0.3,0.1,0.45,0.16c0.04,0.02,0.08,0.03,0.12,0.05c-0.14-0.06-0.06-0.02-0.03-0.01
	c0.09,0.05,0.18,0.09,0.28,0.13c0.29,0.15,0.57,0.32,0.84,0.52c0.02,0.02,0.15,0.11,0.02,0.02c0.04,0.03,0.07,0.06,0.11,0.09
	c0.08,0.07,0.17,0.14,0.25,0.21c0.14,0.13,0.27,0.26,0.4,0.41c0.07,0.08,0.14,0.16,0.21,0.24c0.03,0.03,0.05,0.06,0.08,0.1
	c-0.1-0.12,0.04,0.05,0.05,0.08c0.12,0.17,0.24,0.34,0.34,0.51c0.12,0.2,0.23,0.41,0.33,0.62c0.12,0.26,0.13,0.28,0.23,0.53
	c0.19,0.5,0.33,1.02,0.44,1.55c0.14,0.69,1.21,0.52,1.21-0.16c0-0.33,0.02-0.65,0.06-0.98c0.01-0.13,0.01-0.05,0-0.02
	c0.01-0.04,0.01-0.08,0.02-0.12c0.01-0.07,0.02-0.14,0.04-0.2c0.03-0.14,0.06-0.28,0.1-0.42c0.03-0.13,0.08-0.26,0.12-0.39
	c0.02-0.06,0.04-0.11,0.06-0.17c0.01-0.03,0.03-0.06,0.04-0.09c-0.02,0.05-0.03,0.06,0,0.01c0.11-0.23,0.22-0.45,0.36-0.66
	c0.03-0.05,0.06-0.09,0.09-0.13c0.02-0.03,0.04-0.05,0.05-0.07c0,0-0.07,0.09-0.02,0.03c0.07-0.09,0.15-0.18,0.23-0.27
	c0.07-0.07,0.14-0.14,0.22-0.21c0.04-0.03,0.08-0.06,0.11-0.1c0.08-0.07-0.01,0.01-0.03,0.02c0.03-0.02,0.06-0.04,0.08-0.06
	c0.17-0.12,0.34-0.22,0.53-0.31c0.04-0.02,0.09-0.04,0.13-0.06c-0.16,0.08,0,0,0.04-0.01c0.1-0.03,0.19-0.06,0.29-0.09
	c0.1-0.03,0.2-0.05,0.29-0.07c0.04-0.01,0.09-0.02,0.14-0.02c0.07-0.01-0.07,0.01-0.07,0.01c0.03,0,0.07-0.01,0.1-0.01
	c0.2-0.02,0.4-0.02,0.6-0.01c0.05,0,0.11,0.01,0.16,0.01c0.14,0.01-0.1-0.02,0.01,0c0.11,0.02,0.21,0.04,0.32,0.06
	c0.2,0.05,0.39,0.11,0.59,0.18c0.1,0.04-0.11-0.06,0.02,0.01c0.04,0.02,0.09,0.04,0.13,0.06c0.1,0.05,0.2,0.1,0.29,0.16
	c0.08,0.05,0.17,0.1,0.25,0.16c0.05,0.03,0.09,0.07,0.14,0.1c-0.11-0.08,0,0,0.04,0.04c0.17,0.14,0.33,0.29,0.47,0.46
	c0.04,0.04,0.07,0.08,0.1,0.12c0.04,0.05,0.1,0.13,0.03,0.03c0.07,0.1,0.14,0.2,0.21,0.3c0.07,0.11,0.14,0.23,0.2,0.35
	c0.03,0.06,0.06,0.11,0.09,0.17c0.02,0.04,0.1,0.23,0.05,0.1c0.11,0.27,0.19,0.54,0.26,0.83c0.03,0.14,0.06,0.28,0.08,0.43
	c0,0.03,0.02,0.12,0,0c0,0.05,0.01,0.09,0.01,0.14c0.01,0.08,0.01,0.15,0.02,0.23c0.02,0.35,0.01,0.71-0.01,1.06
	c-0.03,0.3,0.25,0.57,0.54,0.6c0.32,0.04,0.57-0.15,0.68-0.44c0.25-0.67,0.65-1.44,1.12-2.1c0.05-0.08,0.11-0.15,0.17-0.23
	c-0.07,0.09,0.07-0.09,0.09-0.11c0.12-0.15,0.24-0.29,0.37-0.43c0.24-0.25,0.49-0.48,0.76-0.7c0.02-0.01,0.15-0.12,0.03-0.03
	c0.03-0.02,0.05-0.04,0.08-0.06c0.07-0.05,0.13-0.1,0.2-0.14c0.14-0.1,0.29-0.19,0.43-0.27c0.13-0.08,0.27-0.15,0.4-0.22
	c0.07-0.03,0.14-0.07,0.21-0.1c0.04-0.02,0.07-0.03,0.11-0.05c0.04-0.02,0.03-0.01-0.04,0.02c0.03-0.01,0.06-0.02,0.09-0.03
	c0.29-0.11,0.58-0.21,0.88-0.28c0.14-0.03,0.28-0.06,0.42-0.08c0.04-0.01,0.07-0.01,0.11-0.02c0.15-0.03-0.1,0.01-0.01,0
	c0.08-0.01,0.16-0.02,0.24-0.03c0.29-0.02,0.59-0.03,0.88-0.01c0.07,0,0.15,0.01,0.22,0.02c0.04,0,0.28,0.04,0.1,0.01
	c0.15,0.02,0.3,0.05,0.45,0.08c0.29,0.06,0.57,0.15,0.85,0.26c0.03,0.01,0.05,0.02,0.08,0.03c0.14,0.05-0.12-0.06,0.01,0.01
	c0.06,0.03,0.12,0.05,0.18,0.08c0.14,0.07,0.27,0.14,0.4,0.22c0.12,0.07,0.25,0.15,0.37,0.24c0.05,0.04,0.11,0.08,0.16,0.12
	c0.08,0.06-0.11-0.09,0,0c0.03,0.03,0.07,0.06,0.1,0.08c0.24,0.2,0.45,0.41,0.65,0.64c0.05,0.05,0.09,0.11,0.13,0.16
	c0.1,0.12-0.08-0.11,0.01,0.02c0.02,0.03,0.04,0.05,0.05,0.07c0.1,0.14,0.19,0.28,0.28,0.43c0.07,0.12,0.14,0.25,0.21,0.38
	c0.04,0.07,0.07,0.14,0.11,0.22c0.02,0.05,0.04,0.09,0.06,0.13c-0.04-0.1-0.01-0.02,0.01,0.04c0.14,0.36,0.26,0.73,0.34,1.11
	c0.02,0.1,0.04,0.19,0.06,0.29c0.01,0.05,0.02,0.11,0.03,0.16c0,0.03,0.03,0.19,0.01,0.06c0.03,0.21,0.05,0.42,0.06,0.63
	c0.02,0.48,0.01,0.95-0.03,1.43c-0.04,0.48-0.13,0.94-0.25,1.47c-0.12,0.54,0.42,0.93,0.9,0.7c0.76-0.37,1.6-0.68,2.49-0.84
	c0.09-0.02,0.19-0.03,0.28-0.05c-0.13,0.02,0.13-0.02,0.16-0.02c0.19-0.02,0.39-0.03,0.58-0.03c0.17,0,0.34,0,0.51,0.01
	c0.08,0,0.16,0.01,0.25,0.02c0.05,0,0.1,0.01,0.15,0.02c-0.16-0.02-0.01,0,0.03,0.01c0.34,0.06,0.67,0.14,0.99,0.25
	c0.07,0.03,0.14,0.05,0.21,0.08c0.03,0.01,0.11,0.05-0.02-0.01c0.04,0.02,0.08,0.04,0.12,0.05c0.15,0.07,0.29,0.14,0.43,0.22
	c0.12,0.07,0.25,0.15,0.37,0.23c0.06,0.04,0.12,0.08,0.17,0.13c0.12,0.09-0.1-0.09,0.01,0.01c0.03,0.03,0.07,0.05,0.1,0.08
	c0.23,0.19,0.44,0.4,0.64,0.63c0.05,0.06,0.1,0.12,0.15,0.18c0.02,0.03,0.08,0.11-0.01-0.01c0.02,0.03,0.04,0.06,0.06,0.09
	c0.1,0.13,0.19,0.27,0.27,0.41c0.16,0.25,0.29,0.52,0.41,0.8c-0.07-0.16,0.02,0.05,0.04,0.09c0.03,0.07,0.05,0.13,0.07,0.2
	c0.05,0.15,0.1,0.3,0.14,0.45c0.04,0.14,0.07,0.28,0.1,0.42c0.01,0.07,0.03,0.14,0.04,0.21c0.01,0.04,0.01,0.08,0.02,0.13
	c-0.03-0.17,0-0.03,0,0.01c0.03,0.31,0.05,0.62,0.04,0.93c0,0.15-0.01,0.3-0.03,0.45c0,0.05-0.04,0.28-0.01,0.1
	c-0.01,0.09-0.03,0.17-0.04,0.26c-0.05,0.3-0.13,0.6-0.23,0.88c-0.02,0.07-0.05,0.14-0.07,0.21c-0.01,0.04-0.11,0.25-0.04,0.1
	c-0.07,0.15-0.13,0.29-0.21,0.44c-0.08,0.16-0.18,0.31-0.27,0.46c-0.05,0.08-0.1,0.15-0.15,0.22c-0.02,0.02-0.11,0.14-0.01,0.02
	c-0.03,0.04-0.06,0.07-0.09,0.11c-0.24,0.29-0.5,0.56-0.79,0.8c-0.03,0.03-0.06,0.05-0.09,0.08c-0.12,0.1,0.05-0.03-0.05,0.04
	c-0.08,0.06-0.16,0.12-0.24,0.17c-0.17,0.11-0.34,0.22-0.52,0.32c-0.19,0.1-0.38,0.19-0.57,0.28c0.02-0.01,0.11-0.04-0.01,0
	c-0.06,0.02-0.12,0.05-0.18,0.07c-0.11,0.04-0.23,0.08-0.35,0.12c-0.52,0.17-0.59,0.82-0.15,1.13c0.19,0.13,0.4,0.31,0.6,0.54
	c0.05,0.05,0.1,0.11,0.14,0.16c-0.05-0.07,0.05,0.08,0.07,0.1c0.09,0.13,0.17,0.26,0.24,0.39c0.15,0.28,0.2,0.39,0.3,0.71
	c0.04,0.14,0.08,0.28,0.12,0.43c0.03,0.12,0.07,0.36,0.08,0.42c0.14,1.11-0.06,2.34-0.6,3.31c-0.07,0.13-0.14,0.25-0.22,0.37
	c-0.04,0.06-0.08,0.12-0.12,0.17c-0.04,0.06,0,0,0-0.01c-0.03,0.04-0.06,0.08-0.1,0.11c-0.09,0.11-0.18,0.21-0.29,0.3
	c-0.05,0.05-0.1,0.09-0.15,0.14c-0.02,0.02-0.04,0.04-0.07,0.06c-0.03,0.02-0.03,0.02-0.01,0.01c0.06-0.04,0.02-0.02-0.11,0.08
	c-0.61,0.51-1.23,0.97-2,1.21c-1.32,0.42-2.69,0.18-3.91-0.47c-1.42-0.75-2.6-1.94-3.46-3.28c-0.16-0.26-0.48-0.38-0.77-0.25
	c-0.3,0.13-0.4,0.41-0.36,0.73c0.03,0.19-0.01-0.07,0.01,0.05c0,0.04,0.01,0.08,0.01,0.12c0.01,0.09,0.02,0.17,0.02,0.26
	c0.01,0.18,0.02,0.36,0.02,0.54c0,0.16-0.01,0.31-0.02,0.46c-0.01,0.09-0.02,0.18-0.02,0.26c0,0.03-0.02,0.12,0-0.01
	c-0.01,0.05-0.01,0.1-0.02,0.15c-0.05,0.3-0.12,0.59-0.22,0.87c-0.02,0.07-0.05,0.14-0.07,0.21c-0.01,0.04-0.1,0.24-0.04,0.1
	c-0.06,0.14-0.13,0.27-0.19,0.4c-0.06,0.11-0.13,0.23-0.2,0.34c-0.04,0.06-0.09,0.13-0.13,0.19c-0.03,0.04-0.16,0.22-0.07,0.09
	c-0.17,0.21-0.35,0.41-0.54,0.59c-0.1,0.09-0.2,0.18-0.3,0.26c-0.13,0.11,0.05-0.03-0.07,0.05c-0.06,0.04-0.12,0.09-0.18,0.13
	c-0.22,0.15-0.46,0.29-0.7,0.41c-0.05,0.03-0.1,0.05-0.16,0.08c-0.03,0.02-0.07,0.03-0.1,0.05c-0.08,0.03,0.11-0.04,0.03-0.01
	c-0.13,0.05-0.26,0.1-0.39,0.14c-0.26,0.08-0.52,0.15-0.78,0.2c-0.07,0.01-0.13,0.02-0.19,0.03c-0.1,0.02,0.11-0.01-0.05,0.01
	c-0.14,0.02-0.29,0.03-0.43,0.03c-0.26,0.01-0.52,0-0.78-0.02c-0.03,0-0.23-0.03-0.13-0.02c0.1,0.01-0.1-0.02-0.13-0.02
	c-0.13-0.02-0.27-0.05-0.4-0.09c-0.12-0.03-0.24-0.06-0.35-0.1c-0.06-0.02-0.12-0.04-0.18-0.06c-0.03-0.01-0.07-0.03-0.1-0.04
	c-0.12-0.04,0.11,0.05-0.01,0c-0.24-0.11-0.47-0.23-0.69-0.37c-0.11-0.07-0.22-0.15-0.32-0.23c0.11,0.08-0.01-0.01-0.05-0.04
	c-0.06-0.05-0.12-0.11-0.19-0.16c-0.12-0.11-0.23-0.22-0.33-0.34c-0.05-0.06-0.1-0.12-0.15-0.18c-0.02-0.02-0.04-0.05-0.06-0.07
	c0.1,0.12,0-0.01-0.02-0.03c-0.19-0.27-0.36-0.56-0.51-0.86c-0.02-0.04-0.03-0.08-0.05-0.12c-0.05-0.11,0.02,0.05-0.01-0.02
	c-0.04-0.09-0.07-0.18-0.1-0.27c-0.06-0.17-0.11-0.35-0.16-0.52c-0.05-0.19-0.09-0.37-0.12-0.56c-0.05-0.27-0.05-0.28-0.08-0.56
	c-0.03-0.33-0.26-0.62-0.61-0.62c-0.34,0-0.61,0.28-0.62,0.62c0,0.17-0.01,0.34-0.03,0.51c0,0.04-0.01,0.07-0.01,0.11
	c0,0-0.02,0.17-0.01,0.08s-0.01,0.08-0.01,0.08c-0.01,0.05-0.02,0.1-0.03,0.16c-0.06,0.3-0.13,0.59-0.23,0.88
	c-0.03,0.08-0.06,0.15-0.09,0.23c-0.01,0.03-0.05,0.11,0.01-0.02c-0.01,0.03-0.03,0.06-0.04,0.09c-0.07,0.14-0.14,0.28-0.21,0.41
	c-0.07,0.12-0.14,0.23-0.22,0.35c-0.04,0.05-0.07,0.1-0.1,0.15c-0.06,0.09,0.01,0,0.02-0.02c-0.03,0.03-0.06,0.07-0.08,0.1
	c-0.18,0.21-0.37,0.41-0.58,0.59c-0.04,0.04-0.09,0.07-0.13,0.11c-0.11,0.09,0.08-0.06,0.01,0c-0.03,0.02-0.06,0.04-0.09,0.06
	c-0.1,0.08-0.21,0.15-0.32,0.21c-0.11,0.07-0.22,0.13-0.34,0.19c-0.06,0.03-0.13,0.06-0.19,0.1c-0.04,0.02-0.25,0.11-0.09,0.04
	c-0.25,0.1-0.49,0.18-0.75,0.25c-0.12,0.03-0.24,0.06-0.36,0.08c-0.07,0.01-0.14,0.03-0.21,0.04c-0.17,0.03,0.09,0-0.09,0.01
	c-0.26,0.03-0.53,0.04-0.79,0.04c-0.12,0-0.24-0.01-0.37-0.02c-0.07-0.01-0.14-0.02-0.21-0.02c-0.03,0-0.12-0.02,0.04,0.01
	c-0.04-0.01-0.08-0.01-0.13-0.02c-0.26-0.04-0.52-0.1-0.77-0.18c-0.12-0.03-0.23-0.07-0.35-0.12c-0.04-0.01-0.26-0.11-0.09-0.03
	c-0.06-0.03-0.13-0.06-0.19-0.09c-0.24-0.11-0.47-0.25-0.69-0.39c-0.05-0.04-0.11-0.07-0.16-0.11c-0.14-0.1,0.05,0.04-0.06-0.05
	c-0.11-0.09-0.21-0.18-0.31-0.27c-0.1-0.09-0.19-0.19-0.27-0.28c-0.04-0.04-0.08-0.09-0.12-0.13c-0.02-0.03-0.05-0.06-0.07-0.09
	c-0.03-0.04,0.07,0.09-0.01-0.02c-0.18-0.25-0.35-0.52-0.49-0.8c-0.02-0.03-0.04-0.07-0.05-0.11c-0.01-0.02-0.07-0.16-0.03-0.08
	c0.04,0.09-0.02-0.06-0.02-0.06c-0.02-0.05-0.04-0.09-0.05-0.14c-0.06-0.16-0.1-0.32-0.15-0.48c-0.04-0.17-0.08-0.35-0.11-0.53
	c-0.01-0.03-0.01-0.07-0.02-0.11c-0.01-0.05-0.01-0.03,0,0.03c0-0.03-0.01-0.05-0.01-0.08c-0.01-0.1-0.02-0.2-0.03-0.3
	c-0.03-0.41-0.02-0.82,0.02-1.24c0.05-0.63-0.86-0.81-1.15-0.31c-0.55,0.95-1.13,1.75-1.93,2.49c-0.38,0.36-0.59,0.52-1.01,0.78
	c-0.17,0.1-0.33,0.2-0.51,0.29c-0.08,0.04-0.15,0.08-0.23,0.11c-0.04,0.02-0.09,0.04-0.14,0.06c0.14-0.06-0.06,0.02-0.09,0.03
	c-0.35,0.13-0.71,0.24-1.07,0.3c-0.04,0.01-0.09,0.02-0.14,0.02c-0.16,0.03,0.14-0.01-0.02,0c-0.09,0.01-0.19,0.02-0.28,0.03
	c-0.18,0.01-0.37,0.02-0.55,0.01c-0.17-0.01-0.33-0.02-0.5-0.04c-0.15-0.02,0.14,0.03-0.01,0c-0.04-0.01-0.09-0.02-0.13-0.02
	c-0.09-0.02-0.18-0.03-0.26-0.05c-0.16-0.04-0.32-0.08-0.48-0.13c-0.09-0.03-0.17-0.06-0.25-0.09c-0.05-0.02-0.34-0.14-0.19-0.07
	c-0.31-0.14-0.62-0.3-0.91-0.48c-0.14-0.09-0.27-0.18-0.41-0.28c-0.02-0.02-0.14-0.11-0.02-0.01c-0.04-0.03-0.07-0.06-0.11-0.08
	c-0.07-0.06-0.14-0.11-0.21-0.17c-0.27-0.24-0.52-0.5-0.75-0.78c-0.03-0.03-0.17-0.22-0.07-0.09c-0.05-0.07-0.11-0.14-0.16-0.22
	c-0.1-0.15-0.2-0.3-0.29-0.45c-0.08-0.14-0.16-0.29-0.24-0.43c-0.04-0.08-0.08-0.16-0.12-0.24c-0.01-0.03-0.07-0.17-0.01-0.02
	c-0.02-0.05-0.04-0.1-0.06-0.15c-0.13-0.33-0.23-0.67-0.3-1.01c-0.02-0.09-0.04-0.18-0.05-0.27c0-0.03-0.01-0.06-0.01-0.09
	c-0.03-0.15,0.01,0.14,0-0.02c-0.01-0.18-0.03-0.36-0.04-0.54s0-0.36,0.01-0.55c0.01-0.08,0.01-0.15,0.02-0.23
	c0-0.03,0.03-0.19,0-0.02c0.01-0.06,0.02-0.12,0.03-0.18c0.07-0.41,0.19-0.81,0.35-1.19c-0.06,0.13,0.06-0.12,0.08-0.17
	c0.05-0.11,0.11-0.21,0.16-0.31c0.11-0.2,0.23-0.39,0.36-0.57c0.03-0.04,0.06-0.09,0.1-0.13c0.04-0.06,0.04-0.06,0,0
	c0.02-0.03,0.04-0.06,0.07-0.09c0.07-0.09,0.14-0.17,0.22-0.25c0.17-0.19,0.34-0.37,0.53-0.54c0.44-0.41,0.78-0.67,1.3-0.99
	c0.51-0.32,0.32-1.15-0.31-1.15c-0.27,0-0.54-0.01-0.81-0.03c-0.12-0.01-0.25-0.02-0.37-0.03c-0.07-0.01-0.13-0.02-0.2-0.02
	c-0.07-0.01,0.02,0,0.03,0c-0.04,0-0.07-0.01-0.11-0.02c-0.47-0.07-0.94-0.18-1.39-0.32c-0.1-0.03-0.2-0.07-0.3-0.1
	c-0.05-0.02-0.1-0.04-0.16-0.06c-0.05-0.02-0.16-0.07-0.05-0.02c-0.19-0.08-0.38-0.17-0.56-0.27c-0.18-0.1-0.36-0.21-0.53-0.32
	c-0.08-0.05-0.15-0.11-0.23-0.16c-0.06-0.04-0.09-0.07-0.01-0.01c-0.04-0.03-0.09-0.07-0.13-0.11c-0.28-0.24-0.54-0.5-0.78-0.78
	c-0.03-0.04-0.06-0.07-0.09-0.11c-0.02-0.03,0.07,0.1,0,0c-0.06-0.08-0.11-0.16-0.17-0.24c-0.1-0.15-0.19-0.3-0.27-0.45
	c-0.08-0.15-0.15-0.31-0.23-0.47c0.07,0.16-0.02-0.06-0.05-0.12c-0.03-0.08-0.06-0.17-0.09-0.25c-0.11-0.33-0.18-0.68-0.24-1.02
	c-0.02-0.11,0.01,0.13,0,0.01c0-0.05-0.01-0.09-0.01-0.13c-0.01-0.09-0.01-0.18-0.02-0.27c-0.01-0.17-0.01-0.34-0.01-0.51
	c0-0.17,0.01-0.34,0.03-0.51c0.01-0.06,0.04-0.31,0.01-0.12c0.02-0.09,0.03-0.17,0.04-0.26c0.06-0.34,0.15-0.68,0.27-1.01
	c0.03-0.08,0.06-0.16,0.09-0.23c0.01-0.03,0.03-0.07,0.04-0.11c-0.07,0.17,0,0.01,0.01-0.03c0.07-0.16,0.15-0.31,0.23-0.46
	c0.09-0.16,0.18-0.31,0.28-0.46c0.05-0.07,0.09-0.14,0.14-0.2c0.02-0.03,0.04-0.06,0.07-0.09c0.05-0.07-0.08,0.09,0.02-0.03
	c0.22-0.27,0.46-0.52,0.72-0.74c0.06-0.06,0.13-0.11,0.19-0.16c0.12-0.1-0.07,0.05,0.01-0.01c0.04-0.03,0.07-0.05,0.11-0.08
	c0.15-0.11,0.3-0.21,0.46-0.3c0.15-0.09,0.32-0.17,0.48-0.25c0.04-0.02,0.07-0.03,0.11-0.05c-0.16,0.07-0.01,0.01,0.02-0.01
	c0.09-0.03,0.18-0.07,0.27-0.1c0.18-0.06,0.36-0.11,0.55-0.16c0.09-0.02,0.18-0.04,0.27-0.06c0.05-0.01,0.1-0.02,0.15-0.03
	c0.04-0.01,0.23-0.03,0.06-0.01c0.42-0.05,0.84-0.07,1.26-0.05c0.11,0.01,0.21,0.01,0.32,0.02c0.06,0.01,0.12,0.01,0.18,0.02
	c0.03,0,0.05,0.01,0.08,0.01c0.09,0.01-0.11-0.02-0.01,0c0.24,0.03,0.47,0.08,0.7,0.13c0.52,0.12,1.03,0.27,1.52,0.47
	c0.06,0.02,0.12,0.05,0.17,0.07c0.02,0.01,0.19,0.08,0.11,0.05c0.14,0.06,0.28,0.12,0.41,0.19c0.3,0.14,0.66,0.08,0.84-0.22
	C143.49,28.69,143.42,28.25,143.12,28.11z"/>
<path class="st2" d="M150.98,40.29c-0.17-0.24-0.32-0.5-0.45-0.76c-0.03-0.06-0.05-0.11-0.08-0.17c-0.05-0.11-0.01-0.02,0,0
	c-0.01-0.03-0.03-0.06-0.04-0.1c-0.04-0.12-0.09-0.25-0.12-0.37c-0.03-0.11-0.06-0.23-0.08-0.34c-0.01-0.06-0.02-0.16-0.01-0.04
	c-0.01-0.06-0.01-0.13-0.02-0.2c-0.01-0.11-0.01-0.21-0.01-0.32c0-0.05,0-0.1,0.01-0.15c0-0.04,0.04-0.25,0-0.06
	c0.04-0.21,0.08-0.4,0.15-0.6c0.01-0.04,0.03-0.09,0.05-0.13c-0.05,0.13-0.01,0.03,0.02-0.03c0.04-0.09,0.1-0.19,0.15-0.27
	c0.05-0.08,0.1-0.15,0.15-0.23c0.09-0.14-0.05,0.05,0.02-0.03c0.03-0.04,0.07-0.08,0.1-0.12c0.14-0.16,0.3-0.29,0.46-0.43
	c0.08-0.07-0.11,0.07,0.02-0.01c0.04-0.03,0.08-0.05,0.11-0.08c0.09-0.06,0.18-0.12,0.27-0.17c0.09-0.05,0.18-0.1,0.27-0.14
	c0.04-0.02,0.08-0.04,0.13-0.06c0.16-0.07-0.08,0.02,0.06-0.02c0.2-0.07,0.39-0.14,0.6-0.19c0.1-0.02,0.2-0.04,0.3-0.06
	c0.08-0.02,0.13-0.02,0.02,0c0.06-0.01,0.12-0.01,0.18-0.02c0.21-0.02,0.42-0.02,0.63-0.01c0.05,0,0.1,0.01,0.14,0.01
	c0.03,0,0.05,0.01,0.08,0.01c0.08,0.01-0.12-0.02-0.04-0.01c0.11,0.02,0.21,0.04,0.32,0.06c0.1,0.02,0.2,0.05,0.29,0.08
	c0.04,0.02,0.09,0.03,0.14,0.05c0.02,0.01,0.05,0.02,0.07,0.03c0.08,0.03-0.14-0.07-0.01-0.01c0.19,0.09,0.37,0.18,0.55,0.3
	c0.03,0.02,0.18,0.13,0.11,0.08c-0.06-0.05,0.08,0.06,0.1,0.09c0.1,0.08,0.18,0.17,0.27,0.26c0.05,0.05,0.09,0.1,0.14,0.15
	c0.04,0.04,0.12,0.16,0.05,0.06c0.08,0.12,0.16,0.23,0.24,0.36c0.07,0.12,0.14,0.25,0.2,0.38c0.01,0.03,0.03,0.06,0.04,0.09
	c0.04,0.09-0.05-0.14,0.01,0.02c0.03,0.07,0.05,0.13,0.08,0.2c0.12,0.33,0.2,0.67,0.26,1.02c0.06,0.33,0.46,0.51,0.76,0.43
	c0.35-0.1,0.48-0.43,0.43-0.76c-0.1-0.63-0.14-1.47-0.06-2.21c0-0.05,0.01-0.09,0.01-0.14c0,0.02-0.02,0.12,0,0
	c0.01-0.08,0.03-0.16,0.04-0.24c0.03-0.16,0.07-0.32,0.11-0.47c0.04-0.14,0.08-0.28,0.13-0.42c0.02-0.07,0.05-0.13,0.08-0.2
	c0.01-0.03,0.06-0.13,0,0c0.02-0.04,0.04-0.08,0.06-0.13c0.11-0.24,0.24-0.47,0.39-0.69c0.04-0.06,0.08-0.11,0.12-0.17
	c-0.08,0.11-0.01,0.01,0.03-0.04c0.09-0.1,0.18-0.21,0.28-0.3c0.08-0.08,0.17-0.16,0.26-0.24c0.05-0.05,0.14-0.1,0.03-0.03
	c0.06-0.04,0.11-0.08,0.17-0.12c0.2-0.13,0.41-0.24,0.62-0.34c0.12-0.06-0.11,0.04-0.03,0.01c0.03-0.01,0.06-0.02,0.09-0.03
	c0.05-0.02,0.09-0.03,0.14-0.05c0.12-0.04,0.24-0.07,0.36-0.1c0.11-0.03,0.22-0.04,0.33-0.06c-0.13,0.02-0.06,0.01,0.02,0
	c0.07-0.01,0.14-0.01,0.21-0.02c0.23-0.01,0.46,0.01,0.69,0.03c-0.2-0.01-0.01,0,0.04,0.01c0.06,0.01,0.11,0.02,0.17,0.03
	c0.12,0.03,0.24,0.06,0.37,0.1c0.1,0.03,0.2,0.07,0.3,0.11c0.08,0.03-0.14-0.07-0.02-0.01c0.02,0.01,0.05,0.02,0.07,0.03
	c0.06,0.03,0.12,0.06,0.17,0.08c0.1,0.05,0.21,0.11,0.3,0.17c0.06,0.03,0.11,0.07,0.16,0.11c0.04,0.03,0.21,0.16,0.07,0.05
	c0.2,0.16,0.38,0.33,0.55,0.52c0.04,0.05,0.08,0.1,0.12,0.14c0.02,0.02,0.04,0.04,0.05,0.06c0.09,0.11-0.06-0.08,0-0.01
	c0.08,0.11,0.16,0.22,0.23,0.34c0.08,0.13,0.16,0.27,0.23,0.41c0.04,0.08,0.07,0.15,0.11,0.23c0.01,0.03,0.04,0.11-0.01-0.02
	c0.02,0.05,0.04,0.09,0.05,0.13c0.13,0.33,0.22,0.67,0.29,1.02c0.02,0.09,0.03,0.18,0.04,0.27c0.01,0.04,0.01,0.07,0.01,0.11
	c-0.02-0.14,0,0.03,0.01,0.06c0.02,0.21,0.04,0.42,0.04,0.63c0.01,0.44-0.01,0.89-0.06,1.33c-0.07,0.59,0.91,0.87,1.15,0.31
	c0.1-0.23,0.21-0.46,0.34-0.68c0.06-0.1,0.13-0.2,0.19-0.3c0.03-0.05,0.07-0.1,0.1-0.14c-0.07,0.08,0.03-0.03,0.04-0.05
	c0.14-0.17,0.29-0.32,0.46-0.46c0.04-0.03,0.08-0.07,0.12-0.1c-0.11,0.09,0.02-0.02,0.04-0.03c0.08-0.06,0.17-0.11,0.25-0.17
	c0.09-0.05,0.17-0.1,0.26-0.14c0.05-0.02,0.09-0.04,0.13-0.06c0.15-0.07-0.12,0.04,0.04-0.01c0.18-0.06,0.37-0.13,0.56-0.17
	c0.09-0.02,0.19-0.04,0.28-0.05c-0.17,0.02,0.12-0.01,0.17-0.01c0.19-0.01,0.38-0.01,0.57,0.01c0.05,0,0.1,0.01,0.14,0.01
	c0.16,0.01-0.13-0.03,0.02,0c0.09,0.02,0.19,0.03,0.28,0.05c0.19,0.04,0.37,0.1,0.54,0.16c0.05,0.02,0.09,0.03,0.13,0.05
	c-0.15-0.06,0,0,0.03,0.01c0.08,0.04,0.17,0.08,0.25,0.13c0.17,0.09,0.32,0.2,0.48,0.3c0.13,0.09-0.1-0.08,0.02,0.02
	c0.03,0.03,0.07,0.06,0.11,0.09c0.07,0.06,0.14,0.13,0.21,0.19c0.06,0.06,0.11,0.11,0.16,0.17c0.03,0.03,0.06,0.07,0.09,0.11
	c0.11,0.13-0.01-0.02,0.05,0.06c0.1,0.14,0.19,0.28,0.28,0.44c0.04,0.08,0.09,0.17,0.12,0.26c-0.06-0.14,0,0.01,0.01,0.03
	c0.02,0.06,0.04,0.12,0.06,0.18c0.03,0.11,0.06,0.22,0.08,0.33c0.01,0.03,0.01,0.06,0.02,0.1c0.01,0.03,0.01,0.06,0.01,0.1
	c-0.01-0.08-0.01-0.09,0-0.01c0.01,0.25,0.03,0.49,0,0.73c0,0.02-0.02,0.2,0,0.05c-0.01,0.06-0.02,0.11-0.03,0.17
	c-0.02,0.13-0.06,0.27-0.09,0.4c-0.09,0.31-0.16,0.49-0.28,0.73c-0.14,0.3-0.08,0.67,0.22,0.84c0.27,0.16,0.7,0.08,0.84-0.22
	c0.48-1,0.71-2.09,0.49-3.19c-0.17-0.89-0.68-1.73-1.36-2.32c-1.43-1.24-3.48-1.58-5.21-0.78c-1.07,0.5-1.87,1.47-2.33,2.54
	c0.38,0.1,0.77,0.21,1.15,0.31c0.17-1.52,0.01-3.11-0.72-4.48c-0.57-1.07-1.49-1.91-2.61-2.37c-2.19-0.88-4.69,0.1-5.83,2.12
	c-0.87,1.54-0.92,3.37-0.66,5.09c0.4-0.11,0.79-0.22,1.19-0.33c-0.2-1.17-0.72-2.36-1.66-3.13c-0.81-0.67-1.83-1.02-2.88-1.01
	c-1.95,0.02-3.99,1.25-4.48,3.23c-0.33,1.31,0.11,2.65,0.86,3.74c0.19,0.27,0.54,0.4,0.84,0.22
	C151.03,40.98,151.17,40.57,150.98,40.29z"/>
</svg>
