<?xml version="1.0" encoding="utf-8"?>
<!-- Generator: Adobe Illustrator 27.6.1, SVG Export Plug-In . SVG Version: 6.00 Build 0)  -->
<svg version="1.1" id="Layer_1" xmlns="http://www.w3.org/2000/svg" xmlns:xlink="http://www.w3.org/1999/xlink" x="0px" y="0px"
	 viewBox="0 0 1158 135" style="enable-background:new 0 0 1158 135;" xml:space="preserve">
<style type="text/css">
	.st0{fill:#8787C1;}
</style>
<path class="st0" d="M20.33,87.34c-3.41-1.59-7.25-2.53-10.99-1.67c-2.87,0.66-5.35,2.44-6.99,4.87c-1.51,2.25-2.25,5.07-2.08,7.78
	c0.18,2.88,1.33,5.64,3.37,7.7c2.48,2.49,5.93,3.62,9.37,3.87c0.5,0.04,1,0.05,1.5,0.05c-0.19-0.68-0.37-1.37-0.56-2.05
	c-2.96,1.88-5.5,4.56-6.45,8c-0.78,2.82-0.37,5.82,0.91,8.43c2.52,5.15,8.51,8.43,14.17,6.83c4.1-1.16,7.14-4.48,9.22-8.05
	c-0.68-0.19-1.37-0.37-2.05-0.56c-0.22,2.57,0.2,5.26,1.59,7.48c1.22,1.94,3.04,3.35,5.17,4.17c4,1.54,8.94,0.64,11.97-2.46
	c1.99-2.04,2.91-4.79,2.98-7.6c-0.73,0-1.47,0-2.2,0c0.25,2.68,1.12,5.28,2.96,7.3c1.46,1.6,3.49,2.69,5.61,3.07
	c4.43,0.79,9.13-1.09,11.58-4.92c1.6-2.5,1.93-5.49,1.51-8.38c-0.67,0.28-1.34,0.57-2.01,0.85c3.09,4.82,8.72,9.22,14.77,7.93
	c1.6-0.34,3.09-1.11,4.38-2.1c1.08-0.83,2.09-1.71,2.86-2.85c1.38-2.05,1.98-4.69,1.83-7.14c-0.19-2.91-1.43-5.68-3.88-7.35
	c-0.09,0.67-0.17,1.34-0.26,2.01c2.75-0.91,5.18-2.57,6.77-5.01c1.36-2.07,2-4.61,1.88-7.08c-0.23-5.05-3.5-9.81-8.54-11.06
	c-3.56-0.88-7.23,0.05-10.45,1.63c0.54,0.41,1.08,0.83,1.61,1.24c0.72-3.14,0.91-6.51-0.09-9.61c-0.8-2.48-2.31-4.64-4.44-6.14
	c-4.08-2.88-9.72-2.53-13.74,0.26c-2.84,1.97-4.78,4.85-5.98,8.05c0.72,0.1,1.44,0.2,2.16,0.29c0.34-4.05-1.28-8.42-5.12-10.27
	c-3.26-1.57-7.28-0.94-9.59,1.95c-1.65,2.05-2.23,4.68-2.24,7.27c0.72-0.1,1.44-0.2,2.16-0.29c-0.64-3.12-2.04-6.2-4.47-8.33
	c-2.03-1.79-4.58-2.8-7.28-2.97c-4.94-0.32-10.31,2.35-12.42,6.96c-1.34,2.92-1.26,6.19-0.08,9.14c0.22,0.55,0.74,0.94,1.35,0.77
	c0.52-0.14,0.99-0.8,0.77-1.35c-0.27-0.67-0.49-1.35-0.64-2.05c-0.03-0.14-0.06-0.29-0.08-0.43c-0.02-0.08-0.03-0.17-0.04-0.26
	c-0.05-0.29,0.02,0.24-0.01-0.05c-0.03-0.3-0.06-0.61-0.07-0.92c-0.01-0.3-0.01-0.59,0.01-0.89c0.01-0.13,0.02-0.27,0.03-0.4
	c0.01-0.08,0.02-0.16,0.03-0.24c-0.03,0.33,0-0.03,0.02-0.09c0.09-0.55,0.23-1.09,0.42-1.62c0.04-0.12,0.09-0.24,0.13-0.35
	c0.09-0.24-0.11,0.22,0-0.01c0.03-0.07,0.06-0.13,0.09-0.2c0.12-0.26,0.25-0.51,0.4-0.76c0.13-0.22,0.27-0.44,0.42-0.66
	c0.08-0.12,0.17-0.24,0.26-0.36c-0.18,0.24,0.09-0.11,0.15-0.18c0.35-0.42,0.73-0.81,1.14-1.16c0.11-0.1,0.23-0.19,0.34-0.29
	c0.04-0.03,0.08-0.06,0.12-0.09c0.2-0.17-0.2,0.14,0.02-0.01c0.25-0.17,0.49-0.35,0.74-0.51c0.47-0.3,0.96-0.56,1.46-0.79
	c0.07-0.03,0.14-0.06,0.21-0.09c0.23-0.11-0.17,0.07-0.02,0.01c0.13-0.05,0.26-0.1,0.39-0.15c0.29-0.11,0.57-0.2,0.86-0.29
	c0.54-0.16,1.08-0.28,1.63-0.37c0.08-0.01,0.15-0.02,0.23-0.03c-0.28,0.04-0.13,0.02-0.07,0.01c0.15-0.02,0.3-0.03,0.45-0.05
	c0.28-0.02,0.56-0.03,0.84-0.04c0.28,0,0.56,0,0.84,0.02c0.14,0.01,0.28,0.02,0.42,0.03c0.09,0.01,0.61,0.08,0.28,0.03
	c0.56,0.09,1.11,0.2,1.65,0.37c0.27,0.08,0.54,0.18,0.81,0.28c0.07,0.03,0.15,0.06,0.22,0.09c-0.24-0.1-0.1-0.04-0.05-0.02
	c0.17,0.08,0.33,0.15,0.5,0.23c0.52,0.27,1.02,0.58,1.5,0.92c0.04,0.03,0.26,0.2,0.04,0.03c0.07,0.05,0.13,0.1,0.19,0.15
	c0.15,0.12,0.3,0.25,0.44,0.38c0.25,0.23,0.49,0.47,0.72,0.72c0.13,0.14,0.25,0.28,0.37,0.43c0.05,0.06,0.09,0.12,0.14,0.17
	c-0.17-0.21,0.07,0.09,0.1,0.13c0.22,0.3,0.42,0.6,0.61,0.92c0.22,0.36,0.41,0.72,0.59,1.1c0.22,0.46,0.24,0.5,0.41,0.95
	c0.34,0.9,0.59,1.83,0.79,2.77c0.25,1.23,2.16,0.92,2.16-0.29c0-0.59,0.03-1.17,0.1-1.75c0.03-0.23,0.01-0.08,0-0.03
	c0.01-0.07,0.02-0.14,0.03-0.21c0.02-0.12,0.04-0.24,0.07-0.36c0.05-0.25,0.1-0.5,0.17-0.74c0.06-0.24,0.13-0.47,0.21-0.7
	c0.03-0.1,0.07-0.2,0.11-0.31c0.02-0.06,0.05-0.12,0.07-0.17c-0.03,0.09-0.05,0.12,0,0.01c0.19-0.4,0.39-0.8,0.64-1.18
	c0.05-0.08,0.11-0.16,0.17-0.24c0.03-0.05,0.07-0.09,0.1-0.13c0,0-0.13,0.16-0.05,0.06c0.13-0.16,0.27-0.32,0.42-0.47
	c0.12-0.13,0.25-0.25,0.39-0.37c0.07-0.06,0.13-0.11,0.2-0.17c0.14-0.13-0.02,0.02-0.05,0.03c0.05-0.04,0.1-0.07,0.15-0.11
	c0.3-0.21,0.61-0.4,0.94-0.56c0.08-0.03,0.15-0.07,0.23-0.1c-0.29,0.13,0,0,0.07-0.02c0.17-0.06,0.34-0.12,0.51-0.17
	c0.17-0.05,0.35-0.09,0.52-0.12c0.08-0.02,0.17-0.03,0.25-0.04c0.12-0.02-0.12,0.02-0.12,0.02c0.06,0,0.12-0.02,0.18-0.02
	c0.36-0.03,0.71-0.04,1.07-0.02c0.1,0.01,0.19,0.02,0.29,0.02c0.25,0.02-0.17-0.03,0.03,0c0.19,0.03,0.38,0.07,0.57,0.11
	c0.36,0.08,0.7,0.2,1.04,0.33c0.18,0.07-0.2-0.1,0.04,0.02c0.08,0.04,0.16,0.07,0.24,0.11c0.18,0.09,0.35,0.18,0.52,0.29
	c0.15,0.09,0.3,0.18,0.44,0.29c0.08,0.06,0.17,0.12,0.25,0.18c-0.2-0.14,0,0,0.08,0.07c0.3,0.25,0.58,0.52,0.84,0.82
	c0.06,0.07,0.12,0.14,0.18,0.21c0.07,0.08,0.18,0.24,0.05,0.06c0.13,0.18,0.25,0.35,0.37,0.54c0.13,0.2,0.25,0.41,0.35,0.62
	c0.05,0.1,0.1,0.2,0.15,0.31c0.03,0.07,0.17,0.41,0.08,0.18c0.19,0.48,0.35,0.97,0.46,1.48c0.06,0.25,0.1,0.5,0.14,0.76
	c0,0.05,0.03,0.22,0,0c0.01,0.08,0.02,0.17,0.03,0.25c0.01,0.13,0.02,0.27,0.03,0.41c0.04,0.63,0.02,1.26-0.03,1.89
	c-0.05,0.54,0.45,1.02,0.96,1.08c0.57,0.07,1.01-0.26,1.21-0.79c0.45-1.2,1.15-2.57,1.99-3.75c0.1-0.13,0.2-0.27,0.3-0.4
	c-0.13,0.17,0.13-0.16,0.17-0.2c0.22-0.26,0.44-0.51,0.67-0.76c0.42-0.45,0.88-0.86,1.36-1.26c0.03-0.02,0.27-0.21,0.06-0.05
	c0.05-0.03,0.1-0.07,0.14-0.11c0.12-0.08,0.24-0.17,0.36-0.26c0.25-0.17,0.51-0.34,0.77-0.49c0.24-0.13,0.47-0.27,0.72-0.39
	c0.13-0.06,0.25-0.12,0.38-0.18c0.07-0.03,0.13-0.06,0.19-0.08c0.07-0.03,0.05-0.02-0.07,0.03c0.05-0.02,0.1-0.04,0.15-0.06
	c0.52-0.19,1.03-0.37,1.57-0.49c0.25-0.06,0.5-0.11,0.75-0.15c0.07-0.01,0.13-0.02,0.2-0.03c0.26-0.05-0.18,0.02-0.02,0
	c0.15-0.02,0.29-0.03,0.44-0.05c0.52-0.04,1.05-0.05,1.58-0.02c0.13,0.01,0.26,0.02,0.39,0.03c0.08,0.01,0.5,0.07,0.17,0.02
	c0.27,0.04,0.54,0.09,0.8,0.15c0.52,0.12,1.03,0.27,1.52,0.46c0.05,0.02,0.1,0.04,0.14,0.06c0.25,0.1-0.22-0.11,0.02,0.01
	c0.1,0.05,0.21,0.1,0.32,0.15c0.24,0.12,0.48,0.25,0.72,0.39c0.22,0.13,0.44,0.27,0.66,0.42c0.1,0.07,0.19,0.14,0.29,0.21
	c0.13,0.1-0.2-0.17,0,0c0.06,0.05,0.12,0.1,0.18,0.15c0.42,0.35,0.81,0.74,1.16,1.15c0.08,0.09,0.15,0.19,0.24,0.28
	c0.18,0.21-0.13-0.19,0.03,0.03c0.03,0.05,0.07,0.09,0.1,0.13c0.18,0.25,0.35,0.5,0.5,0.76c0.13,0.22,0.25,0.44,0.37,0.67
	c0.07,0.13,0.13,0.26,0.19,0.39c0.04,0.08,0.07,0.16,0.11,0.24c-0.08-0.17-0.01-0.03,0.03,0.07c0.25,0.65,0.45,1.31,0.6,1.99
	c0.04,0.17,0.07,0.35,0.1,0.52c0.02,0.1,0.03,0.19,0.05,0.29c0.01,0.05,0.05,0.34,0.02,0.1c0.05,0.37,0.08,0.75,0.1,1.13
	c0.04,0.85,0.02,1.7-0.06,2.54c-0.08,0.86-0.23,1.68-0.44,2.62c-0.22,0.97,0.75,1.66,1.61,1.24c1.36-0.67,2.85-1.21,4.45-1.5
	c0.17-0.03,0.33-0.06,0.5-0.08c-0.24,0.03,0.23-0.03,0.29-0.03c0.34-0.03,0.69-0.05,1.04-0.06c0.3,0,0.61,0,0.91,0.02
	c0.15,0.01,0.29,0.02,0.44,0.03c0.08,0.01,0.17,0.02,0.26,0.03c-0.28-0.03-0.02,0,0.05,0.01c0.6,0.11,1.19,0.25,1.77,0.45
	c0.13,0.05,0.25,0.1,0.38,0.14c0.05,0.02,0.19,0.08-0.04-0.02c0.07,0.03,0.15,0.07,0.22,0.1c0.26,0.12,0.52,0.25,0.77,0.4
	c0.22,0.13,0.44,0.27,0.66,0.42c0.1,0.07,0.21,0.15,0.31,0.22c0.22,0.15-0.18-0.15,0.02,0.02c0.06,0.05,0.12,0.1,0.18,0.15
	c0.41,0.34,0.79,0.72,1.14,1.13c0.09,0.1,0.18,0.22,0.27,0.32c0.04,0.05,0.15,0.2-0.01-0.01c0.04,0.05,0.08,0.1,0.11,0.15
	c0.17,0.24,0.33,0.48,0.49,0.73c0.28,0.45,0.52,0.93,0.73,1.42c-0.13-0.29,0.03,0.09,0.06,0.16c0.05,0.12,0.09,0.24,0.13,0.36
	c0.09,0.27,0.17,0.54,0.24,0.81c0.07,0.25,0.12,0.5,0.17,0.75c0.02,0.13,0.05,0.25,0.07,0.38c0.01,0.08,0.02,0.15,0.03,0.23
	c-0.05-0.3-0.01-0.06,0,0.01c0.06,0.55,0.09,1.1,0.07,1.65c-0.01,0.27-0.02,0.54-0.05,0.81c-0.01,0.08-0.07,0.5-0.02,0.17
	c-0.02,0.15-0.05,0.31-0.07,0.46c-0.1,0.54-0.24,1.06-0.41,1.58c-0.04,0.12-0.08,0.25-0.13,0.37c-0.03,0.07-0.19,0.45-0.07,0.17
	c-0.12,0.26-0.24,0.52-0.38,0.78c-0.15,0.28-0.31,0.56-0.49,0.82c-0.09,0.14-0.18,0.27-0.27,0.4c-0.03,0.04-0.2,0.26-0.02,0.04
	c-0.05,0.06-0.1,0.13-0.15,0.19c-0.42,0.52-0.9,1-1.41,1.42c-0.05,0.05-0.11,0.09-0.17,0.13c-0.22,0.18,0.09-0.06-0.08,0.07
	c-0.14,0.1-0.29,0.21-0.43,0.3c-0.3,0.2-0.61,0.39-0.93,0.57c-0.33,0.18-0.67,0.35-1.02,0.5c0.04-0.02,0.19-0.08-0.01,0
	c-0.11,0.04-0.21,0.08-0.32,0.13c-0.2,0.08-0.41,0.15-0.62,0.22c-0.93,0.31-1.06,1.47-0.26,2.01c0.34,0.23,0.71,0.55,1.07,0.96
	c0.08,0.1,0.17,0.19,0.25,0.29c-0.09-0.12,0.1,0.14,0.12,0.17c0.16,0.23,0.3,0.46,0.43,0.7c0.27,0.5,0.35,0.7,0.53,1.27
	c0.08,0.25,0.15,0.5,0.2,0.76c0.05,0.22,0.12,0.64,0.14,0.75c0.25,1.99-0.11,4.17-1.08,5.91c-0.12,0.22-0.26,0.44-0.4,0.65
	c-0.07,0.1-0.14,0.21-0.22,0.31c-0.08,0.1-0.01,0.01,0.01-0.01c-0.05,0.07-0.11,0.14-0.17,0.2c-0.16,0.19-0.33,0.37-0.51,0.54
	c-0.09,0.09-0.18,0.17-0.27,0.25c-0.04,0.04-0.08,0.07-0.12,0.1c-0.05,0.04-0.05,0.04-0.01,0.01c0.1-0.08,0.04-0.03-0.19,0.15
	c-1.09,0.91-2.19,1.72-3.56,2.16c-2.36,0.76-4.81,0.32-6.98-0.83c-2.53-1.35-4.64-3.47-6.17-5.85c-0.29-0.46-0.86-0.68-1.38-0.45
	c-0.54,0.24-0.72,0.74-0.64,1.3c0.05,0.34-0.01-0.12,0.01,0.08c0.01,0.07,0.02,0.14,0.02,0.21c0.02,0.16,0.03,0.31,0.04,0.47
	c0.02,0.32,0.03,0.64,0.03,0.96c0,0.28-0.01,0.55-0.03,0.83c-0.01,0.16-0.03,0.32-0.04,0.47c0,0.05-0.03,0.22,0-0.02
	c-0.01,0.09-0.03,0.18-0.04,0.27c-0.09,0.53-0.22,1.05-0.39,1.55c-0.04,0.12-0.08,0.24-0.13,0.37c-0.02,0.07-0.18,0.42-0.07,0.17
	c-0.11,0.24-0.22,0.48-0.35,0.71c-0.11,0.21-0.23,0.4-0.35,0.6c-0.07,0.11-0.15,0.23-0.23,0.34c-0.05,0.07-0.29,0.39-0.12,0.17
	c-0.3,0.38-0.62,0.73-0.97,1.06c-0.17,0.16-0.35,0.32-0.54,0.47c-0.24,0.2,0.09-0.06-0.12,0.09c-0.11,0.08-0.21,0.15-0.32,0.23
	c-0.4,0.27-0.82,0.52-1.25,0.73c-0.09,0.05-0.19,0.09-0.28,0.13c-0.06,0.03-0.12,0.05-0.18,0.08c-0.14,0.06,0.19-0.08,0.05-0.02
	c-0.23,0.09-0.46,0.18-0.69,0.26c-0.45,0.15-0.92,0.26-1.39,0.35c-0.12,0.02-0.23,0.04-0.34,0.06c-0.17,0.03,0.19-0.02-0.09,0.01
	c-0.26,0.03-0.51,0.05-0.77,0.06c-0.46,0.02-0.92,0-1.39-0.04c-0.06,0-0.41-0.05-0.24-0.03c0.17,0.02-0.18-0.03-0.24-0.04
	c-0.24-0.04-0.48-0.09-0.71-0.15c-0.21-0.05-0.42-0.11-0.63-0.18c-0.11-0.03-0.22-0.07-0.33-0.12c-0.06-0.02-0.12-0.05-0.18-0.07
	c-0.21-0.08,0.2,0.1-0.02-0.01c-0.42-0.2-0.84-0.4-1.23-0.66c-0.2-0.13-0.39-0.26-0.58-0.4c0.19,0.14-0.01-0.01-0.09-0.07
	c-0.11-0.09-0.22-0.19-0.33-0.29c-0.21-0.19-0.41-0.4-0.6-0.61c-0.09-0.1-0.18-0.21-0.27-0.32c-0.03-0.04-0.07-0.09-0.1-0.13
	c0.17,0.22-0.01-0.01-0.03-0.05c-0.34-0.49-0.65-1-0.91-1.54c-0.03-0.07-0.06-0.14-0.1-0.21c-0.09-0.19,0.03,0.09-0.02-0.04
	c-0.07-0.16-0.13-0.32-0.18-0.48c-0.11-0.3-0.2-0.62-0.29-0.93c-0.09-0.33-0.16-0.66-0.22-1c-0.09-0.48-0.09-0.5-0.13-1
	c-0.06-0.59-0.47-1.1-1.1-1.1c-0.61,0-1.09,0.5-1.1,1.1c-0.01,0.3-0.02,0.6-0.05,0.9c-0.01,0.07-0.01,0.13-0.02,0.2
	c0,0-0.04,0.31-0.02,0.14c0.02-0.17-0.02,0.14-0.02,0.14c-0.02,0.09-0.03,0.19-0.05,0.28c-0.1,0.53-0.24,1.06-0.42,1.56
	c-0.05,0.13-0.1,0.27-0.15,0.4c-0.02,0.05-0.09,0.19,0.01-0.03c-0.02,0.05-0.05,0.1-0.07,0.15c-0.12,0.25-0.24,0.5-0.38,0.74
	c-0.12,0.21-0.25,0.42-0.39,0.62c-0.06,0.09-0.13,0.17-0.18,0.26c-0.11,0.16,0.01-0.01,0.03-0.04c-0.05,0.06-0.1,0.12-0.15,0.18
	c-0.32,0.38-0.67,0.74-1.04,1.06c-0.08,0.07-0.16,0.13-0.24,0.2c-0.19,0.17,0.14-0.1,0.01-0.01c-0.05,0.04-0.1,0.08-0.15,0.11
	c-0.18,0.14-0.38,0.26-0.57,0.38c-0.2,0.12-0.4,0.24-0.6,0.34c-0.11,0.06-0.23,0.12-0.34,0.17c-0.08,0.04-0.44,0.19-0.16,0.07
	c-0.44,0.18-0.88,0.33-1.34,0.45c-0.21,0.05-0.42,0.1-0.64,0.14c-0.13,0.02-0.25,0.05-0.38,0.07c-0.3,0.05,0.15-0.01-0.16,0.02
	c-0.47,0.05-0.94,0.07-1.42,0.06c-0.22,0-0.44-0.01-0.65-0.03c-0.13-0.01-0.25-0.03-0.38-0.04c-0.06,0-0.22-0.03,0.07,0.01
	c-0.08-0.01-0.15-0.02-0.23-0.04c-0.47-0.08-0.93-0.18-1.38-0.32c-0.21-0.06-0.41-0.13-0.62-0.21c-0.06-0.02-0.46-0.19-0.16-0.06
	c-0.12-0.05-0.24-0.1-0.35-0.16c-0.43-0.2-0.84-0.44-1.23-0.7c-0.1-0.07-0.19-0.13-0.28-0.2c-0.25-0.18,0.08,0.08-0.12-0.08
	c-0.19-0.16-0.38-0.32-0.55-0.49c-0.17-0.16-0.34-0.33-0.49-0.5c-0.07-0.08-0.14-0.16-0.21-0.24c-0.04-0.05-0.08-0.1-0.12-0.15
	c-0.05-0.07,0.12,0.17-0.02-0.03c-0.33-0.46-0.62-0.93-0.87-1.43c-0.03-0.06-0.06-0.13-0.09-0.19c-0.01-0.03-0.12-0.29-0.06-0.14
	c0.07,0.16-0.04-0.1-0.04-0.11c-0.03-0.08-0.06-0.16-0.09-0.24c-0.1-0.28-0.18-0.56-0.26-0.85c-0.08-0.31-0.15-0.63-0.2-0.95
	c-0.01-0.06-0.02-0.12-0.03-0.19c-0.01-0.08-0.01-0.06,0.01,0.05c-0.01-0.05-0.01-0.1-0.02-0.14c-0.02-0.18-0.04-0.36-0.05-0.54
	c-0.05-0.74-0.03-1.47,0.03-2.21c0.1-1.12-1.53-1.45-2.05-0.56c-0.98,1.69-2.02,3.12-3.45,4.45c-0.68,0.64-1.05,0.92-1.8,1.4
	c-0.3,0.19-0.6,0.36-0.91,0.52c-0.14,0.07-0.27,0.14-0.42,0.21c-0.08,0.04-0.17,0.07-0.25,0.11c0.25-0.11-0.11,0.04-0.15,0.06
	c-0.62,0.24-1.26,0.42-1.92,0.54c-0.08,0.01-0.17,0.03-0.25,0.04c-0.28,0.05,0.24-0.02-0.04,0c-0.17,0.02-0.33,0.04-0.49,0.05
	c-0.33,0.02-0.66,0.03-0.98,0.02c-0.3-0.01-0.59-0.04-0.89-0.07c-0.28-0.03,0.25,0.05-0.03,0c-0.08-0.02-0.16-0.03-0.24-0.04
	c-0.16-0.03-0.32-0.06-0.47-0.1c-0.29-0.07-0.57-0.14-0.85-0.23c-0.15-0.05-0.3-0.1-0.45-0.15c-0.09-0.03-0.6-0.25-0.33-0.13
	c-0.56-0.25-1.1-0.53-1.62-0.86c-0.25-0.16-0.49-0.33-0.72-0.5c-0.04-0.03-0.25-0.2-0.03-0.02c-0.06-0.05-0.13-0.1-0.19-0.15
	c-0.12-0.1-0.25-0.2-0.37-0.31c-0.48-0.43-0.93-0.89-1.34-1.39c-0.05-0.05-0.3-0.39-0.13-0.15c-0.1-0.13-0.19-0.26-0.29-0.39
	c-0.18-0.26-0.36-0.53-0.52-0.81c-0.15-0.25-0.29-0.51-0.42-0.77c-0.07-0.14-0.14-0.29-0.21-0.44c-0.02-0.05-0.13-0.3-0.02-0.03
	c-0.03-0.08-0.07-0.17-0.1-0.26c-0.23-0.58-0.41-1.19-0.54-1.8c-0.03-0.16-0.06-0.32-0.09-0.47c-0.01-0.05-0.02-0.11-0.02-0.16
	c-0.05-0.27,0.02,0.25,0-0.03c-0.03-0.32-0.06-0.64-0.07-0.97c-0.01-0.32,0-0.65,0.02-0.97c0.01-0.14,0.02-0.27,0.04-0.41
	c0.01-0.06,0.05-0.33,0-0.03c0.02-0.11,0.03-0.22,0.05-0.33c0.13-0.72,0.34-1.44,0.62-2.12c-0.1,0.24,0.1-0.22,0.14-0.3
	c0.09-0.19,0.19-0.37,0.29-0.56c0.2-0.35,0.41-0.69,0.65-1.03c0.05-0.08,0.11-0.15,0.17-0.23c0.08-0.1,0.08-0.1,0-0.01
	c0.04-0.05,0.08-0.1,0.12-0.15c0.12-0.15,0.25-0.31,0.39-0.46c0.3-0.33,0.61-0.66,0.94-0.96c0.78-0.73,1.4-1.19,2.32-1.77
	c0.91-0.57,0.56-2.05-0.55-2.05c-0.48,0-0.97-0.02-1.45-0.05c-0.22-0.01-0.44-0.03-0.67-0.06c-0.12-0.01-0.23-0.03-0.35-0.04
	c-0.13-0.01,0.03,0,0.05,0.01c-0.07-0.01-0.13-0.02-0.19-0.03c-0.84-0.13-1.67-0.32-2.48-0.58c-0.18-0.06-0.36-0.12-0.53-0.19
	c-0.09-0.03-0.18-0.07-0.28-0.11c-0.08-0.04-0.29-0.12-0.09-0.04c-0.34-0.15-0.67-0.3-0.99-0.48c-0.32-0.17-0.64-0.37-0.94-0.57
	c-0.14-0.09-0.27-0.19-0.4-0.28c-0.1-0.07-0.16-0.12-0.02-0.01c-0.08-0.06-0.16-0.12-0.24-0.19c-0.5-0.42-0.97-0.89-1.39-1.39
	c-0.05-0.06-0.1-0.13-0.15-0.19c-0.04-0.05,0.13,0.18,0,0c-0.1-0.14-0.2-0.28-0.3-0.43c-0.17-0.26-0.34-0.53-0.49-0.81
	c-0.15-0.27-0.28-0.56-0.41-0.84c0.13,0.29-0.04-0.11-0.08-0.22c-0.06-0.15-0.11-0.3-0.16-0.45c-0.19-0.6-0.32-1.21-0.43-1.83
	c-0.03-0.2,0.02,0.23,0,0.02c-0.01-0.08-0.02-0.16-0.03-0.24c-0.02-0.16-0.03-0.32-0.04-0.47c-0.02-0.3-0.02-0.61-0.02-0.92
	c0.01-0.3,0.02-0.61,0.05-0.92c0.01-0.12,0.08-0.55,0.02-0.22c0.03-0.16,0.05-0.31,0.08-0.47c0.11-0.61,0.27-1.22,0.48-1.8
	c0.05-0.14,0.1-0.28,0.15-0.41c0.02-0.06,0.05-0.13,0.08-0.19c-0.12,0.3-0.01,0.02,0.02-0.05c0.13-0.28,0.26-0.55,0.41-0.82
	c0.15-0.28,0.32-0.55,0.49-0.81c0.08-0.12,0.17-0.24,0.25-0.36c0.04-0.05,0.08-0.11,0.12-0.17c0.09-0.12-0.13,0.17,0.04-0.05
	c0.39-0.48,0.81-0.92,1.28-1.33c0.11-0.1,0.23-0.19,0.35-0.29c0.21-0.17-0.13,0.09,0.02-0.02c0.07-0.05,0.13-0.1,0.2-0.14
	c0.27-0.19,0.54-0.37,0.83-0.53c0.28-0.16,0.57-0.31,0.86-0.44c0.07-0.03,0.13-0.06,0.2-0.09c-0.28,0.12-0.03,0.01,0.04-0.02
	c0.16-0.06,0.32-0.12,0.49-0.18c0.32-0.11,0.65-0.2,0.98-0.28c0.16-0.04,0.33-0.07,0.49-0.1c0.09-0.02,0.18-0.03,0.27-0.05
	c0.07-0.01,0.4-0.05,0.1-0.02c0.75-0.09,1.5-0.12,2.25-0.08c0.19,0.01,0.38,0.02,0.57,0.04c0.1,0.01,0.21,0.02,0.31,0.03
	c0.05,0,0.09,0.01,0.13,0.02c0.17,0.02-0.19-0.03-0.02,0c0.42,0.06,0.84,0.14,1.26,0.23c0.92,0.21,1.83,0.49,2.72,0.83
	c0.1,0.04,0.21,0.08,0.31,0.12c0.04,0.02,0.34,0.14,0.2,0.08c0.25,0.1,0.49,0.22,0.74,0.33c0.54,0.25,1.19,0.15,1.51-0.39
	C21,88.37,20.87,87.59,20.33,87.34z"/>
<path class="st0" d="M34.37,109.09c-0.3-0.44-0.57-0.89-0.81-1.36c-0.05-0.1-0.09-0.2-0.14-0.3c-0.09-0.19-0.01-0.03,0,0.01
	c-0.02-0.06-0.05-0.11-0.07-0.17c-0.08-0.22-0.16-0.44-0.22-0.67c-0.05-0.2-0.1-0.4-0.14-0.61c-0.02-0.11-0.04-0.29-0.02-0.07
	c-0.01-0.11-0.03-0.24-0.03-0.35c-0.01-0.19-0.02-0.38-0.01-0.57c0-0.09,0.01-0.17,0.02-0.26c0.01-0.08,0.07-0.44,0-0.11
	c0.07-0.37,0.14-0.72,0.27-1.07c0.03-0.08,0.06-0.15,0.09-0.23c-0.08,0.22-0.02,0.05,0.03-0.06c0.08-0.17,0.17-0.33,0.27-0.49
	c0.08-0.14,0.18-0.27,0.27-0.4c0.17-0.24-0.08,0.08,0.04-0.05c0.06-0.07,0.12-0.14,0.18-0.21c0.25-0.28,0.53-0.52,0.81-0.78
	c0.14-0.13-0.19,0.13,0.03-0.02c0.07-0.05,0.13-0.1,0.2-0.14c0.16-0.11,0.32-0.21,0.48-0.31c0.15-0.09,0.31-0.17,0.47-0.25
	c0.08-0.04,0.15-0.07,0.23-0.11c0.28-0.13-0.13,0.04,0.1-0.04c0.35-0.12,0.7-0.25,1.07-0.33c0.18-0.04,0.35-0.08,0.53-0.11
	c0.15-0.03,0.24-0.03,0.03-0.01c0.11-0.01,0.22-0.02,0.32-0.04c0.37-0.03,0.75-0.04,1.12-0.01c0.08,0,0.17,0.02,0.25,0.02
	c0.05,0,0.1,0.01,0.14,0.02c0.15,0.01-0.22-0.04-0.08-0.01c0.19,0.04,0.38,0.07,0.57,0.11c0.18,0.04,0.35,0.09,0.52,0.15
	c0.08,0.03,0.16,0.05,0.24,0.08c0.05,0.02,0.09,0.04,0.13,0.05c0.13,0.05-0.25-0.12-0.03-0.01c0.34,0.16,0.66,0.33,0.98,0.54
	c0.05,0.03,0.32,0.23,0.2,0.14c-0.11-0.08,0.14,0.12,0.19,0.15c0.17,0.15,0.33,0.3,0.48,0.46c0.08,0.09,0.16,0.18,0.24,0.27
	c0.06,0.07,0.22,0.29,0.08,0.1c0.15,0.21,0.29,0.42,0.42,0.63c0.13,0.22,0.25,0.44,0.35,0.67c0.03,0.05,0.05,0.11,0.08,0.17
	c0.07,0.16-0.09-0.24,0.02,0.04c0.05,0.12,0.09,0.24,0.13,0.36c0.21,0.59,0.35,1.2,0.46,1.82c0.1,0.58,0.82,0.91,1.35,0.77
	c0.63-0.17,0.86-0.76,0.77-1.35c-0.18-1.13-0.25-2.63-0.11-3.94c0.01-0.08,0.02-0.16,0.03-0.24c0,0.04-0.03,0.22,0,0
	c0.02-0.14,0.05-0.28,0.07-0.42c0.05-0.28,0.12-0.57,0.19-0.84c0.07-0.25,0.15-0.5,0.23-0.75c0.04-0.12,0.09-0.24,0.13-0.35
	c0.02-0.06,0.1-0.24,0,0c0.03-0.07,0.07-0.15,0.1-0.22c0.2-0.43,0.43-0.84,0.7-1.23c0.07-0.1,0.15-0.2,0.22-0.3
	c-0.14,0.19-0.01,0.02,0.06-0.07c0.15-0.19,0.32-0.37,0.49-0.54c0.15-0.15,0.31-0.29,0.47-0.43c0.1-0.08,0.25-0.18,0.05-0.05
	c0.1-0.07,0.2-0.15,0.31-0.22c0.35-0.24,0.72-0.42,1.11-0.61c0.21-0.1-0.19,0.07-0.05,0.02c0.05-0.02,0.1-0.04,0.16-0.06
	c0.08-0.03,0.17-0.06,0.25-0.09c0.21-0.07,0.43-0.13,0.64-0.18c0.2-0.05,0.39-0.08,0.59-0.11c-0.23,0.04-0.11,0.02,0.04,0
	c0.12-0.01,0.24-0.02,0.37-0.03c0.42-0.02,0.82,0.02,1.23,0.05c-0.35-0.02-0.02,0,0.07,0.02c0.1,0.02,0.2,0.04,0.3,0.06
	c0.22,0.05,0.44,0.1,0.65,0.17c0.19,0.06,0.36,0.13,0.54,0.2c0.15,0.05-0.25-0.12-0.04-0.02c0.04,0.02,0.08,0.04,0.12,0.06
	c0.1,0.05,0.21,0.1,0.31,0.15c0.19,0.1,0.37,0.2,0.54,0.31c0.1,0.06,0.2,0.13,0.29,0.19c0.07,0.05,0.37,0.28,0.12,0.08
	c0.35,0.29,0.68,0.59,0.98,0.92c0.08,0.08,0.15,0.17,0.22,0.25c0.03,0.04,0.06,0.08,0.1,0.12c0.17,0.19-0.1-0.14-0.01-0.01
	c0.15,0.2,0.29,0.4,0.42,0.61c0.15,0.24,0.29,0.49,0.41,0.74c0.07,0.13,0.13,0.27,0.19,0.41c0.02,0.05,0.08,0.19-0.01-0.03
	c0.03,0.08,0.07,0.16,0.1,0.24c0.22,0.59,0.39,1.2,0.52,1.82c0.03,0.16,0.06,0.32,0.08,0.47c0.01,0.07,0.02,0.13,0.03,0.19
	c-0.03-0.25,0,0.05,0.01,0.1c0.04,0.38,0.07,0.76,0.08,1.13c0.02,0.79-0.02,1.58-0.1,2.37c-0.12,1.06,1.63,1.55,2.05,0.56
	c0.18-0.42,0.37-0.82,0.6-1.21c0.11-0.18,0.22-0.36,0.34-0.54c0.06-0.08,0.12-0.17,0.18-0.25c-0.12,0.15,0.05-0.06,0.08-0.09
	c0.25-0.3,0.52-0.57,0.81-0.82c0.07-0.06,0.14-0.12,0.22-0.18c-0.2,0.16,0.04-0.03,0.07-0.05c0.15-0.1,0.3-0.2,0.45-0.3
	c0.15-0.09,0.31-0.18,0.47-0.26c0.08-0.04,0.16-0.07,0.24-0.11c0.26-0.12-0.21,0.07,0.06-0.02c0.33-0.11,0.65-0.22,0.99-0.3
	c0.17-0.04,0.34-0.07,0.5-0.09c-0.3,0.04,0.22-0.01,0.3-0.02c0.34-0.02,0.68-0.01,1.02,0.01c0.08,0.01,0.17,0.02,0.25,0.02
	c0.29,0.02-0.24-0.05,0.04,0.01c0.17,0.04,0.34,0.06,0.5,0.1c0.33,0.08,0.66,0.17,0.97,0.29c0.08,0.03,0.16,0.06,0.24,0.09
	c-0.26-0.1,0,0,0.05,0.02c0.15,0.07,0.3,0.15,0.45,0.23c0.3,0.16,0.57,0.35,0.85,0.54c0.24,0.15-0.17-0.15,0.04,0.03
	c0.06,0.05,0.13,0.11,0.19,0.16c0.13,0.11,0.25,0.22,0.37,0.34c0.1,0.1,0.2,0.2,0.29,0.3c0.05,0.06,0.11,0.13,0.16,0.19
	c0.2,0.23-0.01-0.04,0.08,0.11c0.17,0.26,0.34,0.51,0.49,0.78c0.08,0.15,0.15,0.3,0.22,0.46c-0.11-0.26,0,0.01,0.02,0.05
	c0.03,0.11,0.08,0.22,0.11,0.33c0.06,0.2,0.11,0.39,0.15,0.59c0.01,0.06,0.02,0.12,0.03,0.17c0.01,0.06,0.02,0.12,0.03,0.18
	c-0.02-0.15-0.02-0.15-0.01-0.02c0.02,0.44,0.05,0.87,0,1.31c0,0.04-0.04,0.36-0.01,0.1c-0.02,0.1-0.03,0.2-0.05,0.3
	c-0.04,0.24-0.1,0.47-0.17,0.71c-0.15,0.55-0.29,0.88-0.49,1.31c-0.25,0.53-0.15,1.19,0.39,1.51c0.48,0.28,1.25,0.14,1.51-0.39
	c0.86-1.79,1.27-3.72,0.88-5.69c-0.31-1.59-1.21-3.08-2.43-4.14c-2.54-2.22-6.22-2.83-9.29-1.39c-1.91,0.9-3.34,2.62-4.15,4.54
	c0.68,0.19,1.37,0.37,2.05,0.56c0.3-2.72,0.01-5.56-1.28-8c-1.01-1.92-2.65-3.41-4.66-4.22c-3.9-1.58-8.37,0.17-10.41,3.79
	c-1.55,2.76-1.65,6.02-1.18,9.08c0.71-0.2,1.41-0.39,2.12-0.59c-0.36-2.1-1.29-4.21-2.96-5.59c-1.45-1.19-3.26-1.83-5.14-1.8
	c-3.48,0.04-7.12,2.24-8,5.76c-0.58,2.34,0.19,4.73,1.53,6.68c0.34,0.49,0.97,0.71,1.51,0.39
	C34.46,110.31,34.71,109.58,34.37,109.09z"/>
<path class="st0" d="M264.07,21.55c-5.07-2.36-10.76-3.75-16.32-2.48c-4.26,0.98-7.94,3.62-10.37,7.23
	c-2.25,3.35-3.35,7.53-3.1,11.55c0.26,4.27,1.97,8.38,5.01,11.42c3.68,3.7,8.8,5.38,13.91,5.75c0.74,0.05,1.48,0.07,2.22,0.08
	c-0.27-1.01-0.55-2.03-0.82-3.04c-4.39,2.79-8.17,6.77-9.58,11.88c-1.16,4.19-0.56,8.64,1.34,12.51
	c3.75,7.64,12.63,12.51,21.04,10.14c6.09-1.72,10.6-6.65,13.68-11.96c-1.01-0.27-2.03-0.55-3.04-0.82
	c-0.33,3.82,0.29,7.81,2.36,11.1c1.81,2.88,4.51,4.97,7.67,6.19c5.95,2.29,13.28,0.94,17.76-3.66c2.95-3.02,4.33-7.12,4.43-11.29
	c-1.09,0-2.18,0-3.27,0c0.38,3.98,1.66,7.84,4.39,10.84c2.16,2.37,5.18,4,8.34,4.56c6.58,1.17,13.55-1.61,17.19-7.3
	c2.37-3.71,2.87-8.16,2.24-12.44c-1,0.42-1.99,0.84-2.99,1.26c4.59,7.15,12.94,13.68,21.92,11.77c2.38-0.51,4.58-1.64,6.5-3.12
	c1.6-1.23,3.1-2.54,4.25-4.24c2.05-3.04,2.95-6.96,2.71-10.6c-0.29-4.32-2.12-8.43-5.77-10.91c-0.13,1-0.26,1.99-0.39,2.99
	c4.08-1.35,7.68-3.82,10.05-7.44c2.01-3.07,2.96-6.85,2.8-10.5c-0.34-7.5-5.2-14.57-12.68-16.41c-5.29-1.3-10.73,0.08-15.51,2.43
	c0.8,0.61,1.6,1.23,2.4,1.84c1.08-4.66,1.36-9.66-0.13-14.26c-1.18-3.68-3.43-6.88-6.6-9.11c-6.05-4.27-14.43-3.75-20.4,0.39
	c-4.21,2.92-7.09,7.2-8.89,11.95c1.07,0.14,2.14,0.29,3.21,0.43c0.5-6.01-1.9-12.5-7.6-15.25c-4.84-2.33-10.81-1.4-14.24,2.89
	c-2.44,3.05-3.31,6.95-3.32,10.8c1.07-0.14,2.14-0.29,3.21-0.43c-0.96-4.63-3.03-9.21-6.64-12.37c-3.02-2.65-6.8-4.15-10.8-4.41
	c-7.33-0.47-15.3,3.5-18.44,10.33c-1.99,4.33-1.88,9.18-0.12,13.58c0.33,0.82,1.09,1.39,2.01,1.14c0.78-0.21,1.47-1.18,1.14-2.01
	c-0.4-0.99-0.72-2.01-0.95-3.05c-0.04-0.21-0.09-0.43-0.12-0.64c-0.02-0.13-0.04-0.26-0.06-0.38c-0.08-0.43,0.03,0.35-0.01-0.07
	c-0.05-0.45-0.09-0.91-0.1-1.36c-0.02-0.44-0.01-0.88,0.02-1.32c0.01-0.19,0.03-0.39,0.05-0.59c0.01-0.11,0.03-0.23,0.04-0.35
	c-0.05,0.49,0.01-0.04,0.02-0.14c0.14-0.82,0.34-1.62,0.62-2.41c0.06-0.18,0.13-0.35,0.2-0.52c0.13-0.36-0.16,0.33,0.01-0.02
	c0.04-0.1,0.09-0.2,0.14-0.3c0.18-0.38,0.38-0.76,0.59-1.12c0.2-0.33,0.4-0.66,0.62-0.97c0.13-0.18,0.26-0.35,0.39-0.53
	c-0.26,0.36,0.13-0.16,0.22-0.27c0.52-0.62,1.09-1.2,1.7-1.73c0.17-0.15,0.34-0.29,0.51-0.43c0.06-0.05,0.11-0.09,0.17-0.14
	c0.3-0.25-0.3,0.21,0.02-0.02c0.37-0.26,0.72-0.52,1.1-0.76c0.69-0.44,1.42-0.84,2.16-1.18c0.1-0.05,0.21-0.09,0.31-0.14
	c0.34-0.16-0.25,0.1-0.03,0.01c0.19-0.08,0.38-0.15,0.58-0.23c0.42-0.16,0.85-0.3,1.28-0.43c0.8-0.23,1.61-0.42,2.43-0.55
	c0.11-0.02,0.22-0.03,0.34-0.05c-0.42,0.06-0.19,0.02-0.1,0.02c0.22-0.02,0.45-0.05,0.67-0.07c0.42-0.03,0.83-0.05,1.25-0.06
	c0.42-0.01,0.83,0.01,1.25,0.03c0.21,0.01,0.42,0.03,0.62,0.05c0.14,0.01,0.91,0.12,0.41,0.04c0.83,0.13,1.65,0.3,2.45,0.54
	c0.41,0.12,0.8,0.26,1.2,0.42c0.11,0.04,0.22,0.09,0.32,0.13c-0.36-0.15-0.15-0.06-0.07-0.03c0.25,0.12,0.49,0.23,0.74,0.35
	c0.78,0.39,1.51,0.86,2.22,1.37c0.06,0.05,0.38,0.3,0.06,0.04c0.1,0.07,0.19,0.15,0.29,0.23c0.22,0.18,0.44,0.37,0.65,0.57
	c0.37,0.34,0.73,0.7,1.07,1.08c0.19,0.21,0.37,0.42,0.55,0.64c0.07,0.09,0.14,0.17,0.21,0.26c-0.25-0.31,0.1,0.14,0.14,0.2
	c0.32,0.44,0.62,0.9,0.9,1.36c0.32,0.53,0.61,1.08,0.88,1.63c0.33,0.68,0.35,0.74,0.61,1.41c0.5,1.33,0.88,2.71,1.17,4.11
	c0.38,1.83,3.2,1.37,3.21-0.43c0.01-0.87,0.05-1.73,0.15-2.59c0.04-0.34,0.02-0.12,0.01-0.05c0.02-0.1,0.03-0.21,0.05-0.31
	c0.03-0.18,0.06-0.36,0.1-0.54c0.07-0.37,0.15-0.74,0.25-1.1c0.09-0.35,0.2-0.69,0.32-1.04c0.05-0.15,0.11-0.3,0.17-0.46
	c0.03-0.09,0.07-0.17,0.1-0.25c-0.05,0.13-0.08,0.17-0.01,0.02c0.29-0.6,0.58-1.19,0.96-1.74c0.08-0.12,0.16-0.23,0.25-0.35
	c0.04-0.07,0.1-0.13,0.14-0.19c-0.01,0.01-0.19,0.23-0.07,0.09c0.2-0.24,0.4-0.48,0.62-0.7c0.18-0.19,0.38-0.38,0.58-0.55
	c0.1-0.09,0.2-0.17,0.3-0.26c0.21-0.19-0.03,0.02-0.07,0.05c0.07-0.06,0.15-0.11,0.22-0.17c0.45-0.31,0.91-0.59,1.4-0.83
	c0.12-0.05,0.23-0.1,0.34-0.15c-0.43,0.2,0.01,0,0.1-0.03c0.25-0.09,0.5-0.17,0.76-0.25c0.26-0.07,0.52-0.13,0.77-0.18
	c0.12-0.02,0.25-0.04,0.37-0.06c0.18-0.03-0.18,0.02-0.17,0.02c0.09-0.01,0.18-0.02,0.26-0.03c0.53-0.05,1.06-0.06,1.59-0.02
	c0.14,0.01,0.28,0.03,0.42,0.03c0.38,0.02-0.25-0.05,0.04,0c0.28,0.05,0.56,0.1,0.84,0.16c0.53,0.13,1.04,0.3,1.55,0.49
	c0.27,0.1-0.3-0.15,0.06,0.03c0.11,0.06,0.23,0.11,0.35,0.17c0.26,0.13,0.53,0.27,0.78,0.42c0.22,0.13,0.45,0.27,0.66,0.42
	c0.12,0.09,0.25,0.18,0.37,0.26c-0.29-0.21-0.01-0.01,0.11,0.1c0.45,0.37,0.86,0.78,1.25,1.21c0.09,0.1,0.18,0.21,0.27,0.31
	c0.1,0.12,0.26,0.35,0.08,0.09c0.19,0.26,0.38,0.53,0.55,0.8c0.19,0.3,0.37,0.61,0.53,0.92c0.08,0.15,0.15,0.3,0.23,0.46
	c0.05,0.1,0.26,0.61,0.12,0.26c0.28,0.72,0.52,1.44,0.69,2.2c0.09,0.37,0.15,0.75,0.21,1.13c0,0.07,0.05,0.32,0,0
	c0.01,0.13,0.03,0.25,0.04,0.37c0.02,0.2,0.03,0.4,0.05,0.61c0.06,0.94,0.04,1.88-0.04,2.81c-0.07,0.8,0.67,1.52,1.42,1.6
	c0.85,0.1,1.5-0.39,1.79-1.17c0.67-1.78,1.71-3.82,2.95-5.57c0.14-0.2,0.29-0.4,0.44-0.6c-0.19,0.25,0.19-0.23,0.25-0.3
	c0.32-0.39,0.65-0.76,0.99-1.13c0.63-0.67,1.31-1.28,2.02-1.87c0.05-0.03,0.4-0.31,0.09-0.07c0.07-0.05,0.14-0.11,0.21-0.16
	c0.18-0.13,0.36-0.26,0.54-0.38c0.38-0.26,0.76-0.5,1.15-0.73c0.35-0.2,0.7-0.39,1.06-0.57c0.19-0.09,0.38-0.18,0.57-0.27
	c0.1-0.04,0.19-0.09,0.29-0.13c0.11-0.05,0.07-0.03-0.1,0.05c0.07-0.03,0.15-0.06,0.23-0.09c0.77-0.29,1.53-0.54,2.33-0.73
	c0.37-0.09,0.74-0.16,1.12-0.22c0.1-0.02,0.19-0.03,0.3-0.05c0.39-0.07-0.27,0.03-0.02,0c0.22-0.02,0.43-0.05,0.65-0.07
	c0.78-0.06,1.56-0.07,2.34-0.03c0.19,0.01,0.39,0.03,0.58,0.05c0.11,0.01,0.74,0.1,0.26,0.02c0.4,0.06,0.79,0.13,1.19,0.22
	c0.77,0.17,1.52,0.4,2.25,0.69c0.07,0.03,0.14,0.06,0.21,0.09c0.37,0.14-0.33-0.16,0.03,0.02c0.15,0.07,0.32,0.14,0.47,0.22
	c0.36,0.18,0.71,0.37,1.06,0.57c0.33,0.19,0.66,0.41,0.97,0.62c0.14,0.1,0.28,0.21,0.42,0.31c0.2,0.15-0.3-0.25-0.01-0.01
	c0.09,0.07,0.18,0.15,0.27,0.22c0.62,0.52,1.2,1.09,1.73,1.7c0.12,0.14,0.23,0.28,0.35,0.42c0.27,0.31-0.2-0.28,0.04,0.05
	c0.05,0.07,0.1,0.13,0.14,0.19c0.27,0.37,0.51,0.74,0.75,1.13c0.19,0.33,0.38,0.66,0.55,1c0.1,0.19,0.19,0.38,0.28,0.58
	c0.06,0.12,0.11,0.24,0.16,0.35c-0.11-0.26-0.02-0.04,0.04,0.1c0.38,0.96,0.67,1.95,0.89,2.95c0.06,0.26,0.11,0.51,0.15,0.78
	c0.02,0.14,0.05,0.29,0.07,0.43c0.01,0.07,0.07,0.51,0.02,0.15c0.07,0.55,0.12,1.12,0.15,1.68c0.06,1.26,0.03,2.52-0.09,3.78
	c-0.12,1.27-0.34,2.49-0.66,3.9c-0.33,1.44,1.12,2.47,2.4,1.84c2.01-0.99,4.23-1.8,6.6-2.23c0.25-0.05,0.49-0.09,0.74-0.12
	c-0.36,0.05,0.34-0.04,0.43-0.05c0.51-0.05,1.02-0.08,1.54-0.09c0.45-0.01,0.9,0.01,1.35,0.03c0.22,0.01,0.43,0.03,0.65,0.05
	c0.13,0.01,0.26,0.03,0.38,0.05c-0.42-0.05-0.02,0,0.07,0.02c0.89,0.16,1.77,0.37,2.63,0.67c0.19,0.07,0.37,0.14,0.56,0.21
	c0.08,0.03,0.29,0.13-0.06-0.03c0.11,0.05,0.22,0.1,0.32,0.14c0.39,0.18,0.77,0.38,1.14,0.59c0.33,0.19,0.66,0.39,0.97,0.62
	c0.15,0.11,0.31,0.22,0.46,0.33c0.32,0.23-0.27-0.23,0.03,0.02c0.09,0.07,0.18,0.14,0.26,0.22c0.61,0.51,1.17,1.07,1.69,1.67
	c0.14,0.15,0.26,0.32,0.39,0.48c0.06,0.08,0.22,0.3-0.01-0.02c0.06,0.07,0.11,0.15,0.17,0.23c0.25,0.35,0.49,0.71,0.72,1.08
	c0.41,0.67,0.77,1.38,1.09,2.11c-0.19-0.43,0.05,0.14,0.09,0.24c0.07,0.18,0.13,0.35,0.19,0.53c0.14,0.39,0.26,0.8,0.36,1.2
	c0.1,0.37,0.18,0.74,0.26,1.11c0.04,0.19,0.07,0.37,0.1,0.56c0.02,0.11,0.04,0.22,0.05,0.34c-0.07-0.45-0.01-0.09,0,0.02
	c0.09,0.82,0.13,1.63,0.11,2.45c-0.01,0.4-0.04,0.8-0.08,1.2c-0.01,0.12-0.1,0.74-0.02,0.25c-0.03,0.23-0.07,0.45-0.11,0.68
	c-0.14,0.8-0.35,1.58-0.61,2.34c-0.06,0.18-0.13,0.37-0.19,0.54c-0.04,0.1-0.29,0.67-0.1,0.26c-0.18,0.39-0.35,0.78-0.56,1.16
	c-0.22,0.42-0.46,0.82-0.73,1.22c-0.13,0.2-0.27,0.39-0.41,0.59c-0.05,0.06-0.29,0.38-0.03,0.05c-0.08,0.1-0.15,0.19-0.23,0.29
	c-0.63,0.77-1.33,1.48-2.09,2.11c-0.08,0.07-0.17,0.14-0.25,0.2c-0.33,0.27,0.14-0.09-0.13,0.1c-0.21,0.15-0.42,0.31-0.64,0.45
	c-0.45,0.3-0.91,0.58-1.38,0.84c-0.49,0.27-1,0.51-1.51,0.74c0.06-0.03,0.29-0.11-0.01,0.01c-0.16,0.06-0.32,0.13-0.48,0.19
	c-0.3,0.11-0.61,0.22-0.92,0.32c-1.38,0.46-1.57,2.19-0.39,2.99c0.51,0.34,1.05,0.81,1.59,1.42c0.13,0.14,0.25,0.29,0.37,0.43
	c-0.14-0.18,0.14,0.21,0.18,0.26c0.23,0.34,0.45,0.69,0.64,1.04c0.41,0.74,0.53,1.04,0.79,1.89c0.12,0.37,0.22,0.75,0.3,1.13
	c0.07,0.33,0.18,0.94,0.21,1.12c0.37,2.95-0.17,6.19-1.6,8.78c-0.18,0.33-0.38,0.65-0.6,0.97c-0.1,0.15-0.21,0.31-0.33,0.46
	c-0.11,0.15-0.01,0.01,0.01-0.02c-0.08,0.1-0.17,0.21-0.25,0.3c-0.24,0.28-0.49,0.54-0.76,0.8c-0.13,0.13-0.27,0.25-0.41,0.37
	c-0.06,0.05-0.12,0.1-0.18,0.15c-0.08,0.06-0.08,0.06-0.02,0.02c0.15-0.11,0.06-0.04-0.29,0.22c-1.61,1.35-3.26,2.56-5.29,3.21
	c-3.51,1.12-7.13,0.48-10.37-1.24c-3.76-2-6.89-5.14-9.16-8.68c-0.43-0.68-1.28-1-2.04-0.67c-0.8,0.35-1.07,1.1-0.94,1.93
	c0.07,0.51-0.02-0.18,0.02,0.12c0.01,0.1,0.02,0.21,0.04,0.31c0.02,0.23,0.05,0.46,0.06,0.7c0.04,0.47,0.05,0.95,0.05,1.43
	c0,0.41-0.02,0.82-0.05,1.23c-0.02,0.23-0.05,0.47-0.06,0.7c-0.01,0.07-0.05,0.32,0.01-0.02c-0.02,0.14-0.04,0.27-0.06,0.41
	c-0.13,0.78-0.32,1.56-0.57,2.31c-0.06,0.18-0.13,0.36-0.2,0.54c-0.03,0.1-0.27,0.63-0.1,0.25c-0.16,0.36-0.33,0.72-0.52,1.06
	c-0.17,0.3-0.34,0.6-0.53,0.89c-0.11,0.17-0.22,0.34-0.34,0.5c-0.07,0.1-0.43,0.58-0.17,0.25c-0.44,0.56-0.92,1.09-1.44,1.57
	c-0.26,0.24-0.53,0.47-0.79,0.7c-0.36,0.3,0.13-0.09-0.18,0.14c-0.16,0.11-0.31,0.23-0.48,0.34c-0.59,0.41-1.21,0.77-1.85,1.08
	c-0.14,0.07-0.28,0.14-0.42,0.2c-0.09,0.04-0.18,0.08-0.26,0.12c-0.21,0.09,0.28-0.11,0.07-0.03c-0.34,0.13-0.68,0.26-1.03,0.38
	c-0.67,0.22-1.37,0.39-2.07,0.53c-0.17,0.03-0.34,0.06-0.51,0.09c-0.25,0.05,0.29-0.03-0.14,0.02c-0.38,0.04-0.76,0.07-1.14,0.09
	c-0.69,0.03-1.37,0.01-2.06-0.06c-0.09-0.01-0.61-0.07-0.35-0.04c0.26,0.03-0.26-0.05-0.35-0.06c-0.35-0.06-0.71-0.14-1.06-0.23
	c-0.32-0.08-0.62-0.17-0.93-0.27c-0.16-0.05-0.33-0.11-0.49-0.17c-0.09-0.03-0.18-0.07-0.27-0.1c-0.31-0.11,0.3,0.14-0.03-0.01
	c-0.63-0.29-1.24-0.6-1.83-0.98c-0.3-0.19-0.58-0.39-0.86-0.6c0.29,0.21-0.02-0.02-0.13-0.11c-0.17-0.14-0.33-0.28-0.49-0.43
	c-0.31-0.29-0.61-0.59-0.89-0.9c-0.14-0.15-0.27-0.31-0.4-0.47c-0.05-0.06-0.1-0.13-0.15-0.19c0.25,0.32-0.01-0.02-0.05-0.07
	c-0.51-0.73-0.97-1.48-1.35-2.29c-0.05-0.1-0.09-0.21-0.14-0.31c-0.13-0.28,0.05,0.13-0.02-0.05c-0.1-0.23-0.19-0.47-0.27-0.72
	c-0.16-0.45-0.3-0.92-0.43-1.38c-0.13-0.49-0.24-0.98-0.33-1.48c-0.13-0.72-0.13-0.74-0.2-1.48c-0.09-0.88-0.69-1.63-1.63-1.63
	c-0.9,0-1.61,0.75-1.63,1.63c-0.01,0.45-0.03,0.89-0.07,1.34c-0.01,0.1-0.02,0.19-0.03,0.29c0-0.01-0.06,0.46-0.02,0.21
	c0.04-0.25-0.03,0.21-0.03,0.21c-0.02,0.14-0.05,0.27-0.07,0.41c-0.15,0.79-0.35,1.57-0.62,2.32c-0.08,0.2-0.15,0.4-0.23,0.6
	c-0.03,0.07-0.13,0.28,0.02-0.04c-0.03,0.07-0.07,0.15-0.1,0.23c-0.18,0.37-0.36,0.74-0.57,1.1c-0.18,0.31-0.37,0.62-0.58,0.92
	c-0.09,0.13-0.19,0.26-0.27,0.39c-0.17,0.24,0.01-0.01,0.04-0.05c-0.07,0.09-0.15,0.18-0.22,0.27c-0.47,0.57-0.99,1.09-1.54,1.57
	c-0.11,0.1-0.23,0.19-0.35,0.29c-0.29,0.25,0.21-0.15,0.01-0.01c-0.07,0.06-0.15,0.11-0.23,0.17c-0.27,0.2-0.56,0.39-0.85,0.57
	c-0.29,0.18-0.59,0.35-0.89,0.5c-0.17,0.09-0.34,0.17-0.51,0.25c-0.11,0.05-0.66,0.28-0.23,0.11c-0.65,0.26-1.31,0.49-1.99,0.66
	c-0.32,0.08-0.63,0.15-0.94,0.21c-0.19,0.03-0.37,0.07-0.56,0.1c-0.45,0.07,0.22-0.01-0.24,0.03c-0.7,0.07-1.4,0.11-2.11,0.1
	c-0.32-0.01-0.65-0.02-0.97-0.05c-0.19-0.02-0.38-0.04-0.57-0.06c-0.09-0.01-0.32-0.05,0.1,0.02c-0.11-0.02-0.22-0.03-0.34-0.05
	c-0.69-0.11-1.38-0.27-2.05-0.47c-0.31-0.09-0.61-0.19-0.91-0.31c-0.09-0.03-0.68-0.28-0.24-0.09c-0.17-0.07-0.35-0.15-0.52-0.23
	c-0.64-0.3-1.25-0.65-1.83-1.04c-0.14-0.1-0.28-0.19-0.42-0.3c-0.38-0.27,0.13,0.11-0.17-0.13c-0.28-0.23-0.56-0.47-0.82-0.72
	c-0.25-0.24-0.5-0.49-0.73-0.75c-0.1-0.11-0.21-0.23-0.31-0.35c-0.06-0.07-0.13-0.15-0.18-0.23c-0.08-0.1,0.18,0.25-0.04-0.05
	c-0.49-0.67-0.92-1.38-1.29-2.13c-0.05-0.09-0.09-0.19-0.13-0.28c-0.02-0.04-0.18-0.43-0.09-0.21c0.1,0.24-0.06-0.15-0.06-0.16
	c-0.05-0.12-0.09-0.24-0.14-0.36c-0.15-0.41-0.27-0.84-0.39-1.26c-0.12-0.46-0.22-0.93-0.3-1.41c-0.02-0.09-0.03-0.18-0.05-0.28
	c-0.02-0.12-0.02-0.09,0.01,0.08c-0.01-0.07-0.02-0.14-0.03-0.21c-0.03-0.27-0.06-0.53-0.07-0.8c-0.07-1.09-0.05-2.19,0.05-3.28
	c0.14-1.66-2.27-2.15-3.04-0.82c-1.46,2.51-3,4.63-5.13,6.6c-1.01,0.94-1.56,1.37-2.68,2.08c-0.44,0.27-0.89,0.53-1.35,0.77
	c-0.21,0.1-0.41,0.21-0.62,0.3c-0.12,0.06-0.25,0.11-0.37,0.17c0.37-0.16-0.16,0.06-0.23,0.09c-0.92,0.35-1.87,0.62-2.84,0.8
	c-0.12,0.02-0.25,0.04-0.37,0.06c-0.42,0.07,0.36-0.03-0.06,0.01c-0.25,0.02-0.49,0.05-0.73,0.07c-0.49,0.03-0.97,0.04-1.46,0.02
	c-0.44-0.02-0.88-0.06-1.32-0.1c-0.41-0.04,0.37,0.07-0.04-0.01c-0.12-0.02-0.24-0.04-0.36-0.06c-0.23-0.04-0.47-0.09-0.7-0.14
	c-0.42-0.1-0.85-0.21-1.26-0.34c-0.23-0.07-0.45-0.15-0.67-0.23c-0.14-0.05-0.89-0.37-0.49-0.19c-0.83-0.37-1.64-0.79-2.41-1.28
	c-0.37-0.23-0.73-0.49-1.08-0.74c-0.06-0.05-0.38-0.3-0.05-0.03c-0.09-0.07-0.19-0.15-0.28-0.22c-0.18-0.15-0.37-0.3-0.54-0.46
	c-0.71-0.64-1.38-1.32-1.99-2.06c-0.07-0.08-0.45-0.58-0.19-0.23c-0.14-0.19-0.29-0.38-0.42-0.58c-0.27-0.39-0.53-0.79-0.78-1.2
	c-0.22-0.38-0.43-0.76-0.63-1.15c-0.11-0.21-0.21-0.43-0.31-0.65c-0.03-0.07-0.19-0.45-0.02-0.05c-0.05-0.13-0.1-0.26-0.15-0.39
	c-0.34-0.87-0.61-1.77-0.79-2.68c-0.04-0.23-0.09-0.47-0.13-0.7c-0.01-0.08-0.02-0.16-0.03-0.23c-0.07-0.41,0.03,0.37-0.01-0.04
	c-0.04-0.48-0.09-0.96-0.1-1.44c-0.01-0.48,0-0.97,0.03-1.45c0.02-0.2,0.03-0.41,0.06-0.61c0.01-0.09,0.08-0.5,0.01-0.05
	c0.03-0.16,0.05-0.33,0.08-0.49c0.19-1.08,0.51-2.13,0.93-3.15c-0.15,0.35,0.15-0.32,0.21-0.45c0.14-0.28,0.28-0.55,0.43-0.83
	c0.29-0.52,0.61-1.03,0.96-1.52c0.08-0.11,0.17-0.23,0.25-0.34c0.11-0.15,0.11-0.15,0.01-0.01c0.06-0.07,0.12-0.15,0.18-0.23
	c0.18-0.23,0.38-0.46,0.57-0.68c0.44-0.5,0.91-0.98,1.4-1.43c1.16-1.09,2.08-1.76,3.45-2.63c1.34-0.85,0.84-3.04-0.82-3.04
	c-0.71,0-1.44-0.02-2.15-0.07c-0.33-0.02-0.66-0.05-0.99-0.09c-0.17-0.02-0.34-0.04-0.52-0.06c-0.19-0.02,0.05,0.01,0.07,0.01
	c-0.1-0.01-0.19-0.03-0.29-0.04c-1.25-0.19-2.48-0.47-3.68-0.86c-0.26-0.09-0.53-0.18-0.79-0.27c-0.14-0.05-0.27-0.1-0.41-0.16
	c-0.13-0.05-0.43-0.18-0.13-0.05c-0.5-0.22-0.99-0.45-1.48-0.72c-0.48-0.26-0.94-0.54-1.4-0.85c-0.21-0.14-0.41-0.28-0.6-0.42
	c-0.15-0.11-0.24-0.18-0.03-0.02c-0.11-0.09-0.24-0.18-0.35-0.28c-0.75-0.62-1.44-1.32-2.06-2.07c-0.08-0.1-0.15-0.19-0.23-0.29
	c-0.06-0.07,0.19,0.26,0-0.01c-0.15-0.21-0.3-0.42-0.45-0.64c-0.26-0.39-0.5-0.79-0.72-1.2c-0.22-0.41-0.41-0.82-0.61-1.25
	c0.2,0.43-0.06-0.16-0.12-0.32c-0.09-0.22-0.16-0.45-0.23-0.67c-0.29-0.89-0.48-1.79-0.64-2.71c-0.05-0.3,0.03,0.34,0.01,0.03
	c-0.01-0.12-0.03-0.23-0.04-0.35c-0.02-0.23-0.04-0.47-0.06-0.7c-0.03-0.45-0.03-0.91-0.03-1.36c0.01-0.45,0.04-0.91,0.08-1.36
	c0.02-0.17,0.12-0.81,0.03-0.32c0.04-0.23,0.07-0.46,0.11-0.7c0.17-0.91,0.4-1.81,0.71-2.68c0.07-0.21,0.15-0.41,0.23-0.61
	c0.03-0.09,0.07-0.19,0.11-0.28c-0.18,0.45-0.01,0.03,0.04-0.07c0.19-0.41,0.39-0.82,0.61-1.22c0.23-0.41,0.47-0.81,0.73-1.21
	c0.12-0.18,0.25-0.36,0.38-0.54c0.06-0.08,0.12-0.16,0.18-0.25c0.13-0.18-0.2,0.25,0.06-0.07c0.58-0.71,1.21-1.37,1.91-1.97
	c0.17-0.15,0.34-0.29,0.51-0.42c0.31-0.25-0.2,0.14,0.03-0.03c0.1-0.07,0.19-0.14,0.29-0.21c0.4-0.28,0.81-0.54,1.23-0.78
	c0.41-0.24,0.84-0.46,1.28-0.65c0.1-0.05,0.19-0.09,0.3-0.13c-0.42,0.18-0.04,0.02,0.06-0.02c0.24-0.09,0.48-0.18,0.72-0.26
	c0.48-0.16,0.96-0.3,1.45-0.41c0.24-0.06,0.49-0.11,0.73-0.15c0.13-0.02,0.27-0.05,0.4-0.07c0.11-0.02,0.6-0.08,0.15-0.02
	c1.11-0.13,2.22-0.18,3.34-0.12c0.29,0.02,0.57,0.03,0.85,0.06c0.15,0.02,0.31,0.03,0.46,0.05c0.07,0.01,0.13,0.02,0.2,0.02
	c0.25,0.03-0.28-0.04-0.03-0.01c0.63,0.09,1.25,0.21,1.87,0.34c1.37,0.31,2.72,0.73,4.03,1.24c0.15,0.06,0.31,0.12,0.46,0.18
	c0.06,0.02,0.5,0.21,0.3,0.13c0.37,0.15,0.73,0.32,1.1,0.49c0.8,0.37,1.76,0.22,2.24-0.58C265.06,23.08,264.87,21.92,264.07,21.55z"
	/>
<path class="st0" d="M284.91,53.83c-0.45-0.65-0.85-1.32-1.19-2.02c-0.08-0.15-0.14-0.3-0.21-0.45c-0.13-0.28-0.02-0.05,0,0.01
	c-0.03-0.09-0.07-0.17-0.1-0.25c-0.12-0.33-0.23-0.65-0.33-0.99c-0.08-0.3-0.15-0.6-0.21-0.9c-0.03-0.17-0.06-0.43-0.02-0.1
	c-0.02-0.17-0.04-0.35-0.05-0.52c-0.02-0.28-0.02-0.57-0.02-0.85c0.01-0.13,0.01-0.26,0.02-0.39c0.01-0.11,0.1-0.66,0.01-0.16
	c0.1-0.54,0.21-1.07,0.4-1.59c0.04-0.11,0.08-0.23,0.13-0.34c-0.13,0.33-0.03,0.08,0.05-0.09c0.12-0.25,0.25-0.49,0.39-0.73
	c0.13-0.21,0.26-0.41,0.4-0.6c0.25-0.36-0.12,0.12,0.06-0.08c0.09-0.1,0.18-0.21,0.27-0.31c0.37-0.42,0.79-0.78,1.21-1.15
	c0.21-0.19-0.29,0.19,0.05-0.03c0.1-0.07,0.2-0.14,0.3-0.21c0.23-0.16,0.47-0.31,0.71-0.45c0.23-0.13,0.46-0.26,0.7-0.38
	c0.11-0.06,0.22-0.11,0.34-0.16c0.41-0.19-0.2,0.06,0.15-0.06c0.53-0.18,1.04-0.37,1.59-0.5c0.26-0.06,0.53-0.11,0.79-0.16
	c0.22-0.04,0.35-0.05,0.05-0.01c0.16-0.02,0.32-0.03,0.48-0.05c0.56-0.05,1.11-0.05,1.67-0.02c0.12,0.01,0.25,0.02,0.38,0.03
	c0.07,0.01,0.14,0.02,0.21,0.02c0.22,0.02-0.33-0.06-0.11-0.02c0.28,0.05,0.57,0.1,0.85,0.17c0.26,0.06,0.52,0.14,0.78,0.22
	c0.12,0.04,0.24,0.08,0.36,0.13c0.07,0.02,0.14,0.05,0.2,0.08c0.2,0.07-0.37-0.18-0.04-0.02c0.5,0.24,0.98,0.49,1.45,0.8
	c0.07,0.05,0.47,0.34,0.29,0.2c-0.17-0.13,0.21,0.17,0.28,0.23c0.25,0.22,0.49,0.45,0.71,0.69c0.12,0.13,0.24,0.26,0.36,0.4
	c0.09,0.11,0.33,0.43,0.13,0.15c0.22,0.31,0.43,0.62,0.63,0.94c0.2,0.32,0.37,0.66,0.53,1c0.04,0.08,0.08,0.17,0.11,0.25
	c0.11,0.23-0.14-0.36,0.03,0.06c0.07,0.18,0.14,0.35,0.2,0.53c0.31,0.88,0.53,1.78,0.69,2.7c0.15,0.87,1.22,1.36,2.01,1.14
	c0.93-0.26,1.28-1.13,1.14-2.01c-0.26-1.68-0.37-3.91-0.17-5.85c0.01-0.12,0.03-0.24,0.04-0.36c-0.01,0.06-0.05,0.33,0,0.01
	c0.03-0.21,0.07-0.42,0.1-0.62c0.08-0.42,0.17-0.84,0.28-1.25c0.1-0.38,0.22-0.74,0.34-1.11c0.06-0.18,0.13-0.35,0.2-0.53
	c0.03-0.09,0.15-0.35,0-0.01c0.05-0.11,0.1-0.22,0.15-0.33c0.3-0.64,0.64-1.25,1.04-1.83c0.1-0.15,0.22-0.3,0.33-0.45
	c-0.21,0.29-0.02,0.03,0.09-0.1c0.23-0.27,0.48-0.54,0.73-0.8c0.22-0.22,0.46-0.43,0.7-0.64c0.14-0.12,0.37-0.27,0.08-0.07
	c0.15-0.11,0.3-0.22,0.46-0.33c0.52-0.35,1.08-0.63,1.64-0.9c0.32-0.15-0.28,0.11-0.07,0.03c0.08-0.03,0.15-0.06,0.23-0.09
	c0.13-0.05,0.25-0.09,0.38-0.13c0.31-0.1,0.63-0.19,0.95-0.27c0.29-0.07,0.58-0.11,0.88-0.17c-0.34,0.06-0.17,0.02,0.06,0
	c0.18-0.02,0.36-0.03,0.54-0.04c0.62-0.03,1.21,0.03,1.82,0.07c-0.52-0.03-0.03,0,0.1,0.02c0.15,0.03,0.29,0.06,0.44,0.09
	c0.33,0.07,0.65,0.15,0.97,0.26c0.27,0.09,0.54,0.19,0.81,0.29c0.22,0.08-0.38-0.18-0.06-0.03c0.06,0.03,0.13,0.06,0.18,0.09
	c0.15,0.07,0.31,0.15,0.46,0.22c0.27,0.14,0.54,0.3,0.81,0.46c0.15,0.09,0.29,0.19,0.43,0.29c0.1,0.07,0.54,0.42,0.18,0.12
	c0.52,0.42,1.01,0.87,1.46,1.37c0.11,0.13,0.22,0.25,0.33,0.38c0.05,0.06,0.09,0.11,0.14,0.17c0.25,0.29-0.15-0.21-0.01-0.02
	c0.22,0.3,0.42,0.59,0.62,0.9c0.22,0.35,0.42,0.72,0.61,1.09c0.1,0.2,0.2,0.41,0.29,0.61c0.04,0.07,0.11,0.29-0.02-0.05
	c0.05,0.12,0.1,0.23,0.14,0.35c0.33,0.88,0.58,1.78,0.77,2.71c0.05,0.23,0.09,0.47,0.12,0.7c0.02,0.1,0.03,0.19,0.04,0.29
	c-0.05-0.37,0.01,0.07,0.01,0.15c0.06,0.56,0.1,1.12,0.12,1.68c0.03,1.17-0.03,2.35-0.15,3.51c-0.17,1.57,2.42,2.29,3.04,0.82
	c0.26-0.62,0.56-1.22,0.9-1.8c0.16-0.27,0.33-0.54,0.51-0.8c0.09-0.13,0.18-0.25,0.27-0.37c-0.17,0.22,0.08-0.09,0.12-0.14
	c0.37-0.44,0.77-0.85,1.21-1.22c0.1-0.09,0.21-0.18,0.32-0.26c-0.29,0.23,0.06-0.05,0.11-0.07c0.22-0.15,0.45-0.3,0.67-0.44
	c0.23-0.14,0.46-0.26,0.7-0.38c0.12-0.06,0.24-0.11,0.35-0.17c0.39-0.18-0.31,0.1,0.09-0.03c0.49-0.16,0.97-0.33,1.48-0.44
	c0.25-0.06,0.5-0.1,0.75-0.14c-0.45,0.06,0.32-0.02,0.45-0.03c0.5-0.03,1.01-0.02,1.52,0.02c0.12,0.01,0.25,0.03,0.38,0.03
	c0.42,0.03-0.35-0.07,0.06,0.01c0.25,0.05,0.5,0.09,0.74,0.14c0.49,0.11,0.97,0.26,1.44,0.43c0.12,0.05,0.23,0.09,0.35,0.14
	c-0.39-0.15,0.01,0.01,0.07,0.03c0.22,0.11,0.45,0.22,0.67,0.34c0.44,0.24,0.85,0.52,1.26,0.8c0.35,0.23-0.25-0.22,0.06,0.05
	c0.09,0.08,0.2,0.16,0.29,0.24c0.19,0.16,0.37,0.33,0.55,0.5c0.15,0.15,0.29,0.3,0.43,0.45c0.08,0.09,0.16,0.19,0.24,0.28
	c0.29,0.34-0.02-0.06,0.13,0.16c0.25,0.38,0.51,0.76,0.73,1.16c0.12,0.22,0.23,0.45,0.33,0.68c-0.17-0.38,0,0.02,0.02,0.08
	c0.05,0.16,0.11,0.32,0.16,0.49c0.09,0.29,0.16,0.58,0.22,0.88c0.02,0.09,0.04,0.17,0.05,0.26c0.02,0.09,0.03,0.17,0.04,0.26
	c-0.03-0.22-0.03-0.23-0.01-0.03c0.03,0.65,0.07,1.29,0.01,1.94c-0.01,0.05-0.06,0.53-0.01,0.14c-0.02,0.15-0.05,0.29-0.07,0.44
	c-0.06,0.35-0.15,0.7-0.25,1.05c-0.23,0.82-0.42,1.3-0.73,1.95c-0.38,0.8-0.22,1.76,0.58,2.24c0.71,0.42,1.85,0.21,2.24-0.58
	c1.27-2.65,1.88-5.53,1.31-8.44c-0.46-2.36-1.8-4.58-3.6-6.15c-3.78-3.3-9.23-4.2-13.79-2.06c-2.84,1.33-4.95,3.9-6.16,6.74
	c1.01,0.27,2.03,0.55,3.04,0.82c0.44-4.03,0.02-8.25-1.9-11.88c-1.5-2.84-3.94-5.07-6.91-6.27c-5.79-2.34-12.42,0.25-15.45,5.62
	c-2.31,4.09-2.45,8.94-1.74,13.47c1.05-0.29,2.1-0.58,3.15-0.87c-0.54-3.11-1.92-6.25-4.4-8.3c-2.16-1.77-4.84-2.71-7.64-2.68
	c-5.17,0.06-10.57,3.32-11.87,8.55c-0.86,3.48,0.28,7.03,2.27,9.91c0.5,0.73,1.43,1.05,2.24,0.58
	C285.04,55.65,285.41,54.57,284.91,53.83z"/>
<path class="st0" d="M1049.61,65.48c-4.82-2.24-10.23-3.57-15.52-2.36c-4.05,0.93-7.56,3.44-9.87,6.87
	c-2.14,3.18-3.19,7.16-2.95,10.99c0.25,4.07,1.88,7.97,4.77,10.87c3.5,3.52,8.37,5.12,13.23,5.47c0.7,0.05,1.41,0.07,2.12,0.08
	c-0.27-0.96-0.53-1.93-0.79-2.9c-4.18,2.66-7.77,6.44-9.12,11.3c-1.09,3.98-0.52,8.22,1.28,11.9c3.57,7.27,12.02,11.9,20.02,9.64
	c5.79-1.64,10.08-6.33,13.02-11.38c-0.97-0.26-1.94-0.52-2.9-0.78c-0.31,3.63,0.28,7.44,2.24,10.56c1.72,2.74,4.3,4.73,7.3,5.89
	c5.66,2.18,12.64,0.9,16.9-3.48c2.81-2.87,4.12-6.77,4.22-10.74c-1.04,0-2.08,0-3.11,0c0.36,3.79,1.58,7.46,4.17,10.31
	c2.06,2.26,4.93,3.8,7.93,4.34c6.26,1.11,12.9-1.54,16.35-6.94c2.26-3.53,2.73-7.76,2.13-11.84c-0.95,0.4-1.89,0.8-2.84,1.2
	c4.37,6.8,12.31,13.02,20.86,11.2c2.26-0.49,4.36-1.56,6.18-2.97c1.52-1.17,2.95-2.42,4.04-4.03c1.96-2.89,2.81-6.62,2.58-10.08
	c-0.27-4.11-2.01-8.02-5.48-10.38c-0.13,0.95-0.25,1.89-0.37,2.84c3.88-1.28,7.31-3.63,9.56-7.08c1.92-2.92,2.82-6.52,2.66-9.99
	c-0.32-7.14-4.95-13.86-12.06-15.62c-5.03-1.24-10.21,0.08-14.76,2.31c0.76,0.58,1.52,1.17,2.28,1.75
	c1.02-4.43,1.29-9.19-0.12-13.57c-1.13-3.5-3.27-6.55-6.28-8.67c-5.76-4.07-13.73-3.57-19.4,0.37c-4.01,2.78-6.75,6.85-8.46,11.37
	c1.02,0.14,2.04,0.28,3.06,0.41c0.47-5.72-1.81-11.89-7.24-14.51c-4.6-2.22-10.28-1.33-13.54,2.75c-2.33,2.9-3.15,6.61-3.17,10.27
	c1.02-0.14,2.04-0.28,3.06-0.41c-0.91-4.4-2.89-8.76-6.32-11.77c-2.87-2.53-6.47-3.95-10.27-4.19c-6.98-0.45-14.56,3.33-17.55,9.82
	c-1.9,4.12-1.79,8.74-0.12,12.92c0.31,0.78,1.04,1.32,1.91,1.08c0.74-0.2,1.4-1.13,1.09-1.91c-0.38-0.94-0.69-1.91-0.91-2.9
	c-0.04-0.2-0.08-0.41-0.12-0.61c-0.02-0.12-0.03-0.24-0.06-0.36c-0.07-0.41,0.04,0.34-0.01-0.07c-0.04-0.43-0.08-0.87-0.09-1.3
	c-0.02-0.42-0.02-0.84,0.01-1.26c0.01-0.18,0.03-0.38,0.05-0.56c0.01-0.11,0.02-0.22,0.03-0.33c-0.05,0.46,0.01-0.04,0.03-0.13
	c0.13-0.78,0.32-1.55,0.59-2.29c0.06-0.17,0.12-0.33,0.19-0.5c0.12-0.34-0.15,0.32,0-0.02c0.05-0.09,0.09-0.19,0.14-0.29
	c0.16-0.36,0.35-0.72,0.56-1.07c0.18-0.32,0.38-0.63,0.58-0.93c0.12-0.17,0.25-0.34,0.37-0.51c-0.25,0.34,0.13-0.15,0.22-0.26
	c0.49-0.59,1.03-1.14,1.61-1.64c0.16-0.14,0.32-0.27,0.49-0.41c0.05-0.04,0.11-0.09,0.16-0.13c0.28-0.23-0.28,0.2,0.02-0.02
	c0.35-0.24,0.69-0.5,1.05-0.72c0.66-0.42,1.35-0.79,2.05-1.12c0.1-0.04,0.2-0.09,0.3-0.13c0.33-0.15-0.24,0.1-0.03,0.01
	c0.18-0.08,0.37-0.15,0.55-0.22c0.4-0.15,0.81-0.29,1.22-0.41c0.76-0.22,1.53-0.4,2.31-0.52c0.11-0.02,0.21-0.03,0.32-0.05
	c-0.4,0.05-0.18,0.02-0.09,0.02c0.21-0.02,0.43-0.05,0.64-0.07c0.4-0.03,0.79-0.05,1.19-0.05c0.39-0.01,0.79,0.01,1.18,0.03
	c0.2,0.01,0.4,0.03,0.6,0.04c0.13,0.01,0.86,0.11,0.39,0.04c0.79,0.13,1.56,0.28,2.33,0.52c0.39,0.11,0.76,0.25,1.14,0.4
	c0.1,0.04,0.21,0.08,0.3,0.13c-0.34-0.14-0.14-0.06-0.06-0.03c0.23,0.11,0.47,0.22,0.7,0.33c0.74,0.38,1.44,0.82,2.11,1.3
	c0.06,0.04,0.37,0.29,0.06,0.04c0.09,0.07,0.18,0.15,0.27,0.22c0.21,0.17,0.42,0.35,0.62,0.54c0.35,0.33,0.69,0.66,1.01,1.02
	c0.18,0.2,0.36,0.4,0.53,0.6c0.06,0.08,0.13,0.16,0.19,0.24c-0.24-0.3,0.1,0.13,0.14,0.19c0.3,0.42,0.59,0.85,0.86,1.3
	c0.3,0.51,0.58,1.02,0.84,1.55c0.31,0.65,0.33,0.7,0.57,1.34c0.48,1.27,0.84,2.58,1.12,3.91c0.36,1.74,3.05,1.31,3.05-0.41
	c0.01-0.83,0.05-1.65,0.14-2.47c0.04-0.32,0.02-0.11,0.01-0.05c0.01-0.1,0.03-0.2,0.05-0.3c0.02-0.17,0.06-0.34,0.09-0.51
	c0.07-0.35,0.15-0.7,0.24-1.05c0.09-0.33,0.19-0.66,0.3-0.99c0.05-0.15,0.1-0.29,0.16-0.44c0.03-0.08,0.06-0.16,0.09-0.24
	c-0.04,0.13-0.07,0.16,0,0.02c0.27-0.57,0.55-1.13,0.91-1.66c0.07-0.11,0.15-0.22,0.23-0.34c0.05-0.07,0.09-0.13,0.14-0.19
	c-0.01,0.01-0.18,0.22-0.07,0.09c0.19-0.23,0.38-0.46,0.59-0.67c0.18-0.19,0.36-0.36,0.55-0.53c0.09-0.08,0.19-0.16,0.28-0.24
	c0.21-0.18-0.02,0.02-0.06,0.04c0.07-0.05,0.14-0.1,0.21-0.16c0.43-0.3,0.87-0.57,1.33-0.79c0.11-0.05,0.22-0.1,0.33-0.15
	c-0.41,0.19,0.01,0,0.1-0.03c0.24-0.09,0.48-0.16,0.72-0.23c0.25-0.07,0.49-0.13,0.74-0.17c0.11-0.02,0.23-0.04,0.35-0.06
	c0.17-0.03-0.18,0.02-0.17,0.02c0.08-0.01,0.17-0.02,0.25-0.03c0.51-0.04,1.01-0.05,1.52-0.02c0.13,0.01,0.26,0.03,0.4,0.03
	c0.36,0.02-0.24-0.05,0.04,0c0.26,0.05,0.53,0.09,0.8,0.15c0.5,0.12,0.98,0.29,1.47,0.46c0.26,0.09-0.29-0.14,0.06,0.03
	c0.11,0.05,0.23,0.1,0.33,0.16c0.25,0.13,0.5,0.26,0.74,0.4c0.22,0.13,0.43,0.26,0.63,0.4c0.12,0.08,0.23,0.17,0.35,0.25
	c-0.28-0.2-0.01-0.01,0.11,0.09c0.42,0.35,0.82,0.74,1.18,1.15c0.09,0.1,0.18,0.2,0.26,0.3c0.09,0.11,0.25,0.33,0.08,0.09
	c0.18,0.25,0.36,0.5,0.52,0.76c0.18,0.28,0.35,0.58,0.5,0.88c0.08,0.14,0.15,0.29,0.22,0.44c0.05,0.09,0.25,0.58,0.12,0.25
	c0.26,0.68,0.49,1.37,0.65,2.09c0.08,0.35,0.14,0.71,0.2,1.07c0.01,0.07,0.05,0.3,0,0c0.01,0.12,0.03,0.23,0.04,0.35
	c0.02,0.19,0.03,0.38,0.04,0.58c0.06,0.89,0.04,1.79-0.04,2.67c-0.06,0.76,0.64,1.44,1.35,1.52c0.82,0.1,1.43-0.37,1.71-1.11
	c0.63-1.69,1.63-3.64,2.81-5.3c0.13-0.19,0.27-0.38,0.42-0.57c-0.18,0.24,0.18-0.22,0.23-0.28c0.3-0.37,0.61-0.72,0.94-1.07
	c0.6-0.64,1.25-1.22,1.92-1.77c0.05-0.03,0.38-0.29,0.09-0.07c0.07-0.05,0.14-0.1,0.2-0.15c0.17-0.12,0.34-0.24,0.51-0.36
	c0.36-0.24,0.73-0.47,1.1-0.69c0.33-0.19,0.67-0.38,1.01-0.54c0.18-0.09,0.36-0.17,0.54-0.26c0.09-0.04,0.18-0.08,0.27-0.12
	c0.1-0.04,0.07-0.03-0.1,0.04c0.07-0.03,0.15-0.06,0.22-0.09c0.73-0.27,1.46-0.52,2.22-0.7c0.35-0.08,0.71-0.15,1.06-0.21
	c0.09-0.02,0.19-0.03,0.29-0.04c0.37-0.07-0.27,0.03-0.03,0c0.21-0.02,0.41-0.05,0.62-0.07c0.74-0.06,1.48-0.07,2.22-0.03
	c0.19,0.01,0.37,0.03,0.55,0.04c0.11,0.01,0.71,0.1,0.25,0.02c0.38,0.06,0.76,0.13,1.13,0.21c0.73,0.16,1.45,0.38,2.15,0.65
	c0.06,0.03,0.13,0.05,0.2,0.08c0.35,0.14-0.31-0.15,0.03,0.02c0.15,0.07,0.3,0.14,0.45,0.21c0.34,0.17,0.68,0.35,1.01,0.54
	c0.31,0.19,0.62,0.39,0.92,0.59c0.14,0.09,0.27,0.2,0.41,0.29c0.19,0.14-0.29-0.24-0.01-0.01c0.09,0.07,0.18,0.14,0.26,0.21
	c0.59,0.5,1.14,1.04,1.64,1.62c0.12,0.13,0.22,0.27,0.33,0.4c0.26,0.3-0.19-0.27,0.04,0.05c0.04,0.07,0.09,0.13,0.14,0.19
	c0.25,0.35,0.49,0.71,0.71,1.08c0.19,0.31,0.36,0.63,0.53,0.95c0.09,0.18,0.18,0.36,0.26,0.55c0.06,0.11,0.11,0.23,0.16,0.34
	c-0.11-0.24-0.02-0.04,0.04,0.09c0.35,0.91,0.64,1.85,0.84,2.81c0.06,0.24,0.11,0.49,0.15,0.74c0.02,0.14,0.05,0.27,0.07,0.41
	c0.01,0.07,0.06,0.48,0.02,0.15c0.06,0.53,0.11,1.06,0.14,1.59c0.06,1.2,0.03,2.4-0.09,3.59c-0.11,1.21-0.32,2.37-0.62,3.71
	c-0.32,1.37,1.06,2.35,2.28,1.75c1.91-0.94,4.03-1.71,6.28-2.12c0.23-0.04,0.47-0.08,0.7-0.11c-0.34,0.05,0.33-0.04,0.41-0.04
	c0.48-0.05,0.97-0.08,1.46-0.09c0.43-0.01,0.86,0.01,1.28,0.03c0.21,0.01,0.42,0.03,0.62,0.05c0.12,0.01,0.25,0.03,0.37,0.04
	c-0.4-0.05-0.02,0,0.07,0.02c0.85,0.15,1.68,0.35,2.5,0.64c0.18,0.07,0.35,0.14,0.53,0.2c0.08,0.03,0.27,0.12-0.06-0.03
	c0.1,0.04,0.21,0.09,0.3,0.14c0.37,0.17,0.73,0.36,1.09,0.56c0.31,0.19,0.62,0.38,0.92,0.59c0.15,0.1,0.3,0.21,0.44,0.32
	c0.31,0.22-0.25-0.22,0.03,0.02c0.08,0.07,0.17,0.14,0.25,0.21c0.58,0.48,1.12,1.02,1.61,1.59c0.13,0.15,0.25,0.3,0.37,0.46
	c0.06,0.08,0.21,0.29-0.01-0.02c0.06,0.07,0.11,0.14,0.16,0.22c0.24,0.34,0.47,0.67,0.69,1.03c0.39,0.64,0.73,1.32,1.03,2.01
	c-0.18-0.41,0.05,0.13,0.09,0.23c0.06,0.17,0.12,0.34,0.18,0.51c0.13,0.38,0.25,0.76,0.34,1.14c0.1,0.35,0.18,0.7,0.25,1.06
	c0.03,0.18,0.06,0.35,0.1,0.53c0.01,0.11,0.03,0.21,0.05,0.32c-0.07-0.43-0.01-0.08,0,0.02c0.08,0.78,0.12,1.55,0.1,2.33
	c-0.01,0.38-0.03,0.76-0.07,1.14c-0.01,0.11-0.09,0.71-0.02,0.24c-0.04,0.22-0.07,0.43-0.11,0.65c-0.13,0.76-0.33,1.5-0.57,2.23
	c-0.06,0.17-0.12,0.35-0.19,0.52c-0.04,0.1-0.27,0.64-0.09,0.24c-0.17,0.37-0.34,0.74-0.53,1.1c-0.22,0.4-0.44,0.78-0.7,1.16
	c-0.12,0.19-0.25,0.38-0.38,0.56c-0.05,0.06-0.28,0.36-0.03,0.05c-0.08,0.09-0.15,0.18-0.22,0.27c-0.6,0.73-1.27,1.4-1.99,2.01
	c-0.08,0.07-0.16,0.13-0.24,0.19c-0.31,0.26,0.13-0.08-0.12,0.09c-0.2,0.14-0.4,0.29-0.61,0.43c-0.42,0.29-0.86,0.55-1.31,0.8
	c-0.47,0.26-0.95,0.49-1.44,0.7c0.06-0.03,0.28-0.11-0.01,0.01c-0.15,0.06-0.3,0.12-0.45,0.18c-0.29,0.11-0.58,0.21-0.87,0.3
	c-1.31,0.44-1.49,2.08-0.37,2.84c0.48,0.33,1,0.77,1.51,1.35c0.12,0.14,0.24,0.27,0.35,0.41c-0.13-0.17,0.14,0.2,0.18,0.25
	c0.22,0.32,0.42,0.65,0.61,0.99c0.38,0.71,0.5,0.99,0.75,1.8c0.11,0.35,0.2,0.71,0.29,1.08c0.07,0.31,0.17,0.9,0.19,1.06
	c0.35,2.81-0.16,5.89-1.52,8.35c-0.18,0.32-0.37,0.62-0.57,0.92c-0.1,0.15-0.2,0.29-0.31,0.44c-0.11,0.14-0.01,0.01,0.01-0.02
	c-0.07,0.1-0.16,0.2-0.24,0.29c-0.23,0.27-0.47,0.52-0.72,0.76c-0.12,0.12-0.25,0.23-0.38,0.35c-0.06,0.05-0.12,0.09-0.17,0.14
	c-0.07,0.05-0.08,0.06-0.02,0.02c0.15-0.11,0.06-0.04-0.27,0.21c-1.53,1.29-3.1,2.43-5.03,3.05c-3.34,1.07-6.79,0.46-9.86-1.18
	c-3.58-1.9-6.56-4.89-8.72-8.26c-0.41-0.65-1.22-0.95-1.94-0.64c-0.76,0.34-1.02,1.04-0.9,1.83c0.07,0.49-0.01-0.17,0.02,0.11
	c0.01,0.1,0.02,0.2,0.03,0.3c0.02,0.22,0.05,0.44,0.06,0.66c0.03,0.45,0.05,0.9,0.05,1.36c0,0.39-0.02,0.78-0.04,1.17
	c-0.02,0.22-0.05,0.45-0.06,0.66c-0.01,0.07-0.05,0.31,0-0.02c-0.01,0.13-0.04,0.26-0.06,0.39c-0.12,0.74-0.3,1.48-0.54,2.19
	c-0.06,0.17-0.12,0.34-0.19,0.52c-0.03,0.09-0.25,0.6-0.09,0.24c-0.15,0.34-0.31,0.68-0.49,1.01c-0.16,0.29-0.32,0.57-0.5,0.85
	c-0.1,0.16-0.21,0.32-0.32,0.48c-0.07,0.09-0.41,0.55-0.16,0.23c-0.42,0.53-0.87,1.03-1.37,1.5c-0.25,0.23-0.5,0.45-0.76,0.66
	c-0.33,0.28,0.13-0.08-0.17,0.13c-0.15,0.11-0.29,0.22-0.45,0.32c-0.56,0.39-1.15,0.73-1.76,1.03c-0.13,0.07-0.27,0.13-0.4,0.19
	c-0.08,0.04-0.17,0.08-0.25,0.11c-0.19,0.09,0.27-0.11,0.07-0.03c-0.33,0.12-0.65,0.25-0.98,0.36c-0.65,0.21-1.3,0.38-1.97,0.5
	c-0.16,0.03-0.32,0.05-0.48,0.08c-0.24,0.04,0.27-0.03-0.13,0.02c-0.37,0.04-0.73,0.06-1.09,0.08c-0.65,0.03-1.31,0.01-1.96-0.06
	c-0.08-0.01-0.58-0.07-0.33-0.04c0.24,0.03-0.25-0.04-0.33-0.05c-0.34-0.06-0.68-0.13-1.01-0.22c-0.3-0.08-0.6-0.16-0.89-0.26
	c-0.15-0.05-0.31-0.1-0.46-0.16c-0.09-0.03-0.17-0.07-0.26-0.1c-0.3-0.11,0.29,0.14-0.03-0.01c-0.6-0.28-1.18-0.57-1.74-0.93
	c-0.28-0.18-0.55-0.37-0.82-0.57c0.27,0.2-0.01-0.02-0.12-0.1c-0.16-0.13-0.32-0.27-0.47-0.41c-0.3-0.27-0.58-0.56-0.85-0.86
	c-0.13-0.15-0.25-0.29-0.38-0.45c-0.05-0.06-0.09-0.13-0.14-0.19c0.24,0.31-0.01-0.02-0.05-0.07c-0.48-0.69-0.92-1.41-1.28-2.18
	c-0.04-0.1-0.09-0.2-0.14-0.29c-0.12-0.27,0.05,0.12-0.02-0.05c-0.09-0.22-0.18-0.45-0.26-0.68c-0.15-0.43-0.29-0.87-0.41-1.32
	c-0.12-0.47-0.23-0.94-0.31-1.41c-0.13-0.68-0.13-0.7-0.19-1.41c-0.09-0.83-0.66-1.55-1.56-1.55c-0.86,0-1.53,0.71-1.55,1.55
	c-0.01,0.42-0.03,0.85-0.07,1.27c-0.01,0.09-0.01,0.19-0.03,0.28c0,0-0.05,0.44-0.02,0.2c0.04-0.24-0.03,0.2-0.03,0.2
	c-0.02,0.13-0.04,0.26-0.06,0.39c-0.15,0.75-0.34,1.49-0.59,2.21c-0.07,0.19-0.14,0.38-0.22,0.57c-0.03,0.07-0.13,0.27,0.02-0.04
	c-0.04,0.07-0.07,0.15-0.1,0.22c-0.17,0.35-0.34,0.7-0.54,1.05c-0.18,0.3-0.35,0.59-0.55,0.88c-0.09,0.12-0.18,0.24-0.26,0.37
	c-0.16,0.23,0.01-0.01,0.04-0.05c-0.07,0.09-0.15,0.17-0.22,0.26c-0.44,0.54-0.94,1.04-1.47,1.49c-0.1,0.09-0.22,0.18-0.33,0.28
	c-0.28,0.23,0.2-0.15,0.01-0.01c-0.07,0.06-0.15,0.11-0.22,0.16c-0.26,0.19-0.53,0.37-0.81,0.54c-0.28,0.17-0.56,0.33-0.85,0.48
	c-0.16,0.08-0.32,0.16-0.48,0.24c-0.11,0.05-0.63,0.27-0.23,0.1c-0.62,0.25-1.24,0.46-1.89,0.63c-0.3,0.08-0.6,0.14-0.9,0.2
	c-0.18,0.03-0.35,0.07-0.53,0.09c-0.43,0.07,0.21-0.01-0.23,0.03c-0.67,0.07-1.34,0.1-2,0.09c-0.31-0.01-0.62-0.02-0.92-0.05
	c-0.18-0.02-0.36-0.04-0.54-0.05c-0.09-0.01-0.31-0.04,0.09,0.02c-0.11-0.02-0.21-0.03-0.32-0.05c-0.66-0.11-1.31-0.26-1.95-0.45
	c-0.29-0.09-0.58-0.18-0.87-0.29c-0.09-0.03-0.65-0.27-0.23-0.09c-0.16-0.07-0.33-0.15-0.49-0.22c-0.6-0.29-1.19-0.62-1.74-0.99
	c-0.13-0.09-0.26-0.18-0.39-0.28c-0.36-0.26,0.12,0.11-0.17-0.12c-0.26-0.22-0.53-0.45-0.78-0.68c-0.24-0.23-0.47-0.47-0.69-0.71
	c-0.1-0.11-0.2-0.22-0.3-0.34c-0.06-0.07-0.12-0.15-0.17-0.22c-0.08-0.1,0.17,0.24-0.03-0.04c-0.47-0.64-0.88-1.31-1.23-2.03
	c-0.04-0.09-0.08-0.18-0.12-0.27c-0.02-0.04-0.18-0.41-0.09-0.2c0.09,0.23-0.05-0.14-0.06-0.15c-0.04-0.11-0.09-0.23-0.13-0.34
	c-0.14-0.39-0.26-0.8-0.37-1.2c-0.11-0.44-0.21-0.89-0.28-1.34c-0.02-0.09-0.03-0.17-0.05-0.27c-0.01-0.12-0.01-0.09,0.01,0.08
	c-0.01-0.07-0.01-0.14-0.02-0.2c-0.03-0.26-0.06-0.51-0.07-0.76c-0.07-1.04-0.05-2.08,0.04-3.12c0.14-1.58-2.16-2.05-2.9-0.78
	c-1.38,2.38-2.85,4.4-4.87,6.28c-0.97,0.9-1.48,1.3-2.55,1.98c-0.42,0.26-0.84,0.51-1.28,0.74c-0.2,0.1-0.39,0.19-0.59,0.29
	c-0.12,0.05-0.24,0.1-0.36,0.16c0.36-0.15-0.15,0.06-0.21,0.08c-0.88,0.34-1.78,0.59-2.71,0.76c-0.11,0.02-0.23,0.04-0.35,0.06
	c-0.4,0.07,0.34-0.03-0.06,0c-0.23,0.02-0.47,0.05-0.69,0.07c-0.47,0.03-0.93,0.04-1.39,0.02c-0.42-0.02-0.83-0.05-1.25-0.1
	c-0.4-0.04,0.34,0.07-0.04-0.01c-0.11-0.02-0.22-0.04-0.34-0.05c-0.22-0.04-0.45-0.09-0.66-0.14c-0.41-0.09-0.81-0.2-1.2-0.33
	c-0.22-0.07-0.43-0.14-0.64-0.22c-0.13-0.05-0.85-0.35-0.47-0.18c-0.79-0.35-1.56-0.75-2.29-1.22c-0.35-0.22-0.69-0.46-1.03-0.71
	c-0.06-0.04-0.36-0.29-0.04-0.03c-0.09-0.07-0.18-0.14-0.27-0.21c-0.17-0.14-0.34-0.29-0.51-0.44c-0.68-0.6-1.31-1.26-1.89-1.96
	c-0.07-0.08-0.43-0.55-0.18-0.22c-0.14-0.18-0.27-0.37-0.4-0.55c-0.27-0.37-0.51-0.75-0.74-1.14c-0.22-0.36-0.42-0.72-0.6-1.09
	c-0.11-0.2-0.2-0.41-0.3-0.61c-0.03-0.07-0.18-0.43-0.02-0.04c-0.05-0.12-0.1-0.24-0.15-0.37c-0.32-0.83-0.57-1.68-0.75-2.55
	c-0.05-0.22-0.09-0.45-0.13-0.67c-0.01-0.08-0.02-0.15-0.03-0.22c-0.07-0.39,0.03,0.35-0.01-0.04c-0.03-0.46-0.08-0.91-0.09-1.37
	s0-0.92,0.03-1.38c0.02-0.19,0.04-0.39,0.06-0.58c0.01-0.08,0.08-0.47,0-0.05c0.03-0.15,0.05-0.31,0.08-0.46
	c0.19-1.02,0.48-2.03,0.88-2.99c-0.14,0.34,0.14-0.31,0.2-0.43c0.13-0.27,0.27-0.53,0.42-0.79c0.27-0.5,0.58-0.98,0.91-1.45
	c0.08-0.11,0.16-0.22,0.24-0.33c0.11-0.14,0.11-0.15,0.01-0.01c0.05-0.07,0.11-0.15,0.17-0.22c0.18-0.22,0.36-0.43,0.55-0.64
	c0.41-0.47,0.86-0.93,1.32-1.36c1.11-1.03,1.98-1.68,3.29-2.5c1.27-0.81,0.79-2.89-0.79-2.9c-0.68,0-1.36-0.02-2.05-0.07
	c-0.31-0.02-0.62-0.05-0.94-0.08c-0.16-0.02-0.32-0.04-0.49-0.05c-0.19-0.02,0.04,0.01,0.06,0.01c-0.09-0.01-0.18-0.03-0.27-0.04
	c-1.19-0.18-2.36-0.45-3.5-0.82c-0.25-0.08-0.5-0.17-0.75-0.26c-0.13-0.05-0.26-0.1-0.39-0.15c-0.12-0.05-0.42-0.17-0.13-0.05
	c-0.47-0.21-0.94-0.43-1.4-0.68c-0.46-0.24-0.9-0.52-1.33-0.81c-0.2-0.13-0.39-0.27-0.57-0.4c-0.14-0.1-0.22-0.17-0.03-0.02
	c-0.11-0.09-0.22-0.17-0.33-0.27c-0.71-0.59-1.37-1.25-1.96-1.96c-0.08-0.09-0.15-0.19-0.22-0.27c-0.06-0.07,0.18,0.25,0-0.01
	c-0.14-0.2-0.29-0.4-0.43-0.61c-0.24-0.37-0.47-0.75-0.68-1.14c-0.21-0.39-0.39-0.78-0.58-1.19c0.19,0.41-0.06-0.15-0.11-0.3
	c-0.09-0.21-0.16-0.42-0.23-0.64c-0.27-0.84-0.45-1.7-0.6-2.58c-0.05-0.29,0.03,0.32,0,0.03c-0.01-0.11-0.02-0.22-0.03-0.33
	c-0.03-0.22-0.04-0.45-0.06-0.67c-0.03-0.43-0.03-0.87-0.03-1.3c0.02-0.43,0.04-0.87,0.08-1.3c0.02-0.16,0.11-0.77,0.03-0.3
	c0.04-0.22,0.06-0.44,0.11-0.66c0.15-0.87,0.38-1.72,0.67-2.55c0.07-0.2,0.14-0.39,0.22-0.58c0.03-0.09,0.07-0.18,0.11-0.27
	c-0.18,0.43-0.01,0.03,0.03-0.07c0.18-0.39,0.37-0.78,0.58-1.16c0.22-0.39,0.44-0.77,0.69-1.15c0.12-0.17,0.24-0.34,0.36-0.51
	c0.06-0.08,0.12-0.15,0.18-0.23c0.12-0.17-0.19,0.23,0.05-0.07c0.56-0.67,1.15-1.31,1.81-1.88c0.16-0.14,0.33-0.27,0.49-0.4
	c0.3-0.24-0.19,0.13,0.04-0.03c0.09-0.07,0.18-0.14,0.27-0.2c0.38-0.27,0.77-0.52,1.18-0.75c0.39-0.23,0.8-0.44,1.21-0.62
	c0.09-0.04,0.18-0.08,0.28-0.13c-0.4,0.17-0.04,0.02,0.06-0.02c0.23-0.09,0.46-0.17,0.69-0.25c0.45-0.15,0.91-0.28,1.38-0.39
	c0.23-0.05,0.46-0.1,0.69-0.15c0.13-0.02,0.26-0.04,0.38-0.07c0.11-0.02,0.57-0.08,0.14-0.02c1.06-0.13,2.12-0.17,3.18-0.11
	c0.27,0.02,0.54,0.03,0.81,0.06c0.14,0.02,0.29,0.03,0.44,0.04c0.06,0.01,0.12,0.02,0.19,0.02c0.23,0.03-0.27-0.04-0.03-0.01
	c0.6,0.09,1.19,0.2,1.78,0.33c1.3,0.29,2.59,0.69,3.83,1.18c0.15,0.05,0.3,0.11,0.44,0.17c0.05,0.02,0.47,0.2,0.29,0.12
	c0.35,0.15,0.69,0.3,1.04,0.47c0.76,0.35,1.68,0.21,2.13-0.56C1050.56,66.93,1050.38,65.83,1049.61,65.48z"/>
<path class="st0" d="M1069.44,96.19c-0.42-0.61-0.81-1.25-1.13-1.92c-0.08-0.14-0.14-0.28-0.2-0.42c-0.13-0.27-0.02-0.04,0,0.01
	c-0.03-0.08-0.06-0.16-0.09-0.24c-0.11-0.31-0.22-0.62-0.31-0.94c-0.07-0.28-0.14-0.57-0.19-0.86c-0.03-0.16-0.06-0.41-0.03-0.09
	c-0.01-0.16-0.03-0.33-0.04-0.5c-0.02-0.27-0.03-0.54-0.02-0.81c0-0.13,0.01-0.24,0.02-0.37c0.01-0.11,0.09-0.63,0.01-0.15
	c0.09-0.52,0.2-1.02,0.38-1.51c0.04-0.11,0.08-0.22,0.12-0.32c-0.12,0.32-0.03,0.08,0.05-0.08c0.11-0.23,0.24-0.47,0.37-0.69
	c0.12-0.2,0.25-0.39,0.38-0.57c0.24-0.34-0.11,0.11,0.06-0.08c0.08-0.1,0.17-0.2,0.25-0.3c0.36-0.4,0.75-0.74,1.15-1.09
	c0.2-0.18-0.27,0.19,0.04-0.03c0.1-0.07,0.2-0.14,0.29-0.2c0.23-0.15,0.45-0.29,0.68-0.43c0.22-0.13,0.44-0.24,0.67-0.36
	c0.11-0.05,0.22-0.1,0.32-0.15c0.4-0.19-0.19,0.06,0.15-0.06c0.5-0.17,0.99-0.35,1.51-0.47c0.25-0.06,0.5-0.11,0.75-0.15
	c0.21-0.04,0.33-0.04,0.04-0.01c0.16-0.02,0.31-0.03,0.46-0.05c0.53-0.04,1.06-0.05,1.58-0.02c0.12,0.01,0.24,0.02,0.36,0.03
	c0.07,0.01,0.14,0.02,0.21,0.02c0.21,0.02-0.32-0.05-0.11-0.02c0.26,0.05,0.54,0.09,0.8,0.16c0.25,0.06,0.5,0.13,0.74,0.21
	c0.12,0.04,0.23,0.08,0.35,0.12c0.06,0.02,0.13,0.05,0.19,0.08c0.19,0.07-0.35-0.17-0.04-0.02c0.47,0.23,0.93,0.46,1.37,0.76
	c0.08,0.04,0.45,0.32,0.28,0.19c-0.16-0.12,0.2,0.16,0.27,0.22c0.24,0.21,0.46,0.42,0.68,0.65c0.11,0.13,0.23,0.25,0.34,0.38
	c0.09,0.1,0.31,0.41,0.12,0.14c0.21,0.29,0.42,0.59,0.6,0.9c0.19,0.3,0.35,0.63,0.5,0.95c0.04,0.08,0.07,0.16,0.11,0.23
	c0.1,0.22-0.13-0.34,0.03,0.05c0.06,0.17,0.13,0.34,0.19,0.51c0.29,0.83,0.5,1.69,0.65,2.57c0.14,0.83,1.16,1.29,1.91,1.08
	c0.89-0.25,1.22-1.08,1.08-1.91c-0.25-1.59-0.35-3.72-0.15-5.56c0.01-0.11,0.02-0.23,0.03-0.34c0,0.06-0.04,0.31,0,0.01
	c0.04-0.2,0.07-0.4,0.1-0.59c0.08-0.4,0.17-0.8,0.27-1.19c0.1-0.36,0.21-0.71,0.33-1.06c0.06-0.17,0.12-0.34,0.19-0.5
	c0.03-0.09,0.14-0.34,0-0.01c0.05-0.1,0.09-0.21,0.14-0.32c0.28-0.6,0.61-1.19,0.98-1.74c0.1-0.15,0.21-0.29,0.31-0.43
	c-0.2,0.27-0.01,0.03,0.09-0.1c0.21-0.26,0.45-0.52,0.69-0.76c0.21-0.21,0.44-0.41,0.67-0.6c0.14-0.11,0.35-0.26,0.08-0.07
	c0.14-0.1,0.29-0.21,0.44-0.31c0.49-0.33,1.02-0.6,1.56-0.86c0.3-0.14-0.27,0.1-0.06,0.03c0.07-0.03,0.14-0.06,0.22-0.09
	c0.12-0.04,0.24-0.09,0.36-0.13c0.3-0.1,0.6-0.19,0.91-0.26c0.27-0.07,0.55-0.11,0.83-0.16c-0.33,0.05-0.16,0.02,0.05,0
	c0.17-0.02,0.35-0.03,0.52-0.04c0.59-0.03,1.15,0.03,1.74,0.07c-0.5-0.03-0.03,0,0.1,0.02c0.14,0.03,0.27,0.05,0.41,0.08
	c0.31,0.07,0.62,0.15,0.92,0.24c0.27,0.08,0.52,0.18,0.77,0.28c0.21,0.08-0.36-0.17-0.06-0.03c0.06,0.03,0.12,0.05,0.18,0.08
	c0.14,0.07,0.29,0.14,0.43,0.21c0.26,0.14,0.52,0.28,0.77,0.44c0.14,0.09,0.28,0.18,0.41,0.27c0.1,0.07,0.52,0.4,0.17,0.11
	c0.5,0.4,0.96,0.83,1.39,1.3c0.11,0.12,0.21,0.24,0.31,0.36c0.04,0.05,0.09,0.11,0.14,0.16c0.23,0.27-0.15-0.2-0.02-0.02
	c0.21,0.28,0.41,0.57,0.59,0.86c0.21,0.34,0.41,0.69,0.58,1.04c0.1,0.19,0.19,0.39,0.28,0.58c0.03,0.07,0.11,0.27-0.02-0.04
	c0.04,0.11,0.09,0.22,0.14,0.34c0.31,0.83,0.55,1.7,0.73,2.57c0.04,0.22,0.08,0.45,0.11,0.67c0.02,0.09,0.03,0.18,0.04,0.27
	c-0.05-0.35,0,0.07,0.01,0.14c0.06,0.53,0.09,1.07,0.11,1.6c0.03,1.12-0.03,2.23-0.15,3.34c-0.16,1.49,2.3,2.18,2.9,0.78
	c0.25-0.59,0.52-1.16,0.85-1.71c0.15-0.26,0.32-0.51,0.49-0.76c0.08-0.12,0.16-0.24,0.25-0.35c-0.16,0.21,0.07-0.08,0.12-0.13
	c0.35-0.42,0.73-0.81,1.14-1.16c0.1-0.09,0.21-0.17,0.31-0.25c-0.28,0.22,0.06-0.04,0.1-0.07c0.21-0.15,0.43-0.29,0.64-0.42
	c0.22-0.13,0.44-0.25,0.67-0.36c0.11-0.05,0.23-0.1,0.34-0.16c0.37-0.17-0.3,0.09,0.08-0.03c0.47-0.15,0.92-0.32,1.41-0.42
	c0.23-0.05,0.47-0.09,0.71-0.13c-0.42,0.06,0.31-0.02,0.43-0.03c0.47-0.03,0.96-0.02,1.44,0.02c0.12,0.01,0.24,0.03,0.36,0.03
	c0.4,0.03-0.34-0.07,0.06,0.01c0.23,0.05,0.47,0.08,0.7,0.14c0.47,0.11,0.92,0.24,1.37,0.41c0.11,0.04,0.22,0.09,0.33,0.13
	c-0.37-0.15,0.01,0.01,0.07,0.03c0.21,0.1,0.43,0.21,0.63,0.32c0.42,0.23,0.81,0.5,1.21,0.76c0.33,0.22-0.24-0.21,0.06,0.04
	c0.08,0.08,0.18,0.15,0.27,0.23c0.18,0.15,0.35,0.32,0.52,0.48c0.14,0.14,0.28,0.28,0.41,0.43c0.08,0.09,0.15,0.18,0.23,0.27
	c0.28,0.33-0.02-0.06,0.12,0.15c0.24,0.36,0.48,0.72,0.69,1.1c0.11,0.21,0.22,0.43,0.31,0.65c-0.16-0.36,0,0.02,0.02,0.08
	c0.05,0.15,0.11,0.3,0.15,0.46c0.09,0.28,0.16,0.56,0.22,0.84c0.01,0.08,0.03,0.16,0.04,0.24c0.02,0.08,0.03,0.16,0.04,0.25
	c-0.03-0.21-0.03-0.22-0.01-0.03c0.03,0.62,0.06,1.22,0,1.85c0,0.05-0.06,0.5-0.01,0.14c-0.02,0.14-0.04,0.28-0.07,0.42
	c-0.06,0.34-0.14,0.67-0.23,1c-0.22,0.78-0.41,1.24-0.7,1.85c-0.36,0.76-0.21,1.68,0.56,2.13c0.68,0.4,1.76,0.2,2.12-0.56
	c1.21-2.53,1.79-5.26,1.25-8.03c-0.44-2.25-1.71-4.35-3.43-5.85c-3.59-3.14-8.78-4-13.12-1.96c-2.7,1.27-4.72,3.71-5.86,6.41
	c0.96,0.26,1.93,0.52,2.89,0.78c0.42-3.84,0.02-7.85-1.81-11.3c-1.42-2.71-3.74-4.82-6.57-5.97c-5.51-2.23-11.82,0.24-14.7,5.35
	c-2.19,3.89-2.33,8.5-1.66,12.82c1-0.28,2-0.55,3-0.83c-0.51-2.96-1.83-5.95-4.19-7.9c-2.05-1.69-4.6-2.58-7.26-2.55
	c-4.92,0.05-10.06,3.16-11.3,8.13c-0.82,3.31,0.27,6.68,2.16,9.43c0.47,0.69,1.36,1,2.13,0.56
	C1069.57,97.92,1069.92,96.89,1069.44,96.19z"/>
<path class="st0" d="M861.4,19.88c-3.77-1.75-8-2.79-12.13-1.84c-3.16,0.73-5.9,2.69-7.71,5.37c-1.67,2.49-2.49,5.59-2.3,8.58
	c0.2,3.18,1.47,6.22,3.72,8.49c2.74,2.75,6.54,4,10.33,4.27c0.55,0.04,1.1,0.06,1.65,0.06c-0.2-0.75-0.41-1.51-0.61-2.26
	c-3.27,2.07-6.07,5.03-7.12,8.83c-0.86,3.11-0.41,6.42,1,9.3c2.78,5.68,9.39,9.3,15.63,7.53c4.52-1.28,7.87-4.94,10.17-8.88
	c-0.75-0.2-1.51-0.41-2.26-0.61c-0.25,2.84,0.22,5.81,1.75,8.25c1.34,2.14,3.35,3.69,5.7,4.6c4.42,1.7,9.87,0.7,13.2-2.72
	c2.19-2.24,3.21-5.29,3.29-8.39c-0.81,0-1.62,0-2.43,0c0.28,2.96,1.24,5.83,3.26,8.06c1.61,1.76,3.85,2.97,6.19,3.39
	c4.89,0.87,10.07-1.2,12.77-5.42c1.76-2.76,2.13-6.06,1.66-9.25c-0.74,0.31-1.48,0.62-2.22,0.94c3.41,5.31,9.62,10.17,16.29,8.74
	c1.76-0.38,3.4-1.22,4.83-2.32c1.19-0.91,2.3-1.89,3.16-3.15c1.53-2.26,2.19-5.17,2.02-7.87c-0.21-3.21-1.57-6.27-4.28-8.11
	c-0.1,0.74-0.19,1.48-0.29,2.22c3.03-1,5.71-2.84,7.47-5.53c1.5-2.28,2.2-5.09,2.08-7.8c-0.26-5.57-3.86-10.82-9.42-12.2
	c-3.93-0.97-7.97,0.06-11.53,1.8c0.6,0.45,1.19,0.91,1.78,1.37c0.8-3.46,1.01-7.18-0.1-10.6c-0.88-2.73-2.55-5.11-4.9-6.77
	c-4.5-3.18-10.72-2.79-15.15,0.29c-3.13,2.17-5.27,5.35-6.6,8.88c0.79,0.11,1.59,0.22,2.39,0.32c0.37-4.47-1.41-9.29-5.65-11.33
	c-3.6-1.73-8.03-1.04-10.58,2.15c-1.82,2.27-2.46,5.16-2.47,8.02c0.79-0.11,1.59-0.22,2.39-0.32c-0.71-3.44-2.25-6.84-4.93-9.19
	c-2.24-1.97-5.05-3.09-8.03-3.27c-5.45-0.35-11.37,2.6-13.71,7.67c-1.48,3.22-1.39,6.82-0.09,10.09c0.24,0.61,0.81,1.03,1.49,0.85
	c0.58-0.16,1.09-0.88,0.85-1.49c-0.29-0.74-0.54-1.49-0.71-2.27c-0.03-0.16-0.07-0.32-0.09-0.48c-0.02-0.09-0.03-0.19-0.05-0.28
	c-0.06-0.32,0.03,0.26-0.01-0.05c-0.03-0.34-0.07-0.68-0.08-1.01c-0.01-0.33-0.01-0.65,0.01-0.98c0.01-0.14,0.02-0.29,0.03-0.44
	c0.01-0.08,0.02-0.17,0.03-0.26c-0.04,0.36,0-0.03,0.02-0.1c0.1-0.61,0.26-1.21,0.46-1.79c0.05-0.13,0.1-0.26,0.15-0.39
	c0.1-0.27-0.12,0.25,0-0.01c0.03-0.07,0.07-0.15,0.1-0.23c0.13-0.28,0.28-0.56,0.44-0.83c0.15-0.25,0.3-0.49,0.46-0.72
	c0.09-0.14,0.19-0.26,0.29-0.4c-0.19,0.27,0.1-0.12,0.17-0.2c0.39-0.46,0.81-0.89,1.26-1.28c0.12-0.11,0.25-0.21,0.38-0.32
	c0.04-0.03,0.09-0.07,0.13-0.1c0.22-0.18-0.22,0.15,0.02-0.01c0.27-0.19,0.54-0.39,0.82-0.57c0.51-0.33,1.05-0.62,1.61-0.88
	c0.08-0.03,0.15-0.07,0.23-0.1c0.26-0.12-0.19,0.08-0.02,0.01c0.14-0.06,0.29-0.11,0.43-0.17c0.32-0.12,0.63-0.23,0.95-0.32
	c0.59-0.17,1.19-0.31,1.8-0.41c0.09-0.01,0.17-0.03,0.25-0.04C870.73,6.03,870.9,6,870.97,6c0.17-0.02,0.34-0.04,0.5-0.05
	c0.31-0.03,0.62-0.04,0.93-0.04c0.31,0,0.62,0,0.93,0.02c0.15,0.01,0.31,0.02,0.46,0.03c0.1,0.01,0.68,0.09,0.31,0.03
	c0.62,0.1,1.22,0.22,1.82,0.4c0.3,0.09,0.59,0.2,0.89,0.31c0.08,0.03,0.16,0.06,0.24,0.1c-0.27-0.11-0.11-0.05-0.05-0.02
	c0.18,0.09,0.37,0.17,0.55,0.26c0.58,0.29,1.12,0.64,1.65,1.02c0.05,0.03,0.28,0.23,0.04,0.03c0.07,0.06,0.14,0.11,0.21,0.17
	c0.17,0.14,0.33,0.28,0.49,0.42c0.28,0.26,0.54,0.52,0.79,0.8c0.14,0.15,0.28,0.31,0.41,0.47c0.05,0.06,0.1,0.13,0.15,0.19
	c-0.19-0.23,0.08,0.1,0.11,0.15c0.24,0.33,0.46,0.67,0.67,1.01c0.24,0.4,0.46,0.8,0.66,1.21c0.24,0.51,0.26,0.55,0.45,1.05
	c0.37,0.99,0.65,2.01,0.87,3.06c0.28,1.36,2.38,1.02,2.39-0.32c0-0.65,0.03-1.29,0.11-1.93c0.03-0.25,0.01-0.09,0-0.04
	c0.01-0.08,0.03-0.16,0.04-0.23c0.02-0.14,0.05-0.27,0.07-0.4c0.05-0.28,0.11-0.55,0.19-0.82c0.07-0.26,0.15-0.51,0.23-0.77
	c0.04-0.11,0.08-0.23,0.12-0.34c0.03-0.06,0.05-0.13,0.08-0.19c-0.04,0.1-0.06,0.13,0,0.01c0.21-0.45,0.43-0.88,0.71-1.3
	c0.06-0.09,0.12-0.17,0.18-0.26c0.03-0.05,0.07-0.1,0.11-0.14c-0.01,0-0.14,0.17-0.05,0.07c0.15-0.18,0.3-0.36,0.46-0.52
	c0.14-0.14,0.28-0.28,0.43-0.41c0.07-0.06,0.15-0.12,0.22-0.19c0.16-0.14-0.02,0.02-0.05,0.03c0.05-0.04,0.11-0.08,0.17-0.12
	c0.33-0.23,0.68-0.44,1.04-0.62c0.09-0.04,0.17-0.08,0.26-0.11c-0.32,0.15,0.01,0,0.08-0.03c0.19-0.07,0.37-0.13,0.57-0.18
	c0.19-0.05,0.38-0.1,0.57-0.13c0.09-0.02,0.18-0.03,0.27-0.05c0.14-0.03-0.14,0.02-0.13,0.02c0.06,0,0.13-0.02,0.2-0.02
	c0.4-0.03,0.79-0.04,1.18-0.02c0.11,0.01,0.21,0.02,0.32,0.03c0.28,0.02-0.19-0.04,0.03,0c0.21,0.04,0.42,0.07,0.62,0.12
	c0.4,0.09,0.77,0.23,1.15,0.36c0.2,0.07-0.22-0.11,0.05,0.02c0.09,0.04,0.17,0.08,0.26,0.12c0.2,0.1,0.39,0.2,0.58,0.31
	c0.16,0.1,0.33,0.2,0.49,0.31c0.09,0.06,0.18,0.13,0.27,0.2c-0.22-0.16,0,0,0.08,0.07c0.33,0.28,0.64,0.58,0.93,0.9
	c0.07,0.08,0.14,0.16,0.2,0.23c0.07,0.09,0.2,0.26,0.06,0.07c0.14,0.2,0.28,0.39,0.41,0.6c0.14,0.22,0.27,0.45,0.39,0.68
	c0.06,0.11,0.11,0.23,0.17,0.34c0.03,0.07,0.19,0.45,0.09,0.2c0.21,0.53,0.38,1.07,0.51,1.63c0.06,0.28,0.11,0.56,0.16,0.84
	c0,0.05,0.04,0.24,0,0c0.01,0.09,0.02,0.18,0.03,0.28c0.01,0.15,0.03,0.3,0.03,0.45c0.04,0.7,0.03,1.39-0.03,2.09
	c-0.05,0.6,0.5,1.13,1.05,1.19c0.63,0.08,1.11-0.29,1.33-0.87c0.5-1.32,1.27-2.84,2.19-4.14c0.11-0.15,0.22-0.3,0.33-0.45
	c-0.14,0.19,0.14-0.17,0.18-0.22c0.24-0.29,0.48-0.57,0.74-0.84c0.47-0.5,0.97-0.95,1.5-1.39c0.03-0.03,0.3-0.23,0.07-0.06
	c0.05-0.04,0.11-0.08,0.16-0.12c0.13-0.09,0.26-0.19,0.4-0.28c0.28-0.19,0.57-0.37,0.85-0.54c0.26-0.15,0.52-0.29,0.79-0.43
	c0.14-0.07,0.28-0.14,0.42-0.2c0.07-0.03,0.14-0.06,0.21-0.09c0.08-0.03,0.05-0.03-0.08,0.03c0.05-0.02,0.11-0.05,0.17-0.07
	c0.57-0.21,1.14-0.4,1.73-0.54c0.28-0.06,0.55-0.12,0.83-0.17c0.07-0.01,0.14-0.02,0.22-0.03c0.29-0.05-0.2,0.02-0.02,0
	c0.16-0.02,0.32-0.04,0.48-0.05c0.58-0.05,1.16-0.06,1.74-0.02c0.14,0.01,0.29,0.02,0.43,0.03c0.08,0.01,0.55,0.08,0.19,0.02
	c0.3,0.05,0.59,0.1,0.88,0.16c0.57,0.13,1.13,0.3,1.68,0.51c0.05,0.02,0.11,0.04,0.16,0.06c0.28,0.11-0.24-0.12,0.03,0.01
	c0.11,0.06,0.23,0.11,0.35,0.16c0.27,0.13,0.53,0.27,0.79,0.43c0.25,0.14,0.49,0.3,0.72,0.46c0.11,0.07,0.21,0.15,0.32,0.23
	c0.15,0.11-0.23-0.19-0.01,0c0.07,0.06,0.14,0.11,0.2,0.17c0.46,0.39,0.89,0.81,1.28,1.27c0.09,0.1,0.17,0.21,0.26,0.31
	c0.2,0.23-0.15-0.21,0.03,0.04c0.03,0.05,0.07,0.1,0.11,0.14c0.2,0.27,0.38,0.55,0.56,0.84c0.15,0.24,0.28,0.49,0.41,0.74
	c0.07,0.14,0.14,0.28,0.21,0.43c0.04,0.09,0.08,0.18,0.12,0.26c-0.09-0.19-0.01-0.03,0.03,0.07c0.28,0.71,0.5,1.45,0.66,2.19
	c0.04,0.19,0.08,0.38,0.11,0.58c0.02,0.11,0.04,0.21,0.05,0.32c0.01,0.06,0.05,0.38,0.02,0.11c0.05,0.41,0.09,0.83,0.11,1.25
	c0.05,0.94,0.02,1.87-0.07,2.81c-0.09,0.94-0.25,1.85-0.49,2.89c-0.25,1.07,0.83,1.84,1.78,1.37c1.5-0.74,3.15-1.34,4.91-1.66
	c0.18-0.03,0.37-0.06,0.55-0.09c-0.26,0.04,0.26-0.03,0.32-0.03c0.38-0.04,0.76-0.06,1.14-0.07c0.33,0,0.67,0,1,0.02
	c0.16,0.01,0.32,0.03,0.48,0.04c0.09,0.01,0.19,0.02,0.28,0.03c-0.31-0.04-0.02,0,0.06,0.01c0.66,0.12,1.31,0.27,1.95,0.5
	c0.14,0.05,0.28,0.11,0.42,0.16c0.06,0.02,0.21,0.09-0.05-0.02c0.08,0.03,0.16,0.07,0.24,0.11c0.29,0.13,0.57,0.28,0.85,0.44
	c0.25,0.14,0.49,0.29,0.72,0.46c0.11,0.08,0.23,0.17,0.34,0.25c0.24,0.17-0.2-0.17,0.02,0.02c0.06,0.06,0.13,0.11,0.2,0.16
	c0.45,0.38,0.87,0.79,1.26,1.24c0.1,0.11,0.2,0.24,0.29,0.36c0.05,0.06,0.17,0.23-0.01-0.01c0.04,0.06,0.09,0.11,0.12,0.17
	c0.19,0.26,0.36,0.53,0.53,0.8c0.31,0.5,0.57,1.03,0.81,1.57c-0.14-0.32,0.04,0.1,0.07,0.18c0.05,0.13,0.1,0.26,0.14,0.4
	c0.1,0.29,0.19,0.59,0.27,0.89c0.07,0.27,0.14,0.55,0.19,0.82c0.03,0.14,0.05,0.28,0.08,0.42c0.01,0.09,0.03,0.17,0.04,0.25
	c-0.05-0.34-0.01-0.06,0,0.01c0.06,0.61,0.1,1.21,0.08,1.82c-0.01,0.3-0.02,0.6-0.05,0.89c-0.01,0.09-0.07,0.55-0.02,0.19
	c-0.03,0.17-0.05,0.34-0.08,0.51c-0.11,0.59-0.26,1.17-0.45,1.74c-0.05,0.14-0.09,0.27-0.14,0.4c-0.03,0.08-0.21,0.5-0.07,0.19
	c-0.13,0.29-0.26,0.58-0.42,0.86c-0.17,0.31-0.34,0.61-0.54,0.91c-0.1,0.15-0.2,0.29-0.3,0.44c-0.03,0.05-0.22,0.28-0.03,0.04
	c-0.05,0.07-0.11,0.14-0.17,0.21c-0.47,0.57-0.99,1.1-1.56,1.57c-0.06,0.05-0.12,0.1-0.18,0.15c-0.24,0.2,0.1-0.06-0.09,0.07
	c-0.16,0.11-0.31,0.23-0.48,0.34c-0.33,0.23-0.68,0.43-1.03,0.62c-0.37,0.2-0.74,0.38-1.12,0.55c0.04-0.02,0.21-0.08-0.01,0
	c-0.12,0.05-0.23,0.09-0.35,0.14c-0.22,0.08-0.45,0.17-0.68,0.24c-1.02,0.34-1.16,1.62-0.29,2.22c0.38,0.26,0.78,0.6,1.18,1.05
	c0.09,0.11,0.19,0.21,0.27,0.32c-0.1-0.13,0.11,0.15,0.14,0.19c0.17,0.25,0.33,0.51,0.48,0.77c0.3,0.55,0.39,0.77,0.59,1.4
	c0.09,0.28,0.16,0.56,0.22,0.84c0.05,0.24,0.14,0.7,0.15,0.83c0.28,2.19-0.12,4.6-1.19,6.52c-0.14,0.25-0.28,0.48-0.44,0.72
	c-0.08,0.11-0.16,0.23-0.24,0.34c-0.09,0.11-0.01,0.01,0.01-0.01c-0.06,0.08-0.12,0.15-0.19,0.23c-0.18,0.21-0.37,0.4-0.56,0.6
	c-0.1,0.09-0.2,0.18-0.3,0.27c-0.04,0.04-0.09,0.07-0.13,0.11c-0.05,0.04-0.06,0.05-0.01,0.01c0.11-0.08,0.04-0.03-0.21,0.17
	c-1.2,1-2.42,1.9-3.93,2.38c-2.61,0.83-5.3,0.36-7.7-0.92c-2.79-1.48-5.12-3.82-6.81-6.45c-0.32-0.51-0.95-0.74-1.52-0.5
	c-0.6,0.26-0.79,0.82-0.7,1.43c0.05,0.38-0.01-0.14,0.01,0.09c0.01,0.08,0.02,0.16,0.03,0.23c0.02,0.17,0.03,0.34,0.05,0.52
	c0.03,0.35,0.04,0.71,0.04,1.06c0,0.31-0.01,0.61-0.03,0.91c-0.01,0.17-0.03,0.35-0.05,0.52c-0.01,0.06-0.03,0.24,0-0.02
	c-0.01,0.1-0.03,0.2-0.05,0.3c-0.1,0.58-0.24,1.16-0.42,1.71c-0.05,0.14-0.09,0.27-0.14,0.4c-0.03,0.07-0.2,0.47-0.07,0.19
	c-0.12,0.27-0.25,0.53-0.38,0.79c-0.12,0.23-0.25,0.45-0.39,0.66c-0.08,0.13-0.17,0.25-0.25,0.37c-0.05,0.07-0.32,0.43-0.13,0.18
	c-0.33,0.42-0.68,0.81-1.07,1.17c-0.19,0.18-0.39,0.35-0.59,0.52c-0.26,0.22,0.1-0.06-0.13,0.1c-0.12,0.08-0.23,0.17-0.35,0.25
	c-0.44,0.3-0.9,0.57-1.38,0.8c-0.1,0.05-0.21,0.1-0.31,0.15c-0.06,0.03-0.13,0.06-0.2,0.09c-0.15,0.07,0.21-0.09,0.05-0.02
	c-0.26,0.1-0.51,0.2-0.77,0.28c-0.5,0.17-1.02,0.29-1.53,0.39c-0.13,0.02-0.26,0.04-0.38,0.06c-0.19,0.03,0.21-0.02-0.1,0.01
	c-0.28,0.03-0.57,0.05-0.85,0.06c-0.51,0.02-1.02,0-1.53-0.05c-0.06,0-0.45-0.06-0.26-0.03c0.19,0.03-0.2-0.03-0.26-0.04
	c-0.26-0.05-0.53-0.1-0.79-0.17c-0.23-0.06-0.46-0.13-0.69-0.2c-0.12-0.04-0.24-0.08-0.36-0.13c-0.07-0.03-0.13-0.05-0.2-0.08
	c-0.23-0.08,0.22,0.11-0.03-0.01c-0.47-0.22-0.92-0.45-1.36-0.73c-0.22-0.14-0.43-0.29-0.64-0.45c0.21,0.16-0.01-0.01-0.1-0.08
	c-0.12-0.1-0.25-0.21-0.36-0.32c-0.23-0.21-0.45-0.44-0.66-0.67c-0.1-0.11-0.2-0.23-0.3-0.35c-0.04-0.05-0.08-0.1-0.11-0.14
	c0.19,0.24-0.01-0.01-0.03-0.05c-0.38-0.54-0.72-1.1-1-1.7c-0.03-0.08-0.07-0.15-0.11-0.23c-0.1-0.21,0.04,0.1-0.02-0.04
	c-0.07-0.17-0.14-0.35-0.2-0.53c-0.12-0.34-0.22-0.68-0.32-1.03c-0.1-0.37-0.18-0.73-0.25-1.1c-0.1-0.53-0.1-0.55-0.15-1.1
	c-0.06-0.65-0.51-1.21-1.21-1.21c-0.67,0-1.2,0.56-1.21,1.21c-0.01,0.33-0.03,0.66-0.06,0.99c-0.01,0.07-0.01,0.14-0.02,0.22
	c0,0-0.04,0.34-0.02,0.16c0.03-0.19-0.03,0.15-0.03,0.15c-0.02,0.1-0.03,0.2-0.05,0.31c-0.11,0.59-0.26,1.16-0.46,1.73
	c-0.06,0.15-0.11,0.3-0.17,0.45c-0.02,0.06-0.1,0.21,0.01-0.03c-0.03,0.06-0.05,0.11-0.08,0.17c-0.13,0.28-0.27,0.55-0.42,0.82
	c-0.14,0.23-0.28,0.46-0.43,0.68c-0.07,0.1-0.14,0.19-0.2,0.29c-0.12,0.18,0.01-0.01,0.03-0.04c-0.05,0.07-0.11,0.14-0.16,0.2
	c-0.35,0.42-0.74,0.81-1.15,1.16c-0.09,0.07-0.17,0.14-0.26,0.22c-0.21,0.18,0.16-0.11,0.01-0.01c-0.06,0.04-0.11,0.08-0.17,0.13
	c-0.2,0.15-0.42,0.29-0.63,0.42s-0.44,0.26-0.66,0.37c-0.12,0.06-0.25,0.13-0.38,0.19c-0.08,0.04-0.49,0.21-0.17,0.08
	c-0.48,0.2-0.97,0.36-1.48,0.49c-0.23,0.06-0.47,0.11-0.7,0.16c-0.14,0.03-0.28,0.05-0.42,0.07c-0.33,0.06,0.17-0.01-0.18,0.03
	c-0.52,0.05-1.04,0.08-1.57,0.07c-0.24,0-0.48-0.02-0.72-0.04c-0.14-0.01-0.28-0.03-0.42-0.04c-0.07,0-0.24-0.03,0.07,0.01
	c-0.09-0.01-0.17-0.03-0.25-0.04c-0.51-0.09-1.02-0.2-1.52-0.35c-0.23-0.07-0.45-0.14-0.68-0.23c-0.07-0.03-0.51-0.21-0.18-0.07
	c-0.13-0.06-0.26-0.11-0.38-0.17c-0.47-0.23-0.93-0.48-1.36-0.77c-0.11-0.07-0.21-0.14-0.31-0.22c-0.28-0.2,0.09,0.08-0.13-0.09
	c-0.21-0.17-0.42-0.35-0.61-0.54c-0.19-0.18-0.37-0.37-0.54-0.56c-0.08-0.08-0.15-0.17-0.23-0.26c-0.05-0.06-0.09-0.11-0.14-0.17
	c-0.06-0.08,0.13,0.19-0.03-0.03c-0.36-0.5-0.68-1.02-0.96-1.58c-0.03-0.07-0.07-0.14-0.1-0.21c-0.01-0.03-0.14-0.32-0.07-0.16
	c0.07,0.18-0.04-0.11-0.05-0.12c-0.03-0.09-0.07-0.18-0.1-0.27c-0.11-0.31-0.2-0.62-0.29-0.94c-0.09-0.34-0.16-0.69-0.22-1.05
	c-0.01-0.07-0.02-0.14-0.03-0.21c-0.01-0.09-0.01-0.07,0.01,0.06c-0.01-0.05-0.01-0.11-0.02-0.16c-0.02-0.2-0.04-0.4-0.05-0.6
	c-0.05-0.81-0.04-1.62,0.03-2.44c0.11-1.24-1.69-1.6-2.26-0.61c-1.08,1.86-2.23,3.44-3.81,4.91c-0.75,0.7-1.16,1.02-1.99,1.54
	c-0.33,0.2-0.66,0.4-1,0.57c-0.15,0.08-0.3,0.15-0.46,0.23c-0.09,0.04-0.18,0.08-0.28,0.12c0.28-0.12-0.12,0.05-0.17,0.06
	c-0.68,0.26-1.39,0.46-2.11,0.59c-0.09,0.02-0.18,0.03-0.28,0.05c-0.31,0.06,0.27-0.02-0.04,0c-0.18,0.02-0.37,0.04-0.54,0.05
	c-0.36,0.03-0.72,0.03-1.08,0.02c-0.33-0.01-0.65-0.04-0.98-0.08c-0.31-0.03,0.27,0.05-0.03,0c-0.08-0.02-0.17-0.03-0.26-0.04
	c-0.17-0.03-0.35-0.07-0.52-0.11c-0.32-0.07-0.63-0.16-0.93-0.26c-0.17-0.05-0.34-0.11-0.5-0.17c-0.1-0.04-0.66-0.27-0.37-0.14
	c-0.62-0.28-1.22-0.59-1.79-0.95c-0.27-0.17-0.54-0.36-0.8-0.55c-0.05-0.03-0.28-0.23-0.03-0.03c-0.07-0.06-0.14-0.11-0.21-0.17
	c-0.14-0.11-0.27-0.23-0.4-0.34c-0.53-0.47-1.02-0.98-1.47-1.53c-0.05-0.06-0.34-0.43-0.14-0.17c-0.11-0.14-0.21-0.28-0.32-0.43
	c-0.2-0.29-0.39-0.59-0.58-0.89c-0.16-0.28-0.32-0.57-0.47-0.85c-0.08-0.16-0.15-0.32-0.23-0.48c-0.03-0.06-0.14-0.34-0.02-0.03
	c-0.04-0.09-0.08-0.19-0.11-0.29c-0.25-0.65-0.45-1.31-0.59-1.99c-0.03-0.17-0.07-0.35-0.1-0.52c-0.01-0.06-0.02-0.12-0.03-0.17
	c-0.05-0.3,0.02,0.28,0-0.03c-0.03-0.36-0.06-0.71-0.07-1.07c-0.01-0.36,0-0.72,0.02-1.08c0.01-0.15,0.03-0.3,0.04-0.45
	c0.01-0.06,0.06-0.37,0-0.04c0.02-0.12,0.04-0.24,0.06-0.36c0.15-0.8,0.38-1.59,0.69-2.34c-0.11,0.26,0.11-0.24,0.16-0.33
	c0.1-0.21,0.21-0.41,0.32-0.62c0.22-0.39,0.45-0.77,0.71-1.13c0.06-0.08,0.12-0.17,0.19-0.26c0.09-0.11,0.09-0.11,0-0.01
	c0.04-0.06,0.09-0.11,0.14-0.17c0.14-0.17,0.28-0.34,0.42-0.5c0.33-0.37,0.68-0.73,1.04-1.06c0.86-0.81,1.54-1.31,2.56-1.96
	c1-0.63,0.62-2.26-0.61-2.26c-0.53,0-1.07-0.02-1.6-0.06c-0.25-0.02-0.49-0.04-0.73-0.06c-0.13-0.01-0.26-0.03-0.39-0.04
	c-0.15-0.02,0.03,0,0.05,0.01c-0.07-0.01-0.15-0.02-0.21-0.03c-0.93-0.14-1.85-0.35-2.73-0.64c-0.2-0.06-0.39-0.13-0.59-0.2
	c-0.1-0.04-0.2-0.08-0.31-0.12c-0.09-0.04-0.32-0.14-0.1-0.04c-0.37-0.17-0.74-0.34-1.1-0.53c-0.36-0.19-0.7-0.4-1.04-0.63
	c-0.15-0.1-0.3-0.21-0.45-0.31c-0.11-0.08-0.17-0.14-0.02-0.01c-0.09-0.07-0.17-0.14-0.26-0.21c-0.56-0.46-1.07-0.98-1.53-1.53
	c-0.06-0.07-0.12-0.14-0.17-0.21c-0.05-0.06,0.14,0.2,0,0c-0.11-0.16-0.22-0.31-0.34-0.48c-0.19-0.29-0.37-0.59-0.53-0.89
	c-0.16-0.3-0.31-0.61-0.45-0.93c0.14,0.32-0.05-0.12-0.09-0.24c-0.06-0.17-0.12-0.33-0.18-0.5c-0.21-0.66-0.35-1.33-0.47-2.01
	c-0.04-0.23,0.03,0.25,0,0.03c-0.01-0.09-0.02-0.17-0.03-0.26c-0.02-0.17-0.03-0.35-0.04-0.52c-0.02-0.34-0.03-0.68-0.02-1.01
	c0.01-0.34,0.03-0.68,0.06-1.01c0.01-0.13,0.09-0.6,0.02-0.24c0.03-0.17,0.05-0.34,0.09-0.52c0.12-0.68,0.3-1.34,0.53-1.99
	c0.06-0.15,0.11-0.31,0.17-0.45c0.03-0.07,0.06-0.14,0.09-0.21c-0.14,0.34-0.01,0.03,0.03-0.06c0.14-0.31,0.29-0.61,0.45-0.91
	c0.17-0.31,0.35-0.6,0.54-0.9c0.09-0.14,0.18-0.27,0.28-0.4c0.04-0.06,0.09-0.12,0.14-0.18c0.1-0.13-0.15,0.18,0.04-0.05
	c0.43-0.53,0.9-1.02,1.42-1.47c0.12-0.11,0.26-0.21,0.38-0.31c0.23-0.19-0.15,0.1,0.02-0.02c0.07-0.05,0.15-0.11,0.22-0.16
	c0.29-0.21,0.6-0.4,0.91-0.58c0.31-0.18,0.62-0.34,0.95-0.48c0.07-0.03,0.14-0.06,0.22-0.1c-0.31,0.14-0.03,0.01,0.05-0.02
	c0.18-0.07,0.36-0.14,0.54-0.2c0.35-0.12,0.71-0.22,1.08-0.31c0.18-0.04,0.36-0.08,0.54-0.11c0.1-0.02,0.2-0.03,0.3-0.05
	c0.08-0.01,0.45-0.06,0.11-0.02c0.83-0.1,1.65-0.13,2.48-0.09c0.21,0.01,0.42,0.03,0.63,0.05c0.11,0.01,0.23,0.02,0.34,0.03
	c0.05,0,0.1,0.01,0.15,0.02c0.18,0.02-0.21-0.03-0.02,0c0.47,0.07,0.93,0.15,1.39,0.25c1.02,0.23,2.02,0.54,3,0.92
	c0.11,0.04,0.23,0.09,0.34,0.14c0.04,0.02,0.37,0.15,0.22,0.09c0.27,0.11,0.54,0.24,0.82,0.37c0.6,0.28,1.31,0.17,1.66-0.43
	C862.14,21.01,862,20.15,861.4,19.88z"/>
<path class="st0" d="M876.89,43.86c-0.33-0.48-0.63-0.98-0.89-1.5c-0.05-0.11-0.1-0.22-0.15-0.33c-0.1-0.21-0.01-0.03,0.01,0.01
	c-0.03-0.06-0.05-0.12-0.07-0.19c-0.09-0.24-0.17-0.48-0.24-0.74c-0.06-0.22-0.11-0.45-0.15-0.67c-0.02-0.12-0.05-0.32-0.02-0.07
	c-0.01-0.13-0.03-0.26-0.04-0.39c-0.01-0.21-0.02-0.42-0.01-0.63c0-0.1,0.01-0.19,0.02-0.29c0.01-0.08,0.07-0.49,0-0.12
	c0.07-0.4,0.16-0.79,0.3-1.18c0.03-0.08,0.06-0.17,0.1-0.25c-0.09,0.25-0.03,0.06,0.03-0.06c0.09-0.18,0.19-0.37,0.29-0.54
	c0.09-0.15,0.2-0.3,0.3-0.45c0.18-0.27-0.09,0.09,0.04-0.06c0.07-0.08,0.13-0.16,0.2-0.23c0.28-0.31,0.59-0.58,0.9-0.85
	c0.16-0.14-0.21,0.14,0.03-0.03c0.08-0.05,0.15-0.11,0.23-0.16c0.17-0.12,0.35-0.23,0.53-0.34c0.17-0.1,0.34-0.19,0.52-0.28
	c0.09-0.04,0.17-0.08,0.25-0.12c0.31-0.14-0.15,0.05,0.11-0.05c0.39-0.14,0.77-0.27,1.18-0.37c0.2-0.05,0.39-0.09,0.59-0.12
	c0.17-0.03,0.26-0.03,0.03-0.01c0.12-0.01,0.24-0.03,0.36-0.04c0.41-0.03,0.82-0.04,1.24-0.01c0.09,0,0.19,0.02,0.28,0.03
	c0.06,0,0.11,0.01,0.16,0.02c0.17,0.02-0.25-0.04-0.09-0.01c0.21,0.04,0.42,0.07,0.63,0.12c0.2,0.05,0.39,0.1,0.58,0.17
	c0.09,0.03,0.18,0.06,0.27,0.09c0.05,0.02,0.1,0.04,0.15,0.06c0.15,0.06-0.27-0.13-0.03-0.01c0.37,0.18,0.73,0.36,1.08,0.6
	c0.06,0.03,0.35,0.25,0.22,0.15c-0.12-0.09,0.16,0.13,0.21,0.17c0.19,0.16,0.36,0.33,0.53,0.51c0.09,0.1,0.18,0.2,0.27,0.3
	c0.07,0.08,0.24,0.32,0.09,0.11c0.17,0.23,0.32,0.46,0.47,0.7c0.15,0.24,0.27,0.49,0.39,0.74c0.03,0.06,0.05,0.12,0.09,0.18
	c0.08,0.17-0.1-0.27,0.02,0.04c0.05,0.13,0.1,0.26,0.15,0.4c0.23,0.65,0.39,1.32,0.51,2.01c0.11,0.65,0.91,1.01,1.49,0.85
	c0.69-0.19,0.95-0.84,0.85-1.49c-0.2-1.25-0.28-2.9-0.12-4.34c0.01-0.09,0.02-0.18,0.03-0.27c0,0.05-0.04,0.24,0,0
	c0.02-0.15,0.05-0.31,0.08-0.46c0.06-0.31,0.13-0.62,0.21-0.93c0.08-0.28,0.16-0.55,0.26-0.82c0.05-0.13,0.1-0.26,0.15-0.39
	c0.03-0.07,0.11-0.26,0,0c0.04-0.08,0.07-0.17,0.11-0.25c0.22-0.47,0.48-0.93,0.77-1.36c0.08-0.11,0.16-0.23,0.24-0.34
	c-0.16,0.21-0.01,0.02,0.06-0.08c0.17-0.2,0.35-0.4,0.54-0.59c0.17-0.17,0.34-0.32,0.52-0.47c0.11-0.09,0.27-0.2,0.06-0.05
	c0.11-0.08,0.23-0.17,0.34-0.24c0.39-0.26,0.8-0.47,1.22-0.67c0.23-0.11-0.21,0.08-0.05,0.02c0.06-0.02,0.11-0.05,0.17-0.07
	c0.09-0.03,0.19-0.07,0.28-0.1c0.23-0.08,0.47-0.14,0.71-0.2c0.22-0.05,0.43-0.09,0.65-0.12c-0.26,0.04-0.12,0.02,0.04,0
	c0.13-0.01,0.27-0.02,0.4-0.03c0.46-0.02,0.9,0.02,1.36,0.05c-0.39-0.03-0.02,0,0.08,0.02c0.11,0.02,0.22,0.04,0.33,0.06
	c0.24,0.05,0.48,0.11,0.72,0.19c0.2,0.06,0.4,0.14,0.6,0.22c0.16,0.06-0.28-0.13-0.05-0.02c0.05,0.02,0.09,0.04,0.14,0.06
	c0.11,0.06,0.23,0.11,0.34,0.17c0.2,0.11,0.4,0.22,0.6,0.34c0.11,0.07,0.22,0.14,0.32,0.21c0.08,0.06,0.4,0.31,0.13,0.09
	c0.39,0.31,0.75,0.65,1.08,1.02c0.09,0.09,0.17,0.19,0.24,0.28c0.03,0.04,0.07,0.09,0.11,0.13c0.18,0.21-0.12-0.16-0.01-0.01
	c0.16,0.22,0.32,0.44,0.46,0.67c0.16,0.26,0.31,0.54,0.45,0.81c0.08,0.15,0.15,0.3,0.21,0.45c0.02,0.05,0.08,0.21-0.01-0.03
	c0.03,0.09,0.07,0.17,0.11,0.26c0.25,0.65,0.43,1.33,0.57,2.01c0.03,0.17,0.06,0.35,0.09,0.52c0.01,0.07,0.02,0.14,0.03,0.21
	c-0.04-0.27,0,0.06,0.01,0.11c0.05,0.42,0.07,0.83,0.08,1.25c0.03,0.87-0.02,1.74-0.11,2.61c-0.13,1.16,1.8,1.7,2.26,0.61
	c0.2-0.46,0.41-0.91,0.67-1.33c0.12-0.2,0.25-0.4,0.38-0.59c0.06-0.09,0.13-0.19,0.2-0.28c-0.13,0.16,0.05-0.06,0.09-0.1
	c0.28-0.33,0.57-0.63,0.9-0.91c0.08-0.07,0.16-0.13,0.24-0.2c-0.22,0.17,0.05-0.03,0.08-0.06c0.17-0.11,0.33-0.23,0.5-0.33
	c0.17-0.1,0.34-0.2,0.52-0.28c0.09-0.04,0.18-0.08,0.26-0.12c0.29-0.14-0.23,0.07,0.07-0.03c0.36-0.12,0.72-0.25,1.1-0.33
	c0.18-0.04,0.37-0.07,0.56-0.1c-0.33,0.05,0.24-0.02,0.33-0.02c0.37-0.02,0.75-0.02,1.13,0.01c0.09,0.01,0.19,0.02,0.28,0.03
	c0.32,0.03-0.26-0.06,0.05,0.01c0.18,0.04,0.37,0.06,0.55,0.11c0.37,0.08,0.72,0.19,1.07,0.32c0.09,0.03,0.17,0.07,0.26,0.1
	c-0.29-0.11,0,0,0.05,0.03c0.17,0.08,0.34,0.16,0.5,0.25c0.33,0.18,0.63,0.39,0.94,0.6c0.26,0.17-0.19-0.17,0.05,0.03
	c0.07,0.06,0.14,0.12,0.21,0.18c0.14,0.12,0.28,0.25,0.41,0.37c0.11,0.11,0.22,0.22,0.32,0.34c0.06,0.07,0.12,0.14,0.18,0.21
	c0.22,0.26-0.01-0.05,0.09,0.12c0.19,0.28,0.38,0.56,0.54,0.86c0.09,0.17,0.17,0.34,0.24,0.51c-0.12-0.28,0,0.01,0.02,0.06
	c0.04,0.12,0.09,0.24,0.12,0.36c0.06,0.22,0.12,0.43,0.17,0.65c0.01,0.06,0.03,0.13,0.03,0.19c0.01,0.06,0.02,0.13,0.03,0.2
	c-0.02-0.16-0.02-0.17-0.01-0.03c0.03,0.48,0.05,0.96,0.01,1.44c-0.01,0.04-0.05,0.39-0.01,0.11c-0.02,0.11-0.03,0.22-0.05,0.33
	c-0.05,0.26-0.11,0.52-0.18,0.78c-0.17,0.61-0.32,0.97-0.54,1.45c-0.28,0.59-0.16,1.31,0.43,1.66c0.53,0.31,1.38,0.16,1.66-0.43
	c0.94-1.97,1.4-4.11,0.97-6.27c-0.34-1.76-1.34-3.4-2.68-4.57c-2.81-2.45-6.86-3.12-10.25-1.53c-2.11,0.99-3.68,2.89-4.58,5.01
	c0.75,0.2,1.51,0.41,2.26,0.61c0.33-3,0.01-6.13-1.41-8.83c-1.11-2.11-2.92-3.77-5.14-4.66c-4.31-1.74-9.23,0.19-11.48,4.18
	c-1.71,3.04-1.82,6.64-1.3,10.01c0.78-0.22,1.56-0.43,2.34-0.65c-0.4-2.31-1.42-4.65-3.27-6.17c-1.6-1.32-3.6-2.02-5.67-1.99
	c-3.84,0.04-7.85,2.47-8.82,6.35c-0.64,2.58,0.21,5.22,1.68,7.36c0.37,0.54,1.07,0.78,1.66,0.43
	C876.99,45.21,877.26,44.41,876.89,43.86z"/>
</svg>
