<?xml version="1.0" encoding="utf-8"?>
<!-- Generator: Adobe Illustrator 26.3.1, SVG Export Plug-In . SVG Version: 6.00 Build 0)  -->
<svg version="1.1" id="Layer_1" xmlns="http://www.w3.org/2000/svg" xmlns:xlink="http://www.w3.org/1999/xlink" x="0px" y="0px"
	 viewBox="0 0 344 217" style="enable-background:new 0 0 344 217;" xml:space="preserve">
<style type="text/css">
	.st0{fill:#8787C1;}
	.st1{fill:none;stroke:#8787C1;stroke-width:1.5;}
	.st2{fill:none;stroke:#8787C1;stroke-width:1.5;stroke-linecap:round;stroke-linejoin:round;}
</style>
<path class="st0" d="M16.27,166.62c-2.84-1.32-6.03-2.1-9.15-1.39c-2.39,0.55-4.45,2.03-5.82,4.05c-1.26,1.88-1.88,4.22-1.74,6.48
	c0.15,2.4,1.11,4.7,2.81,6.41c2.07,2.07,4.93,3.01,7.8,3.22c0.41,0.03,0.83,0.04,1.25,0.04c-0.15-0.57-0.31-1.14-0.46-1.71
	c-2.46,1.57-4.58,3.8-5.37,6.66c-0.65,2.35-0.31,4.84,0.75,7.02c2.1,4.28,7.08,7.02,11.8,5.69c3.41-0.97,5.94-3.73,7.67-6.71
	c-0.57-0.15-1.14-0.31-1.71-0.46c-0.19,2.14,0.16,4.38,1.32,6.22c1.01,1.61,2.53,2.79,4.3,3.47c3.33,1.28,7.45,0.53,9.96-2.05
	c1.66-1.69,2.43-3.99,2.48-6.33c-0.61,0-1.22,0-1.83,0c0.21,2.23,0.93,4.4,2.46,6.08c1.21,1.33,2.9,2.24,4.67,2.56
	c3.69,0.65,7.6-0.9,9.64-4.09c1.33-2.08,1.61-4.57,1.25-6.98c-0.56,0.24-1.12,0.47-1.67,0.71c2.57,4.01,7.26,7.68,12.29,6.6
	c1.33-0.29,2.57-0.92,3.64-1.75c0.9-0.69,1.74-1.42,2.38-2.38c1.15-1.7,1.65-3.9,1.52-5.94c-0.16-2.42-1.19-4.73-3.23-6.12
	c-0.07,0.56-0.14,1.12-0.22,1.68c2.29-0.76,4.31-2.14,5.64-4.17c1.13-1.72,1.66-3.84,1.57-5.89c-0.19-4.21-2.92-8.17-7.11-9.2
	c-2.96-0.73-6.02,0.04-8.7,1.36c0.45,0.34,0.9,0.69,1.34,1.03c0.6-2.61,0.76-5.42-0.07-8c-0.66-2.06-1.92-3.86-3.7-5.11
	c-3.39-2.4-8.09-2.1-11.44,0.22c-2.36,1.64-3.98,4.04-4.98,6.7c0.6,0.08,1.2,0.16,1.8,0.24c0.28-3.37-1.07-7.01-4.26-8.55
	c-2.71-1.31-6.06-0.79-7.99,1.62c-1.37,1.71-1.85,3.9-1.86,6.05c0.6-0.08,1.2-0.16,1.8-0.24c-0.54-2.6-1.7-5.16-3.72-6.94
	c-1.69-1.49-3.81-2.33-6.06-2.47c-4.11-0.26-8.58,1.96-10.34,5.79c-1.12,2.43-1.05,5.15-0.07,7.61c0.18,0.46,0.61,0.78,1.13,0.64
	c0.44-0.12,0.82-0.66,0.64-1.13c-0.22-0.55-0.4-1.13-0.53-1.71c-0.03-0.12-0.05-0.24-0.07-0.36c-0.01-0.07-0.02-0.14-0.04-0.21
	c-0.05-0.24,0.02,0.2-0.01-0.04c-0.03-0.25-0.05-0.51-0.06-0.76c-0.01-0.25-0.01-0.49,0.01-0.74c0.01-0.11,0.02-0.22,0.03-0.33
	c0.01-0.06,0.02-0.13,0.02-0.2c-0.03,0.27,0-0.02,0.01-0.08c0.08-0.46,0.19-0.91,0.35-1.35c0.04-0.1,0.07-0.19,0.11-0.29
	c0.07-0.2-0.09,0.19,0-0.01c0.03-0.06,0.05-0.11,0.08-0.17c0.1-0.22,0.21-0.42,0.33-0.63c0.11-0.19,0.22-0.37,0.35-0.55
	c0.07-0.1,0.14-0.2,0.22-0.3c-0.15,0.2,0.07-0.09,0.13-0.15c0.29-0.35,0.61-0.67,0.95-0.97c0.09-0.08,0.19-0.16,0.29-0.24
	c0.03-0.03,0.06-0.05,0.1-0.08c0.17-0.14-0.17,0.12,0.01-0.01c0.21-0.14,0.4-0.29,0.62-0.43c0.39-0.25,0.8-0.47,1.21-0.66
	c0.06-0.03,0.12-0.05,0.17-0.08c0.19-0.09-0.14,0.06-0.02,0.01c0.11-0.04,0.22-0.09,0.32-0.13c0.24-0.09,0.48-0.17,0.72-0.24
	c0.45-0.13,0.9-0.23,1.36-0.31c0.06-0.01,0.13-0.02,0.19-0.03c-0.23,0.03-0.11,0.01-0.05,0.01c0.13-0.01,0.25-0.03,0.38-0.04
	c0.23-0.02,0.47-0.03,0.7-0.03c0.23,0,0.47,0,0.7,0.02c0.12,0.01,0.23,0.02,0.35,0.03c0.08,0.01,0.51,0.07,0.23,0.02
	c0.47,0.07,0.92,0.17,1.38,0.31c0.23,0.07,0.45,0.15,0.67,0.23c0.06,0.02,0.12,0.05,0.18,0.07c-0.2-0.08-0.08-0.04-0.04-0.02
	c0.14,0.07,0.28,0.13,0.41,0.2c0.44,0.22,0.85,0.48,1.24,0.77c0.04,0.03,0.22,0.17,0.03,0.02c0.05,0.04,0.11,0.09,0.16,0.13
	c0.13,0.1,0.25,0.21,0.37,0.32c0.21,0.19,0.41,0.39,0.6,0.6c0.11,0.12,0.21,0.23,0.31,0.36c0.04,0.05,0.08,0.1,0.12,0.15
	c-0.14-0.18,0.06,0.08,0.08,0.11c0.18,0.25,0.35,0.5,0.51,0.76c0.18,0.3,0.34,0.6,0.49,0.91c0.18,0.38,0.2,0.41,0.34,0.79
	c0.28,0.75,0.49,1.52,0.66,2.31c0.21,1.03,1.8,0.77,1.8-0.24c0-0.49,0.03-0.97,0.08-1.45c0.02-0.19,0.01-0.07,0-0.03
	c0.01-0.06,0.02-0.12,0.03-0.18c0.02-0.1,0.04-0.2,0.05-0.3c0.04-0.21,0.09-0.41,0.14-0.62c0.05-0.2,0.11-0.39,0.18-0.58
	c0.03-0.09,0.06-0.17,0.09-0.26c0.02-0.05,0.04-0.1,0.06-0.14c-0.03,0.07-0.04,0.1,0,0.01c0.16-0.34,0.33-0.67,0.54-0.98
	c0.04-0.07,0.09-0.13,0.14-0.2c0.03-0.04,0.05-0.07,0.08-0.11c0,0-0.11,0.13-0.04,0.05c0.11-0.13,0.22-0.27,0.35-0.39
	c0.1-0.11,0.21-0.21,0.32-0.31c0.05-0.05,0.11-0.09,0.17-0.15c0.12-0.11-0.02,0.01-0.04,0.03c0.04-0.03,0.08-0.06,0.13-0.09
	c0.25-0.18,0.51-0.33,0.79-0.46c0.06-0.03,0.13-0.06,0.19-0.09c-0.24,0.11,0,0,0.06-0.02c0.14-0.05,0.28-0.1,0.43-0.14
	c0.14-0.04,0.29-0.07,0.43-0.1c0.07-0.01,0.14-0.02,0.21-0.04c0.1-0.02-0.1,0.01-0.1,0.01c0.05,0,0.1-0.01,0.15-0.02
	c0.3-0.03,0.59-0.03,0.89-0.01c0.08,0.01,0.16,0.02,0.24,0.02c0.21,0.01-0.14-0.03,0.02,0c0.16,0.03,0.31,0.06,0.47,0.09
	c0.3,0.07,0.58,0.17,0.87,0.27c0.15,0.05-0.17-0.08,0.04,0.02c0.06,0.03,0.13,0.06,0.2,0.09c0.15,0.07,0.3,0.15,0.44,0.24
	c0.13,0.07,0.25,0.15,0.37,0.24c0.07,0.05,0.14,0.1,0.21,0.15c-0.16-0.12,0,0,0.06,0.05c0.25,0.21,0.48,0.44,0.7,0.68
	c0.05,0.06,0.1,0.12,0.15,0.18c0.05,0.07,0.15,0.19,0.04,0.05c0.11,0.15,0.21,0.29,0.31,0.45c0.11,0.17,0.21,0.34,0.3,0.52
	c0.04,0.08,0.09,0.17,0.13,0.26c0.03,0.05,0.14,0.34,0.07,0.15c0.16,0.4,0.29,0.81,0.39,1.23c0.05,0.21,0.08,0.42,0.12,0.63
	c0,0.04,0.03,0.18,0,0c0.01,0.07,0.02,0.14,0.02,0.21c0.01,0.11,0.02,0.22,0.03,0.34c0.03,0.53,0.02,1.05-0.02,1.57
	c-0.04,0.45,0.38,0.85,0.8,0.9c0.48,0.06,0.84-0.22,1-0.65c0.38-1,0.96-2.14,1.66-3.12c0.08-0.11,0.16-0.23,0.25-0.34
	c-0.11,0.14,0.11-0.13,0.14-0.17c0.18-0.22,0.36-0.43,0.56-0.63c0.35-0.38,0.73-0.72,1.13-1.05c0.03-0.02,0.22-0.17,0.05-0.04
	c0.04-0.03,0.08-0.06,0.12-0.09c0.1-0.07,0.2-0.14,0.3-0.21c0.21-0.15,0.43-0.28,0.64-0.41c0.2-0.11,0.39-0.22,0.6-0.32
	c0.11-0.05,0.21-0.1,0.32-0.15c0.05-0.02,0.11-0.05,0.16-0.07c0.06-0.03,0.04-0.02-0.06,0.03c0.04-0.02,0.09-0.04,0.13-0.05
	c0.43-0.16,0.86-0.31,1.31-0.41c0.21-0.05,0.42-0.09,0.63-0.13c0.05-0.01,0.11-0.02,0.17-0.02c0.22-0.04-0.15,0.02-0.01,0
	c0.12-0.01,0.24-0.03,0.36-0.04c0.44-0.04,0.88-0.04,1.31-0.02c0.11,0.01,0.22,0.02,0.32,0.03c0.06,0.01,0.41,0.06,0.14,0.01
	c0.22,0.04,0.45,0.07,0.67,0.12c0.43,0.1,0.85,0.22,1.26,0.38c0.04,0.02,0.08,0.03,0.12,0.05c0.21,0.08-0.18-0.09,0.02,0.01
	c0.09,0.04,0.18,0.08,0.26,0.12c0.2,0.1,0.4,0.21,0.6,0.32c0.19,0.11,0.37,0.23,0.55,0.35c0.08,0.05,0.16,0.11,0.24,0.17
	c0.11,0.08-0.17-0.14,0,0c0.05,0.04,0.1,0.08,0.15,0.12c0.35,0.29,0.67,0.61,0.97,0.96c0.07,0.08,0.13,0.16,0.2,0.23
	c0.15,0.18-0.11-0.16,0.02,0.03c0.03,0.04,0.05,0.07,0.08,0.11c0.15,0.21,0.29,0.42,0.42,0.63c0.11,0.18,0.21,0.37,0.31,0.56
	c0.05,0.11,0.11,0.21,0.16,0.32c0.03,0.07,0.06,0.14,0.09,0.2c-0.06-0.15-0.01-0.02,0.02,0.05c0.21,0.54,0.38,1.09,0.5,1.66
	c0.03,0.14,0.06,0.29,0.09,0.44c0.01,0.08,0.03,0.16,0.04,0.24c0.01,0.04,0.04,0.29,0.01,0.09c0.04,0.31,0.07,0.62,0.08,0.94
	c0.04,0.71,0.02,1.42-0.05,2.12c-0.07,0.71-0.19,1.4-0.37,2.18c-0.19,0.81,0.63,1.39,1.34,1.03c1.13-0.56,2.37-1.01,3.7-1.25
	c0.14-0.03,0.28-0.05,0.41-0.07c-0.2,0.03,0.19-0.02,0.24-0.03c0.29-0.03,0.57-0.05,0.86-0.05c0.25,0,0.5,0,0.75,0.02
	c0.12,0.01,0.24,0.02,0.37,0.03c0.07,0.01,0.14,0.02,0.22,0.03c-0.23-0.03-0.01,0,0.04,0.01c0.5,0.09,0.99,0.21,1.47,0.38
	c0.11,0.04,0.21,0.08,0.31,0.12c0.04,0.02,0.16,0.07-0.04-0.02c0.06,0.03,0.12,0.05,0.18,0.08c0.22,0.1,0.43,0.21,0.64,0.33
	c0.19,0.11,0.37,0.22,0.55,0.35c0.09,0.06,0.17,0.12,0.26,0.19c0.18,0.13-0.15-0.13,0.02,0.01c0.05,0.04,0.1,0.08,0.15,0.12
	c0.34,0.29,0.66,0.6,0.95,0.94c0.08,0.09,0.15,0.18,0.22,0.27c0.04,0.05,0.13,0.17-0.01-0.01c0.03,0.04,0.06,0.08,0.09,0.13
	c0.14,0.2,0.28,0.4,0.4,0.61c0.23,0.38,0.43,0.78,0.61,1.18c-0.11-0.24,0.03,0.08,0.05,0.13c0.04,0.1,0.07,0.2,0.11,0.3
	c0.08,0.22,0.14,0.45,0.2,0.67c0.05,0.21,0.1,0.41,0.14,0.62c0.02,0.11,0.04,0.21,0.06,0.32c0.01,0.06,0.02,0.12,0.03,0.19
	c-0.04-0.25-0.01-0.05,0,0.01c0.05,0.46,0.07,0.91,0.06,1.38c-0.01,0.22-0.02,0.45-0.04,0.67c-0.01,0.07-0.05,0.42-0.01,0.14
	c-0.02,0.13-0.04,0.25-0.06,0.38c-0.08,0.45-0.2,0.89-0.34,1.31c-0.04,0.1-0.07,0.21-0.11,0.3c-0.02,0.06-0.16,0.38-0.05,0.14
	c-0.1,0.22-0.2,0.44-0.31,0.65c-0.13,0.23-0.26,0.46-0.41,0.68c-0.07,0.11-0.15,0.22-0.23,0.33c-0.03,0.04-0.16,0.21-0.02,0.03
	c-0.04,0.05-0.08,0.11-0.13,0.16c-0.35,0.43-0.75,0.83-1.17,1.18c-0.04,0.04-0.09,0.08-0.14,0.11c-0.18,0.15,0.08-0.05-0.07,0.06
	c-0.12,0.08-0.24,0.17-0.36,0.25c-0.25,0.17-0.51,0.32-0.77,0.47c-0.28,0.15-0.56,0.29-0.85,0.41c0.03-0.02,0.16-0.06-0.01,0
	c-0.09,0.04-0.18,0.07-0.27,0.11c-0.17,0.06-0.34,0.12-0.51,0.18c-0.77,0.26-0.88,1.23-0.22,1.67c0.29,0.19,0.59,0.46,0.89,0.8
	c0.07,0.08,0.14,0.16,0.21,0.24c-0.08-0.1,0.08,0.11,0.1,0.14c0.13,0.19,0.25,0.38,0.36,0.58c0.23,0.42,0.3,0.58,0.44,1.06
	c0.06,0.21,0.12,0.42,0.17,0.63c0.04,0.18,0.1,0.53,0.12,0.63c0.21,1.66-0.09,3.47-0.9,4.92c-0.1,0.19-0.21,0.36-0.33,0.54
	c-0.06,0.09-0.12,0.17-0.18,0.26c-0.06,0.08-0.01,0.01,0.01-0.01c-0.04,0.06-0.09,0.11-0.14,0.17c-0.13,0.16-0.28,0.3-0.42,0.45
	c-0.07,0.07-0.15,0.14-0.23,0.21c-0.03,0.03-0.07,0.06-0.1,0.08c-0.04,0.03-0.04,0.04-0.01,0.01c0.09-0.06,0.03-0.02-0.16,0.13
	c-0.9,0.76-1.83,1.43-2.96,1.8c-1.97,0.63-4,0.27-5.81-0.69c-2.11-1.12-3.86-2.88-5.14-4.87c-0.24-0.38-0.72-0.56-1.15-0.38
	c-0.45,0.2-0.6,0.62-0.53,1.08c0.04,0.28-0.01-0.1,0.01,0.07c0.01,0.06,0.01,0.12,0.02,0.18c0.01,0.13,0.03,0.26,0.04,0.39
	c0.02,0.27,0.03,0.53,0.03,0.8c0,0.23-0.01,0.46-0.03,0.69c-0.01,0.13-0.03,0.26-0.04,0.39c0,0.04-0.03,0.18,0-0.01
	c-0.01,0.08-0.02,0.15-0.04,0.23c-0.07,0.44-0.18,0.87-0.32,1.29c-0.04,0.1-0.07,0.2-0.11,0.31c-0.02,0.05-0.15,0.35-0.05,0.14
	c-0.09,0.2-0.19,0.4-0.29,0.59c-0.09,0.17-0.19,0.34-0.3,0.5c-0.06,0.1-0.13,0.19-0.19,0.28c-0.04,0.05-0.24,0.32-0.1,0.14
	c-0.25,0.31-0.51,0.61-0.81,0.88c-0.14,0.14-0.3,0.26-0.45,0.39c-0.2,0.17,0.07-0.05-0.1,0.08c-0.09,0.07-0.18,0.13-0.27,0.19
	c-0.33,0.23-0.68,0.43-1.04,0.61c-0.08,0.04-0.16,0.08-0.23,0.11c-0.05,0.02-0.1,0.04-0.15,0.07c-0.12,0.05,0.16-0.06,0.04-0.02
	c-0.19,0.07-0.38,0.15-0.58,0.21c-0.38,0.12-0.77,0.22-1.16,0.29c-0.1,0.02-0.19,0.03-0.29,0.05c-0.14,0.03,0.16-0.02-0.08,0.01
	c-0.22,0.02-0.43,0.04-0.64,0.05c-0.39,0.02-0.77,0-1.16-0.04c-0.05,0-0.34-0.04-0.2-0.02c0.14,0.02-0.15-0.03-0.2-0.03
	c-0.2-0.04-0.4-0.08-0.59-0.13c-0.18-0.04-0.35-0.1-0.52-0.15c-0.09-0.03-0.18-0.06-0.27-0.1c-0.05-0.02-0.1-0.04-0.15-0.06
	c-0.18-0.06,0.17,0.08-0.02-0.01c-0.35-0.16-0.7-0.34-1.03-0.55c-0.17-0.11-0.32-0.22-0.48-0.34c0.16,0.12-0.01-0.01-0.07-0.06
	c-0.09-0.08-0.19-0.16-0.28-0.24c-0.17-0.16-0.34-0.33-0.5-0.51c-0.08-0.09-0.15-0.17-0.22-0.26c-0.03-0.04-0.06-0.07-0.09-0.11
	c0.14,0.18-0.01-0.01-0.03-0.04c-0.29-0.41-0.54-0.83-0.76-1.28c-0.03-0.06-0.05-0.12-0.08-0.17c-0.07-0.16,0.03,0.07-0.01-0.03
	c-0.05-0.13-0.11-0.27-0.15-0.4c-0.09-0.25-0.17-0.51-0.24-0.78c-0.07-0.28-0.13-0.55-0.19-0.83c-0.07-0.4-0.07-0.41-0.11-0.83
	c-0.05-0.49-0.39-0.91-0.91-0.91c-0.51,0-0.9,0.42-0.91,0.91c-0.01,0.25-0.02,0.5-0.04,0.75c-0.01,0.05-0.01,0.11-0.02,0.16
	c0,0-0.03,0.26-0.01,0.12c0.02-0.14-0.02,0.12-0.02,0.12c-0.01,0.08-0.03,0.15-0.04,0.23c-0.08,0.44-0.2,0.88-0.35,1.3
	c-0.04,0.11-0.08,0.22-0.13,0.34c-0.02,0.04-0.07,0.16,0.01-0.02c-0.02,0.04-0.04,0.09-0.06,0.13c-0.1,0.21-0.2,0.41-0.32,0.62
	c-0.1,0.18-0.21,0.35-0.32,0.52c-0.05,0.07-0.11,0.14-0.15,0.22c-0.09,0.14,0.01-0.01,0.02-0.03c-0.04,0.05-0.08,0.1-0.13,0.15
	c-0.26,0.32-0.56,0.61-0.87,0.88c-0.06,0.06-0.13,0.11-0.2,0.16c-0.16,0.14,0.12-0.09,0.01-0.01c-0.04,0.03-0.09,0.06-0.13,0.1
	c-0.15,0.11-0.31,0.22-0.48,0.32c-0.16,0.1-0.33,0.2-0.5,0.28c-0.09,0.05-0.19,0.1-0.29,0.14c-0.06,0.03-0.37,0.16-0.13,0.06
	c-0.37,0.15-0.73,0.27-1.12,0.37c-0.18,0.04-0.35,0.08-0.53,0.12c-0.11,0.02-0.21,0.04-0.31,0.05c-0.25,0.04,0.13-0.01-0.13,0.02
	c-0.39,0.04-0.79,0.06-1.18,0.05c-0.18,0-0.36-0.01-0.54-0.03c-0.11-0.01-0.21-0.02-0.32-0.03c-0.05,0-0.18-0.03,0.05,0.01
	c-0.06-0.01-0.13-0.02-0.19-0.03c-0.39-0.06-0.77-0.15-1.15-0.27c-0.17-0.05-0.34-0.11-0.51-0.17c-0.05-0.02-0.38-0.16-0.13-0.05
	c-0.1-0.04-0.2-0.09-0.29-0.13c-0.36-0.17-0.7-0.36-1.02-0.58c-0.08-0.06-0.16-0.11-0.23-0.17c-0.21-0.15,0.07,0.06-0.1-0.07
	c-0.16-0.13-0.31-0.26-0.46-0.4c-0.14-0.14-0.28-0.28-0.41-0.42c-0.06-0.07-0.12-0.13-0.17-0.2c-0.04-0.04-0.07-0.09-0.1-0.13
	c-0.04-0.06,0.1,0.14-0.02-0.03c-0.27-0.38-0.52-0.77-0.72-1.19c-0.03-0.05-0.05-0.11-0.07-0.16c-0.01-0.02-0.1-0.24-0.05-0.12
	c0.05,0.13-0.03-0.08-0.04-0.09c-0.03-0.07-0.05-0.13-0.08-0.2c-0.08-0.23-0.15-0.47-0.22-0.71c-0.07-0.26-0.12-0.52-0.17-0.79
	c-0.01-0.05-0.02-0.1-0.03-0.16c-0.01-0.07-0.01-0.05,0.01,0.04c-0.01-0.04-0.01-0.08-0.02-0.12c-0.02-0.15-0.03-0.3-0.04-0.45
	c-0.04-0.61-0.03-1.23,0.03-1.84c0.08-0.93-1.27-1.21-1.71-0.46c-0.82,1.41-1.68,2.6-2.87,3.7c-0.57,0.53-0.87,0.77-1.5,1.16
	c-0.25,0.15-0.5,0.3-0.76,0.43c-0.12,0.06-0.23,0.12-0.35,0.17c-0.07,0.03-0.14,0.06-0.21,0.09c0.21-0.09-0.09,0.04-0.13,0.05
	c-0.52,0.2-1.05,0.35-1.59,0.45c-0.07,0.01-0.14,0.02-0.21,0.04c-0.23,0.04,0.2-0.02-0.03,0c-0.14,0.01-0.28,0.03-0.41,0.04
	c-0.27,0.02-0.55,0.02-0.82,0.01c-0.25-0.01-0.49-0.03-0.74-0.06c-0.23-0.02,0.21,0.04-0.02,0c-0.06-0.01-0.13-0.02-0.2-0.03
	c-0.13-0.02-0.26-0.05-0.39-0.08c-0.24-0.06-0.47-0.12-0.71-0.19c-0.13-0.04-0.25-0.08-0.38-0.13c-0.08-0.03-0.5-0.21-0.28-0.11
	c-0.47-0.21-0.92-0.44-1.35-0.72c-0.21-0.13-0.41-0.27-0.6-0.42c-0.04-0.03-0.21-0.17-0.03-0.02c-0.05-0.04-0.11-0.08-0.16-0.12
	c-0.1-0.08-0.21-0.17-0.3-0.26c-0.4-0.36-0.77-0.74-1.11-1.15c-0.04-0.04-0.25-0.32-0.11-0.13c-0.08-0.1-0.16-0.21-0.24-0.32
	c-0.15-0.22-0.3-0.44-0.44-0.67c-0.13-0.21-0.24-0.43-0.35-0.65c-0.06-0.12-0.12-0.24-0.17-0.36c-0.02-0.04-0.11-0.25-0.01-0.02
	c-0.03-0.07-0.06-0.15-0.09-0.22c-0.19-0.49-0.34-0.99-0.45-1.5c-0.03-0.13-0.05-0.26-0.07-0.4c-0.01-0.04-0.01-0.09-0.02-0.13
	c-0.04-0.23,0.02,0.21,0-0.02c-0.02-0.27-0.05-0.54-0.05-0.81c-0.01-0.27,0-0.54,0.02-0.81c0.01-0.11,0.02-0.23,0.03-0.34
	c0.01-0.05,0.04-0.28,0-0.03c0.02-0.09,0.03-0.18,0.04-0.27c0.11-0.6,0.29-1.2,0.52-1.76c-0.08,0.2,0.08-0.18,0.12-0.25
	c0.08-0.16,0.16-0.31,0.24-0.46c0.16-0.29,0.34-0.58,0.54-0.85c0.04-0.06,0.09-0.13,0.14-0.19c0.06-0.08,0.06-0.09,0-0.01
	c0.03-0.04,0.07-0.09,0.1-0.13c0.1-0.13,0.21-0.26,0.32-0.38c0.25-0.28,0.51-0.55,0.78-0.8c0.65-0.61,1.16-0.99,1.93-1.48
	c0.75-0.48,0.47-1.7-0.46-1.71c-0.4,0-0.81-0.01-1.21-0.04c-0.19-0.01-0.37-0.03-0.56-0.05c-0.1-0.01-0.19-0.02-0.29-0.03
	c-0.11-0.01,0.03,0,0.04,0.01c-0.05-0.01-0.11-0.02-0.16-0.02c-0.7-0.11-1.39-0.26-2.06-0.48c-0.15-0.05-0.3-0.1-0.44-0.15
	c-0.08-0.03-0.15-0.06-0.23-0.09c-0.07-0.03-0.24-0.1-0.07-0.03c-0.28-0.13-0.56-0.25-0.83-0.4c-0.27-0.14-0.53-0.3-0.78-0.47
	c-0.12-0.08-0.23-0.16-0.34-0.24c-0.08-0.06-0.13-0.1-0.02-0.01c-0.06-0.05-0.13-0.1-0.2-0.16c-0.42-0.35-0.81-0.74-1.16-1.16
	c-0.04-0.05-0.09-0.11-0.13-0.16c-0.04-0.04,0.11,0.15,0,0c-0.08-0.12-0.17-0.24-0.25-0.36c-0.14-0.22-0.28-0.44-0.4-0.67
	c-0.12-0.23-0.23-0.46-0.34-0.7c0.11,0.24-0.04-0.09-0.07-0.18c-0.05-0.13-0.09-0.25-0.13-0.38c-0.16-0.5-0.27-1-0.36-1.52
	c-0.03-0.17,0.02,0.19,0,0.02c-0.01-0.07-0.02-0.13-0.02-0.2c-0.01-0.13-0.02-0.26-0.03-0.39c-0.02-0.25-0.02-0.51-0.02-0.76
	c0.01-0.25,0.02-0.51,0.04-0.76c0.01-0.1,0.07-0.46,0.02-0.18c0.02-0.13,0.04-0.26,0.06-0.39c0.09-0.51,0.22-1.01,0.4-1.5
	c0.04-0.12,0.08-0.23,0.13-0.34c0.02-0.05,0.04-0.11,0.06-0.16c-0.1,0.25-0.01,0.02,0.02-0.04c0.11-0.23,0.22-0.46,0.34-0.68
	c0.13-0.23,0.26-0.46,0.41-0.68c0.07-0.1,0.14-0.2,0.21-0.3c0.03-0.04,0.07-0.09,0.1-0.14c0.07-0.1-0.11,0.14,0.03-0.04
	c0.33-0.4,0.68-0.77,1.07-1.11c0.09-0.08,0.19-0.16,0.29-0.24c0.17-0.14-0.11,0.08,0.02-0.02c0.05-0.04,0.11-0.08,0.16-0.12
	c0.22-0.16,0.45-0.31,0.69-0.44c0.23-0.13,0.47-0.26,0.72-0.37c0.05-0.03,0.11-0.05,0.17-0.07c-0.23,0.1-0.02,0.01,0.04-0.01
	c0.13-0.05,0.27-0.1,0.4-0.15c0.27-0.09,0.54-0.17,0.81-0.23c0.13-0.03,0.27-0.06,0.41-0.09c0.07-0.01,0.15-0.03,0.22-0.04
	c0.06-0.01,0.34-0.04,0.08-0.01c0.62-0.07,1.24-0.1,1.87-0.07c0.16,0.01,0.32,0.02,0.48,0.03c0.09,0.01,0.17,0.02,0.26,0.03
	c0.04,0,0.07,0.01,0.11,0.01c0.14,0.02-0.16-0.02-0.02,0c0.35,0.05,0.7,0.11,1.05,0.19c0.77,0.17,1.53,0.41,2.26,0.69
	c0.09,0.03,0.17,0.07,0.26,0.1c0.03,0.01,0.28,0.12,0.17,0.07c0.21,0.09,0.41,0.18,0.62,0.28c0.45,0.21,0.99,0.12,1.25-0.33
	C16.83,167.47,16.72,166.82,16.27,166.62z"/>
<path class="st0" d="M27.95,184.73c-0.25-0.36-0.48-0.74-0.67-1.13c-0.04-0.08-0.08-0.17-0.12-0.25c-0.07-0.16-0.01-0.03,0,0.01
	c-0.02-0.05-0.04-0.09-0.05-0.14c-0.07-0.18-0.13-0.37-0.18-0.55c-0.04-0.17-0.09-0.34-0.12-0.51c-0.02-0.09-0.04-0.24-0.01-0.05
	c-0.01-0.1-0.02-0.2-0.03-0.29c-0.01-0.16-0.01-0.32-0.01-0.47c0-0.07,0.01-0.14,0.01-0.22c0.01-0.06,0.05-0.37,0-0.09
	c0.05-0.31,0.12-0.6,0.22-0.89c0.02-0.06,0.05-0.13,0.07-0.19c-0.07,0.19-0.02,0.04,0.03-0.05c0.07-0.14,0.14-0.28,0.22-0.41
	c0.07-0.12,0.15-0.23,0.22-0.34c0.14-0.2-0.07,0.07,0.03-0.04c0.05-0.06,0.1-0.12,0.15-0.18c0.21-0.23,0.44-0.44,0.68-0.65
	c0.12-0.11-0.16,0.11,0.03-0.02c0.06-0.04,0.11-0.08,0.17-0.12c0.13-0.09,0.26-0.17,0.4-0.25c0.13-0.07,0.26-0.15,0.39-0.21
	c0.06-0.03,0.13-0.06,0.19-0.09c0.23-0.11-0.11,0.03,0.09-0.04c0.3-0.1,0.58-0.21,0.89-0.28c0.15-0.04,0.3-0.06,0.44-0.09
	c0.13-0.02,0.2-0.03,0.03-0.01c0.09-0.01,0.18-0.02,0.27-0.03c0.31-0.03,0.62-0.03,0.93-0.01c0.07,0,0.14,0.01,0.21,0.02
	c0.04,0,0.08,0.01,0.12,0.01c0.13,0.01-0.19-0.03-0.06-0.01c0.16,0.03,0.32,0.05,0.47,0.09c0.15,0.04,0.29,0.08,0.44,0.12
	c0.07,0.02,0.13,0.04,0.2,0.07c0.04,0.01,0.08,0.03,0.11,0.04c0.11,0.04-0.21-0.1-0.02-0.01c0.28,0.14,0.55,0.27,0.81,0.45
	c0.04,0.03,0.26,0.19,0.16,0.11c-0.09-0.07,0.12,0.1,0.16,0.13c0.14,0.12,0.27,0.25,0.4,0.39c0.07,0.07,0.13,0.15,0.2,0.22
	c0.05,0.06,0.18,0.24,0.07,0.08c0.13,0.17,0.24,0.35,0.35,0.53c0.11,0.18,0.21,0.37,0.3,0.56c0.02,0.04,0.04,0.09,0.06,0.14
	c0.06,0.13-0.08-0.2,0.02,0.03c0.04,0.1,0.08,0.2,0.11,0.3c0.17,0.49,0.3,1,0.39,1.51c0.08,0.49,0.68,0.76,1.13,0.64
	c0.52-0.14,0.72-0.64,0.64-1.13c-0.15-0.94-0.21-2.19-0.09-3.28c0.01-0.07,0.02-0.14,0.02-0.2c0,0.04-0.03,0.18,0,0
	c0.02-0.12,0.04-0.23,0.06-0.35c0.04-0.24,0.1-0.47,0.16-0.7c0.06-0.21,0.12-0.42,0.19-0.62c0.04-0.1,0.07-0.2,0.11-0.29
	c0.02-0.05,0.09-0.2,0,0c0.03-0.06,0.05-0.12,0.08-0.19c0.17-0.36,0.36-0.7,0.58-1.02c0.06-0.09,0.12-0.17,0.18-0.25
	c-0.12,0.16-0.01,0.02,0.05-0.06c0.13-0.15,0.27-0.3,0.41-0.45c0.13-0.12,0.26-0.24,0.39-0.36c0.08-0.07,0.21-0.15,0.04-0.04
	c0.09-0.06,0.17-0.12,0.26-0.18c0.29-0.2,0.6-0.35,0.92-0.51c0.18-0.08-0.16,0.06-0.04,0.02c0.04-0.02,0.09-0.04,0.13-0.05
	c0.07-0.03,0.14-0.05,0.21-0.07c0.18-0.06,0.36-0.11,0.54-0.15c0.16-0.04,0.33-0.06,0.49-0.09c-0.19,0.03-0.09,0.01,0.03,0
	c0.1-0.01,0.2-0.02,0.3-0.02c0.35-0.02,0.68,0.02,1.02,0.04c-0.29-0.02-0.02,0,0.06,0.01c0.08,0.02,0.16,0.03,0.25,0.05
	c0.18,0.04,0.36,0.09,0.54,0.14c0.15,0.05,0.3,0.11,0.45,0.16c0.12,0.04-0.21-0.1-0.04-0.02c0.04,0.02,0.07,0.03,0.1,0.05
	c0.09,0.04,0.17,0.08,0.26,0.12c0.15,0.08,0.3,0.17,0.45,0.26c0.08,0.05,0.16,0.11,0.24,0.16c0.06,0.04,0.3,0.23,0.1,0.07
	c0.29,0.24,0.57,0.49,0.82,0.77c0.06,0.07,0.13,0.14,0.18,0.21c0.03,0.03,0.05,0.06,0.08,0.1c0.14,0.16-0.09-0.12-0.01-0.01
	c0.12,0.17,0.24,0.33,0.35,0.51c0.13,0.2,0.24,0.4,0.34,0.61c0.06,0.11,0.11,0.23,0.16,0.34c0.02,0.04,0.06,0.16-0.01-0.03
	c0.03,0.07,0.05,0.13,0.08,0.2c0.19,0.49,0.33,1,0.43,1.52c0.03,0.13,0.05,0.26,0.07,0.39c0.01,0.05,0.02,0.11,0.02,0.16
	c-0.03-0.21,0,0.04,0.01,0.08c0.04,0.32,0.05,0.63,0.06,0.94c0.02,0.66-0.02,1.32-0.09,1.97c-0.1,0.88,1.36,1.29,1.71,0.46
	c0.15-0.35,0.31-0.68,0.5-1.01c0.09-0.15,0.19-0.3,0.29-0.45c0.05-0.07,0.1-0.14,0.15-0.21c-0.1,0.12,0.04-0.05,0.07-0.08
	c0.21-0.25,0.43-0.48,0.68-0.69c0.06-0.05,0.12-0.1,0.18-0.15c-0.16,0.13,0.04-0.02,0.06-0.04c0.13-0.09,0.25-0.17,0.38-0.25
	c0.13-0.08,0.26-0.15,0.39-0.21c0.07-0.03,0.13-0.06,0.2-0.09c0.22-0.1-0.18,0.05,0.05-0.02c0.28-0.09,0.54-0.19,0.83-0.25
	c0.14-0.03,0.28-0.05,0.42-0.08c-0.25,0.04,0.18-0.01,0.25-0.02c0.28-0.02,0.57-0.01,0.85,0.01c0.07,0.01,0.14,0.02,0.21,0.02
	c0.24,0.02-0.2-0.04,0.04,0.01c0.14,0.03,0.28,0.05,0.41,0.08c0.28,0.06,0.55,0.14,0.81,0.24c0.07,0.03,0.13,0.05,0.2,0.08
	c-0.22-0.09,0,0,0.04,0.02c0.13,0.06,0.25,0.12,0.38,0.19c0.25,0.13,0.47,0.29,0.71,0.45c0.2,0.13-0.14-0.12,0.04,0.03
	c0.05,0.04,0.11,0.09,0.16,0.14c0.11,0.09,0.21,0.19,0.31,0.28c0.08,0.08,0.16,0.17,0.24,0.25c0.05,0.05,0.09,0.11,0.13,0.16
	c0.16,0.19-0.01-0.04,0.07,0.09c0.14,0.21,0.29,0.42,0.41,0.65c0.07,0.12,0.13,0.25,0.18,0.38c-0.09-0.21,0,0.01,0.01,0.04
	c0.03,0.09,0.06,0.18,0.09,0.27c0.05,0.16,0.09,0.33,0.13,0.49c0.01,0.05,0.02,0.1,0.03,0.14c0.01,0.05,0.02,0.1,0.02,0.15
	c-0.02-0.12-0.02-0.13-0.01-0.02c0.02,0.37,0.04,0.72,0,1.09c0,0.03-0.04,0.29-0.01,0.08c-0.01,0.08-0.03,0.16-0.04,0.25
	c-0.04,0.2-0.08,0.39-0.14,0.59c-0.13,0.46-0.24,0.73-0.41,1.09c-0.21,0.45-0.12,0.99,0.33,1.25c0.4,0.23,1.04,0.12,1.25-0.33
	c0.71-1.49,1.06-3.1,0.73-4.74c-0.26-1.32-1.01-2.57-2.02-3.45c-2.12-1.85-5.17-2.35-7.74-1.15c-1.59,0.75-2.78,2.19-3.46,3.78
	c0.57,0.15,1.14,0.31,1.71,0.46c0.25-2.26,0.01-4.63-1.07-6.66c-0.84-1.59-2.21-2.84-3.88-3.52c-3.25-1.31-6.97,0.14-8.67,3.15
	c-1.29,2.29-1.37,5.01-0.98,7.56c0.59-0.16,1.18-0.32,1.77-0.49c-0.3-1.75-1.07-3.51-2.47-4.65c-1.21-0.99-2.71-1.52-4.28-1.5
	c-2.9,0.03-5.93,1.86-6.66,4.79c-0.48,1.95,0.16,3.94,1.27,5.56c0.28,0.41,0.81,0.59,1.25,0.33
	C28.02,185.74,28.23,185.14,27.95,184.73z"/>
<path class="st0" d="M236.19,194.38c-1.64-0.76-3.48-1.21-5.28-0.8c-1.38,0.32-2.57,1.17-3.36,2.34c-0.73,1.08-1.08,2.44-1,3.74
	c0.09,1.38,0.64,2.71,1.62,3.7c1.19,1.19,2.85,1.74,4.5,1.86c0.24,0.02,0.48,0.02,0.72,0.03c-0.09-0.33-0.18-0.66-0.27-0.99
	c-1.42,0.9-2.64,2.19-3.1,3.84c-0.37,1.36-0.18,2.8,0.43,4.05c1.21,2.47,4.09,4.05,6.81,3.28c1.97-0.56,3.43-2.15,4.43-3.87
	c-0.33-0.09-0.66-0.18-0.99-0.27c-0.11,1.23,0.1,2.53,0.76,3.59c0.58,0.93,1.46,1.61,2.48,2c1.92,0.74,4.3,0.31,5.75-1.18
	c0.96-0.98,1.4-2.3,1.43-3.65c-0.35,0-0.71,0-1.06,0c0.12,1.29,0.54,2.54,1.42,3.51c0.7,0.77,1.68,1.29,2.7,1.47
	c2.13,0.38,4.39-0.52,5.56-2.36c0.77-1.2,0.93-2.64,0.72-4.02c-0.32,0.13-0.64,0.27-0.97,0.41c1.48,2.31,4.19,4.43,7.09,3.81
	c0.77-0.16,1.48-0.53,2.1-1.01c0.52-0.4,1-0.82,1.38-1.37c0.66-0.98,0.95-2.25,0.88-3.43c-0.09-1.4-0.68-2.73-1.87-3.53
	c-0.04,0.32-0.08,0.64-0.13,0.97c1.32-0.44,2.49-1.23,3.25-2.41c0.65-0.99,0.96-2.22,0.9-3.4c-0.11-2.43-1.68-4.71-4.1-5.31
	c-1.71-0.42-3.47,0.03-5.02,0.79c0.26,0.2,0.52,0.4,0.78,0.6c0.35-1.51,0.44-3.12-0.04-4.61c-0.38-1.19-1.11-2.23-2.13-2.95
	c-1.96-1.38-4.67-1.21-6.6,0.13c-1.36,0.95-2.29,2.33-2.87,3.87c0.35,0.05,0.69,0.09,1.04,0.14c0.16-1.94-0.62-4.04-2.46-4.93
	c-1.57-0.76-3.5-0.45-4.61,0.94c-0.79,0.99-1.07,2.25-1.08,3.49c0.35-0.05,0.69-0.1,1.04-0.14c-0.31-1.5-0.98-2.98-2.15-4
	c-0.98-0.86-2.2-1.34-3.49-1.43c-2.37-0.15-4.95,1.13-5.97,3.34c-0.65,1.4-0.61,2.97-0.04,4.39c0.1,0.26,0.35,0.45,0.65,0.37
	c0.25-0.07,0.48-0.38,0.37-0.65c-0.13-0.32-0.23-0.65-0.31-0.99c-0.01-0.07-0.03-0.14-0.04-0.21c-0.01-0.04-0.01-0.08-0.02-0.12
	c-0.03-0.14,0.01,0.11,0-0.02c-0.01-0.15-0.03-0.29-0.03-0.44c-0.01-0.14,0-0.29,0.01-0.43c0-0.06,0.01-0.13,0.01-0.19
	c0-0.04,0.01-0.08,0.01-0.11c-0.02,0.16,0-0.01,0.01-0.04c0.04-0.26,0.11-0.53,0.2-0.78c0.02-0.06,0.04-0.11,0.07-0.17
	c0.04-0.12-0.05,0.11,0-0.01c0.01-0.03,0.03-0.06,0.04-0.1c0.06-0.12,0.12-0.24,0.19-0.36c0.06-0.11,0.13-0.21,0.2-0.32
	c0.04-0.06,0.08-0.11,0.13-0.17c-0.08,0.12,0.04-0.05,0.07-0.09c0.17-0.2,0.35-0.39,0.55-0.56c0.05-0.05,0.11-0.09,0.16-0.14
	c0.02-0.02,0.04-0.03,0.06-0.04c0.1-0.08-0.1,0.07,0.01-0.01c0.12-0.08,0.23-0.17,0.35-0.25c0.22-0.14,0.46-0.27,0.7-0.38
	c0.03-0.01,0.07-0.03,0.1-0.04c0.11-0.05-0.08,0.03-0.01,0c0.06-0.03,0.12-0.05,0.19-0.07c0.14-0.05,0.28-0.1,0.41-0.14
	c0.26-0.08,0.52-0.14,0.79-0.18c0.04-0.01,0.07-0.01,0.11-0.02c-0.13,0.02-0.06,0.01-0.03,0c0.07-0.01,0.15-0.02,0.22-0.02
	c0.13-0.01,0.27-0.02,0.4-0.02c0.14,0,0.27,0,0.4,0.01c0.07,0,0.14,0.01,0.2,0.01c0.04,0,0.29,0.04,0.13,0.01
	c0.27,0.04,0.53,0.1,0.79,0.17c0.13,0.04,0.26,0.09,0.39,0.14c0.03,0.01,0.07,0.03,0.1,0.04c-0.12-0.05-0.05-0.02-0.02-0.01
	c0.08,0.04,0.16,0.07,0.24,0.11c0.25,0.13,0.49,0.28,0.72,0.44c0.02,0.02,0.12,0.1,0.02,0.01c0.03,0.02,0.06,0.05,0.09,0.07
	c0.07,0.06,0.14,0.12,0.21,0.18c0.12,0.11,0.24,0.23,0.34,0.35c0.06,0.07,0.12,0.14,0.18,0.21c0.02,0.03,0.04,0.06,0.07,0.08
	c-0.08-0.1,0.03,0.04,0.05,0.06c0.1,0.14,0.2,0.29,0.29,0.44c0.1,0.17,0.2,0.35,0.29,0.53c0.11,0.22,0.11,0.24,0.2,0.46
	c0.16,0.43,0.29,0.88,0.38,1.33c0.12,0.59,1.04,0.44,1.04-0.14c0-0.28,0.01-0.56,0.05-0.84c0.01-0.11,0.01-0.04,0-0.02
	c0.01-0.03,0.01-0.07,0.02-0.1c0.01-0.06,0.02-0.12,0.03-0.17c0.02-0.12,0.05-0.24,0.08-0.36c0.03-0.11,0.06-0.22,0.1-0.33
	c0.02-0.05,0.04-0.1,0.05-0.15c0.01-0.03,0.02-0.06,0.03-0.08c-0.02,0.04-0.02,0.06,0,0.01c0.09-0.19,0.19-0.39,0.31-0.56
	c0.03-0.04,0.05-0.08,0.08-0.12c0.01-0.02,0.03-0.04,0.05-0.06c0,0-0.06,0.08-0.02,0.03c0.06-0.08,0.13-0.16,0.2-0.23
	c0.06-0.06,0.12-0.12,0.19-0.18c0.03-0.03,0.07-0.05,0.1-0.08c0.07-0.06-0.01,0.01-0.02,0.01c0.02-0.02,0.05-0.04,0.07-0.05
	c0.15-0.1,0.29-0.19,0.45-0.27c0.04-0.02,0.07-0.03,0.11-0.05c-0.14,0.07,0,0,0.03-0.01c0.08-0.03,0.16-0.06,0.25-0.08
	c0.08-0.02,0.17-0.04,0.25-0.06c0.04-0.01,0.08-0.01,0.12-0.02c0.06-0.01-0.06,0.01-0.06,0.01c0.03,0,0.06-0.01,0.09-0.01
	c0.17-0.01,0.34-0.02,0.51-0.01c0.05,0,0.09,0.01,0.14,0.01c0.12,0.01-0.08-0.02,0.01,0c0.09,0.02,0.18,0.03,0.27,0.05
	c0.17,0.04,0.34,0.1,0.5,0.16c0.09,0.03-0.1-0.05,0.02,0.01c0.04,0.02,0.08,0.03,0.11,0.05c0.08,0.04,0.17,0.09,0.25,0.14
	c0.07,0.04,0.14,0.09,0.21,0.14c0.04,0.03,0.08,0.06,0.12,0.09c-0.09-0.07,0,0,0.04,0.03c0.14,0.12,0.28,0.25,0.4,0.39
	c0.03,0.03,0.06,0.07,0.09,0.1c0.03,0.04,0.09,0.11,0.02,0.03c0.06,0.09,0.12,0.17,0.18,0.26c0.06,0.1,0.12,0.2,0.17,0.3
	c0.03,0.05,0.05,0.1,0.07,0.15c0.01,0.03,0.08,0.2,0.04,0.09c0.09,0.23,0.17,0.47,0.22,0.71c0.03,0.12,0.05,0.24,0.07,0.37
	c0,0.02,0.02,0.1,0,0c0,0.04,0.01,0.08,0.01,0.12c0,0.07,0.01,0.13,0.01,0.2c0.02,0.3,0.01,0.61-0.01,0.91
	c-0.02,0.26,0.22,0.49,0.46,0.52c0.27,0.03,0.49-0.13,0.58-0.38c0.22-0.58,0.55-1.24,0.96-1.8c0.05-0.07,0.1-0.13,0.14-0.19
	c-0.06,0.08,0.06-0.07,0.08-0.1c0.1-0.13,0.21-0.25,0.32-0.36c0.2-0.22,0.42-0.41,0.65-0.6c0.01-0.01,0.13-0.1,0.03-0.02
	c0.02-0.02,0.05-0.04,0.07-0.05c0.06-0.04,0.12-0.08,0.17-0.12c0.12-0.08,0.25-0.16,0.37-0.24c0.11-0.06,0.23-0.13,0.34-0.18
	c0.06-0.03,0.12-0.06,0.18-0.09c0.03-0.01,0.06-0.03,0.09-0.04c0.04-0.01,0.02-0.01-0.03,0.01c0.02-0.01,0.05-0.02,0.07-0.03
	c0.25-0.09,0.5-0.18,0.76-0.24c0.12-0.03,0.24-0.05,0.36-0.07c0.03-0.01,0.06-0.01,0.1-0.01c0.13-0.02-0.09,0.01-0.01,0
	c0.07-0.01,0.14-0.02,0.21-0.02c0.25-0.02,0.51-0.02,0.76-0.01c0.06,0,0.13,0.01,0.19,0.01c0.04,0,0.24,0.03,0.08,0.01
	c0.13,0.02,0.26,0.04,0.39,0.07c0.25,0.06,0.49,0.13,0.73,0.22c0.02,0.01,0.05,0.02,0.07,0.03c0.12,0.05-0.11-0.05,0.01,0.01
	c0.05,0.02,0.1,0.05,0.15,0.07c0.12,0.06,0.23,0.12,0.34,0.19c0.11,0.06,0.21,0.13,0.32,0.2c0.05,0.03,0.09,0.07,0.14,0.1
	c0.07,0.05-0.1-0.08,0,0c0.03,0.03,0.06,0.05,0.09,0.07c0.2,0.17,0.39,0.35,0.56,0.55c0.04,0.04,0.07,0.09,0.11,0.13
	c0.09,0.1-0.07-0.09,0.01,0.02c0.02,0.02,0.03,0.04,0.05,0.06c0.09,0.12,0.17,0.24,0.24,0.37c0.06,0.11,0.12,0.21,0.18,0.32
	c0.03,0.06,0.06,0.12,0.09,0.19c0.02,0.04,0.03,0.08,0.05,0.12c-0.04-0.08-0.01-0.01,0.01,0.03c0.12,0.31,0.22,0.63,0.29,0.96
	c0.02,0.08,0.04,0.17,0.05,0.25c0.01,0.05,0.02,0.09,0.02,0.14c0,0.02,0.02,0.16,0.01,0.05c0.02,0.18,0.04,0.36,0.05,0.54
	c0.02,0.41,0.01,0.82-0.03,1.22c-0.04,0.41-0.11,0.81-0.21,1.26c-0.11,0.47,0.36,0.8,0.77,0.6c0.65-0.32,1.37-0.58,2.14-0.72
	c0.08-0.01,0.16-0.03,0.24-0.04c-0.11,0.02,0.11-0.01,0.14-0.02c0.17-0.02,0.33-0.03,0.5-0.03c0.14,0,0.29,0,0.43,0.01
	c0.07,0,0.14,0.01,0.21,0.02c0.04,0,0.08,0.01,0.12,0.01c-0.14-0.02-0.01,0,0.02,0.01c0.29,0.05,0.57,0.12,0.85,0.22
	c0.06,0.02,0.12,0.05,0.18,0.07c0.03,0.01,0.09,0.04-0.02-0.01c0.04,0.01,0.07,0.03,0.1,0.05c0.13,0.06,0.25,0.12,0.37,0.19
	c0.11,0.06,0.21,0.13,0.31,0.2c0.05,0.04,0.1,0.07,0.15,0.11c0.1,0.07-0.09-0.07,0.01,0.01c0.03,0.02,0.06,0.05,0.08,0.07
	c0.2,0.16,0.38,0.35,0.55,0.54c0.05,0.05,0.09,0.1,0.13,0.15c0.02,0.03,0.07,0.1,0,0c0.02,0.02,0.04,0.05,0.05,0.07
	c0.08,0.12,0.16,0.23,0.23,0.35c0.13,0.22,0.25,0.45,0.35,0.68c-0.06-0.14,0.02,0.04,0.03,0.08c0.02,0.06,0.04,0.11,0.06,0.17
	c0.04,0.13,0.08,0.26,0.12,0.39c0.03,0.12,0.06,0.24,0.08,0.36c0.01,0.06,0.02,0.12,0.03,0.18c0,0.04,0.01,0.07,0.02,0.11
	c-0.02-0.15,0-0.03,0,0.01c0.03,0.26,0.04,0.53,0.04,0.79c0,0.13-0.01,0.26-0.02,0.39c0,0.04-0.03,0.24-0.01,0.08
	c-0.01,0.07-0.02,0.15-0.04,0.22c-0.05,0.26-0.11,0.51-0.2,0.76c-0.02,0.06-0.04,0.12-0.06,0.18c-0.01,0.03-0.09,0.22-0.03,0.08
	c-0.06,0.13-0.11,0.25-0.18,0.37c-0.07,0.13-0.15,0.27-0.24,0.4c-0.04,0.06-0.09,0.13-0.13,0.19c-0.01,0.02-0.09,0.12-0.01,0.02
	c-0.02,0.03-0.05,0.06-0.07,0.09c-0.2,0.25-0.43,0.48-0.68,0.68c-0.03,0.02-0.05,0.04-0.08,0.07c-0.11,0.09,0.05-0.03-0.04,0.03
	c-0.07,0.05-0.14,0.1-0.21,0.15c-0.14,0.1-0.29,0.19-0.45,0.27c-0.16,0.09-0.32,0.17-0.49,0.24c0.02-0.01,0.09-0.04,0,0
	c-0.05,0.02-0.1,0.04-0.15,0.06c-0.1,0.04-0.2,0.07-0.3,0.1c-0.45,0.15-0.51,0.71-0.13,0.97c0.17,0.11,0.34,0.26,0.51,0.46
	c0.04,0.05,0.08,0.09,0.12,0.14c-0.04-0.06,0.05,0.07,0.06,0.08c0.08,0.11,0.15,0.22,0.21,0.34c0.13,0.24,0.17,0.34,0.26,0.61
	c0.04,0.12,0.07,0.24,0.1,0.37c0.02,0.1,0.06,0.3,0.07,0.36c0.12,0.96-0.05,2-0.52,2.84c-0.06,0.11-0.12,0.21-0.19,0.31
	c-0.03,0.05-0.07,0.1-0.1,0.15c-0.04,0.05,0,0,0,0c-0.03,0.03-0.05,0.07-0.08,0.1c-0.08,0.09-0.16,0.18-0.24,0.26
	c-0.04,0.04-0.09,0.08-0.13,0.12c-0.02,0.02-0.04,0.03-0.06,0.05c-0.02,0.02-0.03,0.02-0.01,0.01c0.05-0.04,0.02-0.01-0.09,0.07
	c-0.52,0.44-1.05,0.83-1.71,1.04c-1.13,0.36-2.31,0.15-3.35-0.4c-1.22-0.65-2.23-1.66-2.96-2.81c-0.14-0.22-0.42-0.32-0.66-0.22
	c-0.26,0.11-0.35,0.36-0.3,0.62c0.02,0.17-0.01-0.06,0.01,0.04c0,0.03,0.01,0.07,0.01,0.1c0.01,0.08,0.02,0.15,0.02,0.23
	c0.01,0.15,0.02,0.31,0.02,0.46c0,0.13,0,0.26-0.01,0.4c-0.01,0.08-0.02,0.15-0.02,0.23c0,0.02-0.02,0.1,0-0.01
	c-0.01,0.04-0.01,0.09-0.02,0.13c-0.04,0.25-0.1,0.5-0.18,0.75c-0.02,0.06-0.04,0.12-0.06,0.18c-0.01,0.03-0.09,0.2-0.03,0.08
	c-0.05,0.12-0.11,0.23-0.17,0.34c-0.05,0.1-0.11,0.19-0.17,0.29c-0.04,0.05-0.07,0.11-0.11,0.16c-0.02,0.03-0.14,0.19-0.05,0.08
	c-0.14,0.18-0.3,0.35-0.46,0.51c-0.08,0.08-0.17,0.15-0.26,0.23c-0.11,0.1,0.04-0.03-0.06,0.04c-0.05,0.04-0.1,0.07-0.15,0.11
	c-0.19,0.13-0.39,0.25-0.6,0.35c-0.04,0.02-0.09,0.04-0.14,0.07c-0.03,0.01-0.06,0.03-0.08,0.04c-0.07,0.03,0.09-0.04,0.02-0.01
	c-0.11,0.04-0.22,0.09-0.33,0.12c-0.22,0.07-0.44,0.13-0.67,0.17c-0.06,0.01-0.11,0.02-0.17,0.03c-0.08,0.01,0.09-0.01-0.05,0.01
	c-0.12,0.01-0.25,0.02-0.37,0.03c-0.22,0.01-0.44,0-0.67-0.02c-0.03,0-0.2-0.02-0.11-0.01c0.08,0.01-0.08-0.01-0.11-0.02
	c-0.12-0.02-0.23-0.04-0.34-0.07c-0.1-0.03-0.2-0.06-0.3-0.09c-0.05-0.02-0.11-0.04-0.16-0.06c-0.03-0.01-0.06-0.02-0.09-0.03
	c-0.1-0.04,0.1,0.05-0.01,0c-0.2-0.09-0.4-0.19-0.59-0.32c-0.1-0.06-0.19-0.13-0.28-0.19c0.09,0.07-0.01-0.01-0.04-0.04
	c-0.05-0.04-0.11-0.09-0.16-0.14c-0.1-0.09-0.2-0.19-0.29-0.29c-0.04-0.05-0.09-0.1-0.13-0.15c-0.02-0.02-0.03-0.04-0.05-0.06
	c0.08,0.1,0-0.01-0.01-0.02c-0.16-0.24-0.31-0.48-0.44-0.74c-0.01-0.03-0.03-0.07-0.05-0.1c-0.04-0.09,0.02,0.04-0.01-0.02
	c-0.03-0.08-0.06-0.15-0.09-0.23c-0.05-0.15-0.1-0.3-0.14-0.45c-0.04-0.16-0.08-0.32-0.11-0.48c-0.04-0.23-0.04-0.24-0.07-0.48
	c-0.03-0.28-0.22-0.53-0.53-0.53c-0.29,0-0.52,0.24-0.53,0.53c0,0.14-0.01,0.29-0.02,0.43c0,0.03,0,0.06-0.01,0.09
	c0,0-0.02,0.15-0.01,0.07c0.01-0.08-0.01,0.07-0.01,0.07c-0.01,0.04-0.01,0.09-0.02,0.13c-0.05,0.26-0.11,0.51-0.2,0.75
	c-0.02,0.07-0.05,0.13-0.07,0.19c-0.01,0.02-0.04,0.09,0.01-0.01c-0.01,0.02-0.02,0.05-0.03,0.07c-0.06,0.12-0.12,0.24-0.18,0.35
	c-0.06,0.1-0.12,0.2-0.19,0.3c-0.03,0.04-0.06,0.08-0.09,0.13c-0.05,0.08,0,0,0.01-0.02c-0.02,0.03-0.05,0.06-0.07,0.09
	c-0.15,0.18-0.32,0.35-0.5,0.51c-0.04,0.03-0.08,0.06-0.11,0.1c-0.09,0.08,0.07-0.05,0,0c-0.02,0.02-0.05,0.04-0.07,0.05
	c-0.09,0.07-0.18,0.13-0.28,0.18c-0.09,0.06-0.19,0.11-0.29,0.16c-0.05,0.03-0.11,0.06-0.17,0.08c-0.04,0.02-0.21,0.09-0.08,0.03
	c-0.21,0.09-0.42,0.16-0.64,0.22c-0.1,0.03-0.2,0.05-0.3,0.07c-0.06,0.01-0.12,0.02-0.18,0.03c-0.14,0.02,0.07,0-0.08,0.01
	c-0.22,0.02-0.45,0.04-0.68,0.03c-0.1,0-0.21-0.01-0.31-0.02c-0.06-0.01-0.12-0.01-0.18-0.02c-0.03,0-0.1-0.01,0.03,0.01
	c-0.04-0.01-0.07-0.01-0.11-0.02c-0.22-0.04-0.45-0.09-0.66-0.15c-0.1-0.03-0.2-0.06-0.3-0.1c-0.03-0.01-0.22-0.09-0.08-0.03
	c-0.06-0.02-0.11-0.05-0.17-0.08c-0.21-0.1-0.4-0.21-0.59-0.34c-0.05-0.03-0.09-0.06-0.14-0.1c-0.12-0.09,0.04,0.04-0.06-0.04
	c-0.09-0.08-0.18-0.15-0.27-0.23c-0.08-0.08-0.16-0.16-0.24-0.24c-0.03-0.04-0.07-0.07-0.1-0.11c-0.02-0.02-0.04-0.05-0.06-0.07
	c-0.03-0.03,0.06,0.08-0.01-0.01c-0.16-0.22-0.3-0.45-0.42-0.69c-0.01-0.03-0.03-0.06-0.04-0.09c-0.01-0.01-0.06-0.14-0.03-0.07
	c0.03,0.08-0.02-0.05-0.02-0.05c-0.01-0.04-0.03-0.08-0.04-0.12c-0.05-0.13-0.09-0.27-0.13-0.41c-0.04-0.15-0.07-0.3-0.1-0.45
	c-0.01-0.03-0.01-0.06-0.01-0.09c-0.01-0.04-0.01-0.03,0,0.03c0-0.02-0.01-0.05-0.01-0.07c-0.01-0.09-0.02-0.17-0.02-0.26
	c-0.02-0.35-0.02-0.71,0.01-1.06c0.05-0.54-0.74-0.7-0.99-0.27c-0.47,0.81-0.97,1.5-1.66,2.14c-0.33,0.31-0.5,0.44-0.87,0.67
	c-0.14,0.09-0.29,0.17-0.44,0.25c-0.07,0.03-0.13,0.07-0.2,0.1c-0.04,0.02-0.08,0.04-0.12,0.05c0.12-0.05-0.05,0.02-0.07,0.03
	c-0.3,0.12-0.61,0.2-0.92,0.26c-0.04,0.01-0.08,0.01-0.12,0.02c-0.13,0.02,0.12-0.01-0.02,0c-0.08,0.01-0.16,0.02-0.24,0.02
	c-0.16,0.01-0.32,0.01-0.47,0.01c-0.14-0.01-0.28-0.02-0.43-0.03c-0.13-0.01,0.12,0.02-0.01,0c-0.04-0.01-0.08-0.01-0.11-0.02
	c-0.07-0.01-0.15-0.03-0.23-0.05c-0.14-0.03-0.27-0.07-0.41-0.11c-0.07-0.02-0.15-0.05-0.22-0.07c-0.04-0.02-0.29-0.12-0.16-0.06
	c-0.27-0.12-0.53-0.26-0.78-0.41c-0.12-0.08-0.24-0.16-0.35-0.24c-0.02-0.01-0.12-0.1-0.01-0.01c-0.03-0.02-0.06-0.05-0.09-0.07
	c-0.06-0.05-0.12-0.1-0.18-0.15c-0.23-0.21-0.45-0.43-0.64-0.67c-0.02-0.03-0.15-0.19-0.06-0.07c-0.05-0.06-0.09-0.12-0.14-0.19
	c-0.09-0.13-0.17-0.26-0.25-0.39c-0.07-0.12-0.14-0.25-0.2-0.37c-0.04-0.07-0.07-0.14-0.1-0.21c-0.01-0.02-0.06-0.15-0.01-0.01
	c-0.02-0.04-0.03-0.08-0.05-0.13c-0.11-0.28-0.2-0.57-0.26-0.87c-0.01-0.08-0.03-0.15-0.04-0.23c0-0.03-0.01-0.05-0.01-0.08
	c-0.02-0.13,0.01,0.12,0-0.01c-0.01-0.16-0.03-0.31-0.03-0.46c0-0.15,0-0.31,0.01-0.47c0.01-0.07,0.01-0.13,0.02-0.2
	c0-0.03,0.02-0.16,0-0.02c0.01-0.05,0.02-0.11,0.03-0.16c0.06-0.35,0.16-0.69,0.3-1.02c-0.05,0.11,0.05-0.1,0.07-0.15
	c0.04-0.09,0.09-0.18,0.14-0.27c0.1-0.17,0.2-0.33,0.31-0.49c0.03-0.04,0.05-0.07,0.08-0.11c0.04-0.05,0.04-0.05,0,0
	c0.02-0.02,0.04-0.05,0.06-0.07c0.06-0.07,0.12-0.15,0.18-0.22c0.14-0.16,0.29-0.32,0.45-0.46c0.38-0.35,0.67-0.57,1.12-0.85
	c0.43-0.28,0.27-0.98-0.27-0.99c-0.23,0-0.46-0.01-0.7-0.02c-0.11-0.01-0.21-0.02-0.32-0.03c-0.06-0.01-0.11-0.01-0.17-0.02
	c-0.06-0.01,0.01,0,0.02,0c-0.03,0-0.06-0.01-0.09-0.01c-0.4-0.06-0.8-0.15-1.19-0.28c-0.09-0.03-0.17-0.06-0.26-0.09
	c-0.04-0.02-0.09-0.03-0.13-0.05c-0.04-0.02-0.14-0.06-0.04-0.02c-0.16-0.07-0.32-0.15-0.48-0.23c-0.15-0.08-0.3-0.18-0.45-0.27
	c-0.07-0.04-0.13-0.09-0.19-0.14c-0.05-0.04-0.08-0.06-0.01-0.01c-0.04-0.03-0.08-0.06-0.11-0.09c-0.24-0.2-0.47-0.43-0.67-0.67
	c-0.03-0.03-0.05-0.06-0.07-0.09c-0.02-0.02,0.06,0.09,0,0c-0.05-0.07-0.1-0.14-0.15-0.21c-0.08-0.13-0.16-0.25-0.23-0.39
	c-0.07-0.13-0.13-0.27-0.2-0.4c0.06,0.14-0.02-0.05-0.04-0.1c-0.03-0.07-0.05-0.14-0.08-0.22c-0.09-0.29-0.15-0.58-0.21-0.88
	c-0.02-0.1,0.01,0.11,0,0.01c0-0.04-0.01-0.08-0.01-0.11c-0.01-0.08-0.01-0.15-0.02-0.23c-0.01-0.15-0.01-0.29-0.01-0.44
	c0-0.15,0.01-0.29,0.03-0.44c0.01-0.06,0.04-0.26,0.01-0.1c0.01-0.08,0.02-0.15,0.04-0.23c0.05-0.29,0.13-0.58,0.23-0.87
	c0.02-0.07,0.05-0.13,0.07-0.2c0.01-0.03,0.02-0.06,0.04-0.09c-0.06,0.15,0,0.01,0.01-0.02c0.06-0.13,0.13-0.26,0.2-0.39
	c0.07-0.13,0.15-0.26,0.24-0.39c0.04-0.06,0.08-0.12,0.12-0.17c0.02-0.02,0.04-0.05,0.06-0.08c0.04-0.06-0.06,0.08,0.02-0.02
	c0.19-0.23,0.39-0.44,0.62-0.64c0.05-0.05,0.11-0.09,0.17-0.14c0.1-0.08-0.07,0.04,0.01-0.01c0.03-0.02,0.06-0.05,0.09-0.07
	c0.13-0.09,0.26-0.18,0.4-0.25c0.13-0.08,0.27-0.15,0.41-0.21c0.03-0.01,0.06-0.03,0.1-0.04c-0.14,0.06-0.01,0.01,0.02-0.01
	c0.08-0.03,0.15-0.06,0.23-0.09c0.15-0.05,0.31-0.1,0.47-0.13c0.08-0.02,0.16-0.04,0.24-0.05c0.04-0.01,0.09-0.01,0.13-0.02
	c0.04-0.01,0.19-0.03,0.05-0.01c0.36-0.04,0.72-0.06,1.08-0.04c0.09,0.01,0.18,0.01,0.28,0.02c0.05,0.01,0.1,0.01,0.15,0.01
	c0.02,0,0.04,0.01,0.06,0.01c0.08,0.01-0.09-0.01-0.01,0c0.2,0.03,0.4,0.07,0.6,0.11c0.44,0.1,0.88,0.24,1.3,0.4
	c0.05,0.02,0.1,0.04,0.15,0.06c0.02,0.01,0.16,0.07,0.1,0.04c0.12,0.05,0.24,0.1,0.36,0.16c0.26,0.12,0.57,0.07,0.72-0.19
	C236.51,194.87,236.45,194.5,236.19,194.38z"/>
<path class="st0" d="M242.95,204.82c-0.14-0.21-0.28-0.43-0.39-0.65c-0.02-0.05-0.04-0.1-0.07-0.14c-0.04-0.09-0.01-0.02,0,0
	c-0.01-0.03-0.02-0.05-0.03-0.08c-0.04-0.11-0.08-0.21-0.11-0.32c-0.02-0.1-0.05-0.19-0.07-0.29c-0.01-0.05-0.02-0.14-0.01-0.03
	c0-0.06-0.01-0.11-0.02-0.17c-0.01-0.09-0.01-0.18-0.01-0.27c0-0.04,0-0.08,0.01-0.13c0-0.04,0.03-0.21,0-0.05
	c0.03-0.18,0.07-0.35,0.13-0.51c0.01-0.04,0.03-0.07,0.04-0.11c-0.04,0.11-0.01,0.03,0.01-0.03c0.04-0.08,0.08-0.16,0.13-0.24
	c0.04-0.07,0.09-0.13,0.13-0.19c0.08-0.12-0.04,0.04,0.02-0.03c0.03-0.03,0.06-0.07,0.09-0.1c0.12-0.13,0.26-0.25,0.39-0.37
	c0.07-0.06-0.09,0.06,0.01-0.01c0.03-0.02,0.06-0.05,0.1-0.07c0.08-0.05,0.15-0.1,0.23-0.15c0.07-0.04,0.15-0.08,0.23-0.12
	c0.04-0.02,0.07-0.04,0.11-0.05c0.13-0.06-0.07,0.02,0.05-0.02c0.17-0.06,0.34-0.12,0.51-0.16c0.08-0.02,0.17-0.04,0.25-0.05
	c0.07-0.01,0.11-0.01,0.01,0c0.05,0,0.1-0.01,0.15-0.02c0.18-0.01,0.36-0.02,0.54-0.01c0.04,0,0.08,0.01,0.12,0.01
	c0.02,0,0.05,0.01,0.07,0.01c0.07,0.01-0.11-0.02-0.04-0.01c0.09,0.02,0.18,0.03,0.27,0.05c0.08,0.02,0.17,0.04,0.25,0.07
	c0.04,0.01,0.08,0.03,0.12,0.04c0.02,0.01,0.04,0.02,0.07,0.03c0.06,0.02-0.12-0.06-0.01-0.01c0.16,0.08,0.32,0.16,0.47,0.26
	c0.02,0.01,0.15,0.11,0.09,0.06c-0.05-0.04,0.07,0.06,0.09,0.07c0.08,0.07,0.16,0.14,0.23,0.22c0.04,0.04,0.08,0.09,0.12,0.13
	c0.03,0.04,0.11,0.14,0.04,0.05c0.07,0.1,0.14,0.2,0.2,0.31c0.06,0.1,0.12,0.21,0.17,0.32c0.01,0.03,0.02,0.05,0.04,0.08
	c0.03,0.08-0.04-0.12,0.01,0.02c0.02,0.06,0.04,0.12,0.06,0.17c0.1,0.28,0.17,0.57,0.22,0.87c0.05,0.28,0.39,0.44,0.65,0.37
	c0.3-0.08,0.41-0.37,0.37-0.65c-0.09-0.54-0.12-1.26-0.05-1.89c0-0.04,0.01-0.08,0.01-0.12c0,0.02-0.02,0.1,0,0
	c0.01-0.07,0.02-0.13,0.03-0.2c0.03-0.14,0.06-0.27,0.09-0.41c0.03-0.12,0.07-0.24,0.11-0.36c0.02-0.06,0.04-0.12,0.07-0.17
	c0.01-0.03,0.05-0.11,0,0c0.02-0.03,0.03-0.07,0.05-0.11c0.1-0.21,0.21-0.4,0.33-0.59c0.03-0.05,0.07-0.1,0.11-0.15
	c-0.07,0.09-0.01,0.01,0.03-0.03c0.07-0.09,0.15-0.18,0.24-0.26c0.07-0.07,0.15-0.14,0.23-0.21c0.05-0.04,0.12-0.09,0.03-0.02
	c0.05-0.03,0.1-0.07,0.15-0.11c0.17-0.11,0.35-0.2,0.53-0.29c0.1-0.05-0.09,0.04-0.02,0.01c0.03-0.01,0.05-0.02,0.08-0.03
	c0.04-0.01,0.08-0.03,0.12-0.04c0.1-0.03,0.21-0.06,0.31-0.09c0.09-0.02,0.19-0.04,0.28-0.05c-0.11,0.02-0.05,0.01,0.02,0
	c0.06-0.01,0.12-0.01,0.18-0.01c0.2-0.01,0.39,0.01,0.59,0.02c-0.17-0.01-0.01,0,0.03,0.01c0.05,0.01,0.1,0.02,0.14,0.03
	c0.11,0.02,0.21,0.05,0.31,0.08c0.09,0.03,0.17,0.06,0.26,0.09c0.07,0.03-0.12-0.06-0.02-0.01c0.02,0.01,0.04,0.02,0.06,0.03
	c0.05,0.02,0.1,0.05,0.15,0.07c0.09,0.05,0.18,0.1,0.26,0.15c0.05,0.03,0.09,0.06,0.14,0.09c0.03,0.02,0.18,0.14,0.06,0.04
	c0.17,0.14,0.33,0.28,0.47,0.44c0.04,0.04,0.07,0.08,0.11,0.12c0.01,0.02,0.03,0.04,0.05,0.05c0.08,0.09-0.05-0.07,0,0
	c0.07,0.1,0.14,0.19,0.2,0.29c0.07,0.12,0.14,0.23,0.2,0.35c0.03,0.07,0.06,0.13,0.09,0.2c0.01,0.02,0.04,0.09,0-0.01
	c0.01,0.04,0.03,0.08,0.05,0.12c0.11,0.28,0.19,0.58,0.25,0.88c0.02,0.08,0.03,0.15,0.04,0.23c0.01,0.03,0.01,0.06,0.01,0.09
	c-0.02-0.12,0,0.02,0,0.05c0.02,0.18,0.03,0.36,0.04,0.54c0.01,0.38-0.01,0.76-0.05,1.14c-0.06,0.51,0.78,0.74,0.98,0.27
	c0.09-0.2,0.18-0.39,0.29-0.58c0.05-0.09,0.11-0.17,0.17-0.26c0.03-0.04,0.06-0.08,0.09-0.12c-0.06,0.07,0.02-0.03,0.04-0.04
	c0.12-0.14,0.25-0.28,0.39-0.4c0.03-0.03,0.07-0.06,0.1-0.09c-0.1,0.08,0.02-0.01,0.04-0.02c0.07-0.05,0.14-0.1,0.22-0.14
	c0.07-0.04,0.15-0.08,0.23-0.12c0.04-0.02,0.08-0.04,0.11-0.05c0.13-0.06-0.1,0.03,0.03-0.01c0.16-0.05,0.31-0.11,0.48-0.14
	c0.08-0.02,0.16-0.03,0.24-0.04c-0.14,0.02,0.1-0.01,0.14-0.01c0.16-0.01,0.33-0.01,0.49,0.01c0.04,0,0.08,0.01,0.12,0.01
	c0.14,0.01-0.11-0.02,0.02,0c0.08,0.02,0.16,0.03,0.24,0.05c0.16,0.04,0.32,0.08,0.47,0.14c0.04,0.01,0.08,0.03,0.11,0.04
	c-0.13-0.05,0,0,0.02,0.01c0.07,0.04,0.15,0.07,0.22,0.11c0.14,0.08,0.27,0.17,0.41,0.26c0.11,0.07-0.08-0.07,0.02,0.01
	c0.03,0.03,0.06,0.05,0.09,0.08c0.06,0.05,0.12,0.11,0.18,0.16c0.05,0.05,0.09,0.1,0.14,0.15c0.03,0.03,0.05,0.06,0.08,0.09
	c0.1,0.11,0-0.02,0.04,0.05c0.08,0.12,0.17,0.24,0.23,0.38c0.04,0.07,0.07,0.15,0.11,0.22c-0.05-0.12,0,0.01,0.01,0.03
	c0.02,0.05,0.04,0.1,0.05,0.16c0.03,0.1,0.05,0.19,0.07,0.29c0.01,0.03,0.01,0.06,0.02,0.08c0.01,0.03,0.01,0.05,0.01,0.08
	c-0.01-0.07-0.01-0.07,0-0.01c0.01,0.21,0.02,0.42,0,0.63c0,0.02-0.02,0.17,0,0.05c-0.01,0.05-0.01,0.09-0.02,0.14
	c-0.02,0.12-0.05,0.23-0.08,0.34c-0.07,0.26-0.14,0.42-0.24,0.63c-0.12,0.26-0.07,0.57,0.19,0.72c0.23,0.13,0.6,0.07,0.72-0.19
	c0.41-0.86,0.61-1.79,0.42-2.73c-0.15-0.76-0.58-1.48-1.17-1.99c-1.22-1.07-2.99-1.36-4.46-0.67c-0.92,0.43-1.6,1.26-1.99,2.18
	c0.33,0.09,0.66,0.18,0.98,0.27c0.14-1.3,0.01-2.67-0.61-3.84c-0.49-0.92-1.27-1.64-2.24-2.03c-1.88-0.76-4.02,0.08-5,1.82
	c-0.75,1.32-0.79,2.89-0.56,4.36c0.34-0.09,0.68-0.19,1.02-0.28c-0.17-1.01-0.62-2.02-1.42-2.69c-0.7-0.57-1.57-0.88-2.47-0.87
	c-1.67,0.02-3.42,1.07-3.84,2.76c-0.28,1.13,0.09,2.27,0.73,3.21c0.16,0.24,0.46,0.34,0.72,0.19
	C242.99,205.41,243.11,205.06,242.95,204.82z"/>
<path class="st1" d="M326.13,33.01c-1.9-3.72-3.09-7.85-2.79-11.94 M323.34,21.07c0.06-0.81,0.31-1.69,0.72-2.33
	c0.37-0.58,0.78-0.85,1.23-0.85c0.04,0,0.08,0.01,0.12,0.01c0.48,0.05,0.95,0.42,1.51,1.01c2.74,2.87,4.61,6.6,5.29,10.54l1.48-0.01
	c0.65-4.07,2.24-7.98,4.59-11.33c0.25-0.36,0.53-0.68,0.81-0.89c0.27-0.21,0.49-0.26,0.67-0.23c0.2,0.04,0.4,0.18,0.59,0.54
	c0.18,0.37,0.3,0.87,0.35,1.36c0.08,0.82,0.13,1.64,0.13,2.46c0,6.05-2.2,12.03-4.9,17.5c-0.92,1.89-1.81,2.5-2.49,2.61
	c-0.7,0.11-1.53-0.24-2.49-1.13c-1.9-1.78-3.67-5.07-4.82-7.32"/>
<path class="st0" d="M161.77,9.28c-2.08-0.97-4.41-1.54-6.69-1.02c-1.74,0.4-3.25,1.48-4.25,2.96c-0.92,1.37-1.37,3.09-1.27,4.73
	c0.11,1.75,0.81,3.43,2.05,4.68c1.51,1.51,3.61,2.2,5.7,2.36c0.3,0.02,0.61,0.03,0.91,0.03c-0.11-0.41-0.22-0.83-0.34-1.25
	c-1.8,1.14-3.35,2.77-3.93,4.87c-0.47,1.72-0.23,3.54,0.55,5.13c1.54,3.13,5.18,5.13,8.62,4.15c2.49-0.71,4.34-2.73,5.61-4.9
	c-0.42-0.11-0.83-0.23-1.25-0.34c-0.14,1.56,0.12,3.2,0.97,4.55c0.74,1.18,1.85,2.04,3.14,2.54c2.44,0.94,5.44,0.39,7.28-1.5
	c1.21-1.24,1.77-2.92,1.82-4.63c-0.45,0-0.89,0-1.34,0c0.15,1.63,0.68,3.21,1.8,4.44c0.89,0.97,2.12,1.64,3.42,1.87
	c2.7,0.48,5.55-0.66,7.04-2.99c0.97-1.52,1.18-3.34,0.92-5.1c-0.41,0.17-0.82,0.34-1.22,0.52c1.88,2.93,5.3,5.61,8.98,4.82
	c0.97-0.21,1.88-0.67,2.66-1.28c0.66-0.5,1.27-1.04,1.74-1.74c0.84-1.25,1.21-2.85,1.11-4.34c-0.12-1.77-0.87-3.46-2.36-4.47
	c-0.05,0.41-0.11,0.82-0.16,1.22c1.67-0.55,3.15-1.56,4.12-3.05c0.83-1.26,1.21-2.81,1.15-4.3c-0.14-3.07-2.13-5.97-5.2-6.73
	c-2.17-0.53-4.4,0.03-6.36,0.99c0.33,0.25,0.66,0.5,0.98,0.76c0.44-1.91,0.56-3.96-0.05-5.85c-0.49-1.51-1.4-2.82-2.7-3.73
	c-2.48-1.75-5.91-1.54-8.36,0.16c-1.73,1.2-2.91,2.95-3.64,4.9c0.44,0.06,0.88,0.12,1.32,0.18c0.2-2.46-0.78-5.12-3.12-6.25
	c-1.98-0.96-4.43-0.57-5.84,1.19c-1,1.25-1.35,2.85-1.36,4.42c0.44-0.06,0.88-0.12,1.32-0.18c-0.39-1.9-1.24-3.77-2.72-5.07
	c-1.24-1.09-2.79-1.7-4.43-1.81c-3.01-0.19-6.27,1.43-7.56,4.23c-0.82,1.77-0.77,3.76-0.05,5.56c0.13,0.34,0.45,0.57,0.82,0.47
	c0.32-0.09,0.6-0.49,0.47-0.82c-0.16-0.41-0.3-0.82-0.39-1.25c-0.02-0.09-0.04-0.18-0.05-0.26c-0.01-0.05-0.02-0.11-0.03-0.16
	c-0.03-0.18,0.01,0.15-0.01-0.03c-0.02-0.19-0.04-0.37-0.04-0.56c-0.01-0.18-0.01-0.36,0.01-0.54c0-0.08,0.01-0.16,0.02-0.24
	c0.01-0.05,0.01-0.1,0.02-0.14c-0.02,0.2,0-0.02,0.01-0.06c0.06-0.34,0.14-0.67,0.26-0.99c0.03-0.07,0.05-0.14,0.08-0.21
	c0.05-0.15-0.06,0.14,0-0.01c0.02-0.04,0.04-0.08,0.06-0.12c0.07-0.16,0.15-0.31,0.24-0.46c0.08-0.14,0.17-0.27,0.25-0.4
	c0.05-0.08,0.11-0.15,0.16-0.22c-0.11,0.15,0.05-0.07,0.09-0.11c0.21-0.25,0.44-0.49,0.7-0.71c0.07-0.06,0.14-0.12,0.21-0.18
	c0.02-0.02,0.05-0.04,0.07-0.06c0.12-0.1-0.12,0.08,0.01-0.01c0.15-0.11,0.3-0.21,0.45-0.31c0.28-0.18,0.58-0.34,0.89-0.48
	c0.04-0.02,0.08-0.04,0.13-0.06c0.14-0.07-0.1,0.04-0.01,0c0.08-0.03,0.16-0.06,0.24-0.09c0.17-0.07,0.35-0.12,0.53-0.18
	c0.32-0.1,0.66-0.17,0.99-0.23c0.05-0.01,0.09-0.01,0.14-0.02c-0.17,0.02-0.08,0.01-0.04,0.01c0.09-0.01,0.19-0.02,0.28-0.03
	c0.17-0.01,0.34-0.02,0.51-0.02c0.17,0,0.34,0,0.51,0.01c0.08,0,0.17,0.01,0.26,0.02c0.06,0,0.37,0.05,0.17,0.02
	c0.34,0.05,0.68,0.12,1.01,0.22c0.17,0.05,0.33,0.11,0.49,0.17c0.04,0.02,0.09,0.04,0.13,0.05c-0.15-0.06-0.06-0.03-0.03-0.01
	c0.1,0.05,0.2,0.09,0.3,0.14c0.32,0.16,0.62,0.35,0.91,0.56c0.03,0.02,0.16,0.12,0.02,0.02c0.04,0.03,0.08,0.06,0.12,0.09
	c0.09,0.08,0.18,0.15,0.27,0.23c0.15,0.14,0.3,0.29,0.44,0.44c0.08,0.08,0.15,0.17,0.22,0.26c0.03,0.04,0.06,0.07,0.08,0.11
	c-0.1-0.13,0.04,0.06,0.06,0.08c0.13,0.18,0.25,0.37,0.37,0.56c0.13,0.22,0.25,0.44,0.36,0.67c0.13,0.28,0.14,0.3,0.25,0.58
	c0.21,0.55,0.36,1.11,0.48,1.69c0.15,0.75,1.31,0.56,1.32-0.18c0-0.36,0.02-0.71,0.06-1.06c0.02-0.14,0.01-0.05,0-0.02
	c0.01-0.04,0.01-0.09,0.02-0.13c0.01-0.08,0.03-0.15,0.04-0.22c0.03-0.15,0.06-0.3,0.1-0.45c0.04-0.14,0.08-0.28,0.13-0.42
	c0.02-0.06,0.04-0.12,0.07-0.19c0.01-0.04,0.03-0.07,0.04-0.1c-0.02,0.05-0.03,0.07,0,0.01c0.12-0.25,0.24-0.49,0.39-0.72
	c0.03-0.05,0.07-0.1,0.1-0.15c0.02-0.03,0.04-0.05,0.06-0.08c0,0-0.08,0.1-0.03,0.04c0.08-0.1,0.16-0.2,0.25-0.29
	c0.08-0.08,0.15-0.15,0.24-0.23c0.04-0.04,0.08-0.07,0.12-0.11c0.09-0.08-0.01,0.01-0.03,0.02c0.03-0.02,0.06-0.04,0.09-0.07
	c0.18-0.13,0.37-0.24,0.57-0.34c0.05-0.02,0.09-0.04,0.14-0.06c-0.18,0.08,0,0,0.04-0.01c0.1-0.04,0.21-0.07,0.31-0.1
	c0.11-0.03,0.21-0.05,0.32-0.07c0.05-0.01,0.1-0.02,0.15-0.03c0.07-0.01-0.07,0.01-0.07,0.01c0.04,0,0.07-0.01,0.11-0.01
	c0.22-0.02,0.43-0.02,0.65-0.01c0.06,0,0.12,0.01,0.17,0.01c0.15,0.01-0.1-0.02,0.02,0c0.12,0.02,0.23,0.04,0.34,0.07
	c0.22,0.05,0.43,0.12,0.64,0.2c0.11,0.04-0.12-0.06,0.03,0.01c0.05,0.02,0.1,0.04,0.14,0.07c0.11,0.05,0.21,0.11,0.32,0.17
	c0.09,0.05,0.18,0.11,0.27,0.17c0.05,0.04,0.1,0.07,0.15,0.11c-0.12-0.09,0,0,0.05,0.04c0.18,0.15,0.35,0.32,0.51,0.5
	c0.04,0.04,0.07,0.09,0.11,0.13c0.04,0.05,0.11,0.14,0.03,0.04c0.08,0.11,0.15,0.22,0.23,0.33c0.08,0.12,0.15,0.25,0.22,0.38
	c0.03,0.06,0.06,0.12,0.09,0.19c0.02,0.04,0.11,0.25,0.05,0.11c0.12,0.29,0.21,0.59,0.28,0.9c0.04,0.15,0.06,0.31,0.09,0.46
	c0,0.03,0.02,0.13,0,0c0.01,0.05,0.01,0.1,0.02,0.15c0.01,0.08,0.01,0.16,0.02,0.25c0.02,0.38,0.01,0.77-0.02,1.15
	c-0.03,0.33,0.27,0.62,0.58,0.66c0.35,0.04,0.61-0.16,0.73-0.48c0.27-0.73,0.7-1.57,1.21-2.28c0.06-0.08,0.12-0.16,0.18-0.25
	c-0.08,0.1,0.08-0.1,0.1-0.12c0.13-0.16,0.26-0.31,0.4-0.46c0.26-0.27,0.54-0.53,0.83-0.76c0.02-0.01,0.16-0.13,0.04-0.03
	c0.03-0.02,0.06-0.04,0.09-0.07c0.07-0.05,0.15-0.11,0.22-0.16c0.15-0.11,0.31-0.2,0.47-0.3c0.14-0.08,0.29-0.16,0.44-0.23
	c0.08-0.04,0.15-0.08,0.23-0.11c0.04-0.02,0.08-0.04,0.12-0.05c0.04-0.02,0.03-0.01-0.04,0.02c0.03-0.01,0.06-0.03,0.09-0.04
	c0.31-0.12,0.63-0.22,0.96-0.3c0.15-0.04,0.3-0.07,0.46-0.09c0.04-0.01,0.08-0.01,0.12-0.02c0.16-0.03-0.11,0.01-0.01,0
	c0.09-0.01,0.18-0.02,0.26-0.03c0.32-0.03,0.64-0.03,0.96-0.01c0.08,0,0.16,0.01,0.24,0.02c0.05,0,0.3,0.04,0.1,0.01
	c0.16,0.03,0.33,0.05,0.49,0.09c0.31,0.07,0.62,0.16,0.92,0.28c0.03,0.01,0.06,0.02,0.09,0.04c0.15,0.06-0.13-0.07,0.01,0.01
	c0.06,0.03,0.13,0.06,0.19,0.09c0.15,0.07,0.29,0.15,0.44,0.23c0.14,0.08,0.27,0.17,0.4,0.26c0.06,0.04,0.11,0.08,0.17,0.13
	c0.08,0.06-0.12-0.1,0,0c0.04,0.03,0.07,0.06,0.11,0.09c0.26,0.21,0.49,0.45,0.71,0.7c0.05,0.06,0.09,0.11,0.14,0.17
	c0.11,0.13-0.08-0.11,0.02,0.02c0.02,0.03,0.04,0.05,0.06,0.08c0.11,0.15,0.21,0.3,0.31,0.46c0.08,0.13,0.15,0.27,0.23,0.41
	c0.04,0.08,0.08,0.16,0.11,0.24c0.02,0.05,0.04,0.1,0.07,0.15c-0.05-0.11-0.01-0.02,0.02,0.04c0.15,0.39,0.28,0.8,0.37,1.21
	c0.02,0.11,0.04,0.21,0.06,0.32c0.01,0.06,0.02,0.12,0.03,0.18c0,0.03,0.03,0.21,0.01,0.06c0.03,0.23,0.05,0.46,0.06,0.69
	c0.03,0.52,0.01,1.03-0.04,1.55c-0.05,0.52-0.14,1.02-0.27,1.6c-0.14,0.59,0.46,1.01,0.98,0.75c0.83-0.41,1.74-0.74,2.71-0.91
	c0.1-0.02,0.2-0.04,0.3-0.05c-0.15,0.02,0.14-0.02,0.18-0.02c0.21-0.02,0.42-0.03,0.63-0.04c0.18,0,0.37,0,0.55,0.01
	c0.09,0,0.18,0.01,0.27,0.02c0.05,0,0.11,0.01,0.16,0.02c-0.17-0.02-0.01,0,0.03,0.01c0.36,0.07,0.72,0.15,1.08,0.27
	c0.08,0.03,0.15,0.06,0.23,0.09c0.03,0.01,0.12,0.05-0.03-0.01c0.04,0.02,0.09,0.04,0.13,0.06c0.16,0.07,0.31,0.15,0.47,0.24
	c0.14,0.08,0.27,0.16,0.4,0.25c0.06,0.04,0.13,0.09,0.19,0.14c0.13,0.09-0.11-0.09,0.01,0.01c0.03,0.03,0.07,0.06,0.11,0.09
	c0.25,0.21,0.48,0.44,0.69,0.68c0.06,0.06,0.11,0.13,0.16,0.2c0.03,0.03,0.09,0.12,0-0.01c0.02,0.03,0.05,0.06,0.07,0.09
	c0.1,0.15,0.2,0.29,0.3,0.44c0.17,0.28,0.32,0.57,0.45,0.87c-0.08-0.18,0.02,0.06,0.04,0.1c0.03,0.07,0.05,0.15,0.08,0.22
	c0.06,0.16,0.1,0.33,0.15,0.49c0.04,0.15,0.07,0.3,0.11,0.45c0.01,0.08,0.03,0.15,0.04,0.23c0.01,0.05,0.01,0.09,0.02,0.14
	c-0.03-0.19,0-0.04,0,0.01c0.04,0.34,0.05,0.67,0.05,1.01c-0.01,0.16-0.01,0.33-0.03,0.49c0,0.05-0.04,0.3-0.01,0.1
	c-0.01,0.09-0.03,0.19-0.04,0.28c-0.06,0.33-0.14,0.65-0.25,0.96c-0.03,0.08-0.05,0.15-0.08,0.22c-0.02,0.04-0.12,0.27-0.04,0.11
	c-0.07,0.16-0.15,0.32-0.23,0.47c-0.09,0.17-0.19,0.34-0.3,0.5c-0.05,0.08-0.11,0.16-0.17,0.24c-0.02,0.03-0.12,0.16-0.01,0.02
	c-0.03,0.04-0.06,0.08-0.09,0.12c-0.26,0.31-0.55,0.6-0.86,0.87c-0.03,0.03-0.07,0.06-0.1,0.08c-0.13,0.11,0.06-0.04-0.05,0.04
	c-0.09,0.06-0.17,0.13-0.26,0.19c-0.18,0.12-0.37,0.24-0.56,0.34c-0.2,0.11-0.41,0.21-0.62,0.3c0.02-0.01,0.12-0.05,0,0
	c-0.07,0.03-0.13,0.05-0.2,0.08c-0.12,0.05-0.25,0.09-0.38,0.13c-0.57,0.19-0.64,0.9-0.16,1.22c0.21,0.14,0.43,0.33,0.65,0.58
	c0.05,0.06,0.1,0.12,0.15,0.18c-0.06-0.07,0.06,0.08,0.08,0.11c0.1,0.14,0.18,0.28,0.26,0.43c0.17,0.3,0.22,0.43,0.32,0.77
	c0.05,0.15,0.09,0.31,0.12,0.46c0.03,0.13,0.07,0.39,0.08,0.46c0.15,1.21-0.07,2.54-0.66,3.6c-0.07,0.14-0.16,0.27-0.24,0.4
	c-0.04,0.06-0.09,0.13-0.13,0.19c-0.05,0.06,0,0,0.01-0.01c-0.03,0.04-0.07,0.08-0.1,0.12c-0.1,0.11-0.2,0.22-0.31,0.33
	c-0.05,0.05-0.11,0.1-0.17,0.15c-0.02,0.02-0.05,0.04-0.07,0.06c-0.03,0.02-0.03,0.03-0.01,0.01c0.06-0.05,0.02-0.02-0.12,0.09
	c-0.66,0.55-1.33,1.05-2.17,1.32c-1.44,0.46-2.92,0.2-4.25-0.51c-1.54-0.82-2.82-2.11-3.75-3.56c-0.18-0.28-0.53-0.41-0.84-0.27
	c-0.33,0.15-0.44,0.45-0.39,0.79c0.03,0.21-0.01-0.08,0.01,0.05c0.01,0.04,0.01,0.09,0.01,0.13c0.01,0.1,0.02,0.19,0.03,0.29
	c0.01,0.19,0.02,0.39,0.02,0.59c0,0.17-0.01,0.34-0.02,0.5c-0.01,0.1-0.02,0.19-0.03,0.29c0,0.03-0.02,0.13,0-0.01
	c-0.01,0.06-0.02,0.11-0.03,0.17c-0.05,0.32-0.13,0.64-0.23,0.94c-0.03,0.08-0.05,0.15-0.08,0.22c-0.01,0.04-0.11,0.26-0.04,0.1
	c-0.07,0.15-0.14,0.29-0.21,0.43c-0.07,0.12-0.14,0.25-0.22,0.37c-0.04,0.07-0.09,0.14-0.14,0.21c-0.03,0.04-0.18,0.24-0.07,0.1
	c-0.18,0.23-0.38,0.45-0.59,0.64c-0.11,0.1-0.22,0.19-0.33,0.29c-0.15,0.12,0.05-0.04-0.07,0.06c-0.07,0.05-0.13,0.09-0.19,0.14
	c-0.24,0.17-0.5,0.31-0.76,0.44c-0.06,0.03-0.12,0.06-0.17,0.08c-0.04,0.02-0.07,0.03-0.11,0.05c-0.08,0.04,0.12-0.05,0.03-0.01
	c-0.14,0.05-0.28,0.11-0.42,0.15c-0.28,0.09-0.56,0.16-0.85,0.22c-0.07,0.01-0.14,0.02-0.21,0.04c-0.1,0.02,0.12-0.01-0.06,0.01
	c-0.16,0.02-0.31,0.03-0.47,0.04c-0.28,0.01-0.56,0-0.84-0.03c-0.04,0-0.25-0.03-0.14-0.02c0.11,0.01-0.11-0.02-0.14-0.02
	c-0.15-0.03-0.29-0.06-0.43-0.09c-0.13-0.03-0.26-0.07-0.38-0.11c-0.07-0.02-0.13-0.04-0.2-0.07c-0.04-0.01-0.07-0.03-0.11-0.04
	c-0.13-0.05,0.12,0.06-0.01,0c-0.26-0.12-0.51-0.25-0.75-0.4c-0.12-0.08-0.24-0.16-0.35-0.25c0.12,0.09-0.01-0.01-0.05-0.04
	c-0.07-0.06-0.14-0.11-0.2-0.18c-0.13-0.12-0.25-0.24-0.36-0.37c-0.06-0.06-0.11-0.13-0.16-0.19c-0.02-0.03-0.04-0.05-0.06-0.08
	c0.1,0.13-0.01-0.01-0.02-0.03c-0.21-0.3-0.4-0.61-0.55-0.94c-0.02-0.04-0.04-0.08-0.06-0.13c-0.05-0.11,0.02,0.05-0.01-0.02
	c-0.04-0.1-0.08-0.19-0.11-0.29c-0.07-0.19-0.12-0.38-0.18-0.57c-0.05-0.2-0.1-0.4-0.14-0.61c-0.05-0.29-0.05-0.3-0.08-0.61
	c-0.04-0.36-0.28-0.67-0.67-0.67c-0.37,0-0.66,0.31-0.67,0.67c-0.01,0.18-0.01,0.37-0.03,0.55c0,0.04-0.01,0.08-0.01,0.12
	c0,0-0.02,0.19-0.01,0.09c0.01-0.1-0.01,0.08-0.01,0.08c-0.01,0.06-0.02,0.11-0.03,0.17c-0.06,0.32-0.14,0.64-0.25,0.95
	c-0.03,0.08-0.06,0.16-0.09,0.25c-0.01,0.03-0.05,0.11,0.01-0.02c-0.01,0.03-0.03,0.06-0.04,0.09c-0.07,0.15-0.15,0.3-0.23,0.45
	c-0.07,0.13-0.15,0.25-0.24,0.38c-0.04,0.05-0.08,0.11-0.11,0.16c-0.07,0.1,0,0,0.02-0.02c-0.03,0.04-0.06,0.08-0.09,0.11
	c-0.19,0.23-0.4,0.45-0.63,0.64c-0.05,0.04-0.1,0.08-0.15,0.12c-0.12,0.1,0.09-0.06,0.01,0c-0.03,0.02-0.06,0.05-0.09,0.07
	c-0.11,0.08-0.23,0.16-0.35,0.23c-0.12,0.07-0.24,0.14-0.37,0.21c-0.07,0.04-0.14,0.07-0.21,0.1c-0.05,0.02-0.27,0.11-0.1,0.04
	c-0.27,0.11-0.54,0.2-0.82,0.27c-0.13,0.03-0.26,0.06-0.39,0.09c-0.08,0.01-0.15,0.03-0.23,0.04c-0.18,0.03,0.09,0-0.1,0.01
	c-0.29,0.03-0.57,0.04-0.86,0.04c-0.13,0-0.26-0.01-0.4-0.02c-0.08-0.01-0.16-0.02-0.23-0.02c-0.04,0-0.13-0.02,0.04,0.01
	c-0.05-0.01-0.09-0.01-0.14-0.02c-0.28-0.05-0.57-0.11-0.84-0.19c-0.13-0.04-0.25-0.08-0.38-0.13c-0.04-0.01-0.28-0.11-0.1-0.04
	c-0.07-0.03-0.14-0.06-0.21-0.1c-0.26-0.12-0.51-0.27-0.75-0.43c-0.06-0.04-0.11-0.08-0.17-0.12c-0.15-0.11,0.05,0.05-0.07-0.05
	c-0.11-0.1-0.23-0.19-0.34-0.3c-0.1-0.1-0.2-0.2-0.3-0.31c-0.04-0.05-0.09-0.1-0.13-0.15c-0.03-0.03-0.05-0.06-0.07-0.09
	c-0.03-0.04,0.07,0.1-0.01-0.02c-0.2-0.28-0.38-0.57-0.53-0.87c-0.02-0.04-0.04-0.08-0.05-0.11c-0.01-0.02-0.07-0.18-0.04-0.09
	c0.04,0.1-0.02-0.06-0.03-0.07c-0.02-0.05-0.04-0.1-0.06-0.15c-0.06-0.17-0.11-0.34-0.16-0.52c-0.05-0.19-0.09-0.38-0.12-0.58
	c-0.01-0.04-0.01-0.08-0.02-0.11c-0.01-0.05-0.01-0.04,0,0.03c0-0.03-0.01-0.06-0.01-0.09c-0.01-0.11-0.02-0.22-0.03-0.33
	c-0.03-0.45-0.02-0.9,0.02-1.34c0.06-0.68-0.93-0.88-1.25-0.34c-0.6,1.03-1.23,1.9-2.1,2.71c-0.42,0.39-0.64,0.56-1.1,0.85
	c-0.18,0.11-0.36,0.22-0.55,0.32c-0.08,0.04-0.17,0.08-0.25,0.12c-0.05,0.02-0.1,0.04-0.15,0.07c0.15-0.07-0.07,0.03-0.09,0.04
	c-0.38,0.15-0.77,0.26-1.16,0.33c-0.05,0.01-0.1,0.02-0.15,0.03c-0.17,0.03,0.15-0.01-0.02,0c-0.1,0.01-0.2,0.02-0.3,0.03
	c-0.2,0.01-0.4,0.02-0.6,0.01c-0.18-0.01-0.36-0.02-0.54-0.04c-0.17-0.02,0.15,0.03-0.02,0c-0.05-0.01-0.1-0.02-0.14-0.02
	c-0.1-0.02-0.19-0.04-0.29-0.06c-0.17-0.04-0.35-0.09-0.52-0.14c-0.09-0.03-0.19-0.06-0.28-0.09c-0.06-0.02-0.36-0.15-0.2-0.08
	c-0.34-0.15-0.67-0.32-0.99-0.53c-0.15-0.1-0.3-0.2-0.44-0.3c-0.03-0.02-0.15-0.12-0.02-0.01c-0.04-0.03-0.08-0.06-0.12-0.09
	c-0.07-0.06-0.15-0.12-0.22-0.19c-0.29-0.26-0.57-0.54-0.81-0.84c-0.03-0.03-0.18-0.24-0.08-0.09c-0.06-0.08-0.12-0.16-0.17-0.24
	c-0.11-0.16-0.22-0.32-0.32-0.49c-0.09-0.15-0.18-0.31-0.26-0.47c-0.04-0.09-0.08-0.18-0.13-0.26c-0.01-0.03-0.08-0.19-0.01-0.02
	c-0.02-0.05-0.04-0.11-0.06-0.16c-0.14-0.36-0.25-0.72-0.33-1.1c-0.02-0.1-0.04-0.19-0.05-0.29c0-0.03-0.01-0.07-0.01-0.1
	c-0.03-0.17,0.01,0.15,0-0.02c-0.02-0.2-0.04-0.39-0.04-0.59c-0.01-0.2,0-0.4,0.01-0.59c0.01-0.08,0.01-0.17,0.02-0.25
	c0-0.04,0.03-0.2,0-0.02c0.01-0.07,0.02-0.13,0.03-0.2c0.08-0.44,0.21-0.87,0.38-1.29c-0.06,0.15,0.06-0.13,0.09-0.18
	c0.06-0.11,0.11-0.23,0.18-0.34c0.12-0.21,0.25-0.42,0.39-0.62c0.03-0.05,0.07-0.09,0.1-0.14c0.05-0.06,0.05-0.06,0,0
	c0.02-0.03,0.05-0.06,0.07-0.09c0.07-0.09,0.15-0.19,0.23-0.28c0.18-0.2,0.37-0.4,0.57-0.59c0.48-0.45,0.85-0.72,1.41-1.08
	c0.55-0.35,0.34-1.24-0.34-1.25c-0.29,0-0.59-0.01-0.88-0.03c-0.14-0.01-0.27-0.02-0.41-0.04c-0.07-0.01-0.14-0.02-0.21-0.02
	c-0.08-0.01,0.02,0,0.03,0c-0.04,0-0.08-0.01-0.12-0.02c-0.51-0.08-1.02-0.19-1.51-0.35c-0.11-0.04-0.22-0.07-0.32-0.11
	c-0.06-0.02-0.11-0.04-0.17-0.07c-0.05-0.02-0.18-0.08-0.05-0.02c-0.2-0.09-0.41-0.19-0.6-0.29c-0.2-0.11-0.39-0.22-0.57-0.35
	c-0.08-0.06-0.17-0.11-0.25-0.17c-0.06-0.04-0.1-0.07-0.01-0.01c-0.05-0.04-0.1-0.08-0.14-0.11c-0.31-0.26-0.59-0.54-0.84-0.85
	c-0.03-0.04-0.06-0.08-0.09-0.12c-0.03-0.03,0.08,0.11,0,0c-0.06-0.09-0.12-0.17-0.18-0.26c-0.11-0.16-0.2-0.32-0.29-0.49
	c-0.09-0.17-0.17-0.34-0.25-0.51c0.08,0.18-0.03-0.07-0.05-0.13c-0.04-0.09-0.07-0.18-0.1-0.27c-0.12-0.36-0.19-0.73-0.26-1.11
	c-0.02-0.12,0.01,0.14,0,0.01c-0.01-0.05-0.01-0.1-0.02-0.14c-0.01-0.1-0.02-0.19-0.02-0.29c-0.01-0.19-0.01-0.37-0.01-0.56
	c0.01-0.19,0.01-0.37,0.03-0.56c0.01-0.07,0.05-0.33,0.01-0.13c0.02-0.1,0.03-0.19,0.05-0.29c0.07-0.37,0.16-0.74,0.29-1.1
	c0.03-0.08,0.06-0.17,0.09-0.25c0.01-0.04,0.03-0.08,0.05-0.11c-0.07,0.19,0,0.01,0.01-0.03c0.08-0.17,0.16-0.34,0.25-0.5
	c0.09-0.17,0.19-0.33,0.3-0.49c0.05-0.08,0.1-0.15,0.15-0.22c0.02-0.03,0.05-0.07,0.08-0.1c0.05-0.07-0.08,0.1,0.02-0.03
	c0.24-0.29,0.49-0.56,0.78-0.81c0.07-0.06,0.14-0.12,0.21-0.17c0.13-0.1-0.08,0.06,0.01-0.01c0.04-0.03,0.08-0.06,0.12-0.09
	c0.16-0.11,0.33-0.22,0.51-0.32c0.17-0.1,0.34-0.19,0.52-0.27c0.04-0.02,0.08-0.04,0.12-0.05c-0.17,0.08-0.02,0.01,0.03-0.01
	c0.1-0.04,0.2-0.08,0.29-0.11c0.19-0.07,0.39-0.12,0.6-0.17c0.1-0.02,0.2-0.04,0.3-0.06c0.05-0.01,0.11-0.02,0.16-0.03
	c0.04-0.01,0.25-0.03,0.06-0.01c0.45-0.05,0.91-0.07,1.37-0.05c0.12,0.01,0.23,0.01,0.35,0.03c0.06,0.01,0.13,0.01,0.19,0.02
	c0.03,0,0.05,0.01,0.08,0.01c0.1,0.01-0.12-0.02-0.01,0c0.26,0.04,0.51,0.08,0.76,0.14c0.56,0.13,1.12,0.3,1.65,0.51
	c0.06,0.02,0.13,0.05,0.19,0.08c0.02,0.01,0.2,0.08,0.12,0.05c0.15,0.06,0.3,0.13,0.45,0.2c0.33,0.15,0.72,0.09,0.92-0.24
	C162.17,9.91,162.09,9.43,161.77,9.28z"/>
<path class="st0" d="M170.3,22.51c-0.18-0.26-0.35-0.54-0.49-0.83c-0.03-0.06-0.06-0.12-0.09-0.18c-0.05-0.11-0.01-0.02,0,0
	c-0.01-0.04-0.03-0.07-0.04-0.1c-0.05-0.13-0.1-0.27-0.13-0.41c-0.03-0.12-0.06-0.25-0.08-0.37c-0.01-0.07-0.03-0.18-0.01-0.04
	c-0.01-0.07-0.02-0.14-0.02-0.21c-0.01-0.11-0.01-0.23-0.01-0.35c0-0.05,0.01-0.11,0.01-0.16c0.01-0.05,0.04-0.27,0-0.07
	c0.04-0.22,0.09-0.44,0.16-0.65c0.02-0.05,0.04-0.09,0.05-0.14c-0.05,0.14-0.01,0.03,0.02-0.04c0.05-0.1,0.1-0.2,0.16-0.3
	c0.05-0.08,0.11-0.17,0.16-0.25c0.1-0.15-0.05,0.05,0.02-0.03c0.04-0.04,0.07-0.09,0.11-0.13c0.15-0.17,0.32-0.32,0.49-0.47
	c0.09-0.08-0.12,0.08,0.02-0.01c0.04-0.03,0.08-0.06,0.12-0.09c0.1-0.07,0.19-0.13,0.29-0.19c0.09-0.05,0.19-0.11,0.29-0.15
	c0.05-0.02,0.09-0.04,0.14-0.07c0.17-0.08-0.08,0.03,0.06-0.03c0.22-0.08,0.43-0.15,0.65-0.2c0.11-0.03,0.22-0.05,0.32-0.07
	c0.09-0.02,0.14-0.02,0.02,0c0.07-0.01,0.13-0.01,0.2-0.02c0.23-0.02,0.46-0.02,0.68-0.01c0.05,0,0.1,0.01,0.15,0.01
	c0.03,0,0.06,0.01,0.09,0.01c0.09,0.01-0.14-0.02-0.05-0.01c0.11,0.02,0.23,0.04,0.35,0.07c0.11,0.03,0.21,0.06,0.32,0.09
	c0.05,0.02,0.1,0.03,0.15,0.05c0.03,0.01,0.06,0.02,0.08,0.03c0.08,0.03-0.15-0.07-0.02-0.01c0.2,0.1,0.4,0.2,0.59,0.33
	c0.03,0.02,0.19,0.14,0.12,0.08c-0.07-0.05,0.09,0.07,0.11,0.09c0.1,0.09,0.2,0.18,0.29,0.28c0.05,0.05,0.1,0.11,0.15,0.16
	c0.04,0.04,0.13,0.18,0.05,0.06c0.09,0.13,0.18,0.25,0.26,0.39c0.08,0.13,0.15,0.27,0.21,0.41c0.02,0.03,0.03,0.07,0.05,0.1
	c0.04,0.1-0.06-0.15,0.01,0.02c0.03,0.07,0.06,0.15,0.08,0.22c0.13,0.36,0.22,0.73,0.28,1.11c0.06,0.36,0.5,0.56,0.82,0.47
	c0.38-0.11,0.52-0.46,0.47-0.82c-0.11-0.69-0.15-1.6-0.07-2.4c0.01-0.05,0.01-0.1,0.02-0.15c0,0.03-0.02,0.13,0,0
	c0.01-0.08,0.03-0.17,0.04-0.26c0.03-0.17,0.07-0.34,0.11-0.51c0.04-0.15,0.09-0.3,0.14-0.45c0.03-0.07,0.05-0.15,0.08-0.22
	c0.01-0.04,0.06-0.15,0,0c0.02-0.04,0.04-0.09,0.06-0.14c0.12-0.26,0.26-0.51,0.42-0.75c0.04-0.06,0.09-0.12,0.13-0.19
	c-0.09,0.12-0.01,0.01,0.04-0.04c0.09-0.11,0.19-0.22,0.3-0.33c0.09-0.09,0.19-0.18,0.29-0.26c0.06-0.05,0.15-0.11,0.03-0.03
	c0.06-0.04,0.12-0.09,0.19-0.13c0.21-0.14,0.44-0.26,0.67-0.37c0.13-0.06-0.11,0.04-0.03,0.01c0.03-0.01,0.06-0.03,0.1-0.04
	c0.05-0.02,0.1-0.04,0.15-0.05c0.13-0.04,0.26-0.08,0.39-0.11c0.12-0.03,0.24-0.05,0.36-0.07c-0.14,0.02-0.07,0.01,0.02,0
	c0.07-0.01,0.15-0.01,0.22-0.02c0.25-0.01,0.5,0.01,0.75,0.03c-0.21-0.01-0.01,0,0.04,0.01c0.06,0.01,0.12,0.02,0.18,0.04
	c0.13,0.03,0.26,0.06,0.4,0.11c0.11,0.04,0.22,0.08,0.33,0.12c0.09,0.03-0.15-0.07-0.03-0.01c0.03,0.01,0.05,0.02,0.07,0.04
	c0.06,0.03,0.13,0.06,0.19,0.09c0.11,0.06,0.22,0.12,0.33,0.19c0.06,0.04,0.12,0.08,0.18,0.12c0.04,0.03,0.22,0.17,0.07,0.05
	c0.21,0.17,0.42,0.36,0.6,0.56c0.05,0.05,0.09,0.1,0.13,0.15c0.02,0.02,0.04,0.05,0.06,0.07c0.1,0.12-0.06-0.09,0-0.01
	c0.09,0.12,0.17,0.24,0.25,0.37c0.09,0.15,0.17,0.3,0.25,0.45c0.04,0.08,0.08,0.17,0.12,0.25c0.01,0.03,0.05,0.12-0.01-0.02
	c0.02,0.05,0.04,0.1,0.06,0.15c0.14,0.36,0.24,0.73,0.31,1.11c0.02,0.1,0.04,0.19,0.05,0.29c0.01,0.04,0.01,0.08,0.02,0.12
	c-0.02-0.15,0,0.03,0.01,0.06c0.03,0.23,0.04,0.46,0.05,0.69c0.01,0.48-0.01,0.96-0.06,1.44c-0.07,0.64,0.99,0.94,1.25,0.34
	c0.11-0.25,0.23-0.5,0.37-0.74c0.07-0.11,0.14-0.22,0.21-0.33c0.04-0.05,0.07-0.1,0.11-0.15c-0.07,0.09,0.03-0.04,0.05-0.06
	c0.15-0.18,0.32-0.35,0.5-0.5c0.04-0.04,0.09-0.07,0.13-0.11c-0.12,0.1,0.03-0.02,0.04-0.03c0.09-0.06,0.18-0.12,0.28-0.18
	c0.09-0.06,0.19-0.11,0.29-0.15c0.05-0.02,0.1-0.04,0.15-0.07c0.16-0.08-0.13,0.04,0.04-0.01c0.2-0.07,0.4-0.14,0.61-0.18
	c0.1-0.02,0.2-0.04,0.31-0.06c-0.18,0.03,0.13-0.01,0.18-0.01c0.21-0.01,0.42-0.01,0.62,0.01c0.05,0,0.1,0.01,0.15,0.01
	c0.17,0.01-0.14-0.03,0.03,0c0.1,0.02,0.2,0.04,0.3,0.06c0.2,0.05,0.4,0.11,0.59,0.18c0.05,0.02,0.1,0.04,0.14,0.06
	c-0.16-0.06,0,0,0.03,0.01c0.09,0.04,0.18,0.09,0.27,0.14c0.18,0.1,0.35,0.21,0.52,0.33c0.14,0.09-0.1-0.09,0.03,0.02
	c0.04,0.03,0.08,0.07,0.12,0.1c0.08,0.07,0.15,0.14,0.23,0.21c0.06,0.06,0.12,0.12,0.18,0.19c0.03,0.04,0.07,0.08,0.1,0.11
	c0.12,0.14-0.01-0.03,0.05,0.07c0.1,0.16,0.21,0.31,0.3,0.48c0.05,0.09,0.09,0.19,0.13,0.28c-0.07-0.16,0,0.01,0.01,0.03
	c0.02,0.07,0.05,0.13,0.07,0.2c0.04,0.12,0.07,0.24,0.09,0.36c0.01,0.04,0.01,0.07,0.02,0.11c0.01,0.04,0.01,0.07,0.02,0.11
	c-0.01-0.09-0.01-0.09-0.01-0.01c0.01,0.27,0.03,0.53,0,0.79c0,0.02-0.03,0.22-0.01,0.06c-0.01,0.06-0.02,0.12-0.03,0.18
	c-0.03,0.15-0.06,0.29-0.1,0.43c-0.09,0.34-0.17,0.53-0.3,0.8c-0.15,0.33-0.09,0.72,0.24,0.92c0.29,0.17,0.76,0.09,0.92-0.24
	c0.52-1.09,0.77-2.26,0.54-3.46c-0.19-0.97-0.74-1.88-1.48-2.52c-1.55-1.35-3.78-1.72-5.65-0.84c-1.16,0.55-2.03,1.6-2.53,2.76
	c0.41,0.11,0.83,0.23,1.25,0.34c0.18-1.65,0.01-3.38-0.78-4.87c-0.61-1.17-1.61-2.08-2.83-2.57c-2.38-0.96-5.09,0.1-6.33,2.3
	c-0.94,1.68-1,3.66-0.72,5.52c0.43-0.12,0.86-0.24,1.29-0.36c-0.22-1.28-0.79-2.56-1.8-3.4c-0.88-0.73-1.98-1.11-3.13-1.1
	c-2.12,0.02-4.33,1.36-4.87,3.5c-0.35,1.43,0.12,2.88,0.93,4.06c0.2,0.3,0.59,0.43,0.92,0.24C170.36,23.25,170.51,22.81,170.3,22.51
	z"/>
<path class="st2" d="M16.82,37.95l-0.01-0.01 M19.16,40.49c-0.14-0.72,0.05-1.61,0.57-2.64c0.5-1.02,1.29-2.08,2.21-3.09
	c1.86-2.03,4.13-3.69,5.5-4.21 M5.39,55.1c-2.59-4.05-4.6-8.98-5.05-13.75c-0.26-2.81,0.63-6.28,2.39-8.65
	c0.88-1.17,1.94-2.04,3.13-2.45c1.18-0.4,2.56-0.39,4.15,0.31 M5.39,55.1c1.72,2.69,3.78,5.16,5.99,7.5L5.39,55.1z M12.17,63.45
	l-0.79-0.85 M12.17,63.45l-0.79-0.85 M14.36,65.71l-2.19-2.26 M14.36,65.71c-0.73-0.7-1.45-1.47-2.19-2.26 M17.27,67.93l-2.91-2.22
	 M17.27,67.93c-0.97-0.49-1.93-1.27-2.91-2.22 M17.27,67.93c0.96,0.48,1.9,0.67,2.9,0.48 M23.61,66.35
	c-1.3,1.26-2.44,1.87-3.44,2.06 M35.97,34.6c1.88,5.67,0.81,11.64-1.77,17.22c-2.58,5.57-6.64,10.68-10.59,14.53 M35.97,34.6
	l-0.01-0.01c-0.66-1.98-1.87-3.33-3.34-4.01c-1.47-0.69-3.27-0.74-5.18-0.03 M19.16,40.49l-1.48,0.28c-0.18-0.95-0.47-1.9-0.86-2.82
	l-0.01-0.01c-1.32-3.2-3.8-6.05-6.8-7.38 M35.97,34.6l-0.01-0.01"/>
<path class="st1" d="M322.97,147.17c-0.14-0.33-0.29-0.66-0.45-0.98c-0.84-1.69-1.89-3.23-3.3-4.46c-1.37-1.21-3.24-2.02-5.09-2.22
	c-1.85-0.2-3.63,0.22-4.93,1.36c-2.19,1.92-2.97,5.25-2.9,8.82 M306.3,149.69c0.05,2.99,0.7,6.03,1.44,8.23h0.01
	c1.36,4.06,3.81,7.43,6.72,10.56c1.85,1.99,3.85,3.85,5.87,5.72c1.02,0.95,2.04,1.9,3.05,2.88c1.18-1.03,2.41-2.05,3.64-3.07
	c0.07-0.05,0.14-0.11,0.2-0.16c1.49-1.23,2.97-2.47,4.4-3.75c2.87-2.56,5.49-5.25,7.38-8.32 M327.01,146.56
	c-0.44,1.57-0.71,3.24-0.97,4.94l-1.46,0.11c-0.48-1.52-0.98-3.02-1.61-4.44 M341.42,144.39c-0.98-2.51-2.83-4.75-5.31-5.29h-0.01
	c-2.79-0.6-5.81,1.15-7.44,3.67c-0.76,1.16-1.27,2.44-1.65,3.79 M341.42,144.39c2.2,5.58,0.82,12.11-2.41,17.39"/>
</svg>
