<?xml version="1.0" encoding="utf-8"?>
<!-- Generator: Adobe Illustrator 27.6.1, SVG Export Plug-In . SVG Version: 6.00 Build 0)  -->
<svg version="1.1" id="Layer_1" xmlns="http://www.w3.org/2000/svg" xmlns:xlink="http://www.w3.org/1999/xlink" x="0px" y="0px"
	 viewBox="0 0 124 71" style="enable-background:new 0 0 124 71;" xml:space="preserve">
<style type="text/css">
	.st0{fill:#8787C1;}
	.st1{fill-rule:evenodd;clip-rule:evenodd;fill:#8787C1;}
</style>
<path class="st0" d="M7.53,3.77l1.16-0.1c0.57,1.54,1.15,4.41,1.74,8.6c-0.19,0.05-0.39,0.07-0.58,0.07c-0.17,0-0.37-0.03-0.6-0.09
	C9.1,11.62,8.9,10.52,8.68,8.93C8.46,7.35,8.26,6.22,8.09,5.56c-0.56,0.91-1.31,2.59-2.26,5.03c-0.08,0.01-0.22,0.03-0.43,0.07
	c-0.19,0.03-0.34,0.05-0.44,0.05c-0.13,0-0.27-0.02-0.44-0.05C4.34,10.19,4.06,9.45,3.7,8.42C3.34,7.38,3.06,6.6,2.84,6.08
	c-1.09,2.81-1.78,4.88-2.05,6.23l-0.67-0.19c0.06-0.87,0.37-2.38,0.94-4.53c0.57-2.17,0.91-3.55,1.03-4.14
	c0.14,0,0.29,0.02,0.46,0.05c0.18,0.02,0.32,0.03,0.41,0.03c0.3,0.51,0.7,1.5,1.21,2.96C4.69,7.94,5.03,8.84,5.2,9.21
	C6.07,6.74,6.85,4.93,7.53,3.77z M12.64,10.78c0,0.19,0.01,0.45,0.03,0.77c-0.1,0.35-0.3,0.53-0.6,0.53c-0.21,0-0.4-0.08-0.6-0.24
	c-0.18-0.17-0.3-0.38-0.34-0.62c0.03-0.92,0.07-2.28,0.12-4.05c0.06-1.78,0.1-2.98,0.12-3.61l0.79-0.14
	c0.14,0.73,0.22,1.7,0.26,2.91c0.03,1.21,0.08,2.11,0.14,2.7c0.22-0.32,0.83-1.15,1.85-2.5c1.01-1.35,1.7-2.35,2.07-3.01
	c0.25-0.05,0.41-0.07,0.48-0.07c0.22,0,0.36,0.1,0.44,0.29c0.09,0.19,0.15,0.56,0.17,1.09l0.33,7.05c-0.1,0.34-0.3,0.51-0.6,0.51
	c-0.21,0-0.4-0.08-0.6-0.24c-0.18-0.17-0.3-0.38-0.34-0.62c0.01-0.38,0.04-1.29,0.09-2.75c0.06-1.47,0.1-2.51,0.14-3.13
	C14.63,7.89,13.32,9.59,12.64,10.78z M25.42,17.26l-1.06-0.6c0.47-0.81,1.29-2.35,2.48-4.62c-0.92-0.82-1.63-2.06-2.12-3.73
	c-0.49-1.66-0.79-3.33-0.89-4.99l0.99,0.05c0.06,0.27,0.18,0.9,0.36,1.88c0.19,0.97,0.35,1.69,0.46,2.16
	c0.11,0.47,0.31,1.05,0.6,1.76c0.3,0.7,0.63,1.28,1.01,1.76c1.59-3.04,2.38-5.54,2.38-7.49V3.25c0.59,0.09,1.04,0.2,1.33,0.33
	C30.78,4.78,30.5,6,30.11,7.24c-0.39,1.24-0.87,2.5-1.45,3.76c-0.58,1.25-1.1,2.31-1.56,3.16C26.65,15.02,26.09,16.05,25.42,17.26z
	 M42.32,3.72l-0.09,0.74c-0.48-0.07-0.89-0.1-1.23-0.1c-0.79,0-1.44,0.24-1.95,0.72c-0.51,0.47-0.87,1.03-1.06,1.68
	c-0.18,0.64-0.27,1.35-0.27,2.14c0,0.36,0.02,0.69,0.07,0.98c0.05,0.29,0.13,0.56,0.24,0.84c0.13,0.27,0.31,0.49,0.56,0.65
	c0.26,0.15,0.58,0.22,0.96,0.22c0.5,0,1.14-0.1,1.92-0.29c0.24-0.09,0.43-0.14,0.56-0.14c0.27,0,0.44,0.32,0.5,0.96
	c-1,0.32-1.93,0.48-2.79,0.48c-1.24,0-2.09-0.3-2.53-0.91c-0.43-0.62-0.65-1.61-0.65-2.98c0-0.8,0.05-1.49,0.15-2.09
	c0.11-0.6,0.31-1.16,0.58-1.68c0.27-0.52,0.67-0.92,1.18-1.2c0.52-0.27,1.16-0.41,1.92-0.41C41.23,3.32,41.88,3.45,42.32,3.72z
	 M43.4,8.56c0-0.46,0.05-0.96,0.14-1.52c0.1-0.56,0.25-1.15,0.44-1.76c0.19-0.62,0.48-1.13,0.87-1.54c0.39-0.41,0.84-0.62,1.35-0.62
	c1.09,0,1.97,0.5,2.63,1.49c0.66,0.98,0.99,2.08,0.99,3.28c0,0.51-0.06,1.03-0.17,1.54c-0.1,0.5-0.27,1-0.5,1.49
	c-0.23,0.49-0.56,0.9-0.99,1.23c-0.42,0.32-0.92,0.5-1.49,0.55c-1.05-0.14-1.86-0.58-2.43-1.33C43.68,10.6,43.4,9.66,43.4,8.56z
	 M46.31,4.01c-0.4,0.05-0.74,0.41-1.01,1.09c-0.27,0.68-0.45,1.35-0.53,2c-0.08,0.64-0.12,1.2-0.12,1.69c0,0.64,0.19,1.23,0.58,1.78
	c0.4,0.54,0.84,0.8,1.33,0.8c0.35,0,0.67-0.14,0.96-0.41c0.29-0.27,0.51-0.61,0.67-1.01c0.17-0.41,0.3-0.82,0.38-1.23
	c0.09-0.41,0.14-0.78,0.14-1.09c0-0.94-0.21-1.75-0.63-2.45C47.65,4.49,47.06,4.1,46.31,4.01z M51.22,12.25
	c0.03-0.63,0.06-2.08,0.07-4.34c0.01-2.28,0.06-3.87,0.14-4.76l0.77,0.17c0.08,0.91,0.14,2.37,0.17,4.38
	c0.05,2.01,0.07,3.1,0.09,3.28c0.17-0.01,0.45-0.02,0.84-0.02c0.27,0,0.67,0.01,1.2,0.02C55.02,11,55.4,11,55.61,11h0.48
	c0.03-0.71,0.07-1.95,0.12-3.73c0.05-1.79,0.09-3.11,0.14-3.97l0.77,0.17c0.05,0.89,0.07,2.3,0.07,4.23
	c0.01,1.93,0.02,3.03,0.02,3.3h1.28c-0.01,0.32-0.04,0.91-0.09,1.76c-0.05,0.86-0.07,1.49-0.09,1.92l-0.82-0.14l-0.34-2.29
	c-1.48,0.05-2.59,0.07-3.32,0.07C52.86,12.32,51.99,12.3,51.22,12.25z M59.79,10.06c0.31,0,0.56,0.14,0.77,0.41
	c0.22,0.26,0.32,0.56,0.32,0.91c0,0.25-0.06,0.46-0.19,0.62c-0.11,0.15-0.27,0.22-0.48,0.22c-0.32,0-0.58-0.13-0.77-0.39
	c-0.18-0.26-0.27-0.57-0.27-0.92c0-0.25,0.05-0.45,0.15-0.6C59.44,10.14,59.59,10.06,59.79,10.06z M73.52,3.77l1.16-0.1
	c0.57,1.54,1.15,4.41,1.74,8.6c-0.19,0.05-0.39,0.07-0.58,0.07c-0.17,0-0.37-0.03-0.6-0.09c-0.16-0.63-0.35-1.73-0.58-3.32
	c-0.22-1.59-0.41-2.71-0.58-3.37c-0.56,0.91-1.31,2.59-2.26,5.03c-0.08,0.01-0.22,0.03-0.43,0.07c-0.19,0.03-0.34,0.05-0.44,0.05
	c-0.13,0-0.27-0.02-0.44-0.05c-0.18-0.47-0.46-1.21-0.82-2.24c-0.35-1.04-0.64-1.82-0.86-2.34c-1.09,2.81-1.78,4.88-2.05,6.23
	l-0.67-0.19c0.06-0.87,0.37-2.38,0.94-4.53c0.57-2.17,0.91-3.55,1.03-4.14c0.14,0,0.29,0.02,0.46,0.05
	c0.18,0.02,0.32,0.03,0.41,0.03c0.3,0.51,0.7,1.5,1.21,2.96c0.51,1.45,0.86,2.35,1.03,2.72C72.06,6.74,72.84,4.93,73.52,3.77z
	 M84.02,10.54l0.17,0.75c-0.5,0.18-1.25,0.39-2.24,0.62c-0.98,0.22-1.71,0.33-2.19,0.33c-0.49,0-0.92-0.16-1.28-0.48
	c-0.36-0.33-0.64-0.75-0.82-1.25C77.48,9.99,77.34,9.49,77.25,9c-0.08-0.5-0.12-0.99-0.12-1.47c0-2.85,1.29-4.28,3.87-4.28
	c0.62,0,1.16,0.2,1.63,0.6c0.47,0.39,0.7,0.9,0.7,1.52c0,0.34-0.1,0.64-0.29,0.91c-0.18,0.26-0.41,0.47-0.68,0.63
	c-0.26,0.15-0.6,0.29-1.03,0.41c-0.41,0.13-0.78,0.22-1.09,0.27c-0.32,0.06-0.7,0.12-1.15,0.19c-0.44,0.07-0.75,0.12-0.92,0.15
	c0.01,0.33,0.03,0.62,0.05,0.87c0.03,0.25,0.09,0.52,0.17,0.82c0.09,0.29,0.21,0.52,0.34,0.72c0.15,0.18,0.35,0.34,0.6,0.46
	c0.25,0.13,0.55,0.19,0.89,0.19c0.41,0,0.91-0.03,1.51-0.1c0.59-0.08,1.12-0.16,1.57-0.24C83.76,10.58,84,10.54,84.02,10.54z
	 M78.23,6.88c1.55-0.44,2.82-0.91,3.81-1.4c-0.08-0.38-0.19-0.65-0.32-0.82C81.58,4.49,81.37,4.4,81.1,4.4
	c-0.7,0-1.33,0.24-1.9,0.72C78.64,5.6,78.32,6.18,78.23,6.88z M85.08,3.2l0.96,0.17c0,0.24,0.01,0.42,0.02,0.53
	c0.63-0.4,1.26-0.6,1.9-0.6c1.04,0,1.85,0.44,2.43,1.33c0.58,0.89,0.87,1.9,0.87,3.03c0,0.57-0.05,1.12-0.14,1.64
	c-0.08,0.51-0.23,1.04-0.44,1.59c-0.22,0.54-0.55,0.97-1.01,1.3c-0.44,0.32-0.99,0.48-1.62,0.48c-0.6,0-1.19-0.16-1.74-0.48
	c0.05,2,0.09,3.48,0.12,4.45c-0.1,0.35-0.3,0.53-0.6,0.53c-0.21,0-0.4-0.09-0.6-0.26c-0.18-0.16-0.3-0.36-0.34-0.6L85.08,3.2z
	 M86.2,5.02l0.05,5.53c0.14,0.27,0.35,0.5,0.63,0.67c0.29,0.16,0.6,0.24,0.94,0.24c0.44,0,0.82-0.14,1.13-0.43
	c0.32-0.29,0.54-0.66,0.67-1.13c0.14-0.48,0.23-0.92,0.27-1.33c0.06-0.41,0.09-0.84,0.09-1.3c0-1.94-0.66-2.91-1.97-2.91
	c-0.42,0-0.82,0.06-1.18,0.19C86.48,4.65,86.27,4.81,86.2,5.02z M99.54,10.54l0.17,0.75c-0.5,0.18-1.25,0.39-2.24,0.62
	c-0.98,0.22-1.71,0.33-2.19,0.33c-0.49,0-0.92-0.16-1.28-0.48c-0.36-0.33-0.64-0.75-0.82-1.25C92.99,9.99,92.86,9.49,92.77,9
	c-0.08-0.5-0.12-0.99-0.12-1.47c0-2.85,1.29-4.28,3.87-4.28c0.62,0,1.16,0.2,1.63,0.6c0.47,0.39,0.7,0.9,0.7,1.52
	c0,0.34-0.1,0.64-0.29,0.91c-0.18,0.26-0.41,0.47-0.68,0.63c-0.26,0.15-0.6,0.29-1.03,0.41c-0.41,0.13-0.78,0.22-1.09,0.27
	c-0.32,0.06-0.7,0.12-1.15,0.19c-0.44,0.07-0.75,0.12-0.92,0.15c0.01,0.33,0.03,0.62,0.05,0.87c0.03,0.25,0.09,0.52,0.17,0.82
	c0.09,0.29,0.21,0.52,0.34,0.72c0.15,0.18,0.35,0.34,0.6,0.46c0.25,0.13,0.55,0.19,0.89,0.19c0.41,0,0.91-0.03,1.51-0.1
	c0.59-0.08,1.12-0.16,1.57-0.24C99.27,10.58,99.52,10.54,99.54,10.54z M93.74,6.88c1.55-0.44,2.82-0.91,3.81-1.4
	c-0.08-0.38-0.19-0.65-0.32-0.82c-0.14-0.17-0.34-0.26-0.62-0.26c-0.7,0-1.33,0.24-1.9,0.72C94.16,5.6,93.83,6.18,93.74,6.88z
	 M104.62,6.62c0-1.74,0.05-2.98,0.15-3.71l0.77,0.29c0.09,0.44,0.14,1.07,0.14,1.88c0.01,0.81,0.02,1.32,0.03,1.54
	c0.34-0.06,0.64-0.23,0.89-0.53c0.26-0.3,0.47-0.63,0.63-0.99c0.17-0.38,0.35-0.75,0.53-1.11c0.18-0.36,0.42-0.67,0.7-0.92
	c0.3-0.25,0.65-0.38,1.04-0.38c0.25,0,0.58,0.06,0.97,0.19l-0.07,0.6c-0.07-0.01-0.17-0.02-0.29-0.02c-0.38,0-0.71,0.13-0.99,0.38
	c-0.29,0.24-0.52,0.54-0.7,0.91c-0.17,0.36-0.33,0.74-0.48,1.11c-0.15,0.36-0.32,0.69-0.53,0.98c-0.19,0.29-0.42,0.46-0.67,0.51
	c0.42,0.1,0.78,0.39,1.08,0.87c0.31,0.47,0.54,0.95,0.68,1.45c0.16,0.49,0.39,0.94,0.68,1.35c0.3,0.4,0.66,0.6,1.1,0.6
	c0.11,0,0.24-0.02,0.38-0.05l0.05,0.75c-0.23,0.06-0.43,0.09-0.6,0.09c-0.43,0-0.83-0.14-1.18-0.43c-0.34-0.29-0.63-0.63-0.86-1.04
	c-0.23-0.41-0.45-0.82-0.65-1.21c-0.19-0.41-0.4-0.76-0.63-1.04c-0.23-0.29-0.46-0.43-0.7-0.43c-0.1,0-0.19,0.02-0.27,0.05
	c0.02,0.33,0.05,0.68,0.07,1.06c0.03,0.36,0.07,0.77,0.1,1.21c0.03,0.44,0.06,0.79,0.09,1.04c-0.1,0.35-0.3,0.53-0.6,0.53
	c-0.21,0-0.4-0.08-0.6-0.24c-0.18-0.17-0.3-0.38-0.34-0.62c0.02-0.96,0.03-1.96,0.03-2.99c-0.09-0.03-0.18-0.05-0.27-0.05
	c-0.24,0-0.47,0.14-0.7,0.43c-0.23,0.29-0.44,0.63-0.65,1.04c-0.19,0.4-0.41,0.8-0.63,1.21c-0.23,0.41-0.52,0.76-0.87,1.04
	c-0.34,0.29-0.73,0.43-1.16,0.43c-0.17,0-0.37-0.03-0.6-0.09l0.05-0.75c0.14,0.03,0.27,0.05,0.39,0.05c0.35,0,0.66-0.13,0.91-0.39
	c0.25-0.26,0.46-0.59,0.62-0.98c0.16-0.4,0.31-0.8,0.46-1.2c0.16-0.4,0.36-0.76,0.62-1.09c0.26-0.33,0.57-0.54,0.92-0.62
	c-0.25-0.06-0.48-0.23-0.68-0.51c-0.19-0.29-0.36-0.61-0.51-0.98c-0.15-0.38-0.31-0.75-0.5-1.11c-0.17-0.36-0.4-0.67-0.68-0.91
	c-0.29-0.25-0.62-0.38-0.99-0.38c-0.13,0-0.22,0.01-0.29,0.02l-0.07-0.6c0.34-0.13,0.67-0.19,0.99-0.19c0.4,0,0.75,0.13,1.04,0.38
	c0.3,0.24,0.53,0.54,0.7,0.91c0.18,0.35,0.35,0.72,0.51,1.09c0.17,0.36,0.38,0.7,0.62,1.01C104.04,6.37,104.31,6.56,104.62,6.62z
	 M112.04,4.81l-0.34-0.87c0.3-0.3,0.67-0.53,1.13-0.7c0.46-0.18,0.91-0.27,1.35-0.27c1.93,0,2.89,1.66,2.89,4.99
	c0,0.46-0.03,1.13-0.09,2.02c-0.05,0.89-0.07,1.56-0.07,2c-0.09,0.35-0.27,0.53-0.53,0.53c-0.21,0-0.39-0.1-0.56-0.31
	c-0.17-0.21-0.26-0.43-0.26-0.68c0-0.08,0.01-0.14,0.02-0.17c-0.71,0.68-1.46,1.03-2.26,1.03c-0.6,0-1.13-0.22-1.59-0.65
	c-0.44-0.44-0.67-0.98-0.67-1.61c0-1.06,0.41-2.02,1.23-2.87c0.83-0.86,1.77-1.28,2.82-1.28c0.05,0,0.09,0.01,0.14,0.02
	c0.05,0,0.1,0.01,0.15,0.02c0.07,0.01,0.12,0.02,0.15,0.02c-0.09-1.33-0.62-2-1.59-2C113.41,4.01,112.76,4.27,112.04,4.81z
	 M115.62,10.16c0.02-0.8,0.03-1.4,0.03-1.81c0-0.34-0.01-0.82-0.03-1.44h-0.14c-0.81,0.01-1.55,0.31-2.22,0.91
	c-0.66,0.59-0.99,1.31-0.99,2.16c0,0.36,0.11,0.66,0.32,0.87c0.23,0.22,0.5,0.33,0.82,0.33C113.91,11.17,114.65,10.84,115.62,10.16z
	 M118.49,12.63l-0.74-0.39c0.3-0.74,1.07-2.18,2.33-4.31c-0.66-0.9-1.41-2.4-2.26-4.5h0.75c0.42,0.89,1.13,2.05,2.14,3.47
	c0.17-0.24,0.39-0.61,0.67-1.11c0.28-0.5,0.56-0.94,0.82-1.3c0.27-0.36,0.58-0.68,0.92-0.96c0.41,0.23,0.62,0.5,0.62,0.8
	c0,0.17-0.04,0.34-0.12,0.5c-0.31,0.38-0.7,0.97-1.18,1.78c-0.48,0.81-0.78,1.3-0.89,1.47c1.21,1.69,2.02,2.96,2.45,3.81
	c0,0.43-0.19,0.65-0.58,0.65c-0.39,0-0.68-0.19-0.89-0.56c-0.21-0.68-0.75-1.65-1.62-2.91c-0.19,0.32-0.59,0.9-1.2,1.74
	C119.11,11.65,118.71,12.25,118.49,12.63z"/>
<path class="st1" d="M64.13,27.81c-0.11,0.11-0.16,0.27-0.16,0.49c0,0.25-0.04,0.33-0.16,0.37c-0.25,0.08-0.27,0.36-0.08,1.36
	c0.1,0.51,0.21,1.39,0.25,1.95c0.48,6.73,3.23,13.25,8.12,19.24c1,1.23,3.91,4.18,5.09,5.17c5.93,4.99,12.39,7.92,18.88,8.57
	c0.39,0.04,0.73,0.09,0.75,0.11c0.04,0.04-0.48,1.05-1.27,2.46c-0.45,0.81-0.47,1.03-0.06,1.25c0.22,0.12,0.32,0.11,1.26-0.08
	c0.56-0.12,1.49-0.37,2.07-0.57c1.31-0.45,5.64-2.27,5.85-2.46c0.09-0.08,0.16-0.2,0.16-0.28c0-0.19-0.62-1.88-1.11-3.03
	c-0.59-1.38-1.95-4.36-2.05-4.48c-0.05-0.06-0.2-0.1-0.33-0.1c-0.21,0-0.37,0.12-1.01,0.8c-0.87,0.92-1.6,1.84-1.97,2.47l-0.25,0.44
	l-1.37-0.04c-1.46-0.05-2.24-0.17-3.56-0.56c-4.3-1.26-8.58-4.17-15.25-10.38c-6.41-5.97-10.42-11.72-12.46-17.84
	c-0.49-1.46-0.56-1.87-0.67-3.62c-0.06-0.97-0.1-1.2-0.21-1.29C64.37,27.61,64.32,27.62,64.13,27.81z M67.11,39.25
	c2.84,4.96,8.19,10.84,14.41,15.86c4.83,3.89,9.09,6.31,12.21,6.92c1.05,0.21,2.52,0.22,3.39,0.04c0.34-0.07,0.62-0.12,0.63-0.1
	c0.01,0.01,0.08,0.13,0.15,0.25c0.15,0.24,0.42,0.3,0.63,0.12c0.07-0.06,0.49-0.56,0.94-1.13c0.45-0.56,0.99-1.22,1.2-1.47
	l0.39-0.44l0.62,1.38c1.01,2.25,1.75,4.1,1.75,4.34c0,0.11-0.11,0.16-1.65,0.79c-2.55,1.04-4.97,1.88-5.08,1.76
	c-0.04-0.04,0.23-0.72,0.75-1.89c0.24-0.54,0.27-0.68,0.2-0.84c-0.05-0.11-0.12-0.2-0.17-0.2c-0.05,0-0.08-0.05-0.08-0.12
	c0-0.19-0.2-0.26-1.69-0.57c-6.81-1.41-13.1-4.53-18.21-9.04c-1.19-1.05-3.47-3.42-4.36-4.52c-2.8-3.48-4.91-7.22-6.32-11.18
	C66.41,38.08,66.44,38.08,67.11,39.25z"/>
</svg>
