<?xml version="1.0" encoding="utf-8"?>
<!-- Generator: Adobe Illustrator 27.6.1, SVG Export Plug-In . SVG Version: 6.00 Build 0)  -->
<svg version="1.1" id="Layer_1" xmlns="http://www.w3.org/2000/svg" xmlns:xlink="http://www.w3.org/1999/xlink" x="0px" y="0px"
	 viewBox="0 0 144 77" style="enable-background:new 0 0 144 77;" xml:space="preserve">
<style type="text/css">
	.st0{fill:#8787C1;}
	.st1{fill-rule:evenodd;clip-rule:evenodd;fill:#8787C1;}
</style>
<path class="st0" d="M0.75,15.04l-0.04-0.99c1.3-0.2,2.1-0.31,2.41-0.32c0.01-0.46,0.02-1.15,0.02-2.06c0-1.21-0.03-2.96-0.08-5.24
	C3,4.13,2.97,2.61,2.95,1.87l-2.14-0.1L0.67,0.59c0.58,0.01,1.47,0.02,2.69,0.02c1.24,0,2.17,0.01,2.77,0.02l0.06,1.01
	C5.95,1.74,5.61,1.8,5.18,1.83C4.74,1.84,4.46,1.85,4.35,1.87c0.04,0.38,0.06,1.33,0.06,2.85c0.01,1.52,0.02,3.21,0.02,5.06
	c0,1.85,0.01,3.16,0.04,3.95c0.23,0.04,0.66,0.09,1.29,0.14c0.64,0.05,1.03,0.09,1.19,0.12l-0.04,1.05
	c-0.42-0.01-1.09-0.02-2.01-0.02c-0.48,0-1.19,0-2.14,0C1.82,15.03,1.15,15.04,0.75,15.04z M14.58,4.72l0.95,0.2l0.49,9.81
	c-0.13,0.4-0.37,0.61-0.74,0.61c-0.25,0-0.5-0.1-0.74-0.3c-0.24-0.19-0.39-0.42-0.44-0.71c0-0.04,0.06-1.18,0.19-3.42v-0.16
	c-0.4-0.03-0.98-0.04-1.76-0.04c-1.17,0-2.05-0.03-2.65-0.1c0.07,0.78,0.16,2.04,0.28,3.78c-0.13,0.42-0.37,0.63-0.74,0.63
	c-0.25,0-0.5-0.09-0.74-0.28c-0.23-0.2-0.37-0.45-0.42-0.73c0.04-0.67,0.06-1.35,0.06-2.02c0-0.43-0.01-1.08-0.02-1.94
	c-0.01-0.86-0.02-1.5-0.02-1.92c0-1.29,0.04-2.38,0.13-3.26l0.95,0.22C9.63,8.01,9.78,9.51,9.79,9.6c2.41,0.12,3.66,0.18,3.73,0.18
	c0.58,0,0.87-0.03,0.87-0.1c0-0.27,0.03-1.13,0.08-2.57C14.53,5.66,14.56,4.87,14.58,4.72z M18.2,4.58l0.97,0.2
	c0.11,1.11,0.21,2.85,0.3,5.22c0.08,2.36,0.14,3.82,0.17,4.39c-0.13,0.42-0.37,0.63-0.74,0.63c-0.25,0-0.5-0.09-0.74-0.28
	c-0.23-0.2-0.37-0.45-0.42-0.73c0.03-0.55,0.08-1.99,0.17-4.31C17.98,7.36,18.08,5.66,18.2,4.58z M18.49,0.96
	c0.38,0,0.7,0.16,0.95,0.49c0.25,0.31,0.38,0.67,0.38,1.07c0,0.3-0.08,0.54-0.23,0.73C19.45,3.42,19.25,3.51,19,3.51
	c-0.4,0-0.71-0.16-0.93-0.47c-0.23-0.31-0.34-0.67-0.34-1.09c0-0.3,0.06-0.53,0.19-0.71C18.06,1.05,18.25,0.96,18.49,0.96z
	 M21.56,15.04c0.04-0.74,0.07-2.45,0.08-5.14c0.01-2.7,0.07-4.57,0.17-5.62l0.95,0.2c0.1,1.08,0.17,2.81,0.21,5.18
	c0.06,2.37,0.09,3.67,0.11,3.88c0.21-0.01,0.56-0.02,1.04-0.02c0.34,0,0.83,0.01,1.48,0.02c0.66,0.01,1.13,0.02,1.4,0.02h0.59
	c0.04-0.84,0.09-2.31,0.15-4.41c0.06-2.12,0.11-3.68,0.17-4.69l0.95,0.2c0.06,1.05,0.08,2.72,0.08,5c0.01,2.28,0.02,3.58,0.02,3.9
	h1.59c-0.01,0.38-0.05,1.07-0.11,2.08c-0.06,1.01-0.09,1.77-0.11,2.27l-1.02-0.16l-0.42-2.71c-1.83,0.05-3.2,0.08-4.11,0.08
	C23.6,15.12,22.52,15.09,21.56,15.04z M32.32,4.58l0.97,0.2c0.11,1.11,0.21,2.85,0.3,5.22c0.08,2.36,0.14,3.82,0.17,4.39
	c-0.13,0.42-0.37,0.63-0.74,0.63c-0.25,0-0.5-0.09-0.74-0.28c-0.23-0.2-0.37-0.45-0.42-0.73c0.03-0.55,0.08-1.99,0.17-4.31
	C32.1,7.36,32.2,5.66,32.32,4.58z M32.61,0.96c0.38,0,0.7,0.16,0.95,0.49c0.25,0.31,0.38,0.67,0.38,1.07c0,0.3-0.08,0.54-0.23,0.73
	c-0.14,0.18-0.34,0.26-0.59,0.26c-0.4,0-0.71-0.16-0.93-0.47c-0.23-0.31-0.34-0.67-0.34-1.09c0-0.3,0.06-0.53,0.19-0.71
	C32.18,1.05,32.37,0.96,32.61,0.96z M36.44,6.24L36.02,5.2c0.37-0.35,0.83-0.63,1.4-0.83c0.56-0.22,1.12-0.32,1.67-0.32
	c2.39,0,3.58,1.97,3.58,5.91c0,0.54-0.04,1.34-0.11,2.39c-0.06,1.05-0.08,1.84-0.08,2.37c-0.11,0.42-0.33,0.63-0.66,0.63
	c-0.25,0-0.49-0.12-0.7-0.36c-0.21-0.24-0.32-0.51-0.32-0.81c0-0.09,0.01-0.16,0.02-0.2c-0.88,0.81-1.81,1.21-2.79,1.21
	c-0.75,0-1.4-0.26-1.97-0.77c-0.55-0.53-0.83-1.16-0.83-1.9c0-1.25,0.51-2.39,1.52-3.4c1.03-1.01,2.19-1.52,3.49-1.52
	c0.06,0,0.11,0.01,0.17,0.02c0.06,0,0.12,0.01,0.19,0.02c0.08,0.01,0.15,0.02,0.19,0.02c-0.11-1.58-0.77-2.37-1.97-2.37
	C38.13,5.29,37.33,5.6,36.44,6.24z M40.87,12.57c0.03-0.94,0.04-1.66,0.04-2.14c0-0.4-0.01-0.97-0.04-1.7H40.7
	c-1,0.01-1.92,0.37-2.75,1.07c-0.82,0.7-1.23,1.55-1.23,2.55c0,0.43,0.13,0.78,0.4,1.03c0.28,0.26,0.62,0.38,1.02,0.38
	C38.76,13.76,39.67,13.36,40.87,12.57z M43.71,5.69L43.52,4.8c1.89-0.11,4.87-0.26,8.93-0.45c0.34,0.01,0.63,0.13,0.87,0.36
	c0.24,0.23,0.36,0.47,0.36,0.73c0,0.4-0.28,0.63-0.85,0.69l-3.96-0.18c0.07,1.01,0.11,2.49,0.11,4.43c0.01,1.93,0.04,3.34,0.08,4.23
	c-0.13,0.39-0.37,0.59-0.74,0.59c-0.24,0-0.47-0.09-0.7-0.28c-0.23-0.19-0.37-0.42-0.42-0.69c0.2-3.32,0.4-6.1,0.61-8.36L43.71,5.69
	z M53.74,10.67c0-0.54,0.06-1.14,0.17-1.8c0.13-0.66,0.31-1.36,0.55-2.08c0.24-0.73,0.6-1.34,1.08-1.82s1.04-0.73,1.67-0.73
	c1.35,0,2.44,0.59,3.26,1.76c0.82,1.16,1.23,2.45,1.23,3.88c0,0.61-0.07,1.21-0.21,1.82c-0.13,0.59-0.33,1.18-0.61,1.76
	c-0.28,0.58-0.69,1.07-1.23,1.46c-0.52,0.38-1.14,0.59-1.84,0.65c-1.3-0.16-2.3-0.69-3.01-1.58C54.09,13.08,53.74,11.98,53.74,10.67
	z M57.34,5.29c-0.49,0.05-0.91,0.49-1.25,1.29s-0.56,1.6-0.66,2.37c-0.1,0.76-0.15,1.42-0.15,2c0,0.76,0.24,1.46,0.72,2.1
	c0.49,0.63,1.04,0.95,1.65,0.95c0.44,0,0.83-0.16,1.19-0.49c0.35-0.32,0.63-0.72,0.83-1.19c0.21-0.49,0.37-0.97,0.47-1.46
	c0.11-0.49,0.17-0.92,0.17-1.29c0-1.11-0.26-2.07-0.78-2.89C59,5.86,58.27,5.39,57.34,5.29z M63.67,4.33l1.19,0.2
	c0,0.28,0.01,0.49,0.02,0.63c0.78-0.47,1.56-0.71,2.35-0.71c1.28,0,2.29,0.53,3.01,1.58c0.72,1.05,1.08,2.25,1.08,3.58
	c0,0.67-0.06,1.32-0.17,1.94c-0.1,0.61-0.28,1.23-0.55,1.88c-0.27,0.63-0.68,1.15-1.25,1.54c-0.55,0.38-1.22,0.57-2.01,0.57
	c-0.75,0-1.47-0.19-2.16-0.57c0.06,2.36,0.11,4.11,0.15,5.26c-0.13,0.42-0.37,0.63-0.74,0.63c-0.25,0-0.5-0.1-0.74-0.3
	c-0.23-0.19-0.37-0.42-0.42-0.71L63.67,4.33z M65.05,6.48l0.06,6.54c0.17,0.32,0.43,0.59,0.78,0.79c0.35,0.19,0.74,0.28,1.16,0.28
	c0.55,0,1.02-0.17,1.4-0.51c0.4-0.34,0.67-0.78,0.83-1.34c0.17-0.57,0.28-1.09,0.34-1.58c0.07-0.49,0.11-1,0.11-1.54
	c0-2.29-0.81-3.44-2.43-3.44c-0.52,0-1.01,0.07-1.46,0.22C65.39,6.05,65.13,6.24,65.05,6.48z M79.23,4.86l7.13,0.06l0.49,9.81
	c-0.13,0.4-0.37,0.61-0.74,0.61c-0.25,0-0.5-0.1-0.74-0.3c-0.24-0.19-0.39-0.42-0.44-0.71c0.01-0.24,0.04-1,0.06-2.29
	c0.04-1.29,0.08-2.53,0.13-3.7c0.04-1.19,0.07-1.96,0.08-2.31c-0.4-0.03-0.98-0.04-1.76-0.04c-1.06,0-1.94-0.04-2.65-0.12
	c0.04,0.45,0.08,1.88,0.11,4.31c0.03,2.41,0.06,3.82,0.08,4.21c-0.13,0.42-0.37,0.63-0.74,0.63c-0.25,0-0.5-0.09-0.74-0.28
	c-0.23-0.2-0.37-0.45-0.42-0.73c0.04-0.67,0.06-1.35,0.06-2.02c0-0.35-0.01-0.93-0.02-1.74c-0.01-0.81-0.02-1.45-0.02-1.92
	C79.1,6.93,79.14,5.78,79.23,4.86z M88.82,4.33l1.19,0.2c0,0.28,0.01,0.49,0.02,0.63c0.78-0.47,1.56-0.71,2.35-0.71
	c1.28,0,2.29,0.53,3.01,1.58c0.72,1.05,1.08,2.25,1.08,3.58c0,0.67-0.06,1.32-0.17,1.94c-0.1,0.61-0.28,1.23-0.55,1.88
	c-0.27,0.63-0.68,1.15-1.25,1.54c-0.55,0.38-1.22,0.57-2.01,0.57c-0.75,0-1.47-0.19-2.16-0.57c0.06,2.36,0.11,4.11,0.15,5.26
	c-0.13,0.42-0.37,0.63-0.74,0.63c-0.25,0-0.5-0.1-0.74-0.3c-0.23-0.19-0.37-0.42-0.42-0.71L88.82,4.33z M90.2,6.48l0.06,6.54
	c0.17,0.32,0.43,0.59,0.78,0.79c0.35,0.19,0.74,0.28,1.16,0.28c0.55,0,1.02-0.17,1.4-0.51c0.4-0.34,0.67-0.78,0.83-1.34
	c0.17-0.57,0.28-1.09,0.34-1.58c0.07-0.49,0.11-1,0.11-1.54c0-2.29-0.81-3.44-2.43-3.44c-0.52,0-1.01,0.07-1.46,0.22
	C90.54,6.05,90.28,6.24,90.2,6.48z M98.18,10.67c0-0.54,0.06-1.14,0.17-1.8c0.13-0.66,0.31-1.36,0.55-2.08
	c0.24-0.73,0.6-1.34,1.08-1.82c0.48-0.49,1.04-0.73,1.67-0.73c1.35,0,2.44,0.59,3.26,1.76c0.82,1.16,1.23,2.45,1.23,3.88
	c0,0.61-0.07,1.21-0.21,1.82c-0.13,0.59-0.33,1.18-0.61,1.76c-0.28,0.58-0.69,1.07-1.23,1.46c-0.52,0.38-1.14,0.59-1.84,0.65
	c-1.3-0.16-2.3-0.69-3.01-1.58C98.53,13.08,98.18,11.98,98.18,10.67z M101.78,5.29c-0.49,0.05-0.91,0.49-1.25,1.29
	c-0.34,0.81-0.56,1.6-0.66,2.37c-0.1,0.76-0.15,1.42-0.15,2c0,0.76,0.24,1.46,0.72,2.1c0.49,0.63,1.04,0.95,1.65,0.95
	c0.44,0,0.83-0.16,1.19-0.49c0.35-0.32,0.63-0.72,0.83-1.19c0.21-0.49,0.37-0.97,0.47-1.46c0.11-0.49,0.17-0.92,0.17-1.29
	c0-1.11-0.26-2.07-0.78-2.89C103.43,5.86,102.71,5.39,101.78,5.29z M109.61,10.87l-0.3,0.04c-0.01,0.11-0.02,0.27-0.02,0.49
	c0,1.89,0.76,2.83,2.27,2.83c0.23,0,0.71-0.08,1.44-0.24c0.75-0.18,1.29-0.26,1.63-0.26c0.34,0,0.54,0.38,0.61,1.13
	c-1.24,0.38-2.39,0.57-3.45,0.57c-0.83,0-1.52-0.11-2.05-0.32c-0.54-0.2-0.94-0.52-1.21-0.95c-0.27-0.43-0.45-0.9-0.55-1.4
	c-0.08-0.51-0.13-1.15-0.13-1.92c0-0.94,0.06-1.77,0.19-2.47c0.14-0.71,0.38-1.38,0.72-1.98c0.34-0.62,0.83-1.09,1.46-1.42
	c0.65-0.32,1.44-0.49,2.37-0.49c1.04,0,1.84,0.16,2.39,0.47l-0.11,0.87c-0.59-0.08-1.1-0.12-1.52-0.12c-1.17,0-2.04,0.32-2.6,0.97
	c-0.55,0.65-0.97,1.57-1.25,2.77c0.49-0.01,1.17-0.05,2.03-0.1c0.86-0.05,1.38-0.09,1.55-0.1l0.06,1.01
	C112.16,10.5,110.98,10.71,109.61,10.87z M123.9,14.47l0.06,0.89c-0.34,0.08-0.58,0.12-0.72,0.12c-0.54,0-1.02-0.17-1.46-0.51
	c-0.44-0.34-0.8-0.75-1.08-1.23c-0.28-0.49-0.55-0.97-0.8-1.46c-0.24-0.49-0.5-0.9-0.78-1.23c-0.28-0.34-0.57-0.51-0.87-0.51
	c-0.11,0-0.22,0.02-0.32,0.06c0.06,0.81,0.15,2.12,0.3,3.93c-0.13,0.42-0.37,0.63-0.74,0.63c-0.25,0-0.5-0.09-0.74-0.28
	c-0.23-0.2-0.37-0.45-0.42-0.73c0.06-2.27,0.09-4.4,0.09-6.39c0-1.47,0.06-2.64,0.19-3.5l0.95,0.32c0.11,0.53,0.18,1.28,0.19,2.27
	c0.01,0.97,0.03,1.57,0.04,1.8c0.42-0.07,0.79-0.28,1.1-0.63c0.32-0.35,0.59-0.75,0.78-1.19c0.21-0.45,0.43-0.88,0.66-1.32
	c0.23-0.43,0.51-0.8,0.87-1.09c0.37-0.3,0.8-0.45,1.29-0.45c0.25,0,0.65,0.08,1.19,0.24l-0.08,0.69c-0.08-0.01-0.2-0.02-0.34-0.02
	c-0.56,0-1.06,0.23-1.48,0.69c-0.41,0.45-0.72,0.94-0.93,1.5c-0.2,0.54-0.45,1.06-0.76,1.56c-0.31,0.5-0.65,0.79-1.02,0.87
	c0.52,0.12,0.97,0.46,1.33,1.01c0.38,0.55,0.66,1.13,0.85,1.72c0.2,0.58,0.48,1.11,0.85,1.6c0.37,0.47,0.82,0.71,1.35,0.71
	C123.57,14.53,123.73,14.51,123.9,14.47z M124.15,5.69l-0.19-0.89c1.89-0.11,4.87-0.26,8.93-0.45c0.34,0.01,0.63,0.13,0.87,0.36
	c0.24,0.23,0.36,0.47,0.36,0.73c0,0.4-0.28,0.63-0.85,0.69l-3.96-0.18c0.07,1.01,0.11,2.49,0.11,4.43c0.01,1.93,0.04,3.34,0.08,4.23
	c-0.13,0.39-0.37,0.59-0.74,0.59c-0.24,0-0.47-0.09-0.7-0.28c-0.23-0.19-0.37-0.42-0.42-0.69c0.2-3.32,0.4-6.1,0.61-8.36
	L124.15,5.69z M136.52,20.97l-1.31-0.71c0.58-0.96,1.6-2.78,3.07-5.46c-1.14-0.97-2.02-2.44-2.63-4.41
	c-0.61-1.97-0.97-3.94-1.1-5.91l1.23,0.06c0.07,0.32,0.22,1.07,0.44,2.23c0.24,1.15,0.43,2,0.57,2.55c0.14,0.55,0.39,1.25,0.74,2.08
	c0.37,0.82,0.78,1.52,1.25,2.08c1.96-3.6,2.94-6.56,2.94-8.86V4.4c0.73,0.11,1.28,0.24,1.65,0.38c-0.23,1.42-0.58,2.86-1.06,4.33
	c-0.48,1.47-1.08,2.95-1.8,4.45c-0.72,1.48-1.36,2.73-1.93,3.74C138.04,18.32,137.35,19.54,136.52,20.97z"/>
<path class="st1" d="M71.25,34.81c0.11,0.11,0.17,0.27,0.17,0.49c0,0.25,0.04,0.34,0.17,0.38c0.26,0.08,0.28,0.36,0.08,1.37
	c-0.1,0.52-0.22,1.4-0.26,1.97c-0.5,6.77-3.4,13.32-8.54,19.35c-1.06,1.24-4.11,4.21-5.35,5.2c-6.24,5.01-13.03,7.96-19.86,8.62
	c-0.41,0.04-0.76,0.09-0.79,0.11c-0.04,0.04,0.51,1.06,1.34,2.47c0.48,0.81,0.49,1.04,0.07,1.25c-0.23,0.12-0.33,0.11-1.33-0.08
	c-0.59-0.12-1.57-0.37-2.18-0.57c-1.38-0.45-5.94-2.28-6.16-2.48c-0.09-0.08-0.16-0.21-0.16-0.28c0-0.19,0.65-1.89,1.17-3.05
	c0.62-1.39,2.05-4.39,2.15-4.51c0.05-0.06,0.21-0.1,0.35-0.1c0.23,0,0.39,0.12,1.06,0.8c0.92,0.92,1.69,1.85,2.07,2.48l0.27,0.44
	l1.44-0.04c1.53-0.05,2.35-0.17,3.75-0.56c4.53-1.27,9.03-4.19,16.04-10.44c6.74-6,10.97-11.78,13.11-17.94
	c0.51-1.47,0.59-1.88,0.71-3.64c0.06-0.98,0.1-1.21,0.23-1.3C71,34.61,71.05,34.62,71.25,34.81z M68.11,46.32
	c-2.99,4.99-8.61,10.9-15.16,15.94c-5.08,3.91-9.56,6.34-12.85,6.96c-1.1,0.21-2.65,0.22-3.57,0.04c-0.35-0.07-0.65-0.12-0.66-0.1
	c-0.01,0.01-0.08,0.13-0.16,0.25c-0.16,0.24-0.44,0.3-0.66,0.12c-0.07-0.06-0.52-0.57-0.99-1.13c-0.47-0.57-1.04-1.23-1.27-1.47
	l-0.41-0.44l-0.65,1.39c-1.06,2.27-1.84,4.12-1.84,4.36c0,0.11,0.11,0.16,1.74,0.79c2.68,1.05,5.23,1.89,5.35,1.77
	c0.04-0.04-0.25-0.73-0.79-1.9c-0.25-0.54-0.28-0.68-0.21-0.84c0.05-0.11,0.13-0.2,0.18-0.2s0.09-0.05,0.09-0.12
	c0-0.19,0.21-0.26,1.78-0.57c7.16-1.42,13.78-4.56,19.15-9.09c1.25-1.06,3.66-3.44,4.59-4.55c2.94-3.5,5.16-7.26,6.65-11.24
	C68.85,45.13,68.82,45.14,68.11,46.32z"/>
</svg>
