<?xml version="1.0" encoding="utf-8"?>
<!-- Generator: Adobe Illustrator 27.6.1, SVG Export Plug-In . SVG Version: 6.00 Build 0)  -->
<svg version="1.1" id="Layer_1" xmlns="http://www.w3.org/2000/svg" xmlns:xlink="http://www.w3.org/1999/xlink" x="0px" y="0px"
	 viewBox="0 0 380 188" style="enable-background:new 0 0 380 188;" xml:space="preserve">
<style type="text/css">
	.st0{opacity:0.5;fill:#FCE389;enable-background:new    ;}
</style>
<path class="st0" d="M19.3,177.87c-0.19-0.52-0.93-0.52-1.12,0l-0.78,2.1c-0.06,0.16-0.19,0.29-0.35,0.35l-2.1,0.78
	c-0.52,0.19-0.52,0.93,0,1.12l2.1,0.78c0.16,0.06,0.29,0.19,0.35,0.35l0.78,2.1c0.19,0.52,0.93,0.52,1.12,0l0.78-2.1
	c0.06-0.16,0.19-0.29,0.35-0.35l2.1-0.78c0.52-0.2,0.52-0.93,0-1.12l-2.1-0.78c-0.16-0.06-0.29-0.19-0.35-0.35L19.3,177.87z"/>
<path class="st0" d="M53.28,107.29c-0.19-0.52-0.93-0.52-1.12,0l-0.57,1.52c-0.06,0.16-0.19,0.29-0.35,0.35l-1.52,0.57
	c-0.52,0.19-0.52,0.93,0,1.12l1.52,0.57c0.16,0.06,0.29,0.19,0.35,0.35l0.57,1.52c0.19,0.52,0.93,0.52,1.12,0l0.57-1.52
	c0.06-0.16,0.19-0.29,0.35-0.35l1.52-0.57c0.52-0.19,0.52-0.93,0-1.12l-1.52-0.57c-0.16-0.06-0.29-0.19-0.35-0.35L53.28,107.29z"/>
<path class="st0" d="M6.09,81.96c-0.19-0.52-0.93-0.52-1.12,0l-0.89,2.39c-0.06,0.16-0.19,0.29-0.35,0.35L1.33,85.6
	c-0.52,0.19-0.52,0.93,0,1.12l2.39,0.89c0.16,0.06,0.29,0.19,0.35,0.35l0.89,2.39c0.19,0.52,0.93,0.52,1.12,0l0.89-2.39
	c0.06-0.16,0.19-0.29,0.35-0.35l2.39-0.89c0.52-0.19,0.52-0.93,0-1.12L7.34,84.7c-0.16-0.06-0.29-0.19-0.35-0.35L6.09,81.96z"/>
<path class="st0" d="M30.58,2.41c-0.2-0.51-0.92-0.51-1.12,0L28.5,4.88c-0.06,0.16-0.19,0.29-0.36,0.35l-2.51,0.89
	c-0.53,0.19-0.53,0.94,0,1.13l2.51,0.89c0.16,0.06,0.29,0.19,0.36,0.35l0.96,2.47c0.2,0.51,0.92,0.51,1.12,0l0.96-2.47
	c0.06-0.16,0.19-0.29,0.36-0.35l2.51-0.89c0.53-0.19,0.53-0.94,0-1.13L31.9,5.23c-0.16-0.06-0.29-0.19-0.36-0.35L30.58,2.41z"/>
<path class="st0" d="M88.98,28.42c-0.2-0.51-0.92-0.51-1.12,0l-0.96,2.47c-0.06,0.16-0.19,0.29-0.36,0.35l-2.51,0.89
	c-0.53,0.19-0.53,0.94,0,1.13l2.51,0.89c0.16,0.06,0.29,0.19,0.36,0.35l0.96,2.47c0.2,0.51,0.92,0.51,1.12,0l0.96-2.47
	c0.06-0.16,0.19-0.29,0.36-0.35l2.51-0.89c0.53-0.19,0.53-0.94,0-1.13l-2.51-0.89c-0.16-0.06-0.29-0.19-0.36-0.35L88.98,28.42z"/>
<path class="st0" d="M328.51,24.26c0.19,0.52,0.93,0.52,1.12,0l0.78-2.1c0.06-0.16,0.19-0.29,0.35-0.35l2.1-0.78
	c0.52-0.19,0.52-0.93,0-1.12l-2.1-0.78c-0.16-0.06-0.29-0.19-0.35-0.35l-0.78-2.1c-0.19-0.52-0.93-0.52-1.12,0l-0.78,2.1
	c-0.06,0.16-0.19,0.29-0.35,0.35l-2.1,0.78c-0.52,0.19-0.52,0.93,0,1.12l2.1,0.78c0.16,0.06,0.29,0.19,0.35,0.35L328.51,24.26z"/>
<path class="st0" d="M374.29,74.46c0.19,0.52,0.93,0.52,1.12,0l0.57-1.52c0.06-0.16,0.19-0.29,0.35-0.35l1.52-0.57
	c0.52-0.19,0.52-0.93,0-1.12l-1.52-0.57c-0.16-0.06-0.29-0.19-0.35-0.35l-0.57-1.52c-0.19-0.52-0.93-0.52-1.12,0l-0.57,1.52
	c-0.06,0.16-0.19,0.29-0.35,0.35l-1.52,0.57c-0.52,0.19-0.52,0.93,0,1.12l1.52,0.57c0.16,0.06,0.29,0.19,0.35,0.35L374.29,74.46z"/>
<path class="st0" d="M354.66,185.54c0.2,0.51,0.92,0.51,1.12,0l0.96-2.47c0.06-0.16,0.19-0.29,0.36-0.35l2.51-0.89
	c0.53-0.19,0.53-0.94,0-1.13l-2.51-0.89c-0.16-0.06-0.29-0.18-0.36-0.35l-0.96-2.47c-0.2-0.51-0.92-0.51-1.12,0l-0.96,2.47
	c-0.06,0.16-0.19,0.29-0.36,0.35l-2.51,0.89c-0.53,0.19-0.53,0.94,0,1.13l2.51,0.89c0.16,0.06,0.3,0.18,0.36,0.35L354.66,185.54z"/>
<path class="st0" d="M267.85,160.7c0.2,0.51,0.92,0.51,1.12,0l0.96-2.47c0.06-0.16,0.19-0.29,0.36-0.35l2.51-0.89
	c0.53-0.19,0.53-0.94,0-1.13l-2.51-0.89c-0.16-0.06-0.29-0.18-0.36-0.35l-0.96-2.47c-0.2-0.51-0.92-0.51-1.12,0l-0.96,2.47
	c-0.06,0.16-0.19,0.29-0.36,0.35l-2.51,0.89c-0.53,0.19-0.53,0.94,0,1.13l2.51,0.89c0.16,0.06,0.29,0.18,0.36,0.35L267.85,160.7z"/>
</svg>
