<?xml version="1.0" encoding="utf-8"?>
<!-- Generator: Adobe Illustrator 27.6.1, SVG Export Plug-In . SVG Version: 6.00 Build 0)  -->
<svg version="1.1" id="Layer_1" xmlns="http://www.w3.org/2000/svg" xmlns:xlink="http://www.w3.org/1999/xlink" x="0px" y="0px"
	 viewBox="0 0 360 45" style="enable-background:new 0 0 360 45;" xml:space="preserve">
<style type="text/css">
	.st0{fill:none;stroke:#8787C1;stroke-width:1.5;}
</style>
<path class="st0" d="M338.93,15.32L338.93,15.32c0.71-0.73,1.67-1.3,2.66-1.51c0.97-0.2,1.94-0.05,2.73,0.61
	c0.87,0.74,1.34,1.84,1.53,3.09c0.18,1.25,0.07,2.59-0.17,3.71c-0.59,2.73-2.05,5.23-3.62,7.64l-0.01,0.02l-0.01,0.02l-0.64,1.25
	c-0.18,0.2-0.57,0.58-0.97,0.88c-0.22,0.16-0.42,0.28-0.58,0.33c-0.07,0.02-0.11,0.03-0.13,0.03c-0.75-0.56-1.51-1.11-2.26-1.65
	c-1.85-1.34-3.69-2.67-5.39-4.15l0,0c-1.82-1.59-3.47-3.68-3.13-5.96l0,0c0.14-0.92,0.77-1.82,1.67-2.46
	c0.9-0.64,1.99-0.96,2.94-0.83l0,0c1.39,0.19,2.3,1.15,3.25,2.35l0.78,0.98l0.14-1.24C337.85,17.18,338.18,16.09,338.93,15.32z
	 M339.69,31.39C339.69,31.39,339.7,31.39,339.69,31.39C339.7,31.39,339.69,31.39,339.69,31.39z"/>
<path class="st0" d="M13.84,7.23L13.84,7.23c0.9-0.93,2.12-1.65,3.36-1.91c1.23-0.26,2.45-0.07,3.45,0.78
	c1.1,0.93,1.7,2.33,1.93,3.91c0.23,1.58,0.09,3.27-0.21,4.69c-0.74,3.45-2.6,6.62-4.57,9.66l-0.02,0.03l-0.02,0.03L16.94,26
	c-0.23,0.25-0.72,0.73-1.23,1.11c-0.28,0.21-0.53,0.35-0.73,0.41c-0.09,0.03-0.14,0.04-0.16,0.04c-0.95-0.71-1.91-1.4-2.86-2.09
	c-2.34-1.69-4.67-3.37-6.82-5.25h0c-2.3-2.01-4.39-4.65-3.96-7.54l0,0c0.17-1.17,0.98-2.3,2.12-3.11c1.14-0.81,2.51-1.22,3.72-1.05
	l0,0c1.76,0.25,2.91,1.45,4.12,2.97l0.98,1.24l0.18-1.57C12.47,9.59,12.89,8.21,13.84,7.23z M14.8,27.56
	C14.8,27.56,14.81,27.56,14.8,27.56C14.81,27.56,14.8,27.56,14.8,27.56z"/>
<path class="st0" d="M283.78,9.94L283.78,9.94c0.82-0.85,1.95-1.52,3.09-1.76c1.13-0.24,2.26-0.06,3.18,0.72
	c1.02,0.86,1.56,2.15,1.78,3.61c0.21,1.45,0.09,3.01-0.2,4.32c-0.69,3.18-2.39,6.09-4.21,8.9l-0.02,0.03l-0.01,0.03l-0.75,1.45
	c-0.21,0.23-0.66,0.68-1.14,1.02c-0.26,0.19-0.49,0.32-0.67,0.38c-0.08,0.03-0.13,0.03-0.15,0.03c-0.87-0.65-1.76-1.29-2.63-1.92
	c-2.16-1.56-4.3-3.11-6.28-4.83h0c-2.12-1.85-4.04-4.29-3.65-6.95l0,0c0.16-1.08,0.9-2.12,1.95-2.86c1.05-0.74,2.32-1.12,3.42-0.97
	l0,0c1.62,0.23,2.68,1.34,3.79,2.74l0.9,1.14l0.17-1.45C282.53,12.11,282.91,10.84,283.78,9.94z M284.67,28.66
	C284.67,28.66,284.68,28.66,284.67,28.66C284.68,28.66,284.67,28.66,284.67,28.66z"/>
<path class="st0" d="M72,22.89L72,22.89c0.82-0.85,1.95-1.52,3.09-1.76c1.13-0.24,2.26-0.06,3.18,0.72
	c1.02,0.86,1.56,2.15,1.78,3.61c0.21,1.45,0.09,3.01-0.2,4.32c-0.69,3.18-2.39,6.09-4.21,8.9l-0.02,0.03l-0.01,0.03l-0.75,1.45
	c-0.21,0.23-0.66,0.68-1.14,1.02c-0.26,0.19-0.49,0.32-0.67,0.38c-0.08,0.03-0.13,0.03-0.15,0.03c-0.87-0.65-1.76-1.29-2.63-1.92
	c-2.16-1.56-4.3-3.11-6.28-4.83h0c-2.12-1.85-4.04-4.29-3.65-6.95l0,0c0.16-1.08,0.9-2.12,1.95-2.86c1.05-0.74,2.32-1.12,3.42-0.97
	l0,0c1.62,0.23,2.68,1.34,3.79,2.74l0.9,1.14l0.17-1.45C70.74,25.06,71.13,23.8,72,22.89z M72.89,41.61
	C72.89,41.61,72.89,41.61,72.89,41.61C72.89,41.61,72.89,41.61,72.89,41.61z"/>
</svg>
